<?xml version="1.0" standalone="no"?>
<!DOCTYPE svg PUBLIC "-//W3C//DTD SVG 1.1//EN" "http://www.w3.org/Graphics/SVG/1.1/DTD/svg11.dtd" >
<svg xmlns="http://www.w3.org/2000/svg" xmlns:xlink="http://www.w3.org/1999/xlink" version="1.1">
<metadata>
Created by FontForge 20201107 at Tue Aug  6 05:21:12 2024
 By 
Copyright (c) 2015 by Kostas Bartsokas. All rights reserved.
</metadata>
<defs>
<font id="AvertaStdCY-SemiboldItalic" horiz-adv-x="0" >
  <font-face 
    font-family="Averta Std CY Semibold"
    font-weight="600"
    font-style="italic"
    font-stretch="normal"
    units-per-em="2048"
    panose-1="0 0 7 0 0 0 0 0 0 0"
    ascent="1638"
    descent="-410"
    x-height="999"
    cap-height="1454"
    bbox="-1466 -758 2843 2152"
    underline-thickness="100"
    underline-position="-173"
    slope="-7"
    unicode-range="U+000D-2E18"
  />
<missing-glyph horiz-adv-x="827" 
 />
    <glyph glyph-name=".notdef" horiz-adv-x="827" 
 />
    <glyph glyph-name=".null" 
 />
    <glyph glyph-name="nonmarkingreturn" horiz-adv-x="682" 
 />
    <glyph glyph-name="CR" unicode="&#xd;" 
 />
    <glyph glyph-name="space" unicode=" " horiz-adv-x="415" 
 />
    <glyph glyph-name="exclam" unicode="!" horiz-adv-x="561" 
d="M205 457l86 1050h248l-170 -1050h-164zM256 -16q-63 0 -104 41.5t-41 103.5q0 66 43 110t108 44q63 0 105.5 -42.5t42.5 -105.5q0 -65 -44 -108t-110 -43z" />
    <glyph glyph-name="quotedbl" unicode="&#x22;" horiz-adv-x="772" 
d="M123 938l121 516h239l-182 -516h-178zM461 938l121 516h239l-182 -516h-178z" />
    <glyph glyph-name="numbersign" unicode="#" horiz-adv-x="1210" 
d="M152 -82l104 399h-199l21 168h225l78 303h-219l18 170h248l98 385h158l-98 -385h260l98 385h158l-98 -385h204l-20 -170h-234l-75 -303h225l-23 -168h-252l-102 -399h-158l105 399h-260l-103 -399h-159zM461 485h262l74 303h-258z" />
    <glyph glyph-name="dollar" unicode="$" horiz-adv-x="1101" 
d="M629 811q27 -17 86.5 -50t89 -50.5t73 -52t65 -65t38 -76.5t16.5 -99q0 -196 -117.5 -306.5t-301.5 -123.5l-29 -238h-168l31 248q-108 22 -196 79.5t-140 141.5l174 160q37 -85 109.5 -129.5t158.5 -44.5q100 0 167 51.5t67 128.5q-1 26 -9.5 46t-33.5 40.5t-43.5 32
t-66.5 38t-75 42.5q-10 6 -46.5 27t-49 29t-45 28.5t-46 32t-39.5 33.5t-37.5 38.5t-28.5 41t-24.5 48t-13.5 53t-6 60.5q0 160 106 265t271 126l31 254h168l-33 -260q187 -39 301 -193l-170 -147q-90 135 -246 135q-78 0 -130 -44.5t-50 -109.5q1 -22 10 -41t19 -32.5
t37.5 -34t45 -31.5t60.5 -38q14 -9 21 -13z" />
    <glyph glyph-name="percent" unicode="%" horiz-adv-x="2064" 
d="M766 -43l-178 82l755 1450l181 -84zM541 655q-161 0 -267 106t-106 271q0 185 121 309.5t297 124.5q163 0 270 -103.5t107 -268.5q0 -127 -57.5 -228t-153.5 -156t-211 -55zM547 831q94 0 157.5 69.5t63.5 186.5q0 91 -52.5 147t-135.5 56q-91 0 -155.5 -72t-64.5 -184
q0 -91 53 -147t134 -56zM1530 -16q-161 0 -267 105.5t-106 270.5q0 185 121 310t297 125q164 0 271.5 -104.5t107.5 -268.5q0 -193 -123 -315.5t-301 -122.5zM1536 160q94 0 158.5 70t64.5 186q0 91 -53.5 146.5t-136.5 55.5q-90 0 -154.5 -73t-64.5 -183q0 -91 53 -146.5
t133 -55.5z" />
    <glyph glyph-name="ampersand" unicode="&#x26;" horiz-adv-x="1517" 
d="M481 -16q-170 0 -278.5 105.5t-108.5 277.5q0 143 76.5 265.5t218.5 186.5q-102 92 -102 221q0 127 61 226.5t159.5 151.5t213.5 52q306 0 387 -288l-205 -66q-28 151 -168 154q-99 0 -157 -58t-58 -163q0 -59 37.5 -101.5t110.5 -42.5h843l-24 -200h-311
q-19 -157 -71.5 -286.5t-137 -228t-208.5 -152.5t-278 -54zM516 199q74 0 140.5 29t116 78t88 114t62 137t33.5 148h-294q-94 0 -170 -50t-114 -121.5t-38 -144.5q0 -88 47 -139t129 -51z" />
    <glyph glyph-name="quotesingle" unicode="'" horiz-adv-x="432" 
d="M123 938l121 516h239l-182 -516h-178z" />
    <glyph glyph-name="parenleft" unicode="(" horiz-adv-x="610" 
d="M238 -319q-123 283 -123 647q0 325 92.5 641.5t263.5 552.5l158 -70q-146 -232 -224.5 -519.5t-78.5 -574.5q0 -314 96 -591z" />
    <glyph glyph-name="parenright" unicode=")" horiz-adv-x="610" 
d="M168 -311l-158 69q145 242 222 528t77 568q0 322 -96 590l180 86q129 -264 129 -649q0 -328 -89.5 -633t-264.5 -559z" />
    <glyph glyph-name="asterisk" unicode="*" horiz-adv-x="792" 
d="M358 793l37 223l-172 -119l-59 125l178 100l-156 105l88 125l146 -119l20 221h146l-37 -221l172 117l59 -123l-178 -103l156 -102l-88 -125l-144 119l-22 -223h-146z" />
    <glyph glyph-name="plus" unicode="+" horiz-adv-x="1099" 
d="M395 86l45 379h-331l24 205h334l45 381h209l-47 -381h334l-27 -205h-334l-45 -379h-207z" />
    <glyph glyph-name="comma" unicode="," horiz-adv-x="481" 
d="M-35 -270l121 516h238l-193 -516h-166z" />
    <glyph glyph-name="hyphen" unicode="-" horiz-adv-x="786" 
d="M117 522l26 219h559l-26 -219h-559z" />
    <glyph glyph-name="period" unicode="." horiz-adv-x="555" 
d="M229 -16q-63 0 -104 41.5t-41 103.5q0 66 43.5 110t108.5 44q63 0 105 -42.5t42 -105.5q0 -65 -44 -108t-110 -43z" />
    <glyph glyph-name="slash" unicode="/" horiz-adv-x="778" 
d="M6 -229l-156 84l918 1747l154 -84z" />
    <glyph glyph-name="zero" unicode="0" horiz-adv-x="1212" 
d="M551 -16q-199 0 -311.5 140t-112.5 404q0 173 38.5 331.5t111 284.5t187.5 201.5t257 75.5q198 0 306 -138.5t108 -403.5q0 -139 -24 -270t-73 -244.5t-117.5 -198.5t-163.5 -133.5t-206 -48.5zM553 201q88 0 156.5 62.5t108.5 164.5t60.5 220.5t20.5 242.5
q0 159 -47 237t-147 78q-87 0 -155 -64t-107.5 -167.5t-60 -221t-20.5 -237.5q0 -155 49.5 -235t141.5 -80z" />
    <glyph glyph-name="one" unicode="1" horiz-adv-x="788" 
d="M532 1407h185l-174 -1407h-234l137 1094l-223 -164l-110 180z" />
    <glyph glyph-name="two" unicode="2" horiz-adv-x="1024" 
d="M31 0l14 156l451 479q55 59 87 96.5t72 94t59 110.5t19 108q0 70 -37 115t-102 45q-71 0 -144 -44.5t-118 -127.5l-170 125q64 117 187.5 190.5t262.5 73.5q154 0 256.5 -97.5t102.5 -260.5q0 -141 -72.5 -270.5t-206.5 -268.5l-297 -307v-4h490l-29 -213h-825z" />
    <glyph glyph-name="three" unicode="3" horiz-adv-x="1054" 
d="M453 -16q-168 0 -276 85.5t-140 225.5l227 82q27 -176 180 -176q114 0 182 72.5t68 189.5q0 164 -188 164h-103l25 196h86q56 0 101.5 23.5t72 60.5t41 78t14.5 80q0 64 -39 102.5t-104 38.5q-140 0 -223 -135l-193 109q60 108 175 174.5t255 66.5q159 0 261 -83
t102 -234q0 -124 -55.5 -221t-155.5 -152v-2q80 -39 123 -113.5t43 -179.5q0 -201 -136 -326.5t-343 -125.5z" />
    <glyph glyph-name="four" unicode="4" horiz-adv-x="1095" 
d="M829 444h185l-27 -206h-184l-29 -238h-231l28 238h-536l18 159l705 1010h188zM334 438h276l66 516z" />
    <glyph glyph-name="five" unicode="5" horiz-adv-x="1079" 
d="M991 1194h-481l-53 -320q106 27 172 27q157 0 248.5 -100t91.5 -273q0 -237 -145.5 -390.5t-368.5 -153.5q-280 0 -410 241l195 127q69 -153 211 -153q123 0 202.5 89t79.5 222q0 93 -47 142.5t-139 49.5q-108 0 -215 -77l-135 47l131 735h692z" />
    <glyph glyph-name="six" unicode="6" horiz-adv-x="1130" 
d="M512 -16q-176 0 -289.5 117.5t-113.5 324.5q0 234 95 444t274 363.5t413 214.5l45 -201q-412 -147 -539 -459l2 -2q136 111 314 111q125 0 217 -96.5t92 -270.5q0 -155 -61.5 -279t-178.5 -195.5t-270 -71.5zM520 201q112 0 189 89t77 228q0 79 -45 123.5t-129 44.5
q-67 0 -144.5 -43t-127.5 -108q-2 -27 -2 -82q0 -117 50.5 -184.5t131.5 -67.5z" />
    <glyph glyph-name="seven" unicode="7" horiz-adv-x="935" 
d="M162 1407h786l-16 -156l-596 -1280l-240 45l561 1178h-522z" />
    <glyph glyph-name="eight" unicode="8" horiz-adv-x="1095" 
d="M469 -14q-180 0 -287.5 89.5t-107.5 243.5q0 146 73.5 264.5t204.5 174.5v2q-56 29 -93.5 90t-37.5 147q0 185 129 304.5t322 119.5q146 0 245 -80t99 -223q0 -121 -53 -211.5t-148 -138.5v-4q83 -27 134.5 -104t51.5 -191q0 -224 -147.5 -353.5t-384.5 -129.5zM594 860
q83 0 141 60t58 153q0 65 -40.5 104.5t-113.5 39.5q-84 0 -140.5 -58.5t-56.5 -148.5q0 -65 42.5 -107.5t109.5 -42.5zM504 193q109 0 183.5 74t74.5 190q0 89 -51 139.5t-142 50.5q-111 0 -183.5 -78.5t-72.5 -183.5q0 -88 51 -140t140 -52z" />
    <glyph glyph-name="nine" unicode="9" horiz-adv-x="1116" 
d="M272 -47l-41 192q192 57 326 174t203 279l-2 2q-131 -92 -285 -92q-145 0 -236.5 93.5t-91.5 262.5q0 121 40.5 225.5t110 177t165.5 113.5t205 41q179 0 287 -119.5t108 -324.5q0 -247 -100 -464t-280.5 -365t-408.5 -195zM553 719q75 0 147.5 43t122.5 108q4 58 4 84
q0 120 -48.5 186t-139.5 66q-114 0 -186 -84.5t-72 -216.5q0 -186 172 -186z" />
    <glyph glyph-name="colon" unicode=":" horiz-adv-x="565" 
d="M332 715q-63 0 -104.5 41.5t-41.5 103.5q0 66 43.5 110t108.5 44q63 0 105 -42.5t42 -105.5q0 -65 -43.5 -108t-109.5 -43zM238 -16q-63 0 -104.5 41.5t-41.5 103.5q0 66 43.5 110t108.5 44q63 0 105 -42.5t42 -105.5q0 -65 -43.5 -108t-109.5 -43z" />
    <glyph glyph-name="semicolon" unicode=";" horiz-adv-x="514" 
d="M297 715q-63 0 -104 41.5t-41 103.5q0 66 43 110t108 44q63 0 105.5 -42.5t42.5 -105.5q0 -65 -44 -108t-110 -43zM-18 -270l120 516h238l-193 -516h-165z" />
    <glyph glyph-name="less" unicode="&#x3c;" horiz-adv-x="1114" 
d="M926 66l-805 411l18 168l908 420l-27 -225l-580 -277l510 -276z" />
    <glyph glyph-name="equal" unicode="=" horiz-adv-x="1142" 
d="M197 698l24 205h875l-25 -205h-874zM133 231l25 205h874l-24 -205h-875z" />
    <glyph glyph-name="greater" unicode="&#x3e;" horiz-adv-x="1116" 
d="M86 66l25 221l581 276l-512 277l27 225l805 -420l-19 -168z" />
    <glyph glyph-name="question" unicode="?" horiz-adv-x="894" 
d="M270 457l11 98q2 20 6.5 38.5t13 38t15 33.5t21.5 34t22 30.5t27 32.5t27 30t31 33.5t31 32.5q76 82 114 145t38 142q0 74 -37.5 114.5t-102.5 40.5q-114 0 -200 -116l-150 147q70 91 181 142t233 51q90 0 164.5 -34t123 -109.5t48.5 -182.5q0 -215 -219 -420
q-45 -42 -63.5 -61t-47.5 -51.5t-42.5 -59t-18.5 -53.5l-19 -96h-207zM344 -16q-63 0 -104 41.5t-41 103.5q0 66 43 110t108 44q63 0 105.5 -42.5t42.5 -105.5q0 -65 -44 -108t-110 -43z" />
    <glyph glyph-name="at" unicode="@" horiz-adv-x="1845" 
d="M848 -297q-215 0 -384 91t-266.5 265.5t-97.5 407.5q0 80 15 163t49 170t84 166.5t124.5 150t165 122t211.5 81.5t259 30q228 0 399 -95.5t260.5 -262t89.5 -380.5q0 -62 -11.5 -127.5t-43 -139t-79 -130t-127.5 -94t-181 -37.5q-128 0 -197 84q-38 48 -49 106h-4
q-114 -168 -297 -168q-125 0 -208 91.5t-83 253.5q0 218 124.5 368t305.5 150q139 0 219 -76l7 2l8 61h225l-55 -450q-17 -136 -17 -152q0 -47 20 -70.5t70 -23.5q46 0 85.5 36.5t63.5 92t37 114t13 107.5q0 122 -40.5 228t-113.5 184t-181.5 123t-239.5 45
q-151 0 -276.5 -44.5t-209 -117t-141.5 -168t-83.5 -194.5t-25.5 -199q0 -179 79 -317t209.5 -209.5t287.5 -71.5q226 0 432 104l76 -123q-107 -71 -239.5 -109t-268.5 -38zM834 309q88 0 169.5 98.5t98.5 239.5l8 55q-77 62 -174 62q-94 0 -160.5 -91.5t-66.5 -201.5
q0 -83 36.5 -122.5t88.5 -39.5z" />
    <glyph glyph-name="A" unicode="A" horiz-adv-x="1325" 
d="M-8 0l663 1454h252l307 -1454h-251l-60 315h-524l-137 -315h-250zM469 526h393l-119 625h-4z" />
    <glyph glyph-name="B" unicode="B" horiz-adv-x="1255" 
d="M127 0l178 1454h469q391 0 391 -309q0 -110 -62.5 -214.5t-170.5 -154.5v-4q98 -32 155.5 -106.5t57.5 -188.5q0 -230 -141.5 -353.5t-403.5 -123.5h-473zM473 850h203q108 0 175 64.5t67 185.5q0 74 -49 105.5t-152 31.5h-197zM395 217h209q138 0 214.5 69.5t76.5 202.5
q0 78 -53.5 115t-165.5 37h-227z" />
    <glyph glyph-name="C" unicode="C" horiz-adv-x="1390" 
d="M723 -16q-126 0 -232 38.5t-185.5 112.5t-124 191t-44.5 266q0 179 55 339.5t152.5 279.5t240 189t308.5 70q318 0 504 -303l-205 -143q-113 217 -309 217q-110 0 -204 -54.5t-156.5 -145t-98 -207.5t-35.5 -242q0 -178 89.5 -278.5t254.5 -100.5q94 0 186 48t158 128
l180 -158q-103 -114 -241 -180.5t-293 -66.5z" />
    <glyph glyph-name="D" unicode="D" horiz-adv-x="1419" 
d="M127 0l178 1454h434q291 0 443.5 -159t152.5 -441q0 -256 -92.5 -449t-266.5 -299t-409 -106h-440zM395 217h197q148 0 260 82t171.5 226t59.5 329q0 177 -94 280t-268 103h-201z" />
    <glyph glyph-name="E" unicode="E" horiz-adv-x="1177" 
d="M127 0l178 1454h838l-29 -217h-596l-49 -408h481l-26 -217h-482l-49 -395h635l-27 -217h-874z" />
    <glyph glyph-name="F" unicode="F" horiz-adv-x="1153" 
d="M127 0l178 1454h869l-27 -217h-627l-55 -440h526l-26 -217h-527l-69 -580h-242z" />
    <glyph glyph-name="G" unicode="G" horiz-adv-x="1447" 
d="M729 -16q-102 0 -191.5 24t-163 73.5t-126.5 121t-82 171t-29 218.5q0 238 95 438.5t267 320t384 119.5q331 0 497 -249l-200 -148q-108 168 -308 168q-136 0 -247 -87t-172.5 -234t-61.5 -322q0 -186 91 -289.5t257 -103.5q155 0 293 98l35 254h-305l29 217h544
l-71 -610q-100 -83 -243 -131.5t-292 -48.5z" />
    <glyph glyph-name="H" unicode="H" horiz-adv-x="1431" 
d="M127 0l178 1454h242l-80 -651h573l80 651h242l-178 -1454h-244l74 586h-574l-71 -586h-242z" />
    <glyph glyph-name="I" unicode="I" horiz-adv-x="636" 
d="M135 0l178 1454h244l-178 -1454h-244z" />
    <glyph glyph-name="J" unicode="J" horiz-adv-x="993" 
d="M365 -16q-101 0 -191.5 49t-146.5 139l168 168q75 -127 170 -127q185 0 227 326l113 915h243l-114 -928q-33 -269 -145.5 -405.5t-323.5 -136.5z" />
    <glyph glyph-name="K" unicode="K" horiz-adv-x="1275" 
d="M1350 1454l-549 -645l381 -809h-277l-284 631l-205 -238l-47 -393h-242l178 1454h242l-86 -696l6 -2l580 698h303z" />
    <glyph glyph-name="L" unicode="L" horiz-adv-x="1118" 
d="M127 0l178 1454h242l-152 -1237h600l-26 -217h-842z" />
    <glyph glyph-name="M" unicode="M" horiz-adv-x="1703" 
d="M127 0l178 1454h246l311 -870h6l523 870h241l-178 -1454h-242l115 952l-6 2l-410 -673h-166l-251 708l-5 -2l-120 -987h-242z" />
    <glyph glyph-name="N" unicode="N" horiz-adv-x="1478" 
d="M127 0l178 1454h244l483 -1048l6 4l129 1044h242l-180 -1454h-246l-481 1032h-6l-127 -1032h-242z" />
    <glyph glyph-name="O" unicode="O" horiz-adv-x="1566" 
d="M721 -16q-266 0 -425 162.5t-159 449.5q0 172 55.5 330.5t153 279t242 192.5t311.5 72q265 0 425.5 -162.5t160.5 -447.5q0 -140 -33 -270t-99 -240t-156.5 -192t-213 -128t-262.5 -46zM739 209q106 0 199.5 54t157 143.5t100.5 206.5t37 241q0 194 -95.5 293.5
t-265.5 99.5q-104 0 -195.5 -55.5t-153.5 -145.5t-98 -206.5t-36 -237.5q0 -192 93 -292.5t257 -100.5z" />
    <glyph glyph-name="P" unicode="P" horiz-adv-x="1220" 
d="M127 0l178 1454h490q207 0 302 -99t95 -292q0 -255 -148.5 -398t-427.5 -143h-184l-63 -522h-242zM459 739h190q137 0 214 81.5t77 242.5q0 79 -55 126.5t-146 47.5h-219z" />
    <glyph glyph-name="Q" unicode="Q" horiz-adv-x="1603" 
d="M1485 860q0 -165 -46.5 -315.5t-133.5 -268.5l135 -145l-156 -172l-141 156q-184 -131 -422 -131q-266 0 -425 162.5t-159 449.5q0 172 55.5 330t153 278t242 192t311.5 72q265 0 425.5 -162t160.5 -446zM739 209q133 0 244 84l-119 133l152 164l117 -125
q100 176 100 389q0 193 -95.5 291t-265.5 98q-104 0 -195.5 -54.5t-153.5 -144.5t-98 -205.5t-36 -236.5q0 -192 93 -292.5t257 -100.5z" />
    <glyph glyph-name="R" unicode="R" horiz-adv-x="1282" 
d="M127 0l178 1454h500q207 0 302 -99t95 -292q0 -187 -85 -318.5t-249 -187.5l262 -557h-272l-231 522h-195l-63 -522h-242zM459 739h200q134 0 212.5 85t78.5 239q0 79 -54.5 126.5t-145.5 47.5h-230z" />
    <glyph glyph-name="S" unicode="S" horiz-adv-x="1155" 
d="M547 -16q-158 0 -289 66.5t-201 178.5l179 164q43 -88 123 -137t171 -49q112 0 185 59.5t73 145.5q0 22 -5.5 40t-19 35t-26.5 29.5t-38.5 28.5t-44.5 27t-55 31t-60 34q-13 7 -38 22q-40 23 -60 35t-56 35t-56 40t-48 42t-43 49t-31 54t-22.5 64t-6.5 71
q0 190 136.5 305.5t338.5 115.5q125 0 238 -55.5t188 -154.5l-176 -154q-97 145 -266 145q-93 0 -151 -51t-56 -123q2 -42 30.5 -78t57 -55.5t113.5 -70.5q9 -6 14 -9q29 -17 82 -46t83 -47t72 -46t66 -53.5t48.5 -60t35 -76.5t10.5 -91q0 -112 -39 -201t-107.5 -145
t-157 -85t-191.5 -29z" />
    <glyph glyph-name="T" unicode="T" horiz-adv-x="1118" 
d="M377 0l151 1237h-368l24 217h983l-26 -217h-371l-152 -1237h-241z" />
    <glyph glyph-name="U" unicode="U" horiz-adv-x="1392" 
d="M639 -16q-177 0 -289.5 81t-153 222.5t-16.5 333.5l103 833h241l-102 -831q-13 -84 -5 -159t31.5 -130.5t75 -88t125.5 -32.5q145 0 234 92t114 297l105 852h241l-104 -852q-38 -317 -186 -467.5t-414 -150.5z" />
    <glyph glyph-name="V" unicode="V" horiz-adv-x="1316" 
d="M489 0l-307 1454h254l203 -1128h4l469 1128h270l-663 -1454h-230z" />
    <glyph glyph-name="W" unicode="W" horiz-adv-x="1943" 
d="M420 0l-234 1454h252l150 -1057h6l358 1057h269l114 -1026h6l392 1026h262l-592 -1454h-240l-127 1061h-4l-373 -1061h-239z" />
    <glyph glyph-name="X" unicode="X" horiz-adv-x="1269" 
d="M-27 0l523 735l-326 719h272l238 -545h8l363 545h292l-512 -727l343 -727h-283l-248 547h-8l-381 -547h-281z" />
    <glyph glyph-name="Y" unicode="Y" horiz-adv-x="1189" 
d="M410 0l79 643l-339 811h266l217 -582h6l360 582h281l-547 -811l-82 -643h-241z" />
    <glyph glyph-name="Z" unicode="Z" horiz-adv-x="1208" 
d="M61 0l23 190l772 1041l-2 6h-616l26 217h930l-20 -186l-787 -1043l4 -8h653l-26 -217h-957z" />
    <glyph glyph-name="bracketleft" unicode="[" horiz-adv-x="665" 
d="M29 -301l221 1800h430l-21 -174h-231l-178 -1452h229l-20 -174h-430z" />
    <glyph glyph-name="backslash" unicode="\" horiz-adv-x="811" 
d="M596 -229l-487 1747l184 81l489 -1746z" />
    <glyph glyph-name="bracketright" unicode="]" horiz-adv-x="673" 
d="M10 -301l23 174h237l179 1452h-238l20 174h439l-221 -1800h-439z" />
    <glyph glyph-name="asciicircum" unicode="^" horiz-adv-x="909" 
d="M180 1024l303 430h170l201 -430h-192l-107 279l-182 -279h-193z" />
    <glyph glyph-name="underscore" unicode="_" horiz-adv-x="980" 
d="M-92 -211l18 156h992l-19 -156h-991z" />
    <glyph glyph-name="grave" unicode="`" horiz-adv-x="937" 
d="M508 1102l-193 297l250 -2l170 -295h-227z" />
    <glyph glyph-name="a" unicode="a" horiz-adv-x="1150" 
d="M424 -16q-170 0 -257 113.5t-87 291.5q0 118 35.5 230.5t97.5 200t155.5 141t202.5 53.5q170 0 263 -96l6 2l10 77h223l-123 -997h-223l23 182l-7 2q-68 -98 -153 -149t-166 -51zM467 182q110 0 213 139t131 359l4 37q-44 42 -106 67t-121 25q-84 0 -150 -64.5
t-98.5 -160t-32.5 -199.5q0 -94 41.5 -148.5t118.5 -54.5z" />
    <glyph glyph-name="b" unicode="b" horiz-adv-x="1173" 
d="M518 -16q-237 0 -418 114l174 1409h224l-82 -676l4 -2q142 185 330 185q165 0 252.5 -120t87.5 -304q0 -90 -21.5 -176.5t-68 -164.5t-112.5 -137t-161.5 -93.5t-208.5 -34.5zM496 186q114 0 198 60.5t125 156t41 211.5q0 80 -43 137.5t-117 57.5q-122 0 -220.5 -133.5
t-127.5 -356.5l-14 -110q78 -23 158 -23z" />
    <glyph glyph-name="c" unicode="c" horiz-adv-x="1007" 
d="M498 -14q-192 0 -303 108.5t-111 315.5q0 122 36.5 231t102.5 192.5t167 132t222 48.5q119 0 214.5 -43.5t150.5 -124.5l-176 -131q-64 94 -195 94q-130 0 -212.5 -110t-82.5 -271q0 -121 56.5 -179.5t140.5 -58.5q55 0 114.5 26.5t110.5 80.5l176 -127
q-88 -91 -185.5 -137.5t-225.5 -46.5z" />
    <glyph glyph-name="d" unicode="d" horiz-adv-x="1171" 
d="M426 -16q-170 0 -257 113.5t-87 291.5q0 118 35.5 230t97.5 200t155.5 141.5t202.5 53.5q170 0 271 -96l6 2l72 587h225l-186 -1507h-226l25 186l-6 2q-69 -101 -154 -152.5t-174 -51.5zM469 182q114 0 217 137.5t133 356.5l6 45q-82 88 -235 88q-84 0 -150 -65
t-98.5 -160.5t-32.5 -198.5q0 -94 41.5 -148.5t118.5 -54.5z" />
    <glyph glyph-name="e" unicode="e" horiz-adv-x="980" 
d="M498 190q68 0 120 25t107 82l176 -127q-93 -95 -185 -139.5t-227 -44.5q-188 0 -296.5 110.5t-108.5 304.5q0 123 35.5 233.5t100.5 195t165.5 134.5t222.5 50q134 0 228 -72.5t94 -198.5q0 -91 -52 -161.5t-144.5 -115t-195.5 -70.5t-229 -40q11 -81 64.5 -123.5
t124.5 -42.5zM598 811q-55 0 -109 -27t-102 -91.5t-68 -155.5q383 45 383 196q0 37 -26.5 57.5t-77.5 20.5z" />
    <glyph glyph-name="f" unicode="f" horiz-adv-x="634" 
d="M94 0l99 809h-95l23 190h96l25 207q20 158 96.5 238t200.5 80q132 0 227 -68l-59 -186q-69 49 -129 49q-47 0 -76.5 -33t-40.5 -123l-19 -164h199l-23 -190h-202l-99 -809h-223z" />
    <glyph glyph-name="g" unicode="g" horiz-adv-x="1159" 
d="M406 -420q-191 0 -338 96l73 195q134 -86 275 -86q71 0 121 14t95 51.5t73.5 109.5t42.5 181l10 84l-4 2q-69 -103 -155.5 -157t-172.5 -54q-115 0 -193.5 56t-113.5 145t-35 205q0 85 22 170t64.5 160.5t100.5 134.5t136.5 93t165.5 34q170 0 267 -94l4 2l10 77h223
l-106 -874q-16 -130 -54 -227.5t-89 -157.5t-121 -96.5t-141.5 -50t-159.5 -13.5zM469 215q105 0 207.5 123t130.5 309l10 68q-43 43 -105 68.5t-120 25.5q-64 0 -118.5 -37t-89 -95t-54 -126t-19.5 -133q0 -94 41.5 -148.5t116.5 -54.5z" />
    <glyph glyph-name="h" unicode="h" horiz-adv-x="1138" 
d="M86 0l186 1507h224l-84 -680l4 -2q152 189 360 189q158 0 217 -102t31 -310l-82 -602h-225l80 584q16 114 -5 170.5t-92 56.5q-46 0 -101 -34.5t-105 -91.5t-88.5 -142t-49.5 -176l-45 -367h-225z" />
    <glyph glyph-name="i" unicode="i" horiz-adv-x="528" 
d="M369 1151q-63 0 -104.5 41.5t-41.5 103.5q0 66 43.5 109t108.5 43q63 0 105 -41t42 -104q0 -65 -43.5 -108.5t-109.5 -43.5zM90 0l123 999h225l-123 -999h-225z" />
    <glyph glyph-name="j" unicode="j" horiz-adv-x="491" 
d="M338 1151q-63 0 -104 41.5t-41 103.5q0 66 43 109t108 43q63 0 105.5 -41t42.5 -104q0 -65 -44 -108.5t-110 -43.5zM-25 -420q-106 0 -182 47l57 176q38 -30 91 -30q50 0 77 42.5t37 141.5l129 1042h226l-134 -1073q-42 -346 -301 -346z" />
    <glyph glyph-name="k" unicode="k" horiz-adv-x="1060" 
d="M887 -12q-32 -4 -47 -4q-56 1 -95 18t-72 64t-50.5 83.5t-53.5 122.5q-5 13 -8 19l-20 51q-103 -70 -205 -117l-27 -225h-223l186 1507h224l-127 -1038l4 -2q310 191 411 532h228q-58 -279 -297 -514l53 -133q41 -103 78.5 -140.5t105.5 -51.5z" />
    <glyph glyph-name="l" unicode="l" horiz-adv-x="526" 
d="M96 0l185 1507h225l-187 -1507h-223z" />
    <glyph glyph-name="m" unicode="m" horiz-adv-x="1703" 
d="M88 0l125 999h223l-20 -165l6 -3q149 183 332 183q190 0 233 -180l8 -3q146 183 351 183q153 0 211 -102t30 -310l-82 -602h-225l80 584q14 113 -4 170t-76 57q-38 0 -87 -31.5t-97 -84.5t-87 -135.5t-51 -172.5l-51 -387h-223l78 584q14 113 -4 170t-76 57
q-39 0 -89.5 -34t-98.5 -90.5t-86 -140.5t-50 -173l-45 -373h-225z" />
    <glyph glyph-name="n" unicode="n" horiz-adv-x="1138" 
d="M86 0l125 999h223l-20 -172l4 -2q155 189 358 189q158 0 217 -102t31 -310l-82 -602h-223l78 584q16 114 -5 170.5t-92 56.5q-46 0 -101 -34t-104.5 -90.5t-88 -140t-50.5 -173.5l-45 -373h-225z" />
    <glyph glyph-name="o" unicode="o" horiz-adv-x="1122" 
d="M504 -16q-194 0 -307 111.5t-113 310.5q0 163 62.5 300t185 222.5t282.5 85.5q194 0 309 -108.5t115 -303.5q0 -130 -35.5 -242t-101.5 -196t-168 -132t-229 -48zM510 188q133 0 217 114t84 280q0 53 -14 94.5t-35.5 66t-50.5 40t-56 21t-55 5.5q-85 0 -153 -55.5
t-103 -141t-35 -180.5q0 -107 54 -175.5t147 -68.5z" />
    <glyph glyph-name="p" unicode="p" horiz-adv-x="1169" 
d="M39 -406l172 1405h223l-22 -186l4 -4q137 205 350 205q104 0 178.5 -57.5t108.5 -147.5t34 -201q0 -118 -35 -229.5t-97.5 -199.5t-157 -141.5t-205.5 -53.5q-168 0 -266 88l-4 -2l-60 -476h-223zM535 186q99 0 175.5 59.5t114 150t37.5 194.5q0 96 -38 159.5t-111 63.5
q-120 0 -227 -134.5t-134 -344.5l-6 -49q27 -48 77.5 -73.5t111.5 -25.5z" />
    <glyph glyph-name="q" unicode="q" horiz-adv-x="1148" 
d="M678 -406l74 592l-7 2q-68 -99 -154 -151.5t-167 -52.5q-170 0 -257 113.5t-87 291.5q0 118 35.5 230.5t97.5 200t155.5 141t202.5 53.5q163 0 265 -92l4 2l10 75h223l-172 -1405h-223zM467 182q109 0 212 139t130 345l6 51q-44 44 -106 69t-121 25q-84 0 -150 -65
t-98.5 -161t-32.5 -200q0 -94 41.5 -148.5t118.5 -54.5z" />
    <glyph glyph-name="r" unicode="r" horiz-adv-x="729" 
d="M88 0l125 999h223l-22 -182h4q139 194 330 197l-31 -256q-147 27 -240 -80t-119 -303l-45 -375h-225z" />
    <glyph glyph-name="s" unicode="s" horiz-adv-x="874" 
d="M393 -16q-111 0 -212.5 47.5t-153.5 124.5l147 145q43 -57 100.5 -89t118.5 -32q67 0 112.5 26.5t45.5 72.5q0 25 -21.5 46.5t-44.5 33.5t-86 41q-20 9 -30 14q-116 51 -182 121.5t-66 173.5q0 135 100.5 220t245.5 85q98 0 191 -35.5t157 -106.5l-149 -151
q-41 52 -95.5 76t-105.5 24q-53 0 -85 -25.5t-32 -68.5q0 -39 42 -72t122 -71q120 -59 166 -95q99 -78 100 -184q1 -154 -103.5 -237.5t-281.5 -83.5z" />
    <glyph glyph-name="t" unicode="t" horiz-adv-x="692" 
d="M346 -16q-125 0 -180 78.5t-39 213.5l66 533h-107l23 190h106l41 312l227 45l-43 -357h244l-22 -190h-244l-62 -492q-14 -118 68 -118q58 0 143 51l31 -197q-54 -33 -122 -51t-130 -18z" />
    <glyph glyph-name="u" unicode="u" horiz-adv-x="1116" 
d="M381 -16q-159 0 -226 96t-38 305l86 614h223l-80 -593q-17 -119 9 -168.5t96 -49.5q40 0 89.5 29t95.5 78.5t82 123.5t46 154l51 426h225l-122 -999h-226l23 178h-4q-128 -194 -330 -194z" />
    <glyph glyph-name="v" unicode="v" horiz-adv-x="1038" 
d="M414 -16q-347 0 -293 442l72 573h225l-70 -555q-16 -136 3.5 -196t86.5 -60q84 0 171 102.5t124 295.5q35 184 2 413h230q19 -101 17.5 -231t-24.5 -242q-29 -141 -85 -247.5t-129 -169.5t-156 -94t-174 -31z" />
    <glyph glyph-name="w" unicode="w" horiz-adv-x="1605" 
d="M365 -16q-303 0 -246 426l80 589h223l-74 -573q-16 -130 9.5 -184t88.5 -54q25 0 53 10t62.5 37t64 67.5t54 110t35.5 156.5l53 430h225l-73 -593q-14 -119 9 -168.5t83 -49.5q36 0 77 24t82 70t76 125t53 179q35 187 3 413h229q19 -101 18 -231t-24 -242
q-28 -140 -84 -247t-129.5 -170t-155 -94t-170.5 -31q-117 0 -191.5 57t-90.5 139h-5q-47 -87 -150 -141.5t-185 -54.5z" />
    <glyph glyph-name="x" unicode="x" horiz-adv-x="983" 
d="M-14 0l374 510l-245 489h258l137 -321h4l217 321h270l-374 -499l254 -500h-258l-146 328h-4l-231 -328h-256z" />
    <glyph glyph-name="y" unicode="y" horiz-adv-x="1116" 
d="M821 999h221l-106 -874q-15 -129 -54 -227.5t-89.5 -157.5t-119 -96t-136 -50.5t-146.5 -13.5q-199 0 -346 96l74 195q138 -88 272 -88q67 0 116 14.5t93.5 52t73 110t41.5 181.5l4 35l-4 2q-132 -194 -338 -194q-159 0 -226 96t-38 305l84 614h223l-78 -593
q-15 -120 10 -168t94 -50q61 0 130.5 52t125 148t68.5 206z" />
    <glyph glyph-name="z" unicode="z" horiz-adv-x="954" 
d="M768 -59q-72 22 -156 35t-200 17.5t-179.5 5.5t-207.5 1l18 158l530 649v2h-417l22 190h727l-16 -155l-539 -649v-5q293 -7 479 -65z" />
    <glyph glyph-name="braceleft" unicode="{" horiz-adv-x="708" 
d="M383 -299q-92 0 -147.5 70.5t-40.5 181.5l49 401q4 42 4 75t-32 54.5t-103 24.5l14 174q44 2 76 13t49.5 25.5t29 38.5t15 41.5t6.5 43.5l51 411q12 105 78.5 174.5t163.5 69.5h137l-18 -156h-47q-56 0 -88 -43.5t-37 -95.5l-51 -399q-11 -90 -38.5 -138t-84.5 -71v-4
q25 -12 39.5 -25t25.5 -38t10 -61t-6 -93l-45 -375q-8 -75 10 -109t74 -34h55l-20 -156h-129z" />
    <glyph glyph-name="bar" unicode="|" horiz-adv-x="665" 
d="M145 -236l213 1745h195l-213 -1745h-195z" />
    <glyph glyph-name="braceright" unicode="}" horiz-adv-x="708" 
d="M0 -299l20 156h48q61 0 89 38t38 115l45 375q9 75 24.5 116.5t37.5 60t65 34.5v4q-95 44 -72 215l47 397q13 131 -86 131h-53l18 156h129q97 0 150 -74t41 -180l-52 -409q-7 -27 -5 -53.5t10.5 -48t40.5 -36t86 -16.5l-15 -174q-44 -2 -76 -12.5t-49.5 -24t-29 -37
t-15.5 -42t-8 -48.5l-47 -399q-13 -112 -81.5 -178t-160.5 -66h-139z" />
    <glyph glyph-name="asciitilde" unicode="~" horiz-adv-x="1095" 
d="M721 414q-88 0 -172 47q-90 51 -129 51q-82 0 -146 -102l-159 73q50 111 122 176.5t160 65.5q26 0 48.5 -3t43 -11t30.5 -12.5t29.5 -16t22.5 -12.5q73 -45 123 -45q83 0 146 102l159 -63q-47 -114 -120.5 -182t-157.5 -68z" />
    <glyph glyph-name="uni00A0" unicode="&#xa0;" horiz-adv-x="415" 
 />
    <glyph glyph-name="exclamdown" unicode="&#xa1;" horiz-adv-x="548" 
d="M293 1016q63 0 104 -42t41 -104q0 -66 -43 -109.5t-108 -43.5q-63 0 -105.5 42t-42.5 105q0 65 44 108.5t110 43.5zM344 543l-86 -1051h-248l170 1051h164z" />
    <glyph glyph-name="cent" unicode="&#xa2;" horiz-adv-x="1034" 
d="M516 299q130 0 236 109l176 -127q-76 -76 -151.5 -120.5t-168.5 -58.5l-26 -200h-158l25 198q-161 17 -254 126t-93 286q0 234 126.5 406.5t336.5 201.5l25 201h158l-25 -203q87 -12 158.5 -53.5t113.5 -106.5l-176 -131q-31 47 -80 71t-100 24q-134 0 -221.5 -113.5
t-87.5 -282.5q0 -106 56 -166.5t130 -60.5z" />
    <glyph glyph-name="sterling" unicode="&#xa3;" horiz-adv-x="1054" 
d="M37 0l26 217h121l56 453h-101l21 166h100l16 125q15 126 56 218.5t99.5 143.5t122.5 74.5t136 23.5q110 0 203.5 -55.5t146.5 -151.5l-143 -155q-33 65 -81 100t-99 35q-174 0 -205 -268l-12 -90h282l-20 -166h-281l-55 -453h532l-26 -217h-895z" />
    <glyph glyph-name="currency" unicode="&#xa4;" horiz-adv-x="968" 
d="M866 842q0 -146 -86 -262l123 -158l-119 -105l-125 158q-85 -51 -190 -51q-103 0 -180 49l-154 -154l-100 105l162 160q-29 66 -29 143q0 154 84 274l-127 160l121 105l123 -154q86 55 192 55q107 0 180 -55l154 156l100 -105l-161 -162q32 -72 32 -159zM492 580
q93 0 155 71.5t62 169.5q0 86 -47 138.5t-119 52.5q-93 0 -155 -75t-62 -181q0 -79 45 -127.5t121 -48.5z" />
    <glyph glyph-name="yen" unicode="&#xa5;" horiz-adv-x="1118" 
d="M1208 1407l-424 -666h205l-18 -149h-281l-16 -131h280l-18 -150h-283l-39 -311h-241l39 311h-287l18 150h287l16 131h-286l18 149h211l-254 666h275l186 -578h6l320 578h286z" />
    <glyph glyph-name="brokenbar" unicode="&#xa6;" horiz-adv-x="665" 
d="M270 788l88 721h195l-88 -721h-195zM145 -233l88 720h195l-88 -720h-195z" />
    <glyph glyph-name="section" unicode="&#xa7;" horiz-adv-x="1064" 
d="M649 887q12 -6 37 -18q49 -23 73 -35.5t61.5 -35.5t56 -42.5t39 -48t28.5 -63t8 -77.5q0 -101 -49 -175.5t-135 -117.5q88 -75 88 -202q0 -169 -117.5 -277t-300.5 -108q-245 0 -395 196l145 156q51 -71 122 -106t134 -35q71 0 117.5 43.5t46.5 109.5q0 56 -39.5 87
t-167.5 91q-52 25 -85.5 43.5t-72 47.5t-60.5 59t-37 74t-15 96q0 95 48.5 169t133.5 116q-90 80 -90 210q0 161 113.5 262t284.5 101q111 0 212.5 -44t161.5 -114l-141 -157q-100 100 -223 100q-78 0 -119 -36t-41 -99q0 -50 35.5 -83t142.5 -87zM535 406q24 -10 61 -31
q60 17 92.5 63t32.5 103q0 52 -35 81t-151 83l-54 24q-55 -13 -85.5 -58t-30.5 -100q0 -52 35 -83.5t135 -81.5z" />
    <glyph glyph-name="dieresis" unicode="&#xa8;" horiz-adv-x="976" 
d="M385 1114q-63 0 -105 42t-42 104q0 66 43.5 108.5t109.5 42.5q62 0 104 -41t42 -104q0 -64 -43.5 -108t-108.5 -44zM774 1114q-64 0 -105.5 42t-41.5 104q0 66 43.5 108.5t109.5 42.5q62 0 104 -41t42 -104q0 -64 -44 -108t-108 -44z" />
    <glyph glyph-name="copyright" unicode="&#xa9;" horiz-adv-x="1476" 
d="M733 4q-175 0 -323 88t-233 236.5t-85 322.5q0 173 85 321.5t233.5 237t324.5 88.5q177 0 325 -88t232 -236.5t84 -322.5q0 -173 -84.5 -321.5t-233 -237t-325.5 -88.5zM733 160q134 0 246.5 66.5t176 179.5t63.5 245q0 133 -63 246t-175 179.5t-246 66.5
q-135 0 -247 -67.5t-175 -180.5t-63 -246t63 -245t174.5 -178t245.5 -66zM748 313q-144 0 -240 88t-96 246q0 144 89.5 240t246.5 96q160 0 264 -127l-103 -88q-67 82 -161 82q-84 0 -137.5 -55t-53.5 -148q0 -89 52.5 -143.5t138.5 -54.5q100 0 161 77l103 -88
q-102 -125 -264 -125z" />
    <glyph glyph-name="ordfeminine" unicode="&#xaa;" horiz-adv-x="772" 
d="M338 797q-88 0 -148.5 64.5t-60.5 185.5q0 152 95.5 261t224.5 109q88 0 139 -51h4l6 41h156l-74 -600h-158l13 90h-7q-86 -100 -190 -100zM369 946q64 0 126 69.5t76 184.5l2 17q-16 26 -48 38.5t-62 12.5q-74 0 -122 -69.5t-48 -151.5q0 -101 76 -101z" />
    <glyph glyph-name="guillemotleft" unicode="&#xab;" horiz-adv-x="991" 
d="M268 68l-172 436l283 444h215l-279 -444l170 -436h-217zM655 68l-174 436l285 444h215l-281 -444l170 -436h-215z" />
    <glyph glyph-name="logicalnot" unicode="&#xac;" horiz-adv-x="1054" 
d="M721 313l39 328h-633l23 203h837l-63 -531h-203z" />
    <glyph glyph-name="registered" unicode="&#xae;" horiz-adv-x="1476" 
d="M735 1298q177 0 325 -88t232 -236.5t84 -322.5q0 -173 -84.5 -321.5t-233 -237t-325.5 -88.5q-175 0 -323 88t-233 236.5t-85 322.5q0 173 85 321.5t233.5 237t324.5 88.5zM733 160q134 0 246.5 66.5t176 179.5t63.5 245q0 133 -63 246t-175 179.5t-246 66.5
q-135 0 -247 -67.5t-175 -180.5t-63 -246t63 -245t174.5 -178t245.5 -66zM987 766q0 -152 -129 -199l162 -243h-160l-147 225h-72v-225h-135v663h252q115 0 172 -60t57 -161zM643 862v-190h84q58 0 88.5 26.5t30.5 69.5q0 42 -30.5 68t-84.5 26h-88z" />
    <glyph glyph-name="macron" unicode="&#xaf;" horiz-adv-x="827" 
d="M215 1161l23 189h561l-23 -189h-561z" />
    <glyph glyph-name="degree" unicode="&#xb0;" horiz-adv-x="778" 
d="M436 905q-112 0 -174.5 63.5t-62.5 168.5q0 139 87 235t220 96q107 0 173 -66t66 -179q0 -129 -86.5 -223.5t-222.5 -94.5zM455 1057q61 0 101 43.5t40 107.5q0 51 -28.5 82t-78.5 31q-61 0 -100 -46.5t-39 -117.5q0 -47 27 -73.5t78 -26.5z" />
    <glyph glyph-name="plusminus" unicode="&#xb1;" horiz-adv-x="1132" 
d="M451 348l45 379h-332l24 205h334l45 381h209l-47 -381h334l-27 -205h-334l-45 -379h-206zM74 -4l24 205h875l-25 -205h-874z" />
    <glyph glyph-name="uni00B2" unicode="&#xb2;" horiz-adv-x="655" 
d="M109 893l10 127l270 270q44 46 66 70.5t42.5 63.5t20.5 75q0 35 -18 54.5t-49 19.5q-33 0 -70 -22.5t-66 -67.5l-133 110q47 69 123.5 112.5t167.5 43.5q107 0 172.5 -60.5t65.5 -162.5q0 -92 -40 -164t-124 -154l-146 -141l2 -4h261l-21 -170h-534z" />
    <glyph glyph-name="uni00B3" unicode="&#xb3;" horiz-adv-x="667" 
d="M387 879q-110 0 -183 56t-93 142l176 60q14 -93 90 -93q53 0 85 39t32 93q0 37 -24.5 57t-68.5 20h-57l18 142h62q44 0 75 35.5t31 82.5q0 32 -19 50t-46 18q-36 0 -66 -20t-47 -58l-149 92q34 68 107.5 111t158.5 43q108 0 175 -54t67 -151q0 -67 -32.5 -123t-90.5 -90
v-4q100 -52 100 -170q0 -128 -85 -203t-216 -75z" />
    <glyph glyph-name="acute" unicode="&#xb4;" horiz-adv-x="927" 
d="M344 1102l244 295l248 2l-265 -297h-227z" />
    <glyph glyph-name="uni00B5" unicode="&#xb5;" horiz-adv-x="1142" 
d="M1040 188l35 -155q-70 -49 -182 -49q-79 0 -127 44t-57 117l-2 2q-104 -163 -256 -163q-106 0 -152 71l-4 -2q9 -114 -6 -225l-31 -234h-221l172 1405h223l-72 -587q-14 -115 20 -169.5t95 -54.5q92 0 167.5 80t94.5 232l62 499h223l-86 -702q-9 -65 1.5 -89t51.5 -24
q11 0 51 4z" />
    <glyph glyph-name="paragraph" unicode="&#xb6;" horiz-adv-x="1062" 
d="M627 -309l186 1517h-121l-147 -1208h-146l84 653q-145 2 -236 79t-91 212q0 174 118.5 295t323.5 121h375l-205 -1669h-141z" />
    <glyph glyph-name="periodcentered" unicode="&#xb7;" horiz-adv-x="569" 
d="M295 352q-63 0 -104 42t-41 104q0 66 43 109.5t108 43.5q63 0 105.5 -42t42.5 -105q0 -65 -44 -108.5t-110 -43.5z" />
    <glyph glyph-name="cedilla" unicode="&#xb8;" horiz-adv-x="612" 
d="M131 -391q-49 0 -98 12l6 113q30 -15 74 -15q52 0 86 20t34 58q0 56 -141 56l4 73l49 86h134l-50 -75l2 -3q154 -6 154 -135q0 -91 -69 -140.5t-185 -49.5z" />
    <glyph glyph-name="uni00B9" unicode="&#xb9;" horiz-adv-x="559" 
d="M440 1737h148l-105 -844h-188l76 602l-125 -90l-78 145z" />
    <glyph glyph-name="ordmasculine" unicode="&#xba;" horiz-adv-x="690" 
d="M385 799q-117 0 -185.5 66t-68.5 188q0 95 35.5 176t111.5 134.5t179 53.5q111 0 181.5 -63t70.5 -187q0 -70 -20.5 -134.5t-59 -117.5t-102 -84.5t-142.5 -31.5zM391 946q59 0 103.5 61t44.5 148q0 61 -29.5 88t-63.5 27q-60 0 -102.5 -61t-42.5 -140q0 -53 25.5 -88
t64.5 -35z" />
    <glyph glyph-name="guillemotright" unicode="&#xbb;" horiz-adv-x="985" 
d="M12 68l279 436l-172 444h215l176 -444l-281 -436h-217zM403 68l277 436l-172 444h215l176 -444l-281 -436h-215z" />
    <glyph glyph-name="onequarter" unicode="&#xbc;" horiz-adv-x="1521" 
d="M1063 1489l178 -84l-758 -1448l-176 82zM461 612h-189l76 602l-125 -90l-78 146l273 186h147zM1356 295h102l-20 -164h-103l-16 -131h-189l19 131h-309l12 117l424 596h147zM1053 283h139l35 260z" />
    <glyph glyph-name="onehalf" unicode="&#xbd;" horiz-adv-x="1595" 
d="M1063 1489l178 -84l-758 -1448l-176 82zM461 612h-189l76 602l-125 -90l-78 146l273 186h147zM1243 174l2 -4h260l-20 -170h-535l11 127l270 270q44 46 66 70.5t42.5 63.5t20.5 75q0 35 -18.5 54.5t-49.5 19.5q-33 0 -69.5 -22.5t-65.5 -67.5l-133 110q47 69 123.5 112.5
t167.5 43.5q107 0 172 -60.5t65 -162.5q0 -92 -39.5 -164t-123.5 -154z" />
    <glyph glyph-name="threequarters" unicode="&#xbe;" horiz-adv-x="1599" 
d="M1139 1489l178 -84l-758 -1448l-176 82zM666 877q0 -128 -85 -203.5t-216 -75.5q-110 0 -183.5 56.5t-93.5 142.5l176 59q14 -92 90 -92q53 0 85 38.5t32 92.5q0 37 -24 57.5t-68 20.5h-57l18 141h61q44 0 75.5 36t31.5 83q0 32 -19.5 49.5t-46.5 17.5q-77 0 -112 -77
l-150 92q34 68 107 110.5t159 42.5q108 0 175 -53.5t67 -150.5q0 -67 -32.5 -123t-90.5 -90v-4q101 -53 101 -170zM1434 295h102l-20 -164h-103l-16 -131h-189l19 131h-309l12 117l424 596h147zM1130 283h140l35 260z" />
    <glyph glyph-name="questiondown" unicode="&#xbf;" horiz-adv-x="860" 
d="M549 1014q63 0 104 -42t41 -104q0 -66 -43 -109.5t-108 -43.5q-63 0 -105.5 42t-42.5 105q0 65 44 108.5t110 43.5zM623 541l-11 -99q-2 -20 -6.5 -38.5t-13 -38t-15 -33.5t-21.5 -34t-22 -30.5t-27 -32.5t-27 -30t-31 -33.5t-31 -32.5q-37 -40 -59 -67t-46.5 -64
t-35.5 -75t-11 -80q0 -74 37.5 -115t102.5 -41q113 0 200 117l150 -148q-69 -91 -180.5 -141.5t-233.5 -50.5q-67 0 -126 20t-106.5 58.5t-75.5 102t-28 144.5q0 215 219 420q45 42 63.5 61t47.5 51.5t42.5 59t18.5 53.5l19 97h207z" />
    <glyph glyph-name="Agrave" unicode="&#xc0;" horiz-adv-x="1325" 
d="M696 1587l-200 273l249 -2l175 -271h-224zM-8 0l663 1454h252l307 -1454h-251l-60 315h-524l-137 -315h-250zM469 526h393l-119 625h-4z" />
    <glyph glyph-name="Aacute" unicode="&#xc1;" horiz-adv-x="1325" 
d="M698 1587l236 271l254 2l-266 -273h-224zM-8 0l663 1454h252l307 -1454h-251l-60 315h-524l-137 -315h-250zM469 526h393l-119 625h-4z" />
    <glyph glyph-name="Acircumflex" unicode="&#xc2;" horiz-adv-x="1325" 
d="M489 1587l246 273h217l172 -273h-211l-86 139h-6l-121 -139h-211zM-8 0l663 1454h252l307 -1454h-251l-60 315h-524l-137 -315h-250zM469 526h393l-119 625h-4z" />
    <glyph glyph-name="Atilde" unicode="&#xc3;" horiz-adv-x="1325" 
d="M971 1585q-75 0 -162 66q-59 45 -94 45q-33 0 -64 -30t-53 -81l-139 72q98 201 237 201q24 0 44 -3.5t38.5 -12t27 -13t27 -18t21.5 -15.5q2 -2 13.5 -10t14.5 -10t12.5 -8t14.5 -8t13 -5.5t14.5 -4.5t13.5 -1q33 0 65 29.5t54 79.5l139 -54q-42 -101 -104.5 -160
t-132.5 -59zM-8 0l663 1454h252l307 -1454h-251l-60 315h-524l-137 -315h-250zM469 526h393l-119 625h-4z" />
    <glyph glyph-name="Adieresis" unicode="&#xc4;" horiz-adv-x="1325" 
d="M629 1587q-63 0 -105.5 42t-42.5 104q0 66 44 108.5t110 42.5q62 0 103.5 -41t41.5 -104q0 -65 -43.5 -108.5t-107.5 -43.5zM1018 1587q-64 0 -106 42t-42 104q0 66 44 108.5t110 42.5q62 0 103.5 -41t41.5 -104q0 -65 -43.5 -108.5t-107.5 -43.5zM-8 0l663 1454h252
l307 -1454h-251l-60 315h-524l-137 -315h-250zM469 526h393l-119 625h-4z" />
    <glyph glyph-name="Aring" unicode="&#xc5;" horiz-adv-x="1325" 
d="M825 1561q-90 0 -150.5 60.5t-60.5 150.5q0 92 63 153.5t157 61.5q90 0 150 -59.5t60 -149.5q0 -94 -62.5 -155.5t-156.5 -61.5zM829 1696q34 0 57 23t23 57q0 32 -23 54.5t-55 22.5q-33 0 -56 -23t-23 -56q0 -34 21.5 -56t55.5 -22zM-8 0l663 1454h252l307 -1454h-251
l-60 315h-524l-137 -315h-250zM469 526h393l-119 625h-4z" />
    <glyph glyph-name="AE" unicode="&#xc6;" horiz-adv-x="1794" 
d="M-47 0l833 1454h973l-26 -217h-605l-51 -406h498l-29 -217h-495l-47 -397h641l-27 -217h-877l39 315h-387l-176 -315h-264zM510 526h297l82 674h-4z" />
    <glyph glyph-name="Ccedilla" unicode="&#xc7;" horiz-adv-x="1390" 
d="M733 213q94 0 186 48t158 128l180 -158q-102 -111 -235.5 -177.5t-284.5 -69.5l-30 -47l2 -3q153 -6 153 -135q0 -91 -69 -140.5t-185 -49.5q-49 0 -98 12l6 113q30 -15 74 -15q53 0 87 20t34 58q0 56 -142 56l4 73l37 66q-214 32 -343.5 186.5t-129.5 413.5
q0 179 55 339.5t152.5 279.5t240 189t308.5 70q318 0 504 -303l-205 -143q-113 217 -309 217q-110 0 -204 -54.5t-156.5 -145t-98 -207.5t-35.5 -242q0 -178 89.5 -278.5t254.5 -100.5z" />
    <glyph glyph-name="Egrave" unicode="&#xc8;" horiz-adv-x="1177" 
d="M721 1587l-201 273l250 -2l174 -271h-223zM127 0l178 1454h838l-29 -217h-596l-49 -408h481l-26 -217h-482l-49 -395h635l-27 -217h-874z" />
    <glyph glyph-name="Eacute" unicode="&#xc9;" horiz-adv-x="1177" 
d="M553 1587l235 271l254 2l-266 -273h-223zM127 0l178 1454h838l-29 -217h-596l-49 -408h481l-26 -217h-482l-49 -395h635l-27 -217h-874z" />
    <glyph glyph-name="Ecircumflex" unicode="&#xca;" horiz-adv-x="1177" 
d="M432 1587l246 273h217l172 -273h-211l-86 139h-6l-121 -139h-211zM127 0l178 1454h838l-29 -217h-596l-49 -408h481l-26 -217h-482l-49 -395h635l-27 -217h-874z" />
    <glyph glyph-name="Edieresis" unicode="&#xcb;" horiz-adv-x="1177" 
d="M571 1587q-63 0 -105 42t-42 104q0 66 44 108.5t110 42.5q62 0 103.5 -41t41.5 -104q0 -65 -43.5 -108.5t-108.5 -43.5zM961 1587q-64 0 -106 42t-42 104q0 66 44 108.5t110 42.5q62 0 103.5 -41t41.5 -104q0 -65 -43.5 -108.5t-107.5 -43.5zM127 0l178 1454h838
l-29 -217h-596l-49 -408h481l-26 -217h-482l-49 -395h635l-27 -217h-874z" />
    <glyph glyph-name="Igrave" unicode="&#xcc;" horiz-adv-x="636" 
d="M350 1587l-200 273l249 -2l174 -271h-223zM135 0l178 1454h244l-178 -1454h-244z" />
    <glyph glyph-name="Iacute" unicode="&#xcd;" horiz-adv-x="636" 
d="M354 1587l236 271l254 2l-266 -273h-224zM135 0l178 1454h244l-178 -1454h-244z" />
    <glyph glyph-name="Icircumflex" unicode="&#xce;" horiz-adv-x="636" 
d="M133 1587l246 273h217l172 -273h-211l-86 139h-6l-121 -139h-211zM135 0l178 1454h244l-178 -1454h-244z" />
    <glyph glyph-name="Idieresis" unicode="&#xcf;" horiz-adv-x="636" 
d="M272 1587q-63 0 -105 42t-42 104q0 66 44 108.5t110 42.5q62 0 103.5 -41t41.5 -104q0 -65 -44 -108.5t-108 -43.5zM662 1587q-64 0 -106 42t-42 104q0 66 44 108.5t110 42.5q62 0 103.5 -41t41.5 -104q0 -65 -43.5 -108.5t-107.5 -43.5zM135 0l178 1454h244l-178 -1454
h-244z" />
    <glyph glyph-name="Eth" unicode="&#xd0;" horiz-adv-x="1423" 
d="M743 1454q291 0 443.5 -159t152.5 -441q0 -256 -92.5 -449t-266.5 -299t-409 -106h-440l76 618h-117l31 207h110l78 629h434zM596 217q148 0 260 82t171.5 226t59.5 329q0 177 -94 280t-268 103h-201l-51 -412h291l-31 -207h-284l-50 -401h197z" />
    <glyph glyph-name="Ntilde" unicode="&#xd1;" horiz-adv-x="1478" 
d="M1053 1585q-75 0 -162 66q-59 45 -94 45q-33 0 -64 -30t-53 -81l-139 72q98 201 237 201q24 0 44 -3.5t38.5 -12t27 -13t27 -18t21.5 -15.5q2 -2 13.5 -10t14.5 -10t12.5 -8t14.5 -8t13 -5.5t14.5 -4.5t13.5 -1q33 0 65 29.5t54 79.5l139 -54q-42 -101 -104.5 -160
t-132.5 -59zM127 0l178 1454h244l483 -1048l6 4l129 1044h242l-180 -1454h-246l-481 1032h-6l-127 -1032h-242z" />
    <glyph glyph-name="Ograve" unicode="&#xd2;" horiz-adv-x="1566" 
d="M838 1587l-201 273l250 -2l174 -271h-223zM721 -16q-266 0 -425 162.5t-159 449.5q0 172 55.5 330.5t153 279t242 192.5t311.5 72q265 0 425.5 -162.5t160.5 -447.5q0 -140 -33 -270t-99 -240t-156.5 -192t-213 -128t-262.5 -46zM739 209q106 0 199.5 54t157 143.5
t100.5 206.5t37 241q0 194 -95.5 293.5t-265.5 99.5q-104 0 -195.5 -55.5t-153.5 -145.5t-98 -206.5t-36 -237.5q0 -192 93 -292.5t257 -100.5z" />
    <glyph glyph-name="Oacute" unicode="&#xd3;" horiz-adv-x="1566" 
d="M825 1587l236 271l254 2l-266 -273h-224zM721 -16q-266 0 -425 162.5t-159 449.5q0 172 55.5 330.5t153 279t242 192.5t311.5 72q265 0 425.5 -162.5t160.5 -447.5q0 -140 -33 -270t-99 -240t-156.5 -192t-213 -128t-262.5 -46zM739 209q106 0 199.5 54t157 143.5
t100.5 206.5t37 241q0 194 -95.5 293.5t-265.5 99.5q-104 0 -195.5 -55.5t-153.5 -145.5t-98 -206.5t-36 -237.5q0 -192 93 -292.5t257 -100.5z" />
    <glyph glyph-name="Ocircumflex" unicode="&#xd4;" horiz-adv-x="1566" 
d="M647 1587l246 273h217l172 -273h-211l-86 139h-6l-121 -139h-211zM721 -16q-266 0 -425 162.5t-159 449.5q0 172 55.5 330.5t153 279t242 192.5t311.5 72q265 0 425.5 -162.5t160.5 -447.5q0 -140 -33 -270t-99 -240t-156.5 -192t-213 -128t-262.5 -46zM739 209
q106 0 199.5 54t157 143.5t100.5 206.5t37 241q0 194 -95.5 293.5t-265.5 99.5q-104 0 -195.5 -55.5t-153.5 -145.5t-98 -206.5t-36 -237.5q0 -192 93 -292.5t257 -100.5z" />
    <glyph glyph-name="Otilde" unicode="&#xd5;" horiz-adv-x="1566" 
d="M1128 1585q-74 0 -161 66q-59 45 -95 45q-33 0 -63.5 -30t-52.5 -81l-140 72q98 201 238 201q24 0 44 -3.5t38.5 -12t27 -13t27 -18t21.5 -15.5q2 -2 13.5 -10t14.5 -10t12.5 -8t14.5 -8t13 -5.5t14.5 -4.5t13.5 -1q33 0 65 29.5t54 79.5l139 -54q-42 -101 -105 -160
t-133 -59zM721 -16q-266 0 -425 162.5t-159 449.5q0 172 55.5 330.5t153 279t242 192.5t311.5 72q265 0 425.5 -162.5t160.5 -447.5q0 -140 -33 -270t-99 -240t-156.5 -192t-213 -128t-262.5 -46zM739 209q106 0 199.5 54t157 143.5t100.5 206.5t37 241q0 194 -95.5 293.5
t-265.5 99.5q-104 0 -195.5 -55.5t-153.5 -145.5t-98 -206.5t-36 -237.5q0 -192 93 -292.5t257 -100.5z" />
    <glyph glyph-name="Odieresis" unicode="&#xd6;" horiz-adv-x="1566" 
d="M786 1587q-63 0 -105 42t-42 104q0 66 44 108.5t110 42.5q62 0 103.5 -41t41.5 -104q0 -65 -44 -108.5t-108 -43.5zM1176 1587q-64 0 -106 42t-42 104q0 66 44 108.5t110 42.5q62 0 103.5 -41t41.5 -104q0 -65 -43.5 -108.5t-107.5 -43.5zM721 -16q-266 0 -425 162.5
t-159 449.5q0 172 55.5 330.5t153 279t242 192.5t311.5 72q265 0 425.5 -162.5t160.5 -447.5q0 -140 -33 -270t-99 -240t-156.5 -192t-213 -128t-262.5 -46zM739 209q106 0 199.5 54t157 143.5t100.5 206.5t37 241q0 194 -95.5 293.5t-265.5 99.5q-104 0 -195.5 -55.5
t-153.5 -145.5t-98 -206.5t-36 -237.5q0 -192 93 -292.5t257 -100.5z" />
    <glyph glyph-name="multiply" unicode="&#xd7;" horiz-adv-x="1015" 
d="M215 137l-133 142l289 288l-219 289l163 143l215 -288l287 288l135 -143l-288 -291l215 -289l-160 -139l-217 287z" />
    <glyph glyph-name="Oslash" unicode="&#xd8;" horiz-adv-x="1572" 
d="M1550 1397l-157 -166q98 -152 98 -371q0 -140 -33 -270t-99 -240t-156.5 -192t-213 -128t-262.5 -46q-239 0 -391 131l-164 -174l-119 122l174 183q-84 144 -84 350q0 172 55.5 330.5t153 279t242 192.5t311.5 72q223 0 373 -116l154 162zM395 602q0 -88 21 -158l694 734
q-87 69 -231 69q-138 0 -250.5 -94t-173 -241t-60.5 -310zM1239 854q0 99 -29 184l-704 -745q90 -84 239 -84q106 0 199.5 54t157 143.5t100.5 206.5t37 241z" />
    <glyph glyph-name="Ugrave" unicode="&#xd9;" horiz-adv-x="1392" 
d="M733 1587l-201 273l250 -2l174 -271h-223zM639 -16q-177 0 -289.5 81t-153 222.5t-16.5 333.5l103 833h241l-102 -831q-13 -84 -5 -159t31.5 -130.5t75 -88t125.5 -32.5q145 0 234 92t114 297l105 852h241l-104 -852q-38 -317 -186 -467.5t-414 -150.5z" />
    <glyph glyph-name="Uacute" unicode="&#xda;" horiz-adv-x="1392" 
d="M707 1587l235 271l254 2l-266 -273h-223zM639 -16q-177 0 -289.5 81t-153 222.5t-16.5 333.5l103 833h241l-102 -831q-13 -84 -5 -159t31.5 -130.5t75 -88t125.5 -32.5q145 0 234 92t114 297l105 852h241l-104 -852q-38 -317 -186 -467.5t-414 -150.5z" />
    <glyph glyph-name="Ucircumflex" unicode="&#xdb;" horiz-adv-x="1392" 
d="M524 1587l246 273h217l172 -273h-211l-86 139h-6l-121 -139h-211zM639 -16q-177 0 -289.5 81t-153 222.5t-16.5 333.5l103 833h241l-102 -831q-13 -84 -5 -159t31.5 -130.5t75 -88t125.5 -32.5q145 0 234 92t114 297l105 852h241l-104 -852q-38 -317 -186 -467.5
t-414 -150.5z" />
    <glyph glyph-name="Udieresis" unicode="&#xdc;" horiz-adv-x="1392" 
d="M664 1587q-63 0 -105.5 42t-42.5 104q0 66 44 108.5t110 42.5q62 0 103.5 -41t41.5 -104q0 -65 -43.5 -108.5t-107.5 -43.5zM1053 1587q-64 0 -106 42t-42 104q0 66 44 108.5t110 42.5q62 0 103.5 -41t41.5 -104q0 -65 -43.5 -108.5t-107.5 -43.5zM639 -16
q-177 0 -289.5 81t-153 222.5t-16.5 333.5l103 833h241l-102 -831q-13 -84 -5 -159t31.5 -130.5t75 -88t125.5 -32.5q145 0 234 92t114 297l105 852h241l-104 -852q-38 -317 -186 -467.5t-414 -150.5z" />
    <glyph glyph-name="Yacute" unicode="&#xdd;" horiz-adv-x="1189" 
d="M602 1587l236 271l254 2l-267 -273h-223zM410 0l79 643l-339 811h266l217 -582h6l360 582h281l-547 -811l-82 -643h-241z" />
    <glyph glyph-name="Thorn" unicode="&#xde;" horiz-adv-x="1257" 
d="M127 0l178 1454h242l-33 -266h277q405 0 405 -391q0 -251 -148.5 -396t-426.5 -145h-222l-30 -256h-242zM426 473h229q134 0 211.5 84t77.5 240q0 80 -54.5 127t-146.5 47h-256z" />
    <glyph glyph-name="germandbls" unicode="&#xdf;" horiz-adv-x="1265" 
d="M829 -16q-116 0 -218 47t-156 125l151 143q41 -57 98.5 -88t122.5 -31t107.5 31t42.5 78q0 36 -28.5 60t-103.5 66q-16 8 -24 13q-127 74 -186.5 136.5t-59.5 154.5q0 49 23 95t48 71.5t74 68.5t68 62q86 83 86 176q0 57 -43.5 93t-121.5 36q-232 0 -267 -258l-129 -1063
h-225l135 1090q25 211 152.5 322.5t316.5 111.5q203 0 306.5 -90t103.5 -238q0 -66 -25.5 -123.5t-60.5 -96t-92 -85.5q-34 -27 -48.5 -39.5t-35.5 -33t-29 -37t-8 -33.5q0 -28 29 -59.5t114 -82.5q117 -69 148 -93q95 -73 108 -175q2 -18 2 -39q0 -151 -102.5 -233
t-272.5 -82z" />
    <glyph glyph-name="agrave" unicode="&#xe0;" horiz-adv-x="1150" 
d="M586 1139l-193 297l250 -2l170 -295h-227zM424 -16q-170 0 -257 113.5t-87 291.5q0 118 35.5 230.5t97.5 200t155.5 141t202.5 53.5q170 0 263 -96l6 2l10 77h223l-123 -997h-223l23 182l-7 2q-68 -98 -153 -149t-166 -51zM467 182q110 0 213 139t131 359l4 37
q-44 42 -106 67t-121 25q-84 0 -150 -64.5t-98.5 -160t-32.5 -199.5q0 -94 41.5 -148.5t118.5 -54.5z" />
    <glyph glyph-name="aacute" unicode="&#xe1;" horiz-adv-x="1150" 
d="M526 1139l244 295l248 2l-264 -297h-228zM424 -16q-170 0 -257 113.5t-87 291.5q0 118 35.5 230.5t97.5 200t155.5 141t202.5 53.5q170 0 263 -96l6 2l10 77h223l-123 -997h-223l23 182l-7 2q-68 -98 -153 -149t-166 -51zM467 182q110 0 213 139t131 359l4 37
q-44 42 -106 67t-121 25q-84 0 -150 -64.5t-98.5 -160t-32.5 -199.5q0 -94 41.5 -148.5t118.5 -54.5z" />
    <glyph glyph-name="acircumflex" unicode="&#xe2;" horiz-adv-x="1150" 
d="M354 1135l242 301h213l178 -301h-217l-74 155h-4l-112 -155h-226zM424 -16q-170 0 -257 113.5t-87 291.5q0 118 35.5 230.5t97.5 200t155.5 141t202.5 53.5q170 0 263 -96l6 2l10 77h223l-123 -997h-223l23 182l-7 2q-68 -98 -153 -149t-166 -51zM467 182q110 0 213 139
t131 359l4 37q-44 42 -106 67t-121 25q-84 0 -150 -64.5t-98.5 -160t-32.5 -199.5q0 -94 41.5 -148.5t118.5 -54.5z" />
    <glyph glyph-name="atilde" unicode="&#xe3;" horiz-adv-x="1150" 
d="M836 1135q-21 0 -40 4t-37.5 13t-28.5 14.5t-28.5 18.5t-21.5 15q-59 45 -94 45q-75 0 -123 -110l-139 71q43 102 104.5 160.5t136.5 58.5q23 0 42 -3.5t35.5 -11.5t26 -13.5t25.5 -17t21 -15.5q2 -2 13.5 -10t14.5 -10t12.5 -8t14.5 -8t13 -5.5t14.5 -4.5t13.5 -1
q36 0 68.5 29t54.5 79l139 -53q-41 -113 -103 -175t-134 -62zM424 -16q-170 0 -257 113.5t-87 291.5q0 118 35.5 230.5t97.5 200t155.5 141t202.5 53.5q170 0 263 -96l6 2l10 77h223l-123 -997h-223l23 182l-7 2q-68 -98 -153 -149t-166 -51zM467 182q110 0 213 139t131 359
l4 37q-44 42 -106 67t-121 25q-84 0 -150 -64.5t-98.5 -160t-32.5 -199.5q0 -94 41.5 -148.5t118.5 -54.5z" />
    <glyph glyph-name="adieresis" unicode="&#xe4;" horiz-adv-x="1150" 
d="M498 1151q-63 0 -105.5 41.5t-42.5 103.5q0 66 44 109t110 43q62 0 103.5 -41t41.5 -104q0 -65 -43.5 -108.5t-107.5 -43.5zM887 1151q-64 0 -106 41.5t-42 103.5q0 66 44 109t110 43q62 0 103.5 -41t41.5 -104q0 -65 -43.5 -108.5t-107.5 -43.5zM424 -16
q-170 0 -257 113.5t-87 291.5q0 118 35.5 230.5t97.5 200t155.5 141t202.5 53.5q170 0 263 -96l6 2l10 77h223l-123 -997h-223l23 182l-7 2q-68 -98 -153 -149t-166 -51zM467 182q110 0 213 139t131 359l4 37q-44 42 -106 67t-121 25q-84 0 -150 -64.5t-98.5 -160
t-32.5 -199.5q0 -94 41.5 -148.5t118.5 -54.5z" />
    <glyph glyph-name="aring" unicode="&#xe5;" horiz-adv-x="1150" 
d="M694 1106q-90 0 -150.5 60.5t-60.5 150.5q0 92 62.5 153.5t156.5 61.5q91 0 151 -60t60 -149q0 -94 -62.5 -155.5t-156.5 -61.5zM698 1241q34 0 57 23t23 57q0 32 -23 55t-55 23q-33 0 -56 -23.5t-23 -56.5q0 -34 21.5 -56t55.5 -22zM424 -16q-170 0 -257 113.5
t-87 291.5q0 118 35.5 230.5t97.5 200t155.5 141t202.5 53.5q170 0 263 -96l6 2l10 77h223l-123 -997h-223l23 182l-7 2q-68 -98 -153 -149t-166 -51zM467 182q110 0 213 139t131 359l4 37q-44 42 -106 67t-121 25q-84 0 -150 -64.5t-98.5 -160t-32.5 -199.5
q0 -94 41.5 -148.5t118.5 -54.5z" />
    <glyph glyph-name="ae" unicode="&#xe6;" horiz-adv-x="1425" 
d="M995 193q112 0 195 104l176 -127q-151 -182 -379 -182q-132 0 -223 58t-127 167q-44 -106 -121 -167.5t-176 -61.5q-137 0 -216.5 107t-74.5 267q2 125 40.5 241t105 205t164.5 142t212 53q147 0 252 -71q116 86 275 86q128 0 212.5 -72.5t84.5 -187.5q0 -171 -161 -273
t-446 -127q13 -79 70 -120t137 -41zM1073 811q-80 0 -162 -78t-112 -207q176 23 272 80t96 137q0 28 -24 48t-70 20zM369 182q21 0 39.5 8t36 27.5t30.5 36t28.5 51.5t24 54t22.5 63t19 59.5t19 61.5q35 135 98 237q-50 15 -92 15q-73 0 -134.5 -40t-101 -106t-61 -148
t-21.5 -167q0 -72 26.5 -112t66.5 -40z" />
    <glyph glyph-name="ccedilla" unicode="&#xe7;" horiz-adv-x="1007" 
d="M508 190q55 0 114.5 26.5t110.5 80.5l176 -127q-82 -86 -173 -132t-208 -52l-32 -49l2 -3q153 -6 153 -135q0 -91 -69 -140.5t-185 -49.5q-49 0 -98 12l6 113q30 -15 74 -15q53 0 87 20t34 58q0 56 -142 56l4 73l39 68q-150 25 -233.5 131t-83.5 285q0 122 36.5 231
t102.5 192.5t167 132t222 48.5q119 0 214.5 -43.5t150.5 -124.5l-176 -131q-64 94 -195 94q-130 0 -212.5 -110t-82.5 -271q0 -121 56.5 -179.5t140.5 -58.5z" />
    <glyph glyph-name="egrave" unicode="&#xe8;" horiz-adv-x="980" 
d="M772 1139h-227l-193 297l250 -2zM498 190q68 0 120 25t107 82l176 -127q-93 -95 -185 -139.5t-227 -44.5q-188 0 -296.5 110.5t-108.5 304.5q0 123 35.5 233.5t100.5 195t165.5 134.5t222.5 50q134 0 228 -72.5t94 -198.5q0 -91 -52 -161.5t-144.5 -115t-195.5 -70.5
t-229 -40q11 -81 64.5 -123.5t124.5 -42.5zM598 811q-55 0 -109 -27t-102 -91.5t-68 -155.5q383 45 383 196q0 37 -26.5 57.5t-77.5 20.5z" />
    <glyph glyph-name="eacute" unicode="&#xe9;" horiz-adv-x="980" 
d="M983 1436l-264 -297h-227l243 295zM930 743q0 -91 -52 -161.5t-144.5 -115t-195.5 -70.5t-229 -40q11 -81 64.5 -123.5t124.5 -42.5q68 0 120 25t107 82l176 -127q-93 -95 -185 -139.5t-227 -44.5q-188 0 -296.5 110.5t-108.5 304.5q0 123 35.5 233.5t100.5 195
t165.5 134.5t222.5 50q134 0 228 -72.5t94 -198.5zM319 537q383 45 383 196q0 37 -26.5 57.5t-77.5 20.5q-55 0 -109 -27t-102 -91.5t-68 -155.5z" />
    <glyph glyph-name="ecircumflex" unicode="&#xea;" horiz-adv-x="980" 
d="M610 1290l-112 -155h-226l242 301h213l178 -301h-217l-74 155h-4zM498 190q68 0 120 25t107 82l176 -127q-93 -95 -185 -139.5t-227 -44.5q-188 0 -296.5 110.5t-108.5 304.5q0 123 35.5 233.5t100.5 195t165.5 134.5t222.5 50q134 0 228 -72.5t94 -198.5
q0 -91 -52 -161.5t-144.5 -115t-195.5 -70.5t-229 -40q11 -81 64.5 -123.5t124.5 -42.5zM598 811q-55 0 -109 -27t-102 -91.5t-68 -155.5q383 45 383 196q0 37 -26.5 57.5t-77.5 20.5z" />
    <glyph glyph-name="edieresis" unicode="&#xeb;" horiz-adv-x="980" 
d="M416 1151q-63 0 -105.5 41.5t-42.5 103.5q0 66 44 109t110 43q62 0 103.5 -41t41.5 -104q0 -65 -43.5 -108.5t-107.5 -43.5zM805 1151q-64 0 -106 41.5t-42 103.5q0 66 44 109t110 43q62 0 103.5 -41t41.5 -104q0 -65 -43.5 -108.5t-107.5 -43.5zM930 743
q0 -91 -52 -161.5t-144.5 -115t-195.5 -70.5t-229 -40q11 -81 64.5 -123.5t124.5 -42.5q68 0 120 25t107 82l176 -127q-93 -95 -185 -139.5t-227 -44.5q-188 0 -296.5 110.5t-108.5 304.5q0 123 35.5 233.5t100.5 195t165.5 134.5t222.5 50q134 0 228 -72.5t94 -198.5z
M319 537q383 45 383 196q0 37 -26.5 57.5t-77.5 20.5q-55 0 -109 -27t-102 -91.5t-68 -155.5z" />
    <glyph glyph-name="igrave" unicode="&#xec;" horiz-adv-x="532" 
d="M229 1157l-120 297l249 -2l103 -295h-232zM90 0l123 999h225l-123 -999h-225z" />
    <glyph glyph-name="iacute" unicode="&#xed;" horiz-adv-x="528" 
d="M240 1139l243 295l248 2l-264 -297h-227zM90 0l123 999h225l-123 -999h-225z" />
    <glyph glyph-name="icircumflex" unicode="&#xee;" horiz-adv-x="528" 
d="M29 1135l241 301h213l179 -301h-218l-73 155h-4l-113 -155h-225zM90 0l123 999h225l-123 -999h-225z" />
    <glyph glyph-name="idieresis" unicode="&#xef;" horiz-adv-x="528" 
d="M186 1151q-60 0 -101.5 42t-41.5 103q0 66 43.5 109t106.5 43q56 0 96.5 -41.5t40.5 -103.5q0 -64 -42.5 -108t-101.5 -44zM551 1151q-60 0 -101.5 42t-41.5 103q0 66 43 109t106 43q56 0 96.5 -41.5t40.5 -103.5q0 -64 -42 -108t-101 -44zM90 0l123 999h225l-123 -999
h-225z" />
    <glyph glyph-name="eth" unicode="&#xf0;" horiz-adv-x="1116" 
d="M920 1126q116 -209 116 -487q-1 -103 -20 -197t-61 -178t-103 -145t-151 -97t-199 -36q-187 0 -303.5 111t-116.5 294q0 156 65.5 289.5t177.5 212t244 78.5q126 0 217 -64q-18 62 -53 131q-31 57 -67 99l-84 -97l-123 107l86 100q-61 43 -189 113l105 156
q115 -43 215 -117l141 164l129 -105l-145 -168q70 -76 119 -164zM506 190q69 0 123.5 29.5t89.5 78t57.5 114.5t31 134.5t7.5 141.5v19q-70 63 -190 63q-134 0 -226 -101t-92 -251q0 -106 58.5 -167t140.5 -61z" />
    <glyph glyph-name="ntilde" unicode="&#xf1;" horiz-adv-x="1138" 
d="M834 1135q-21 0 -40 4t-37.5 13t-28.5 14.5t-28.5 18.5t-21.5 15q-59 45 -94 45q-75 0 -123 -110l-139 71q43 102 104.5 160.5t136.5 58.5q23 0 42 -3.5t35.5 -11.5t26 -13.5t25.5 -17t21 -15.5q2 -2 13.5 -10t14.5 -10t12.5 -8t14.5 -8t13 -5.5t14.5 -4.5t13.5 -1
q36 0 68.5 29t54.5 79l139 -53q-41 -113 -103 -175t-134 -62zM86 0l125 999h223l-20 -172l4 -2q155 189 358 189q158 0 217 -102t31 -310l-82 -602h-223l78 584q16 114 -5 170.5t-92 56.5q-46 0 -101 -34t-104.5 -90.5t-88 -140t-50.5 -173.5l-45 -373h-225z" />
    <glyph glyph-name="ograve" unicode="&#xf2;" horiz-adv-x="1122" 
d="M543 1139l-193 297l250 -2l170 -295h-227zM504 -16q-194 0 -307 111.5t-113 310.5q0 163 62.5 300t185 222.5t282.5 85.5q194 0 309 -108.5t115 -303.5q0 -130 -35.5 -242t-101.5 -196t-168 -132t-229 -48zM510 188q133 0 217 114t84 280q0 53 -14 94.5t-35.5 66
t-50.5 40t-56 21t-55 5.5q-85 0 -153 -55.5t-103 -141t-35 -180.5q0 -107 54 -175.5t147 -68.5z" />
    <glyph glyph-name="oacute" unicode="&#xf3;" horiz-adv-x="1122" 
d="M532 1139l244 295l248 2l-264 -297h-228zM504 -16q-194 0 -307 111.5t-113 310.5q0 163 62.5 300t185 222.5t282.5 85.5q194 0 309 -108.5t115 -303.5q0 -130 -35.5 -242t-101.5 -196t-168 -132t-229 -48zM510 188q133 0 217 114t84 280q0 53 -14 94.5t-35.5 66t-50.5 40
t-56 21t-55 5.5q-85 0 -153 -55.5t-103 -141t-35 -180.5q0 -107 54 -175.5t147 -68.5z" />
    <glyph glyph-name="ocircumflex" unicode="&#xf4;" horiz-adv-x="1122" 
d="M332 1135l241 301h213l179 -301h-217l-74 155h-4l-113 -155h-225zM504 -16q-194 0 -307 111.5t-113 310.5q0 163 62.5 300t185 222.5t282.5 85.5q194 0 309 -108.5t115 -303.5q0 -130 -35.5 -242t-101.5 -196t-168 -132t-229 -48zM510 188q133 0 217 114t84 280
q0 53 -14 94.5t-35.5 66t-50.5 40t-56 21t-55 5.5q-85 0 -153 -55.5t-103 -141t-35 -180.5q0 -107 54 -175.5t147 -68.5z" />
    <glyph glyph-name="otilde" unicode="&#xf5;" horiz-adv-x="1122" 
d="M813 1135q-21 0 -40 4t-37.5 13t-28.5 14.5t-28.5 18.5t-21.5 15q-59 45 -94 45q-75 0 -123 -110l-139 71q43 102 105 160.5t137 58.5q28 0 53.5 -7.5t35.5 -12.5t34.5 -22.5t25.5 -18.5q2 -2 13.5 -10t14.5 -10t12.5 -8t14.5 -8t13 -5.5t14.5 -4.5t13.5 -1q36 0 68.5 29
t54.5 79l140 -53q-41 -113 -103.5 -175t-134.5 -62zM504 -16q-194 0 -307 111.5t-113 310.5q0 163 62.5 300t185 222.5t282.5 85.5q194 0 309 -108.5t115 -303.5q0 -130 -35.5 -242t-101.5 -196t-168 -132t-229 -48zM510 188q133 0 217 114t84 280q0 53 -14 94.5t-35.5 66
t-50.5 40t-56 21t-55 5.5q-85 0 -153 -55.5t-103 -141t-35 -180.5q0 -107 54 -175.5t147 -68.5z" />
    <glyph glyph-name="odieresis" unicode="&#xf6;" horiz-adv-x="1122" 
d="M475 1151q-63 0 -105 41.5t-42 103.5q0 66 43.5 109t109.5 43q62 0 104 -41t42 -104q0 -65 -43.5 -108.5t-108.5 -43.5zM864 1151q-64 0 -105.5 41.5t-41.5 103.5q0 66 43.5 109t109.5 43q62 0 104 -41t42 -104q0 -65 -44 -108.5t-108 -43.5zM504 -16q-194 0 -307 111.5
t-113 310.5q0 163 62.5 300t185 222.5t282.5 85.5q194 0 309 -108.5t115 -303.5q0 -130 -35.5 -242t-101.5 -196t-168 -132t-229 -48zM510 188q133 0 217 114t84 280q0 53 -14 94.5t-35.5 66t-50.5 40t-56 21t-55 5.5q-85 0 -153 -55.5t-103 -141t-35 -180.5
q0 -107 54 -175.5t147 -68.5z" />
    <glyph glyph-name="divide" unicode="&#xf7;" horiz-adv-x="1095" 
d="M635 815q-63 0 -104.5 42t-41.5 104q0 66 43.5 108.5t108.5 42.5q63 0 105 -41t42 -104q0 -65 -43.5 -108.5t-109.5 -43.5zM143 465l25 205h874l-24 -205h-875zM535 -2q-63 0 -104.5 41.5t-41.5 103.5q0 66 43.5 109t108.5 43q63 0 105 -41t42 -104q0 -65 -43.5 -108.5
t-109.5 -43.5z" />
    <glyph glyph-name="oslash" unicode="&#xf8;" horiz-adv-x="1130" 
d="M1090 942l-107 -113q55 -96 55 -227q0 -130 -35.5 -242t-101.5 -196t-168 -132t-229 -48q-158 0 -262 73l-103 -108l-100 102l106 111q-61 98 -61 244q0 163 62.5 300t185 222.5t282.5 85.5q163 0 273 -78l102 108zM309 432q0 -40 10 -88l410 428q-52 37 -129 37
q-85 0 -153 -55.5t-103 -141t-35 -180.5zM811 582q0 36 -6 63l-406 -424q51 -33 111 -33q133 0 217 114t84 280z" />
    <glyph glyph-name="ugrave" unicode="&#xf9;" horiz-adv-x="1116" 
d="M539 1139l-193 297l250 -2l170 -295h-227zM381 -16q-159 0 -226 96t-38 305l86 614h223l-80 -593q-17 -119 9 -168.5t96 -49.5q40 0 89.5 29t95.5 78.5t82 123.5t46 154l51 426h225l-122 -999h-226l23 178h-4q-128 -194 -330 -194z" />
    <glyph glyph-name="uacute" unicode="&#xfa;" horiz-adv-x="1116" 
d="M512 1139l244 295l248 2l-265 -297h-227zM381 -16q-159 0 -226 96t-38 305l86 614h223l-80 -593q-17 -119 9 -168.5t96 -49.5q40 0 89.5 29t95.5 78.5t82 123.5t46 154l51 426h225l-122 -999h-226l23 178h-4q-128 -194 -330 -194z" />
    <glyph glyph-name="ucircumflex" unicode="&#xfb;" horiz-adv-x="1116" 
d="M322 1135l241 301h213l178 -301h-217l-73 155h-5l-112 -155h-225zM381 -16q-159 0 -226 96t-38 305l86 614h223l-80 -593q-17 -119 9 -168.5t96 -49.5q40 0 89.5 29t95.5 78.5t82 123.5t46 154l51 426h225l-122 -999h-226l23 178h-4q-128 -194 -330 -194z" />
    <glyph glyph-name="udieresis" unicode="&#xfc;" horiz-adv-x="1116" 
d="M465 1151q-63 0 -105.5 41.5t-42.5 103.5q0 66 44 109t110 43q62 0 103.5 -41t41.5 -104q0 -65 -43.5 -108.5t-107.5 -43.5zM854 1151q-64 0 -105.5 41.5t-41.5 103.5q0 66 43.5 109t109.5 43q62 0 104 -41t42 -104q0 -65 -44 -108.5t-108 -43.5zM381 -16q-159 0 -226 96
t-38 305l86 614h223l-80 -593q-17 -119 9 -168.5t96 -49.5q40 0 89.5 29t95.5 78.5t82 123.5t46 154l51 426h225l-122 -999h-226l23 178h-4q-128 -194 -330 -194z" />
    <glyph glyph-name="yacute" unicode="&#xfd;" horiz-adv-x="1116" 
d="M991 1436l-264 -297h-227l243 295zM821 999h221l-106 -874q-15 -129 -54 -227.5t-89.5 -157.5t-119 -96t-136 -50.5t-146.5 -13.5q-199 0 -346 96l74 195q138 -88 272 -88q67 0 116 14.5t93.5 52t73 110t41.5 181.5l4 35l-4 2q-132 -194 -338 -194q-159 0 -226 96
t-38 305l84 614h223l-78 -593q-15 -120 10 -168t94 -50q61 0 130.5 52t125 148t68.5 206z" />
    <glyph glyph-name="thorn" unicode="&#xfe;" horiz-adv-x="1169" 
d="M39 -406l233 1913h224l-86 -694l6 -4q137 205 350 205q104 0 178.5 -57.5t108.5 -147.5t34 -201q0 -118 -35 -229.5t-97.5 -199.5t-157 -141.5t-205.5 -53.5q-168 0 -266 88l-4 -2l-60 -476h-223zM535 186q99 0 175.5 59.5t114 150t37.5 194.5q0 96 -38 159.5t-111 63.5
q-120 0 -227 -134.5t-134 -344.5l-6 -49q27 -48 77.5 -73.5t111.5 -25.5z" />
    <glyph glyph-name="ydieresis" unicode="&#xff;" horiz-adv-x="1116" 
d="M465 1151q-63 0 -105.5 41.5t-42.5 103.5q0 66 44 109t110 43q62 0 103.5 -41t41.5 -104q0 -65 -43.5 -108.5t-107.5 -43.5zM854 1151q-64 0 -105.5 41.5t-41.5 103.5q0 66 43.5 109t109.5 43q62 0 104 -41t42 -104q0 -65 -44 -108.5t-108 -43.5zM821 999h221l-106 -874
q-15 -129 -54 -227.5t-89.5 -157.5t-119 -96t-136 -50.5t-146.5 -13.5q-199 0 -346 96l74 195q138 -88 272 -88q67 0 116 14.5t93.5 52t73 110t41.5 181.5l4 35l-4 2q-132 -194 -338 -194q-159 0 -226 96t-38 305l84 614h223l-78 -593q-15 -120 10 -168t94 -50
q61 0 130.5 52t125 148t68.5 206z" />
    <glyph glyph-name="Amacron" unicode="&#x100;" horiz-adv-x="1325" 
d="M535 1632l22 178h561l-22 -178h-561zM-8 0l663 1454h252l307 -1454h-251l-60 315h-524l-137 -315h-250zM469 526h393l-119 625h-4z" />
    <glyph glyph-name="amacron" unicode="&#x101;" horiz-adv-x="1150" 
d="M401 1198l23 188h561l-22 -188h-562zM424 -16q-170 0 -257 113.5t-87 291.5q0 118 35.5 230.5t97.5 200t155.5 141t202.5 53.5q170 0 263 -96l6 2l10 77h223l-123 -997h-223l23 182l-7 2q-68 -98 -153 -149t-166 -51zM467 182q110 0 213 139t131 359l4 37q-44 42 -106 67
t-121 25q-84 0 -150 -64.5t-98.5 -160t-32.5 -199.5q0 -94 41.5 -148.5t118.5 -54.5z" />
    <glyph glyph-name="Abreve" unicode="&#x102;" horiz-adv-x="1325" 
d="M813 1573q-141 0 -210.5 75.5t-57.5 209.5h174q-7 -46 18 -79.5t82 -33.5q54 0 96.5 35t55.5 78h174q-27 -129 -115.5 -207t-216.5 -78zM-8 0l663 1454h252l307 -1454h-251l-60 315h-524l-137 -315h-250zM469 526h393l-119 625h-4z" />
    <glyph glyph-name="abreve" unicode="&#x103;" horiz-adv-x="1150" 
d="M680 1124q-141 0 -210.5 78.5t-57.5 224.5h174q-6 -59 18 -95t82 -36q56 0 97.5 38t54.5 93h174q-26 -141 -114 -222t-218 -81zM424 -16q-170 0 -257 113.5t-87 291.5q0 118 35.5 230.5t97.5 200t155.5 141t202.5 53.5q170 0 263 -96l6 2l10 77h223l-123 -997h-223
l23 182l-7 2q-68 -98 -153 -149t-166 -51zM467 182q110 0 213 139t131 359l4 37q-44 42 -106 67t-121 25q-84 0 -150 -64.5t-98.5 -160t-32.5 -199.5q0 -94 41.5 -148.5t118.5 -54.5z" />
    <glyph glyph-name="Aogonek" unicode="&#x104;" horiz-adv-x="1325" 
d="M1202 0q-83 -17 -136.5 -69t-53.5 -109q0 -29 15.5 -45.5t41.5 -16.5q51 0 82 17l4 -139q-50 -23 -141 -23q-93 0 -141 40t-48 114q0 64 38.5 126t99.5 105l-60 315h-524l-137 -315h-250l663 1454h252l307 -1454h-12zM469 526h393l-119 625h-4z" />
    <glyph glyph-name="aogonek" unicode="&#x105;" horiz-adv-x="1150" 
d="M850 997h223l-123 -997h-6q-83 -17 -136.5 -69t-53.5 -109q0 -29 15.5 -45.5t41.5 -16.5q51 0 82 17l4 -139q-50 -23 -141 -23q-93 0 -141 40t-48 114q0 70 46 138t116 109l21 166l-7 2q-68 -98 -153 -149t-166 -51q-170 0 -257 113.5t-87 291.5q0 118 35.5 230.5
t97.5 200t155.5 141t202.5 53.5q170 0 263 -96l6 2zM467 182q110 0 213 139t131 359l4 37q-44 42 -106 67t-121 25q-84 0 -150 -64.5t-98.5 -160t-32.5 -199.5q0 -94 41.5 -148.5t118.5 -54.5z" />
    <glyph glyph-name="Cacute" unicode="&#x106;" horiz-adv-x="1390" 
d="M786 1587l236 271l254 2l-266 -273h-224zM723 -16q-126 0 -232 38.5t-185.5 112.5t-124 191t-44.5 266q0 179 55 339.5t152.5 279.5t240 189t308.5 70q318 0 504 -303l-205 -143q-113 217 -309 217q-110 0 -204 -54.5t-156.5 -145t-98 -207.5t-35.5 -242
q0 -178 89.5 -278.5t254.5 -100.5q94 0 186 48t158 128l180 -158q-103 -114 -241 -180.5t-293 -66.5z" />
    <glyph glyph-name="cacute" unicode="&#x107;" horiz-adv-x="1007" 
d="M504 1139l244 295l247 2l-264 -297h-227zM498 -14q-192 0 -303 108.5t-111 315.5q0 122 36.5 231t102.5 192.5t167 132t222 48.5q119 0 214.5 -43.5t150.5 -124.5l-176 -131q-64 94 -195 94q-130 0 -212.5 -110t-82.5 -271q0 -121 56.5 -179.5t140.5 -58.5
q55 0 114.5 26.5t110.5 80.5l176 -127q-88 -91 -185.5 -137.5t-225.5 -46.5z" />
    <glyph glyph-name="Ccircumflex" unicode="&#x108;" horiz-adv-x="1390" 
d="M629 1587l245 273h218l172 -273h-211l-86 139h-6l-121 -139h-211zM723 -16q-126 0 -232 38.5t-185.5 112.5t-124 191t-44.5 266q0 179 55 339.5t152.5 279.5t240 189t308.5 70q318 0 504 -303l-205 -143q-113 217 -309 217q-110 0 -204 -54.5t-156.5 -145t-98 -207.5
t-35.5 -242q0 -178 89.5 -278.5t254.5 -100.5q94 0 186 48t158 128l180 -158q-103 -114 -241 -180.5t-293 -66.5z" />
    <glyph glyph-name="ccircumflex" unicode="&#x109;" horiz-adv-x="1007" 
d="M342 1135l242 301h213l178 -301h-217l-74 155h-4l-113 -155h-225zM498 -14q-192 0 -303 108.5t-111 315.5q0 122 36.5 231t102.5 192.5t167 132t222 48.5q119 0 214.5 -43.5t150.5 -124.5l-176 -131q-64 94 -195 94q-130 0 -212.5 -110t-82.5 -271q0 -121 56.5 -179.5
t140.5 -58.5q55 0 114.5 26.5t110.5 80.5l176 -127q-88 -91 -185.5 -137.5t-225.5 -46.5z" />
    <glyph glyph-name="Cdotaccent" unicode="&#x10a;" horiz-adv-x="1390" 
d="M958 1587q-63 0 -104 42t-41 104q0 66 43.5 108.5t108.5 42.5q63 0 105 -41t42 -104q0 -65 -44 -108.5t-110 -43.5zM723 -16q-126 0 -232 38.5t-185.5 112.5t-124 191t-44.5 266q0 179 55 339.5t152.5 279.5t240 189t308.5 70q318 0 504 -303l-205 -143
q-113 217 -309 217q-110 0 -204 -54.5t-156.5 -145t-98 -207.5t-35.5 -242q0 -178 89.5 -278.5t254.5 -100.5q94 0 186 48t158 128l180 -158q-103 -114 -241 -180.5t-293 -66.5z" />
    <glyph glyph-name="cdotaccent" unicode="&#x10b;" horiz-adv-x="1007" 
d="M682 1151q-63 0 -104 41.5t-41 103.5q0 66 43 109t108 43q63 0 105.5 -41t42.5 -104q0 -65 -44 -108.5t-110 -43.5zM498 -14q-192 0 -303 108.5t-111 315.5q0 122 36.5 231t102.5 192.5t167 132t222 48.5q119 0 214.5 -43.5t150.5 -124.5l-176 -131q-64 94 -195 94
q-130 0 -212.5 -110t-82.5 -271q0 -121 56.5 -179.5t140.5 -58.5q55 0 114.5 26.5t110.5 80.5l176 -127q-88 -91 -185.5 -137.5t-225.5 -46.5z" />
    <glyph glyph-name="Ccaron" unicode="&#x10c;" horiz-adv-x="1390" 
d="M834 1587l-172 273h210l86 -140h7l120 140h211l-245 -273h-217zM723 -16q-126 0 -232 38.5t-185.5 112.5t-124 191t-44.5 266q0 179 55 339.5t152.5 279.5t240 189t308.5 70q318 0 504 -303l-205 -143q-113 217 -309 217q-110 0 -204 -54.5t-156.5 -145t-98 -207.5
t-35.5 -242q0 -178 89.5 -278.5t254.5 -100.5q94 0 186 48t158 128l180 -158q-103 -114 -241 -180.5t-293 -66.5z" />
    <glyph glyph-name="ccaron" unicode="&#x10d;" horiz-adv-x="1007" 
d="M547 1130l-162 297h209l78 -153h6l117 153h211l-242 -297h-217zM498 -14q-192 0 -303 108.5t-111 315.5q0 122 36.5 231t102.5 192.5t167 132t222 48.5q119 0 214.5 -43.5t150.5 -124.5l-176 -131q-64 94 -195 94q-130 0 -212.5 -110t-82.5 -271q0 -121 56.5 -179.5
t140.5 -58.5q55 0 114.5 26.5t110.5 80.5l176 -127q-88 -91 -185.5 -137.5t-225.5 -46.5z" />
    <glyph glyph-name="Dcaron" unicode="&#x10e;" horiz-adv-x="1419" 
d="M729 1587l-172 273h211l86 -140h6l121 140h211l-246 -273h-217zM127 0l178 1454h434q291 0 443.5 -159t152.5 -441q0 -256 -92.5 -449t-266.5 -299t-409 -106h-440zM395 217h197q148 0 260 82t171.5 226t59.5 329q0 177 -94 280t-268 103h-201z" />
    <glyph glyph-name="dcaron" unicode="&#x10f;" horiz-adv-x="1282" 
d="M1227 1194l106 405h232l-168 -405h-170zM426 -16q-170 0 -257 113.5t-87 291.5q0 118 35.5 230t97.5 200t155.5 141.5t202.5 53.5q170 0 271 -96l6 2l72 587h225l-186 -1507h-226l25 186l-6 2q-69 -101 -154 -152.5t-174 -51.5zM469 182q114 0 217 137.5t133 356.5l6 45
q-82 88 -235 88q-84 0 -150 -65t-98.5 -160.5t-32.5 -198.5q0 -94 41.5 -148.5t118.5 -54.5z" />
    <glyph glyph-name="Dcroat" unicode="&#x110;" horiz-adv-x="1423" 
d="M743 1454q291 0 443.5 -159t152.5 -441q0 -256 -92.5 -449t-266.5 -299t-409 -106h-440l76 618h-117l31 207h110l78 629h434zM596 217q148 0 260 82t171.5 226t59.5 329q0 177 -94 280t-268 103h-201l-51 -412h291l-31 -207h-284l-50 -401h197z" />
    <glyph glyph-name="dcroat" unicode="&#x111;" horiz-adv-x="1128" 
d="M1231 1305l-21 -154h-108l-141 -1151h-226l25 186l-6 2q-69 -101 -154 -152.5t-174 -51.5q-170 0 -257 113.5t-87 291.5q0 118 35.5 230t97.5 200t155.5 141.5t202.5 53.5q170 0 271 -96l6 2l29 231h-353l19 154h352l25 202h225l-25 -202h109zM819 676l6 45
q-82 88 -235 88q-84 0 -150 -65t-98.5 -160.5t-32.5 -198.5q0 -94 41.5 -148.5t118.5 -54.5q114 0 217 137.5t133 356.5z" />
    <glyph glyph-name="Emacron" unicode="&#x112;" horiz-adv-x="1177" 
d="M477 1632l23 178h561l-23 -178h-561zM127 0l178 1454h838l-29 -217h-596l-49 -408h481l-26 -217h-482l-49 -395h635l-27 -217h-874z" />
    <glyph glyph-name="emacron" unicode="&#x113;" horiz-adv-x="980" 
d="M903 1386l-22 -188h-562l23 188h561zM498 190q68 0 120 25t107 82l176 -127q-93 -95 -185 -139.5t-227 -44.5q-188 0 -296.5 110.5t-108.5 304.5q0 123 35.5 233.5t100.5 195t165.5 134.5t222.5 50q134 0 228 -72.5t94 -198.5q0 -91 -52 -161.5t-144.5 -115t-195.5 -70.5
t-229 -40q11 -81 64.5 -123.5t124.5 -42.5zM598 811q-55 0 -109 -27t-102 -91.5t-68 -155.5q383 45 383 196q0 37 -26.5 57.5t-77.5 20.5z" />
    <glyph glyph-name="Ebreve" unicode="&#x114;" horiz-adv-x="1177" 
d="M756 1573q-141 0 -211 76t-58 209h175q-7 -46 18 -79.5t82 -33.5q54 0 96 35t55 78h174q-27 -129 -115 -207t-216 -78zM127 0l178 1454h838l-29 -217h-596l-49 -408h481l-26 -217h-482l-49 -395h635l-27 -217h-874z" />
    <glyph glyph-name="ebreve" unicode="&#x115;" horiz-adv-x="980" 
d="M598 1124q-141 0 -210.5 78.5t-57.5 224.5h174q-6 -59 18 -95t82 -36q56 0 97.5 38t54.5 93h174q-26 -141 -114 -222t-218 -81zM930 743q0 -91 -52 -161.5t-144.5 -115t-195.5 -70.5t-229 -40q11 -81 64.5 -123.5t124.5 -42.5q68 0 120 25t107 82l176 -127
q-93 -95 -185 -139.5t-227 -44.5q-188 0 -296.5 110.5t-108.5 304.5q0 123 35.5 233.5t100.5 195t165.5 134.5t222.5 50q134 0 228 -72.5t94 -198.5zM319 537q383 45 383 196q0 37 -26.5 57.5t-77.5 20.5q-55 0 -109 -27t-102 -91.5t-68 -155.5z" />
    <glyph glyph-name="Edotaccent" unicode="&#x116;" horiz-adv-x="1177" 
d="M762 1587q-63 0 -104.5 42t-41.5 104q0 66 43.5 108.5t108.5 42.5q63 0 105 -41t42 -104q0 -65 -43.5 -108.5t-109.5 -43.5zM127 0l178 1454h838l-29 -217h-596l-49 -408h481l-26 -217h-482l-49 -395h635l-27 -217h-874z" />
    <glyph glyph-name="edotaccent" unicode="&#x117;" horiz-adv-x="980" 
d="M612 1151q-63 0 -104 41.5t-41 103.5q0 66 43 109t108 43q63 0 105.5 -41t42.5 -104q0 -65 -44 -108.5t-110 -43.5zM498 190q68 0 120 25t107 82l176 -127q-93 -95 -185 -139.5t-227 -44.5q-188 0 -296.5 110.5t-108.5 304.5q0 123 35.5 233.5t100.5 195t165.5 134.5
t222.5 50q134 0 228 -72.5t94 -198.5q0 -91 -52 -161.5t-144.5 -115t-195.5 -70.5t-229 -40q11 -81 64.5 -123.5t124.5 -42.5zM598 811q-55 0 -109 -27t-102 -91.5t-68 -155.5q383 45 383 196q0 37 -26.5 57.5t-77.5 20.5z" />
    <glyph glyph-name="Eogonek" unicode="&#x118;" horiz-adv-x="1177" 
d="M1114 1237h-596l-49 -408h481l-26 -217h-482l-49 -395h635l-27 -217h-6q-83 -17 -136.5 -69t-53.5 -109q0 -29 15.5 -45.5t41.5 -16.5q51 0 82 17l4 -139q-50 -23 -141 -23q-93 0 -141 40t-48 114q0 64 38 126t98 105h-627l178 1454h838z" />
    <glyph glyph-name="eogonek" unicode="&#x119;" horiz-adv-x="980" 
d="M498 190q68 0 120 25t107 82l176 -127q-128 -131 -260 -166q-80 -28 -131 -79t-51 -103q0 -62 65 -62q40 0 74 17l2 -139q-50 -23 -139 -23q-93 0 -141 40t-48 114q0 60 33.5 118t87.5 101l-2 6q-145 28 -226 134.5t-81 272.5q0 123 35.5 233.5t100.5 195t165.5 134.5
t222.5 50q134 0 228 -72.5t94 -198.5q0 -91 -52 -161.5t-144.5 -115t-195.5 -70.5t-229 -40q11 -81 64.5 -123.5t124.5 -42.5zM598 811q-55 0 -109 -27t-102 -91.5t-68 -155.5q383 45 383 196q0 37 -26.5 57.5t-77.5 20.5z" />
    <glyph glyph-name="Ecaron" unicode="&#x11a;" horiz-adv-x="1177" 
d="M637 1587l-172 273h211l86 -140h6l121 140h211l-246 -273h-217zM127 0l178 1454h838l-29 -217h-596l-49 -408h481l-26 -217h-482l-49 -395h635l-27 -217h-874z" />
    <glyph glyph-name="ecaron" unicode="&#x11b;" horiz-adv-x="980" 
d="M694 1130h-217l-162 297h209l78 -153h6l117 153h211zM930 743q0 -91 -52 -161.5t-144.5 -115t-195.5 -70.5t-229 -40q11 -81 64.5 -123.5t124.5 -42.5q68 0 120 25t107 82l176 -127q-93 -95 -185 -139.5t-227 -44.5q-188 0 -296.5 110.5t-108.5 304.5q0 123 35.5 233.5
t100.5 195t165.5 134.5t222.5 50q134 0 228 -72.5t94 -198.5zM319 537q383 45 383 196q0 37 -26.5 57.5t-77.5 20.5q-55 0 -109 -27t-102 -91.5t-68 -155.5z" />
    <glyph glyph-name="Gcircumflex" unicode="&#x11c;" horiz-adv-x="1447" 
d="M602 1587l246 273h217l172 -273h-211l-86 139h-6l-121 -139h-211zM729 -16q-102 0 -191.5 24t-163 73.5t-126.5 121t-82 171t-29 218.5q0 238 95 438.5t267 320t384 119.5q331 0 497 -249l-200 -148q-108 168 -308 168q-136 0 -247 -87t-172.5 -234t-61.5 -322
q0 -186 91 -289.5t257 -103.5q155 0 293 98l35 254h-305l29 217h544l-71 -610q-100 -83 -243 -131.5t-292 -48.5z" />
    <glyph glyph-name="gcircumflex" unicode="&#x11d;" horiz-adv-x="1159" 
d="M352 1135l242 301h213l178 -301h-217l-74 155h-4l-112 -155h-226zM406 -420q-191 0 -338 96l73 195q134 -86 275 -86q71 0 121 14t95 51.5t73.5 109.5t42.5 181l10 84l-4 2q-69 -103 -155.5 -157t-172.5 -54q-115 0 -193.5 56t-113.5 145t-35 205q0 85 22 170t64.5 160.5
t100.5 134.5t136.5 93t165.5 34q170 0 267 -94l4 2l10 77h223l-106 -874q-16 -130 -54 -227.5t-89 -157.5t-121 -96.5t-141.5 -50t-159.5 -13.5zM469 215q105 0 207.5 123t130.5 309l10 68q-43 43 -105 68.5t-120 25.5q-64 0 -118.5 -37t-89 -95t-54 -126t-19.5 -133
q0 -94 41.5 -148.5t116.5 -54.5z" />
    <glyph glyph-name="Gbreve" unicode="&#x11e;" horiz-adv-x="1447" 
d="M926 1573q-141 0 -211 76t-58 209h174q-7 -46 18.5 -79.5t82.5 -33.5q54 0 96 35t55 78h174q-27 -129 -115 -207t-216 -78zM729 -16q-102 0 -191.5 24t-163 73.5t-126.5 121t-82 171t-29 218.5q0 238 95 438.5t267 320t384 119.5q331 0 497 -249l-200 -148
q-108 168 -308 168q-136 0 -247 -87t-172.5 -234t-61.5 -322q0 -186 91 -289.5t257 -103.5q155 0 293 98l35 254h-305l29 217h544l-71 -610q-100 -83 -243 -131.5t-292 -48.5z" />
    <glyph glyph-name="gbreve" unicode="&#x11f;" horiz-adv-x="1159" 
d="M678 1124q-141 0 -210.5 78.5t-57.5 224.5h174q-6 -59 18 -95t82 -36q56 0 97.5 38t54.5 93h174q-26 -141 -114 -222t-218 -81zM406 -420q-191 0 -338 96l73 195q134 -86 275 -86q71 0 121 14t95 51.5t73.5 109.5t42.5 181l10 84l-4 2q-69 -103 -155.5 -157t-172.5 -54
q-115 0 -193.5 56t-113.5 145t-35 205q0 85 22 170t64.5 160.5t100.5 134.5t136.5 93t165.5 34q170 0 267 -94l4 2l10 77h223l-106 -874q-16 -130 -54 -227.5t-89 -157.5t-121 -96.5t-141.5 -50t-159.5 -13.5zM469 215q105 0 207.5 123t130.5 309l10 68q-43 43 -105 68.5
t-120 25.5q-64 0 -118.5 -37t-89 -95t-54 -126t-19.5 -133q0 -94 41.5 -148.5t116.5 -54.5z" />
    <glyph glyph-name="Gdotaccent" unicode="&#x120;" horiz-adv-x="1447" 
d="M932 1587q-63 0 -104.5 42t-41.5 104q0 66 43.5 108.5t108.5 42.5q63 0 105 -41t42 -104q0 -65 -43.5 -108.5t-109.5 -43.5zM729 -16q-102 0 -191.5 24t-163 73.5t-126.5 121t-82 171t-29 218.5q0 238 95 438.5t267 320t384 119.5q331 0 497 -249l-200 -148
q-108 168 -308 168q-136 0 -247 -87t-172.5 -234t-61.5 -322q0 -186 91 -289.5t257 -103.5q155 0 293 98l35 254h-305l29 217h544l-71 -610q-100 -83 -243 -131.5t-292 -48.5z" />
    <glyph glyph-name="gdotaccent" unicode="&#x121;" horiz-adv-x="1159" 
d="M692 1151q-63 0 -104 41.5t-41 103.5q0 66 43 109t108 43q63 0 105.5 -41t42.5 -104q0 -65 -44 -108.5t-110 -43.5zM406 -420q-191 0 -338 96l73 195q134 -86 275 -86q71 0 121 14t95 51.5t73.5 109.5t42.5 181l10 84l-4 2q-69 -103 -155.5 -157t-172.5 -54
q-115 0 -193.5 56t-113.5 145t-35 205q0 85 22 170t64.5 160.5t100.5 134.5t136.5 93t165.5 34q170 0 267 -94l4 2l10 77h223l-106 -874q-16 -130 -54 -227.5t-89 -157.5t-121 -96.5t-141.5 -50t-159.5 -13.5zM469 215q105 0 207.5 123t130.5 309l10 68q-43 43 -105 68.5
t-120 25.5q-64 0 -118.5 -37t-89 -95t-54 -126t-19.5 -133q0 -94 41.5 -148.5t116.5 -54.5z" />
    <glyph glyph-name="Gcommaaccent" unicode="&#x122;" horiz-adv-x="1447" 
d="M729 -16q-102 0 -191.5 24t-163 73.5t-126.5 121t-82 171t-29 218.5q0 238 95 438.5t267 320t384 119.5q331 0 497 -249l-200 -148q-108 168 -308 168q-136 0 -247 -87t-172.5 -234t-61.5 -322q0 -186 91 -289.5t257 -103.5q155 0 293 98l35 254h-305l29 217h544
l-71 -610q-100 -83 -243 -131.5t-292 -48.5zM520 -449l-33 134q67 26 94 59.5t27 97.5q0 9 -4 49h201v-45q0 -126 -73.5 -204t-211.5 -91z" />
    <glyph glyph-name="gcommaaccent" unicode="&#x123;" horiz-adv-x="1159" 
d="M868 1485l33 -133q-66 -25 -93.5 -59.5t-27.5 -98.5q0 -9 4 -49h-200v45q0 126 73 204t211 91zM406 -420q-191 0 -338 96l73 195q134 -86 275 -86q71 0 121 14t95 51.5t73.5 109.5t42.5 181l10 84l-4 2q-69 -103 -155.5 -157t-172.5 -54q-115 0 -193.5 56t-113.5 145
t-35 205q0 85 22 170t64.5 160.5t100.5 134.5t136.5 93t165.5 34q170 0 267 -94l4 2l10 77h223l-106 -874q-16 -130 -54 -227.5t-89 -157.5t-121 -96.5t-141.5 -50t-159.5 -13.5zM469 215q105 0 207.5 123t130.5 309l10 68q-43 43 -105 68.5t-120 25.5q-64 0 -118.5 -37
t-89 -95t-54 -126t-19.5 -133q0 -94 41.5 -148.5t116.5 -54.5z" />
    <glyph glyph-name="Hcircumflex" unicode="&#x124;" horiz-adv-x="1431" 
d="M537 1587l245 273h217l172 -273h-210l-87 139h-6l-120 -139h-211zM127 0l178 1454h242l-80 -651h573l80 651h242l-178 -1454h-244l74 586h-574l-71 -586h-242z" />
    <glyph glyph-name="hcircumflex" unicode="&#x125;" horiz-adv-x="1138" 
d="M375 1608l246 272h217l172 -272h-211l-86 139h-6l-121 -139h-211zM86 0l186 1507h224l-84 -680l4 -2q152 189 360 189q158 0 217 -102t31 -310l-82 -602h-225l80 584q16 114 -5 170.5t-92 56.5q-46 0 -101 -34.5t-105 -91.5t-88.5 -142t-49.5 -176l-45 -367h-225z" />
    <glyph glyph-name="Hbar" unicode="&#x126;" horiz-adv-x="1445" 
d="M1430 1225l-19 -166h-92l-129 -1059h-244l74 586h-574l-71 -586h-242l129 1059h-96l20 166h97l28 229h242l-29 -229h574l28 229h242l-29 -229h91zM1047 803l30 256h-573l-31 -256h574z" />
    <glyph glyph-name="hbar" unicode="&#x127;" horiz-adv-x="1138" 
d="M776 1014q158 0 217 -102t31 -310l-82 -602h-225l80 584q16 114 -5 170.5t-92 56.5q-46 0 -101 -34.5t-105 -91.5t-88.5 -142t-49.5 -176l-45 -367h-225l141 1151h-116l18 154h119l24 202h224l-25 -202h342l-18 -154h-342l-41 -324l4 -2q152 189 360 189z" />
    <glyph glyph-name="Itilde" unicode="&#x128;" horiz-adv-x="636" 
d="M614 1585q-74 0 -161 66q-59 45 -95 45q-33 0 -63.5 -30t-52.5 -81l-140 72q98 201 238 201q24 0 44 -3.5t38.5 -12t27 -13t27 -18t21.5 -15.5q2 -2 13.5 -10t14.5 -10t12.5 -8t14.5 -8t13 -5.5t14.5 -4.5t13.5 -1q33 0 65 29.5t54 79.5l139 -54q-42 -101 -105 -160
t-133 -59zM135 0l178 1454h244l-178 -1454h-244z" />
    <glyph glyph-name="itilde" unicode="&#x129;" horiz-adv-x="528" 
d="M496 1141q-17 0 -33 3.5t-26.5 7t-24 12t-19 12.5t-18 15t-15.5 13q-56 45 -88 45q-63 0 -114 -108l-127 69q41 93 98.5 149t126.5 56q20 0 37.5 -3t29.5 -6.5t26 -11t20 -11.5t20 -14.5t17 -12.5q5 -4 21.5 -16.5t23.5 -17t19 -10t22 -5.5q30 0 59 29t51 79l129 -53
q-40 -102 -103 -161.5t-132 -59.5zM90 0l123 999h225l-123 -999h-225z" />
    <glyph glyph-name="Imacron" unicode="&#x12a;" horiz-adv-x="636" 
d="M178 1632l23 178h561l-23 -178h-561zM135 0l178 1454h244l-178 -1454h-244z" />
    <glyph glyph-name="imacron" unicode="&#x12b;" horiz-adv-x="528" 
d="M76 1198l22 188h561l-22 -188h-561zM90 0l123 999h225l-123 -999h-225z" />
    <glyph glyph-name="Ibreve" unicode="&#x12c;" horiz-adv-x="636" 
d="M457 1573q-141 0 -211 76t-58 209h174q-7 -46 18.5 -79.5t82.5 -33.5q54 0 96 35t55 78h174q-27 -129 -115 -207t-216 -78zM135 0l178 1454h244l-178 -1454h-244z" />
    <glyph glyph-name="ibreve" unicode="&#x12d;" horiz-adv-x="528" 
d="M360 1128q-114 0 -181.5 80t-57.5 219h166q-8 -64 13 -102.5t67 -38.5q50 0 80 39.5t32 101.5h174q-24 -137 -101.5 -218t-191.5 -81zM90 0l123 999h225l-123 -999h-225z" />
    <glyph glyph-name="Iogonek" unicode="&#x12e;" horiz-adv-x="636" 
d="M313 1454h244l-178 -1454h-4q-83 -17 -137 -69t-54 -109q0 -29 15.5 -45.5t42.5 -16.5q51 0 82 17l4 -139q-50 -23 -142 -23q-93 0 -140.5 40t-47.5 114q0 64 38 126t99 105z" />
    <glyph glyph-name="iogonek" unicode="&#x12f;" horiz-adv-x="528" 
d="M375 1448q63 0 105 -41t42 -104q0 -65 -43.5 -108.5t-109.5 -43.5q-63 0 -104.5 41.5t-41.5 103.5q0 66 43.5 109t108.5 43zM92 16l121 983h225l-123 -999h-6q-83 -17 -136.5 -69t-53.5 -109q0 -29 15.5 -45.5t41.5 -16.5q51 0 82 17l4 -139q-50 -23 -141 -23
q-93 0 -141 40t-48 114q0 69 45.5 136.5t114.5 110.5z" />
    <glyph glyph-name="Idotaccent" unicode="&#x130;" horiz-adv-x="636" 
d="M463 1587q-63 0 -104.5 42t-41.5 104q0 66 43.5 108.5t108.5 42.5q63 0 105 -41t42 -104q0 -65 -43.5 -108.5t-109.5 -43.5zM135 0l178 1454h244l-178 -1454h-244z" />
    <glyph glyph-name="dotlessi" unicode="&#x131;" horiz-adv-x="528" 
d="M90 0l123 999h225l-123 -999h-225z" />
    <glyph glyph-name="IJ" unicode="&#x132;" horiz-adv-x="1630" 
d="M135 0l178 1454h244l-178 -1454h-244zM1001 -16q-101 0 -191 49t-146 139l167 168q75 -127 170 -127q186 0 228 326l112 915h244l-115 -928q-33 -269 -145.5 -405.5t-323.5 -136.5z" />
    <glyph glyph-name="ij" unicode="&#x133;" horiz-adv-x="1019" 
d="M369 1151q-63 0 -104.5 41.5t-41.5 103.5q0 66 43.5 109t108.5 43q63 0 105 -41t42 -104q0 -65 -43.5 -108.5t-109.5 -43.5zM866 1151q-63 0 -104 41.5t-41 103.5q0 66 43 109t108 43q63 0 105.5 -41t42.5 -104q0 -65 -44 -108.5t-110 -43.5zM90 0l123 999h225l-123 -999
h-225zM504 -420q-106 0 -182 47l57 176q38 -30 90 -30q50 0 77.5 42.5t37.5 141.5l129 1042h225l-133 -1073q-42 -346 -301 -346z" />
    <glyph glyph-name="Jcircumflex" unicode="&#x134;" horiz-adv-x="993" 
d="M524 1587l246 273h217l172 -273h-211l-86 139h-6l-121 -139h-211zM365 -16q-101 0 -191.5 49t-146.5 139l168 168q75 -127 170 -127q185 0 227 326l113 915h243l-114 -928q-33 -269 -145.5 -405.5t-323.5 -136.5z" />
    <glyph glyph-name="jcircumflex" unicode="&#x135;" horiz-adv-x="491" 
d="M-2 1135l242 301h213l178 -301h-217l-74 155h-4l-113 -155h-225zM-25 -420q-106 0 -182 47l57 176q38 -30 91 -30q50 0 77 42.5t37 141.5l129 1042h226l-134 -1073q-42 -346 -301 -346z" />
    <glyph glyph-name="Kcommaaccent" unicode="&#x136;" horiz-adv-x="1275" 
d="M1350 1454l-549 -645l381 -809h-277l-284 631l-205 -238l-47 -393h-242l178 1454h242l-86 -696l6 -2l580 698h303zM492 -158q0 7 -1 14.5t-2 17.5t-2 17h201v-45q0 -126 -73.5 -204t-211.5 -91l-32 134q67 26 94 59.5t27 97.5z" />
    <glyph glyph-name="kcommaaccent" unicode="&#x137;" horiz-adv-x="1060" 
d="M887 -12q-32 -4 -47 -4q-56 1 -95 18t-72 64t-50.5 83.5t-53.5 122.5q-5 13 -8 19l-20 51q-103 -70 -205 -117l-27 -225h-223l186 1507h224l-127 -1038l4 -2q310 191 411 532h228q-58 -279 -297 -514l53 -133q41 -103 78.5 -140.5t105.5 -51.5zM287 -449l-33 134
q67 26 94 59.5t27 97.5q0 9 -4 49h200v-45q0 -126 -73 -204t-211 -91z" />
    <glyph glyph-name="kgreenlandic" unicode="&#x138;" horiz-adv-x="1060" 
d="M887 -12q-32 -4 -47 -4q-56 1 -95 18t-72 64t-50.5 83.5t-53.5 122.5q-5 13 -8 19l-20 51q-103 -70 -205 -117l-27 -225h-223l125 999h221l-63 -526l6 -4q309 192 409 530h228q-58 -279 -297 -514l53 -133q41 -103 78.5 -140.5t105.5 -51.5z" />
    <glyph glyph-name="Lacute" unicode="&#x139;" horiz-adv-x="1118" 
d="M561 1587l236 271l254 2l-267 -273h-223zM127 0l178 1454h242l-152 -1237h600l-26 -217h-842z" />
    <glyph glyph-name="lacute" unicode="&#x13a;" horiz-adv-x="526" 
d="M307 1614l236 270l254 2l-267 -272h-223zM96 0l185 1507h225l-187 -1507h-223z" />
    <glyph glyph-name="Lcommaaccent" unicode="&#x13b;" horiz-adv-x="1118" 
d="M127 0l178 1454h242l-152 -1237h600l-26 -217h-842zM342 -449l-33 134q67 26 94 59.5t27 97.5q0 9 -4 49h201v-45q0 -126 -73.5 -204t-211.5 -91z" />
    <glyph glyph-name="lcommaaccent" unicode="&#x13c;" horiz-adv-x="526" 
d="M96 0l185 1507h225l-187 -1507h-223zM8 -449l-33 134q67 26 94 59.5t27 97.5q0 9 -4 49h201v-45q0 -126 -73.5 -204t-211.5 -91z" />
    <glyph glyph-name="Lcaron" unicode="&#x13d;" horiz-adv-x="1118" 
d="M721 1194l106 405h232l-168 -405h-170zM127 0l178 1454h242l-152 -1237h600l-26 -217h-842z" />
    <glyph glyph-name="lcaron" unicode="&#x13e;" horiz-adv-x="657" 
d="M610 1194l109 405h229l-166 -405h-172zM96 0l185 1507h225l-187 -1507h-223z" />
    <glyph glyph-name="Ldot" unicode="&#x13f;" horiz-adv-x="1118" 
d="M127 0l178 1454h242l-152 -1237h600l-26 -217h-842zM879 545q-63 0 -104.5 41.5t-41.5 103.5q0 66 43.5 110t108.5 44q63 0 105 -42.5t42 -105.5q0 -65 -43.5 -108t-109.5 -43z" />
    <glyph glyph-name="ldot" unicode="&#x140;" horiz-adv-x="890" 
d="M96 0l185 1507h225l-187 -1507h-223zM711 352q-63 0 -104.5 42t-41.5 104q0 66 43.5 109.5t108.5 43.5q63 0 105 -42t42 -105q0 -65 -43.5 -108.5t-109.5 -43.5z" />
    <glyph glyph-name="Lslash" unicode="&#x141;" horiz-adv-x="1120" 
d="M397 217h600l-26 -217h-842l68 557l-156 -68l27 199l153 66l86 700h242l-72 -590l213 92l-24 -200l-213 -90z" />
    <glyph glyph-name="lslash" unicode="&#x142;" horiz-adv-x="626" 
d="M612 854l-22 -180l-150 -64l-75 -610h-224l62 508l-140 -59l23 180l139 59l101 819h225l-88 -716z" />
    <glyph glyph-name="Nacute" unicode="&#x143;" horiz-adv-x="1478" 
d="M692 1587l236 271l254 2l-267 -273h-223zM127 0l178 1454h244l483 -1048l6 4l129 1044h242l-180 -1454h-246l-481 1032h-6l-127 -1032h-242z" />
    <glyph glyph-name="nacute" unicode="&#x144;" horiz-adv-x="1138" 
d="M471 1139l244 295l248 2l-265 -297h-227zM86 0l125 999h223l-20 -172l4 -2q155 189 358 189q158 0 217 -102t31 -310l-82 -602h-223l78 584q16 114 -5 170.5t-92 56.5q-46 0 -101 -34t-104.5 -90.5t-88 -140t-50.5 -173.5l-45 -373h-225z" />
    <glyph glyph-name="Ncommaaccent" unicode="&#x145;" horiz-adv-x="1478" 
d="M127 0l178 1454h244l483 -1048l6 4l129 1044h242l-180 -1454h-246l-481 1032h-6l-127 -1032h-242zM489 -449l-32 134q67 26 94 59.5t27 97.5q0 7 -1 14.5t-2 17.5t-2 17h201v-45q0 -126 -73.5 -204t-211.5 -91z" />
    <glyph glyph-name="ncommaaccent" unicode="&#x146;" horiz-adv-x="1138" 
d="M86 0l125 999h223l-20 -172l4 -2q155 189 358 189q158 0 217 -102t31 -310l-82 -602h-223l78 584q16 114 -5 170.5t-92 56.5q-46 0 -101 -34t-104.5 -90.5t-88 -140t-50.5 -173.5l-45 -373h-225zM322 -449l-33 134q67 26 94 59.5t27 97.5q0 9 -4 49h200v-45
q0 -126 -73 -204t-211 -91z" />
    <glyph glyph-name="Ncaron" unicode="&#x147;" horiz-adv-x="1478" 
d="M776 1587l-172 273h211l86 -140h6l121 140h211l-246 -273h-217zM127 0l178 1454h244l483 -1048l6 4l129 1044h242l-180 -1454h-246l-481 1032h-6l-127 -1032h-242z" />
    <glyph glyph-name="ncaron" unicode="&#x148;" horiz-adv-x="1138" 
d="M557 1130l-162 297h209l78 -153h6l117 153h211l-242 -297h-217zM86 0l125 999h223l-20 -172l4 -2q155 189 358 189q158 0 217 -102t31 -310l-82 -602h-223l78 584q16 114 -5 170.5t-92 56.5q-46 0 -101 -34t-104.5 -90.5t-88 -140t-50.5 -173.5l-45 -373h-225z" />
    <glyph glyph-name="napostrophe" unicode="&#x149;" horiz-adv-x="1368" 
d="M45 1030l107 424h231l-168 -424h-170zM315 0l125 999h224l-21 -172l4 -2q155 189 359 189q158 0 216.5 -101.5t30.5 -310.5l-82 -602h-223l78 584q16 115 -5 171t-91 56q-46 0 -101 -34t-104.5 -90.5t-88 -140t-50.5 -173.5l-45 -373h-226z" />
    <glyph glyph-name="Eng" unicode="&#x14a;" horiz-adv-x="1478" 
d="M1167 1454h242l-180 -1454q-14 -118 -54 -201t-101.5 -129t-133 -66t-160.5 -20q-68 0 -123 15l33 194q52 -10 82 -10q103 0 151.5 54t61.5 161l-483 1034h-6l-127 -1032h-242l178 1454h244l483 -1048l6 4z" />
    <glyph glyph-name="eng" unicode="&#x14b;" horiz-adv-x="1128" 
d="M528 -420q-56 0 -106 17l37 172q40 -5 43 -5q175 0 213 277l71 543q16 115 -5 171t-91 56q-98 0 -204 -129.5t-130 -308.5l-45 -373h-225l125 999h223l-20 -172l4 -2q140 189 348 189q158 0 217 -102t31 -310l-80 -602q-28 -213 -134.5 -316.5t-271.5 -103.5z" />
    <glyph glyph-name="Omacron" unicode="&#x14c;" horiz-adv-x="1566" 
d="M692 1632l23 178h561l-23 -178h-561zM721 -16q-266 0 -425 162.5t-159 449.5q0 172 55.5 330.5t153 279t242 192.5t311.5 72q265 0 425.5 -162.5t160.5 -447.5q0 -140 -33 -270t-99 -240t-156.5 -192t-213 -128t-262.5 -46zM739 209q106 0 199.5 54t157 143.5
t100.5 206.5t37 241q0 194 -95.5 293.5t-265.5 99.5q-104 0 -195.5 -55.5t-153.5 -145.5t-98 -206.5t-36 -237.5q0 -192 93 -292.5t257 -100.5z" />
    <glyph glyph-name="omacron" unicode="&#x14d;" horiz-adv-x="1122" 
d="M379 1198l22 188h562l-23 -188h-561zM504 -16q-194 0 -307 111.5t-113 310.5q0 163 62.5 300t185 222.5t282.5 85.5q194 0 309 -108.5t115 -303.5q0 -130 -35.5 -242t-101.5 -196t-168 -132t-229 -48zM510 188q133 0 217 114t84 280q0 53 -14 94.5t-35.5 66t-50.5 40
t-56 21t-55 5.5q-85 0 -153 -55.5t-103 -141t-35 -180.5q0 -107 54 -175.5t147 -68.5z" />
    <glyph glyph-name="Obreve" unicode="&#x14e;" horiz-adv-x="1566" 
d="M971 1573q-141 0 -211 76t-58 209h175q-7 -46 18 -79.5t82 -33.5q54 0 96 35t55 78h175q-27 -129 -115.5 -207t-216.5 -78zM721 -16q-266 0 -425 162.5t-159 449.5q0 172 55.5 330.5t153 279t242 192.5t311.5 72q265 0 425.5 -162.5t160.5 -447.5q0 -140 -33 -270
t-99 -240t-156.5 -192t-213 -128t-262.5 -46zM739 209q106 0 199.5 54t157 143.5t100.5 206.5t37 241q0 194 -95.5 293.5t-265.5 99.5q-104 0 -195.5 -55.5t-153.5 -145.5t-98 -206.5t-36 -237.5q0 -192 93 -292.5t257 -100.5z" />
    <glyph glyph-name="obreve" unicode="&#x14f;" horiz-adv-x="1122" 
d="M657 1124q-141 0 -210.5 78.5t-57.5 224.5h174q-6 -59 18 -95t83 -36q56 0 97 38t54 93h174q-26 -141 -114 -222t-218 -81zM504 -16q-194 0 -307 111.5t-113 310.5q0 163 62.5 300t185 222.5t282.5 85.5q194 0 309 -108.5t115 -303.5q0 -130 -35.5 -242t-101.5 -196
t-168 -132t-229 -48zM510 188q133 0 217 114t84 280q0 53 -14 94.5t-35.5 66t-50.5 40t-56 21t-55 5.5q-85 0 -153 -55.5t-103 -141t-35 -180.5q0 -107 54 -175.5t147 -68.5z" />
    <glyph glyph-name="Ohungarumlaut" unicode="&#x150;" horiz-adv-x="1566" 
d="M657 1581l244 295l238 2l-265 -297h-217zM1034 1581l242 295l237 2l-264 -297h-215zM721 -16q-266 0 -425 162.5t-159 449.5q0 172 55.5 330.5t153 279t242 192.5t311.5 72q265 0 425.5 -162.5t160.5 -447.5q0 -140 -33 -270t-99 -240t-156.5 -192t-213 -128t-262.5 -46z
M739 209q106 0 199.5 54t157 143.5t100.5 206.5t37 241q0 194 -95.5 293.5t-265.5 99.5q-104 0 -195.5 -55.5t-153.5 -145.5t-98 -206.5t-36 -237.5q0 -192 93 -292.5t257 -100.5z" />
    <glyph glyph-name="ohungarumlaut" unicode="&#x151;" horiz-adv-x="1122" 
d="M358 1139l244 295l238 2l-265 -297h-217zM735 1139l242 295l237 2l-264 -297h-215zM504 -16q-194 0 -307 111.5t-113 310.5q0 163 62.5 300t185 222.5t282.5 85.5q194 0 309 -108.5t115 -303.5q0 -130 -35.5 -242t-101.5 -196t-168 -132t-229 -48zM510 188q133 0 217 114
t84 280q0 53 -14 94.5t-35.5 66t-50.5 40t-56 21t-55 5.5q-85 0 -153 -55.5t-103 -141t-35 -180.5q0 -107 54 -175.5t147 -68.5z" />
    <glyph glyph-name="OE" unicode="&#x152;" horiz-adv-x="1826" 
d="M1765 1237h-589l-52 -408h475l-26 -217h-473l-49 -395h626l-26 -217h-930q-265 0 -424.5 159.5t-159.5 436.5q0 174 55.5 330t154 273t244.5 186t318 69h883zM741 225h70l123 1006h-53q-142 1 -256 -87.5t-175 -232t-61 -309.5q0 -183 94 -280t258 -97z" />
    <glyph glyph-name="oe" unicode="&#x153;" horiz-adv-x="1499" 
d="M1081 190q113 0 197 107l174 -127q-148 -184 -377 -184q-218 0 -327 157h-7q-131 -157 -327 -157q-170 0 -264.5 110.5t-94.5 294.5q0 124 34 236t96 198.5t158 137.5t212 51q198 0 279 -158h8q145 158 342 158q130 0 213.5 -64t83.5 -178q0 -175 -150.5 -286
t-421.5 -160q19 -66 67 -101t105 -35zM434 190q102 0 178 117t76 287q0 100 -39.5 158.5t-101.5 58.5q-74 0 -135.5 -58t-95 -150.5t-33.5 -194.5q0 -110 44.5 -164t106.5 -54zM1159 811q-73 0 -150 -83t-102 -220q161 36 253.5 98t92.5 137q0 28 -24 48t-70 20z" />
    <glyph glyph-name="Racute" unicode="&#x154;" horiz-adv-x="1282" 
d="M582 1587l235 271l254 2l-266 -273h-223zM127 0l178 1454h500q207 0 302 -99t95 -292q0 -187 -85 -318.5t-249 -187.5l262 -557h-272l-231 522h-195l-63 -522h-242zM459 739h200q134 0 212.5 85t78.5 239q0 79 -54.5 126.5t-145.5 47.5h-230z" />
    <glyph glyph-name="racute" unicode="&#x155;" horiz-adv-x="729" 
d="M307 1139l244 295l248 2l-264 -297h-228zM88 0l125 999h223l-22 -182h4q139 194 330 197l-31 -256q-147 27 -240 -80t-119 -303l-45 -375h-225z" />
    <glyph glyph-name="Rcommaaccent" unicode="&#x156;" horiz-adv-x="1282" 
d="M127 0l178 1454h500q207 0 302 -99t95 -292q0 -187 -85 -318.5t-249 -187.5l262 -557h-272l-231 522h-195l-63 -522h-242zM459 739h200q134 0 212.5 85t78.5 239q0 79 -54.5 126.5t-145.5 47.5h-230zM399 -449l-32 134q66 25 93 59t27 98q0 9 -4 49h201v-45
q0 -126 -73.5 -204t-211.5 -91z" />
    <glyph glyph-name="rcommaaccent" unicode="&#x157;" horiz-adv-x="729" 
d="M88 0l125 999h223l-22 -182h4q139 194 330 197l-31 -256q-147 27 -240 -80t-119 -303l-45 -375h-225zM0 -449l-33 134q67 26 94 59.5t27 97.5q0 9 -4 49h201v-45q0 -126 -73.5 -204t-211.5 -91z" />
    <glyph glyph-name="Rcaron" unicode="&#x158;" horiz-adv-x="1282" 
d="M666 1587l-172 273h211l86 -140h6l121 140h210l-245 -273h-217zM127 0l178 1454h500q207 0 302 -99t95 -292q0 -187 -85 -318.5t-249 -187.5l262 -557h-272l-231 522h-195l-63 -522h-242zM459 739h200q134 0 212.5 85t78.5 239q0 79 -54.5 126.5t-145.5 47.5h-230z" />
    <glyph glyph-name="rcaron" unicode="&#x159;" horiz-adv-x="729" 
d="M410 1130l-162 297h209l78 -153h6l116 153h211l-241 -297h-217zM88 0l125 999h223l-22 -182h4q139 194 330 197l-31 -256q-147 27 -240 -80t-119 -303l-45 -375h-225z" />
    <glyph glyph-name="Sacute" unicode="&#x15a;" horiz-adv-x="1155" 
d="M582 1587l235 271l254 2l-266 -273h-223zM547 -16q-158 0 -289 66.5t-201 178.5l179 164q43 -88 123 -137t171 -49q112 0 185 59.5t73 145.5q0 22 -5.5 40t-19 35t-26.5 29.5t-38.5 28.5t-44.5 27t-55 31t-60 34q-13 7 -38 22q-40 23 -60 35t-56 35t-56 40t-48 42t-43 49
t-31 54t-22.5 64t-6.5 71q0 190 136.5 305.5t338.5 115.5q125 0 238 -55.5t188 -154.5l-176 -154q-97 145 -266 145q-93 0 -151 -51t-56 -123q2 -42 30.5 -78t57 -55.5t113.5 -70.5q9 -6 14 -9q29 -17 82 -46t83 -47t72 -46t66 -53.5t48.5 -60t35 -76.5t10.5 -91
q0 -112 -39 -201t-107.5 -145t-157 -85t-191.5 -29z" />
    <glyph glyph-name="sacute" unicode="&#x15b;" horiz-adv-x="874" 
d="M369 1139l243 295l248 2l-264 -297h-227zM393 -16q-111 0 -212.5 47.5t-153.5 124.5l147 145q43 -57 100.5 -89t118.5 -32q67 0 112.5 26.5t45.5 72.5q0 25 -21.5 46.5t-44.5 33.5t-86 41q-20 9 -30 14q-116 51 -182 121.5t-66 173.5q0 135 100.5 220t245.5 85
q98 0 191 -35.5t157 -106.5l-149 -151q-41 52 -95.5 76t-105.5 24q-53 0 -85 -25.5t-32 -68.5q0 -39 42 -72t122 -71q120 -59 166 -95q99 -78 100 -184q1 -154 -103.5 -237.5t-281.5 -83.5z" />
    <glyph glyph-name="Scircumflex" unicode="&#x15c;" horiz-adv-x="1155" 
d="M375 1587l246 273h217l172 -273h-211l-86 139h-6l-121 -139h-211zM547 -16q-158 0 -289 66.5t-201 178.5l179 164q43 -88 123 -137t171 -49q112 0 185 59.5t73 145.5q0 22 -5.5 40t-19 35t-26.5 29.5t-38.5 28.5t-44.5 27t-55 31t-60 34q-13 7 -38 22q-40 23 -60 35
t-56 35t-56 40t-48 42t-43 49t-31 54t-22.5 64t-6.5 71q0 190 136.5 305.5t338.5 115.5q125 0 238 -55.5t188 -154.5l-176 -154q-97 145 -266 145q-93 0 -151 -51t-56 -123q2 -42 30.5 -78t57 -55.5t113.5 -70.5q9 -6 14 -9q29 -17 82 -46t83 -47t72 -46t66 -53.5t48.5 -60
t35 -76.5t10.5 -91q0 -112 -39 -201t-107.5 -145t-157 -85t-191.5 -29z" />
    <glyph glyph-name="scircumflex" unicode="&#x15d;" horiz-adv-x="874" 
d="M201 1135l241 301h213l179 -301h-218l-73 155h-4l-113 -155h-225zM393 -16q-111 0 -212.5 47.5t-153.5 124.5l147 145q43 -57 100.5 -89t118.5 -32q67 0 112.5 26.5t45.5 72.5q0 25 -21.5 46.5t-44.5 33.5t-86 41q-20 9 -30 14q-116 51 -182 121.5t-66 173.5
q0 135 100.5 220t245.5 85q98 0 191 -35.5t157 -106.5l-149 -151q-41 52 -95.5 76t-105.5 24q-53 0 -85 -25.5t-32 -68.5q0 -39 42 -72t122 -71q120 -59 166 -95q99 -78 100 -184q1 -154 -103.5 -237.5t-281.5 -83.5z" />
    <glyph glyph-name="Scedilla" unicode="&#x15e;" horiz-adv-x="1155" 
d="M645 864q29 -17 82 -46t83 -47t72 -46t66 -53.5t48.5 -60t35 -76.5t10.5 -91q0 -112 -39 -201t-107.5 -145t-157 -85t-191.5 -29h-2l-31 -47l2 -3q154 -6 154 -135q0 -91 -69 -140.5t-185 -49.5q-50 0 -99 12l7 113q30 -15 73 -15q53 0 87 20t34 58q0 56 -141 56l4 73
l39 70q-118 23 -212.5 84t-150.5 149l179 164q43 -88 123 -137t171 -49q112 0 185 59.5t73 145.5q0 22 -5.5 40t-19 35t-26.5 29.5t-38.5 28.5t-44.5 27t-55 31t-60 34q-13 7 -38 22q-40 23 -60 35t-56 35t-56 40t-48 42t-43 49t-31 54t-22.5 64t-6.5 71q0 190 136.5 305.5
t338.5 115.5q125 0 238 -55.5t188 -154.5l-176 -154q-97 145 -266 145q-93 0 -151 -51t-56 -123q2 -42 30.5 -78t57 -55.5t113.5 -70.5q9 -6 14 -9z" />
    <glyph glyph-name="scedilla" unicode="&#x15f;" horiz-adv-x="874" 
d="M512 584q120 -59 166 -95q99 -78 100 -184q1 -154 -103.5 -237.5t-281.5 -83.5h-6l-31 -47l2 -3q154 -6 154 -135q0 -91 -69 -140.5t-185 -49.5q-48 0 -98 12l6 113q30 -15 74 -15q52 0 86 20t34 58q0 56 -141 56l4 73l43 74q-165 45 -239 156l147 145q43 -57 100.5 -89
t118.5 -32q67 0 112.5 26.5t45.5 72.5q0 25 -21.5 46.5t-44.5 33.5t-86 41q-20 9 -30 14q-116 51 -182 121.5t-66 173.5q0 135 100.5 220t245.5 85q98 0 191 -35.5t157 -106.5l-149 -151q-41 52 -95.5 76t-105.5 24q-53 0 -85 -25.5t-32 -68.5q0 -39 42 -72t122 -71z" />
    <glyph glyph-name="Scaron" unicode="&#x160;" horiz-adv-x="1155" 
d="M580 1587l-172 273h210l87 -140h6l120 140h211l-245 -273h-217zM547 -16q-158 0 -289 66.5t-201 178.5l179 164q43 -88 123 -137t171 -49q112 0 185 59.5t73 145.5q0 22 -5.5 40t-19 35t-26.5 29.5t-38.5 28.5t-44.5 27t-55 31t-60 34q-13 7 -38 22q-40 23 -60 35t-56 35
t-56 40t-48 42t-43 49t-31 54t-22.5 64t-6.5 71q0 190 136.5 305.5t338.5 115.5q125 0 238 -55.5t188 -154.5l-176 -154q-97 145 -266 145q-93 0 -151 -51t-56 -123q2 -42 30.5 -78t57 -55.5t113.5 -70.5q9 -6 14 -9q29 -17 82 -46t83 -47t72 -46t66 -53.5t48.5 -60
t35 -76.5t10.5 -91q0 -112 -39 -201t-107.5 -145t-157 -85t-191.5 -29z" />
    <glyph glyph-name="scaron" unicode="&#x161;" horiz-adv-x="874" 
d="M406 1130l-162 297h209l77 -153h7l116 153h211l-241 -297h-217zM393 -16q-111 0 -212.5 47.5t-153.5 124.5l147 145q43 -57 100.5 -89t118.5 -32q67 0 112.5 26.5t45.5 72.5q0 25 -21.5 46.5t-44.5 33.5t-86 41q-20 9 -30 14q-116 51 -182 121.5t-66 173.5
q0 135 100.5 220t245.5 85q98 0 191 -35.5t157 -106.5l-149 -151q-41 52 -95.5 76t-105.5 24q-53 0 -85 -25.5t-32 -68.5q0 -39 42 -72t122 -71q120 -59 166 -95q99 -78 100 -184q1 -154 -103.5 -237.5t-281.5 -83.5z" />
    <glyph glyph-name="uni0162" unicode="&#x162;" horiz-adv-x="1118" 
d="M184 1454h983l-26 -217h-371l-152 -1237h-98l-41 -63l2 -3q154 -6 154 -135q0 -91 -69 -140.5t-185 -49.5q-49 0 -98 12l6 113q30 -15 73 -15q53 0 87 20t34 58q0 56 -141 56l4 73l43 74h-12l151 1237h-368z" />
    <glyph glyph-name="uni0163" unicode="&#x163;" horiz-adv-x="692" 
d="M418 809l-62 -492q-14 -118 68 -118q58 0 143 51l31 -197q-113 -69 -250 -69l-31 -47l2 -3q154 -6 154 -135q0 -91 -69 -140.5t-185 -49.5q-49 0 -98 12l6 113q30 -15 74 -15q53 0 87 20t34 58q0 56 -142 56l4 73l47 82q-127 62 -104 268l66 533h-107l23 190h106l41 312
l227 45l-43 -357h244l-22 -190h-244z" />
    <glyph glyph-name="Tcaron" unicode="&#x164;" horiz-adv-x="1118" 
d="M580 1587l-172 273h210l87 -140h6l120 140h211l-245 -273h-217zM377 0l151 1237h-368l24 217h983l-26 -217h-371l-152 -1237h-241z" />
    <glyph glyph-name="tcaron" unicode="&#x165;" horiz-adv-x="720" 
d="M578 1194l106 405h229l-165 -405h-170zM346 -16q-125 0 -180 78.5t-39 213.5l66 533h-107l23 190h106l41 312l227 45l-43 -357h244l-22 -190h-244l-62 -492q-14 -118 68 -118q58 0 143 51l31 -197q-54 -33 -122 -51t-130 -18z" />
    <glyph glyph-name="Tbar" unicode="&#x166;" horiz-adv-x="1118" 
d="M1141 1237h-371l-55 -459h215l-23 -182h-215l-74 -596h-241l74 596h-213l22 182h213l55 459h-368l24 217h983z" />
    <glyph glyph-name="tbar" unicode="&#x167;" horiz-adv-x="692" 
d="M662 809h-244l-23 -188h203l-20 -154h-203l-19 -150q-14 -118 68 -118q58 0 143 51l31 -197q-54 -33 -122 -51t-130 -18q-125 0 -180 78.5t-39 213.5l23 191h-95l21 154h94l23 188h-107l23 190h106l41 312l227 45l-43 -357h244z" />
    <glyph glyph-name="Utilde" unicode="&#x168;" horiz-adv-x="1392" 
d="M1006 1585q-75 0 -162 66q-59 45 -94 45q-33 0 -64 -30t-53 -81l-139 72q98 201 237 201q24 0 44 -3.5t38.5 -12t27 -13t27 -18t21.5 -15.5q2 -2 13.5 -10t14.5 -10t12.5 -8t14.5 -8t13 -5.5t14.5 -4.5t13.5 -1q33 0 65 29.5t54 79.5l139 -54q-42 -101 -104.5 -160
t-132.5 -59zM639 -16q-177 0 -289.5 81t-153 222.5t-16.5 333.5l103 833h241l-102 -831q-13 -84 -5 -159t31.5 -130.5t75 -88t125.5 -32.5q145 0 234 92t114 297l105 852h241l-104 -852q-38 -317 -186 -467.5t-414 -150.5z" />
    <glyph glyph-name="utilde" unicode="&#x169;" horiz-adv-x="1116" 
d="M803 1135q-21 0 -40 4t-37.5 13t-28.5 14.5t-28.5 18.5t-21.5 15q-59 45 -94 45q-75 0 -123 -110l-139 71q43 102 104.5 160.5t136.5 58.5q23 0 42 -3.5t35.5 -11.5t26 -13.5t25.5 -17t21 -15.5q2 -2 13.5 -10t14.5 -10t12.5 -8t14.5 -8t13 -5.5t14.5 -4.5t13.5 -1
q36 0 68.5 29t54.5 79l139 -53q-41 -113 -103 -175t-134 -62zM381 -16q-159 0 -226 96t-38 305l86 614h223l-80 -593q-17 -119 9 -168.5t96 -49.5q40 0 89.5 29t95.5 78.5t82 123.5t46 154l51 426h225l-122 -999h-226l23 178h-4q-128 -194 -330 -194z" />
    <glyph glyph-name="Umacron" unicode="&#x16a;" horiz-adv-x="1392" 
d="M569 1632l23 178h561l-23 -178h-561zM639 -16q-177 0 -289.5 81t-153 222.5t-16.5 333.5l103 833h241l-102 -831q-13 -84 -5 -159t31.5 -130.5t75 -88t125.5 -32.5q145 0 234 92t114 297l105 852h241l-104 -852q-38 -317 -186 -467.5t-414 -150.5z" />
    <glyph glyph-name="umacron" unicode="&#x16b;" horiz-adv-x="1116" 
d="M369 1198l22 188h561l-22 -188h-561zM381 -16q-159 0 -226 96t-38 305l86 614h223l-80 -593q-17 -119 9 -168.5t96 -49.5q40 0 89.5 29t95.5 78.5t82 123.5t46 154l51 426h225l-122 -999h-226l23 178h-4q-128 -194 -330 -194z" />
    <glyph glyph-name="Ubreve" unicode="&#x16c;" horiz-adv-x="1392" 
d="M848 1573q-141 0 -210.5 75.5t-57.5 209.5h174q-7 -46 18 -79.5t82 -33.5q54 0 96.5 35t55.5 78h174q-27 -129 -115.5 -207t-216.5 -78zM639 -16q-177 0 -289.5 81t-153 222.5t-16.5 333.5l103 833h241l-102 -831q-13 -84 -5 -159t31.5 -130.5t75 -88t125.5 -32.5
q145 0 234 92t114 297l105 852h241l-104 -852q-38 -317 -186 -467.5t-414 -150.5z" />
    <glyph glyph-name="ubreve" unicode="&#x16d;" horiz-adv-x="1116" 
d="M647 1124q-141 0 -210.5 78.5t-57.5 224.5h174q-6 -59 18 -95t82 -36q56 0 97.5 38t54.5 93h174q-26 -141 -114 -222t-218 -81zM381 -16q-159 0 -226 96t-38 305l86 614h223l-80 -593q-17 -119 9 -168.5t96 -49.5q40 0 89.5 29t95.5 78.5t82 123.5t46 154l51 426h225
l-122 -999h-226l23 178h-4q-128 -194 -330 -194z" />
    <glyph glyph-name="Uring" unicode="&#x16e;" horiz-adv-x="1392" 
d="M860 1561q-90 0 -150.5 60.5t-60.5 150.5q0 92 62.5 153.5t156.5 61.5q91 0 151 -60t60 -149q0 -94 -62.5 -155.5t-156.5 -61.5zM864 1696q34 0 57 23t23 57q0 32 -23 54.5t-55 22.5q-34 0 -57 -23.5t-23 -55.5q0 -34 22 -56t56 -22zM639 -16q-177 0 -289.5 81
t-153 222.5t-16.5 333.5l103 833h241l-102 -831q-13 -84 -5 -159t31.5 -130.5t75 -88t125.5 -32.5q145 0 234 92t114 297l105 852h241l-104 -852q-38 -317 -186 -467.5t-414 -150.5z" />
    <glyph glyph-name="uring" unicode="&#x16f;" horiz-adv-x="1116" 
d="M662 1106q-90 0 -150.5 60.5t-60.5 150.5q0 92 62.5 153.5t156.5 61.5q91 0 151 -60t60 -149q0 -94 -62.5 -155.5t-156.5 -61.5zM666 1241q34 0 56.5 23t22.5 57q0 32 -22.5 55t-54.5 23q-33 0 -56.5 -23.5t-23.5 -56.5q0 -34 22 -56t56 -22zM381 -16q-159 0 -226 96
t-38 305l86 614h223l-80 -593q-17 -119 9 -168.5t96 -49.5q40 0 89.5 29t95.5 78.5t82 123.5t46 154l51 426h225l-122 -999h-226l23 178h-4q-128 -194 -330 -194z" />
    <glyph glyph-name="Uhungarumlaut" unicode="&#x170;" horiz-adv-x="1392" 
d="M535 1581l243 295l238 2l-264 -297h-217zM911 1581l242 295l238 2l-265 -297h-215zM639 -16q-177 0 -289.5 81t-153 222.5t-16.5 333.5l103 833h241l-102 -831q-13 -84 -5 -159t31.5 -130.5t75 -88t125.5 -32.5q145 0 234 92t114 297l105 852h241l-104 -852
q-38 -317 -186 -467.5t-414 -150.5z" />
    <glyph glyph-name="uhungarumlaut" unicode="&#x171;" horiz-adv-x="1116" 
d="M348 1139l244 295l237 2l-264 -297h-217zM725 1139l242 295l237 2l-264 -297h-215zM381 -16q-159 0 -226 96t-38 305l86 614h223l-80 -593q-17 -119 9 -168.5t96 -49.5q40 0 89.5 29t95.5 78.5t82 123.5t46 154l51 426h225l-122 -999h-226l23 178h-4q-128 -194 -330 -194
z" />
    <glyph glyph-name="Uogonek" unicode="&#x172;" horiz-adv-x="1392" 
d="M1102 1454h241l-104 -852q-31 -258 -134 -405t-282 -193q-83 -27 -138.5 -78t-55.5 -104q0 -29 15.5 -45.5t39.5 -16.5q43 0 84 17l2 -139q-50 -23 -139 -23q-94 0 -141.5 39.5t-47.5 114.5q0 57 31 113.5t82 99.5l-2 8q-219 27 -312.5 195t-60.5 436l103 833h241
l-102 -831q-13 -84 -5 -159t31.5 -130.5t75 -88t125.5 -32.5q145 0 234 92t114 297z" />
    <glyph glyph-name="uogonek" unicode="&#x173;" horiz-adv-x="1116" 
d="M815 999h225l-122 -999h-7q-83 -17 -136.5 -69t-53.5 -109q0 -29 15.5 -45.5t41.5 -16.5q51 0 82 17l4 -139q-50 -23 -141 -23q-93 0 -140.5 40t-47.5 114q0 70 45 137t114 110l21 162h-4q-128 -194 -330 -194q-159 0 -226 96t-38 305l86 614h223l-80 -593
q-17 -119 9 -168.5t96 -49.5q40 0 89.5 29t95.5 78.5t82 123.5t46 154z" />
    <glyph glyph-name="Wcircumflex" unicode="&#x174;" horiz-adv-x="1943" 
d="M793 1587l245 273h217l172 -273h-210l-87 139h-6l-120 -139h-211zM420 0l-234 1454h252l150 -1057h6l358 1057h269l114 -1026h6l392 1026h262l-592 -1454h-240l-127 1061h-4l-373 -1061h-239z" />
    <glyph glyph-name="wcircumflex" unicode="&#x175;" horiz-adv-x="1605" 
d="M580 1135l241 301h213l178 -301h-217l-73 155h-4l-113 -155h-225zM365 -16q-303 0 -246 426l80 589h223l-74 -573q-16 -130 9.5 -184t88.5 -54q25 0 53 10t62.5 37t64 67.5t54 110t35.5 156.5l53 430h225l-73 -593q-14 -119 9 -168.5t83 -49.5q36 0 77 24t82 70t76 125
t53 179q35 187 3 413h229q19 -101 18 -231t-24 -242q-28 -140 -84 -247t-129.5 -170t-155 -94t-170.5 -31q-117 0 -191.5 57t-90.5 139h-5q-47 -87 -150 -141.5t-185 -54.5z" />
    <glyph glyph-name="Ycircumflex" unicode="&#x176;" horiz-adv-x="1189" 
d="M403 1587l246 273h217l172 -273h-211l-86 139h-6l-121 -139h-211zM410 0l79 643l-339 811h266l217 -582h6l360 582h281l-547 -811l-82 -643h-241z" />
    <glyph glyph-name="ycircumflex" unicode="&#x177;" horiz-adv-x="1116" 
d="M659 1290l-112 -155h-225l241 301h213l178 -301h-217l-73 155h-5zM821 999h221l-106 -874q-15 -129 -54 -227.5t-89.5 -157.5t-119 -96t-136 -50.5t-146.5 -13.5q-199 0 -346 96l74 195q138 -88 272 -88q67 0 116 14.5t93.5 52t73 110t41.5 181.5l4 35l-4 2
q-132 -194 -338 -194q-159 0 -226 96t-38 305l84 614h223l-78 -593q-15 -120 10 -168t94 -50q61 0 130.5 52t125 148t68.5 206z" />
    <glyph glyph-name="Ydieresis" unicode="&#x178;" horiz-adv-x="1189" 
d="M543 1587q-63 0 -105.5 42t-42.5 104q0 66 44 108.5t110 42.5q62 0 103.5 -41t41.5 -104q0 -65 -43.5 -108.5t-107.5 -43.5zM932 1587q-64 0 -106 42t-42 104q0 66 44 108.5t110 42.5q62 0 103.5 -41t41.5 -104q0 -65 -43.5 -108.5t-107.5 -43.5zM410 0l79 643l-339 811
h266l217 -582h6l360 582h281l-547 -811l-82 -643h-241z" />
    <glyph glyph-name="Zacute" unicode="&#x179;" horiz-adv-x="1208" 
d="M539 1587l235 271l254 2l-266 -273h-223zM61 0l23 190l772 1041l-2 6h-616l26 217h930l-20 -186l-787 -1043l4 -8h653l-26 -217h-957z" />
    <glyph glyph-name="zacute" unicode="&#x17a;" horiz-adv-x="954" 
d="M360 1139l244 295l248 2l-264 -297h-228zM768 -59q-72 22 -156 35t-200 17.5t-179.5 5.5t-207.5 1l18 158l530 649v2h-417l22 190h727l-16 -155l-539 -649v-5q293 -7 479 -65z" />
    <glyph glyph-name="Zdotaccent" unicode="&#x17b;" horiz-adv-x="1208" 
d="M748 1587q-63 0 -104.5 42t-41.5 104q0 66 43.5 108.5t108.5 42.5q63 0 105 -41t42 -104q0 -65 -43.5 -108.5t-109.5 -43.5zM61 0l23 190l772 1041l-2 6h-616l26 217h930l-20 -186l-787 -1043l4 -8h653l-26 -217h-957z" />
    <glyph glyph-name="zdotaccent" unicode="&#x17c;" horiz-adv-x="954" 
d="M578 1151q-63 0 -104.5 41.5t-41.5 103.5q0 66 43.5 109t108.5 43q63 0 105 -41t42 -104q0 -65 -43.5 -108.5t-109.5 -43.5zM768 -59q-72 22 -156 35t-200 17.5t-179.5 5.5t-207.5 1l18 158l530 649v2h-417l22 190h727l-16 -155l-539 -649v-5q293 -7 479 -65z" />
    <glyph glyph-name="Zcaron" unicode="&#x17d;" horiz-adv-x="1208" 
d="M623 1587l-172 273h211l86 -140h6l120 140h211l-245 -273h-217zM61 0l23 190l772 1041l-2 6h-616l26 217h930l-20 -186l-787 -1043l4 -8h653l-26 -217h-957z" />
    <glyph glyph-name="zcaron" unicode="&#x17e;" horiz-adv-x="954" 
d="M442 1130l-161 297h208l78 -153h6l117 153h211l-242 -297h-217zM768 -59q-72 22 -156 35t-200 17.5t-179.5 5.5t-207.5 1l18 158l530 649v2h-417l22 190h727l-16 -155l-539 -649v-5q293 -7 479 -65z" />
    <glyph glyph-name="longs" unicode="&#x17f;" horiz-adv-x="626" 
d="M94 0l99 809h-95l23 190h96l25 207q20 158 96.5 238t200.5 80q132 0 227 -68l-59 -186q-69 49 -129 49q-47 0 -76.5 -33t-40.5 -123l-144 -1163h-223z" />
    <glyph glyph-name="uni018F" unicode="&#x18f;" horiz-adv-x="1472" 
d="M827 1470q262 0 416 -162t154 -448q0 -140 -31.5 -270t-93.5 -240t-148.5 -192t-204 -128t-251.5 -46q-260 0 -415 159.5t-155 434.5q0 73 25 200h1018q4 50 4 76q0 192 -93.5 291.5t-250.5 99.5q-187 0 -355 -133l-141 180q115 88 240 133t282 45zM686 209q138 0 246 99
t166 259h-758q4 -172 97 -265t249 -93z" />
    <glyph glyph-name="florin" unicode="&#x192;" horiz-adv-x="1019" 
d="M117 -291q-106 0 -173.5 27t-93.5 63l99 152q59 -37 129 -37q77 0 122.5 44t69.5 148l156 662h-147l51 193h149l53 229q81 334 351 334q103 0 170.5 -28t97.5 -62l-100 -154q-62 39 -131 39q-130 0 -172 -193l-37 -165h254l-52 -193h-256l-172 -725q-40 -171 -130 -252.5
t-238 -81.5z" />
    <glyph glyph-name="uni019D" unicode="&#x19d;" horiz-adv-x="1476" 
d="M29 -416q-69 0 -142 15l33 194q52 -10 78 -10q29 0 50 10.5t33.5 26t22 47t13.5 58t10 75.5l178 1454h244l473 -1048l6 4l137 1044h242l-188 -1454h-246l-471 1032h-6l-136 -1093q-13 -104 -41 -174.5t-71.5 -109.5t-96 -55t-122.5 -16z" />
    <glyph glyph-name="Ohorn" unicode="&#x1a0;" horiz-adv-x="1658" 
d="M1509 1585h213l-24 -186q-39 -292 -236 -348q23 -94 23 -191q0 -140 -33 -270t-99 -240t-156.5 -192t-213 -128t-262.5 -46q-266 0 -425 162.5t-159 449.5q0 172 55.5 330.5t153 279t242 192.5t311.5 72q173 0 305.5 -72.5t204.5 -207.5q37 22 53 79.5t29 166.5zM739 209
q106 0 199.5 54t157 143.5t100.5 206.5t37 241q0 194 -95.5 293.5t-265.5 99.5q-104 0 -195.5 -55.5t-153.5 -145.5t-98 -206.5t-36 -237.5q0 -192 93 -292.5t257 -100.5z" />
    <glyph glyph-name="ohorn" unicode="&#x1a1;" horiz-adv-x="1302" 
d="M1133 1157h213l-25 -186q-23 -167 -95.5 -256t-187.5 -101v-12q0 -130 -35.5 -242t-101.5 -196t-168 -132t-229 -48q-194 0 -307 111.5t-113 310.5q0 163 62.5 300t185 222.5t282.5 85.5q152 0 257 -67t145 -191q20 5 35 22t24 36.5t17 56.5t12 62.5t10 74.5zM510 188
q133 0 217 114t84 280q0 53 -14 94.5t-35.5 66t-50.5 40t-56 21t-55 5.5q-85 0 -153 -55.5t-103 -141t-35 -180.5q0 -107 54 -175.5t147 -68.5z" />
    <glyph glyph-name="Uhorn" unicode="&#x1af;" horiz-adv-x="1568" 
d="M1481 1585h213l-25 -186q-24 -180 -107 -269.5t-214 -89.5q-19 0 -54 7l-55 -445q-38 -317 -186 -467.5t-414 -150.5q-177 0 -289.5 81t-153 222.5t-16.5 333.5l103 833h241l-102 -831q-13 -84 -5 -159t31.5 -130.5t75 -88t125.5 -32.5q145 0 234 92t114 297l105 852h241
l-32 -270q10 -4 28 -4q22 0 39 8t29 28t20 38t15 54t10.5 59t9.5 69z" />
    <glyph glyph-name="uhorn" unicode="&#x1b0;" horiz-adv-x="1327" 
d="M1169 1157h213l-24 -186q-24 -180 -107.5 -269.5t-214.5 -89.5q-27 0 -43 4l-75 -616h-226l23 178h-4q-128 -194 -330 -194q-159 0 -226 96t-38 305l86 614h223l-80 -593q-17 -119 9 -168.5t96 -49.5q40 0 89.5 29t95.5 78.5t82 123.5t46 154l51 426h225l-30 -245
q6 -2 18 -2q22 0 39 8t29 28t20 38t15 54t10.5 59t9.5 69z" />
    <glyph glyph-name="uni01CD" unicode="&#x1cd;" horiz-adv-x="1325" 
d="M694 1587l-172 273h211l86 -140h6l121 140h211l-246 -273h-217zM-8 0l663 1454h252l307 -1454h-251l-60 315h-524l-137 -315h-250zM469 526h393l-119 625h-4z" />
    <glyph glyph-name="uni01CE" unicode="&#x1ce;" horiz-adv-x="1150" 
d="M559 1130l-162 297h209l78 -153h6l117 153h211l-242 -297h-217zM424 -16q-170 0 -257 113.5t-87 291.5q0 118 35.5 230.5t97.5 200t155.5 141t202.5 53.5q170 0 263 -96l6 2l10 77h223l-123 -997h-223l23 182l-7 2q-68 -98 -153 -149t-166 -51zM467 182q110 0 213 139
t131 359l4 37q-44 42 -106 67t-121 25q-84 0 -150 -64.5t-98.5 -160t-32.5 -199.5q0 -94 41.5 -148.5t118.5 -54.5z" />
    <glyph glyph-name="uni01CF" unicode="&#x1cf;" horiz-adv-x="636" 
d="M338 1587l-172 273h211l86 -140h6l121 140h211l-246 -273h-217zM135 0l178 1454h244l-178 -1454h-244z" />
    <glyph glyph-name="uni01D0" unicode="&#x1d0;" horiz-adv-x="528" 
d="M233 1130l-161 297h209l77 -153h7l116 153h211l-241 -297h-218zM90 0l123 999h225l-123 -999h-225z" />
    <glyph glyph-name="uni01D1" unicode="&#x1d1;" horiz-adv-x="1566" 
d="M852 1587l-172 273h211l86 -140h6l121 140h211l-246 -273h-217zM721 -16q-266 0 -425 162.5t-159 449.5q0 172 55.5 330.5t153 279t242 192.5t311.5 72q265 0 425.5 -162.5t160.5 -447.5q0 -140 -33 -270t-99 -240t-156.5 -192t-213 -128t-262.5 -46zM739 209
q106 0 199.5 54t157 143.5t100.5 206.5t37 241q0 194 -95.5 293.5t-265.5 99.5q-104 0 -195.5 -55.5t-153.5 -145.5t-98 -206.5t-36 -237.5q0 -192 93 -292.5t257 -100.5z" />
    <glyph glyph-name="uni01D2" unicode="&#x1d2;" horiz-adv-x="1122" 
d="M537 1130l-162 297h209l78 -153h6l116 153h211l-241 -297h-217zM504 -16q-194 0 -307 111.5t-113 310.5q0 163 62.5 300t185 222.5t282.5 85.5q194 0 309 -108.5t115 -303.5q0 -130 -35.5 -242t-101.5 -196t-168 -132t-229 -48zM510 188q133 0 217 114t84 280
q0 53 -14 94.5t-35.5 66t-50.5 40t-56 21t-55 5.5q-85 0 -153 -55.5t-103 -141t-35 -180.5q0 -107 54 -175.5t147 -68.5z" />
    <glyph glyph-name="uni01D3" unicode="&#x1d3;" horiz-adv-x="1392" 
d="M729 1587l-172 273h211l86 -140h6l121 140h211l-246 -273h-217zM639 -16q-177 0 -289.5 81t-153 222.5t-16.5 333.5l103 833h241l-102 -831q-13 -84 -5 -159t31.5 -130.5t75 -88t125.5 -32.5q145 0 234 92t114 297l105 852h241l-104 -852q-38 -317 -186 -467.5
t-414 -150.5z" />
    <glyph glyph-name="uni01D4" unicode="&#x1d4;" horiz-adv-x="1116" 
d="M526 1130l-161 297h208l78 -153h6l117 153h211l-242 -297h-217zM381 -16q-159 0 -226 96t-38 305l86 614h223l-80 -593q-17 -119 9 -168.5t96 -49.5q40 0 89.5 29t95.5 78.5t82 123.5t46 154l51 426h225l-122 -999h-226l23 178h-4q-128 -194 -330 -194z" />
    <glyph glyph-name="uni01D5" unicode="&#x1d5;" horiz-adv-x="1392" 
d="M588 1929l20 156h561l-20 -156h-561zM659 1587q-57 0 -94 36t-37 89q0 57 39.5 94t98.5 37q57 0 95 -36t38 -91t-40 -92t-100 -37zM1026 1587q-57 0 -94 36t-37 89q0 57 39 94t98 37q57 0 95 -36t38 -91q0 -56 -39.5 -92.5t-99.5 -36.5zM639 -16q-177 0 -289.5 81
t-153 222.5t-16.5 333.5l103 833h241l-102 -831q-13 -84 -5 -159t31.5 -130.5t75 -88t125.5 -32.5q145 0 234 92t114 297l105 852h241l-104 -852q-38 -317 -186 -467.5t-414 -150.5z" />
    <glyph glyph-name="uni01D6" unicode="&#x1d6;" horiz-adv-x="1116" 
d="M395 1552l23 170h561l-23 -170h-561zM455 1157q-61 0 -102.5 40.5t-41.5 100.5q0 64 42.5 107t107.5 43q60 0 100.5 -41t40.5 -102q0 -63 -42 -105.5t-105 -42.5zM836 1157q-63 0 -103.5 40.5t-40.5 100.5q0 64 43 107t107 43q60 0 100.5 -41t40.5 -102q0 -63 -42 -105.5
t-105 -42.5zM381 -16q-159 0 -226 96t-38 305l86 614h223l-80 -593q-17 -119 9 -168.5t96 -49.5q40 0 89.5 29t95.5 78.5t82 123.5t46 154l51 426h225l-122 -999h-226l23 178h-4q-128 -194 -330 -194z" />
    <glyph glyph-name="uni01D7" unicode="&#x1d7;" horiz-adv-x="1392" 
d="M770 1876l221 264l246 2l-301 -266h-166zM659 1587q-57 0 -94 36t-37 89q0 57 39.5 94t98.5 37q57 0 95 -36t38 -91t-40 -92t-100 -37zM1026 1587q-57 0 -94 36t-37 89q0 57 39 94t98 37q57 0 95 -36t38 -91q0 -56 -39.5 -92.5t-99.5 -36.5zM639 -16q-177 0 -289.5 81
t-153 222.5t-16.5 333.5l103 833h241l-102 -831q-13 -84 -5 -159t31.5 -130.5t75 -88t125.5 -32.5q145 0 234 92t114 297l105 852h241l-104 -852q-38 -317 -186 -467.5t-414 -150.5z" />
    <glyph glyph-name="uni01D8" unicode="&#x1d8;" horiz-adv-x="1116" 
d="M578 1479l235 297h246l-316 -297h-165zM455 1157q-61 0 -102.5 40.5t-41.5 100.5q0 64 42.5 107t107.5 43q60 0 100.5 -41t40.5 -102q0 -63 -42 -105.5t-105 -42.5zM836 1157q-63 0 -103.5 40.5t-40.5 100.5q0 64 43 107t107 43q60 0 100.5 -41t40.5 -102
q0 -63 -42 -105.5t-105 -42.5zM381 -16q-159 0 -226 96t-38 305l86 614h223l-80 -593q-17 -119 9 -168.5t96 -49.5q40 0 89.5 29t95.5 78.5t82 123.5t46 154l51 426h225l-122 -999h-226l23 178h-4q-128 -194 -330 -194z" />
    <glyph glyph-name="uni01D9" unicode="&#x1d9;" horiz-adv-x="1392" 
d="M741 1884l-172 246h211l86 -125h6l121 125h211l-246 -246h-217zM659 1587q-57 0 -94 36t-37 89q0 57 39.5 94t98.5 37q57 0 95 -36t38 -91t-40 -92t-100 -37zM1026 1587q-57 0 -94 36t-37 89q0 57 39 94t98 37q57 0 95 -36t38 -91q0 -56 -39.5 -92.5t-99.5 -36.5z
M639 -16q-177 0 -289.5 81t-153 222.5t-16.5 333.5l103 833h241l-102 -831q-13 -84 -5 -159t31.5 -130.5t75 -88t125.5 -32.5q145 0 234 92t114 297l105 852h241l-104 -852q-38 -317 -186 -467.5t-414 -150.5z" />
    <glyph glyph-name="uni01DA" unicode="&#x1da;" horiz-adv-x="1116" 
d="M567 1477l-161 297h208l78 -154h6l117 154h211l-242 -297h-217zM455 1157q-61 0 -102.5 40.5t-41.5 100.5q0 64 42.5 107t107.5 43q60 0 100.5 -41t40.5 -102q0 -63 -42 -105.5t-105 -42.5zM836 1157q-63 0 -103.5 40.5t-40.5 100.5q0 64 43 107t107 43q60 0 100.5 -41
t40.5 -102q0 -63 -42 -105.5t-105 -42.5zM381 -16q-159 0 -226 96t-38 305l86 614h223l-80 -593q-17 -119 9 -168.5t96 -49.5q40 0 89.5 29t95.5 78.5t82 123.5t46 154l51 426h225l-122 -999h-226l23 178h-4q-128 -194 -330 -194z" />
    <glyph glyph-name="uni01DB" unicode="&#x1db;" horiz-adv-x="1392" 
d="M799 1876l-193 260h228l118 -260h-153zM659 1587q-57 0 -94 36t-37 89q0 57 39.5 94t98.5 37q57 0 95 -36t38 -91t-40 -92t-100 -37zM1026 1587q-57 0 -94 36t-37 89q0 57 39 94t98 37q57 0 95 -36t38 -91q0 -56 -39.5 -92.5t-99.5 -36.5zM639 -16q-177 0 -289.5 81
t-153 222.5t-16.5 333.5l103 833h241l-102 -831q-13 -84 -5 -159t31.5 -130.5t75 -88t125.5 -32.5q145 0 234 92t114 297l105 852h241l-104 -852q-38 -317 -186 -467.5t-414 -150.5z" />
    <glyph glyph-name="uni01DC" unicode="&#x1dc;" horiz-adv-x="1116" 
d="M575 1479l-217 297h246l137 -297h-166zM455 1157q-61 0 -102.5 40.5t-41.5 100.5q0 64 42.5 107t107.5 43q60 0 100.5 -41t40.5 -102q0 -63 -42 -105.5t-105 -42.5zM836 1157q-63 0 -103.5 40.5t-40.5 100.5q0 64 43 107t107 43q60 0 100.5 -41t40.5 -102
q0 -63 -42 -105.5t-105 -42.5zM381 -16q-159 0 -226 96t-38 305l86 614h223l-80 -593q-17 -119 9 -168.5t96 -49.5q40 0 89.5 29t95.5 78.5t82 123.5t46 154l51 426h225l-122 -999h-226l23 178h-4q-128 -194 -330 -194z" />
    <glyph glyph-name="Gcaron" unicode="&#x1e6;" horiz-adv-x="1447" 
d="M807 1587l-172 273h211l86 -140h6l121 140h211l-246 -273h-217zM729 -16q-102 0 -191.5 24t-163 73.5t-126.5 121t-82 171t-29 218.5q0 238 95 438.5t267 320t384 119.5q331 0 497 -249l-200 -148q-108 168 -308 168q-136 0 -247 -87t-172.5 -234t-61.5 -322
q0 -186 91 -289.5t257 -103.5q155 0 293 98l35 254h-305l29 217h544l-71 -610q-100 -83 -243 -131.5t-292 -48.5z" />
    <glyph glyph-name="gcaron" unicode="&#x1e7;" horiz-adv-x="1159" 
d="M557 1130l-162 297h209l78 -153h6l117 153h211l-242 -297h-217zM406 -420q-191 0 -338 96l73 195q134 -86 275 -86q71 0 121 14t95 51.5t73.5 109.5t42.5 181l10 84l-4 2q-69 -103 -155.5 -157t-172.5 -54q-115 0 -193.5 56t-113.5 145t-35 205q0 85 22 170t64.5 160.5
t100.5 134.5t136.5 93t165.5 34q170 0 267 -94l4 2l10 77h223l-106 -874q-16 -130 -54 -227.5t-89 -157.5t-121 -96.5t-141.5 -50t-159.5 -13.5zM469 215q105 0 207.5 123t130.5 309l10 68q-43 43 -105 68.5t-120 25.5q-64 0 -118.5 -37t-89 -95t-54 -126t-19.5 -133
q0 -94 41.5 -148.5t116.5 -54.5z" />
    <glyph glyph-name="uni01EA" unicode="&#x1ea;" horiz-adv-x="1566" 
d="M856 -4q-75 -21 -122.5 -71t-47.5 -103q0 -29 15.5 -45.5t41.5 -16.5q51 0 82 17l4 -139q-50 -23 -141 -23q-93 0 -140.5 40t-47.5 114q0 58 32.5 116t85.5 101l-2 4q-222 31 -350.5 190t-128.5 416q0 172 55.5 330.5t153 279t242 192.5t311.5 72q265 0 425.5 -162.5
t160.5 -447.5q0 -158 -43.5 -303t-122.5 -260.5t-198.5 -195t-264.5 -105.5zM389 602q0 -192 93 -292.5t257 -100.5q106 0 199.5 54t157 143.5t100.5 206.5t37 241q0 194 -95.5 293.5t-265.5 99.5q-104 0 -195.5 -55.5t-153.5 -145.5t-98 -206.5t-36 -237.5z" />
    <glyph glyph-name="uni01EB" unicode="&#x1eb;" horiz-adv-x="1122" 
d="M584 -10q-66 -24 -108 -72t-42 -96q0 -29 15.5 -45.5t42.5 -16.5q50 0 81 17l5 -139q-50 -23 -142 -23q-93 0 -140.5 40t-47.5 114q0 61 35 120.5t92 104.5l-2 4q-136 34 -212.5 140t-76.5 268q0 163 62.5 300t185 222.5t282.5 85.5q194 0 309 -108.5t115 -303.5
q0 -160 -51 -290.5t-155 -216.5t-248 -105zM600 809q-85 0 -153 -55.5t-103 -141t-35 -180.5q0 -107 54 -175.5t147 -68.5q133 0 217 114t84 280q0 53 -14 94.5t-35.5 66t-50.5 40t-56 21t-55 5.5z" />
    <glyph glyph-name="Aringacute" unicode="&#x1fa;" horiz-adv-x="1325" 
d="M825 1561q-90 0 -150.5 60.5t-60.5 150.5q0 92 63 153.5t157 61.5q91 0 155 -64l115 88h250l-310 -233q0 -94 -62.5 -155.5t-156.5 -61.5zM831 1853q-33 0 -56 -23t-23 -56q0 -34 21.5 -56t55.5 -22t57 23t23 57q0 32 -23 54.5t-55 22.5zM655 1454h252l307 -1454h-251
l-60 315h-524l-137 -315h-250zM469 526h393l-119 625h-4z" />
    <glyph glyph-name="aringacute" unicode="&#x1fb;" horiz-adv-x="1150" 
d="M694 1106q-90 0 -150.5 60.5t-60.5 150.5q0 92 62.5 153.5t156.5 61.5q93 0 152 -62l111 82h256l-308 -223v-6q0 -94 -62.5 -155.5t-156.5 -61.5zM700 1399q-33 0 -56 -23.5t-23 -56.5q0 -34 21.5 -56t55.5 -22t57 23t23 57q0 32 -23 55t-55 23zM840 920l10 77h223
l-123 -997h-223l23 182l-7 2q-68 -98 -153 -149t-166 -51q-170 0 -257 113.5t-87 291.5q0 118 35.5 230.5t97.5 200t155.5 141t202.5 53.5q170 0 263 -96zM811 680l4 37q-44 42 -106 67t-121 25q-84 0 -150 -64.5t-98.5 -160t-32.5 -199.5q0 -94 41.5 -148.5t118.5 -54.5
q110 0 213 139t131 359z" />
    <glyph glyph-name="AEacute" unicode="&#x1fc;" horiz-adv-x="1794" 
d="M870 1587l236 271l254 2l-266 -273h-224zM-47 0l833 1454h973l-26 -217h-605l-51 -406h498l-29 -217h-495l-47 -397h641l-27 -217h-877l39 315h-387l-176 -315h-264zM510 526h297l82 674h-4z" />
    <glyph glyph-name="aeacute" unicode="&#x1fd;" horiz-adv-x="1425" 
d="M1214 1436l-264 -297h-227l244 295zM995 193q112 0 195 104l176 -127q-151 -182 -379 -182q-132 0 -223 58t-127 167q-44 -106 -121 -167.5t-176 -61.5q-137 0 -216.5 107t-74.5 267q2 125 40.5 241t105 205t164.5 142t212 53q147 0 252 -71q116 86 275 86
q128 0 212.5 -72.5t84.5 -187.5q0 -171 -161 -273t-446 -127q13 -79 70 -120t137 -41zM1073 811q-80 0 -162 -78t-112 -207q176 23 272 80t96 137q0 28 -24 48t-70 20zM369 182q21 0 39.5 8t36 27.5t30.5 36t28.5 51.5t24 54t22.5 63t19 59.5t19 61.5q35 135 98 237
q-50 15 -92 15q-73 0 -134.5 -40t-101 -106t-61 -148t-21.5 -167q0 -72 26.5 -112t66.5 -40z" />
    <glyph glyph-name="Oslashacute" unicode="&#x1fe;" horiz-adv-x="1572" 
d="M1309 1860l-267 -273h-223l236 271zM1550 1397l-157 -166q98 -152 98 -371q0 -140 -33 -270t-99 -240t-156.5 -192t-213 -128t-262.5 -46q-239 0 -391 131l-164 -174l-119 122l174 183q-84 144 -84 350q0 172 55.5 330.5t153 279t242 192.5t311.5 72q223 0 373 -116
l154 162zM395 602q0 -88 21 -158l694 734q-87 69 -231 69q-138 0 -250.5 -94t-173 -241t-60.5 -310zM1239 854q0 99 -29 184l-704 -745q90 -84 239 -84q106 0 199.5 54t157 143.5t100.5 206.5t37 241z" />
    <glyph glyph-name="oslashacute" unicode="&#x1ff;" horiz-adv-x="1130" 
d="M1024 1436l-264 -297h-228l244 295zM1090 942l-107 -113q55 -96 55 -227q0 -130 -35.5 -242t-101.5 -196t-168 -132t-229 -48q-158 0 -262 73l-103 -108l-100 102l106 111q-61 98 -61 244q0 163 62.5 300t185 222.5t282.5 85.5q163 0 273 -78l102 108zM309 432
q0 -40 10 -88l410 428q-52 37 -129 37q-85 0 -153 -55.5t-103 -141t-35 -180.5zM811 582q0 36 -6 63l-406 -424q51 -33 111 -33q133 0 217 114t84 280z" />
    <glyph glyph-name="Scommaaccent" unicode="&#x218;" horiz-adv-x="1155" 
d="M547 -16q-158 0 -289 66.5t-201 178.5l179 164q43 -88 123 -137t171 -49q112 0 185 59.5t73 145.5q0 22 -5.5 40t-19 35t-26.5 29.5t-38.5 28.5t-44.5 27t-55 31t-60 34q-13 7 -38 22q-40 23 -60 35t-56 35t-56 40t-48 42t-43 49t-31 54t-22.5 64t-6.5 71
q0 190 136.5 305.5t338.5 115.5q125 0 238 -55.5t188 -154.5l-176 -154q-97 145 -266 145q-93 0 -151 -51t-56 -123q2 -42 30.5 -78t57 -55.5t113.5 -70.5q9 -6 14 -9q29 -17 82 -46t83 -47t72 -46t66 -53.5t48.5 -60t35 -76.5t10.5 -91q0 -112 -39 -201t-107.5 -145
t-157 -85t-191.5 -29zM332 -449l-33 134q67 26 94 59.5t27 97.5q0 9 -4 49h200v-45q0 -126 -73 -204t-211 -91z" />
    <glyph glyph-name="scommaaccent" unicode="&#x219;" horiz-adv-x="874" 
d="M393 -16q-111 0 -212.5 47.5t-153.5 124.5l147 145q43 -57 100.5 -89t118.5 -32q67 0 112.5 26.5t45.5 72.5q0 25 -21.5 46.5t-44.5 33.5t-86 41q-20 9 -30 14q-116 51 -182 121.5t-66 173.5q0 135 100.5 220t245.5 85q98 0 191 -35.5t157 -106.5l-149 -151
q-41 52 -95.5 76t-105.5 24q-53 0 -85 -25.5t-32 -68.5q0 -39 42 -72t122 -71q120 -59 166 -95q99 -78 100 -184q1 -154 -103.5 -237.5t-281.5 -83.5zM174 -449l-33 134q67 26 94 59.5t27 97.5q0 9 -4 49h201v-45q0 -126 -73.5 -204t-211.5 -91z" />
    <glyph glyph-name="uni021A" unicode="&#x21a;" horiz-adv-x="1118" 
d="M377 0l151 1237h-368l24 217h983l-26 -217h-371l-152 -1237h-241zM297 -449l-33 134q67 26 94 59.5t27 97.5q0 9 -4 49h201v-45q0 -126 -73.5 -204t-211.5 -91z" />
    <glyph glyph-name="uni021B" unicode="&#x21b;" horiz-adv-x="692" 
d="M346 -16q-125 0 -180 78.5t-39 213.5l66 533h-107l23 190h106l41 312l227 45l-43 -357h244l-22 -190h-244l-62 -492q-14 -118 68 -118q58 0 143 51l31 -197q-54 -33 -122 -51t-130 -18zM135 -449l-33 134q67 26 94 59.5t27 97.5q0 9 -4 49h201v-45q0 -126 -73.5 -204
t-211.5 -91z" />
    <glyph glyph-name="uni0232" unicode="&#x232;" horiz-adv-x="1189" 
d="M449 1632l22 178h561l-22 -178h-561zM410 0l79 643l-339 811h266l217 -582h6l360 582h281l-547 -811l-82 -643h-241z" />
    <glyph glyph-name="uni0233" unicode="&#x233;" horiz-adv-x="1116" 
d="M952 1386l-22 -188h-561l22 188h561zM821 999h221l-106 -874q-15 -129 -54 -227.5t-89.5 -157.5t-119 -96t-136 -50.5t-146.5 -13.5q-199 0 -346 96l74 195q138 -88 272 -88q67 0 116 14.5t93.5 52t73 110t41.5 181.5l4 35l-4 2q-132 -194 -338 -194q-159 0 -226 96
t-38 305l84 614h223l-78 -593q-15 -120 10 -168t94 -50q61 0 130.5 52t125 148t68.5 206z" />
    <glyph glyph-name="uni0237" unicode="&#x237;" horiz-adv-x="491" 
d="M-25 -420q-106 0 -182 47l57 176q38 -30 91 -30q50 0 77 42.5t37 141.5l129 1042h226l-134 -1073q-42 -346 -301 -346z" />
    <glyph glyph-name="uni0251" unicode="&#x251;" horiz-adv-x="1150" 
d="M424 -16q-170 0 -257 113.5t-87 291.5q0 118 35.5 230.5t97.5 200t155.5 141t202.5 53.5q170 0 263 -96l6 2l10 77h223l-123 -997h-223l23 182l-7 2q-68 -98 -153 -149t-166 -51zM467 182q110 0 213 139t131 359l4 37q-44 42 -106 67t-121 25q-84 0 -150 -64.5
t-98.5 -160t-32.5 -199.5q0 -94 41.5 -148.5t118.5 -54.5z" />
    <glyph glyph-name="uni0259" unicode="&#x259;" horiz-adv-x="950" 
d="M479 1014q185 0 297.5 -117.5t112.5 -314.5q0 -170 -57.5 -302.5t-179 -213t-292.5 -80.5q-144 0 -232.5 75.5t-88.5 202.5q0 79 34.5 142.5t92 106.5t140 74.5t170.5 48.5t192 26q-14 69 -64.5 108t-130.5 39q-43 0 -104.5 -20t-116.5 -64l-125 158q72 62 167 96.5
t185 34.5zM379 190q114 0 185 76t95 205q-115 -9 -200.5 -32t-139 -65.5t-53.5 -99.5q0 -84 113 -84z" />
    <glyph glyph-name="uni0261" unicode="&#x261;" horiz-adv-x="1159" 
d="M406 -420q-191 0 -338 96l73 195q134 -86 275 -86q71 0 121 14t95 51.5t73.5 109.5t42.5 181l10 84l-4 2q-69 -103 -155.5 -157t-172.5 -54q-115 0 -193.5 56t-113.5 145t-35 205q0 85 22 170t64.5 160.5t100.5 134.5t136.5 93t165.5 34q170 0 267 -94l4 2l10 77h223
l-106 -874q-16 -130 -54 -227.5t-89 -157.5t-121 -96.5t-141.5 -50t-159.5 -13.5zM469 215q105 0 207.5 123t130.5 309l10 68q-43 43 -105 68.5t-120 25.5q-64 0 -118.5 -37t-89 -95t-54 -126t-19.5 -133q0 -94 41.5 -148.5t116.5 -54.5z" />
    <glyph glyph-name="uni0272" unicode="&#x272;" horiz-adv-x="1138" 
d="M776 1014q158 0 217 -102t31 -310l-82 -602h-223l78 584q16 114 -5 170.5t-92 56.5q-45 0 -98 -32t-101.5 -85.5t-87 -132t-53.5 -164.5l-49 -397q-28 -228 -119 -324t-255 -96q-57 0 -107 17l37 172q40 -5 43 -5q79 0 117.5 50t58.5 186l45 360l78 639h225l-20 -172
l4 -2q155 189 358 189z" />
    <glyph glyph-name="uni02BB" unicode="&#x2bb;" horiz-adv-x="448" 
d="M176 842l90 518h170l-37 -518h-223z" />
    <glyph glyph-name="uni02BC" unicode="&#x2bc;" horiz-adv-x="395" 
d="M119 1028l106 424h232l-168 -424h-170z" />
    <glyph glyph-name="uni02BE" unicode="&#x2be;" horiz-adv-x="485" 
d="M217 1538q126 0 205.5 -79t79.5 -204q0 -154 -99.5 -255t-248.5 -101l-11 162q80 3 125 57.5t45 130.5q0 120 -127 123z" />
    <glyph glyph-name="uni02BF" unicode="&#x2bf;" horiz-adv-x="507" 
d="M469 899q-126 0 -205.5 79t-79.5 204q0 154 99.5 255t248.5 101l11 -162q-80 -3 -125 -57.5t-45 -130.5q0 -120 127 -123z" />
    <glyph glyph-name="circumflex" unicode="&#x2c6;" horiz-adv-x="876" 
d="M193 1098l241 301h213l178 -301h-217l-73 155h-5l-112 -155h-225z" />
    <glyph glyph-name="caron" unicode="&#x2c7;" horiz-adv-x="878" 
d="M397 1094l-161 297h208l78 -154h6l117 154h211l-242 -297h-217z" />
    <glyph glyph-name="uni02C8" unicode="&#x2c8;" horiz-adv-x="378" 
d="M137 764l62 561h180l-66 -559z" />
    <glyph glyph-name="uni02C9" unicode="&#x2c9;" horiz-adv-x="700" 
d="M156 1198l22 188h561l-22 -188h-561z" />
    <glyph glyph-name="uni02CA" unicode="&#x2ca;" horiz-adv-x="638" 
d="M209 1139l244 295l247 2l-264 -297h-227z" />
    <glyph glyph-name="uni02CB" unicode="&#x2cb;" horiz-adv-x="634" 
d="M373 1139l-193 297l250 -2l170 -295h-227z" />
    <glyph glyph-name="uni02CC" unicode="&#x2cc;" horiz-adv-x="378" 
d="M2 -373l61 561h181l-66 -559z" />
    <glyph glyph-name="breve" unicode="&#x2d8;" horiz-adv-x="856" 
d="M506 1087q-141 0 -210.5 79t-57.5 225h174q-6 -59 18 -95t82 -36q56 0 97.5 38t54.5 93h174q-26 -141 -114.5 -222.5t-217.5 -81.5z" />
    <glyph glyph-name="dotaccent" unicode="&#x2d9;" horiz-adv-x="952" 
d="M567 1114q-63 0 -104 42t-41 104q0 66 43 108.5t108 42.5q63 0 105.5 -41t42.5 -104q0 -65 -44 -108.5t-110 -43.5z" />
    <glyph glyph-name="ring" unicode="&#x2da;" horiz-adv-x="901" 
d="M541 1051q-90 0 -150.5 60.5t-60.5 150.5q0 92 62.5 153.5t156.5 61.5q91 0 151 -60t60 -149q0 -94 -62.5 -155.5t-156.5 -61.5zM545 1186q34 0 57 23t23 57q0 32 -23 54.5t-55 22.5q-33 0 -56.5 -23.5t-23.5 -55.5q0 -34 22 -56t56 -22z" />
    <glyph glyph-name="ogonek" unicode="&#x2db;" horiz-adv-x="892" 
d="M408 -385q-93 0 -141 40t-48 114q0 75 52.5 147.5t129.5 112.5l195 -29q-83 -17 -136.5 -69t-53.5 -109q0 -29 15.5 -45.5t41.5 -16.5q51 0 82 17l4 -139q-50 -23 -141 -23z" />
    <glyph glyph-name="tilde" unicode="&#x2dc;" horiz-adv-x="921" 
d="M690 1098q-21 0 -40 4t-37 13t-28.5 15t-28 18t-21.5 15q-59 45 -95 45q-75 0 -123 -110l-139 71q43 102 105 161t137 59q28 0 53.5 -7.5t36 -13t33.5 -22.5t26 -19q2 -2 10.5 -8t11.5 -7.5t10.5 -6.5t11 -7t10 -6t11 -5.5l10.5 -3.5t11.5 -2.5t10.5 -0.5q36 0 68 29
t54 80l140 -54q-41 -113 -103.5 -175t-134.5 -62z" />
    <glyph glyph-name="hungarumlaut" unicode="&#x2dd;" horiz-adv-x="972" 
d="M158 1102l243 295l238 2l-264 -297h-217zM535 1102l241 295l238 2l-264 -297h-215z" />
    <glyph glyph-name="gravecomb" unicode="&#x300;" 
d="M-977 1102l-192 297l249 -2l170 -295h-227z" />
    <glyph glyph-name="acutecomb" unicode="&#x301;" 
d="M-1147 1102l244 295l248 2l-265 -297h-227z" />
    <glyph glyph-name="uni0302" unicode="&#x302;" 
d="M-1270 1098l242 301h213l178 -301h-217l-74 155h-4l-112 -155h-226z" />
    <glyph glyph-name="tildecomb" unicode="&#x303;" 
d="M-791 1098q-21 0 -40 4t-37 13t-28.5 15t-28 18t-21.5 15q-59 45 -94 45q-75 0 -123 -110l-140 71q43 102 105 161t137 59q28 0 53.5 -7.5t36 -12.5t34.5 -23t26 -19q2 -2 13.5 -10t14.5 -10t12.5 -8t14.5 -8t13 -5.5t14.5 -4.5t13.5 -1q36 0 68.5 29.5t54.5 79.5
l139 -54q-41 -113 -103.5 -175t-134.5 -62z" />
    <glyph glyph-name="uni0304" unicode="&#x304;" 
d="M-1223 1161l23 189h561l-23 -189h-561z" />
    <glyph glyph-name="uni0306" unicode="&#x306;" 
d="M-946 1087q-141 0 -210.5 79t-57.5 225h174q-6 -59 18 -95t82 -36q56 0 97.5 38t54.5 93h174q-26 -141 -114.5 -222.5t-217.5 -81.5z" />
    <glyph glyph-name="uni0307" unicode="&#x307;" 
d="M-928 1114q-63 0 -104 42t-41 104q0 66 43 108.5t108 42.5q63 0 105.5 -41t42.5 -104q0 -65 -44 -108.5t-110 -43.5z" />
    <glyph glyph-name="uni0308" unicode="&#x308;" 
d="M-1126 1114q-63 0 -105.5 42t-42.5 104q0 66 44 108.5t110 42.5q62 0 103.5 -41t41.5 -104q0 -65 -43.5 -108.5t-107.5 -43.5zM-737 1114q-64 0 -106 42t-42 104q0 66 44 108.5t110 42.5q62 0 103.5 -41t41.5 -104q0 -65 -43.5 -108.5t-107.5 -43.5z" />
    <glyph glyph-name="hookabovecomb" unicode="&#x309;" 
d="M-893 1096l-149 2q60 42 105.5 94t45.5 92q0 37 -49 37q-38 0 -76 -15t-96 -55l-35 115q44 41 116.5 72.5t160.5 31.5q68 0 110.5 -33t42.5 -98q0 -81 -57.5 -148.5t-118.5 -94.5z" />
    <glyph glyph-name="uni030A" unicode="&#x30a;" 
d="M-930 1069q-90 0 -150.5 60.5t-60.5 150.5q0 92 62.5 153.5t156.5 61.5q91 0 151 -60t60 -149q0 -94 -62.5 -155.5t-156.5 -61.5zM-926 1204q34 0 57 23t23 57q0 32 -23 55t-55 23q-33 0 -56.5 -23.5t-23.5 -56.5q0 -34 22 -56t56 -22z" />
    <glyph glyph-name="uni030B" unicode="&#x30b;" 
d="M-1243 1102l244 295l237 2l-264 -297h-217zM-866 1102l241 295l238 2l-264 -297h-215z" />
    <glyph glyph-name="uni030C" unicode="&#x30c;" 
d="M-1065 1094l-162 297h209l78 -154h6l117 154h211l-242 -297h-217z" />
    <glyph glyph-name="uni0312" unicode="&#x312;" 
d="M-1038 1108q-2 8 -2 45q0 126 73.5 204t210.5 91l33 -133q-65 -25 -92 -60.5t-27 -99.5q0 -27 2 -47h-198z" />
    <glyph glyph-name="uni0313" unicode="&#x313;" 
d="M-985 1427q2 -8 2 -45q0 -126 -74 -204t-211 -91l-32 134q65 25 91.5 60t26.5 99q0 27 -2 47h199z" />
    <glyph glyph-name="uni031B" unicode="&#x31b;" 
d="M-936 909q-38 0 -102 19l30 135q35 -14 64 -14q22 0 39 8t29 28t20 38t15 54t10.5 59t9.5 69l18 149h213l-24 -186q-24 -180 -107.5 -269.5t-214.5 -89.5z" />
    <glyph glyph-name="dotbelowcomb" unicode="&#x323;" 
d="M-1124 -164q63 0 104 -41.5t41 -103.5q0 -66 -43 -109t-108 -43q-63 0 -105.5 41.5t-42.5 104.5q0 65 44 108t110 43z" />
    <glyph glyph-name="uni0324" unicode="&#x324;" 
d="M-1315 -164q64 0 106 -41.5t42 -103.5q0 -66 -44 -109t-110 -43q-62 0 -103.5 41.5t-41.5 104.5q0 65 43 108t108 43zM-926 -164q63 0 105.5 -41.5t42.5 -103.5q0 -66 -44 -109t-110 -43q-62 0 -103.5 41.5t-41.5 104.5q0 65 43.5 108t107.5 43z" />
    <glyph glyph-name="uni0326" unicode="&#x326;" 
d="M-1294 -449l-33 134q67 26 94 59.5t27 97.5q0 9 -4 49h200v-45q0 -126 -73 -204t-211 -91z" />
    <glyph glyph-name="uni0327" unicode="&#x327;" 
d="M-1210 -391q-50 0 -99 12l6 113q30 -15 74 -15q53 0 87 20t34 58q0 56 -141 56l4 73l49 86h133l-49 -75l2 -3q154 -6 154 -135q0 -91 -69 -140.5t-185 -49.5z" />
    <glyph glyph-name="uni0328" unicode="&#x328;" 
d="M-1278 -385q-93 0 -140.5 40t-47.5 114q0 75 52.5 147.5t129.5 112.5l194 -29q-83 -17 -136.5 -69t-53.5 -109q0 -29 15.5 -45.5t41.5 -16.5q51 0 82 17l4 -139q-50 -23 -141 -23z" />
    <glyph glyph-name="uni032E" unicode="&#x32e;" 
d="M-1133 -461q-141 0 -210.5 78.5t-57.5 224.5h174q-6 -59 18 -95t83 -36q56 0 97 38t54 93h174q-26 -141 -114 -222t-218 -81z" />
    <glyph glyph-name="uni0331" unicode="&#x331;" 
d="M-1415 -422l22 189h562l-23 -189h-561z" />
    <glyph glyph-name="uni0335" unicode="&#x335;" 
d="M-1284 467l18 154h523l-21 -154h-520z" />
    <glyph glyph-name="uni0400" unicode="&#x400;" horiz-adv-x="1177" 
d="M721 1587l-201 273l250 -2l174 -271h-223zM127 0l178 1454h838l-29 -217h-596l-49 -408h481l-26 -217h-482l-49 -395h635l-27 -217h-874z" />
    <glyph glyph-name="uni0401" unicode="&#x401;" horiz-adv-x="1177" 
d="M575 1624q-63 0 -105 41.5t-42 103.5q0 66 44 109t110 43q62 0 103.5 -41t41.5 -104q0 -64 -43.5 -108t-108.5 -44zM965 1624q-64 0 -106 41.5t-42 103.5q0 66 44 109t110 43q62 0 103.5 -41t41.5 -104q0 -65 -43.5 -108.5t-107.5 -43.5zM127 0l178 1454h838l-29 -217
h-596l-49 -408h481l-26 -217h-482l-49 -395h635l-27 -217h-874z" />
    <glyph glyph-name="uni0402" unicode="&#x402;" horiz-adv-x="1470" 
d="M1016 928q116 0 205 -42.5t143.5 -136t54.5 -229.5q0 -130 -41 -232.5t-114 -166.5t-169 -97.5t-210 -33.5q-63 0 -115 8l33 199q36 -4 57 -4q137 0 222 82.5t85 228.5q0 201 -231 201q-145 0 -260 -70l-78 -635h-242l152 1237h-369l25 217h983l-27 -217h-370l-50 -401
q151 92 316 92z" />
    <glyph glyph-name="uni0403" unicode="&#x403;" horiz-adv-x="1097" 
d="M551 1587l235 271l254 2l-266 -273h-223zM127 0l178 1454h838l-27 -217h-596l-151 -1237h-242z" />
    <glyph glyph-name="uni0404" unicode="&#x404;" horiz-adv-x="1376" 
d="M729 211q101 0 196.5 45.5t159.5 124.5l181 -158q-101 -112 -242.5 -175.5t-304.5 -63.5q-127 0 -231.5 36.5t-183.5 109t-123 190.5t-44 272q0 179 52.5 339t147 279.5t235 189.5t307.5 70q341 0 503 -231l-192 -162q-107 166 -324 166q-164 0 -279 -109.5t-169 -291.5
h600l-27 -213h-606v-37q0 -180 89.5 -280.5t254.5 -100.5z" />
    <glyph glyph-name="uni0405" unicode="&#x405;" horiz-adv-x="1155" 
d="M547 -16q-158 0 -289 66.5t-201 178.5l179 164q43 -88 123 -137t171 -49q112 0 185 59.5t73 145.5q0 22 -5.5 40t-19 35t-26.5 29.5t-38.5 28.5t-44.5 27t-55 31t-60 34q-13 7 -38 22q-40 23 -60 35t-56 35t-56 40t-48 42t-43 49t-31 54t-22.5 64t-6.5 71
q0 190 136.5 305.5t338.5 115.5q125 0 238 -55.5t188 -154.5l-176 -154q-97 145 -266 145q-93 0 -151 -51t-56 -123q2 -42 30.5 -78t57 -55.5t113.5 -70.5q9 -6 14 -9q29 -17 82 -46t83 -47t72 -46t66 -53.5t48.5 -60t35 -76.5t10.5 -91q0 -112 -39 -201t-107.5 -145
t-157 -85t-191.5 -29z" />
    <glyph glyph-name="uni0406" unicode="&#x406;" horiz-adv-x="636" 
d="M135 0l178 1454h244l-178 -1454h-244z" />
    <glyph glyph-name="uni0407" unicode="&#x407;" horiz-adv-x="636" 
d="M276 1624q-63 0 -105 41.5t-42 103.5q0 66 44 109t110 43q62 0 103.5 -41t41.5 -104q0 -64 -44 -108t-108 -44zM666 1624q-64 0 -106 41.5t-42 103.5q0 66 44 109t110 43q62 0 103.5 -41t41.5 -104q0 -65 -43.5 -108.5t-107.5 -43.5zM135 0l178 1454h244l-178 -1454h-244
z" />
    <glyph glyph-name="uni0408" unicode="&#x408;" horiz-adv-x="993" 
d="M365 -16q-101 0 -191.5 49t-146.5 139l168 168q75 -127 170 -127q185 0 227 326l113 915h243l-114 -928q-33 -269 -145.5 -405.5t-323.5 -136.5z" />
    <glyph glyph-name="uni0409" unicode="&#x409;" horiz-adv-x="2004" 
d="M1520 913q115 0 199 -28.5t128.5 -69.5t70 -100.5t31.5 -108t5 -106.5q-6 -245 -151 -372.5t-408 -127.5h-467l151 1237h-372q-61 -363 -115 -616q-35 -164 -75 -276t-95.5 -196t-130.5 -123.5t-174 -39.5q-74 0 -144 24l37 199q30 -6 68 -6q58 0 104 36t80.5 109
t59.5 157.5t51 207.5q69 316 133 741h842l-66 -541h238zM1413 217q138 0 214.5 69.5t76.5 202.5q0 111 -51.5 159t-165.5 48h-232l-59 -479h217z" />
    <glyph glyph-name="uni040A" unicode="&#x40a;" horiz-adv-x="2004" 
d="M1520 883q83 0 150.5 -14.5t112 -38t77.5 -58t51 -68t28.5 -74.5t13 -72.5t1.5 -65.5q-7 -240 -152 -366t-407 -126h-469l78 635h-558l-77 -635h-242l178 1454h242l-74 -602h557l74 602h242l-70 -571h244zM1413 217q138 0 214.5 68t76.5 196q0 95 -52.5 140t-164.5 45
h-238l-55 -449h219z" />
    <glyph glyph-name="uni040B" unicode="&#x40b;" horiz-adv-x="1492" 
d="M1087 932q190 0 259 -113t38 -352l-61 -467h-240l62 479q15 127 -16 180.5t-128 53.5q-153 0 -305 -82l-78 -631h-241l151 1237h-368l24 217h983l-26 -217h-371l-49 -403q84 38 186.5 68t179.5 30z" />
    <glyph glyph-name="uni040C" unicode="&#x40c;" horiz-adv-x="1275" 
d="M1112 1860l-266 -273h-223l235 271zM1350 1454l-549 -645l381 -809h-277l-284 631l-205 -238l-47 -393h-242l178 1454h242l-86 -696l6 -2l580 698h303z" />
    <glyph glyph-name="uni040D" unicode="&#x40d;" horiz-adv-x="1454" 
d="M840 1587l-201 273l250 -2l174 -271h-223zM127 0l178 1454h242l-129 -1032h4l739 1032h221l-176 -1454h-243l122 1001h-4l-735 -1001h-219z" />
    <glyph glyph-name="uni040E" unicode="&#x40e;" horiz-adv-x="1218" 
d="M735 1579q-267 0 -278 283l190 18q0 -68 33 -106.5t84 -38.5q52 0 106.5 41.5t87.5 109.5l162 -43q-33 -73 -80.5 -127t-100.5 -82.5t-103 -41.5t-101 -13zM1038 1454h269l-564 -1077q-90 -171 -130 -228q-90 -128 -204 -156q-38 -9 -81 -9q-60 0 -124 21t-95 50l73 197
q71 -51 131 -51q26 0 50.5 12t44.5 31t42.5 52.5t39.5 65t42 80.5l-389 1012h267l254 -764h6z" />
    <glyph glyph-name="uni040F" unicode="&#x40f;" horiz-adv-x="1378" 
d="M1309 1454l-179 -1454h-397l-41 -281h-203l25 281h-387l180 1454h240l-152 -1237h520l152 1237h242z" />
    <glyph glyph-name="uni0410" unicode="&#x410;" horiz-adv-x="1325" 
d="M-8 0l663 1454h252l307 -1454h-251l-60 315h-524l-137 -315h-250zM469 526h393l-119 625h-4z" />
    <glyph glyph-name="uni0411" unicode="&#x411;" horiz-adv-x="1243" 
d="M127 0l178 1454h838l-27 -217h-596l-41 -340h223q83 0 150.5 -14t113 -36t79 -55.5t52 -67t29 -75t13.5 -76t2 -73.5q-6 -244 -150 -372t-397 -128h-467zM395 217h203q138 0 214.5 69.5t76.5 202.5q0 110 -51.5 153.5t-167.5 43.5h-217z" />
    <glyph glyph-name="uni0412" unicode="&#x412;" horiz-adv-x="1255" 
d="M127 0l178 1454h469q391 0 391 -309q0 -110 -62.5 -214.5t-170.5 -154.5v-4q98 -32 155.5 -106.5t57.5 -188.5q0 -230 -141.5 -353.5t-403.5 -123.5h-473zM473 850h203q108 0 175 64.5t67 185.5q0 74 -49 105.5t-152 31.5h-197zM395 217h209q138 0 214.5 69.5t76.5 202.5
q0 78 -53.5 115t-165.5 37h-227z" />
    <glyph glyph-name="uni0413" unicode="&#x413;" horiz-adv-x="1097" 
d="M127 0l178 1454h838l-27 -217h-596l-151 -1237h-242z" />
    <glyph glyph-name="uni0414" unicode="&#x414;" horiz-adv-x="1486" 
d="M1409 217l-70 -498h-202l22 281h-966l-50 -281h-202l57 498h168q146 244 233 545q80 281 131 692h842l-153 -1237h190zM621 678q-79 -274 -189 -461h547l125 1020h-369q-46 -326 -114 -559z" />
    <glyph glyph-name="uni0415" unicode="&#x415;" horiz-adv-x="1177" 
d="M127 0l178 1454h838l-29 -217h-596l-49 -408h481l-26 -217h-482l-49 -395h635l-27 -217h-874z" />
    <glyph glyph-name="uni0416" unicode="&#x416;" horiz-adv-x="1767" 
d="M1843 1454l-512 -684l359 -770h-273l-278 621l-156 -193l-51 -428h-232l54 438l-99 178l-426 -616h-276l543 778l-355 676h277l366 -721l7 2l88 719h231l-90 -719l6 -2l528 721h289z" />
    <glyph glyph-name="uni0417" unicode="&#x417;" horiz-adv-x="1173" 
d="M541 -16q-172 0 -308 68t-204 179l176 162q46 -87 136.5 -137.5t203.5 -50.5q125 0 198.5 63t73.5 178q0 111 -68.5 157t-197.5 46h-182l28 207h174q123 0 197 60t74 161q0 86 -55 128t-144 42q-76 0 -154.5 -29t-136.5 -81l-149 182q96 80 221.5 115.5t247.5 35.5
q188 0 303 -89.5t115 -245.5q0 -113 -65 -208.5t-177 -144.5v-4q110 -45 165.5 -134t55.5 -212q0 -208 -144.5 -328t-383.5 -120z" />
    <glyph glyph-name="uni0418" unicode="&#x418;" horiz-adv-x="1454" 
d="M127 0l178 1454h242l-129 -1032h4l739 1032h221l-176 -1454h-243l122 1001h-4l-735 -1001h-219z" />
    <glyph glyph-name="uni0419" unicode="&#x419;" horiz-adv-x="1454" 
d="M860 1579q-267 0 -278 283l190 18q0 -68 33 -106.5t84 -38.5q52 0 106.5 41.5t87.5 109.5l162 -43q-33 -73 -80.5 -127t-100.5 -82.5t-103 -41.5t-101 -13zM127 0l178 1454h242l-129 -1032h4l739 1032h221l-176 -1454h-243l122 1001h-4l-735 -1001h-219z" />
    <glyph glyph-name="uni041A" unicode="&#x41a;" horiz-adv-x="1275" 
d="M1350 1454l-549 -645l381 -809h-277l-284 631l-205 -238l-47 -393h-242l178 1454h242l-86 -696l6 -2l580 698h303z" />
    <glyph glyph-name="uni041B" unicode="&#x41b;" horiz-adv-x="1417" 
d="M506 1454h842l-181 -1454h-239l151 1237h-372q-61 -363 -115 -616q-35 -164 -75 -276t-95.5 -196t-130.5 -123.5t-174 -39.5q-74 0 -144 24l37 199q30 -6 68 -6q58 0 104 36t80.5 109t59.5 157.5t51 207.5q69 316 133 741z" />
    <glyph glyph-name="uni041C" unicode="&#x41c;" horiz-adv-x="1703" 
d="M127 0l178 1454h246l311 -870h6l523 870h241l-178 -1454h-242l115 952l-6 2l-410 -673h-166l-251 708l-5 -2l-120 -987h-242z" />
    <glyph glyph-name="uni041D" unicode="&#x41d;" horiz-adv-x="1431" 
d="M127 0l178 1454h242l-80 -651h573l80 651h242l-178 -1454h-244l74 586h-574l-71 -586h-242z" />
    <glyph glyph-name="uni041E" unicode="&#x41e;" horiz-adv-x="1566" 
d="M721 -16q-266 0 -425 162.5t-159 449.5q0 172 55.5 330.5t153 279t242 192.5t311.5 72q265 0 425.5 -162.5t160.5 -447.5q0 -140 -33 -270t-99 -240t-156.5 -192t-213 -128t-262.5 -46zM739 209q106 0 199.5 54t157 143.5t100.5 206.5t37 241q0 194 -95.5 293.5
t-265.5 99.5q-104 0 -195.5 -55.5t-153.5 -145.5t-98 -206.5t-36 -237.5q0 -192 93 -292.5t257 -100.5z" />
    <glyph glyph-name="uni041F" unicode="&#x41f;" horiz-adv-x="1378" 
d="M127 0l178 1454h1004l-181 -1454h-239l151 1237h-520l-151 -1237h-242z" />
    <glyph glyph-name="uni0420" unicode="&#x420;" horiz-adv-x="1220" 
d="M127 0l178 1454h490q207 0 302 -99t95 -292q0 -255 -148.5 -398t-427.5 -143h-184l-63 -522h-242zM459 739h190q137 0 214 81.5t77 242.5q0 79 -55 126.5t-146 47.5h-219z" />
    <glyph glyph-name="uni0421" unicode="&#x421;" horiz-adv-x="1390" 
d="M723 -16q-126 0 -232 38.5t-185.5 112.5t-124 191t-44.5 266q0 179 55 339.5t152.5 279.5t240 189t308.5 70q318 0 504 -303l-205 -143q-113 217 -309 217q-110 0 -204 -54.5t-156.5 -145t-98 -207.5t-35.5 -242q0 -178 89.5 -278.5t254.5 -100.5q94 0 186 48t158 128
l180 -158q-103 -114 -241 -180.5t-293 -66.5z" />
    <glyph glyph-name="uni0422" unicode="&#x422;" horiz-adv-x="1118" 
d="M377 0l151 1237h-368l24 217h983l-26 -217h-371l-152 -1237h-241z" />
    <glyph glyph-name="uni0423" unicode="&#x423;" horiz-adv-x="1218" 
d="M1038 1454h269l-564 -1077q-90 -171 -130 -228q-90 -128 -204 -156q-38 -9 -81 -9q-60 0 -124 21t-95 50l73 197q71 -51 131 -51q26 0 50.5 12t44.5 31t42.5 52.5t39.5 65t42 80.5l-389 1012h267l254 -764h6z" />
    <glyph glyph-name="uni0424" unicode="&#x424;" horiz-adv-x="1642" 
d="M1577 809q0 -187 -75 -332.5t-230.5 -234.5t-374.5 -95l-16 -147h-242l18 150q-247 19 -390.5 152.5t-143.5 369.5q0 132 46 251.5t131 213t215.5 153t289.5 68.5l16 135h242l-16 -137q235 -24 382.5 -168.5t147.5 -378.5zM375 682q0 -154 80 -231t235 -89l98 791
q-132 -12 -227.5 -82t-140.5 -170.5t-45 -218.5zM915 358q201 12 305.5 133t104.5 308q0 155 -80.5 246t-230.5 106z" />
    <glyph glyph-name="uni0425" unicode="&#x425;" horiz-adv-x="1269" 
d="M-27 0l523 735l-326 719h272l238 -545h8l363 545h292l-512 -727l343 -727h-283l-248 547h-8l-381 -547h-281z" />
    <glyph glyph-name="uni0426" unicode="&#x426;" horiz-adv-x="1409" 
d="M1331 217l-69 -498h-203l22 281h-954l180 1454h240l-152 -1237h504l152 1237h241l-151 -1237h190z" />
    <glyph glyph-name="uni0427" unicode="&#x427;" horiz-adv-x="1263" 
d="M952 1454h242l-178 -1454h-242l72 584q-68 -37 -163 -61.5t-187 -24.5q-207 0 -286 113.5t-48 351.5l65 491h238l-64 -504q-15 -129 18 -181t142 -52q155 0 309 69z" />
    <glyph glyph-name="uni0428" unicode="&#x428;" horiz-adv-x="1894" 
d="M1583 1454h242l-178 -1454h-1520l180 1454h240l-152 -1237h398l151 1237h242l-152 -1237h398z" />
    <glyph glyph-name="uni0429" unicode="&#x429;" horiz-adv-x="1941" 
d="M1864 217l-70 -498h-203l23 281h-1487l180 1454h240l-152 -1237h398l151 1237h242l-152 -1237h398l151 1237h242l-152 -1237h191z" />
    <glyph glyph-name="uni042A" unicode="&#x42a;" horiz-adv-x="1355" 
d="M870 913q83 0 150.5 -14.5t112 -38.5t78 -59t51.5 -70t28.5 -78.5t13 -78t1.5 -74.5q-6 -245 -151 -372.5t-409 -127.5h-466l151 1237h-328l27 217h569l-65 -541h237zM764 217q138 0 214.5 69.5t76.5 202.5q0 111 -51.5 159t-165.5 48h-232l-59 -479h217z" />
    <glyph glyph-name="uni042B" unicode="&#x42b;" horiz-adv-x="1761" 
d="M127 0l178 1454h242l-66 -541h209q115 0 199 -28.5t128.5 -69.5t70 -100.5t31.5 -108t5 -106.5q-6 -245 -151 -372.5t-408 -127.5h-438zM1270 0l178 1454h244l-179 -1454h-243zM395 217h189q138 0 214 69.5t76 202.5q0 111 -51.5 159t-165.5 48h-202z" />
    <glyph glyph-name="uni042C" unicode="&#x42c;" horiz-adv-x="1204" 
d="M127 0l178 1454h242l-66 -541h238q115 0 199 -28.5t128.5 -69.5t70 -100.5t31.5 -108t5 -106.5q-6 -245 -151 -372.5t-408 -127.5h-467zM395 217h217q138 0 214.5 69.5t76.5 202.5q0 111 -51.5 159t-165.5 48h-231z" />
    <glyph glyph-name="uni042D" unicode="&#x42d;" horiz-adv-x="1355" 
d="M702 1470q279 0 428.5 -163t149.5 -445q0 -182 -49 -340.5t-139.5 -278.5t-231 -189.5t-313.5 -69.5q-346 0 -498 239l187 158q97 -174 319 -174q161 0 282.5 112.5t166.5 309.5h-607l27 213h606v4q0 192 -92 296.5t-264 104.5q-79 0 -160.5 -34.5t-140.5 -92.5l-150 176
q98 89 223.5 131.5t255.5 42.5z" />
    <glyph glyph-name="uni042E" unicode="&#x42e;" horiz-adv-x="2021" 
d="M1399 1468q254 0 411.5 -162.5t157.5 -443.5q0 -175 -52.5 -333.5t-147.5 -279.5t-237.5 -193t-311.5 -72q-249 0 -402 160.5t-153 441.5v2h-234l-72 -588h-241l178 1454h242l-80 -649h227q27 140 88 259.5t150 210t212 142t265 51.5zM1231 209q87 0 164.5 36t135 99
t100 146t64 179.5t21.5 196.5q0 180 -93 279.5t-237 99.5q-84 0 -159.5 -35t-132.5 -96.5t-99.5 -142t-64 -175t-21.5 -192.5q0 -190 90 -292.5t232 -102.5z" />
    <glyph glyph-name="uni042F" unicode="&#x42f;" horiz-adv-x="1277" 
d="M711 1454h497l-178 -1454h-239l61 518h-223l-346 -518h-275l393 580q-109 54 -163 148t-54 196q0 115 32 210t95 167.5t165.5 112.5t234.5 40zM879 735l61 502h-229q-133 0 -204 -76t-71 -213q0 -106 62 -159.5t168 -53.5h213z" />
    <glyph glyph-name="uni0430" unicode="&#x430;" horiz-adv-x="1150" 
d="M424 -16q-170 0 -257 113.5t-87 291.5q0 118 35.5 230.5t97.5 200t155.5 141t202.5 53.5q170 0 263 -96l6 2l10 77h223l-123 -997h-223l23 182l-7 2q-68 -98 -153 -149t-166 -51zM467 182q110 0 213 139t131 359l4 37q-44 42 -106 67t-121 25q-84 0 -150 -64.5
t-98.5 -160t-32.5 -199.5q0 -94 41.5 -148.5t118.5 -54.5z" />
    <glyph glyph-name="uni0431" unicode="&#x431;" horiz-adv-x="1153" 
d="M541 -16q-196 0 -306 133t-110 391q0 139 20.5 269t66 248.5t111.5 209.5t162 151t213 74q21 3 88 10.5t88 11t65 12t73 20.5t57 30l47 -174q-19 -20 -41 -35.5t-51 -26.5t-50.5 -18.5t-59.5 -13t-57.5 -8t-64.5 -7t-61 -6.5q-137 -15 -223 -114.5t-133 -282.5l4 -2
q59 69 140 113.5t169 44.5q168 0 277.5 -110t109.5 -302q0 -130 -35.5 -242t-101.5 -196t-168 -132t-229 -48zM547 188q133 0 217 114t84 280q0 53 -14 94.5t-35.5 66t-50.5 40t-56 21t-55 5.5q-119 0 -206 -103.5t-87 -238.5q0 -127 57 -203t146 -76z" />
    <glyph glyph-name="uni0432" unicode="&#x432;" horiz-adv-x="1042" 
d="M770 535q83 -18 127.5 -76.5t44.5 -132.5q0 -109 -64 -188.5t-162 -116.5t-214 -37q-203 0 -314.5 110.5t-111.5 319.5q0 90 22 177t67 163.5t107.5 134.5t150.5 91.5t189 33.5q156 0 252.5 -64.5t96.5 -175.5q0 -47 -17 -87.5t-46.5 -68.5t-60.5 -46.5t-67 -32.5v-4z
M506 588q231 50 231 149q0 43 -33.5 63.5t-82.5 20.5q-97 0 -191 -76.5t-129 -201.5zM514 180q72 0 137.5 36t65.5 101q0 45 -20.5 71t-60 32.5t-82.5 3.5t-103 -14l-164 -35q21 -195 227 -195z" />
    <glyph glyph-name="uni0433" unicode="&#x433;" horiz-adv-x="899" 
d="M375 -16q-160 1 -241 68.5t-81 176.5q0 106 68.5 182t204.5 146l102 53q118 61 141 80q34 27 33 64q-3 61 -110 61q-106 0 -213 -82l-121 156q63 56 164.5 89.5t195.5 33.5q54 0 104 -11t100.5 -37t81 -77.5t30.5 -122.5q0 -52 -16.5 -96t-39.5 -73t-62.5 -57.5
t-69.5 -44.5t-76 -38q-13 -6 -19 -9l-117 -57q-88 -43 -118.5 -75.5t-30.5 -63.5q0 -36 33 -52t69 -16q141 0 244 103l170 -117q-91 -92 -191.5 -138t-234.5 -46z" />
    <glyph glyph-name="uni0434" unicode="&#x434;" horiz-adv-x="1136" 
d="M498 -14q-186 0 -301 114.5t-115 309.5q0 166 65.5 304t177.5 217t244 79q149 0 252 -90l2 2q-12 146 -62 232t-161 134q-37 16 -85 27t-81.5 15t-93.5 9l55 185q120 -1 218 -24.5t166 -61t118.5 -93.5t80.5 -115t47.5 -132.5t23 -139t4.5 -141.5q-3 -181 -37 -329
t-99.5 -262t-172 -177t-246.5 -63zM502 190q77 0 139.5 51.5t100.5 134t59.5 174.5t25.5 183q-72 76 -202 76q-135 0 -226.5 -104.5t-91.5 -268.5q0 -118 57 -182t138 -64z" />
    <glyph glyph-name="uni0435" unicode="&#x435;" horiz-adv-x="980" 
d="M498 190q68 0 120 25t107 82l176 -127q-93 -95 -185 -139.5t-227 -44.5q-188 0 -296.5 110.5t-108.5 304.5q0 123 35.5 233.5t100.5 195t165.5 134.5t222.5 50q134 0 228 -72.5t94 -198.5q0 -91 -52 -161.5t-144.5 -115t-195.5 -70.5t-229 -40q11 -81 64.5 -123.5
t124.5 -42.5zM598 811q-55 0 -109 -27t-102 -91.5t-68 -155.5q383 45 383 196q0 37 -26.5 57.5t-77.5 20.5z" />
    <glyph glyph-name="uni0436" unicode="&#x436;" horiz-adv-x="1470" 
d="M1194 352q35 -101 74.5 -139t109.5 -53l-65 -172q-32 -4 -47 -4q-109 0 -168 73t-107 234l-20 69q-71 -43 -160 -69l-35 -291h-219l61 489l-4 3q-150 -84 -229 -199.5t-137 -292.5h-228q33 135 115.5 265.5t194.5 236.5l-47 147q-17 53 -36 88.5t-43 56t-48 31t-60 17.5
l62 168q36 4 49 4q114 0 177 -73.5t103 -231.5l19 -74q65 37 137 63l37 301h219l-61 -497l4 -2q160 86 247 208.5t136 290.5h227q-35 -143 -114.5 -275t-190.5 -235z" />
    <glyph glyph-name="uni0437" unicode="&#x437;" horiz-adv-x="919" 
d="M389 -14q-220 0 -377 104l88 195q110 -99 299 -99q84 0 138.5 39t54.5 103q0 95 -172 92l-164 -2l25 168l129 2q102 1 153 42t51 97q0 40 -35.5 64t-95.5 24q-138 0 -262 -70l-80 183q61 32 158.5 59t200.5 27q147 0 244.5 -67t97.5 -183q0 -82 -58.5 -143.5
t-136.5 -90.5v-4q83 -17 127.5 -72t44.5 -132q0 -163 -118 -249.5t-312 -86.5z" />
    <glyph glyph-name="uni0438" unicode="&#x438;" horiz-adv-x="1118" 
d="M377 -16q-159 0 -226 96t-38 305l86 614h223l-80 -593q-17 -120 8.5 -169t95.5 -49q40 0 90 29t96 78.5t82 123.5t46 154l51 426h225l-123 -999h-225l23 178h-4q-128 -194 -330 -194z" />
    <glyph glyph-name="uni0439" unicode="&#x439;" horiz-adv-x="1118" 
d="M627 1128q-268 0 -279 285l191 29q0 -77 32 -117.5t84 -40.5q53 0 107.5 44t87.5 120l162 -53q-33 -74 -80.5 -128.5t-100.5 -83.5t-103.5 -42t-100.5 -13zM377 -16q-159 0 -226 96t-38 305l86 614h223l-80 -593q-17 -120 8.5 -169t95.5 -49q40 0 90 29t96 78.5t82 123.5
t46 154l51 426h225l-123 -999h-225l23 178h-4q-128 -194 -330 -194z" />
    <glyph glyph-name="uni043A" unicode="&#x43a;" horiz-adv-x="1058" 
d="M86 0l123 999h223l-63 -530l4 -2q310 191 411 532h228q-29 -137 -106.5 -269t-190.5 -243l53 -135q41 -103 78.5 -140.5t105.5 -51.5l-65 -172q-32 -4 -47 -4q-56 1 -95 18t-72 64t-50.5 83.5t-53.5 122.5q-5 13 -8 19l-20 51q-97 -69 -205 -117l-27 -225h-223z" />
    <glyph glyph-name="uni043B" unicode="&#x43b;" horiz-adv-x="1093" 
d="M629 999h383l-123 -999h-223l98 803h-109q-65 0 -100 -33.5t-53 -101.5q-13 -49 -33.5 -139t-32.5 -140q-46 -192 -131.5 -297.5t-208.5 -105.5q-80 0 -137 28l55 183q26 -11 49 -11q116 0 175 281q25 111 41 217q22 139 117 227t233 88z" />
    <glyph glyph-name="uni043C" unicode="&#x43c;" horiz-adv-x="1304" 
d="M76 0l123 999h227l213 -579h4l365 579h225l-123 -999h-219l76 614h-2l-285 -444h-143l-162 459h-2l-78 -629h-219z" />
    <glyph glyph-name="uni043D" unicode="&#x43d;" horiz-adv-x="1134" 
d="M827 999h226l-123 -999h-225l49 395l-394 -2l-49 -393h-225l123 999h225l-51 -415l393 2z" />
    <glyph glyph-name="uni043E" unicode="&#x43e;" horiz-adv-x="1122" 
d="M504 -16q-194 0 -307 111.5t-113 310.5q0 163 62.5 300t185 222.5t282.5 85.5q194 0 309 -108.5t115 -303.5q0 -130 -35.5 -242t-101.5 -196t-168 -132t-229 -48zM510 188q133 0 217 114t84 280q0 53 -14 94.5t-35.5 66t-50.5 40t-56 21t-55 5.5q-85 0 -153 -55.5
t-103 -141t-35 -180.5q0 -107 54 -175.5t147 -68.5z" />
    <glyph glyph-name="uni043F" unicode="&#x43f;" horiz-adv-x="1138" 
d="M86 0l125 999h223l-20 -172l4 -2q155 189 358 189q158 0 217 -102t31 -310l-82 -602h-223l78 584q16 114 -5 170.5t-92 56.5q-46 0 -101 -34t-104.5 -90.5t-88 -140t-50.5 -173.5l-45 -373h-225z" />
    <glyph glyph-name="uni0440" unicode="&#x440;" horiz-adv-x="1169" 
d="M39 -406l172 1405h223l-22 -186l4 -4q137 205 350 205q104 0 178.5 -57.5t108.5 -147.5t34 -201q0 -118 -35 -229.5t-97.5 -199.5t-157 -141.5t-205.5 -53.5q-168 0 -266 88l-4 -2l-60 -476h-223zM535 186q99 0 175.5 59.5t114 150t37.5 194.5q0 96 -38 159.5t-111 63.5
q-120 0 -227 -134.5t-134 -344.5l-6 -49q27 -48 77.5 -73.5t111.5 -25.5z" />
    <glyph glyph-name="uni0441" unicode="&#x441;" horiz-adv-x="1007" 
d="M498 -14q-192 0 -303 108.5t-111 315.5q0 122 36.5 231t102.5 192.5t167 132t222 48.5q119 0 214.5 -43.5t150.5 -124.5l-176 -131q-64 94 -195 94q-130 0 -212.5 -110t-82.5 -271q0 -121 56.5 -179.5t140.5 -58.5q55 0 114.5 26.5t110.5 80.5l176 -127
q-88 -91 -185.5 -137.5t-225.5 -46.5z" />
    <glyph glyph-name="uni0442" unicode="&#x442;" horiz-adv-x="1703" 
d="M88 0l125 999h223l-20 -165l6 -3q149 183 332 183q190 0 233 -180l8 -3q146 183 351 183q153 0 211 -102t30 -310l-82 -602h-225l80 584q14 113 -4 170t-76 57q-38 0 -87 -31.5t-97 -84.5t-87 -135.5t-51 -172.5l-51 -387h-223l78 584q14 113 -4 170t-76 57
q-39 0 -89.5 -34t-98.5 -90.5t-86 -140.5t-50 -173l-45 -373h-225z" />
    <glyph glyph-name="uni0443" unicode="&#x443;" horiz-adv-x="1116" 
d="M821 999h221l-106 -874q-15 -129 -54 -227.5t-89.5 -157.5t-119 -96t-136 -50.5t-146.5 -13.5q-199 0 -346 96l74 195q138 -88 272 -88q67 0 116 14.5t93.5 52t73 110t41.5 181.5l4 35l-4 2q-132 -194 -338 -194q-159 0 -226 96t-38 305l84 614h223l-78 -593
q-15 -120 10 -168t94 -50q61 0 130.5 52t125 148t68.5 206z" />
    <glyph glyph-name="uni0444" unicode="&#x444;" horiz-adv-x="1488" 
d="M520 -406l70 527l-4 2q-106 -139 -236 -139q-136 0 -211.5 116.5t-72.5 309.5q2 91 18 176.5t49 163.5t80 136.5t115.5 93t150.5 34.5q62 0 118.5 -30t82.5 -79l4 2l72 600h223l-82 -637l4 -2q49 71 115 108.5t129 37.5q132 0 207.5 -117t70.5 -309q-2 -91 -18 -176.5
t-49 -163.5t-80 -136.5t-115.5 -93t-150.5 -34.5q-63 0 -119 29.5t-82 78.5l-4 -2l-62 -496h-223zM954 186q60 0 107.5 34t75.5 91t42.5 124t16.5 140q3 110 -29.5 175t-81.5 65q-89 0 -161.5 -140.5t-98.5 -340.5l-6 -49q59 -99 135 -99zM416 180q82 0 153.5 141t96.5 343
l6 49q-58 98 -137 98q-60 0 -107 -34t-75 -91.5t-43 -124t-17 -139.5q-3 -113 31 -177.5t92 -64.5z" />
    <glyph glyph-name="uni0445" unicode="&#x445;" horiz-adv-x="983" 
d="M-14 0l374 510l-245 489h258l137 -321h4l217 321h270l-374 -499l254 -500h-258l-146 328h-4l-231 -328h-256z" />
    <glyph glyph-name="uni0446" unicode="&#x446;" horiz-adv-x="1232" 
d="M1059 188h100l-80 -460h-188l33 268h-13q-86 0 -133 59.5t-47 143.5v4h-4q-61 -95 -154 -157t-196 -62q-159 0 -226 96t-38 305l86 614h223l-80 -593q-17 -120 8.5 -169t95.5 -49q40 0 89.5 29t95.5 77t81.5 121t45.5 152l53 432h225l-80 -653q-7 -45 -4 -74t9 -46
t20.5 -24.5t30.5 -10t38 -3.5h9z" />
    <glyph glyph-name="uni0447" unicode="&#x447;" horiz-adv-x="1048" 
d="M616 0l60 473h-4q-66 -86 -154.5 -130t-175.5 -44q-139 0 -201.5 79t-40.5 232l56 389h223l-51 -374q-9 -67 12.5 -98.5t83.5 -30.5q58 1 123.5 45.5t111 108.5t52.5 122l28 225h228l-123 -997h-228z" />
    <glyph glyph-name="uni0448" unicode="&#x448;" horiz-adv-x="1658" 
d="M362 -16q-148 0 -211.5 105t-33.5 321l84 589h223l-78 -573q-18 -129 8.5 -183.5t89.5 -54.5q23 0 51 10t63 37t65.5 67.5t55.5 110t36 156.5l53 430h225l-73 -593q-14 -119 9 -168.5t83 -49.5q34 0 78.5 30t87.5 80t77.5 127t44.5 161l52 413h225l-123 -999h-225l22 182
h-4q-50 -87 -139 -142.5t-182 -55.5q-91 0 -150.5 54t-70.5 142h-5q-49 -86 -152.5 -141t-185.5 -55z" />
    <glyph glyph-name="uni0449" unicode="&#x449;" horiz-adv-x="1773" 
d="M1599 188h101l-80 -460h-188l32 268h-12q-86 0 -133 59.5t-47 143.5v4h-4q-61 -94 -152.5 -156.5t-189.5 -62.5q-91 0 -150.5 54t-70.5 142h-5q-49 -86 -152.5 -141t-185.5 -55q-148 0 -211.5 105t-33.5 321l84 589h223l-78 -573q-18 -129 8.5 -183.5t89.5 -54.5
q23 0 51 10t63 37t65.5 67.5t55.5 110t36 156.5l53 430h225l-73 -593q-14 -119 9 -168.5t83 -49.5q34 0 78.5 30t87.5 80t77.5 127t44.5 161l52 413h225l-80 -653q-7 -45 -3.5 -74.5t9 -46t20 -24t30 -10t38.5 -3.5h8z" />
    <glyph glyph-name="uni044A" unicode="&#x44a;" horiz-adv-x="1071" 
d="M733 762q114 0 193.5 -78.5t79.5 -212.5q0 -101 -29 -188t-85 -154.5t-145 -106t-202 -38.5q-200 0 -285 107t-59 288l59 424h-215l25 196h440l-57 -366l2 -2q38 52 111.5 91.5t166.5 39.5zM561 180q101 0 159 76t58 176q0 68 -40.5 100.5t-98.5 32.5q-86 0 -146 -58.5
t-73 -141.5q-13 -79 24 -132t117 -53z" />
    <glyph glyph-name="uni044B" unicode="&#x44b;" horiz-adv-x="1429" 
d="M446 -16q-200 0 -285 107t-59 288l86 620h224l-58 -364l2 -2q31 44 106 86.5t159 42.5q114 0 193 -78.5t79 -212.5q0 -135 -49 -243.5t-152.5 -176t-245.5 -67.5zM999 0l123 999h226l-123 -999h-226zM463 180q92 0 147.5 76.5t55.5 175.5q0 67 -39 100t-86 33
q-86 0 -146 -58.5t-73 -141.5q-13 -79 24 -132t117 -53z" />
    <glyph glyph-name="uni044C" unicode="&#x44c;" horiz-adv-x="972" 
d="M446 -16q-200 0 -285 107t-59 288l86 620h224l-58 -366l2 -2q38 52 112 91.5t167 39.5q114 0 193 -78.5t79 -212.5q0 -101 -29 -188t-85 -154.5t-145 -106t-202 -38.5zM463 180q101 0 159 76t58 176q0 68 -40.5 100.5t-98.5 32.5q-86 0 -146 -58.5t-73 -141.5
q-13 -79 24 -132t117 -53z" />
    <glyph glyph-name="uni044D" unicode="&#x44d;" horiz-adv-x="993" 
d="M475 1014q199 0 315.5 -109t116.5 -319q0 -170 -64.5 -305t-190 -215t-292.5 -80q-107 0 -203 35t-157 106l152 152q35 -44 94 -66.5t127 -22.5q101 0 179 61.5t112 168.5l-439 -4l23 178l438 4q-7 104 -64 157.5t-159 53.5q-45 0 -106 -18.5t-115 -59.5l-125 158
q72 60 168 92.5t190 32.5z" />
    <glyph glyph-name="uni044E" unicode="&#x44e;" horiz-adv-x="1523" 
d="M1042 1014q187 0 300.5 -109t113.5 -303q0 -176 -59.5 -315t-178 -221t-278.5 -82q-184 0 -294 109.5t-114 301.5l-180 -2l-49 -393h-225l123 999h225l-51 -415l178 2q45 188 174 308t315 120zM950 188q117 0 199 107.5t82 267.5q0 113 -53.5 179.5t-147.5 66.5
q-117 0 -198.5 -107.5t-81.5 -267.5q0 -111 52.5 -178.5t147.5 -67.5z" />
    <glyph glyph-name="uni044F" unicode="&#x44f;" horiz-adv-x="1030" 
d="M565 999h383l-123 -999h-223l43 352l-108 -2h-54l-28 -59q-79 -159 -162 -233t-201 -74q-21 0 -53 4l-23 172q80 15 131.5 51t100.5 127l37 70q-55 22 -90.5 63.5t-47.5 82t-12 83.5q0 181 117 271.5t313 90.5zM528 539l140 2l32 262h-143q-86 0 -140.5 -43t-54.5 -117
q0 -107 166 -104z" />
    <glyph glyph-name="uni0450" unicode="&#x450;" horiz-adv-x="980" 
d="M772 1139h-227l-193 297l250 -2zM498 190q68 0 120 25t107 82l176 -127q-93 -95 -185 -139.5t-227 -44.5q-188 0 -296.5 110.5t-108.5 304.5q0 123 35.5 233.5t100.5 195t165.5 134.5t222.5 50q134 0 228 -72.5t94 -198.5q0 -91 -52 -161.5t-144.5 -115t-195.5 -70.5
t-229 -40q11 -81 64.5 -123.5t124.5 -42.5zM598 811q-55 0 -109 -27t-102 -91.5t-68 -155.5q383 45 383 196q0 37 -26.5 57.5t-77.5 20.5z" />
    <glyph glyph-name="uni0451" unicode="&#x451;" horiz-adv-x="980" 
d="M416 1151q-63 0 -105.5 41.5t-42.5 103.5q0 66 44 109t110 43q62 0 103.5 -41t41.5 -104q0 -65 -43.5 -108.5t-107.5 -43.5zM805 1151q-64 0 -106 41.5t-42 103.5q0 66 44 109t110 43q62 0 103.5 -41t41.5 -104q0 -65 -43.5 -108.5t-107.5 -43.5zM930 743
q0 -91 -52 -161.5t-144.5 -115t-195.5 -70.5t-229 -40q11 -81 64.5 -123.5t124.5 -42.5q68 0 120 25t107 82l176 -127q-93 -95 -185 -139.5t-227 -44.5q-188 0 -296.5 110.5t-108.5 304.5q0 123 35.5 233.5t100.5 195t165.5 134.5t222.5 50q134 0 228 -72.5t94 -198.5z
M319 537q383 45 383 196q0 37 -26.5 57.5t-77.5 20.5q-55 0 -109 -27t-102 -91.5t-68 -155.5z" />
    <glyph glyph-name="uni0452" unicode="&#x452;" horiz-adv-x="1122" 
d="M764 938q67 0 118 -22t83.5 -61.5t51.5 -92.5t24 -118t0.5 -133.5t-19.5 -143.5q-27 -132 -80.5 -254t-131.5 -227t-185 -185t-232 -121l-74 154q186 86 305.5 259.5t170.5 414.5q69 327 -109 327q-46 0 -99.5 -34t-102 -91t-86 -141.5t-48.5 -177.5l-35 -291h-225
l139 1120h-139l23 180h139l24 207h224l-27 -207h344l-22 -180h-344l-45 -368l4 -2q151 188 354 188z" />
    <glyph glyph-name="uni0453" unicode="&#x453;" horiz-adv-x="899" 
d="M369 1139l243 295l248 2l-264 -297h-227zM375 -16q-160 1 -241 68.5t-81 176.5q0 106 68.5 182t204.5 146l102 53q118 61 141 80q34 27 33 64q-3 61 -110 61q-106 0 -213 -82l-121 156q63 56 164.5 89.5t195.5 33.5q54 0 104 -11t100.5 -37t81 -77.5t30.5 -122.5
q0 -52 -16.5 -96t-39.5 -73t-62.5 -57.5t-69.5 -44.5t-76 -38q-13 -6 -19 -9l-117 -57q-88 -43 -118.5 -75.5t-30.5 -63.5q0 -36 33 -52t69 -16q141 0 244 103l170 -117q-91 -92 -191.5 -138t-234.5 -46z" />
    <glyph glyph-name="uni0454" unicode="&#x454;" horiz-adv-x="1021" 
d="M528 190q136 0 226 93l176 -127q-85 -88 -182 -129t-230 -41q-198 0 -315 109.5t-117 318.5q0 170 64.5 305t189 215t289.5 80q111 0 213.5 -40t156.5 -120l-176 -131q-35 42 -92 64t-117 22q-96 0 -170.5 -57.5t-109.5 -157.5l426 4l-21 -178l-432 -4
q3 -119 64.5 -172.5t156.5 -53.5z" />
    <glyph glyph-name="uni0455" unicode="&#x455;" horiz-adv-x="874" 
d="M393 -16q-111 0 -212.5 47.5t-153.5 124.5l147 145q43 -57 100.5 -89t118.5 -32q67 0 112.5 26.5t45.5 72.5q0 25 -21.5 46.5t-44.5 33.5t-86 41q-20 9 -30 14q-116 51 -182 121.5t-66 173.5q0 135 100.5 220t245.5 85q98 0 191 -35.5t157 -106.5l-149 -151
q-41 52 -95.5 76t-105.5 24q-53 0 -85 -25.5t-32 -68.5q0 -39 42 -72t122 -71q120 -59 166 -95q99 -78 100 -184q1 -154 -103.5 -237.5t-281.5 -83.5z" />
    <glyph glyph-name="uni0456" unicode="&#x456;" horiz-adv-x="528" 
d="M369 1151q-63 0 -104.5 41.5t-41.5 103.5q0 66 43.5 109t108.5 43q63 0 105 -41t42 -104q0 -65 -43.5 -108.5t-109.5 -43.5zM90 0l123 999h225l-123 -999h-225z" />
    <glyph glyph-name="uni0457" unicode="&#x457;" horiz-adv-x="528" 
d="M186 1151q-60 0 -101.5 42t-41.5 103q0 66 43.5 109t106.5 43q56 0 96.5 -41.5t40.5 -103.5q0 -64 -42.5 -108t-101.5 -44zM551 1151q-60 0 -101.5 42t-41.5 103q0 66 43 109t106 43q56 0 96.5 -41.5t40.5 -103.5q0 -64 -42 -108t-101 -44zM90 0l123 999h225l-123 -999
h-225z" />
    <glyph glyph-name="uni0458" unicode="&#x458;" horiz-adv-x="491" 
d="M338 1151q-63 0 -104 41.5t-41 103.5q0 66 43 109t108 43q63 0 105.5 -41t42.5 -104q0 -65 -44 -108.5t-110 -43.5zM-25 -420q-106 0 -182 47l57 176q38 -30 91 -30q50 0 77 42.5t37 141.5l129 1042h226l-134 -1073q-42 -346 -301 -346z" />
    <glyph glyph-name="uni0459" unicode="&#x459;" horiz-adv-x="1562" 
d="M1231 762q110 0 188 -78.5t78 -212.5q0 -101 -29 -188t-85 -154.5t-145 -106t-202 -38.5q-200 0 -285 107t-59 288l60 424h-101q-65 0 -101 -34t-52 -101q-5 -23 -24.5 -113.5t-37.5 -165.5q-46 -192 -131.5 -297.5t-208.5 -105.5q-80 0 -137 28l55 183q26 -11 49 -11
q116 0 175 281q25 111 41 217q22 139 117 227t233 88h372l-59 -389l2 -2q28 54 112 104t175 50zM1053 180q101 0 159 76t58 176q0 68 -41 100.5t-99 32.5q-86 0 -146 -58.5t-73 -141.5q-13 -79 24.5 -132t117.5 -53z" />
    <glyph glyph-name="uni045A" unicode="&#x45a;" horiz-adv-x="1544" 
d="M1229 762q110 0 188 -78.5t78 -212.5q0 -101 -29 -188t-85 -154.5t-145 -106t-202 -38.5q-200 0 -285 107t-59 288l2 16l-346 -2l-49 -393h-225l123 999h225l-51 -415l350 2l57 413h223l-59 -389l2 -2q28 54 112 104t175 50zM1051 180q101 0 159 76t58 176
q0 68 -41 100.5t-99 32.5q-86 0 -146 -58.5t-73 -141.5q-13 -79 24.5 -132t117.5 -53z" />
    <glyph glyph-name="uni045B" unicode="&#x45b;" horiz-adv-x="1128" 
d="M764 938q158 0 217 -102t31 -310l-70 -526h-225l67 508q14 116 -6 171.5t-90 55.5q-46 0 -100.5 -34t-103 -91t-86 -141.5t-48.5 -177.5l-35 -291h-225l139 1120h-139l23 180h139l24 207h224l-27 -207h344l-22 -180h-344l-45 -368l4 -2q151 188 354 188z" />
    <glyph glyph-name="uni045C" unicode="&#x45c;" horiz-adv-x="1058" 
d="M455 1139l243 295l248 2l-264 -297h-227zM86 0l123 999h223l-63 -530l4 -2q310 191 411 532h228q-29 -137 -106.5 -269t-190.5 -243l53 -135q41 -103 78.5 -140.5t105.5 -51.5l-65 -172q-32 -4 -47 -4q-56 1 -95 18t-72 64t-50.5 83.5t-53.5 122.5q-5 13 -8 19l-20 51
q-97 -69 -205 -117l-27 -225h-223z" />
    <glyph glyph-name="uni045D" unicode="&#x45d;" horiz-adv-x="1118" 
d="M539 1139l-193 297l250 -2l170 -295h-227zM377 -16q-159 0 -226 96t-38 305l86 614h223l-80 -593q-17 -120 8.5 -169t95.5 -49q40 0 90 29t96 78.5t82 123.5t46 154l51 426h225l-123 -999h-225l23 178h-4q-128 -194 -330 -194z" />
    <glyph glyph-name="uni045E" unicode="&#x45e;" horiz-adv-x="1116" 
d="M631 1128q-268 0 -279 285l191 29q0 -77 32 -117.5t84 -40.5q53 0 107.5 44t87.5 120l162 -53q-33 -74 -80.5 -128.5t-100.5 -83.5t-103.5 -42t-100.5 -13zM821 999h221l-106 -874q-15 -129 -54 -227.5t-89.5 -157.5t-119 -96t-136 -50.5t-146.5 -13.5q-199 0 -346 96
l74 195q138 -88 272 -88q67 0 116 14.5t93.5 52t73 110t41.5 181.5l4 35l-4 2q-132 -194 -338 -194q-159 0 -226 96t-38 305l84 614h223l-78 -593q-15 -120 10 -168t94 -50q61 0 130.5 52t125 148t68.5 206z" />
    <glyph glyph-name="uni045F" unicode="&#x45f;" horiz-adv-x="1118" 
d="M811 999h225l-123 -999h-225l23 178h-4q-56 -84 -125 -131l-68 -389h-184l39 326q-154 2 -219.5 98.5t-36.5 302.5l86 614h223l-80 -593q-17 -120 8.5 -169t95.5 -49q40 0 90 29t96 78.5t82 123.5t46 154z" />
    <glyph glyph-name="uni0462" unicode="&#x462;" horiz-adv-x="1343" 
d="M866 895q82 0 148 -14.5t110 -37.5t76.5 -57.5t50 -69t27.5 -77.5t12.5 -77t1.5 -73q-6 -241 -148 -365t-401 -124h-493l133 1081h-299l25 203h299l20 170h242l-21 -170h430l-24 -203h-430l-23 -186h264zM762 217q131 0 204.5 67.5t73.5 194.5q0 105 -49.5 152t-154.5 47
h-261l-57 -461h244z" />
    <glyph glyph-name="uni0463" unicode="&#x463;" horiz-adv-x="1505" 
d="M999 -16q-204 0 -290 114.5t-47 317.5l28 147q23 126 4 187t-73 61q-43 0 -100.5 -55.5t-108.5 -160t-66 -222.5l-47 -373h-225l125 999h223l-21 -172l5 -2q136 189 305 189q131 0 186 -101t16 -292l2 -3q29 50 109.5 97t169.5 47q110 0 188 -78.5t78 -212.5
q0 -101 -29 -188t-85 -154.5t-145 -106t-202 -38.5zM1016 180q101 0 159 76t58 176q0 68 -40.5 100.5t-98.5 32.5q-86 0 -146.5 -58.5t-73.5 -141.5q-13 -79 24.5 -132t117.5 -53z" />
    <glyph glyph-name="uni0472" unicode="&#x472;" horiz-adv-x="1562" 
d="M895 1470q265 0 425.5 -162.5t160.5 -447.5q0 -140 -33 -270t-99 -240t-156.5 -192t-213 -128t-262.5 -46q-263 0 -421.5 163t-158.5 449q0 137 34.5 267t101.5 239.5t158 192t211 129t253 46.5zM868 1253q-160 0 -280.5 -117.5t-173.5 -306.5h823v33q0 180 -93.5 285.5
t-275.5 105.5zM735 203q170 0 295 116t176 308h-823v-29q0 -182 89 -288.5t263 -106.5z" />
    <glyph glyph-name="uni0473" unicode="&#x473;" horiz-adv-x="1099" 
d="M606 1014q194 0 308 -108.5t114 -303.5q0 -130 -35 -242t-101 -196t-168.5 -132t-229.5 -48q-196 0 -309 111t-113 311q0 121 37 231t103.5 194t169 133.5t224.5 49.5zM592 819q-98 0 -170.5 -66t-106.5 -171l492 10q-4 67 -25.5 115t-55 70.5t-66 32t-68.5 9.5zM502 178
q99 0 172 64.5t108 169.5l-491 -9q5 -102 59.5 -163.5t151.5 -61.5z" />
    <glyph glyph-name="uni0474" unicode="&#x474;" horiz-adv-x="1382" 
d="M475 0l-297 1454h254l191 -1124h4l301 833q33 92 69.5 152t79.5 93.5t89 46.5t108 13q58 0 129 -18.5t110 -42.5l-71 -176q-70 31 -117 31q-58 0 -97.5 -42t-76.5 -133l-446 -1087h-230z" />
    <glyph glyph-name="uni0475" unicode="&#x475;" horiz-adv-x="1017" 
d="M293 0l-207 999h233l121 -745h2l191 510q51 136 115.5 193t177.5 57q112 0 176 -64l-60 -182q-65 43 -106 43q-16 0 -29 -8t-22.5 -17t-21.5 -32.5t-18.5 -37.5t-21.5 -50l-280 -666h-250z" />
    <glyph glyph-name="uni048A" unicode="&#x48a;" horiz-adv-x="1497" 
d="M860 1579q-267 0 -278 283l190 18q0 -68 33 -106.5t84 -38.5q52 0 106.5 41.5t87.5 109.5l162 -43q-33 -73 -80.5 -127t-100.5 -82.5t-103 -41.5t-101 -13zM1233 217h217l-10 -92l-215 -406h-162l100 281h-200l122 1001h-4l-735 -1001h-219l178 1454h242l-129 -1032h4
l739 1032h221z" />
    <glyph glyph-name="uni048B" unicode="&#x48b;" horiz-adv-x="1185" 
d="M627 1128q-268 0 -279 285l191 29q0 -77 32 -117.5t84 -40.5q53 0 107.5 44t87.5 120l162 -53q-33 -74 -80.5 -128.5t-100.5 -83.5t-103.5 -42t-100.5 -13zM1059 188h80l-9 -43l-212 -411h-158l106 266q-65 17 -100 72.5t-35 126.5v4h-4q-61 -95 -154 -157t-196 -62
q-159 0 -226 96t-38 305l86 614h223l-80 -593q-17 -120 8.5 -169t95.5 -49q40 0 89.5 29t95.5 77t81.5 121t45.5 152l53 432h225l-80 -653q-7 -45 -4 -74t9 -46t20.5 -24.5t30.5 -10t38 -3.5h9z" />
    <glyph glyph-name="uni048C" unicode="&#x48c;" horiz-adv-x="1226" 
d="M750 895q82 0 148 -14.5t110 -37.5t76.5 -57.5t50 -69t27.5 -77.5t12.5 -77t1.5 -73q-6 -241 -148 -365t-401 -124h-494l135 1102h-186l24 182h185l20 170h242l-21 -170h275l-25 -182h-272l-25 -207h265zM645 217q131 0 205 67.5t74 194.5q0 105 -50 152t-155 47h-260
l-58 -461h244z" />
    <glyph glyph-name="uni048D" unicode="&#x48d;" horiz-adv-x="989" 
d="M655 743q110 0 188.5 -78t78.5 -212q0 -94 -29 -177.5t-85 -149t-145.5 -104t-201.5 -38.5q-200 0 -285 107t-59 288l59 428h-123l19 158h127l12 92h219l-14 -92h293l-19 -148h-295l-33 -225l3 -2q32 54 115.5 103.5t174.5 49.5zM477 180q95 0 156 71.5t61 166.5
q0 63 -36.5 100t-102.5 37q-85 0 -145.5 -56.5t-73.5 -133.5q-13 -79 24 -132t117 -53z" />
    <glyph glyph-name="uni048E" unicode="&#x48e;" horiz-adv-x="1234" 
d="M1206 1063q0 -173 -69 -295.5t-203 -185.5l94 -258l-168 -80l-106 286q-52 -8 -123 -8h-199l-63 -522h-242l178 1454h504q207 0 302 -99t95 -292zM842 791q112 79 112 272q0 79 -54.5 126.5t-145.5 47.5h-234l-61 -498h205h20l-80 224l150 75z" />
    <glyph glyph-name="uni048F" unicode="&#x48f;" horiz-adv-x="1169" 
d="M1087 608q0 -159 -61 -302t-168 -228l90 -215l-157 -78l-93 213q-46 -14 -106 -14q-168 0 -266 88l-4 -2l-60 -476h-223l172 1405h223l-22 -186l4 -4q137 205 350 205q104 0 178.5 -57.5t108.5 -147.5t34 -201zM535 186q47 0 96 17l-92 219l139 72l82 -201
q49 56 75.5 134.5t26.5 162.5q0 96 -38 159.5t-111 63.5q-120 0 -227 -134.5t-134 -344.5l-6 -49q27 -48 77.5 -73.5t111.5 -25.5z" />
    <glyph glyph-name="uni0490" unicode="&#x490;" horiz-adv-x="1097" 
d="M975 1735h203l-62 -498h-596l-151 -1237h-242l178 1454h619z" />
    <glyph glyph-name="uni0491" unicode="&#x491;" horiz-adv-x="825" 
d="M696 1260h176l-55 -457h-407l-97 -803h-227l123 999h436z" />
    <glyph glyph-name="uni0492" unicode="&#x492;" horiz-adv-x="1118" 
d="M1137 1237h-596l-56 -459h357l-25 -182h-354l-74 -596h-242l74 596h-186l24 182h185l82 676h837z" />
    <glyph glyph-name="uni0493" unicode="&#x493;" horiz-adv-x="899" 
d="M432 393q-87 -43 -117 -77t-30 -66q0 -36 33 -52t69 -16q141 0 244 103l170 -117q-91 -92 -191.5 -138t-234.5 -46q-159 0 -240.5 67.5t-81.5 173.5q0 170 217 269l2 2l-139 55l68 147l231 -90q101 50 136 78t34 68q-3 61 -110 61q-106 0 -213 -82l-121 156
q63 56 164.5 89.5t195.5 33.5q53 0 103.5 -11t101 -36.5t81 -76t30.5 -120.5q0 -50 -16 -89t-47 -67t-60 -45.5t-72 -36.5v-4l162 -63l-64 -150l-260 103z" />
    <glyph glyph-name="uni0494" unicode="&#x494;" horiz-adv-x="1273" 
d="M717 819q179 0 302.5 -141t123.5 -377q0 -115 -22.5 -219.5t-70.5 -195.5t-117.5 -158t-168 -105.5t-217.5 -38.5q-71 0 -123 15l33 202q48 -10 82 -10q110 0 192 72.5t121 182.5t39 239q0 144 -66 228.5t-194 84.5q-105 0 -195 -41l-67 -557h-242l178 1454h838l-27 -217
h-596l-57 -471q106 53 254 53z" />
    <glyph glyph-name="uni0495" unicode="&#x495;" horiz-adv-x="1036" 
d="M635 549q150 0 240 -103.5t90 -273.5q0 -271 -151 -431.5t-413 -160.5q-89 0 -145 10l53 185q46 -4 68 -4q165 0 263.5 102t98.5 270q0 99 -46.5 149t-131.5 50q-86 0 -151 -60.5t-74 -119.5l-25 -162h-225l123 999h631l-23 -196h-407l-45 -387h4q41 53 109 93t157 40z
" />
    <glyph glyph-name="uni0496" unicode="&#x496;" horiz-adv-x="1830" 
d="M1589 217h174l-69 -498h-203l22 281h-96l-278 621l-156 -193l-51 -428h-232l54 438l-99 178l-426 -616h-276l543 778l-355 676h277l366 -721l7 2l88 719h231l-90 -719l6 -2l528 721h289l-512 -684z" />
    <glyph glyph-name="uni0497" unicode="&#x497;" horiz-adv-x="1525" 
d="M1391 188h67l-80 -460h-188l33 270q-85 11 -135.5 81.5t-96.5 211.5q-3 10 -10 32.5t-10 36.5q-71 -43 -160 -69l-35 -291h-219l61 489l-4 3q-150 -84 -229 -199.5t-137 -292.5h-228q33 135 115.5 265.5t194.5 236.5l-47 149q-17 53 -36 88.5t-43 56t-48 31t-60 17.5
l62 168q36 4 49 4q114 0 177 -73.5t103 -231.5l19 -76q65 37 137 63l37 301h219l-61 -497l4 -2q160 86 247 208.5t136 290.5h227q-35 -143 -114.5 -275t-190.5 -235q7 -22 23.5 -68.5t23.5 -68.5q34 -100 78 -132t119 -32z" />
    <glyph glyph-name="uni0498" unicode="&#x498;" horiz-adv-x="1173" 
d="M848 778q110 -45 165.5 -134t55.5 -212q0 -203 -138 -322.5t-368 -125.5l-20 -43q62 -20 96.5 -56.5t34.5 -81.5q0 -90 -65.5 -138t-174.5 -48q-74 0 -129 12l8 119q41 -12 95 -12q98 0 98 69q0 25 -27.5 40t-87.5 26l41 121q-136 20 -241.5 83.5t-161.5 155.5l176 162
q46 -87 136.5 -137.5t203.5 -50.5q125 0 198.5 63t73.5 178q0 111 -68.5 157t-197.5 46h-182l28 207h174q123 0 197 60t74 161q0 86 -55 128t-144 42q-76 0 -154.5 -29t-136.5 -81l-149 182q96 80 221.5 115.5t247.5 35.5q188 0 303 -89.5t115 -245.5q0 -113 -65 -208.5
t-177 -144.5v-4z" />
    <glyph glyph-name="uni0499" unicode="&#x499;" horiz-adv-x="919" 
d="M647 526q83 -17 127.5 -72t44.5 -132q0 -152 -103.5 -237.5t-275.5 -96.5l-22 -47q62 -20 96.5 -56.5t34.5 -81.5q0 -90 -65.5 -138t-174.5 -48q-73 0 -129 12l8 119q40 -12 95 -12q98 0 98 69q0 25 -27.5 40t-87.5 26l41 119q-166 15 -295 100l88 195q110 -99 299 -99
q84 0 138.5 39t54.5 103q0 95 -172 92l-164 -2l25 168l129 2q102 1 153 42t51 97q0 40 -35.5 64t-95.5 24q-138 0 -262 -70l-80 183q61 32 158.5 59t200.5 27q147 0 244.5 -67t97.5 -183q0 -82 -58.5 -143.5t-136.5 -90.5v-4z" />
    <glyph glyph-name="uni049A" unicode="&#x49a;" horiz-adv-x="1339" 
d="M1079 217h176l-69 -498h-203l23 281h-101l-284 631l-205 -238l-47 -393h-242l178 1454h242l-86 -696l6 -2l580 698h303l-549 -645z" />
    <glyph glyph-name="uni049B" unicode="&#x49b;" horiz-adv-x="1107" 
d="M965 188h67l-80 -460h-188l33 270q-45 6 -79 27.5t-62 64t-48 85.5t-47 116l-18 53q-101 -72 -207 -119l-27 -225h-223l123 999h223l-63 -530l4 -2q310 191 411 532h228q-57 -272 -295 -510q22 -64 51 -137q41 -99 83 -131.5t114 -32.5z" />
    <glyph glyph-name="uni049C" unicode="&#x49c;" horiz-adv-x="1437" 
d="M1505 1454l-495 -713l333 -741h-272l-272 629l-29 -2l-47 -381h-176l47 379l-150 -4l-75 -621h-242l178 1454h242l-78 -639l149 4l48 385h176l-47 -381h12l412 631h286z" />
    <glyph glyph-name="uni049D" unicode="&#x49d;" horiz-adv-x="1153" 
d="M862 352q41 -103 79 -140.5t106 -51.5l-66 -172q-32 -4 -47 -4q-47 0 -83.5 14.5t-62.5 36.5t-50 64.5t-41 83.5t-40 108l-34 102l-15 -6l-33 -266h-139l25 201q-56 -20 -119 -39l-33 -283h-223l123 999h223l-65 -542l4 -2q34 11 112 49l35 291h141l-24 -195
q98 78 153.5 179t90.5 220h227q-29 -137 -106.5 -269t-190.5 -243z" />
    <glyph glyph-name="uni049E" unicode="&#x49e;" horiz-adv-x="1292" 
d="M1366 1454l-549 -645l381 -809h-276l-285 631l-205 -238l-47 -393h-242l138 1124h-193l23 183h192l19 147h241l-18 -147h176l-23 -183h-176l-45 -366l6 -2l580 698h303z" />
    <glyph glyph-name="uni049F" unicode="&#x49f;" horiz-adv-x="1058" 
d="M768 352q41 -103 78.5 -140.5t105.5 -51.5l-65 -172q-32 -4 -47 -4q-56 1 -95 18t-72 64t-50.5 83.5t-53.5 122.5q-5 13 -8 19l-20 51q-97 -69 -205 -117l-27 -225h-223l141 1151h-116l18 154h119l24 202h224l-25 -202h270l-18 -154h-270l-84 -682l4 -2q310 191 411 532
h228q-29 -137 -106.5 -269t-190.5 -243z" />
    <glyph glyph-name="uni04A0" unicode="&#x4a0;" horiz-adv-x="1427" 
d="M1501 1454l-549 -645l381 -809h-276l-285 631l-205 -238l-47 -393h-241l151 1237h-328l27 217h569l-86 -696l6 -2l580 698h303z" />
    <glyph glyph-name="uni04A1" unicode="&#x4a1;" horiz-adv-x="1175" 
d="M885 352q41 -103 78.5 -140.5t105.5 -51.5l-65 -172q-32 -4 -48 -4q-45 0 -81.5 16t-58.5 32t-50.5 67t-39.5 75.5t-42 102.5q-4 9 -6 14l-21 51q-99 -70 -204 -117l-27 -225h-223l98 803h-256l25 196h479l-64 -530l4 -2q311 191 412 532h227q-29 -137 -106.5 -269
t-190.5 -243z" />
    <glyph glyph-name="uni04A2" unicode="&#x4a2;" horiz-adv-x="1478" 
d="M1401 217l-70 -498h-203l23 281h-211l74 586h-574l-71 -586h-242l178 1454h242l-80 -651h573l80 651h242l-152 -1237h191z" />
    <glyph glyph-name="uni04A3" unicode="&#x4a3;" horiz-adv-x="1236" 
d="M1063 188h100l-80 -460h-188l33 268h-13q-100 0 -154 53.5t-40 173.5l20 172l-381 -2l-49 -393h-225l123 999h225l-51 -415l381 2l51 413h225l-79 -653q-7 -45 -3.5 -74.5t9 -46t20 -24t30 -10t38.5 -3.5h8z" />
    <glyph glyph-name="uni04A4" unicode="&#x4a4;" horiz-adv-x="1687" 
d="M1102 1454h631l-27 -217h-389l-152 -1237h-241l71 586h-555l-71 -586h-242l178 1454h242l-80 -651h555z" />
    <glyph glyph-name="uni04A5" unicode="&#x4a5;" horiz-adv-x="1284" 
d="M1298 999l-22 -196h-277l-96 -803h-227l49 395l-365 -2l-49 -393h-225l123 999h225l-51 -415l365 2l51 413h499z" />
    <glyph glyph-name="uni04A6" unicode="&#x4a6;" horiz-adv-x="2037" 
d="M1481 819q179 0 302.5 -141t123.5 -377q0 -115 -22.5 -219.5t-70.5 -195.5t-117.5 -158t-168 -105.5t-217.5 -38.5q-71 0 -123 15l33 202q48 -10 82 -10q110 0 192 72.5t121 182.5t39 239q0 144 -66 228.5t-194 84.5q-110 0 -197 -43l-70 -555h-239l151 1237h-520
l-151 -1237h-242l178 1454h1004l-86 -688q109 53 258 53z" />
    <glyph glyph-name="uni04A7" unicode="&#x4a7;" horiz-adv-x="1650" 
d="M1016 -420q-90 0 -146 10l54 185q46 -4 67 -4q165 0 264 102t99 270q0 99 -46.5 149t-131.5 50q-86 0 -151.5 -60.5t-74.5 -119.5l-24 -162h-226l78 584q14 116 -6 171.5t-90 55.5q-39 0 -90.5 -34t-100 -90.5t-86.5 -140.5t-49 -173l-45 -373h-225l125 999h223l-20 -172
l4 -2q155 189 340 189q158 0 217 -102t31 -310l-25 -186h4q39 52 106.5 92.5t157.5 40.5q150 0 240 -103.5t90 -273.5q0 -271 -150.5 -431.5t-412.5 -160.5z" />
    <glyph glyph-name="uni04A8" unicode="&#x4a8;" horiz-adv-x="1640" 
d="M1589 51q-32 -29 -97 -48t-138 -19q-182 0 -299 90q-148 -90 -338 -90q-127 0 -236.5 45.5t-188 127t-123 199.5t-44.5 258q0 171 55 327t151 273t236.5 186.5t302.5 69.5q66 0 115 -8l-57 -205q-62 5 -74 5q-130 0 -241 -92.5t-173.5 -240t-62.5 -308.5
q0 -199 106.5 -316t294.5 -117q60 0 113 17l2 4q-129 162 -129 416q0 162 55 309t162 243.5t242 96.5q160 0 245.5 -110t85.5 -298q0 -201 -91.5 -388t-239.5 -290l2 -4q45 -10 82 -10q104 0 204 72zM1210 1065q-64 0 -116 -75.5t-77.5 -177.5t-25.5 -198q0 -189 70 -317
l6 -2q113 99 174.5 256t61.5 326q0 188 -93 188z" />
    <glyph glyph-name="uni04A9" unicode="&#x4a9;" horiz-adv-x="1310" 
d="M1284 92q-136 -106 -330 -106q-133 0 -237 49q-92 -49 -223 -49q-181 0 -301.5 117.5t-120.5 324.5q0 166 75 338.5t211 282.5l154 -125q-213 -210 -213 -490q0 -51 13 -96t40 -82.5t74 -59.5t109 -22q17 0 45 4l2 2q-66 92 -66 256q0 104 26 206t74 185.5t123.5 135
t165.5 51.5q136 0 204.5 -83.5t68.5 -225.5q0 -156 -73 -300.5t-198 -238.5l2 -4h25q144 0 250 114zM897 809q-42 0 -84.5 -65.5t-68 -160t-25.5 -177.5q0 -89 24 -144l2 -2q93 75 151 198.5t58 246.5q0 104 -57 104z" />
    <glyph glyph-name="uni04AA" unicode="&#x4aa;" horiz-adv-x="1390" 
d="M733 213q94 0 186 48t158 128l180 -158q-99 -109 -231 -175t-281 -72l-20 -43q62 -20 96.5 -56.5t34.5 -81.5q0 -90 -65.5 -138t-174.5 -48q-74 0 -129 12l9 119q40 -12 94 -12q98 0 98 69q0 25 -27.5 40t-87.5 26l41 121q-216 32 -346.5 185.5t-130.5 414.5
q0 179 55 339.5t152.5 279.5t240 189t308.5 70q318 0 504 -303l-205 -143q-113 217 -309 217q-110 0 -204 -54.5t-156.5 -145t-98 -207.5t-35.5 -242q0 -178 89.5 -278.5t254.5 -100.5z" />
    <glyph glyph-name="uni04AB" unicode="&#x4ab;" horiz-adv-x="1007" 
d="M508 190q55 0 114.5 26.5t110.5 80.5l176 -127q-81 -85 -170 -130.5t-202 -51.5l-23 -47q62 -20 96.5 -56.5t34.5 -81.5q0 -90 -65 -138t-174 -48q-74 0 -130 12l9 119q41 -12 94 -12q98 0 98 69q0 25 -27.5 40t-87.5 26l41 123q-151 24 -235 129.5t-84 286.5
q0 122 36.5 231t102.5 192.5t167 132t222 48.5q119 0 214.5 -43.5t150.5 -124.5l-176 -131q-64 94 -195 94q-130 0 -212.5 -110t-82.5 -271q0 -121 56.5 -179.5t140.5 -58.5z" />
    <glyph glyph-name="uni04AC" unicode="&#x4ac;" horiz-adv-x="1118" 
d="M1141 1237h-371l-125 -1020h191l-70 -498h-203l23 281h-209l151 1237h-368l24 217h983z" />
    <glyph glyph-name="uni04AD" unicode="&#x4ad;" horiz-adv-x="1785" 
d="M1620 188h100l-80 -460h-188l33 268h-12q-102 0 -157.5 58t-35.5 192l49 319q40 246 -74 246q-37 0 -83.5 -31.5t-90.5 -84.5t-79 -135t-48 -173l-51 -387h-223l78 584q14 113 -4 170t-76 57q-39 0 -88.5 -34t-97 -90.5t-84.5 -140.5t-48 -173l-47 -373h-225l125 999h223
l-20 -165l6 -3q143 183 328 183q190 0 233 -180l8 -3q116 183 330 183q304 0 238 -412l-43 -274q-7 -40 -5 -65.5t9 -40.5t21.5 -21.5t31.5 -9t38 -3.5h9z" />
    <glyph glyph-name="uni04AE" unicode="&#x4ae;" horiz-adv-x="1189" 
d="M410 0l79 643l-339 811h266l217 -582h6l360 582h281l-547 -811l-82 -643h-241z" />
    <glyph glyph-name="uni04AF" unicode="&#x4af;" horiz-adv-x="991" 
d="M256 -406l47 373l-207 1032h232l135 -761h4q98 155 182 356.5t123 404.5h232q-66 -288 -176.5 -526t-297.5 -483l-51 -396h-223z" />
    <glyph glyph-name="uni04B0" unicode="&#x4b0;" horiz-adv-x="1189" 
d="M1280 1454l-516 -766h262l-25 -182h-286l-64 -506h-241l63 506h-291l25 182h264l-321 766h266l217 -582h6l360 582h281z" />
    <glyph glyph-name="uni04B1" unicode="&#x4b1;" horiz-adv-x="991" 
d="M1004 999q-56 -245 -143 -446t-228 -395h170l-19 -158h-254l-51 -406h-223l53 406h-217l19 158h165l-180 841h232l135 -761h4q98 155 182 356.5t123 404.5h232z" />
    <glyph glyph-name="uni04B2" unicode="&#x4b2;" horiz-adv-x="1314" 
d="M1071 217h176l-69 -498h-203l22 281h-106l-248 547h-8l-381 -547h-281l523 735l-326 719h272l238 -545h8l363 545h292l-512 -727z" />
    <glyph glyph-name="uni04B3" unicode="&#x4b3;" horiz-adv-x="1046" 
d="M715 336q48 -90 84.5 -119t103.5 -29h68l-80 -460h-189l33 270q-23 3 -42.5 9.5t-37.5 19.5t-32 24.5t-29.5 34t-25.5 37t-25.5 45.5l-23.5 47t-25 53l-23 49h-4l-225 -317h-256l374 510l-245 489h258l135 -315h4l217 315h272l-372 -499z" />
    <glyph glyph-name="uni04B4" unicode="&#x4b4;" horiz-adv-x="1646" 
d="M1569 217l-70 -498h-203l23 281h-954l153 1237h-360l26 217h897l-26 -217h-297l-125 -1020h504l151 1237h242l-152 -1237h191z" />
    <glyph glyph-name="uni04B5" unicode="&#x4b5;" horiz-adv-x="1232" 
d="M981 1386l-25 -188h-618l24 188h619zM1059 188h100l-80 -460h-188l33 268h-13q-86 0 -133 59.5t-47 143.5v4h-4q-61 -95 -154 -157t-196 -62q-159 0 -226 96t-38 305l86 614h223l-80 -593q-17 -120 8.5 -169t95.5 -49q40 0 89.5 29t95.5 77t81.5 121t45.5 152l53 432h225
l-80 -653q-7 -45 -4 -74t9 -46t20.5 -24.5t30.5 -10t38 -3.5h9z" />
    <glyph glyph-name="uni04B6" unicode="&#x4b6;" horiz-adv-x="1310" 
d="M1233 217l-70 -498h-202l22 281h-209l72 584q-68 -37 -163 -61.5t-187 -24.5q-207 0 -286 113.5t-48 351.5l65 491h238l-64 -504q-15 -129 18 -181t142 -52q155 0 309 69l82 668h242l-152 -1237h191z" />
    <glyph glyph-name="uni04B7" unicode="&#x4b7;" horiz-adv-x="1150" 
d="M977 188h100l-80 -460h-188l33 268h-13q-100 0 -154 53.5t-40 173.5l31 250h-4q-66 -87 -150 -130.5t-170 -43.5q-139 0 -201.5 79t-40.5 232l56 389h223l-51 -374q-9 -67 12.5 -98.5t83.5 -30.5q58 1 121 45.5t105.5 108.5t49.5 122l29 225h227l-82 -651q-7 -45 -4 -74
t9 -46t20.5 -24.5t30.5 -10t38 -3.5h9z" />
    <glyph glyph-name="uni04B8" unicode="&#x4b8;" horiz-adv-x="1284" 
d="M973 1454h241l-178 -1454h-241l71 586q-65 -33 -143 -56l-39 -309h-176l35 279q-16 -2 -47 -2q-207 0 -286 113.5t-48 351.5l65 491h238l-64 -504q-15 -129 18 -181t142 -52h8l37 301h176l-34 -279q81 18 143 47z" />
    <glyph glyph-name="uni04B9" unicode="&#x4b9;" horiz-adv-x="1056" 
d="M748 997h227l-123 -997h-227l59 473h-4q-50 -58 -113 -102l-30 -228h-140l21 168q-52 -10 -96 -10q-125 0 -184 79t-38 230l56 389h223l-51 -374q-9 -74 12 -107.5t84 -32.5q10 0 16 2l39 301h142l-29 -221q51 46 86 101.5t41 103.5z" />
    <glyph glyph-name="uni04BA" unicode="&#x4ba;" horiz-adv-x="1282" 
d="M846 977q212 0 287.5 -119t46.5 -348l-68 -510h-238l60 483q19 148 -13 211.5t-141 63.5q-153 0 -327 -70l-84 -688h-242l178 1454h242l-70 -567q73 37 176 63.5t193 26.5z" />
    <glyph glyph-name="uni04BB" unicode="&#x4bb;" horiz-adv-x="1138" 
d="M86 0l186 1507h224l-84 -680l4 -2q152 189 360 189q158 0 217 -102t31 -310l-82 -602h-225l80 584q16 114 -5 170.5t-92 56.5q-46 0 -101 -34.5t-105 -91.5t-88.5 -142t-49.5 -176l-45 -367h-225z" />
    <glyph glyph-name="uni04BC" unicode="&#x4bc;" horiz-adv-x="1687" 
d="M1626 662h-1018q-2 -20 -2 -62q0 -192 93.5 -291.5t250.5 -99.5q195 0 344 180l181 -158q-103 -114 -241 -180.5t-294 -66.5q-272 0 -425 161t-153 449q0 34 3 68q-147 2 -229.5 60.5t-82.5 178.5q0 68 25.5 133.5t66.5 102.5l179 -54q-54 -90 -54 -137q0 -74 125 -74
q32 129 92.5 237t145.5 189t200.5 126.5t249.5 45.5q259 0 413.5 -161t154.5 -441q0 -24 -1 -45.5t-4.5 -45t-5.5 -36t-7 -41.5t-7 -38zM1065 1245q-143 0 -252 -103t-164 -270h762q-3 181 -96 277t-250 96z" />
    <glyph glyph-name="uni04BD" unicode="&#x4bd;" horiz-adv-x="1167" 
d="M684 190q68 0 120 25t107 82l176 -127q-94 -95 -185.5 -139.5t-225.5 -44.5q-172 0 -278.5 93t-123.5 259h-8q-124 -7 -191 48t-67 157q0 97 70 198l153 -34q-45 -92 -45 -138q0 -61 90 -61h3q16 97 57.5 186.5t105 161.5t155.5 115t198 43q133 0 227 -72.5t94 -198.5
q0 -89 -52.5 -159.5t-144 -115.5t-196.5 -72.5t-229 -41.5q16 -82 68 -123t122 -41zM784 811q-93 0 -176 -80.5t-110 -208.5q77 11 143 28t124 42t91 61.5t33 79.5q0 37 -27 57.5t-78 20.5z" />
    <glyph glyph-name="uni04BE" unicode="&#x4be;" horiz-adv-x="1687" 
d="M1626 662h-1018q-2 -20 -2 -62q0 -192 93.5 -291.5t250.5 -99.5q195 0 344 180l181 -158q-183 -202 -435 -239l-39 -273h-202l20 273q-218 35 -337.5 191.5t-119.5 410.5q0 34 3 68q-147 2 -229.5 60.5t-82.5 178.5q0 68 25.5 133.5t66.5 102.5l179 -54q-54 -90 -54 -137
q0 -74 125 -74q32 129 92.5 237t145.5 189t200.5 126.5t249.5 45.5q259 0 413.5 -161t154.5 -441q0 -24 -1 -45.5t-4.5 -45t-5.5 -36t-7 -41.5t-7 -38zM1065 1245q-143 0 -252 -103t-164 -270h762q-3 181 -96 277t-250 96z" />
    <glyph glyph-name="uni04BF" unicode="&#x4bf;" horiz-adv-x="1167" 
d="M684 190q68 0 120 25t107 82l176 -127q-77 -78 -150.5 -121.5t-168.5 -56.5l-37 -264h-186l26 268q-128 26 -205 114.5t-92 227.5h-8q-124 -7 -191 48t-67 157q0 97 70 198l153 -34q-45 -92 -45 -138q0 -61 90 -61h3q16 97 57.5 186.5t105 161.5t155.5 115t198 43
q133 0 227 -72.5t94 -198.5q0 -89 -52.5 -159.5t-144 -115.5t-196.5 -72.5t-229 -41.5q16 -82 68 -123t122 -41zM784 811q-93 0 -176 -80.5t-110 -208.5q77 11 143 28t124 42t91 61.5t33 79.5q0 37 -27 57.5t-78 20.5z" />
    <glyph glyph-name="uni04C0" unicode="&#x4c0;" horiz-adv-x="636" 
d="M135 0l178 1454h244l-178 -1454h-244z" />
    <glyph glyph-name="uni04C1" unicode="&#x4c1;" horiz-adv-x="1767" 
d="M1001 1579q-267 0 -278 283l190 18q0 -68 33 -106.5t84 -38.5q52 0 107 41.5t88 109.5l161 -43q-33 -73 -80.5 -127t-100.5 -82.5t-103 -41.5t-101 -13zM1843 1454l-512 -684l359 -770h-273l-278 621l-156 -193l-51 -428h-232l54 438l-99 178l-426 -616h-276l543 778
l-355 676h277l366 -721l7 2l88 719h231l-90 -719l6 -2l528 721h289z" />
    <glyph glyph-name="uni04C2" unicode="&#x4c2;" horiz-adv-x="1470" 
d="M801 1128q-268 0 -279 285l191 29q0 -77 32 -117.5t84 -40.5q53 0 107.5 44t87.5 120l162 -53q-33 -74 -80.5 -128.5t-100.5 -83.5t-103.5 -42t-100.5 -13zM1194 352q35 -101 74.5 -139t109.5 -53l-65 -172q-32 -4 -47 -4q-109 0 -168 73t-107 234l-20 69
q-71 -43 -160 -69l-35 -291h-219l61 489l-4 3q-150 -84 -229 -199.5t-137 -292.5h-228q33 135 115.5 265.5t194.5 236.5l-47 147q-17 53 -36 88.5t-43 56t-48 31t-60 17.5l62 168q36 4 49 4q114 0 177 -73.5t103 -231.5l19 -74q65 37 137 63l37 301h219l-61 -497l4 -2
q160 86 247 208.5t136 290.5h227q-35 -143 -114.5 -275t-190.5 -235z" />
    <glyph glyph-name="uni04C3" unicode="&#x4c3;" horiz-adv-x="1325" 
d="M772 776q185 -33 297.5 -177.5t112.5 -336.5q0 -109 -22.5 -208t-70.5 -185t-117.5 -149.5t-168 -99.5t-217.5 -36q-70 0 -123 15l33 202q48 -10 82 -10q83 0 151 38.5t111 102.5t66.5 145t23.5 169q0 90 -33 156.5t-92.5 103.5t-131 54.5t-157.5 17.5q-36 0 -70 -3
l-77 -575h-242l178 1454h242l-86 -696l6 -2l580 698h303z" />
    <glyph glyph-name="uni04C4" unicode="&#x4c4;" horiz-adv-x="1067" 
d="M711 485q110 -29 177.5 -130t67.5 -232q0 -153 -66.5 -275.5t-195.5 -195t-301 -72.5q-89 0 -145 10l53 185q46 -4 68 -4q163 0 262.5 97t99.5 245q0 106 -57 167t-139 74q-91 -68 -197 -114l-29 -240h-223l123 999h223l-63 -530l4 -2q310 191 411 532h228
q-28 -138 -108.5 -271.5t-192.5 -242.5z" />
    <glyph glyph-name="uni04C5" unicode="&#x4c5;" horiz-adv-x="1460" 
d="M1194 217h217l-10 -92l-215 -406h-162l100 281h-196l151 1237h-372q-61 -363 -115 -616q-35 -164 -75 -276t-95.5 -196t-130.5 -123.5t-174 -39.5q-74 0 -144 24l37 199q30 -6 68 -6q58 0 104 36t80.5 109t59.5 157.5t51 207.5q69 316 133 741h842z" />
    <glyph glyph-name="uni04C6" unicode="&#x4c6;" horiz-adv-x="1148" 
d="M1022 188h80l-8 -43l-213 -411h-158l106 264q-79 11 -120.5 66t-28.5 159l72 580h-95q-65 0 -101 -33.5t-54 -101.5q-11 -39 -20 -78t-21.5 -95.5t-24.5 -105.5q-46 -192 -131.5 -297.5t-208.5 -105.5q-80 0 -137 28l55 183q26 -11 49 -11q116 0 175 281q25 111 41 217
q22 139 117 227t233 88h370l-79 -653q-7 -45 -3.5 -74.5t9 -46t20 -24t30 -10t38.5 -3.5h8z" />
    <glyph glyph-name="uni04C7" unicode="&#x4c7;" horiz-adv-x="1431" 
d="M1120 1454h242l-178 -1454q-14 -118 -54 -201t-101.5 -129t-133 -66t-160.5 -20q-68 0 -123 15l33 194q52 -10 82 -10q102 0 151 55t62 162l72 586h-572l-71 -586h-242l178 1454h242l-80 -651h573z" />
    <glyph glyph-name="uni04C8" unicode="&#x4c8;" horiz-adv-x="1134" 
d="M827 999h226l-123 -999q-27 -213 -133 -316.5t-271 -103.5q-56 0 -106 17l37 172q40 -5 43 -5q161 0 205 236l49 395l-394 -2l-49 -393h-225l123 999h225l-51 -415l393 2z" />
    <glyph glyph-name="uni04C9" unicode="&#x4c9;" horiz-adv-x="1474" 
d="M1210 217h217l-10 -92l-215 -406h-162l101 281h-201l74 586h-574l-71 -586h-242l178 1454h242l-80 -651h573l80 651h242z" />
    <glyph glyph-name="uni04CA" unicode="&#x4ca;" horiz-adv-x="1189" 
d="M1063 188h80l-8 -43l-213 -411h-158l106 264q-79 11 -120.5 66t-28.5 159l20 172l-381 -2l-49 -393h-225l123 999h225l-51 -415l381 2l51 413h225l-79 -653q-7 -45 -3.5 -74.5t9 -46t20 -24t30 -10t38.5 -3.5h8z" />
    <glyph glyph-name="uni04CB" unicode="&#x4cb;" horiz-adv-x="1263" 
d="M952 1454h242l-178 -1454h-223l-50 -281h-202l57 498h203l45 367q-68 -37 -163 -61.5t-187 -24.5q-207 0 -286 113.5t-48 351.5l65 491h238l-64 -504q-15 -129 18 -181t142 -52q155 0 309 69z" />
    <glyph glyph-name="uni04CC" unicode="&#x4cc;" horiz-adv-x="1048" 
d="M739 997h228l-123 -997h-185q-52 0 -61 -49l-37 -223h-188l33 245q21 183 157 193l76 6l37 301h-4q-66 -86 -154.5 -130t-175.5 -44q-139 0 -201.5 79t-40.5 232l56 389h223l-51 -374q-9 -67 12.5 -98.5t83.5 -30.5q58 1 123.5 45.5t111 108.5t52.5 122z" />
    <glyph glyph-name="uni04CD" unicode="&#x4cd;" horiz-adv-x="1746" 
d="M1481 217h217l-10 -92l-215 -406h-162l100 281h-199l115 952l-6 2l-410 -673h-166l-251 708l-5 -2l-120 -987h-242l178 1454h246l311 -870h6l523 870h241z" />
    <glyph glyph-name="uni04CE" unicode="&#x4ce;" horiz-adv-x="1382" 
d="M1255 188h80l-8 -43l-213 -411h-158l107 266q-78 10 -118 64t-27 159l49 391h-2l-285 -444h-143l-162 459h-2l-78 -629h-219l123 999h227l213 -579h4l365 579h225l-80 -653q-7 -45 -3.5 -74.5t9 -46t20 -24t30 -10t38.5 -3.5h8z" />
    <glyph glyph-name="uni04CF" unicode="&#x4cf;" horiz-adv-x="526" 
d="M96 0l185 1507h225l-187 -1507h-223z" />
    <glyph glyph-name="uni04D0" unicode="&#x4d0;" horiz-adv-x="1325" 
d="M799 1579q-268 0 -279 283l191 18q0 -68 32.5 -106.5t83.5 -38.5q52 0 107 41.5t88 109.5l162 -43q-33 -73 -80.5 -127t-100.5 -82.5t-103 -41.5t-101 -13zM-8 0l663 1454h252l307 -1454h-251l-60 315h-524l-137 -315h-250zM469 526h393l-119 625h-4z" />
    <glyph glyph-name="uni04D1" unicode="&#x4d1;" horiz-adv-x="1150" 
d="M664 1128q-268 0 -279 285l190 29q0 -77 32.5 -117.5t84.5 -40.5q53 0 107.5 44t87.5 120l162 -53q-33 -74 -80.5 -128.5t-100.5 -83.5t-103.5 -42t-100.5 -13zM424 -16q-170 0 -257 113.5t-87 291.5q0 118 35.5 230.5t97.5 200t155.5 141t202.5 53.5q170 0 263 -96l6 2
l10 77h223l-123 -997h-223l23 182l-7 2q-68 -98 -153 -149t-166 -51zM467 182q110 0 213 139t131 359l4 37q-44 42 -106 67t-121 25q-84 0 -150 -64.5t-98.5 -160t-32.5 -199.5q0 -94 41.5 -148.5t118.5 -54.5z" />
    <glyph glyph-name="uni04D2" unicode="&#x4d2;" horiz-adv-x="1325" 
d="M633 1624q-63 0 -105.5 41.5t-42.5 103.5q0 66 44 109t110 43q62 0 103.5 -41t41.5 -104q0 -65 -43.5 -108.5t-107.5 -43.5zM1022 1624q-64 0 -106 41.5t-42 103.5q0 66 44 109t110 43q62 0 104 -41t42 -104q0 -64 -44 -108t-108 -44zM-8 0l663 1454h252l307 -1454h-251
l-60 315h-524l-137 -315h-250zM469 526h393l-119 625h-4z" />
    <glyph glyph-name="uni04D3" unicode="&#x4d3;" horiz-adv-x="1150" 
d="M498 1151q-63 0 -105.5 41.5t-42.5 103.5q0 66 44 109t110 43q62 0 103.5 -41t41.5 -104q0 -65 -43.5 -108.5t-107.5 -43.5zM887 1151q-64 0 -106 41.5t-42 103.5q0 66 44 109t110 43q62 0 103.5 -41t41.5 -104q0 -65 -43.5 -108.5t-107.5 -43.5zM424 -16
q-170 0 -257 113.5t-87 291.5q0 118 35.5 230.5t97.5 200t155.5 141t202.5 53.5q170 0 263 -96l6 2l10 77h223l-123 -997h-223l23 182l-7 2q-68 -98 -153 -149t-166 -51zM467 182q110 0 213 139t131 359l4 37q-44 42 -106 67t-121 25q-84 0 -150 -64.5t-98.5 -160
t-32.5 -199.5q0 -94 41.5 -148.5t118.5 -54.5z" />
    <glyph glyph-name="uni04D4" unicode="&#x4d4;" horiz-adv-x="1794" 
d="M-47 0l833 1454h973l-26 -217h-605l-51 -406h498l-29 -217h-495l-47 -397h641l-27 -217h-877l39 315h-387l-176 -315h-264zM510 526h297l82 674h-4z" />
    <glyph glyph-name="uni04D5" unicode="&#x4d5;" horiz-adv-x="1425" 
d="M995 193q112 0 195 104l176 -127q-151 -182 -379 -182q-132 0 -223 58t-127 167q-44 -106 -121 -167.5t-176 -61.5q-137 0 -216.5 107t-74.5 267q2 125 40.5 241t105 205t164.5 142t212 53q147 0 252 -71q116 86 275 86q128 0 212.5 -72.5t84.5 -187.5q0 -171 -161 -273
t-446 -127q13 -79 70 -120t137 -41zM1073 811q-80 0 -162 -78t-112 -207q176 23 272 80t96 137q0 28 -24 48t-70 20zM369 182q21 0 39.5 8t36 27.5t30.5 36t28.5 51.5t24 54t22.5 63t19 59.5t19 61.5q35 135 98 237q-50 15 -92 15q-73 0 -134.5 -40t-101 -106t-61 -148
t-21.5 -167q0 -72 26.5 -112t66.5 -40z" />
    <glyph glyph-name="uni04D6" unicode="&#x4d6;" horiz-adv-x="1177" 
d="M741 1579q-267 0 -278 283l190 18q0 -68 33 -106.5t84 -38.5q52 0 107 41.5t88 109.5l161 -43q-33 -73 -80.5 -127t-100.5 -82.5t-103 -41.5t-101 -13zM127 0l178 1454h838l-29 -217h-596l-49 -408h481l-26 -217h-482l-49 -395h635l-27 -217h-874z" />
    <glyph glyph-name="uni04D7" unicode="&#x4d7;" horiz-adv-x="980" 
d="M582 1128q-268 0 -279 285l191 29q0 -77 32 -117.5t84 -40.5q53 0 107.5 44t87.5 120l162 -53q-33 -74 -80.5 -128.5t-100.5 -83.5t-103.5 -42t-100.5 -13zM930 743q0 -91 -52 -161.5t-144.5 -115t-195.5 -70.5t-229 -40q11 -81 64.5 -123.5t124.5 -42.5q68 0 120 25
t107 82l176 -127q-93 -95 -185 -139.5t-227 -44.5q-188 0 -296.5 110.5t-108.5 304.5q0 123 35.5 233.5t100.5 195t165.5 134.5t222.5 50q134 0 228 -72.5t94 -198.5zM319 537q383 45 383 196q0 37 -26.5 57.5t-77.5 20.5q-55 0 -109 -27t-102 -91.5t-68 -155.5z" />
    <glyph glyph-name="uni04D8" unicode="&#x4d8;" horiz-adv-x="1472" 
d="M827 1470q262 0 416 -162t154 -448q0 -140 -31.5 -270t-93.5 -240t-148.5 -192t-204 -128t-251.5 -46q-260 0 -415 159.5t-155 434.5q0 73 25 200h1018q4 50 4 76q0 192 -93.5 291.5t-250.5 99.5q-187 0 -355 -133l-141 180q115 88 240 133t282 45zM686 209q138 0 246 99
t166 259h-758q4 -172 97 -265t249 -93z" />
    <glyph glyph-name="uni04D9" unicode="&#x4d9;" horiz-adv-x="950" 
d="M479 1014q185 0 297.5 -117.5t112.5 -314.5q0 -170 -57.5 -302.5t-179 -213t-292.5 -80.5q-144 0 -232.5 75.5t-88.5 202.5q0 79 34.5 142.5t92 106.5t140 74.5t170.5 48.5t192 26q-14 69 -64.5 108t-130.5 39q-43 0 -104.5 -20t-116.5 -64l-125 158q72 62 167 96.5
t185 34.5zM379 190q114 0 185 76t95 205q-115 -9 -200.5 -32t-139 -65.5t-53.5 -99.5q0 -84 113 -84z" />
    <glyph glyph-name="uni04DA" unicode="&#x4da;" horiz-adv-x="1472" 
d="M741 1624q-63 0 -105 41.5t-42 103.5q0 66 44 109t110 43q62 0 103.5 -41t41.5 -104q0 -64 -43.5 -108t-108.5 -44zM1130 1624q-64 0 -105.5 41.5t-41.5 103.5q0 66 44 109t110 43q62 0 103.5 -41t41.5 -104q0 -64 -44 -108t-108 -44zM827 1470q262 0 416 -162t154 -448
q0 -140 -31.5 -270t-93.5 -240t-148.5 -192t-204 -128t-251.5 -46q-260 0 -415 159.5t-155 434.5q0 73 25 200h1018q4 50 4 76q0 192 -93.5 291.5t-250.5 99.5q-187 0 -355 -133l-141 180q115 88 240 133t282 45zM686 209q138 0 246 99t166 259h-758q4 -172 97 -265t249 -93
z" />
    <glyph glyph-name="uni04DB" unicode="&#x4db;" horiz-adv-x="950" 
d="M377 1151q-63 0 -105.5 41.5t-42.5 103.5q0 66 44 109t110 43q62 0 103.5 -41t41.5 -104q0 -65 -43.5 -108.5t-107.5 -43.5zM766 1151q-64 0 -106 41.5t-42 103.5q0 66 44 109t110 43q62 0 104 -41t42 -104q0 -65 -44 -108.5t-108 -43.5zM479 1014q185 0 297.5 -117.5
t112.5 -314.5q0 -170 -57.5 -302.5t-179 -213t-292.5 -80.5q-144 0 -232.5 75.5t-88.5 202.5q0 79 34.5 142.5t92 106.5t140 74.5t170.5 48.5t192 26q-14 69 -64.5 108t-130.5 39q-43 0 -104.5 -20t-116.5 -64l-125 158q72 62 167 96.5t185 34.5zM379 190q114 0 185 76
t95 205q-115 -9 -200.5 -32t-139 -65.5t-53.5 -99.5q0 -84 113 -84z" />
    <glyph glyph-name="uni04DC" unicode="&#x4dc;" horiz-adv-x="1767" 
d="M836 1624q-63 0 -105.5 41.5t-42.5 103.5q0 66 44 109t110 43q62 0 103.5 -41t41.5 -104q0 -65 -43.5 -108.5t-107.5 -43.5zM1225 1624q-64 0 -106 41.5t-42 103.5q0 66 44 109t110 43q62 0 103.5 -41t41.5 -104q0 -65 -43.5 -108.5t-107.5 -43.5zM1843 1454l-512 -684
l359 -770h-273l-278 621l-156 -193l-51 -428h-232l54 438l-99 178l-426 -616h-276l543 778l-355 676h277l366 -721l7 2l88 719h231l-90 -719l6 -2l528 721h289z" />
    <glyph glyph-name="uni04DD" unicode="&#x4dd;" horiz-adv-x="1470" 
d="M635 1151q-63 0 -105.5 41.5t-42.5 103.5q0 66 44 109t110 43q62 0 103.5 -41t41.5 -104q0 -65 -43.5 -108.5t-107.5 -43.5zM1024 1151q-64 0 -105.5 41.5t-41.5 103.5q0 66 43.5 109t109.5 43q62 0 104 -41t42 -104q0 -65 -44 -108.5t-108 -43.5zM1194 352
q35 -101 74.5 -139t109.5 -53l-65 -172q-32 -4 -47 -4q-109 0 -168 73t-107 234l-20 69q-71 -43 -160 -69l-35 -291h-219l61 489l-4 3q-150 -84 -229 -199.5t-137 -292.5h-228q33 135 115.5 265.5t194.5 236.5l-47 147q-17 53 -36 88.5t-43 56t-48 31t-60 17.5l62 168
q36 4 49 4q114 0 177 -73.5t103 -231.5l19 -74q65 37 137 63l37 301h219l-61 -497l4 -2q160 86 247 208.5t136 290.5h227q-35 -143 -114.5 -275t-190.5 -235z" />
    <glyph glyph-name="uni04DE" unicode="&#x4de;" horiz-adv-x="1173" 
d="M535 1624q-63 0 -105.5 41.5t-42.5 103.5q0 66 44 109t110 43q62 0 103.5 -41t41.5 -104q0 -65 -43.5 -108.5t-107.5 -43.5zM924 1624q-64 0 -106 41.5t-42 103.5q0 66 44 109t110 43q62 0 103.5 -41t41.5 -104q0 -65 -43.5 -108.5t-107.5 -43.5zM541 -16q-172 0 -308 68
t-204 179l176 162q46 -87 136.5 -137.5t203.5 -50.5q125 0 198.5 63t73.5 178q0 111 -68.5 157t-197.5 46h-182l28 207h174q123 0 197 60t74 161q0 86 -55 128t-144 42q-76 0 -154.5 -29t-136.5 -81l-149 182q96 80 221.5 115.5t247.5 35.5q188 0 303 -89.5t115 -245.5
q0 -113 -65 -208.5t-177 -144.5v-4q110 -45 165.5 -134t55.5 -212q0 -208 -144.5 -328t-383.5 -120z" />
    <glyph glyph-name="uni04DF" unicode="&#x4df;" horiz-adv-x="919" 
d="M352 1151q-63 0 -105 41.5t-42 103.5q0 66 43.5 109t109.5 43q62 0 104 -41t42 -104q0 -65 -44 -108.5t-108 -43.5zM741 1151q-64 0 -105.5 41.5t-41.5 103.5q0 66 44 109t110 43q62 0 103.5 -41t41.5 -104q0 -65 -43.5 -108.5t-108.5 -43.5zM389 -14q-220 0 -377 104
l88 195q110 -99 299 -99q84 0 138.5 39t54.5 103q0 95 -172 92l-164 -2l25 168l129 2q102 1 153 42t51 97q0 40 -35.5 64t-95.5 24q-138 0 -262 -70l-80 183q61 32 158.5 59t200.5 27q147 0 244.5 -67t97.5 -183q0 -82 -58.5 -143.5t-136.5 -90.5v-4q83 -17 127.5 -72
t44.5 -132q0 -163 -118 -249.5t-312 -86.5z" />
    <glyph glyph-name="uni04E0" unicode="&#x4e0;" horiz-adv-x="1161" 
d="M541 -16q-172 0 -308 68t-204 179l176 162q46 -87 136.5 -137.5t203.5 -50.5q125 0 198.5 63t73.5 178q0 123 -93.5 172.5t-274.5 49.5h-99l12 112l433 451l-2 6h-555l26 217h869l-23 -166l-414 -444v-2q178 -22 275.5 -120t97.5 -267q0 -223 -143.5 -347t-384.5 -124z
" />
    <glyph glyph-name="uni04E1" unicode="&#x4e1;" horiz-adv-x="866" 
d="M834 999l-13 -106l-381 -414q64 -2 122 -25t107 -65t78 -111t29 -155q0 -251 -148.5 -397t-389.5 -146q-103 0 -181.5 16t-146.5 60l76 194q61 -37 118.5 -51t139.5 -14q134 0 220.5 88t86.5 233q0 103 -69.5 161.5t-172.5 58.5q-67 0 -116 -15l-46 119l340 375v4h-381
l23 190h705z" />
    <glyph glyph-name="uni04E2" unicode="&#x4e2;" horiz-adv-x="1454" 
d="M596 1632l22 178h562l-23 -178h-561zM127 0l178 1454h242l-129 -1032h4l739 1032h221l-176 -1454h-243l122 1001h-4l-735 -1001h-219z" />
    <glyph glyph-name="uni04E3" unicode="&#x4e3;" horiz-adv-x="1118" 
d="M365 1198l22 188h561l-22 -188h-561zM377 -16q-159 0 -226 96t-38 305l86 614h223l-80 -593q-17 -120 8.5 -169t95.5 -49q40 0 90 29t96 78.5t82 123.5t46 154l51 426h225l-123 -999h-225l23 178h-4q-128 -194 -330 -194z" />
    <glyph glyph-name="uni04E4" unicode="&#x4e4;" horiz-adv-x="1454" 
d="M694 1624q-63 0 -105 41.5t-42 103.5q0 66 43.5 109t109.5 43q62 0 104 -41t42 -104q0 -64 -44 -108t-108 -44zM1083 1624q-64 0 -105.5 41.5t-41.5 103.5q0 66 44 109t110 43q62 0 103.5 -41t41.5 -104q0 -64 -43.5 -108t-108.5 -44zM127 0l178 1454h242l-129 -1032h4
l739 1032h221l-176 -1454h-243l122 1001h-4l-735 -1001h-219z" />
    <glyph glyph-name="uni04E5" unicode="&#x4e5;" horiz-adv-x="1118" 
d="M461 1151q-63 0 -105.5 41.5t-42.5 103.5q0 66 44 109t110 43q62 0 103.5 -41t41.5 -104q0 -65 -43.5 -108.5t-107.5 -43.5zM850 1151q-64 0 -106 41.5t-42 103.5q0 66 44 109t110 43q62 0 103.5 -41t41.5 -104q0 -65 -43.5 -108.5t-107.5 -43.5zM377 -16q-159 0 -226 96
t-38 305l86 614h223l-80 -593q-17 -120 8.5 -169t95.5 -49q40 0 90 29t96 78.5t82 123.5t46 154l51 426h225l-123 -999h-225l23 178h-4q-128 -194 -330 -194z" />
    <glyph glyph-name="uni04E6" unicode="&#x4e6;" horiz-adv-x="1566" 
d="M791 1624q-63 0 -105.5 41.5t-42.5 103.5q0 66 44 109t110 43q62 0 103.5 -41t41.5 -104q0 -65 -43.5 -108.5t-107.5 -43.5zM1180 1624q-64 0 -106 41.5t-42 103.5q0 66 44 109t110 43q62 0 103.5 -41t41.5 -104q0 -65 -43.5 -108.5t-107.5 -43.5zM721 -16
q-266 0 -425 162.5t-159 449.5q0 172 55.5 330.5t153 279t242 192.5t311.5 72q265 0 425.5 -162.5t160.5 -447.5q0 -140 -33 -270t-99 -240t-156.5 -192t-213 -128t-262.5 -46zM739 209q106 0 199.5 54t157 143.5t100.5 206.5t37 241q0 194 -95.5 293.5t-265.5 99.5
q-104 0 -195.5 -55.5t-153.5 -145.5t-98 -206.5t-36 -237.5q0 -192 93 -292.5t257 -100.5z" />
    <glyph glyph-name="uni04E7" unicode="&#x4e7;" horiz-adv-x="1122" 
d="M475 1151q-63 0 -105 41.5t-42 103.5q0 66 43.5 109t109.5 43q62 0 104 -41t42 -104q0 -65 -43.5 -108.5t-108.5 -43.5zM864 1151q-64 0 -105.5 41.5t-41.5 103.5q0 66 43.5 109t109.5 43q62 0 104 -41t42 -104q0 -65 -44 -108.5t-108 -43.5zM504 -16q-194 0 -307 111.5
t-113 310.5q0 163 62.5 300t185 222.5t282.5 85.5q194 0 309 -108.5t115 -303.5q0 -130 -35.5 -242t-101.5 -196t-168 -132t-229 -48zM510 188q133 0 217 114t84 280q0 53 -14 94.5t-35.5 66t-50.5 40t-56 21t-55 5.5q-85 0 -153 -55.5t-103 -141t-35 -180.5
q0 -107 54 -175.5t147 -68.5z" />
    <glyph glyph-name="uni04E8" unicode="&#x4e8;" horiz-adv-x="1562" 
d="M895 1470q265 0 425.5 -162.5t160.5 -447.5q0 -140 -33 -270t-99 -240t-156.5 -192t-213 -128t-262.5 -46q-263 0 -421.5 163t-158.5 449q0 137 34.5 267t101.5 239.5t158 192t211 129t253 46.5zM868 1253q-160 0 -280.5 -117.5t-173.5 -306.5h823v33q0 180 -93.5 285.5
t-275.5 105.5zM735 203q170 0 295 116t176 308h-823v-29q0 -182 89 -288.5t263 -106.5z" />
    </font>
</defs>
</svg>
