<?xml version="1.0" standalone="no"?>
<!DOCTYPE svg PUBLIC "-//W3C//DTD SVG 1.1//EN" "http://www.w3.org/Graphics/SVG/1.1/DTD/svg11.dtd" >
<svg xmlns="http://www.w3.org/2000/svg" xmlns:xlink="http://www.w3.org/1999/xlink" version="1.1">
<metadata>
Created by FontForge 20201107 at Tue Aug  6 05:21:08 2024
 By 
Copyright (c) 2015 by Kostas Bartsokas. All rights reserved.
</metadata>
<defs>
<font id="AvertaStdCY-Extrathin" horiz-adv-x="0" >
  <font-face 
    font-family="Averta Std CY Extrathin"
    font-weight="100"
    font-stretch="normal"
    units-per-em="2048"
    panose-1="0 0 2 0 0 0 0 0 0 0"
    ascent="1638"
    descent="-410"
    x-height="991"
    cap-height="1454"
    bbox="-1352 -524 2738 2118"
    underline-thickness="36"
    underline-position="-159"
    unicode-range="U+000D-2E18"
  />
<missing-glyph horiz-adv-x="899" 
 />
    <glyph glyph-name=".notdef" horiz-adv-x="899" 
 />
    <glyph glyph-name=".null" 
 />
    <glyph glyph-name="nonmarkingreturn" horiz-adv-x="682" 
 />
    <glyph glyph-name="CR" unicode="&#xd;" 
 />
    <glyph glyph-name="space" unicode=" " horiz-adv-x="573" 
 />
    <glyph glyph-name="exclam" unicode="!" horiz-adv-x="389" 
d="M174 369l-8 1138h53l-8 -1138h-37zM195 -8q-26 0 -43 16.5t-17 42.5t17 42t43 16t42.5 -16t16.5 -42t-16.5 -42.5t-42.5 -16.5z" />
    <glyph glyph-name="quotedbl" unicode="&#x22;" horiz-adv-x="501" 
d="M102 1010l72 444h53l-86 -444h-39zM272 1010l72 444h55l-86 -444h-41z" />
    <glyph glyph-name="numbersign" unicode="#" horiz-adv-x="1255" 
d="M297 -51l70 459h-275v45h279l59 383h-299v43h305l72 464h45l-72 -464h398l69 464h45l-71 -464h282v-43h-289l-57 -383h307v-45h-315l-70 -459h-43l70 459h-397l-70 -459h-43zM416 453h397l57 383h-397z" />
    <glyph glyph-name="dollar" unicode="$" horiz-adv-x="1110" 
d="M1010 338q0 -148 -108.5 -244.5t-303.5 -97.5v-252h-47v254q-243 12 -430 190l39 39q88 -86 200 -135t230 -49q161 0 266 78.5t105 216.5q0 32 -4.5 60.5t-16.5 52.5t-23.5 44t-33.5 38.5t-38.5 32.5t-47.5 29t-51 24.5t-58 23t-59 20.5t-64 21q-173 60 -231 89
q-140 70 -174 180q-13 41 -13 91q0 139 100.5 228.5t282.5 89.5h21v260h47v-264q90 -12 184.5 -48t161.5 -85l-35 -39q-72 56 -182 92.5t-197 36.5q-146 0 -239.5 -72t-93.5 -199q0 -53 22 -96.5t48.5 -71t85 -57t94 -43t112.5 -39.5q15 -5 23 -8q175 -59 239 -92
q139 -73 175 -193q14 -48 14 -106z" />
    <glyph glyph-name="percent" unicode="%" horiz-adv-x="1921" 
d="M668 -14l-43 14l624 1468l41 -16zM477 672q-169 0 -284 111t-115 286q0 166 111 279.5t288 113.5q168 0 285 -110t117 -283q0 -168 -112 -282.5t-290 -114.5zM477 717q159 0 258 101t99 251q0 155 -102.5 251.5t-254.5 96.5q-158 0 -256 -99.5t-98 -248.5
q0 -157 101.5 -254.5t252.5 -97.5zM1423 -6q-168 0 -283.5 110t-115.5 285q0 166 111 279.5t288 113.5q170 0 286 -109t116 -284q0 -168 -112 -281.5t-290 -113.5zM1423 37q159 0 258 101t99 251q0 155 -102.5 251.5t-254.5 96.5q-159 0 -257.5 -99.5t-98.5 -248.5
q0 -155 102.5 -253.5t253.5 -98.5z" />
    <glyph glyph-name="ampersand" unicode="&#x26;" horiz-adv-x="1267" 
d="M537 -6q-190 0 -317.5 111t-127.5 292q0 128 81 251t214 186v4l-201 221q0 184 106.5 293.5t291.5 109.5q136 0 233.5 -68t136.5 -184l-45 -18q-33 103 -118 163t-207 60q-166 0 -256 -91.5t-90 -250.5l731 -811h6q108 163 108 381h47q0 -107 -31 -216.5t-93 -199.5v-4
l200 -223h-61l-166 184h-4q-161 -190 -438 -190zM537 39q256 0 405 180v4l-520 576q-123 -57 -203 -168t-80 -234q0 -153 110 -255.5t288 -102.5z" />
    <glyph glyph-name="quotesingle" unicode="'" horiz-adv-x="329" 
d="M102 1010l72 444h53l-86 -444h-39z" />
    <glyph glyph-name="parenleft" unicode="(" horiz-adv-x="473" 
d="M346 -279q-207 435 -207 889q0 247 59 479t160 410l37 -22q-98 -178 -154.5 -401.5t-56.5 -465.5q0 -248 53 -455.5t150 -414.5z" />
    <glyph glyph-name="parenright" unicode=")" horiz-adv-x="473" 
d="M127 -279l-41 19q97 207 150 414.5t53 455.5q0 242 -56.5 465.5t-154.5 401.5l37 22q101 -178 160 -410t59 -479q0 -454 -207 -889z" />
    <glyph glyph-name="asterisk" unicode="*" horiz-adv-x="825" 
d="M389 831l8 285l-243 -151l-23 43l254 135l-256 135l25 41l243 -150l-8 285h47l-8 -285l244 152l22 -43l-254 -135l254 -135l-22 -39l-244 147l8 -285h-47z" />
    <glyph glyph-name="plus" unicode="+" horiz-adv-x="1193" 
d="M573 94v449h-448v45h448v450h45v-450h449v-45h-449v-449h-45z" />
    <glyph glyph-name="comma" unicode="," horiz-adv-x="321" 
d="M74 -262l71 446h56l-86 -446h-41z" />
    <glyph glyph-name="hyphen" unicode="-" horiz-adv-x="825" 
d="M119 606v47h590v-47h-590z" />
    <glyph glyph-name="period" unicode="." horiz-adv-x="352" 
d="M176 -8q-26 0 -42.5 16.5t-16.5 42.5t16.5 42t42.5 16t43 -16t17 -42t-17 -42.5t-43 -16.5z" />
    <glyph glyph-name="slash" unicode="/" horiz-adv-x="763" 
d="M12 -236l-39 21l797 1743l39 -23z" />
    <glyph glyph-name="zero" unicode="0" horiz-adv-x="1245" 
d="M623 -6q-107 0 -198.5 46t-159.5 133t-107 222.5t-39 304.5q0 204 56.5 363.5t172 254.5t275.5 95q107 0 198 -46t159.5 -134t107 -224.5t38.5 -308.5q0 -201 -56 -358.5t-171.5 -252.5t-275.5 -95zM623 41q145 0 249 86.5t154.5 233.5t50.5 339q0 162 -35 290.5
t-96.5 209.5t-143.5 123.5t-179 42.5q-145 0 -249 -87t-155 -235.5t-51 -343.5q0 -160 35 -287t97 -207.5t144 -122.5t179 -42z" />
    <glyph glyph-name="one" unicode="1" horiz-adv-x="655" 
d="M410 0v1346l-332 -252l-29 36l361 277h47v-1407h-47z" />
    <glyph glyph-name="two" unicode="2" horiz-adv-x="993" 
d="M63 0v45l535 518q116 112 179 213.5t63 222.5q0 160 -99.5 263.5t-257.5 103.5q-127 0 -220 -62.5t-144 -181.5l-45 25q56 127 159 196.5t250 69.5q79 0 151.5 -28t129.5 -79t91 -130.5t34 -174.5q0 -121 -62.5 -232t-191.5 -237l-498 -481l2 -4h770v-47h-846z" />
    <glyph glyph-name="three" unicode="3" horiz-adv-x="1024" 
d="M498 -6q-164 0 -281.5 66t-173.5 178l45 22q51 -102 155.5 -160.5t254.5 -58.5q167 0 275 93.5t108 246.5q0 142 -102.5 237t-293.5 95h-135v47h154q86 0 154.5 27t108.5 70.5t60.5 95t20.5 104.5q0 142 -101 225.5t-260 83.5q-234 0 -358 -172l-43 29q138 190 401 190
q176 0 293 -96t117 -260q0 -64 -25.5 -126.5t-83.5 -116t-139 -75.5v-4q132 -36 206.5 -134t74.5 -230q0 -165 -123 -271t-309 -106z" />
    <glyph glyph-name="four" unicode="4" horiz-adv-x="1095" 
d="M776 0v268h-731v47l733 1092h45v-1092h221v-47h-221v-268h-47zM102 315h674v1004z" />
    <glyph glyph-name="five" unicode="5" horiz-adv-x="1083" 
d="M526 874q133 0 239.5 -50t171 -152t64.5 -240q0 -193 -137.5 -315.5t-337.5 -122.5q-146 0 -267 68.5t-177 179.5l45 18q55 -101 161 -160t238 -59q183 0 304.5 109.5t121.5 281.5q0 185 -119.5 290t-306.5 105q-157 0 -282 -86l-45 4l39 664h706v-47h-663l-33 -567
q59 41 135.5 60t142.5 19z" />
    <glyph glyph-name="six" unicode="6" horiz-adv-x="1146" 
d="M614 868q201 0 322 -118t121 -318q0 -184 -129 -311t-334 -127q-209 0 -344 144.5t-135 375.5q0 162 44 308t115 251.5t161.5 187.5t183 128t180.5 61l8 -47q-78 -14 -159.5 -54t-162 -109t-146.5 -158.5t-112.5 -211.5t-58.5 -258l2 -2q67 115 182.5 186.5t261.5 71.5z
M594 41q185 0 299.5 113t114.5 278q0 178 -107 283.5t-287 105.5q-88 0 -164.5 -28t-131.5 -75.5t-93.5 -103.5t-60.5 -120q6 -201 126.5 -327t303.5 -126z" />
    <glyph glyph-name="seven" unicode="7" horiz-adv-x="985" 
d="M61 1407h865v-49l-633 -1374l-45 16l626 1360h-813v47z" />
    <glyph glyph-name="eight" unicode="8" horiz-adv-x="1153" 
d="M571 -6q-212 0 -344.5 113.5t-132.5 277.5q0 141 88 243.5t234 131.5v4q-103 22 -176.5 102.5t-73.5 200.5q0 156 115 251t290 95q185 0 297.5 -98.5t112.5 -247.5q0 -120 -75 -200.5t-179 -102.5v-4q147 -28 234.5 -130.5t87.5 -244.5q0 -172 -137.5 -281.5
t-340.5 -109.5zM571 782q161 0 261 78t100 207q0 135 -101.5 217t-259.5 82q-162 0 -259 -85t-97 -214q0 -130 98.5 -207.5t257.5 -77.5zM571 41q192 0 310 99.5t118 244.5q0 159 -116.5 254.5t-311.5 95.5t-311.5 -95.5t-116.5 -254.5q0 -152 122.5 -248t305.5 -96z" />
    <glyph glyph-name="nine" unicode="9" horiz-adv-x="1159" 
d="M571 1413q208 0 343.5 -148.5t134.5 -396.5q-1 -161 -51 -306t-127 -247t-174 -181.5t-190 -123.5t-177 -59l-6 47q75 14 158 53t170.5 108.5t159.5 159t123 214.5t62 264l-4 2q-68 -116 -190 -190t-283 -74q-187 0 -305.5 116.5t-118.5 304.5q0 92 35 175.5t96 146
t150.5 99t193.5 36.5zM520 582q98 0 188 32.5t170 108.5t121 186q-10 209 -130.5 333t-297.5 124q-191 0 -308.5 -118t-117.5 -290q0 -170 104 -273t271 -103z" />
    <glyph glyph-name="colon" unicode=":" horiz-adv-x="333" 
d="M168 883q-26 0 -42.5 16.5t-16.5 42.5t16.5 41.5t42.5 15.5t42.5 -15.5t16.5 -41.5t-16.5 -42.5t-42.5 -16.5zM168 -8q-26 0 -42.5 16.5t-16.5 42.5t16.5 42t42.5 16t42.5 -16t16.5 -42t-16.5 -42.5t-42.5 -16.5z" />
    <glyph glyph-name="semicolon" unicode=";" horiz-adv-x="356" 
d="M170 883q-26 0 -42.5 16.5t-16.5 42.5t16.5 41.5t42.5 15.5t42.5 -15.5t16.5 -41.5t-16.5 -42.5t-42.5 -16.5zM74 -262l71 446h56l-86 -446h-41z" />
    <glyph glyph-name="less" unicode="&#x3c;" horiz-adv-x="1130" 
d="M1001 133l-878 430v33l878 430v-49l-806 -397l806 -396v-51z" />
    <glyph glyph-name="equal" unicode="=" horiz-adv-x="1138" 
d="M102 772v45h942v-45h-942zM102 313v45h942v-45h-942z" />
    <glyph glyph-name="greater" unicode="&#x3e;" horiz-adv-x="1124" 
d="M150 133v51l806 396l-806 397v49l878 -430v-33z" />
    <glyph glyph-name="question" unicode="?" horiz-adv-x="854" 
d="M367 360v123q0 25 5 49t18.5 50t23 44t34 47t35.5 41.5t42 46.5t40 44q84 89 130 170t46 182q0 142 -93 225.5t-224 83.5q-100 0 -188.5 -46t-143.5 -134l-33 37q63 93 160 143t205 50q164 0 265.5 -104.5t101.5 -254.5q0 -60 -15.5 -115t-46.5 -104.5t-59 -84.5t-72 -81
q-9 -10 -35 -37.5t-35.5 -38t-30.5 -35t-29.5 -37t-22.5 -34t-19.5 -36.5t-10.5 -34t-5 -37v-123h-43zM393 -8q-26 0 -42.5 16.5t-16.5 42.5t16.5 42t42.5 16t43 -16t17 -42t-17 -42.5t-43 -16.5z" />
    <glyph glyph-name="at" unicode="@" horiz-adv-x="1835" 
d="M831 -266q-152 0 -286 55t-230.5 151.5t-152.5 233.5t-56 295q0 76 14 155t46 164.5t79.5 163t119.5 147.5t160 121t207 81t255 30q159 0 296 -51t236 -143t155.5 -227.5t56.5 -297.5q0 -60 -12.5 -126.5t-41.5 -137.5t-70 -127.5t-105 -92.5t-140 -36q-158 0 -158 184
q0 37 4 62l-4 2q-46 -106 -145.5 -165.5t-220.5 -59.5q-154 0 -262.5 109t-108.5 284q0 60 15.5 121t50.5 120t85 104t125 73t164 28q115 0 204.5 -63t127.5 -170h2l23 227h45l-54 -586q-4 -58 -4 -71q0 -50 8.5 -82t25.5 -46.5t34 -19t43 -4.5q66 0 121.5 33t91.5 84
t61 115t36 124.5t11 114.5q0 203 -90 357.5t-247.5 236.5t-358.5 82q-173 0 -316.5 -51.5t-237.5 -135t-158.5 -192t-92.5 -219t-28 -219.5q0 -147 52 -275.5t142 -218.5t215 -142t268 -52q267 0 457 108l29 -39q-206 -116 -486 -116zM842 162q79 0 145.5 27t109.5 70
t73.5 97.5t43.5 107.5t13 103q0 147 -87 243.5t-229 96.5q-98 0 -176.5 -35t-125.5 -92.5t-71 -125t-24 -138.5q0 -153 92 -253.5t236 -100.5z" />
    <glyph glyph-name="A" unicode="A" horiz-adv-x="1310" 
d="M59 0l564 1454h59l569 -1454h-51l-170 432h-751l-168 -432h-52zM297 479h715l-357 918h-4z" />
    <glyph glyph-name="B" unicode="B" horiz-adv-x="1249" 
d="M182 0v1454h418q100 0 180 -18.5t145 -58t100.5 -109.5t35.5 -166q0 -121 -68 -213.5t-196 -126.5v-4q141 -21 237 -115.5t96 -257.5q0 -178 -125.5 -281.5t-375.5 -103.5h-447zM229 782h410q54 0 104.5 9.5t100 32.5t86.5 58.5t59.5 92t22.5 127.5q0 305 -414 305h-369
v-625zM229 47h408q204 0 324 84t120 248q0 171 -115.5 263.5t-328.5 92.5h-408v-688z" />
    <glyph glyph-name="C" unicode="C" horiz-adv-x="1462" 
d="M836 -6q-147 0 -275 48t-225 138t-153 229.5t-56 311.5q0 124 29 235t88 203.5t143 160t199 105t250 37.5q157 0 299.5 -67t255.5 -207l-39 -33q-205 260 -516 260q-157 0 -283.5 -53.5t-208 -147.5t-125 -220t-43.5 -273q0 -162 51.5 -292t141 -214t209 -129t258.5 -45
q312 0 516 256l39 -31q-219 -272 -555 -272z" />
    <glyph glyph-name="D" unicode="D" horiz-adv-x="1445" 
d="M182 0v1454h383q170 0 311.5 -53.5t239 -149.5t151.5 -231t54 -295q0 -214 -91.5 -378t-262.5 -255.5t-396 -91.5h-389zM229 47h340q325 0 514 187t189 491q0 200 -87 355t-248.5 241t-373.5 86h-334v-1360z" />
    <glyph glyph-name="E" unicode="E" horiz-adv-x="1157" 
d="M182 0v1454h844v-47h-797v-655h670v-47h-670v-658h840v-47h-887z" />
    <glyph glyph-name="F" unicode="F" horiz-adv-x="1122" 
d="M182 0v1454h885v-47h-838v-659h723v-48h-723v-700h-47z" />
    <glyph glyph-name="G" unicode="G" horiz-adv-x="1556" 
d="M838 -6q-155 0 -287 54t-225.5 149.5t-146 231.5t-52.5 296q0 216 90 384t252 260.5t369 92.5q321 0 528 -202l-33 -33q-196 188 -495 188q-294 0 -478 -191t-184 -499q0 -201 83.5 -356.5t234.5 -241.5t344 -86q319 0 512 166v444h-551v47h598v-514q-211 -190 -559 -190
z" />
    <glyph glyph-name="H" unicode="H" horiz-adv-x="1417" 
d="M182 0v1454h47v-745h959v745h47v-1454h-47v662h-959v-662h-47z" />
    <glyph glyph-name="I" unicode="I" horiz-adv-x="440" 
d="M197 0v1454h47v-1454h-47z" />
    <glyph glyph-name="J" unicode="J" horiz-adv-x="956" 
d="M434 -6q-92 0 -195.5 50t-185.5 142l29 37q168 -182 352 -182q316 0 316 395v1018h47v-1028q0 -432 -363 -432z" />
    <glyph glyph-name="K" unicode="K" horiz-adv-x="1253" 
d="M182 0v1454h47v-989h4l857 989h63l-596 -688l606 -766h-61l-576 731l-297 -344v-387h-47z" />
    <glyph glyph-name="L" unicode="L" horiz-adv-x="1081" 
d="M182 0v1454h47v-1407h807v-47h-854z" />
    <glyph glyph-name="M" unicode="M" horiz-adv-x="1746" 
d="M182 0v1454h49l641 -1075h5l639 1075h47v-1454h-47v1362h-3l-618 -1045h-43l-621 1045h-2v-1362h-47z" />
    <glyph glyph-name="N" unicode="N" horiz-adv-x="1490" 
d="M182 0v1454h45l1030 -1372h3v1372h47v-1454h-47l-1029 1370h-2v-1370h-47z" />
    <glyph glyph-name="O" unicode="O" horiz-adv-x="1683" 
d="M846 -6q-198 0 -361.5 90.5t-260.5 259.5t-97 385q0 215 97 383.5t260.5 259t361.5 90.5q145 0 275 -53.5t226 -147.5t152.5 -232.5t56.5 -299.5q0 -162 -56.5 -300.5t-152.5 -233t-226 -148t-275 -53.5zM846 41q135 0 256 50t210.5 138.5t142 218t52.5 281.5
q0 151 -52.5 280.5t-142 217.5t-210.5 138t-256 50q-138 0 -261 -50t-213.5 -138t-143 -217.5t-52.5 -280.5q0 -152 52.5 -281.5t143 -218t213.5 -138.5t261 -50z" />
    <glyph glyph-name="P" unicode="P" horiz-adv-x="1191" 
d="M182 0v1454h477q118 0 205.5 -31t140 -87t78 -129t25.5 -163q0 -108 -35.5 -189.5t-100.5 -131t-152.5 -74t-196.5 -24.5h-394v-625h-47zM229 672h392q116 0 202.5 28t137 79.5t74.5 117t24 147.5q0 179 -105.5 271t-281.5 92h-443v-735z" />
    <glyph glyph-name="Q" unicode="Q" horiz-adv-x="1699" 
d="M1579 29l-31 -35l-213 190q-96 -91 -222.5 -140.5t-268.5 -49.5q-158 0 -293 57.5t-227.5 156.5t-144.5 234t-52 287q0 150 52 284.5t144.5 233.5t227.5 157t293 58q146 0 276 -53.5t226.5 -147.5t153 -232.5t56.5 -299.5q0 -306 -188 -510zM176 729q0 -142 49 -268
t135 -219t212 -147t272 -54q269 0 454 176l-208 189l28 36l215 -190q174 190 174 477q0 151 -52.5 280.5t-142 217.5t-211 138t-257.5 50q-146 0 -272 -54t-212 -146.5t-135 -218.5t-49 -267z" />
    <glyph glyph-name="R" unicode="R" horiz-adv-x="1251" 
d="M182 0v1454h477q226 0 338.5 -112.5t112.5 -297.5q0 -199 -116 -301.5t-320 -115.5l450 -627h-57l-451 625h-387v-625h-47zM229 672h394q117 0 203.5 28t137 79.5t74 117t23.5 147.5q0 181 -106 272t-293 91h-433v-735z" />
    <glyph glyph-name="S" unicode="S" horiz-adv-x="1142" 
d="M578 -6q-140 0 -268.5 54t-221.5 165l37 37q75 -102 198 -155.5t259 -53.5q109 0 199 34t147 107t57 174q0 33 -6.5 62t-15.5 52.5t-27 46t-33.5 38.5t-43.5 33.5t-47.5 28.5t-55 27t-57.5 24.5t-63 25t-63 25.5q-172 70 -240 111q-162 99 -179 250q-2 19 -2 40
q0 149 115 245.5t298 96.5q107 0 218 -40t198 -111l-33 -39q-84 68 -185 105.5t-196 37.5q-94 0 -175.5 -32t-136 -101t-54.5 -162q0 -73 28 -128t96.5 -100t112.5 -65.5t146 -60.5q3 -1 4 -2q176 -70 209 -86q149 -70 200 -165q37 -67 37 -157q0 -159 -121.5 -260.5
t-334.5 -101.5z" />
    <glyph glyph-name="T" unicode="T" horiz-adv-x="1110" 
d="M528 0v1407h-477v47h1008v-47h-484v-1407h-47z" />
    <glyph glyph-name="U" unicode="U" horiz-adv-x="1396" 
d="M698 -6q-238 0 -385 157.5t-147 428.5v874h47v-874q0 -251 133 -395t352 -144t353.5 144t134.5 395v874h47v-874q0 -271 -148 -428.5t-387 -157.5z" />
    <glyph glyph-name="V" unicode="V" horiz-adv-x="1290" 
d="M621 0l-560 1454h52l530 -1380h4l531 1380h51l-559 -1454h-49z" />
    <glyph glyph-name="W" unicode="W" horiz-adv-x="2029" 
d="M541 0l-471 1454h51l448 -1384h2l412 1384h64l409 -1384h2l451 1384h51l-471 -1454h-62l-411 1386h-2l-414 -1386h-59z" />
    <glyph glyph-name="X" unicode="X" horiz-adv-x="1236" 
d="M70 0l520 725l-522 729h55l495 -686h3l491 686h59l-522 -729l520 -725h-59l-487 678h-5l-491 -678h-57z" />
    <glyph glyph-name="Y" unicode="Y" horiz-adv-x="1138" 
d="M545 0v662l-508 792h57l471 -739h4l475 739h58l-510 -792v-662h-47z" />
    <glyph glyph-name="Z" unicode="Z" horiz-adv-x="1204" 
d="M115 0v43l889 1362l-3 2h-831v47h895v-47l-887 -1358l2 -2h895v-47h-960z" />
    <glyph glyph-name="bracketleft" unicode="[" horiz-adv-x="530" 
d="M168 -287v1770h289v-43h-246v-1686h246v-41h-289z" />
    <glyph glyph-name="backslash" unicode="\" horiz-adv-x="763" 
d="M772 -236l-797 1741l39 23l797 -1743z" />
    <glyph glyph-name="bracketright" unicode="]" horiz-adv-x="530" 
d="M362 -287h-288v41h245v1686h-245v43h288v-1770z" />
    <glyph glyph-name="asciicircum" unicode="^" horiz-adv-x="927" 
d="M139 1024l299 430h51l299 -430h-57l-268 385l-266 -385h-58z" />
    <glyph glyph-name="underscore" unicode="_" horiz-adv-x="1042" 
d="M-14 -102v45h1073v-45h-1073z" />
    <glyph glyph-name="grave" unicode="`" horiz-adv-x="1040" 
d="M584 1130l-234 261h62l231 -261h-59z" />
    <glyph glyph-name="a" unicode="a" horiz-adv-x="1210" 
d="M584 -6q-135 0 -247 60.5t-178.5 173.5t-66.5 257q0 141 61 258t175 186.5t258 69.5q141 0 256 -77.5t170 -210.5h2v280h45v-991h-45v272h-2q-56 -127 -168 -202.5t-260 -75.5zM584 39q182 0 306 124.5t124 321.5q0 198 -120 333.5t-308 135.5t-317.5 -131t-129.5 -338
q0 -189 124 -317.5t321 -128.5z" />
    <glyph glyph-name="b" unicode="b" horiz-adv-x="1228" 
d="M641 -6q-149 0 -260.5 75t-167.5 201h-2v-270h-45v1507h45v-794h2q57 133 171 209.5t255 76.5q144 0 257 -69.5t173.5 -186.5t60.5 -258q0 -144 -66 -257t-177 -173.5t-246 -60.5zM641 39q130 0 231.5 60t156 161.5t54.5 224.5q0 207 -128 338t-316 131
q-126 0 -224.5 -63.5t-151 -170t-52.5 -235.5q0 -197 124 -321.5t306 -124.5z" />
    <glyph glyph-name="c" unicode="c" horiz-adv-x="1021" 
d="M569 -6q-211 0 -342 140t-131 362q0 221 132 362t343 141q105 0 202.5 -40.5t166.5 -116.5l-35 -35q-56 67 -143.5 107t-190.5 40q-191 0 -309.5 -128.5t-118.5 -329.5q0 -203 118 -330t308 -127q99 0 192 38t152 105l31 -35q-65 -69 -165 -111t-210 -42z" />
    <glyph glyph-name="d" unicode="d" horiz-adv-x="1228" 
d="M590 -6q-136 0 -248 60.5t-179 173.5t-67 257q0 141 61 258t175 186.5t258 69.5q141 0 256 -77.5t170 -212.5h4v798h45v-1507h-45v276h-4q-51 -127 -164.5 -204.5t-261.5 -77.5zM590 39q181 0 305.5 124.5t124.5 321.5q0 129 -53.5 235.5t-152.5 170t-224 63.5
q-190 0 -318.5 -131t-128.5 -338q0 -189 124.5 -317.5t322.5 -128.5z" />
    <glyph glyph-name="e" unicode="e" horiz-adv-x="1089" 
d="M1001 498h-858v-2q0 -199 119.5 -328t304.5 -129q227 0 357 166l34 -27q-138 -184 -387 -184q-208 0 -341.5 142t-133.5 360q0 216 135.5 359.5t335.5 143.5q192 0 313 -134.5t121 -338.5v-28zM567 954q-169 0 -288 -116t-134 -295h809q-11 186 -116 298.5t-271 112.5z
" />
    <glyph glyph-name="f" unicode="f" horiz-adv-x="636" 
d="M215 0v946h-139v45h139v242q0 142 64.5 212.5t175.5 70.5q97 0 194 -54l-8 -45q-92 53 -188 53q-87 0 -140 -57t-53 -180v-242h354v-45h-354v-946h-45z" />
    <glyph glyph-name="g" unicode="g" horiz-adv-x="1200" 
d="M598 -412q-217 0 -405 115l14 47q184 -117 393 -117q202 0 304 108.5t102 289.5v268h-2q-54 -127 -165 -200.5t-264 -73.5q-132 0 -240.5 59.5t-173.5 173t-65 260.5q0 132 59.5 241.5t170.5 174.5t252 65q144 0 257 -71t169 -195h2v258h45v-971q0 -198 -116.5 -315
t-336.5 -117zM575 70q196 0 313.5 126.5t117.5 321.5q0 193 -122 314.5t-306 121.5q-128 0 -228 -59t-153.5 -158t-53.5 -219q0 -200 124 -324t308 -124z" />
    <glyph glyph-name="h" unicode="h" horiz-adv-x="1122" 
d="M166 0v1507h45v-780h2q52 127 162.5 199.5t261.5 72.5q158 0 250 -105.5t92 -295.5v-598h-45v575q0 195 -82.5 287t-214.5 92q-194 0 -310 -127.5t-116 -337.5v-489h-45z" />
    <glyph glyph-name="i" unicode="i" horiz-adv-x="399" 
d="M203 1241q-25 0 -41.5 16t-16.5 39q0 26 16.5 41t41.5 15t40 -15t15 -41q0 -24 -15.5 -39.5t-39.5 -15.5zM176 0v991h45v-991h-45z" />
    <glyph glyph-name="j" unicode="j" horiz-adv-x="360" 
d="M195 1241q-25 0 -41.5 16t-16.5 39q0 26 16.5 41t41.5 15t40 -15t15 -41q0 -24 -15.5 -39.5t-39.5 -15.5zM8 -412q-70 0 -129 29l6 49q54 -33 127 -33q158 0 158 193v1165h45v-1165q0 -238 -207 -238z" />
    <glyph glyph-name="k" unicode="k" horiz-adv-x="989" 
d="M166 0v1507h45v-1220l2 -2l649 706h64l-396 -430l392 -561h-58l-366 524l-287 -309v-215h-45z" />
    <glyph glyph-name="l" unicode="l" horiz-adv-x="397" 
d="M176 0v1507h45v-1507h-45z" />
    <glyph glyph-name="m" unicode="m" horiz-adv-x="1765" 
d="M166 0v991h45v-260h2q51 125 152 196.5t225 71.5q132 0 216.5 -80t111.5 -221h2q46 139 148 220t230 81q165 0 248.5 -115.5t83.5 -316.5v-567h-45v545q0 203 -74.5 306t-212.5 103q-157 0 -263.5 -129.5t-106.5 -335.5v-489h-45v545q0 202 -78 305.5t-215 103.5
q-162 0 -270.5 -129.5t-108.5 -335.5v-489h-45z" />
    <glyph glyph-name="n" unicode="n" horiz-adv-x="1112" 
d="M166 0v991h45v-262h2q53 127 161.5 198.5t252.5 71.5q158 0 250 -105.5t92 -295.5v-598h-45v575q0 195 -82.5 287t-214.5 92q-187 0 -301.5 -128t-114.5 -337v-489h-45z" />
    <glyph glyph-name="o" unicode="o" horiz-adv-x="1185" 
d="M594 -6q-145 0 -260 68.5t-176.5 182.5t-61.5 251q0 101 36.5 193t100.5 160.5t158 109t203 40.5q136 0 248.5 -62.5t180 -178.5t67.5 -262t-67.5 -261.5t-180 -178t-248.5 -62.5zM594 39q190 0 319 128t129 329t-129.5 329.5t-318.5 128.5q-132 0 -236.5 -62.5
t-159.5 -166.5t-55 -229q0 -93 32.5 -176.5t90.5 -145.5t143 -98.5t185 -36.5z" />
    <glyph glyph-name="p" unicode="p" horiz-adv-x="1228" 
d="M166 -406v1397h45v-280h2q57 134 171.5 211t256.5 77q143 0 255.5 -69.5t173 -186.5t60.5 -258q0 -217 -141 -354t-346 -137q-149 0 -261.5 74.5t-168.5 199.5h-2v-674h-45zM643 39q194 0 317 129t123 317q0 207 -127.5 338t-314.5 131q-127 0 -226 -63.5t-151.5 -170
t-52.5 -235.5q0 -197 124.5 -321.5t307.5 -124.5z" />
    <glyph glyph-name="q" unicode="q" horiz-adv-x="1230" 
d="M1022 -406v674h-2q-57 -125 -169.5 -199.5t-258.5 -74.5q-135 0 -247 60.5t-178.5 173.5t-66.5 257q0 141 60.5 258t174.5 186.5t259 69.5q140 0 254.5 -77.5t171.5 -210.5h2v280h45v-1397h-45zM592 39q181 0 305.5 124.5t124.5 321.5q0 198 -120 333.5t-308 135.5
q-190 0 -318.5 -131t-128.5 -338q0 -189 124 -317.5t321 -128.5z" />
    <glyph glyph-name="r" unicode="r" horiz-adv-x="649" 
d="M166 0v991h45v-243h4q45 118 136 184.5t216 66.5q46 0 66 -2v-49q-40 4 -60 4q-164 0 -263 -125.5t-99 -330.5v-496h-45z" />
    <glyph glyph-name="s" unicode="s" horiz-adv-x="849" 
d="M432 -6q-210 0 -362 137l26 37q68 -61 144.5 -95t191.5 -34q131 0 209 62t78 149q0 23 -4.5 43t-11 35.5t-19.5 30.5t-24.5 26t-32 22.5t-35.5 19t-42 18t-44.5 16.5t-49 17t-50.5 18q-48 17 -78 29t-67.5 30t-60 37t-43.5 44t-30.5 56.5t-9.5 69.5q0 101 82 169t202 68
q188 0 324 -118l-31 -33q-69 59 -138.5 81.5t-152.5 22.5q-101 0 -170 -55t-69 -131q0 -39 14.5 -70.5t34 -52t58 -41.5t65 -32t76.5 -29l51 -18q50 -18 74.5 -26.5t63.5 -25.5t58 -30t44 -34t36 -43t19 -52t8 -66q-2 -106 -91 -179t-243 -73z" />
    <glyph glyph-name="t" unicode="t" horiz-adv-x="724" 
d="M418 -6q-68 0 -113 18.5t-68 56.5t-31.5 83t-8.5 110v684h-138v45h138v359l45 6v-365h399v-45h-399v-653q0 -65 5.5 -106.5t23 -78t52 -53t89.5 -16.5q113 0 209 65l12 -45q-96 -65 -215 -65z" />
    <glyph glyph-name="u" unicode="u" horiz-adv-x="1089" 
d="M516 -6q-181 0 -278 117t-97 315v565h45v-542q0 -204 88 -307t242 -103q161 0 269 128.5t108 334.5v489h45v-991h-45v260h-2q-51 -124 -151.5 -195t-223.5 -71z" />
    <glyph glyph-name="v" unicode="v" horiz-adv-x="1011" 
d="M485 0l-426 991h54l393 -921h4l389 921h51l-420 -991h-45z" />
    <glyph glyph-name="w" unicode="w" horiz-adv-x="1540" 
d="M422 0l-352 991h49l325 -911h5l292 911h54l297 -911h4l325 911h49l-352 -991h-49l-297 924h-2l-301 -924h-47z" />
    <glyph glyph-name="x" unicode="x" horiz-adv-x="954" 
d="M68 0l381 496l-386 495h62l350 -456h4l352 456h62l-383 -493l383 -498h-62l-352 455h-2l-350 -455h-59z" />
    <glyph glyph-name="y" unicode="y" horiz-adv-x="1036" 
d="M332 -406l176 416l-453 981h56l419 -921h2l390 921h55l-594 -1397h-51z" />
    <glyph glyph-name="z" unicode="z" horiz-adv-x="894" 
d="M59 0v45l701 899v2h-676v45h739v-41l-702 -903v-2h715v-45h-777z" />
    <glyph glyph-name="braceleft" unicode="{" horiz-adv-x="589" 
d="M422 -287q-85 0 -140 49t-55 134v516q0 26 -1.5 41t-9.5 36.5t-23.5 34t-45.5 23.5t-73 14v45q44 5 73.5 16t45 23t23.5 33.5t9.5 37t1.5 42.5v538q0 80 52 133.5t143 53.5h55v-43h-57q-66 0 -109 -39t-43 -107v-524q0 -87 -25 -129t-102 -55v-4q77 -13 102 -55.5
t25 -129.5v-463q0 -98 37.5 -139t114.5 -41h57v-41h-55z" />
    <glyph glyph-name="bar" unicode="|" horiz-adv-x="493" 
d="M223 -236v1745h45v-1745h-45z" />
    <glyph glyph-name="braceright" unicode="}" horiz-adv-x="589" 
d="M168 -287h-55v41h57q77 0 114.5 41t37.5 139v463q0 87 25 129.5t102 55.5v4q-77 13 -102 55t-25 129v524q0 68 -43 107t-109 39h-57v43h55q90 0 142 -53.5t52 -133.5v-538q0 -34 3.5 -53t17 -42.5t46.5 -37t87 -19.5v-45q-43 -3 -73.5 -14t-46 -23.5t-23.5 -34
t-9.5 -36.5t-1.5 -41v-516q0 -85 -54.5 -134t-139.5 -49z" />
    <glyph glyph-name="asciitilde" unicode="~" horiz-adv-x="1105" 
d="M762 473q-20 0 -42 4t-38.5 9t-41.5 16t-37 17t-40 20.5t-37 19.5q-97 53 -176 53q-119 0 -178 -125l-33 15q66 157 211 157q36 0 76 -10.5t64.5 -21.5t66.5 -31q8 -4 39 -20.5t44 -22.5t38 -16.5t46 -14.5t42 -4q53 0 97 31t69 94l33 -14q-30 -79 -85.5 -117.5
t-117.5 -38.5z" />
    <glyph glyph-name="uni00A0" unicode="&#xa0;" horiz-adv-x="573" 
 />
    <glyph glyph-name="exclamdown" unicode="&#xa1;" horiz-adv-x="389" 
d="M195 999q26 0 42.5 -16.5t16.5 -42.5t-16.5 -41.5t-42.5 -15.5q-27 0 -43.5 15.5t-16.5 41.5t17 42.5t43 16.5zM174 623h37l8 -1139h-53z" />
    <glyph glyph-name="cent" unicode="&#xa2;" horiz-adv-x="1081" 
d="M1016 260q-63 -65 -161 -107.5t-204 -48.5v-233h-45v233q-217 4 -351 144t-134 358t134 358t351 146v256h45v-256q103 -5 197.5 -45t163.5 -113l-35 -32q-61 66 -153.5 105.5t-200.5 39.5q-202 0 -327.5 -128.5t-125.5 -330.5t124.5 -328t326.5 -126q105 0 202.5 38
t159.5 105z" />
    <glyph glyph-name="sterling" unicode="&#xa3;" horiz-adv-x="1122" 
d="M92 0v47h193v705h-148v47h148v176q0 112 30.5 198.5t83.5 138t119.5 77.5t143.5 26q230 0 350 -203l-37 -30q-106 186 -313 186q-151 0 -240.5 -104t-89.5 -295v-170h366v-47h-366v-705h743v-47h-983z" />
    <glyph glyph-name="currency" unicode="&#xa4;" horiz-adv-x="997" 
d="M868 786q0 -140 -96 -247l160 -158l-33 -33l-158 160q-105 -94 -247 -94q-138 0 -250 94l-158 -158l-31 33l158 158q-94 105 -94 245q0 143 94 248l-158 160l31 31l158 -158q107 96 250 96q142 0 247 -94l158 158l33 -31l-158 -160q94 -105 94 -250zM494 461
q135 0 230.5 96t94.5 231q0 134 -95.5 231t-229.5 97q-133 0 -229.5 -97t-96.5 -231q2 -135 97.5 -231t228.5 -96z" />
    <glyph glyph-name="yen" unicode="&#xa5;" horiz-adv-x="1056" 
d="M1024 1407l-424 -717h338v-47h-367l-16 -29v-163h383v-48h-383v-403h-45v403h-391v48h391v163l-16 29h-375v47h346l-424 717h55l434 -737h5l436 737h53z" />
    <glyph glyph-name="brokenbar" unicode="&#xa6;" horiz-adv-x="493" 
d="M223 791v718h47v-718h-47zM223 -233v725h47v-725h-47z" />
    <glyph glyph-name="section" unicode="&#xa7;" horiz-adv-x="1032" 
d="M725 236q80 -42 124 -99.5t44 -144.5q0 -131 -100.5 -217t-270.5 -86q-114 0 -220 44.5t-181 133.5l33 35q63 -81 161.5 -122.5t202.5 -41.5q138 0 233 66.5t95 185.5q0 46 -19 84.5t-40 62t-74 50.5t-81 38.5t-100 37.5l-24 9q-173 62 -232 94q-137 73 -160 182
q-5 26 -5 54q0 94 58.5 165t160.5 99q-162 93 -162 246q0 124 92 205.5t242 81.5q91 0 187 -33.5t165 -89.5l-33 -37q-65 53 -152 83t-163 30q-74 0 -139 -25.5t-108.5 -81.5t-43.5 -131q0 -35 10.5 -66t24.5 -53.5t42.5 -45t50.5 -36.5t63 -31.5t64.5 -26.5t70.5 -26
l42 -15q52 -18 77.5 -27.5t68.5 -28.5t65 -33.5t51 -38.5t43 -49t24 -59t10 -74q0 -93 -51 -163t-146 -105zM160 604q0 -46 18.5 -83.5t47 -63.5t77.5 -51.5t94 -43t111 -41.5q8 -3 12 -4q115 -40 146 -53q95 24 151.5 85t56.5 151q0 33 -8.5 61.5t-20 49.5t-36.5 41.5
t-43.5 33t-56 28.5t-60 24.5t-68.5 24.5q-35 12 -53 19q-68 24 -135 54q-102 -16 -167.5 -77t-65.5 -155z" />
    <glyph glyph-name="dieresis" unicode="&#xa8;" horiz-adv-x="1017" 
d="M358 1214q-24 0 -40.5 16t-16.5 40q0 26 16 40.5t41 14.5t40.5 -14.5t15.5 -40.5q0 -24 -16 -40t-40 -16zM659 1214q-25 0 -41 16t-16 40q0 26 16 40.5t41 14.5t40.5 -14.5t15.5 -40.5q0 -24 -16 -40t-40 -16z" />
    <glyph glyph-name="copyright" unicode="&#xa9;" horiz-adv-x="1353" 
d="M678 61q-161 0 -296 80.5t-212.5 216t-77.5 293.5t77.5 293.5t213 216t297.5 80.5q161 0 295 -80t210.5 -215.5t76.5 -294.5q0 -157 -77 -292.5t-212 -216.5t-295 -81zM678 106q147 0 271.5 74.5t196 199.5t71.5 271t-71 271t-195 199.5t-271 74.5q-148 0 -273.5 -74.5
t-197.5 -199.5t-72 -271q0 -147 71.5 -272t196 -199t273.5 -74zM694 315q-140 0 -232.5 87.5t-92.5 242.5q0 147 85.5 242.5t239.5 95.5t256 -125l-37 -29q-85 109 -219 109t-207 -81t-73 -212q0 -135 78.5 -210t201.5 -75q138 0 219 109l37 -31q-97 -123 -256 -123z" />
    <glyph glyph-name="ordfeminine" unicode="&#xaa;" horiz-adv-x="837" 
d="M416 807q-128 0 -214.5 83t-86.5 214q0 130 84 218.5t217 88.5q79 0 147 -38.5t107 -106.5h2v141h47v-596h-47v135h-2q-39 -65 -105.5 -102t-148.5 -37zM422 852q107 0 179.5 70t72.5 182q0 110 -70.5 186t-179.5 76q-112 0 -187 -72.5t-75 -189.5q0 -107 72 -179.5
t188 -72.5z" />
    <glyph glyph-name="guillemotleft" unicode="&#xab;" horiz-adv-x="847" 
d="M387 27h-45l-266 473l266 469h45l-262 -469zM696 27h-45l-268 473l266 469h47l-264 -469z" />
    <glyph glyph-name="logicalnot" unicode="&#xac;" horiz-adv-x="1169" 
d="M985 383v313h-846v45h891v-358h-45z" />
    <glyph glyph-name="registered" unicode="&#xae;" horiz-adv-x="1353" 
d="M680 1241q161 0 295 -80t210.5 -215.5t76.5 -294.5q0 -157 -77 -292.5t-212 -216.5t-295 -81q-161 0 -296 80.5t-212.5 216t-77.5 293.5t77.5 293.5t213 216t297.5 80.5zM678 106q147 0 271.5 74.5t196 199.5t71.5 271t-71 271t-195 199.5t-271 74.5q-148 0 -273.5 -74.5
t-197.5 -199.5t-72 -271q0 -147 71.5 -272t196 -199t273.5 -74zM907 801q0 -171 -178 -191l207 -286h-55l-205 284h-144v-284h-45v663h215q103 0 154 -51.5t51 -134.5zM532 942v-291h158q172 0 172 150q0 67 -41 104t-112 37h-177z" />
    <glyph glyph-name="macron" unicode="&#xaf;" horiz-adv-x="985" 
d="M219 1241v47h547v-47h-547z" />
    <glyph glyph-name="degree" unicode="&#xb0;" horiz-adv-x="788" 
d="M393 926q-111 0 -191.5 79t-80.5 189q0 108 82 188t190 80q110 0 192.5 -80.5t82.5 -191.5q0 -107 -81.5 -185.5t-193.5 -78.5zM393 971q94 0 163 65t69 154q0 93 -70 160t-162 67q-90 0 -158.5 -66.5t-68.5 -156.5q0 -93 66.5 -158t160.5 -65z" />
    <glyph glyph-name="plusminus" unicode="&#xb1;" horiz-adv-x="1165" 
d="M559 287v448h-448v45h448v451h45v-451h449v-45h-449v-448h-45zM111 0v45h942v-45h-942z" />
    <glyph glyph-name="uni00B2" unicode="&#xb2;" horiz-adv-x="663" 
d="M45 893l2 37l338 305q76 69 115 126.5t39 125.5q0 89 -62 150t-158 61q-69 0 -134 -36.5t-97 -102.5l-37 24q35 72 109 116t159 44q107 0 186 -71t79 -181q0 -75 -39 -141t-123 -142l-295 -268l2 -4h467v-43h-551z" />
    <glyph glyph-name="uni00B3" unicode="&#xb3;" horiz-adv-x="669" 
d="M336 887q-109 0 -184.5 40.5t-112.5 110.5l41 21q67 -127 254 -127q110 0 172.5 49.5t62.5 142.5q0 77 -66 131t-179 54h-84v45h98q98 0 155.5 48t57.5 118q0 84 -60 131t-165 47q-149 0 -220 -101l-38 25q86 121 258 121q116 0 192 -59t76 -160q0 -68 -36.5 -119
t-111.5 -72v-4q82 -23 125 -80t43 -135q0 -100 -76.5 -163.5t-201.5 -63.5z" />
    <glyph glyph-name="acute" unicode="&#xb4;" horiz-adv-x="1040" 
d="M395 1122l252 277h64l-254 -277h-62z" />
    <glyph glyph-name="uni00B5" unicode="&#xb5;" horiz-adv-x="1124" 
d="M166 -406v1397h45v-542q0 -203 87.5 -306.5t240.5 -103.5q161 0 268.5 128.5t107.5 334.5v489h46v-991h-41l-7 254h-4q-53 -122 -150.5 -191t-219.5 -69q-237 0 -328 203l-2 -2q0 -38 1 -115.5t1 -116.5v-369h-45z" />
    <glyph glyph-name="paragraph" unicode="&#xb6;" horiz-adv-x="729" 
d="M498 -303v1544h-123v-1241h-45v854q-106 0 -172 56.5t-66 158.5q0 104 63 161.5t171 57.5h217v-1591h-45z" />
    <glyph glyph-name="periodcentered" unicode="&#xb7;" horiz-adv-x="313" 
d="M164 430q-26 0 -43 16.5t-17 42.5t17 42t43 16t42.5 -16t16.5 -42t-16.5 -42.5t-42.5 -16.5z" />
    <glyph glyph-name="cedilla" unicode="&#xb8;" horiz-adv-x="813" 
d="M371 -377q-55 0 -101 12v48q51 -15 92 -15q58 0 97 27t39 78q0 47 -43.5 81.5t-124.5 34.5l2 39l39 84h45l-35 -82v-2q65 -5 114.5 -46.5t49.5 -110.5q0 -62 -46.5 -105t-127.5 -43z" />
    <glyph glyph-name="uni00B9" unicode="&#xb9;" horiz-adv-x="444" 
d="M264 893v780l-209 -141l-22 37l237 166h37v-842h-43z" />
    <glyph glyph-name="ordmasculine" unicode="&#xba;" horiz-adv-x="841" 
d="M422 805q-136 0 -221.5 87.5t-85.5 215.5t85.5 215.5t221.5 87.5q129 0 217 -85t88 -218t-88 -218t-217 -85zM422 852q110 0 185 71.5t75 184.5t-75.5 185.5t-184.5 72.5q-116 0 -188 -74.5t-72 -183.5q0 -107 72 -181.5t188 -74.5z" />
    <glyph glyph-name="guillemotright" unicode="&#xbb;" horiz-adv-x="847" 
d="M152 27l264 473l-264 469h47l266 -469l-268 -473h-45zM461 27l262 473l-262 469h45l266 -469l-266 -473h-45z" />
    <glyph glyph-name="onequarter" unicode="&#xbc;" horiz-adv-x="1413" 
d="M354 -14l-43 14l625 1468l41 -16zM264 612v781l-209 -142l-22 37l237 166h37v-842h-43zM1180 0v158h-447v41l453 643h37v-641h141v-43h-141v-158h-43zM788 201h392v557z" />
    <glyph glyph-name="onehalf" unicode="&#xbd;" horiz-adv-x="1468" 
d="M354 -14l-43 14l625 1468l41 -16zM264 612v781l-209 -142l-22 37l237 166h37v-842h-43zM850 0l2 37l338 305q76 69 114.5 126.5t38.5 125.5q0 89 -62 150t-157 61q-69 0 -134 -36.5t-97 -102.5l-37 24q35 72 109 116t159 44q107 0 186 -71t79 -181q0 -75 -39 -141
t-123 -142l-295 -268l2 -4h467v-43h-551z" />
    <glyph glyph-name="threequarters" unicode="&#xbe;" horiz-adv-x="1609" 
d="M551 -14l-43 14l625 1468l41 -16zM336 606q-109 0 -184.5 41t-112.5 111l41 20q67 -127 254 -127q109 0 172 49.5t63 143.5q0 77 -66 130.5t-179 53.5h-84v45h98q98 0 155.5 48t57.5 118q0 84 -60 131t-165 47q-150 0 -220 -100l-38 24q86 121 258 121q116 0 192 -59
t76 -160q0 -68 -36.5 -118.5t-111.5 -71.5v-4q82 -23 125 -80t43 -135q0 -101 -76.5 -164.5t-201.5 -63.5zM1376 0v158h-446v41l452 643h37v-641h142v-43h-142v-158h-43zM985 201h391v557z" />
    <glyph glyph-name="questiondown" unicode="&#xbf;" horiz-adv-x="763" 
d="M461 999q26 0 42.5 -16.5t16.5 -42.5t-16.5 -41.5t-42.5 -15.5q-27 0 -43.5 15.5t-16.5 41.5t17 42.5t43 16.5zM487 631v-123q0 -25 -5 -49t-18.5 -50t-23 -44t-34 -47t-35.5 -41.5t-42 -46.5t-40 -44q-84 -89 -130 -170t-46 -182q0 -142 93 -225.5t224 -83.5
q100 0 188.5 46t143.5 134l33 -37q-63 -93 -160 -142.5t-205 -49.5q-164 0 -265.5 104t-101.5 254q0 60 15.5 115t46.5 104.5t59 84.5t72 81q9 10 35 37.5t35.5 38t30.5 35t29.5 37t22.5 34t19.5 36.5t10.5 34t5 37v123h43z" />
    <glyph glyph-name="Agrave" unicode="&#xc0;" horiz-adv-x="1310" 
d="M629 1628l-234 254h62l231 -254h-59zM59 0l564 1454h59l569 -1454h-51l-170 432h-751l-168 -432h-52zM297 479h715l-357 918h-4z" />
    <glyph glyph-name="Aacute" unicode="&#xc1;" horiz-adv-x="1310" 
d="M616 1628l232 254h61l-233 -254h-60zM59 0l564 1454h59l569 -1454h-51l-170 432h-751l-168 -432h-52zM297 479h715l-357 918h-4z" />
    <glyph glyph-name="Acircumflex" unicode="&#xc2;" horiz-adv-x="1310" 
d="M377 1628l256 223h51l250 -223h-62l-213 189h-4l-219 -189h-59zM59 0l564 1454h59l569 -1454h-51l-170 432h-751l-168 -432h-52zM297 479h715l-357 918h-4z" />
    <glyph glyph-name="Atilde" unicode="&#xc3;" horiz-adv-x="1310" 
d="M815 1628q-31 0 -66 15t-54.5 28t-57.5 41q-78 57 -131 57q-86 0 -131 -124l-43 12q54 158 172 158q28 0 59.5 -11.5t47.5 -21t53 -33.5q9 -6 34.5 -24t39 -26.5t35 -17t40.5 -8.5q39 0 72 32t51 95l43 -14q-23 -79 -68 -118.5t-96 -39.5zM59 0l564 1454h59l569 -1454
h-51l-170 432h-751l-168 -432h-52zM297 479h715l-357 918h-4z" />
    <glyph glyph-name="Adieresis" unicode="&#xc4;" horiz-adv-x="1310" 
d="M506 1696q-25 0 -41 16t-16 39q0 26 16 40.5t41 14.5t40 -14.5t15 -40.5q0 -24 -15.5 -39.5t-39.5 -15.5zM807 1696q-25 0 -41 16t-16 39q0 26 16 40.5t41 14.5t40 -14.5t15 -40.5q0 -24 -15.5 -39.5t-39.5 -15.5zM59 0l564 1454h59l569 -1454h-51l-170 432h-751
l-168 -432h-52zM297 479h715l-357 918h-4z" />
    <glyph glyph-name="Aring" unicode="&#xc5;" horiz-adv-x="1310" 
d="M655 1608q-60 0 -104.5 44.5t-44.5 104.5q0 61 44.5 105.5t104.5 44.5q62 0 107 -44.5t45 -105.5q0 -60 -45.5 -104.5t-106.5 -44.5zM655 1655q43 0 75 30.5t32 71.5q0 43 -32 74t-75 31t-73.5 -31t-30.5 -74q0 -41 30.5 -71.5t73.5 -30.5zM59 0l564 1454h59l569 -1454
h-51l-170 432h-751l-168 -432h-52zM297 479h715l-357 918h-4z" />
    <glyph glyph-name="AE" unicode="&#xc6;" horiz-adv-x="1843" 
d="M10 0l844 1454h877v-47h-797v-657h676v-48h-676v-655h838v-47h-885v432h-568l-251 -432h-58zM346 479h541v928h-2z" />
    <glyph glyph-name="Ccedilla" unicode="&#xc7;" horiz-adv-x="1462" 
d="M836 41q312 0 516 256l39 -31q-219 -272 -555 -272h-13l-26 -64v-2q65 -5 114.5 -46.5t49.5 -110.5q0 -62 -47 -105t-128 -43q-54 0 -100 12v48q51 -15 92 -15q58 0 96.5 27t38.5 78q0 47 -43.5 81.5t-124.5 34.5l3 39l30 68q-137 9 -254.5 61t-206.5 141.5t-139.5 224
t-50.5 298.5q0 124 29 235t88 203.5t143 160t199 105t250 37.5q157 0 299.5 -67t255.5 -207l-39 -33q-205 260 -516 260q-157 0 -283.5 -53.5t-208 -147.5t-125 -220t-43.5 -273q0 -162 51.5 -292t141 -214t209 -129t258.5 -45z" />
    <glyph glyph-name="Egrave" unicode="&#xc8;" horiz-adv-x="1157" 
d="M662 1628l-234 254h61l232 -254h-59zM182 0v1454h844v-47h-797v-655h670v-47h-670v-658h840v-47h-887z" />
    <glyph glyph-name="Eacute" unicode="&#xc9;" horiz-adv-x="1157" 
d="M442 1628l232 254h61l-233 -254h-60zM182 0v1454h844v-47h-797v-655h670v-47h-670v-658h840v-47h-887z" />
    <glyph glyph-name="Ecircumflex" unicode="&#xca;" horiz-adv-x="1157" 
d="M307 1628l256 223h51l250 -223h-61l-213 189h-4l-219 -189h-60zM182 0v1454h844v-47h-797v-655h670v-47h-670v-658h840v-47h-887z" />
    <glyph glyph-name="Edieresis" unicode="&#xcb;" horiz-adv-x="1157" 
d="M436 1696q-25 0 -41 16t-16 39q0 26 16 40.5t41 14.5t40.5 -14.5t15.5 -40.5q0 -23 -16 -39t-40 -16zM737 1696q-25 0 -41 16t-16 39q0 26 16 40.5t41 14.5t40.5 -14.5t15.5 -40.5q0 -23 -15.5 -39t-40.5 -16zM182 0v1454h844v-47h-797v-655h670v-47h-670v-658h840v-47
h-887z" />
    <glyph glyph-name="Igrave" unicode="&#xcc;" horiz-adv-x="440" 
d="M184 1628l-233 254h61l232 -254h-60zM197 0v1454h47v-1454h-47z" />
    <glyph glyph-name="Iacute" unicode="&#xcd;" horiz-adv-x="440" 
d="M197 1628l231 254h61l-233 -254h-59zM197 0v1454h47v-1454h-47z" />
    <glyph glyph-name="Icircumflex" unicode="&#xce;" horiz-adv-x="440" 
d="M-57 1628l256 223h51l250 -223h-62l-213 189h-4l-219 -189h-59zM197 0v1454h47v-1454h-47z" />
    <glyph glyph-name="Idieresis" unicode="&#xcf;" horiz-adv-x="440" 
d="M72 1696q-25 0 -41.5 16t-16.5 39q0 26 16.5 40.5t41.5 14.5t40 -14.5t15 -40.5q0 -24 -15.5 -39.5t-39.5 -15.5zM373 1696q-25 0 -41.5 16t-16.5 39q0 26 16.5 40.5t41.5 14.5t40 -14.5t15 -40.5q0 -24 -15.5 -39.5t-39.5 -15.5zM197 0v1454h47v-1454h-47z" />
    <glyph glyph-name="Eth" unicode="&#xd0;" horiz-adv-x="1445" 
d="M565 1454q170 0 311.5 -53.5t239 -149.5t151.5 -231t54 -295q0 -214 -91.5 -378t-262.5 -255.5t-396 -91.5h-389v709h-176v47h176v698h383zM569 47q325 0 514 187t189 491q0 200 -87 355t-248.5 241t-373.5 86h-334v-651h476v-47h-476v-662h340z" />
    <glyph glyph-name="Ntilde" unicode="&#xd1;" horiz-adv-x="1490" 
d="M905 1628q-31 0 -66 15t-54.5 28t-57.5 41q-78 57 -131 57q-86 0 -131 -124l-43 12q54 158 172 158q28 0 59.5 -11.5t47.5 -21t53 -33.5q9 -6 34.5 -24t39 -26.5t35 -17t40.5 -8.5q39 0 72 32t51 95l43 -14q-23 -79 -68 -118.5t-96 -39.5zM182 0v1454h45l1030 -1372h3
v1372h47v-1454h-47l-1029 1370h-2v-1370h-47z" />
    <glyph glyph-name="Ograve" unicode="&#xd2;" horiz-adv-x="1683" 
d="M825 1628l-233 254h61l232 -254h-60zM846 -6q-198 0 -361.5 90.5t-260.5 259.5t-97 385q0 215 97 383.5t260.5 259t361.5 90.5q145 0 275 -53.5t226 -147.5t152.5 -232.5t56.5 -299.5q0 -162 -56.5 -300.5t-152.5 -233t-226 -148t-275 -53.5zM846 41q135 0 256 50
t210.5 138.5t142 218t52.5 281.5q0 151 -52.5 280.5t-142 217.5t-210.5 138t-256 50q-138 0 -261 -50t-213.5 -138t-143 -217.5t-52.5 -280.5q0 -152 52.5 -281.5t143 -218t213.5 -138.5t261 -50z" />
    <glyph glyph-name="Oacute" unicode="&#xd3;" horiz-adv-x="1683" 
d="M774 1628l232 254h61l-233 -254h-60zM846 -6q-198 0 -361.5 90.5t-260.5 259.5t-97 385q0 215 97 383.5t260.5 259t361.5 90.5q145 0 275 -53.5t226 -147.5t152.5 -232.5t56.5 -299.5q0 -162 -56.5 -300.5t-152.5 -233t-226 -148t-275 -53.5zM846 41q135 0 256 50
t210.5 138.5t142 218t52.5 281.5q0 151 -52.5 280.5t-142 217.5t-210.5 138t-256 50q-138 0 -261 -50t-213.5 -138t-143 -217.5t-52.5 -280.5q0 -152 52.5 -281.5t143 -218t213.5 -138.5t261 -50z" />
    <glyph glyph-name="Ocircumflex" unicode="&#xd4;" horiz-adv-x="1683" 
d="M565 1628l256 223h51l250 -223h-61l-213 189h-4l-219 -189h-60zM846 -6q-198 0 -361.5 90.5t-260.5 259.5t-97 385q0 215 97 383.5t260.5 259t361.5 90.5q145 0 275 -53.5t226 -147.5t152.5 -232.5t56.5 -299.5q0 -162 -56.5 -300.5t-152.5 -233t-226 -148t-275 -53.5z
M846 41q135 0 256 50t210.5 138.5t142 218t52.5 281.5q0 151 -52.5 280.5t-142 217.5t-210.5 138t-256 50q-138 0 -261 -50t-213.5 -138t-143 -217.5t-52.5 -280.5q0 -152 52.5 -281.5t143 -218t213.5 -138.5t261 -50z" />
    <glyph glyph-name="Otilde" unicode="&#xd5;" horiz-adv-x="1683" 
d="M1004 1628q-31 0 -66 15t-55.5 28.5t-57.5 40.5q-78 57 -131 57q-86 0 -131 -124l-43 12q54 158 172 158q28 0 59.5 -11.5t47.5 -21t53 -33.5q9 -6 34.5 -24t39 -26.5t35 -17t40.5 -8.5q39 0 72 32t51 95l43 -14q-23 -79 -67.5 -118.5t-95.5 -39.5zM846 -6
q-198 0 -361.5 90.5t-260.5 259.5t-97 385q0 215 97 383.5t260.5 259t361.5 90.5q145 0 275 -53.5t226 -147.5t152.5 -232.5t56.5 -299.5q0 -162 -56.5 -300.5t-152.5 -233t-226 -148t-275 -53.5zM846 41q135 0 256 50t210.5 138.5t142 218t52.5 281.5q0 151 -52.5 280.5
t-142 217.5t-210.5 138t-256 50q-138 0 -261 -50t-213.5 -138t-143 -217.5t-52.5 -280.5q0 -152 52.5 -281.5t143 -218t213.5 -138.5t261 -50z" />
    <glyph glyph-name="Odieresis" unicode="&#xd6;" horiz-adv-x="1683" 
d="M694 1696q-25 0 -41 16t-16 39q0 26 16 40.5t41 14.5t40.5 -14.5t15.5 -40.5q0 -23 -16 -39t-40 -16zM995 1696q-25 0 -41 16t-16 39q0 26 16 40.5t41 14.5t40.5 -14.5t15.5 -40.5q0 -23 -15.5 -39t-40.5 -16zM846 -6q-198 0 -361.5 90.5t-260.5 259.5t-97 385
q0 215 97 383.5t260.5 259t361.5 90.5q145 0 275 -53.5t226 -147.5t152.5 -232.5t56.5 -299.5q0 -162 -56.5 -300.5t-152.5 -233t-226 -148t-275 -53.5zM846 41q135 0 256 50t210.5 138.5t142 218t52.5 281.5q0 151 -52.5 280.5t-142 217.5t-210.5 138t-256 50
q-138 0 -261 -50t-213.5 -138t-143 -217.5t-52.5 -280.5q0 -152 52.5 -281.5t143 -218t213.5 -138.5t261 -50z" />
    <glyph glyph-name="multiply" unicode="&#xd7;" horiz-adv-x="980" 
d="M154 199l-33 30l336 336l-336 336l33 33l333 -336l338 336l33 -31l-338 -338l336 -336l-33 -30l-336 333z" />
    <glyph glyph-name="Oslash" unicode="&#xd8;" horiz-adv-x="1683" 
d="M1360 1247q196 -202 196 -518q0 -162 -56.5 -300.5t-152.5 -233t-226 -148t-275 -53.5q-287 0 -488 182l-182 -196l-39 32l187 199q-94 97 -145.5 229t-51.5 289q0 215 97 383.5t260.5 259t361.5 90.5q138 0 262 -47t219 -135l166 176l35 -31zM176 729q0 -293 180 -483
l938 999q-186 170 -448 170q-138 0 -261 -50t-213.5 -138t-143 -217.5t-52.5 -280.5zM846 41q135 0 256 50t210.5 138.5t142 218t52.5 281.5q0 291 -180 481l-934 -999q186 -170 453 -170z" />
    <glyph glyph-name="Ugrave" unicode="&#xd9;" horiz-adv-x="1396" 
d="M713 1628l-234 254h62l231 -254h-59zM698 -6q-238 0 -385 157.5t-147 428.5v874h47v-874q0 -251 133 -395t352 -144t353.5 144t134.5 395v874h47v-874q0 -271 -148 -428.5t-387 -157.5z" />
    <glyph glyph-name="Uacute" unicode="&#xda;" horiz-adv-x="1396" 
d="M596 1628l231 254h62l-234 -254h-59zM698 -6q-238 0 -385 157.5t-147 428.5v874h47v-874q0 -251 133 -395t352 -144t353.5 144t134.5 395v874h47v-874q0 -271 -148 -428.5t-387 -157.5z" />
    <glyph glyph-name="Ucircumflex" unicode="&#xdb;" horiz-adv-x="1396" 
d="M422 1628l256 223h51l250 -223h-61l-213 189h-5l-219 -189h-59zM698 -6q-238 0 -385 157.5t-147 428.5v874h47v-874q0 -251 133 -395t352 -144t353.5 144t134.5 395v874h47v-874q0 -271 -148 -428.5t-387 -157.5z" />
    <glyph glyph-name="Udieresis" unicode="&#xdc;" horiz-adv-x="1396" 
d="M551 1696q-25 0 -41 16t-16 39q0 26 16 40.5t41 14.5t40 -14.5t15 -40.5q0 -24 -15.5 -39.5t-39.5 -15.5zM852 1696q-25 0 -41 16t-16 39q0 26 16 40.5t41 14.5t40 -14.5t15 -40.5q0 -24 -15.5 -39.5t-39.5 -15.5zM698 -6q-238 0 -385 157.5t-147 428.5v874h47v-874
q0 -251 133 -395t352 -144t353.5 144t134.5 395v874h47v-874q0 -271 -148 -428.5t-387 -157.5z" />
    <glyph glyph-name="Yacute" unicode="&#xdd;" horiz-adv-x="1138" 
d="M524 1628l232 254h61l-233 -254h-60zM545 0v662l-508 792h57l471 -739h4l475 739h58l-510 -792v-662h-47z" />
    <glyph glyph-name="Thorn" unicode="&#xde;" horiz-adv-x="1226" 
d="M182 0v1454h47v-324h465q119 0 207.5 -30.5t141 -86t77.5 -128.5t25 -164q0 -212 -131.5 -316t-356.5 -104h-428v-301h-47zM229 348h439q112 0 196 28.5t134 80t74 118.5t24 148q0 181 -104.5 270.5t-284.5 89.5h-478v-735z" />
    <glyph glyph-name="germandbls" unicode="&#xdf;" horiz-adv-x="1200" 
d="M420 -6v45h237q182 0 300 111.5t118 298.5q0 80 -30 155t-85 134t-139 94.5t-184 35.5h-139v45h135q84 0 148 19t99.5 47.5t58 67t29.5 70.5t7 65q0 138 -96 213t-273 75q-185 0 -290 -109t-105 -331v-1030h-45v1030q0 243 118 364.5t322 121.5q194 0 305 -88t111 -246
q0 -37 -9.5 -74.5t-32 -81t-70 -79.5t-113.5 -54v-4q149 -46 236 -169t87 -271q0 -205 -132 -330t-331 -125h-237z" />
    <glyph glyph-name="agrave" unicode="&#xe0;" horiz-adv-x="1210" 
d="M602 1157l-233 260h61l232 -260h-60zM584 -6q-135 0 -247 60.5t-178.5 173.5t-66.5 257q0 141 61 258t175 186.5t258 69.5q141 0 256 -77.5t170 -210.5h2v280h45v-991h-45v272h-2q-56 -127 -168 -202.5t-260 -75.5zM584 39q182 0 306 124.5t124 321.5q0 198 -120 333.5
t-308 135.5t-317.5 -131t-129.5 -338q0 -189 124 -317.5t321 -128.5z" />
    <glyph glyph-name="aacute" unicode="&#xe1;" horiz-adv-x="1210" 
d="M594 1149l252 276h63l-254 -276h-61zM584 -6q-135 0 -247 60.5t-178.5 173.5t-66.5 257q0 141 61 258t175 186.5t258 69.5q141 0 256 -77.5t170 -210.5h2v280h45v-991h-45v272h-2q-56 -127 -168 -202.5t-260 -75.5zM584 39q182 0 306 124.5t124 321.5q0 198 -120 333.5
t-308 135.5t-317.5 -131t-129.5 -338q0 -189 124 -317.5t321 -128.5z" />
    <glyph glyph-name="acircumflex" unicode="&#xe2;" horiz-adv-x="1210" 
d="M309 1151l256 262h51l250 -262h-59l-213 225h-4l-221 -225h-60zM584 -6q-135 0 -247 60.5t-178.5 173.5t-66.5 257q0 141 61 258t175 186.5t258 69.5q141 0 256 -77.5t170 -210.5h2v280h45v-991h-45v272h-2q-56 -127 -168 -202.5t-260 -75.5zM584 39q182 0 306 124.5
t124 321.5q0 198 -120 333.5t-308 135.5t-317.5 -131t-129.5 -338q0 -189 124 -317.5t321 -128.5z" />
    <glyph glyph-name="atilde" unicode="&#xe3;" horiz-adv-x="1210" 
d="M748 1190q-11 0 -21.5 1.5t-22 5.5t-20 6.5t-21.5 10t-19 10.5t-20.5 13t-18.5 12.5t-20 14t-18 12.5q-76 55 -129 55q-86 0 -131 -125l-43 13q54 157 172 157q68 0 158 -63q8 -6 35 -25t40.5 -27.5t35 -17t40.5 -8.5q39 0 72 32t51 95l43 -14q-23 -79 -67.5 -118.5
t-95.5 -39.5zM584 -6q-135 0 -247 60.5t-178.5 173.5t-66.5 257q0 141 61 258t175 186.5t258 69.5q141 0 256 -77.5t170 -210.5h2v280h45v-991h-45v272h-2q-56 -127 -168 -202.5t-260 -75.5zM584 39q182 0 306 124.5t124 321.5q0 198 -120 333.5t-308 135.5t-317.5 -131
t-129.5 -338q0 -189 124 -317.5t321 -128.5z" />
    <glyph glyph-name="adieresis" unicode="&#xe4;" horiz-adv-x="1210" 
d="M434 1241q-25 0 -41 16t-16 39q0 26 16 41t41 15t40 -15t15 -41q0 -24 -15.5 -39.5t-39.5 -15.5zM735 1241q-25 0 -41 16t-16 39q0 26 16 41t41 15t40.5 -15t15.5 -41q0 -24 -15.5 -39.5t-40.5 -15.5zM584 -6q-135 0 -247 60.5t-178.5 173.5t-66.5 257q0 141 61 258
t175 186.5t258 69.5q141 0 256 -77.5t170 -210.5h2v280h45v-991h-45v272h-2q-56 -127 -168 -202.5t-260 -75.5zM584 39q182 0 306 124.5t124 321.5q0 198 -120 333.5t-308 135.5t-317.5 -131t-129.5 -338q0 -189 124 -317.5t321 -128.5z" />
    <glyph glyph-name="aring" unicode="&#xe5;" horiz-adv-x="1210" 
d="M588 1137q-60 0 -105 44.5t-45 104.5q0 61 45 105.5t105 44.5q62 0 106.5 -44.5t44.5 -105.5q0 -60 -45 -104.5t-106 -44.5zM588 1184q43 0 74.5 30.5t31.5 71.5q0 43 -31.5 74t-74.5 31t-74 -31t-31 -74q0 -41 31 -71.5t74 -30.5zM584 -6q-135 0 -247 60.5t-178.5 173.5
t-66.5 257q0 141 61 258t175 186.5t258 69.5q141 0 256 -77.5t170 -210.5h2v280h45v-991h-45v272h-2q-56 -127 -168 -202.5t-260 -75.5zM584 39q182 0 306 124.5t124 321.5q0 198 -120 333.5t-308 135.5t-317.5 -131t-129.5 -338q0 -189 124 -317.5t321 -128.5z" />
    <glyph glyph-name="ae" unicode="&#xe6;" horiz-adv-x="1622" 
d="M1524 522v-24h-744q6 -215 106 -337t265 -122q109 0 174.5 40t126.5 126l35 -27q-64 -93 -140.5 -138.5t-191.5 -45.5q-81 0 -147 24t-112 66t-76 92.5t-48 110.5h-2q-30 -136 -138 -214.5t-253 -78.5t-224 81t-79 199q0 117 88.5 192t263.5 75l309 2v49
q0 199 -52.5 279.5t-186.5 80.5q-165 0 -314 -86l-22 39q159 94 336 94q135 0 199.5 -68.5t78.5 -209.5h2q42 128 136.5 203t226.5 75q164 0 273.5 -136t109.5 -341zM782 543h695q-11 186 -101 298.5t-235 112.5q-156 0 -250.5 -113.5t-108.5 -297.5zM379 39q151 0 254.5 94
t103.5 264v101l-309 -2q-133 0 -219 -57t-86 -165q0 -98 66.5 -166.5t189.5 -68.5z" />
    <glyph glyph-name="ccedilla" unicode="&#xe7;" horiz-adv-x="1021" 
d="M563 -6l-26 -64v-2q65 -5 114 -46.5t49 -110.5q0 -62 -46.5 -105t-127.5 -43q-54 0 -100 12v48q51 -15 92 -15q58 0 96.5 27t38.5 78q0 47 -43.5 81.5t-124.5 34.5l2 39l31 68q-190 17 -306 155t-116 345q0 221 132 362t343 141q105 0 202.5 -40.5t166.5 -116.5l-35 -35
q-56 67 -143.5 107t-190.5 40q-191 0 -309.5 -128.5t-118.5 -329.5q0 -203 118 -330t308 -127q99 0 192 38t152 105l31 -35q-65 -69 -165 -111t-210 -42h-6z" />
    <glyph glyph-name="egrave" unicode="&#xe8;" horiz-adv-x="1089" 
d="M651 1157h-59l-234 260h62zM1001 498h-858v-2q0 -199 119.5 -328t304.5 -129q227 0 357 166l34 -27q-138 -184 -387 -184q-208 0 -341.5 142t-133.5 360q0 216 135.5 359.5t335.5 143.5q192 0 313 -134.5t121 -338.5v-28zM567 954q-169 0 -288 -116t-134 -295h809
q-11 186 -116 298.5t-271 112.5z" />
    <glyph glyph-name="eacute" unicode="&#xe9;" horiz-adv-x="1089" 
d="M836 1425l-254 -276h-62l252 276h64zM1001 498h-858v-2q0 -199 119.5 -328t304.5 -129q227 0 357 166l34 -27q-138 -184 -387 -184q-208 0 -341.5 142t-133.5 360q0 216 135.5 359.5t335.5 143.5q192 0 313 -134.5t121 -338.5v-28zM567 954q-169 0 -288 -116t-134 -295
h809q-11 186 -116 298.5t-271 112.5z" />
    <glyph glyph-name="ecircumflex" unicode="&#xea;" horiz-adv-x="1089" 
d="M571 1376l-221 -225h-59l256 262h51l250 -262h-60l-213 225h-4zM1001 498h-858v-2q0 -199 119.5 -328t304.5 -129q227 0 357 166l34 -27q-138 -184 -387 -184q-208 0 -341.5 142t-133.5 360q0 216 135.5 359.5t335.5 143.5q192 0 313 -134.5t121 -338.5v-28zM567 954
q-169 0 -288 -116t-134 -295h809q-11 186 -116 298.5t-271 112.5z" />
    <glyph glyph-name="edieresis" unicode="&#xeb;" horiz-adv-x="1089" 
d="M416 1241q-25 0 -41.5 16t-16.5 39q0 26 16.5 41t41.5 15t40 -15t15 -41q0 -24 -15.5 -39.5t-39.5 -15.5zM717 1241q-25 0 -41.5 16t-16.5 39q0 26 16.5 41t41.5 15t40 -15t15 -41q0 -24 -15.5 -39.5t-39.5 -15.5zM1001 498h-858v-2q0 -199 119.5 -328t304.5 -129
q227 0 357 166l34 -27q-138 -184 -387 -184q-208 0 -341.5 142t-133.5 360q0 216 135.5 359.5t335.5 143.5q192 0 313 -134.5t121 -338.5v-28zM567 954q-169 0 -288 -116t-134 -295h809q-11 186 -116 298.5t-271 112.5z" />
    <glyph glyph-name="igrave" unicode="&#xec;" horiz-adv-x="399" 
d="M166 1149l-184 276h59l180 -276h-55zM176 0v991h45v-991h-45z" />
    <glyph glyph-name="iacute" unicode="&#xed;" horiz-adv-x="399" 
d="M182 1149l252 276h64l-254 -276h-62zM176 0v991h45v-991h-45z" />
    <glyph glyph-name="icircumflex" unicode="&#xee;" horiz-adv-x="399" 
d="M-78 1151l256 262h51l250 -262h-59l-213 225h-4l-221 -225h-60zM176 0v991h45v-991h-45z" />
    <glyph glyph-name="idieresis" unicode="&#xef;" horiz-adv-x="399" 
d="M47 1241q-25 0 -41 16t-16 39q0 26 16 41t41 15t40 -15t15 -41q0 -24 -15.5 -39.5t-39.5 -15.5zM348 1241q-25 0 -41 16t-16 39q0 26 16 41t41 15t40 -15t15 -41q0 -24 -15.5 -39.5t-39.5 -15.5zM176 0v991h45v-991h-45z" />
    <glyph glyph-name="eth" unicode="&#xf0;" horiz-adv-x="1187" 
d="M893 1112q197 -269 197 -596q0 -227 -138 -374.5t-358 -147.5q-210 0 -354 140.5t-144 361.5q0 101 36.5 193t100.5 160.5t158 109t203 40.5q118 0 219.5 -49t169.5 -137q3 -3 8.5 -11.5t7.5 -10.5l5 4q-47 151 -148 295q-79 109 -190 200l-154 -170l-35 27l154 170
q-139 105 -291 156l12 40q172 -57 307 -163l156 174l37 -29l-156 -172q115 -95 197 -211zM594 39q199 0 323.5 134.5t124.5 342.5q0 187 -130 311.5t-318 124.5q-132 0 -236 -62t-159.5 -165.5t-55.5 -228.5q0 -202 130 -329.5t321 -127.5z" />
    <glyph glyph-name="ntilde" unicode="&#xf1;" horiz-adv-x="1112" 
d="M737 1190q-12 0 -25 2.5t-23 5t-24 10t-21.5 10.5t-23.5 14t-20.5 14t-22.5 15.5t-20 14.5q-76 55 -129 55q-86 0 -131 -125l-43 13q54 157 172 157q68 0 158 -63q8 -6 35 -25t40.5 -27.5t35 -17t40.5 -8.5q39 0 72 32t51 95l43 -14q-23 -79 -68 -118.5t-96 -39.5zM166 0
v991h45v-262h2q53 127 161.5 198.5t252.5 71.5q158 0 250 -105.5t92 -295.5v-598h-45v575q0 195 -82.5 287t-214.5 92q-187 0 -301.5 -128t-114.5 -337v-489h-45z" />
    <glyph glyph-name="ograve" unicode="&#xf2;" horiz-adv-x="1185" 
d="M604 1157l-233 260h61l232 -260h-60zM594 -6q-145 0 -260 68.5t-176.5 182.5t-61.5 251q0 101 36.5 193t100.5 160.5t158 109t203 40.5q136 0 248.5 -62.5t180 -178.5t67.5 -262t-67.5 -261.5t-180 -178t-248.5 -62.5zM594 39q190 0 319 128t129 329t-129.5 329.5
t-318.5 128.5q-132 0 -236.5 -62.5t-159.5 -166.5t-55 -229q0 -93 32.5 -176.5t90.5 -145.5t143 -98.5t185 -36.5z" />
    <glyph glyph-name="oacute" unicode="&#xf3;" horiz-adv-x="1185" 
d="M563 1149l252 276h64l-254 -276h-62zM594 -6q-145 0 -260 68.5t-176.5 182.5t-61.5 251q0 101 36.5 193t100.5 160.5t158 109t203 40.5q136 0 248.5 -62.5t180 -178.5t67.5 -262t-67.5 -261.5t-180 -178t-248.5 -62.5zM594 39q190 0 319 128t129 329t-129.5 329.5
t-318.5 128.5q-132 0 -236.5 -62.5t-159.5 -166.5t-55 -229q0 -93 32.5 -176.5t90.5 -145.5t143 -98.5t185 -36.5z" />
    <glyph glyph-name="ocircumflex" unicode="&#xf4;" horiz-adv-x="1185" 
d="M317 1151l256 262h52l249 -262h-59l-213 225h-4l-221 -225h-60zM594 -6q-145 0 -260 68.5t-176.5 182.5t-61.5 251q0 101 36.5 193t100.5 160.5t158 109t203 40.5q136 0 248.5 -62.5t180 -178.5t67.5 -262t-67.5 -261.5t-180 -178t-248.5 -62.5zM594 39q190 0 319 128
t129 329t-129.5 329.5t-318.5 128.5q-132 0 -236.5 -62.5t-159.5 -166.5t-55 -229q0 -93 32.5 -176.5t90.5 -145.5t143 -98.5t185 -36.5z" />
    <glyph glyph-name="otilde" unicode="&#xf5;" horiz-adv-x="1185" 
d="M756 1190q-11 0 -21.5 1.5t-22 5.5t-20 6.5t-21.5 10t-19 10.5t-20.5 13t-18.5 12.5t-20 14t-18 12.5q-76 55 -129 55q-86 0 -131 -125l-43 13q54 157 172 157q68 0 158 -63l35 -25t41 -27.5t35 -16.5t41 -9q39 0 72 32t51 95l43 -14q-23 -79 -68 -118.5t-96 -39.5z
M594 -6q-145 0 -260 68.5t-176.5 182.5t-61.5 251q0 101 36.5 193t100.5 160.5t158 109t203 40.5q136 0 248.5 -62.5t180 -178.5t67.5 -262t-67.5 -261.5t-180 -178t-248.5 -62.5zM594 39q190 0 319 128t129 329t-129.5 329.5t-318.5 128.5q-132 0 -236.5 -62.5
t-159.5 -166.5t-55 -229q0 -93 32.5 -176.5t90.5 -145.5t143 -98.5t185 -36.5z" />
    <glyph glyph-name="odieresis" unicode="&#xf6;" horiz-adv-x="1185" 
d="M442 1241q-25 0 -41 16t-16 39q0 26 16 41t41 15t40.5 -15t15.5 -41q0 -24 -16 -39.5t-40 -15.5zM743 1241q-25 0 -41 16t-16 39q0 26 16 41t41 15t40.5 -15t15.5 -41q0 -24 -15.5 -39.5t-40.5 -15.5zM594 -6q-145 0 -260 68.5t-176.5 182.5t-61.5 251q0 101 36.5 193
t100.5 160.5t158 109t203 40.5q136 0 248.5 -62.5t180 -178.5t67.5 -262t-67.5 -261.5t-180 -178t-248.5 -62.5zM594 39q190 0 319 128t129 329t-129.5 329.5t-318.5 128.5q-132 0 -236.5 -62.5t-159.5 -166.5t-55 -229q0 -93 32.5 -176.5t90.5 -145.5t143 -98.5t185 -36.5z
" />
    <glyph glyph-name="divide" unicode="&#xf7;" horiz-adv-x="1202" 
d="M586 903q-25 0 -41.5 16t-16.5 39q0 26 16.5 41t41.5 15t40 -15t15 -41q0 -24 -15.5 -39.5t-39.5 -15.5zM131 543v45h942v-45h-942zM586 117q-25 0 -41.5 16t-16.5 39q0 26 16.5 40.5t41.5 14.5t40 -14.5t15 -40.5q0 -24 -15.5 -39.5t-39.5 -15.5z" />
    <glyph glyph-name="oslash" unicode="&#xf8;" horiz-adv-x="1185" 
d="M1090 977l-129 -135q129 -142 129 -346q0 -146 -67.5 -261.5t-180 -178t-248.5 -62.5q-192 0 -328 117l-125 -131l-39 32l127 133q-133 146 -133 351q0 101 36.5 193t100.5 160.5t158 109t203 40.5q193 0 334 -122l125 131zM143 496q0 -186 119 -318l633 664
q-124 112 -301 112q-132 0 -236.5 -62.5t-159.5 -166.5t-55 -229zM1042 496q0 185 -112 313l-633 -666q120 -104 297 -104q190 0 319 128t129 329z" />
    <glyph glyph-name="ugrave" unicode="&#xf9;" horiz-adv-x="1089" 
d="M584 1157l-234 260h62l231 -260h-59zM516 -6q-181 0 -278 117t-97 315v565h45v-542q0 -204 88 -307t242 -103q161 0 269 128.5t108 334.5v489h45v-991h-45v260h-2q-51 -124 -151.5 -195t-223.5 -71z" />
    <glyph glyph-name="uacute" unicode="&#xfa;" horiz-adv-x="1089" 
d="M489 1149l252 276h64l-254 -276h-62zM516 -6q-181 0 -278 117t-97 315v565h45v-542q0 -204 88 -307t242 -103q161 0 269 128.5t108 334.5v489h45v-991h-45v260h-2q-51 -124 -151.5 -195t-223.5 -71z" />
    <glyph glyph-name="ucircumflex" unicode="&#xfb;" horiz-adv-x="1089" 
d="M260 1151l256 262h51l250 -262h-59l-213 225h-4l-222 -225h-59zM516 -6q-181 0 -278 117t-97 315v565h45v-542q0 -204 88 -307t242 -103q161 0 269 128.5t108 334.5v489h45v-991h-45v260h-2q-51 -124 -151.5 -195t-223.5 -71z" />
    <glyph glyph-name="udieresis" unicode="&#xfc;" horiz-adv-x="1089" 
d="M385 1241q-25 0 -41 16t-16 39q0 26 16 41t41 15t40 -15t15 -41q0 -24 -15.5 -39.5t-39.5 -15.5zM686 1241q-25 0 -41 16t-16 39q0 26 16 41t41 15t40 -15t15 -41q0 -24 -15.5 -39.5t-39.5 -15.5zM516 -6q-181 0 -278 117t-97 315v565h45v-542q0 -204 88 -307t242 -103
q161 0 269 128.5t108 334.5v489h45v-991h-45v260h-2q-51 -124 -151.5 -195t-223.5 -71z" />
    <glyph glyph-name="yacute" unicode="&#xfd;" horiz-adv-x="1036" 
d="M469 1149l252 276h63l-254 -276h-61zM332 -406l176 416l-453 981h56l419 -921h2l390 921h55l-594 -1397h-51z" />
    <glyph glyph-name="thorn" unicode="&#xfe;" horiz-adv-x="1228" 
d="M166 -406v1913h45v-794h2q55 132 170 209t256 77q144 0 257 -69.5t173.5 -186.5t60.5 -258q0 -144 -66 -257t-177 -173.5t-246 -60.5q-147 0 -260 74.5t-168 199.5h-2v-674h-45zM641 39q130 0 231.5 60t156 161.5t54.5 224.5q0 207 -128 338t-316 131
q-126 0 -224.5 -63.5t-151 -170t-52.5 -235.5q0 -197 124 -321.5t306 -124.5z" />
    <glyph glyph-name="ydieresis" unicode="&#xff;" horiz-adv-x="1036" 
d="M369 1241q-25 0 -41.5 16t-16.5 39q0 26 16.5 41t41.5 15t40 -15t15 -41q0 -24 -15.5 -39.5t-39.5 -15.5zM670 1241q-25 0 -41.5 16t-16.5 39q0 26 16.5 41t41.5 15t40 -15t15 -41q0 -24 -15.5 -39.5t-39.5 -15.5zM332 -406l176 416l-453 981h56l419 -921h2l390 921h55
l-594 -1397h-51z" />
    <glyph glyph-name="Amacron" unicode="&#x100;" horiz-adv-x="1310" 
d="M383 1710v47h547v-47h-547zM59 0l564 1454h59l569 -1454h-51l-170 432h-751l-168 -432h-52zM297 479h715l-357 918h-4z" />
    <glyph glyph-name="amacron" unicode="&#x101;" horiz-adv-x="1210" 
d="M315 1268v47h547v-47h-547zM584 -6q-135 0 -247 60.5t-178.5 173.5t-66.5 257q0 141 61 258t175 186.5t258 69.5q141 0 256 -77.5t170 -210.5h2v280h45v-991h-45v272h-2q-56 -127 -168 -202.5t-260 -75.5zM584 39q182 0 306 124.5t124 321.5q0 198 -120 333.5t-308 135.5
t-317.5 -131t-129.5 -338q0 -189 124 -317.5t321 -128.5z" />
    <glyph glyph-name="Abreve" unicode="&#x102;" horiz-adv-x="1310" 
d="M655 1620q-98 0 -170 64t-79 167h43q6 -75 61.5 -130.5t144.5 -55.5t144.5 56t60.5 130h45q-9 -103 -80.5 -167t-169.5 -64zM59 0l564 1454h59l569 -1454h-51l-170 432h-751l-168 -432h-52zM297 479h715l-357 918h-4z" />
    <glyph glyph-name="abreve" unicode="&#x103;" horiz-adv-x="1210" 
d="M588 1149q-100 0 -171.5 69t-78.5 191h43q6 -94 61 -154.5t146 -60.5t145.5 60.5t59.5 154.5h45q-9 -123 -79.5 -191.5t-170.5 -68.5zM584 -6q-135 0 -247 60.5t-178.5 173.5t-66.5 257q0 141 61 258t175 186.5t258 69.5q141 0 256 -77.5t170 -210.5h2v280h45v-991h-45
v272h-2q-56 -127 -168 -202.5t-260 -75.5zM584 39q182 0 306 124.5t124 321.5q0 198 -120 333.5t-308 135.5t-317.5 -131t-129.5 -338q0 -189 124 -317.5t321 -128.5z" />
    <glyph glyph-name="Aogonek" unicode="&#x104;" horiz-adv-x="1310" 
d="M1335 -297l8 -47q-56 -27 -129 -27q-80 0 -126 40.5t-46 115.5q0 57 39.5 118t112.5 109l-164 420h-751l-168 -432h-52l564 1454h59l569 -1454q-73 -38 -117 -96t-44 -117q0 -50 30.5 -80.5t93.5 -30.5q66 0 121 27zM297 479h715l-357 918h-4z" />
    <glyph glyph-name="aogonek" unicode="&#x105;" horiz-adv-x="1210" 
d="M1143 -297l8 -47q-56 -27 -129 -27q-80 0 -126 40.5t-46 115.5q0 59 42.5 122.5t121.5 112.5v252h-2q-56 -127 -168 -202.5t-260 -75.5q-135 0 -247 60.5t-178.5 173.5t-66.5 257q0 141 61 258t175 186.5t258 69.5q141 0 256 -77.5t170 -210.5h2v280h45v-991
q-74 -38 -118 -96.5t-44 -116.5q0 -50 31 -80.5t94 -30.5q66 0 121 27zM584 39q182 0 306 124.5t124 321.5q0 198 -120 333.5t-308 135.5t-317.5 -131t-129.5 -338q0 -189 124 -317.5t321 -128.5z" />
    <glyph glyph-name="Cacute" unicode="&#x106;" horiz-adv-x="1462" 
d="M774 1628l232 254h61l-233 -254h-60zM836 -6q-147 0 -275 48t-225 138t-153 229.5t-56 311.5q0 124 29 235t88 203.5t143 160t199 105t250 37.5q157 0 299.5 -67t255.5 -207l-39 -33q-205 260 -516 260q-157 0 -283.5 -53.5t-208 -147.5t-125 -220t-43.5 -273
q0 -162 51.5 -292t141 -214t209 -129t258.5 -45q312 0 516 256l39 -31q-219 -272 -555 -272z" />
    <glyph glyph-name="cacute" unicode="&#x107;" horiz-adv-x="1021" 
d="M535 1149l251 276h64l-254 -276h-61zM569 -6q-211 0 -342 140t-131 362q0 221 132 362t343 141q105 0 202.5 -40.5t166.5 -116.5l-35 -35q-56 67 -143.5 107t-190.5 40q-191 0 -309.5 -128.5t-118.5 -329.5q0 -203 118 -330t308 -127q99 0 192 38t152 105l31 -35
q-65 -69 -165 -111t-210 -42z" />
    <glyph glyph-name="Ccircumflex" unicode="&#x108;" horiz-adv-x="1462" 
d="M557 1628l256 223h51l250 -223h-61l-213 189h-4l-220 -189h-59zM836 -6q-147 0 -275 48t-225 138t-153 229.5t-56 311.5q0 124 29 235t88 203.5t143 160t199 105t250 37.5q157 0 299.5 -67t255.5 -207l-39 -33q-205 260 -516 260q-157 0 -283.5 -53.5t-208 -147.5
t-125 -220t-43.5 -273q0 -162 51.5 -292t141 -214t209 -129t258.5 -45q312 0 516 256l39 -31q-219 -272 -555 -272z" />
    <glyph glyph-name="ccircumflex" unicode="&#x109;" horiz-adv-x="1021" 
d="M281 1151l256 262h51l250 -262h-60l-213 225h-4l-221 -225h-59zM569 -6q-211 0 -342 140t-131 362q0 221 132 362t343 141q105 0 202.5 -40.5t166.5 -116.5l-35 -35q-56 67 -143.5 107t-190.5 40q-191 0 -309.5 -128.5t-118.5 -329.5q0 -203 118 -330t308 -127
q99 0 192 38t152 105l31 -35q-65 -69 -165 -111t-210 -42z" />
    <glyph glyph-name="Cdotaccent" unicode="&#x10a;" horiz-adv-x="1462" 
d="M836 1696q-25 0 -41.5 16t-16.5 39q0 26 16.5 40.5t41.5 14.5t40 -14.5t15 -40.5q0 -24 -15.5 -39.5t-39.5 -15.5zM836 -6q-147 0 -275 48t-225 138t-153 229.5t-56 311.5q0 124 29 235t88 203.5t143 160t199 105t250 37.5q157 0 299.5 -67t255.5 -207l-39 -33
q-205 260 -516 260q-157 0 -283.5 -53.5t-208 -147.5t-125 -220t-43.5 -273q0 -162 51.5 -292t141 -214t209 -129t258.5 -45q312 0 516 256l39 -31q-219 -272 -555 -272z" />
    <glyph glyph-name="cdotaccent" unicode="&#x10b;" horiz-adv-x="1021" 
d="M561 1241q-25 0 -41 16t-16 39q0 26 16 41t41 15t40 -15t15 -41q0 -24 -15.5 -39.5t-39.5 -15.5zM569 -6q-211 0 -342 140t-131 362q0 221 132 362t343 141q105 0 202.5 -40.5t166.5 -116.5l-35 -35q-56 67 -143.5 107t-190.5 40q-191 0 -309.5 -128.5t-118.5 -329.5
q0 -203 118 -330t308 -127q99 0 192 38t152 105l31 -35q-65 -69 -165 -111t-210 -42z" />
    <glyph glyph-name="Ccaron" unicode="&#x10c;" horiz-adv-x="1462" 
d="M807 1628l-250 223h61l213 -188h5l219 188h59l-256 -223h-51zM836 -6q-147 0 -275 48t-225 138t-153 229.5t-56 311.5q0 124 29 235t88 203.5t143 160t199 105t250 37.5q157 0 299.5 -67t255.5 -207l-39 -33q-205 260 -516 260q-157 0 -283.5 -53.5t-208 -147.5
t-125 -220t-43.5 -273q0 -162 51.5 -292t141 -214t209 -129t258.5 -45q312 0 516 256l39 -31q-219 -272 -555 -272z" />
    <glyph glyph-name="ccaron" unicode="&#x10d;" horiz-adv-x="1021" 
d="M530 1151l-249 262h59l217 -225h4l217 225h60l-256 -262h-52zM569 -6q-211 0 -342 140t-131 362q0 221 132 362t343 141q105 0 202.5 -40.5t166.5 -116.5l-35 -35q-56 67 -143.5 107t-190.5 40q-191 0 -309.5 -128.5t-118.5 -329.5q0 -203 118 -330t308 -127q99 0 192 38
t152 105l31 -35q-65 -69 -165 -111t-210 -42z" />
    <glyph glyph-name="Dcaron" unicode="&#x10e;" horiz-adv-x="1445" 
d="M631 1628l-250 223h61l213 -188h4l220 188h59l-256 -223h-51zM182 0v1454h383q170 0 311.5 -53.5t239 -149.5t151.5 -231t54 -295q0 -214 -91.5 -378t-262.5 -255.5t-396 -91.5h-389zM229 47h340q325 0 514 187t189 491q0 200 -87 355t-248.5 241t-373.5 86h-334v-1360z
" />
    <glyph glyph-name="dcaron" unicode="&#x10f;" horiz-adv-x="1337" 
d="M1253 1223l52 323h55l-66 -323h-41zM590 -6q-136 0 -248 60.5t-179 173.5t-67 257q0 141 61 258t175 186.5t258 69.5q141 0 256 -77.5t170 -212.5h4v798h45v-1507h-45v276h-4q-51 -127 -164.5 -204.5t-261.5 -77.5zM590 39q181 0 305.5 124.5t124.5 321.5
q0 129 -53.5 235.5t-152.5 170t-224 63.5q-190 0 -318.5 -131t-128.5 -338q0 -189 124.5 -317.5t322.5 -128.5z" />
    <glyph glyph-name="Dcroat" unicode="&#x110;" horiz-adv-x="1445" 
d="M565 1454q170 0 311.5 -53.5t239 -149.5t151.5 -231t54 -295q0 -214 -91.5 -378t-262.5 -255.5t-396 -91.5h-389v709h-176v47h176v698h383zM569 47q325 0 514 187t189 491q0 200 -87 355t-248.5 241t-373.5 86h-334v-651h476v-47h-476v-662h340z" />
    <glyph glyph-name="dcroat" unicode="&#x111;" horiz-adv-x="1224" 
d="M1192 1249v-45h-127v-1204h-45v276h-4q-51 -127 -164.5 -204.5t-261.5 -77.5q-136 0 -248 60.5t-179 173.5t-67 257q0 141 61 258t175 186.5t258 69.5q141 0 256 -77.5t170 -212.5h4v495h-500v45h500v258h45v-258h127zM590 39q181 0 305.5 124.5t124.5 321.5
q0 129 -53.5 235.5t-152.5 170t-224 63.5q-190 0 -318.5 -131t-128.5 -338q0 -189 124.5 -317.5t322.5 -128.5z" />
    <glyph glyph-name="Emacron" unicode="&#x112;" horiz-adv-x="1157" 
d="M313 1710v47h547v-47h-547zM182 0v1454h844v-47h-797v-655h670v-47h-670v-658h840v-47h-887z" />
    <glyph glyph-name="emacron" unicode="&#x113;" horiz-adv-x="1089" 
d="M844 1315v-47h-547v47h547zM1001 498h-858v-2q0 -199 119.5 -328t304.5 -129q227 0 357 166l34 -27q-138 -184 -387 -184q-208 0 -341.5 142t-133.5 360q0 216 135.5 359.5t335.5 143.5q192 0 313 -134.5t121 -338.5v-28zM567 954q-169 0 -288 -116t-134 -295h809
q-11 186 -116 298.5t-271 112.5z" />
    <glyph glyph-name="Ebreve" unicode="&#x114;" horiz-adv-x="1157" 
d="M586 1620q-98 0 -170.5 64t-79.5 167h43q6 -75 62 -130.5t145 -55.5t144.5 56t60.5 130h45q-9 -103 -80.5 -167t-169.5 -64zM182 0v1454h844v-47h-797v-655h670v-47h-670v-658h840v-47h-887z" />
    <glyph glyph-name="ebreve" unicode="&#x115;" horiz-adv-x="1089" 
d="M569 1149q-100 0 -171.5 69t-78.5 191h43q6 -94 61 -154.5t146 -60.5t145.5 60.5t59.5 154.5h45q-9 -123 -79.5 -191.5t-170.5 -68.5zM1001 498h-858v-2q0 -199 119.5 -328t304.5 -129q227 0 357 166l34 -27q-138 -184 -387 -184q-208 0 -341.5 142t-133.5 360
q0 216 135.5 359.5t335.5 143.5q192 0 313 -134.5t121 -338.5v-28zM567 954q-169 0 -288 -116t-134 -295h809q-11 186 -116 298.5t-271 112.5z" />
    <glyph glyph-name="Edotaccent" unicode="&#x116;" horiz-adv-x="1157" 
d="M586 1696q-25 0 -41.5 16t-16.5 39q0 26 16.5 40.5t41.5 14.5t40 -14.5t15 -40.5q0 -24 -15.5 -39.5t-39.5 -15.5zM182 0v1454h844v-47h-797v-655h670v-47h-670v-658h840v-47h-887z" />
    <glyph glyph-name="edotaccent" unicode="&#x117;" horiz-adv-x="1089" 
d="M571 1241q-25 0 -41 16t-16 39q0 26 16 41t41 15t40.5 -15t15.5 -41q0 -24 -15.5 -39.5t-40.5 -15.5zM1001 498h-858v-2q0 -199 119.5 -328t304.5 -129q227 0 357 166l34 -27q-138 -184 -387 -184q-208 0 -341.5 142t-133.5 360q0 216 135.5 359.5t335.5 143.5
q192 0 313 -134.5t121 -338.5v-28zM567 954q-169 0 -288 -116t-134 -295h809q-11 186 -116 298.5t-271 112.5z" />
    <glyph glyph-name="Eogonek" unicode="&#x118;" horiz-adv-x="1157" 
d="M1153 -297l8 -47q-56 -27 -129 -27q-80 0 -126 40.5t-46 115.5q0 54 34.5 111.5t98.5 103.5h-811v1454h844v-47h-797v-655h670v-47h-670v-658h840v-47q-74 -38 -118 -96.5t-44 -116.5q0 -50 31 -80.5t94 -30.5q66 0 121 27z" />
    <glyph glyph-name="eogonek" unicode="&#x119;" horiz-adv-x="1089" 
d="M1001 498h-858v-2q0 -199 119.5 -328t304.5 -129q227 0 357 166l34 -27q-114 -149 -301 -178q-72 -38 -115.5 -95.5t-43.5 -115.5q0 -50 31.5 -80.5t95.5 -30.5q65 0 118 27l9 -47q-52 -27 -127 -27q-80 0 -126 40.5t-46 115.5q0 51 30.5 105.5t87.5 99.5v2
q-208 0 -341.5 142t-133.5 360q0 216 135.5 359.5t335.5 143.5q192 0 313 -134.5t121 -338.5v-28zM567 954q-169 0 -288 -116t-134 -295h809q-11 186 -116 298.5t-271 112.5z" />
    <glyph glyph-name="Ecaron" unicode="&#x11a;" horiz-adv-x="1157" 
d="M557 1628l-250 223h62l213 -188h4l219 188h59l-256 -223h-51zM182 0v1454h844v-47h-797v-655h670v-47h-670v-658h840v-47h-887z" />
    <glyph glyph-name="ecaron" unicode="&#x11b;" horiz-adv-x="1089" 
d="M592 1151h-51l-250 262h59l217 -225h4l217 225h60zM1001 498h-858v-2q0 -199 119.5 -328t304.5 -129q227 0 357 166l34 -27q-138 -184 -387 -184q-208 0 -341.5 142t-133.5 360q0 216 135.5 359.5t335.5 143.5q192 0 313 -134.5t121 -338.5v-28zM567 954
q-169 0 -288 -116t-134 -295h809q-11 186 -116 298.5t-271 112.5z" />
    <glyph glyph-name="Gcircumflex" unicode="&#x11c;" horiz-adv-x="1556" 
d="M549 1628l256 223h51l250 -223h-62l-213 189h-4l-219 -189h-59zM838 -6q-155 0 -287 54t-225.5 149.5t-146 231.5t-52.5 296q0 216 90 384t252 260.5t369 92.5q321 0 528 -202l-33 -33q-196 188 -495 188q-294 0 -478 -191t-184 -499q0 -201 83.5 -356.5t234.5 -241.5
t344 -86q319 0 512 166v444h-551v47h598v-514q-211 -190 -559 -190z" />
    <glyph glyph-name="gcircumflex" unicode="&#x11d;" horiz-adv-x="1200" 
d="M299 1151l256 262h51l250 -262h-59l-213 225h-4l-222 -225h-59zM598 -412q-217 0 -405 115l14 47q184 -117 393 -117q202 0 304 108.5t102 289.5v268h-2q-54 -127 -165 -200.5t-264 -73.5q-132 0 -240.5 59.5t-173.5 173t-65 260.5q0 132 59.5 241.5t170.5 174.5t252 65
q144 0 257 -71t169 -195h2v258h45v-971q0 -198 -116.5 -315t-336.5 -117zM575 70q196 0 313.5 126.5t117.5 321.5q0 193 -122 314.5t-306 121.5q-128 0 -228 -59t-153.5 -158t-53.5 -219q0 -200 124 -324t308 -124z" />
    <glyph glyph-name="Gbreve" unicode="&#x11e;" horiz-adv-x="1556" 
d="M827 1620q-98 0 -170 64t-79 167h43q6 -75 61.5 -130.5t144.5 -55.5t144.5 56t60.5 130h45q-9 -103 -80.5 -167t-169.5 -64zM838 -6q-155 0 -287 54t-225.5 149.5t-146 231.5t-52.5 296q0 216 90 384t252 260.5t369 92.5q321 0 528 -202l-33 -33q-196 188 -495 188
q-294 0 -478 -191t-184 -499q0 -201 83.5 -356.5t234.5 -241.5t344 -86q319 0 512 166v444h-551v47h598v-514q-211 -190 -559 -190z" />
    <glyph glyph-name="gbreve" unicode="&#x11f;" horiz-adv-x="1200" 
d="M578 1149q-100 0 -171.5 69t-78.5 191h43q6 -94 61 -154.5t146 -60.5t145 60.5t59 154.5h45q-9 -123 -79 -191.5t-170 -68.5zM598 -412q-217 0 -405 115l14 47q184 -117 393 -117q202 0 304 108.5t102 289.5v268h-2q-54 -127 -165 -200.5t-264 -73.5q-132 0 -240.5 59.5
t-173.5 173t-65 260.5q0 132 59.5 241.5t170.5 174.5t252 65q144 0 257 -71t169 -195h2v258h45v-971q0 -198 -116.5 -315t-336.5 -117zM575 70q196 0 313.5 126.5t117.5 321.5q0 193 -122 314.5t-306 121.5q-128 0 -228 -59t-153.5 -158t-53.5 -219q0 -200 124 -324
t308 -124z" />
    <glyph glyph-name="Gdotaccent" unicode="&#x120;" horiz-adv-x="1556" 
d="M827 1696q-25 0 -41 16t-16 39q0 26 16 40.5t41 14.5t40.5 -14.5t15.5 -40.5q0 -23 -15.5 -39t-40.5 -16zM838 -6q-155 0 -287 54t-225.5 149.5t-146 231.5t-52.5 296q0 216 90 384t252 260.5t369 92.5q321 0 528 -202l-33 -33q-196 188 -495 188q-294 0 -478 -191
t-184 -499q0 -201 83.5 -356.5t234.5 -241.5t344 -86q319 0 512 166v444h-551v47h598v-514q-211 -190 -559 -190z" />
    <glyph glyph-name="gdotaccent" unicode="&#x121;" horiz-adv-x="1200" 
d="M580 1241q-25 0 -41.5 16t-16.5 39q0 26 16.5 41t41.5 15t40 -15t15 -41q0 -24 -15.5 -39.5t-39.5 -15.5zM598 -412q-217 0 -405 115l14 47q184 -117 393 -117q202 0 304 108.5t102 289.5v268h-2q-54 -127 -165 -200.5t-264 -73.5q-132 0 -240.5 59.5t-173.5 173
t-65 260.5q0 132 59.5 241.5t170.5 174.5t252 65q144 0 257 -71t169 -195h2v258h45v-971q0 -198 -116.5 -315t-336.5 -117zM575 70q196 0 313.5 126.5t117.5 321.5q0 193 -122 314.5t-306 121.5q-128 0 -228 -59t-153.5 -158t-53.5 -219q0 -200 124 -324t308 -124z" />
    <glyph glyph-name="Gcommaaccent" unicode="&#x122;" horiz-adv-x="1556" 
d="M838 -6q-155 0 -287 54t-225.5 149.5t-146 231.5t-52.5 296q0 216 90 384t252 260.5t369 92.5q321 0 528 -202l-33 -33q-196 188 -495 188q-294 0 -478 -191t-184 -499q0 -201 83.5 -356.5t234.5 -241.5t344 -86q319 0 512 166v444h-551v47h598v-514q-211 -190 -559 -190
zM672 -408l-17 37q83 4 111.5 42t28.5 102q0 46 -11 114h45q11 -64 11 -112q0 -173 -168 -183z" />
    <glyph glyph-name="gcommaaccent" unicode="&#x123;" horiz-adv-x="1200" 
d="M737 1425l17 -36q-83 -4 -111.5 -42t-28.5 -102q0 -47 11 -115h-45q-11 64 -11 113q0 172 168 182zM598 -412q-217 0 -405 115l14 47q184 -117 393 -117q202 0 304 108.5t102 289.5v268h-2q-54 -127 -165 -200.5t-264 -73.5q-132 0 -240.5 59.5t-173.5 173t-65 260.5
q0 132 59.5 241.5t170.5 174.5t252 65q144 0 257 -71t169 -195h2v258h45v-971q0 -198 -116.5 -315t-336.5 -117zM575 70q196 0 313.5 126.5t117.5 321.5q0 193 -122 314.5t-306 121.5q-128 0 -228 -59t-153.5 -158t-53.5 -219q0 -200 124 -324t308 -124z" />
    <glyph glyph-name="Hcircumflex" unicode="&#x124;" horiz-adv-x="1417" 
d="M428 1628l256 223h51l250 -223h-61l-213 189h-4l-220 -189h-59zM182 0v1454h47v-745h959v745h47v-1454h-47v662h-959v-662h-47z" />
    <glyph glyph-name="hcircumflex" unicode="&#x125;" horiz-adv-x="1122" 
d="M166 1655l256 223h51l250 -223h-61l-213 188h-5l-219 -188h-59zM166 0v1507h45v-780h2q52 127 162.5 199.5t261.5 72.5q158 0 250 -105.5t92 -295.5v-598h-45v575q0 195 -82.5 287t-214.5 92q-194 0 -310 -127.5t-116 -337.5v-489h-45z" />
    <glyph glyph-name="Hbar" unicode="&#x126;" horiz-adv-x="1417" 
d="M1376 1157v-45h-141v-1112h-47v662h-959v-662h-47v1112h-157v45h157v297h47v-297h959v297h47v-297h141zM1188 709v403h-959v-403h959z" />
    <glyph glyph-name="hbar" unicode="&#x127;" horiz-adv-x="1122" 
d="M637 999q158 0 250 -105.5t92 -295.5v-598h-45v575q0 195 -82.5 287t-214.5 92q-194 0 -310 -127.5t-116 -337.5v-489h-45v1204h-158v45h158v258h45v-258h448v-45h-448v-477h2q52 127 162.5 199.5t261.5 72.5z" />
    <glyph glyph-name="Itilde" unicode="&#x128;" horiz-adv-x="440" 
d="M381 1628q-31 0 -66 15t-54.5 28t-57.5 41q-78 57 -131 57q-86 0 -131 -124l-43 12q54 158 172 158q28 0 59.5 -11.5t46.5 -20.5t53 -34q8 -5 34.5 -24t39.5 -27t35 -16.5t41 -8.5q39 0 72 32t51 95l43 -14q-23 -79 -68 -118.5t-96 -39.5zM197 0v1454h47v-1454h-47z" />
    <glyph glyph-name="itilde" unicode="&#x129;" horiz-adv-x="399" 
d="M360 1190q-12 0 -25 2.5t-23 5t-24 10t-21.5 10.5t-23.5 14t-20.5 14t-22.5 15.5t-20 14.5q-76 55 -129 55q-86 0 -131 -125l-43 13q54 157 172 157q68 0 158 -63q8 -6 35 -25t40.5 -27.5t35 -17t40.5 -8.5q39 0 72 32t51 95l43 -14q-23 -79 -68 -118.5t-96 -39.5zM176 0
v991h45v-991h-45z" />
    <glyph glyph-name="Imacron" unicode="&#x12a;" horiz-adv-x="440" 
d="M-51 1710v47h547v-47h-547zM197 0v1454h47v-1454h-47z" />
    <glyph glyph-name="imacron" unicode="&#x12b;" horiz-adv-x="399" 
d="M-72 1268v47h547v-47h-547zM176 0v991h45v-991h-45z" />
    <glyph glyph-name="Ibreve" unicode="&#x12c;" horiz-adv-x="440" 
d="M221 1620q-98 0 -170.5 64t-79.5 167h43q6 -75 62 -130.5t145 -55.5t144.5 56t60.5 130h45q-9 -103 -80.5 -167t-169.5 -64zM197 0v1454h47v-1454h-47z" />
    <glyph glyph-name="ibreve" unicode="&#x12d;" horiz-adv-x="399" 
d="M201 1149q-98 0 -162 68t-70 192h45q3 -97 50 -156t137 -59t136 59t48 156h45q-6 -124 -68.5 -192t-160.5 -68zM176 0v991h45v-991h-45z" />
    <glyph glyph-name="Iogonek" unicode="&#x12e;" horiz-adv-x="440" 
d="M328 -297l8 -47q-56 -27 -129 -27q-80 0 -126 40.5t-46 115.5q0 60 41.5 122.5t120.5 110.5v1436h47v-1454q-74 -38 -118 -96.5t-44 -116.5q0 -50 31 -80.5t94 -30.5q65 0 121 27z" />
    <glyph glyph-name="iogonek" unicode="&#x12f;" horiz-adv-x="399" 
d="M203 1241q-25 0 -41.5 16t-16.5 39q0 26 16.5 41t41.5 15t40 -15t15 -41q0 -24 -15.5 -39.5t-39.5 -15.5zM305 -297l8 -47q-56 -27 -129 -27q-80 0 -126 40.5t-46 115.5q0 59 42.5 122.5t121.5 112.5v971h45v-991q-74 -38 -118 -96.5t-44 -116.5q0 -50 31 -80.5t94 -30.5
q66 0 121 27z" />
    <glyph glyph-name="Idotaccent" unicode="&#x130;" horiz-adv-x="440" 
d="M221 1696q-25 0 -41 16t-16 39q0 26 16 40.5t41 14.5t40 -14.5t15 -40.5q0 -24 -15.5 -39.5t-39.5 -15.5zM197 0v1454h47v-1454h-47z" />
    <glyph glyph-name="dotlessi" unicode="&#x131;" horiz-adv-x="399" 
d="M176 0v991h45v-991h-45z" />
    <glyph glyph-name="IJ" unicode="&#x132;" horiz-adv-x="1396" 
d="M197 0v1454h47v-1454h-47zM874 -6q-92 0 -195 50t-185 142l28 37q168 -182 352 -182q316 0 316 395v1018h47v-1028q0 -432 -363 -432z" />
    <glyph glyph-name="ij" unicode="&#x133;" horiz-adv-x="759" 
d="M203 1241q-25 0 -41.5 16t-16.5 39q0 26 16.5 41t41.5 15t40 -15t15 -41q0 -24 -15.5 -39.5t-39.5 -15.5zM594 1241q-25 0 -41 16t-16 39q0 26 16 41t41 15t40 -15t15 -41q0 -24 -15.5 -39.5t-39.5 -15.5zM176 0v991h45v-991h-45zM408 -412q-70 0 -129 29l6 49
q54 -33 127 -33q157 0 157 193v1165h45v-1165q0 -238 -206 -238z" />
    <glyph glyph-name="Jcircumflex" unicode="&#x134;" horiz-adv-x="956" 
d="M498 1628l256 223h51l250 -223h-62l-213 189h-4l-219 -189h-59zM434 -6q-92 0 -195.5 50t-185.5 142l29 37q168 -182 352 -182q316 0 316 395v1018h47v-1028q0 -432 -363 -432z" />
    <glyph glyph-name="jcircumflex" unicode="&#x135;" horiz-adv-x="360" 
d="M-86 1151l256 262h51l250 -262h-59l-213 225h-4l-222 -225h-59zM8 -412q-70 0 -129 29l6 49q54 -33 127 -33q158 0 158 193v1165h45v-1165q0 -238 -207 -238z" />
    <glyph glyph-name="Kcommaaccent" unicode="&#x136;" horiz-adv-x="1253" 
d="M182 0v1454h47v-989h4l857 989h63l-596 -688l606 -766h-61l-576 731l-297 -344v-387h-47zM498 -408l-17 37q83 4 111.5 42t28.5 102q0 46 -11 114h45q11 -64 11 -112q0 -173 -168 -183z" />
    <glyph glyph-name="kcommaaccent" unicode="&#x137;" horiz-adv-x="989" 
d="M166 0v1507h45v-1220l2 -2l649 706h64l-396 -430l392 -561h-58l-366 524l-287 -309v-215h-45zM373 -408l-17 37q83 4 111.5 42t28.5 102q0 46 -11 114h45q11 -64 11 -112q0 -173 -168 -183z" />
    <glyph glyph-name="kgreenlandic" unicode="&#x138;" horiz-adv-x="1044" 
d="M166 0v991h45v-708h2l682 708h66l-420 -436l440 -555h-61l-414 518l-295 -307v-211h-45z" />
    <glyph glyph-name="Lacute" unicode="&#x139;" horiz-adv-x="1081" 
d="M379 1628l231 254h62l-234 -254h-59zM182 0v1454h47v-1407h807v-47h-854z" />
    <glyph glyph-name="lacute" unicode="&#x13a;" horiz-adv-x="397" 
d="M168 1655l231 254h62l-234 -254h-59zM176 0v1507h45v-1507h-45z" />
    <glyph glyph-name="Lcommaaccent" unicode="&#x13b;" horiz-adv-x="1081" 
d="M182 0v1454h47v-1407h807v-47h-854zM451 -408l-17 37q83 4 111 42t28 102q0 52 -10 114h45q10 -58 10 -112q0 -173 -167 -183z" />
    <glyph glyph-name="lcommaaccent" unicode="&#x13c;" horiz-adv-x="397" 
d="M176 0v1507h45v-1507h-45zM68 -408l-17 37q83 4 111 42t28 102q0 52 -10 114h45q11 -64 11 -112q0 -173 -168 -183z" />
    <glyph glyph-name="Lcaron" unicode="&#x13d;" horiz-adv-x="1081" 
d="M561 1221l51 323h56l-66 -323h-41zM182 0v1454h47v-1407h807v-47h-854z" />
    <glyph glyph-name="lcaron" unicode="&#x13e;" horiz-adv-x="493" 
d="M410 1223l51 323h55l-65 -323h-41zM176 0v1507h45v-1507h-45z" />
    <glyph glyph-name="Ldot" unicode="&#x13f;" horiz-adv-x="1081" 
d="M182 0v1454h47v-1407h807v-47h-854zM762 633q-26 0 -43 16.5t-17 42.5t17 42t43 16t42.5 -16t16.5 -42t-16.5 -42.5t-42.5 -16.5z" />
    <glyph glyph-name="ldot" unicode="&#x140;" horiz-adv-x="432" 
d="M176 0v1507h45v-1507h-45zM418 504q-26 0 -43 16.5t-17 42.5t17 42t43 16t42.5 -16t16.5 -42t-16.5 -42.5t-42.5 -16.5z" />
    <glyph glyph-name="Lslash" unicode="&#x141;" horiz-adv-x="1142" 
d="M291 47h807v-47h-854v623l-197 -84v53l197 84v778h47v-758l244 103v-51l-244 -105v-596z" />
    <glyph glyph-name="lslash" unicode="&#x142;" horiz-adv-x="430" 
d="M412 770v-49l-170 -66v-655h-45v637l-187 -72v49l187 72v821h45v-802z" />
    <glyph glyph-name="Nacute" unicode="&#x143;" horiz-adv-x="1490" 
d="M602 1628l232 254h61l-233 -254h-60zM182 0v1454h45l1030 -1372h3v1372h47v-1454h-47l-1029 1370h-2v-1370h-47z" />
    <glyph glyph-name="nacute" unicode="&#x144;" horiz-adv-x="1112" 
d="M496 1149l252 276h63l-254 -276h-61zM166 0v991h45v-262h2q53 127 161.5 198.5t252.5 71.5q158 0 250 -105.5t92 -295.5v-598h-45v575q0 195 -82.5 287t-214.5 92q-187 0 -301.5 -128t-114.5 -337v-489h-45z" />
    <glyph glyph-name="Ncommaaccent" unicode="&#x145;" horiz-adv-x="1490" 
d="M182 0v1454h45l1030 -1372h3v1372h47v-1454h-47l-1029 1370h-2v-1370h-47zM612 -408l-16 37q83 4 111 42t28 102q0 52 -10 114h45q10 -58 10 -112q0 -173 -168 -183z" />
    <glyph glyph-name="ncommaaccent" unicode="&#x146;" horiz-adv-x="1112" 
d="M166 0v991h45v-262h2q53 127 161.5 198.5t252.5 71.5q158 0 250 -105.5t92 -295.5v-598h-45v575q0 195 -82.5 287t-214.5 92q-187 0 -301.5 -128t-114.5 -337v-489h-45zM428 -408l-16 37q83 4 111 42t28 102q0 52 -10 114h45q10 -58 10 -112q0 -173 -168 -183z" />
    <glyph glyph-name="Ncaron" unicode="&#x147;" horiz-adv-x="1490" 
d="M717 1628l-250 223h61l213 -188h4l220 188h59l-256 -223h-51zM182 0v1454h45l1030 -1372h3v1372h47v-1454h-47l-1029 1370h-2v-1370h-47z" />
    <glyph glyph-name="ncaron" unicode="&#x148;" horiz-adv-x="1112" 
d="M549 1151l-250 262h59l217 -225h5l217 225h59l-256 -262h-51zM166 0v991h45v-262h2q53 127 161.5 198.5t252.5 71.5q158 0 250 -105.5t92 -295.5v-598h-45v575q0 195 -82.5 287t-214.5 92q-187 0 -301.5 -128t-114.5 -337v-489h-45z" />
    <glyph glyph-name="napostrophe" unicode="&#x149;" horiz-adv-x="1212" 
d="M55 1110l51 344h54l-64 -344h-41zM266 0v991h45v-262h2q53 127 161.5 198.5t252.5 71.5q158 0 250 -105.5t92 -295.5v-598h-45v575q0 195 -82.5 287t-214.5 92q-187 0 -301.5 -128t-114.5 -337v-489h-45z" />
    <glyph glyph-name="Eng" unicode="&#x14a;" horiz-adv-x="1488" 
d="M1257 1454h48v-1505q0 -188 -72 -274.5t-240 -86.5q-84 0 -147 29l4 47q60 -31 145 -31q60 0 103.5 12.5t81.5 45t57.5 97.5t19.5 161v53l-1026 1368h-2v-1370h-47v1454h45l1026 -1372l4 2v1370z" />
    <glyph glyph-name="eng" unicode="&#x14b;" horiz-adv-x="1112" 
d="M690 -412q-67 0 -133 29l6 45q59 -29 127 -29q82 0 130.5 21.5t76 83.5t27.5 174v663q0 195 -82.5 287t-214.5 92q-187 0 -301.5 -128t-114.5 -337v-489h-45v991h45v-262h2q53 127 161.5 198.5t252.5 71.5q158 0 250 -105.5t92 -295.5v-686q0 -169 -61 -246.5t-218 -77.5
z" />
    <glyph glyph-name="Omacron" unicode="&#x14c;" horiz-adv-x="1683" 
d="M571 1710v47h547v-47h-547zM846 -6q-198 0 -361.5 90.5t-260.5 259.5t-97 385q0 215 97 383.5t260.5 259t361.5 90.5q145 0 275 -53.5t226 -147.5t152.5 -232.5t56.5 -299.5q0 -162 -56.5 -300.5t-152.5 -233t-226 -148t-275 -53.5zM846 41q135 0 256 50t210.5 138.5
t142 218t52.5 281.5q0 151 -52.5 280.5t-142 217.5t-210.5 138t-256 50q-138 0 -261 -50t-213.5 -138t-143 -217.5t-52.5 -280.5q0 -152 52.5 -281.5t143 -218t213.5 -138.5t261 -50z" />
    <glyph glyph-name="omacron" unicode="&#x14d;" horiz-adv-x="1185" 
d="M324 1268v47h546v-47h-546zM594 -6q-145 0 -260 68.5t-176.5 182.5t-61.5 251q0 101 36.5 193t100.5 160.5t158 109t203 40.5q136 0 248.5 -62.5t180 -178.5t67.5 -262t-67.5 -261.5t-180 -178t-248.5 -62.5zM594 39q190 0 319 128t129 329t-129.5 329.5t-318.5 128.5
q-132 0 -236.5 -62.5t-159.5 -166.5t-55 -229q0 -93 32.5 -176.5t90.5 -145.5t143 -98.5t185 -36.5z" />
    <glyph glyph-name="Obreve" unicode="&#x14e;" horiz-adv-x="1683" 
d="M844 1620q-98 0 -170.5 64t-79.5 167h43q6 -75 62 -130.5t145 -55.5t144.5 56t60.5 130h45q-9 -103 -80.5 -167t-169.5 -64zM846 -6q-198 0 -361.5 90.5t-260.5 259.5t-97 385q0 215 97 383.5t260.5 259t361.5 90.5q145 0 275 -53.5t226 -147.5t152.5 -232.5t56.5 -299.5
q0 -162 -56.5 -300.5t-152.5 -233t-226 -148t-275 -53.5zM846 41q135 0 256 50t210.5 138.5t142 218t52.5 281.5q0 151 -52.5 280.5t-142 217.5t-210.5 138t-256 50q-138 0 -261 -50t-213.5 -138t-143 -217.5t-52.5 -280.5q0 -152 52.5 -281.5t143 -218t213.5 -138.5
t261 -50z" />
    <glyph glyph-name="obreve" unicode="&#x14f;" horiz-adv-x="1185" 
d="M596 1149q-100 0 -171.5 69t-78.5 191h43q6 -94 61 -154.5t146 -60.5t145.5 60.5t59.5 154.5h45q-9 -123 -79.5 -191.5t-170.5 -68.5zM594 -6q-145 0 -260 68.5t-176.5 182.5t-61.5 251q0 101 36.5 193t100.5 160.5t158 109t203 40.5q136 0 248.5 -62.5t180 -178.5
t67.5 -262t-67.5 -261.5t-180 -178t-248.5 -62.5zM594 39q190 0 319 128t129 329t-129.5 329.5t-318.5 128.5q-132 0 -236.5 -62.5t-159.5 -166.5t-55 -229q0 -93 32.5 -176.5t90.5 -145.5t143 -98.5t185 -36.5z" />
    <glyph glyph-name="Ohungarumlaut" unicode="&#x150;" horiz-adv-x="1683" 
d="M688 1628l250 277h63l-253 -277h-60zM942 1628l250 277h63l-256 -277h-57zM846 -6q-198 0 -361.5 90.5t-260.5 259.5t-97 385q0 215 97 383.5t260.5 259t361.5 90.5q145 0 275 -53.5t226 -147.5t152.5 -232.5t56.5 -299.5q0 -162 -56.5 -300.5t-152.5 -233t-226 -148
t-275 -53.5zM846 41q135 0 256 50t210.5 138.5t142 218t52.5 281.5q0 151 -52.5 280.5t-142 217.5t-210.5 138t-256 50q-138 0 -261 -50t-213.5 -138t-143 -217.5t-52.5 -280.5q0 -152 52.5 -281.5t143 -218t213.5 -138.5t261 -50z" />
    <glyph glyph-name="ohungarumlaut" unicode="&#x151;" horiz-adv-x="1185" 
d="M440 1149l250 276h64l-254 -276h-60zM694 1149l250 276h64l-256 -276h-58zM594 -6q-145 0 -260 68.5t-176.5 182.5t-61.5 251q0 101 36.5 193t100.5 160.5t158 109t203 40.5q136 0 248.5 -62.5t180 -178.5t67.5 -262t-67.5 -261.5t-180 -178t-248.5 -62.5zM594 39
q190 0 319 128t129 329t-129.5 329.5t-318.5 128.5q-132 0 -236.5 -62.5t-159.5 -166.5t-55 -229q0 -93 32.5 -176.5t90.5 -145.5t143 -98.5t185 -36.5z" />
    <glyph glyph-name="OE" unicode="&#x152;" horiz-adv-x="1908" 
d="M981 47h840v-47h-969q-159 0 -296 58.5t-230 158t-146 233t-53 281.5t53 281t146 231t230 155t296 56h928v-47h-799v-655h680v-47h-680v-658zM852 47h84v1360h-84q-139 1 -263 -48t-215 -137t-144.5 -215.5t-53.5 -275.5q0 -149 53.5 -277.5t144.5 -217t215 -139
t263 -50.5z" />
    <glyph glyph-name="oe" unicode="&#x153;" horiz-adv-x="1687" 
d="M1620 520v-22h-741q3 -215 101.5 -337t264.5 -122q111 0 176.5 40t126.5 126l35 -27q-64 -93 -141 -138.5t-193 -45.5q-86 0 -155 26.5t-114.5 73t-74.5 100.5t-45 119h-4q-38 -146 -139.5 -232.5t-233.5 -86.5q-186 0 -296.5 142t-110.5 360q0 216 113.5 359.5
t293.5 143.5q128 0 230 -87t141 -234h4q38 149 135.5 235t241.5 86q166 0 275.5 -136t109.5 -343zM483 39q152 0 251.5 127.5t99.5 329.5q0 201 -102 329.5t-249 128.5q-161 0 -260.5 -130t-99.5 -328t99 -327.5t261 -129.5zM881 543h692q-11 187 -101.5 299t-236.5 112
q-156 0 -249.5 -113.5t-104.5 -297.5z" />
    <glyph glyph-name="Racute" unicode="&#x154;" horiz-adv-x="1251" 
d="M467 1628l231 254h62l-234 -254h-59zM182 0v1454h477q226 0 338.5 -112.5t112.5 -297.5q0 -199 -116 -301.5t-320 -115.5l450 -627h-57l-451 625h-387v-625h-47zM229 672h394q117 0 203.5 28t137 79.5t74 117t23.5 147.5q0 181 -106 272t-293 91h-433v-735z" />
    <glyph glyph-name="racute" unicode="&#x155;" horiz-adv-x="649" 
d="M254 1149l252 276h63l-254 -276h-61zM166 0v991h45v-243h4q45 118 136 184.5t216 66.5q46 0 66 -2v-49q-40 4 -60 4q-164 0 -263 -125.5t-99 -330.5v-496h-45z" />
    <glyph glyph-name="Rcommaaccent" unicode="&#x156;" horiz-adv-x="1251" 
d="M182 0v1454h477q226 0 338.5 -112.5t112.5 -297.5q0 -199 -116 -301.5t-320 -115.5l450 -627h-57l-451 625h-387v-625h-47zM229 672h394q117 0 203.5 28t137 79.5t74 117t23.5 147.5q0 181 -106 272t-293 91h-433v-735zM469 -408l-16 37q83 4 111 42t28 102q0 52 -10 114
h45q10 -58 10 -112q0 -173 -168 -183z" />
    <glyph glyph-name="rcommaaccent" unicode="&#x157;" horiz-adv-x="649" 
d="M166 0v991h45v-243h4q45 118 136 184.5t216 66.5q46 0 66 -2v-49q-40 4 -60 4q-164 0 -263 -125.5t-99 -330.5v-496h-45zM59 -408l-16 37q83 4 111 42t28 102q0 52 -10 114h45q10 -58 10 -112q0 -173 -168 -183z" />
    <glyph glyph-name="Rcaron" unicode="&#x158;" horiz-adv-x="1251" 
d="M582 1628l-250 223h61l213 -188h4l219 188h60l-256 -223h-51zM182 0v1454h477q226 0 338.5 -112.5t112.5 -297.5q0 -199 -116 -301.5t-320 -115.5l450 -627h-57l-451 625h-387v-625h-47zM229 672h394q117 0 203.5 28t137 79.5t74 117t23.5 147.5q0 181 -106 272t-293 91
h-433v-735z" />
    <glyph glyph-name="rcaron" unicode="&#x159;" horiz-adv-x="649" 
d="M369 1151l-250 262h59l217 -225h4l217 225h60l-256 -262h-51zM166 0v991h45v-243h4q45 118 136 184.5t216 66.5q46 0 66 -2v-49q-40 4 -60 4q-164 0 -263 -125.5t-99 -330.5v-496h-45z" />
    <glyph glyph-name="Sacute" unicode="&#x15a;" horiz-adv-x="1142" 
d="M489 1628l232 254h61l-233 -254h-60zM578 -6q-140 0 -268.5 54t-221.5 165l37 37q75 -102 198 -155.5t259 -53.5q109 0 199 34t147 107t57 174q0 33 -6.5 62t-15.5 52.5t-27 46t-33.5 38.5t-43.5 33.5t-47.5 28.5t-55 27t-57.5 24.5t-63 25t-63 25.5q-172 70 -240 111
q-162 99 -179 250q-2 19 -2 40q0 149 115 245.5t298 96.5q107 0 218 -40t198 -111l-33 -39q-84 68 -185 105.5t-196 37.5q-94 0 -175.5 -32t-136 -101t-54.5 -162q0 -73 28 -128t96.5 -100t112.5 -65.5t146 -60.5q3 -1 4 -2q176 -70 209 -86q149 -70 200 -165
q37 -67 37 -157q0 -159 -121.5 -260.5t-334.5 -101.5z" />
    <glyph glyph-name="sacute" unicode="&#x15b;" horiz-adv-x="849" 
d="M406 1149l251 276h64l-254 -276h-61zM432 -6q-210 0 -362 137l26 37q68 -61 144.5 -95t191.5 -34q131 0 209 62t78 149q0 23 -4.5 43t-11 35.5t-19.5 30.5t-24.5 26t-32 22.5t-35.5 19t-42 18t-44.5 16.5t-49 17t-50.5 18q-48 17 -78 29t-67.5 30t-60 37t-43.5 44
t-30.5 56.5t-9.5 69.5q0 101 82 169t202 68q188 0 324 -118l-31 -33q-69 59 -138.5 81.5t-152.5 22.5q-101 0 -170 -55t-69 -131q0 -39 14.5 -70.5t34 -52t58 -41.5t65 -32t76.5 -29l51 -18q50 -18 74.5 -26.5t63.5 -25.5t58 -30t44 -34t36 -43t19 -52t8 -66
q-2 -106 -91 -179t-243 -73z" />
    <glyph glyph-name="Scircumflex" unicode="&#x15c;" horiz-adv-x="1142" 
d="M293 1628l256 223h51l250 -223h-62l-213 189h-4l-219 -189h-59zM578 -6q-140 0 -268.5 54t-221.5 165l37 37q75 -102 198 -155.5t259 -53.5q109 0 199 34t147 107t57 174q0 33 -6.5 62t-15.5 52.5t-27 46t-33.5 38.5t-43.5 33.5t-47.5 28.5t-55 27t-57.5 24.5t-63 25
t-63 25.5q-172 70 -240 111q-162 99 -179 250q-2 19 -2 40q0 149 115 245.5t298 96.5q107 0 218 -40t198 -111l-33 -39q-84 68 -185 105.5t-196 37.5q-94 0 -175.5 -32t-136 -101t-54.5 -162q0 -73 28 -128t96.5 -100t112.5 -65.5t146 -60.5q3 -1 4 -2q176 -70 209 -86
q149 -70 200 -165q37 -67 37 -157q0 -159 -121.5 -260.5t-334.5 -101.5z" />
    <glyph glyph-name="scircumflex" unicode="&#x15d;" horiz-adv-x="849" 
d="M154 1151l256 262h51l250 -262h-60l-213 225h-4l-221 -225h-59zM432 -6q-210 0 -362 137l26 37q68 -61 144.5 -95t191.5 -34q131 0 209 62t78 149q0 23 -4.5 43t-11 35.5t-19.5 30.5t-24.5 26t-32 22.5t-35.5 19t-42 18t-44.5 16.5t-49 17t-50.5 18q-48 17 -78 29
t-67.5 30t-60 37t-43.5 44t-30.5 56.5t-9.5 69.5q0 101 82 169t202 68q188 0 324 -118l-31 -33q-69 59 -138.5 81.5t-152.5 22.5q-101 0 -170 -55t-69 -131q0 -39 14.5 -70.5t34 -52t58 -41.5t65 -32t76.5 -29l51 -18q50 -18 74.5 -26.5t63.5 -25.5t58 -30t44 -34t36 -43
t19 -52t8 -66q-2 -106 -91 -179t-243 -73z" />
    <glyph glyph-name="Scedilla" unicode="&#x15e;" horiz-adv-x="1142" 
d="M586 -6l-27 -64v-2q65 -5 114.5 -46.5t49.5 -110.5q0 -62 -46.5 -105t-127.5 -43q-53 0 -100 12v48q51 -15 92 -15q58 0 96.5 27t38.5 78q0 47 -43.5 81.5t-124.5 34.5l2 39l31 66q-130 8 -248 62t-205 157l37 37q75 -102 198 -155.5t259 -53.5q109 0 199 34t147 107
t57 174q0 33 -6.5 62t-15.5 52.5t-27 46t-33.5 38.5t-43.5 33.5t-47.5 28.5t-55 27t-57.5 24.5t-63 25t-63 25.5q-172 70 -240 111q-162 99 -179 250q-2 19 -2 40q0 149 115 245.5t298 96.5q107 0 218 -40t198 -111l-33 -39q-84 68 -185 105.5t-196 37.5q-94 0 -175.5 -32
t-136 -101t-54.5 -162q0 -73 28 -128t96.5 -100t112.5 -65.5t146 -60.5q3 -1 4 -2q176 -70 209 -86q149 -70 200 -165q37 -67 37 -157q0 -157 -119 -258t-329 -104z" />
    <glyph glyph-name="scedilla" unicode="&#x15f;" horiz-adv-x="849" 
d="M412 541l51 -18q50 -18 74.5 -26.5t63.5 -25.5t58 -30t44 -34t36 -43t19 -52t8 -66q-2 -106 -91 -179t-243 -73h-20l-27 -64v-2q65 -5 114.5 -46.5t49.5 -110.5q0 -62 -46.5 -105t-127.5 -43q-55 0 -101 12v48q51 -15 93 -15q58 0 96.5 27t38.5 78q0 47 -43.5 81.5
t-124.5 34.5l2 39l33 70q-163 14 -299 133l26 37q68 -61 144.5 -95t191.5 -34q131 0 209 62t78 149q0 23 -4.5 43t-11 35.5t-19.5 30.5t-24.5 26t-32 22.5t-35.5 19t-42 18t-44.5 16.5t-49 17t-50.5 18q-48 17 -78 29t-67.5 30t-60 37t-43.5 44t-30.5 56.5t-9.5 69.5
q0 101 82 169t202 68q188 0 324 -118l-31 -33q-69 59 -138.5 81.5t-152.5 22.5q-101 0 -170 -55t-69 -131q0 -39 14.5 -70.5t34 -52t58 -41.5t65 -32t76.5 -29z" />
    <glyph glyph-name="Scaron" unicode="&#x160;" horiz-adv-x="1142" 
d="M543 1628l-250 223h61l213 -188h4l220 188h59l-256 -223h-51zM578 -6q-140 0 -268.5 54t-221.5 165l37 37q75 -102 198 -155.5t259 -53.5q109 0 199 34t147 107t57 174q0 33 -6.5 62t-15.5 52.5t-27 46t-33.5 38.5t-43.5 33.5t-47.5 28.5t-55 27t-57.5 24.5t-63 25
t-63 25.5q-172 70 -240 111q-162 99 -179 250q-2 19 -2 40q0 149 115 245.5t298 96.5q107 0 218 -40t198 -111l-33 -39q-84 68 -185 105.5t-196 37.5q-94 0 -175.5 -32t-136 -101t-54.5 -162q0 -73 28 -128t96.5 -100t112.5 -65.5t146 -60.5q3 -1 4 -2q176 -70 209 -86
q149 -70 200 -165q37 -67 37 -157q0 -159 -121.5 -260.5t-334.5 -101.5z" />
    <glyph glyph-name="scaron" unicode="&#x161;" horiz-adv-x="849" 
d="M403 1151l-249 262h59l217 -225h4l217 225h60l-256 -262h-52zM432 -6q-210 0 -362 137l26 37q68 -61 144.5 -95t191.5 -34q131 0 209 62t78 149q0 23 -4.5 43t-11 35.5t-19.5 30.5t-24.5 26t-32 22.5t-35.5 19t-42 18t-44.5 16.5t-49 17t-50.5 18q-48 17 -78 29t-67.5 30
t-60 37t-43.5 44t-30.5 56.5t-9.5 69.5q0 101 82 169t202 68q188 0 324 -118l-31 -33q-69 59 -138.5 81.5t-152.5 22.5q-101 0 -170 -55t-69 -131q0 -39 14.5 -70.5t34 -52t58 -41.5t65 -32t76.5 -29l51 -18q50 -18 74.5 -26.5t63.5 -25.5t58 -30t44 -34t36 -43t19 -52
t8 -66q-2 -106 -91 -179t-243 -73z" />
    <glyph glyph-name="uni0162" unicode="&#x162;" horiz-adv-x="1110" 
d="M569 0l-28 -70v-2q65 -5 114.5 -46.5t49.5 -110.5q0 -62 -47 -105t-128 -43q-54 0 -100 12v48q51 -15 92 -15q58 0 96.5 27t38.5 78q0 47 -43.5 81.5t-124.5 34.5l3 39l36 80v1399h-477v47h1008v-47h-484v-1407h-6z" />
    <glyph glyph-name="uni0163" unicode="&#x163;" horiz-adv-x="724" 
d="M641 946h-399v-653q0 -65 5.5 -106.5t23 -78t52 -53t89.5 -16.5q113 0 209 65l12 -45q-96 -65 -215 -65h-19l-26 -64v-2q65 -5 114.5 -46.5t49.5 -110.5q0 -62 -47 -105t-128 -43q-54 0 -100 12v48q51 -15 92 -15q58 0 96.5 27t38.5 78q0 47 -43 81.5t-124 34.5l2 39
l32 70q-48 8 -80.5 30.5t-49 59t-23 77t-6.5 97.5v684h-138v45h138v359l45 6v-365h399v-45z" />
    <glyph glyph-name="Tcaron" unicode="&#x164;" horiz-adv-x="1110" 
d="M524 1628l-250 223h62l213 -188h4l219 188h59l-256 -223h-51zM528 0v1407h-477v47h1008v-47h-484v-1407h-47z" />
    <glyph glyph-name="tcaron" unicode="&#x165;" horiz-adv-x="724" 
d="M428 1223l51 323h56l-66 -323h-41zM418 -6q-68 0 -113 18.5t-68 56.5t-31.5 83t-8.5 110v684h-138v45h138v359l45 6v-365h399v-45h-399v-653q0 -65 5.5 -106.5t23 -78t52 -53t89.5 -16.5q113 0 209 65l12 -45q-96 -65 -215 -65z" />
    <glyph glyph-name="Tbar" unicode="&#x166;" horiz-adv-x="1110" 
d="M1059 1407h-484v-610h252v-47h-252v-750h-47v750h-247v47h247v610h-477v47h1008v-47z" />
    <glyph glyph-name="tbar" unicode="&#x167;" horiz-adv-x="724" 
d="M641 946h-399v-336h358v-45h-358v-272q0 -65 5.5 -106.5t23 -78t52 -53t89.5 -16.5q113 0 209 65l12 -45q-96 -65 -215 -65q-68 0 -113 18.5t-68 56.5t-31.5 83t-8.5 110v303h-105v45h105v336h-138v45h138v359l45 6v-365h399v-45z" />
    <glyph glyph-name="Utilde" unicode="&#x168;" horiz-adv-x="1396" 
d="M860 1628q-31 0 -66 15t-54.5 28t-57.5 41q-78 57 -131 57q-86 0 -131 -124l-43 12q54 158 172 158q28 0 59.5 -11.5t47.5 -21t53 -33.5q9 -6 34.5 -24t39 -26.5t35 -17t40.5 -8.5q39 0 72 32t51 95l43 -14q-23 -79 -68 -118.5t-96 -39.5zM698 -6q-238 0 -385 157.5
t-147 428.5v874h47v-874q0 -251 133 -395t352 -144t353.5 144t134.5 395v874h47v-874q0 -271 -148 -428.5t-387 -157.5z" />
    <glyph glyph-name="utilde" unicode="&#x169;" horiz-adv-x="1089" 
d="M698 1190q-12 0 -25 2.5t-23 5t-24 10t-21.5 10.5t-23.5 14t-20.5 14t-22.5 15.5t-20 14.5q-76 55 -129 55q-86 0 -131 -125l-43 13q54 157 172 157q68 0 158 -63q8 -6 35 -25t40.5 -27.5t35 -17t40.5 -8.5q39 0 72 32t51 95l43 -14q-23 -79 -68 -118.5t-96 -39.5z
M516 -6q-181 0 -278 117t-97 315v565h45v-542q0 -204 88 -307t242 -103q161 0 269 128.5t108 334.5v489h45v-991h-45v260h-2q-51 -124 -151.5 -195t-223.5 -71z" />
    <glyph glyph-name="Umacron" unicode="&#x16a;" horiz-adv-x="1396" 
d="M428 1710v47h547v-47h-547zM698 -6q-238 0 -385 157.5t-147 428.5v874h47v-874q0 -251 133 -395t352 -144t353.5 144t134.5 395v874h47v-874q0 -271 -148 -428.5t-387 -157.5z" />
    <glyph glyph-name="umacron" unicode="&#x16b;" horiz-adv-x="1089" 
d="M266 1268v47h547v-47h-547zM516 -6q-181 0 -278 117t-97 315v565h45v-542q0 -204 88 -307t242 -103q161 0 269 128.5t108 334.5v489h45v-991h-45v260h-2q-51 -124 -151.5 -195t-223.5 -71z" />
    <glyph glyph-name="Ubreve" unicode="&#x16c;" horiz-adv-x="1396" 
d="M700 1620q-98 0 -170 64t-79 167h43q6 -75 61.5 -130.5t144.5 -55.5t144.5 56t60.5 130h45q-9 -103 -80.5 -167t-169.5 -64zM698 -6q-238 0 -385 157.5t-147 428.5v874h47v-874q0 -251 133 -395t352 -144t353.5 144t134.5 395v874h47v-874q0 -271 -148 -428.5
t-387 -157.5z" />
    <glyph glyph-name="ubreve" unicode="&#x16d;" horiz-adv-x="1089" 
d="M539 1149q-100 0 -171.5 69t-78.5 191h43q6 -94 61 -154.5t146 -60.5t145 60.5t59 154.5h45q-9 -123 -79 -191.5t-170 -68.5zM516 -6q-181 0 -278 117t-97 315v565h45v-542q0 -204 88 -307t242 -103q161 0 269 128.5t108 334.5v489h45v-991h-45v260h-2
q-51 -124 -151.5 -195t-223.5 -71z" />
    <glyph glyph-name="Uring" unicode="&#x16e;" horiz-adv-x="1396" 
d="M700 1608q-60 0 -104.5 44.5t-44.5 104.5q0 61 44.5 105.5t104.5 44.5q62 0 107 -44.5t45 -105.5q0 -60 -45.5 -104.5t-106.5 -44.5zM700 1655q43 0 75 30.5t32 71.5q0 43 -32 74t-75 31t-73.5 -31t-30.5 -74q0 -41 30.5 -71.5t73.5 -30.5zM698 -6q-238 0 -385 157.5
t-147 428.5v874h47v-874q0 -251 133 -395t352 -144t353.5 144t134.5 395v874h47v-874q0 -271 -148 -428.5t-387 -157.5z" />
    <glyph glyph-name="uring" unicode="&#x16f;" horiz-adv-x="1089" 
d="M539 1137q-60 0 -105 44.5t-45 104.5q0 61 45 105.5t105 44.5q62 0 106.5 -44.5t44.5 -105.5q0 -60 -45 -104.5t-106 -44.5zM539 1184q43 0 74.5 30.5t31.5 71.5q0 43 -31.5 74t-74.5 31t-74 -31t-31 -74q0 -41 31 -71.5t74 -30.5zM516 -6q-181 0 -278 117t-97 315v565
h45v-542q0 -204 88 -307t242 -103q161 0 269 128.5t108 334.5v489h45v-991h-45v260h-2q-51 -124 -151.5 -195t-223.5 -71z" />
    <glyph glyph-name="Uhungarumlaut" unicode="&#x170;" horiz-adv-x="1396" 
d="M545 1628l250 277h63l-254 -277h-59zM799 1628l250 277h63l-256 -277h-57zM698 -6q-238 0 -385 157.5t-147 428.5v874h47v-874q0 -251 133 -395t352 -144t353.5 144t134.5 395v874h47v-874q0 -271 -148 -428.5t-387 -157.5z" />
    <glyph glyph-name="uhungarumlaut" unicode="&#x171;" horiz-adv-x="1089" 
d="M383 1149l250 276h63l-254 -276h-59zM637 1149l250 276h63l-256 -276h-57zM516 -6q-181 0 -278 117t-97 315v565h45v-542q0 -204 88 -307t242 -103q161 0 269 128.5t108 334.5v489h45v-991h-45v260h-2q-51 -124 -151.5 -195t-223.5 -71z" />
    <glyph glyph-name="Uogonek" unicode="&#x172;" horiz-adv-x="1396" 
d="M1186 1454h47v-874q0 -243 -121.5 -396.5t-323.5 -183.5q-72 -38 -114.5 -95t-42.5 -116q0 -50 31 -80.5t94 -30.5q66 0 121 27l8 -47q-56 -27 -129 -27q-80 0 -126 40.5t-46 115.5q0 51 30 105t88 100v2h-4q-238 0 -385 157.5t-147 428.5v874h47v-874q0 -251 133 -395
t352 -144t353.5 144t134.5 395v874z" />
    <glyph glyph-name="uogonek" unicode="&#x173;" horiz-adv-x="1089" 
d="M1022 -297l8 -47q-56 -27 -129 -27q-80 0 -126 40.5t-46 115.5q0 59 42.5 122.5t121.5 112.5v240h-2q-51 -124 -151.5 -195t-223.5 -71q-181 0 -278 117t-97 315v565h45v-542q0 -204 88 -307t242 -103q161 0 269 128.5t108 334.5v489h45v-991q-74 -38 -118 -96.5
t-44 -116.5q0 -50 31 -80.5t94 -30.5q65 0 121 27z" />
    <glyph glyph-name="Wcircumflex" unicode="&#x174;" horiz-adv-x="2029" 
d="M735 1628l256 223h51l250 -223h-61l-213 189h-4l-219 -189h-60zM541 0l-471 1454h51l448 -1384h2l412 1384h64l409 -1384h2l451 1384h51l-471 -1454h-62l-411 1386h-2l-414 -1386h-59z" />
    <glyph glyph-name="wcircumflex" unicode="&#x175;" horiz-adv-x="1540" 
d="M492 1151l256 262h51l250 -262h-60l-213 225h-4l-221 -225h-59zM422 0l-352 991h49l325 -911h5l292 911h54l297 -911h4l325 911h49l-352 -991h-49l-297 924h-2l-301 -924h-47z" />
    <glyph glyph-name="Ycircumflex" unicode="&#x176;" horiz-adv-x="1138" 
d="M291 1628l256 223h51l250 -223h-62l-213 189h-4l-219 -189h-59zM545 0v662l-508 792h57l471 -739h4l475 739h58l-510 -792v-662h-47z" />
    <glyph glyph-name="ycircumflex" unicode="&#x177;" horiz-adv-x="1036" 
d="M244 1151l256 262h51l250 -262h-60l-213 225h-4l-221 -225h-59zM332 -406l176 416l-453 981h56l419 -921h2l390 921h55l-594 -1397h-51z" />
    <glyph glyph-name="Ydieresis" unicode="&#x178;" horiz-adv-x="1138" 
d="M420 1696q-25 0 -41.5 16t-16.5 39q0 26 16.5 40.5t41.5 14.5t40 -14.5t15 -40.5q0 -24 -15.5 -39.5t-39.5 -15.5zM721 1696q-25 0 -41 16t-16 39q0 26 16 40.5t41 14.5t40 -14.5t15 -40.5q0 -24 -15.5 -39.5t-39.5 -15.5zM545 0v662l-508 792h57l471 -739h4l475 739h58
l-510 -792v-662h-47z" />
    <glyph glyph-name="Zacute" unicode="&#x179;" horiz-adv-x="1204" 
d="M446 1628l232 254h61l-233 -254h-60zM115 0v43l889 1362l-3 2h-831v47h895v-47l-887 -1358l2 -2h895v-47h-960z" />
    <glyph glyph-name="zacute" unicode="&#x17a;" horiz-adv-x="894" 
d="M428 1149l252 276h63l-254 -276h-61zM59 0v45l701 899v2h-676v45h739v-41l-702 -903v-2h715v-45h-777z" />
    <glyph glyph-name="Zdotaccent" unicode="&#x17b;" horiz-adv-x="1204" 
d="M590 1696q-25 0 -41.5 16t-16.5 39q0 26 16.5 40.5t41.5 14.5t40 -14.5t15 -40.5q0 -24 -15.5 -39.5t-39.5 -15.5zM115 0v43l889 1362l-3 2h-831v47h895v-47l-887 -1358l2 -2h895v-47h-960z" />
    <glyph glyph-name="zdotaccent" unicode="&#x17c;" horiz-adv-x="894" 
d="M442 1241q-25 0 -41 16t-16 39q0 26 16 41t41 15t40.5 -15t15.5 -41q0 -24 -16 -39.5t-40 -15.5zM59 0v45l701 899v2h-676v45h739v-41l-702 -903v-2h715v-45h-777z" />
    <glyph glyph-name="Zcaron" unicode="&#x17d;" horiz-adv-x="1204" 
d="M561 1628l-250 223h62l213 -188h4l219 188h59l-256 -223h-51zM115 0v43l889 1362l-3 2h-831v47h895v-47l-887 -1358l2 -2h895v-47h-960z" />
    <glyph glyph-name="zcaron" unicode="&#x17e;" horiz-adv-x="894" 
d="M412 1151l-250 262h59l217 -225h4l217 225h60l-256 -262h-51zM59 0v45l701 899v2h-676v45h739v-41l-702 -903v-2h715v-45h-777z" />
    <glyph glyph-name="longs" unicode="&#x17f;" horiz-adv-x="583" 
d="M215 0v946h-139v45h139v242q0 142 64.5 212.5t175.5 70.5q97 0 194 -54l-8 -45q-92 53 -188 53q-87 0 -140 -57t-53 -180v-1233h-45z" />
    <glyph glyph-name="uni018F" unicode="&#x18f;" horiz-adv-x="1566" 
d="M733 1462q161 0 295.5 -57.5t224.5 -157t139.5 -233.5t49.5 -287q0 -156 -50.5 -291.5t-139 -232.5t-215.5 -153t-273 -56q-133 0 -252 42t-213 123t-149.5 212t-55.5 295v26h1297v35q-1 147 -47 273.5t-130 218t-208 144t-273 52.5q-146 0 -266 -45.5t-236 -140.5
l-36 35q239 198 538 198zM764 41q256 0 427.5 169t194.5 435h-1245q3 -180 85 -318.5t222.5 -212t315.5 -73.5z" />
    <glyph glyph-name="florin" unicode="&#x192;" horiz-adv-x="1034" 
d="M162 -186q-139 0 -228 80l31 36q72 -69 199 -69q90 0 147.5 57t73.5 191l109 798h-162l6 47h162l37 271q21 154 89.5 222.5t182.5 68.5q132 0 225 -80l-28 -35q-82 67 -199 67q-92 0 -149.5 -56t-75.5 -191l-33 -267h344l-6 -47h-346l-109 -801q-37 -292 -270 -292z" />
    <glyph glyph-name="uni019D" unicode="&#x19d;" horiz-adv-x="1490" 
d="M1260 1454h47v-1454h-47l-1029 1370h-2v-1544q0 -238 -209 -238q-67 0 -126 29l4 47q51 -31 127 -31q157 0 157 193v1628h47v-2l1028 -1370h3v1372z" />
    <glyph glyph-name="Ohorn" unicode="&#x1a0;" horiz-adv-x="1763" 
d="M1614 1585h45v-158q0 -159 -51.5 -228t-153.5 -77q102 -172 102 -393q0 -162 -56.5 -300.5t-152.5 -233t-226 -148t-275 -53.5q-198 0 -361.5 90.5t-260.5 259.5t-97 385q0 215 97 383.5t260.5 259t361.5 90.5q179 0 331.5 -78.5t249.5 -218.5q63 2 101.5 23t62 79
t23.5 158v160zM846 41q135 0 256 50t210.5 138.5t142 218t52.5 281.5q0 151 -52.5 280.5t-142 217.5t-210.5 138t-256 50q-138 0 -261 -50t-213.5 -138t-143 -217.5t-52.5 -280.5q0 -152 52.5 -281.5t143 -218t213.5 -138.5t261 -50z" />
    <glyph glyph-name="ohorn" unicode="&#x1a1;" horiz-adv-x="1323" 
d="M1214 1157h46v-158q0 -159 -51.5 -228t-155.5 -77q37 -87 37 -198q0 -146 -67.5 -261.5t-180 -178t-248.5 -62.5q-145 0 -260 68.5t-176.5 182.5t-61.5 251q0 101 36.5 193t100.5 160.5t158 109t203 40.5q142 0 259.5 -70t180.5 -192q91 3 135.5 59.5t44.5 200.5v160z
M594 39q190 0 319 128t129 329t-129.5 329.5t-318.5 128.5q-132 0 -236.5 -62.5t-159.5 -166.5t-55 -229q0 -93 32.5 -176.5t90.5 -145.5t143 -98.5t185 -36.5z" />
    <glyph glyph-name="Uhorn" unicode="&#x1af;" horiz-adv-x="1511" 
d="M1415 1585h45v-158q0 -167 -56.5 -235.5t-170.5 -71.5v-540q0 -271 -148 -428.5t-387 -157.5q-238 0 -385 157.5t-147 428.5v874h47v-874q0 -251 133 -395t352 -144t353.5 144t134.5 395v874h47v-289q93 3 137.5 59.5t44.5 200.5v160z" />
    <glyph glyph-name="uhorn" unicode="&#x1b0;" horiz-adv-x="1226" 
d="M1118 1157h45v-158q0 -166 -55.5 -234t-169.5 -73v-692h-45v260h-2q-51 -124 -151.5 -195t-223.5 -71q-181 0 -278 117t-97 315v565h45v-542q0 -204 88 -307t242 -103q161 0 269 128.5t108 334.5v489h45v-254q46 2 77 14.5t55.5 41t36 79t11.5 125.5v160z" />
    <glyph glyph-name="uni01CD" unicode="&#x1cd;" horiz-adv-x="1310" 
d="M627 1628l-250 223h61l213 -188h4l219 188h60l-256 -223h-51zM59 0l564 1454h59l569 -1454h-51l-170 432h-751l-168 -432h-52zM297 479h715l-357 918h-4z" />
    <glyph glyph-name="uni01CE" unicode="&#x1ce;" horiz-adv-x="1210" 
d="M559 1151l-250 262h60l217 -225h4l217 225h59l-256 -262h-51zM584 -6q-135 0 -247 60.5t-178.5 173.5t-66.5 257q0 141 61 258t175 186.5t258 69.5q141 0 256 -77.5t170 -210.5h2v280h45v-991h-45v272h-2q-56 -127 -168 -202.5t-260 -75.5zM584 39q182 0 306 124.5
t124 321.5q0 198 -120 333.5t-308 135.5t-317.5 -131t-129.5 -338q0 -189 124 -317.5t321 -128.5z" />
    <glyph glyph-name="uni01CF" unicode="&#x1cf;" horiz-adv-x="440" 
d="M193 1628l-250 223h61l213 -188h4l219 188h60l-256 -223h-51zM197 0v1454h47v-1454h-47z" />
    <glyph glyph-name="uni01D0" unicode="&#x1d0;" horiz-adv-x="399" 
d="M172 1151l-250 262h60l217 -225h4l217 225h59l-256 -262h-51zM176 0v991h45v-991h-45z" />
    <glyph glyph-name="uni01D1" unicode="&#x1d1;" horiz-adv-x="1683" 
d="M815 1628l-250 223h62l213 -188h4l219 188h59l-256 -223h-51zM846 -6q-198 0 -361.5 90.5t-260.5 259.5t-97 385q0 215 97 383.5t260.5 259t361.5 90.5q145 0 275 -53.5t226 -147.5t152.5 -232.5t56.5 -299.5q0 -162 -56.5 -300.5t-152.5 -233t-226 -148t-275 -53.5z
M846 41q135 0 256 50t210.5 138.5t142 218t52.5 281.5q0 151 -52.5 280.5t-142 217.5t-210.5 138t-256 50q-138 0 -261 -50t-213.5 -138t-143 -217.5t-52.5 -280.5q0 -152 52.5 -281.5t143 -218t213.5 -138.5t261 -50z" />
    <glyph glyph-name="uni01D2" unicode="&#x1d2;" horiz-adv-x="1185" 
d="M567 1151l-250 262h60l217 -225h4l217 225h59l-256 -262h-51zM594 -6q-145 0 -260 68.5t-176.5 182.5t-61.5 251q0 101 36.5 193t100.5 160.5t158 109t203 40.5q136 0 248.5 -62.5t180 -178.5t67.5 -262t-67.5 -261.5t-180 -178t-248.5 -62.5zM594 39q190 0 319 128
t129 329t-129.5 329.5t-318.5 128.5q-132 0 -236.5 -62.5t-159.5 -166.5t-55 -229q0 -93 32.5 -176.5t90.5 -145.5t143 -98.5t185 -36.5z" />
    <glyph glyph-name="uni01D3" unicode="&#x1d3;" horiz-adv-x="1396" 
d="M672 1628l-250 223h61l213 -188h4l220 188h59l-256 -223h-51zM698 -6q-238 0 -385 157.5t-147 428.5v874h47v-874q0 -251 133 -395t352 -144t353.5 144t134.5 395v874h47v-874q0 -271 -148 -428.5t-387 -157.5z" />
    <glyph glyph-name="uni01D4" unicode="&#x1d4;" horiz-adv-x="1089" 
d="M510 1151l-250 262h59l218 -225h4l217 225h59l-256 -262h-51zM516 -6q-181 0 -278 117t-97 315v565h45v-542q0 -204 88 -307t242 -103q161 0 269 128.5t108 334.5v489h45v-991h-45v260h-2q-51 -124 -151.5 -195t-223.5 -71z" />
    <glyph glyph-name="uni01D5" unicode="&#x1d5;" horiz-adv-x="1396" 
d="M428 1952v47h547v-47h-547zM549 1671q-25 0 -41 16t-16 39q0 26 16 41t41 15t40 -15t15 -41q0 -24 -15.5 -39.5t-39.5 -15.5zM850 1671q-25 0 -41 16t-16 39q0 26 16 41t41 15t40 -15t15 -41q0 -24 -15.5 -39.5t-39.5 -15.5zM698 -6q-238 0 -385 157.5t-147 428.5v874h47
v-874q0 -251 133 -395t352 -144t353.5 144t134.5 395v874h47v-874q0 -271 -148 -428.5t-387 -157.5z" />
    <glyph glyph-name="uni01D6" unicode="&#x1d6;" horiz-adv-x="1089" 
d="M266 1552v47h547v-47h-547zM387 1241q-25 0 -41 16t-16 39q0 26 16 41t41 15t40 -15t15 -41q0 -24 -15.5 -39.5t-39.5 -15.5zM688 1241q-25 0 -41 16t-16 39q0 26 16 41t41 15t40 -15t15 -41q0 -24 -15.5 -39.5t-39.5 -15.5zM516 -6q-181 0 -278 117t-97 315v565h45v-542
q0 -204 88 -307t242 -103q161 0 269 128.5t108 334.5v489h45v-991h-45v260h-2q-51 -124 -151.5 -195t-223.5 -71z" />
    <glyph glyph-name="uni01D7" unicode="&#x1d7;" horiz-adv-x="1396" 
d="M680 1825l252 276h63l-256 -276h-59zM549 1671q-25 0 -41 16t-16 39q0 26 16 41t41 15t40 -15t15 -41q0 -24 -15.5 -39.5t-39.5 -15.5zM850 1671q-25 0 -41 16t-16 39q0 26 16 41t41 15t40 -15t15 -41q0 -24 -15.5 -39.5t-39.5 -15.5zM698 -6q-238 0 -385 157.5
t-147 428.5v874h47v-874q0 -251 133 -395t352 -144t353.5 144t134.5 395v874h47v-874q0 -271 -148 -428.5t-387 -157.5z" />
    <glyph glyph-name="uni01D8" unicode="&#x1d8;" horiz-adv-x="1089" 
d="M502 1419l252 277h63l-254 -277h-61zM387 1241q-25 0 -41 16t-16 39q0 26 16 41t41 15t40 -15t15 -41q0 -24 -15.5 -39.5t-39.5 -15.5zM688 1241q-25 0 -41 16t-16 39q0 26 16 41t41 15t40 -15t15 -41q0 -24 -15.5 -39.5t-39.5 -15.5zM516 -6q-181 0 -278 117t-97 315
v565h45v-542q0 -204 88 -307t242 -103q161 0 269 128.5t108 334.5v489h45v-991h-45v260h-2q-51 -124 -151.5 -195t-223.5 -71z" />
    <glyph glyph-name="uni01D9" unicode="&#x1d9;" horiz-adv-x="1396" 
d="M686 1874l-250 223h62l213 -188h4l219 188h59l-256 -223h-51zM549 1671q-25 0 -41 16t-16 39q0 26 16 41t41 15t40 -15t15 -41q0 -24 -15.5 -39.5t-39.5 -15.5zM850 1671q-25 0 -41 16t-16 39q0 26 16 41t41 15t40 -15t15 -41q0 -24 -15.5 -39.5t-39.5 -15.5zM698 -6
q-238 0 -385 157.5t-147 428.5v874h47v-874q0 -251 133 -395t352 -144t353.5 144t134.5 395v874h47v-874q0 -271 -148 -428.5t-387 -157.5z" />
    <glyph glyph-name="uni01DA" unicode="&#x1da;" horiz-adv-x="1089" 
d="M510 1448l-250 262h59l218 -225h4l217 225h59l-256 -262h-51zM387 1241q-25 0 -41 16t-16 39q0 26 16 41t41 15t40 -15t15 -41q0 -24 -15.5 -39.5t-39.5 -15.5zM688 1241q-25 0 -41 16t-16 39q0 26 16 41t41 15t40 -15t15 -41q0 -24 -15.5 -39.5t-39.5 -15.5zM516 -6
q-181 0 -278 117t-97 315v565h45v-542q0 -204 88 -307t242 -103q161 0 269 128.5t108 334.5v489h45v-991h-45v260h-2q-51 -124 -151.5 -195t-223.5 -71z" />
    <glyph glyph-name="uni01DB" unicode="&#x1db;" horiz-adv-x="1396" 
d="M674 1825l-256 276h63l252 -276h-59zM549 1671q-25 0 -41 16t-16 39q0 26 16 41t41 15t40 -15t15 -41q0 -24 -15.5 -39.5t-39.5 -15.5zM850 1671q-25 0 -41 16t-16 39q0 26 16 41t41 15t40 -15t15 -41q0 -24 -15.5 -39.5t-39.5 -15.5zM698 -6q-238 0 -385 157.5
t-147 428.5v874h47v-874q0 -251 133 -395t352 -144t353.5 144t134.5 395v874h47v-874q0 -271 -148 -428.5t-387 -157.5z" />
    <glyph glyph-name="uni01DC" unicode="&#x1dc;" horiz-adv-x="1089" 
d="M588 1419h-62l-254 277h64zM387 1241q-25 0 -41 16t-16 39q0 26 16 41t41 15t40 -15t15 -41q0 -24 -15.5 -39.5t-39.5 -15.5zM688 1241q-25 0 -41 16t-16 39q0 26 16 41t41 15t40 -15t15 -41q0 -24 -15.5 -39.5t-39.5 -15.5zM516 -6q-181 0 -278 117t-97 315v565h45v-542
q0 -204 88 -307t242 -103q161 0 269 128.5t108 334.5v489h45v-991h-45v260h-2q-51 -124 -151.5 -195t-223.5 -71z" />
    <glyph glyph-name="Gcaron" unicode="&#x1e6;" horiz-adv-x="1556" 
d="M799 1628l-250 223h61l213 -188h4l220 188h59l-256 -223h-51zM838 -6q-155 0 -287 54t-225.5 149.5t-146 231.5t-52.5 296q0 216 90 384t252 260.5t369 92.5q321 0 528 -202l-33 -33q-196 188 -495 188q-294 0 -478 -191t-184 -499q0 -201 83.5 -356.5t234.5 -241.5
t344 -86q319 0 512 166v444h-551v47h598v-514q-211 -190 -559 -190z" />
    <glyph glyph-name="gcaron" unicode="&#x1e7;" horiz-adv-x="1200" 
d="M549 1151l-250 262h59l217 -225h5l217 225h59l-256 -262h-51zM598 -412q-217 0 -405 115l14 47q184 -117 393 -117q202 0 304 108.5t102 289.5v268h-2q-54 -127 -165 -200.5t-264 -73.5q-132 0 -240.5 59.5t-173.5 173t-65 260.5q0 132 59.5 241.5t170.5 174.5t252 65
q144 0 257 -71t169 -195h2v258h45v-971q0 -198 -116.5 -315t-336.5 -117zM575 70q196 0 313.5 126.5t117.5 321.5q0 193 -122 314.5t-306 121.5q-128 0 -228 -59t-153.5 -158t-53.5 -219q0 -200 124 -324t308 -124z" />
    <glyph glyph-name="uni01EA" unicode="&#x1ea;" horiz-adv-x="1683" 
d="M903 -4q-70 -38 -111.5 -95t-41.5 -114q0 -50 30.5 -80.5t93.5 -30.5q66 0 121 27l9 -47q-56 -27 -130 -27q-80 0 -126 40.5t-46 115.5q0 52 32 107.5t91 99.5v2q-144 4 -272 59t-222 149t-149 231t-55 296q0 215 97 383.5t260.5 259t361.5 90.5q145 0 275 -53.5
t226 -147.5t152.5 -232.5t56.5 -299.5q0 -154 -51 -287t-139.5 -226.5t-208 -151t-254.5 -68.5zM176 729q0 -152 52.5 -281.5t143 -218t213.5 -138.5t261 -50q135 0 256 50t210.5 138.5t142 218t52.5 281.5q0 151 -52.5 280.5t-142 217.5t-210.5 138t-256 50
q-138 0 -261 -50t-213.5 -138t-143 -217.5t-52.5 -280.5z" />
    <glyph glyph-name="uni01EB" unicode="&#x1eb;" horiz-adv-x="1185" 
d="M645 -4q-71 -38 -113.5 -95t-42.5 -114q0 -50 31 -80.5t94 -30.5q66 0 121 27l8 -47q-56 -27 -129 -27q-80 0 -126 40.5t-46 115.5q0 53 31.5 108t91.5 99v2q-137 7 -245 76.5t-166 181t-58 244.5q0 101 36.5 193t100.5 160.5t158 109t203 40.5q136 0 248.5 -62.5
t180 -178.5t67.5 -262q0 -206 -127.5 -344t-317.5 -156zM143 496q0 -93 32.5 -176.5t90.5 -145.5t143 -98.5t185 -36.5q190 0 319 128t129 329t-129.5 329.5t-318.5 128.5q-132 0 -236.5 -62.5t-159.5 -166.5t-55 -229z" />
    <glyph glyph-name="Aringacute" unicode="&#x1fa;" horiz-adv-x="1310" 
d="M655 1608q-60 0 -104.5 44.5t-44.5 104.5q0 61 44.5 105.5t104.5 44.5q40 0 75 -21t56 -55l189 119h80l-252 -162q4 -20 4 -31q0 -60 -45.5 -104.5t-106.5 -44.5zM655 1862q-43 0 -73.5 -31t-30.5 -74q0 -41 30.5 -71.5t73.5 -30.5t75 30.5t32 71.5q0 43 -32 74t-75 31z
M682 1454l569 -1454h-51l-170 432h-751l-168 -432h-52l564 1454h59zM297 479h715l-357 918h-4z" />
    <glyph glyph-name="aringacute" unicode="&#x1fb;" horiz-adv-x="1210" 
d="M588 1137q-60 0 -105 44.5t-45 104.5q0 61 45 105.5t105 44.5q75 0 123 -64l186 119h80l-246 -158q8 -19 8 -47q0 -60 -45 -104.5t-106 -44.5zM588 1391q-43 0 -74 -31t-31 -74q0 -41 31 -71.5t74 -30.5t74.5 30.5t31.5 71.5q0 43 -31.5 74t-74.5 31zM1014 991h45v-991
h-45v272h-2q-56 -127 -168 -202.5t-260 -75.5q-135 0 -247 60.5t-178.5 173.5t-66.5 257q0 141 61 258t175 186.5t258 69.5q141 0 256 -77.5t170 -210.5h2v280zM584 39q182 0 306 124.5t124 321.5q0 198 -120 333.5t-308 135.5t-317.5 -131t-129.5 -338q0 -189 124 -317.5
t321 -128.5z" />
    <glyph glyph-name="AEacute" unicode="&#x1fc;" horiz-adv-x="1843" 
d="M885 1628l231 254h62l-234 -254h-59zM10 0l844 1454h877v-47h-797v-657h676v-48h-676v-655h838v-47h-885v432h-568l-251 -432h-58zM346 479h541v928h-2z" />
    <glyph glyph-name="aeacute" unicode="&#x1fd;" horiz-adv-x="1622" 
d="M1049 1425l-254 -276h-62l252 276h64zM1524 522v-24h-744q6 -215 106 -337t265 -122q109 0 174.5 40t126.5 126l35 -27q-64 -93 -140.5 -138.5t-191.5 -45.5q-81 0 -147 24t-112 66t-76 92.5t-48 110.5h-2q-30 -136 -138 -214.5t-253 -78.5t-224 81t-79 199
q0 117 88.5 192t263.5 75l309 2v49q0 199 -52.5 279.5t-186.5 80.5q-165 0 -314 -86l-22 39q159 94 336 94q135 0 199.5 -68.5t78.5 -209.5h2q42 128 136.5 203t226.5 75q164 0 273.5 -136t109.5 -341zM782 543h695q-11 186 -101 298.5t-235 112.5q-156 0 -250.5 -113.5
t-108.5 -297.5zM379 39q151 0 254.5 94t103.5 264v101l-309 -2q-133 0 -219 -57t-86 -165q0 -98 66.5 -166.5t189.5 -68.5z" />
    <glyph glyph-name="Oslashacute" unicode="&#x1fe;" horiz-adv-x="1683" 
d="M1069 1882l-233 -254h-60l232 254h61zM1360 1247q196 -202 196 -518q0 -162 -56.5 -300.5t-152.5 -233t-226 -148t-275 -53.5q-287 0 -488 182l-182 -196l-39 32l187 199q-94 97 -145.5 229t-51.5 289q0 215 97 383.5t260.5 259t361.5 90.5q138 0 262 -47t219 -135
l166 176l35 -31zM176 729q0 -293 180 -483l938 999q-186 170 -448 170q-138 0 -261 -50t-213.5 -138t-143 -217.5t-52.5 -280.5zM846 41q135 0 256 50t210.5 138.5t142 218t52.5 281.5q0 291 -180 481l-934 -999q186 -170 453 -170z" />
    <glyph glyph-name="oslashacute" unicode="&#x1ff;" horiz-adv-x="1185" 
d="M879 1425l-254 -276h-62l252 276h64zM1090 977l-129 -135q129 -142 129 -346q0 -146 -67.5 -261.5t-180 -178t-248.5 -62.5q-192 0 -328 117l-125 -131l-39 32l127 133q-133 146 -133 351q0 101 36.5 193t100.5 160.5t158 109t203 40.5q193 0 334 -122l125 131zM143 496
q0 -186 119 -318l633 664q-124 112 -301 112q-132 0 -236.5 -62.5t-159.5 -166.5t-55 -229zM1042 496q0 185 -112 313l-633 -666q120 -104 297 -104q190 0 319 128t129 329z" />
    <glyph glyph-name="Scommaaccent" unicode="&#x218;" horiz-adv-x="1142" 
d="M578 -6q-140 0 -268.5 54t-221.5 165l37 37q75 -102 198 -155.5t259 -53.5q109 0 199 34t147 107t57 174q0 33 -6.5 62t-15.5 52.5t-27 46t-33.5 38.5t-43.5 33.5t-47.5 28.5t-55 27t-57.5 24.5t-63 25t-63 25.5q-172 70 -240 111q-162 99 -179 250q-2 19 -2 40
q0 149 115 245.5t298 96.5q107 0 218 -40t198 -111l-33 -39q-84 68 -185 105.5t-196 37.5q-94 0 -175.5 -32t-136 -101t-54.5 -162q0 -73 28 -128t96.5 -100t112.5 -65.5t146 -60.5q3 -1 4 -2q176 -70 209 -86q149 -70 200 -165q37 -67 37 -157q0 -159 -121.5 -260.5
t-334.5 -101.5zM438 -408l-16 37q83 4 111 42t28 102q0 52 -10 114h45q10 -58 10 -112q0 -173 -168 -183z" />
    <glyph glyph-name="scommaaccent" unicode="&#x219;" horiz-adv-x="849" 
d="M432 -6q-210 0 -362 137l26 37q68 -61 144.5 -95t191.5 -34q131 0 209 62t78 149q0 23 -4.5 43t-11 35.5t-19.5 30.5t-24.5 26t-32 22.5t-35.5 19t-42 18t-44.5 16.5t-49 17t-50.5 18q-48 17 -78 29t-67.5 30t-60 37t-43.5 44t-30.5 56.5t-9.5 69.5q0 101 82 169t202 68
q188 0 324 -118l-31 -33q-69 59 -138.5 81.5t-152.5 22.5q-101 0 -170 -55t-69 -131q0 -39 14.5 -70.5t34 -52t58 -41.5t65 -32t76.5 -29l51 -18q50 -18 74.5 -26.5t63.5 -25.5t58 -30t44 -34t36 -43t19 -52t8 -66q-2 -106 -91 -179t-243 -73zM264 -408l-16 37q83 4 111 42
t28 102q0 52 -10 114h45q10 -58 10 -112q0 -173 -168 -183z" />
    <glyph glyph-name="uni021A" unicode="&#x21a;" horiz-adv-x="1110" 
d="M528 0v1407h-477v47h1008v-47h-484v-1407h-47zM420 -408l-17 37q83 4 111.5 42t28.5 102q0 46 -11 114h46q10 -58 10 -112q0 -173 -168 -183z" />
    <glyph glyph-name="uni021B" unicode="&#x21b;" horiz-adv-x="724" 
d="M418 -6q-68 0 -113 18.5t-68 56.5t-31.5 83t-8.5 110v684h-138v45h138v359l45 6v-365h399v-45h-399v-653q0 -65 5.5 -106.5t23 -78t52 -53t89.5 -16.5q113 0 209 65l12 -45q-96 -65 -215 -65zM252 -408l-16 37q83 4 111 42t28 102q0 52 -10 114h45q10 -58 10 -112
q0 -173 -168 -183z" />
    <glyph glyph-name="uni0232" unicode="&#x232;" horiz-adv-x="1138" 
d="M297 1710v47h547v-47h-547zM545 0v662l-508 792h57l471 -739h4l475 739h58l-510 -792v-662h-47z" />
    <glyph glyph-name="uni0233" unicode="&#x233;" horiz-adv-x="1036" 
d="M250 1268v47h547v-47h-547zM332 -406l176 416l-453 981h56l419 -921h2l390 921h55l-594 -1397h-51z" />
    <glyph glyph-name="uni0237" unicode="&#x237;" horiz-adv-x="360" 
d="M8 -412q-70 0 -129 29l6 49q54 -33 127 -33q158 0 158 193v1165h45v-1165q0 -238 -207 -238z" />
    <glyph glyph-name="uni0251" unicode="&#x251;" horiz-adv-x="1210" 
d="M584 -6q-135 0 -247 60.5t-178.5 173.5t-66.5 257q0 141 61 258t175 186.5t258 69.5q141 0 256 -77.5t170 -210.5h2v280h45v-991h-45v272h-2q-56 -127 -168 -202.5t-260 -75.5zM584 39q182 0 306 124.5t124 321.5q0 198 -120 333.5t-308 135.5t-317.5 -131t-129.5 -338
q0 -189 124 -317.5t321 -128.5z" />
    <glyph glyph-name="uni0259" unicode="&#x259;" horiz-adv-x="1099" 
d="M522 999q211 0 346.5 -142t135.5 -359q0 -224 -122.5 -364t-340.5 -140q-201 0 -325 131.5t-126 333.5q0 21 4 37h862v2q0 199 -122.5 327.5t-311.5 128.5q-174 0 -327 -90l-23 37q162 98 350 98zM541 39q184 0 292.5 112t120.5 300h-817q4 -186 115.5 -299t288.5 -113z
" />
    <glyph glyph-name="uni0261" unicode="&#x261;" horiz-adv-x="1200" 
d="M598 -412q-217 0 -405 115l14 47q184 -117 393 -117q202 0 304 108.5t102 289.5v268h-2q-54 -127 -165 -200.5t-264 -73.5q-132 0 -240.5 59.5t-173.5 173t-65 260.5q0 132 59.5 241.5t170.5 174.5t252 65q144 0 257 -71t169 -195h2v258h45v-971q0 -198 -116.5 -315
t-336.5 -117zM575 70q196 0 313.5 126.5t117.5 321.5q0 193 -122 314.5t-306 121.5q-128 0 -228 -59t-153.5 -158t-53.5 -219q0 -200 124 -324t308 -124z" />
    <glyph glyph-name="uni0272" unicode="&#x272;" horiz-adv-x="1112" 
d="M627 999q158 0 250 -105.5t92 -295.5v-598h-45v575q0 195 -82.5 287t-214.5 92q-187 0 -301.5 -128t-114.5 -337v-663q0 -238 -207 -238q-70 0 -129 29l6 45q52 -29 127 -29q158 0 158 193v1165h45v-262h2q53 127 161.5 198.5t252.5 71.5z" />
    <glyph glyph-name="uni02BB" unicode="&#x2bb;" horiz-adv-x="317" 
d="M137 907l15 445h38v-445h-53z" />
    <glyph glyph-name="uni02BC" unicode="&#x2bc;" horiz-adv-x="229" 
d="M59 1110l52 344h53l-64 -344h-41z" />
    <glyph glyph-name="uni02BE" unicode="&#x2be;" horiz-adv-x="393" 
d="M84 987l-6 41q95 6 156 62t61 147t-61 146.5t-156 60.5l6 43q119 -9 186.5 -80t67.5 -170q0 -100 -68 -171.5t-186 -78.5z" />
    <glyph glyph-name="uni02BF" unicode="&#x2bf;" horiz-adv-x="436" 
d="M352 987q-118 7 -186 78.5t-68 171.5q0 99 67.5 170t186.5 80l6 -43q-95 -5 -156 -60.5t-61 -146.5t61 -147t156 -62z" />
    <glyph glyph-name="circumflex" unicode="&#x2c6;" horiz-adv-x="1085" 
d="M264 1124l256 262h51l250 -262h-59l-213 226h-4l-221 -226h-60z" />
    <glyph glyph-name="caron" unicode="&#x2c7;" horiz-adv-x="1085" 
d="M514 1124l-250 262h60l217 -225h4l217 225h59l-256 -262h-51z" />
    <glyph glyph-name="uni02C8" unicode="&#x2c8;" horiz-adv-x="317" 
d="M135 1380h47v-546h-47v546z" />
    <glyph glyph-name="uni02C9" unicode="&#x2c9;" horiz-adv-x="825" 
d="M139 1268v47h547v-47h-547z" />
    <glyph glyph-name="uni02CA" unicode="&#x2ca;" horiz-adv-x="581" 
d="M164 1149l252 276h63l-254 -276h-61z" />
    <glyph glyph-name="uni02CB" unicode="&#x2cb;" horiz-adv-x="579" 
d="M356 1157l-233 260h61l232 -260h-60z" />
    <glyph glyph-name="uni02CC" unicode="&#x2cc;" horiz-adv-x="317" 
d="M135 264h47v-547h-47v547z" />
    <glyph glyph-name="breve" unicode="&#x2d8;" horiz-adv-x="978" 
d="M489 1122q-100 0 -171 68.5t-78 191.5h43q6 -94 60.5 -154.5t145.5 -60.5t145.5 60.5t59.5 154.5h45q-9 -123 -79.5 -191.5t-170.5 -68.5z" />
    <glyph glyph-name="dotaccent" unicode="&#x2d9;" horiz-adv-x="985" 
d="M494 1214q-25 0 -41.5 16.5t-16.5 39.5q0 26 16.5 40.5t41.5 14.5t40 -14.5t15 -40.5q0 -24 -15.5 -40t-39.5 -16z" />
    <glyph glyph-name="ring" unicode="&#x2da;" horiz-adv-x="886" 
d="M442 1110q-60 0 -104.5 45t-44.5 105q0 61 44.5 105t104.5 44q62 0 107 -44t45 -105q0 -60 -45.5 -105t-106.5 -45zM442 1157q43 0 75 31t32 72q0 42 -32 73t-75 31t-73.5 -30.5t-30.5 -73.5q0 -42 31 -72.5t73 -30.5z" />
    <glyph glyph-name="ogonek" unicode="&#x2db;" horiz-adv-x="956" 
d="M553 -371q-80 0 -126 40.5t-46 115.5q0 63 46 129t132 115l31 -29q-74 -38 -118 -96.5t-44 -116.5q0 -50 31 -80.5t94 -30.5q65 0 121 27l8 -47q-56 -27 -129 -27z" />
    <glyph glyph-name="tilde" unicode="&#x2dc;" horiz-adv-x="1081" 
d="M700 1163q-12 0 -25 2.5t-23 5t-24 10t-21.5 10.5t-23.5 14t-20.5 14t-22.5 15.5t-20 14.5q-78 56 -129 56q-86 0 -131 -125l-43 12q54 158 172 158q67 0 158 -64q8 -6 35 -25t40.5 -27.5t35 -17t40.5 -8.5q39 0 72 32t51 95l43 -14q-23 -79 -68 -118.5t-96 -39.5z" />
    <glyph glyph-name="hungarumlaut" unicode="&#x2dd;" horiz-adv-x="1062" 
d="M246 1122l250 277h63l-254 -277h-59zM500 1122l250 277h63l-256 -277h-57z" />
    <glyph glyph-name="gravecomb" unicode="&#x300;" 
d="M-948 1130l-234 261h62l231 -261h-59z" />
    <glyph glyph-name="acutecomb" unicode="&#x301;" 
d="M-1165 1122l252 277h63l-254 -277h-61z" />
    <glyph glyph-name="uni0302" unicode="&#x302;" 
d="M-1303 1124l256 262h52l250 -262h-60l-213 226h-4l-221 -226h-60z" />
    <glyph glyph-name="tildecomb" unicode="&#x303;" 
d="M-864 1163q-12 0 -25 2.5t-23 5t-24 10t-21.5 10.5t-23.5 14t-20.5 14t-22.5 15.5t-20 14.5q-78 56 -130 56q-86 0 -131 -125l-43 12q54 158 172 158q67 0 158 -64l35 -25t41 -27.5t35 -16.5t41 -9q39 0 72 32t51 95l43 -14q-23 -79 -68 -118.5t-96 -39.5z" />
    <glyph glyph-name="uni0304" unicode="&#x304;" 
d="M-1296 1241v47h546v-47h-546z" />
    <glyph glyph-name="uni0306" unicode="&#x306;" 
d="M-1024 1122q-100 0 -171.5 69t-78.5 191h43q6 -94 61 -154.5t146 -60.5t145.5 60.5t59.5 154.5h45q-9 -123 -79.5 -191.5t-170.5 -68.5z" />
    <glyph glyph-name="uni0307" unicode="&#x307;" 
d="M-1022 1214q-24 0 -40.5 16t-16.5 40q0 26 16 40.5t41 14.5t40 -14.5t15 -40.5q0 -24 -15.5 -40t-39.5 -16z" />
    <glyph glyph-name="uni0308" unicode="&#x308;" 
d="M-1178 1214q-24 0 -40.5 16t-16.5 40q0 26 16 40.5t41 14.5t40.5 -14.5t15.5 -40.5q0 -24 -16 -40t-40 -16zM-877 1214q-25 0 -41 16t-16 40q0 26 16 40.5t41 14.5t40.5 -14.5t15.5 -40.5q0 -24 -16 -40t-40 -16z" />
    <glyph glyph-name="hookabovecomb" unicode="&#x309;" 
d="M-1071 1110q4 3 29 20t32.5 22.5t30 21.5t31.5 24.5t26.5 23.5t25 26t17.5 25.5t13.5 28t3.5 27.5q0 50 -32.5 70t-90.5 20q-53 0 -105.5 -18t-78.5 -45l-13 49q91 59 197 59q75 0 121.5 -34t46.5 -105q0 -19 -6 -38.5t-20 -38t-25.5 -32.5t-34 -32.5t-33 -27t-35.5 -26
t-28 -20.5h-72z" />
    <glyph glyph-name="uni030A" unicode="&#x30a;" 
d="M-1024 1110q-60 0 -105 45t-45 105q0 61 45 105t105 44q62 0 107 -44t45 -105q0 -60 -45.5 -105t-106.5 -45zM-1024 1157q43 0 74.5 31t31.5 72q0 43 -31.5 73.5t-74.5 30.5t-73.5 -30.5t-30.5 -73.5q0 -42 31 -72.5t73 -30.5z" />
    <glyph glyph-name="uni030B" unicode="&#x30b;" 
d="M-1180 1122l250 277h64l-254 -277h-60zM-926 1122l250 277h64l-256 -277h-58z" />
    <glyph glyph-name="uni030C" unicode="&#x30c;" 
d="M-1053 1124l-250 262h60l217 -225h4l217 225h60l-256 -262h-52z" />
    <glyph glyph-name="uni0312" unicode="&#x312;" 
d="M-1020 1104q-10 58 -10 113q0 172 168 182l16 -37q-83 -4 -111 -41.5t-28 -101.5q0 -53 10 -115h-45z" />
    <glyph glyph-name="uni0313" unicode="&#x313;" 
d="M-981 1399q10 -58 10 -113q0 -172 -168 -182l-16 37q83 4 111 41.5t28 101.5q0 53 -10 115h45z" />
    <glyph glyph-name="uni031B" unicode="&#x31b;" 
d="M-1020 989v45q102 0 150.5 54.5t48.5 205.5v160h45v-158q0 -89 -16 -149.5t-48.5 -95t-75.5 -48.5t-104 -14z" />
    <glyph glyph-name="dotbelowcomb" unicode="&#x323;" 
d="M-1024 -254q25 0 41 -16t16 -39q0 -26 -16 -41t-41 -15t-40 15t-15 41q0 24 15.5 39.5t39.5 15.5z" />
    <glyph glyph-name="uni0324" unicode="&#x324;" 
d="M-1176 -254q25 0 41.5 -16t16.5 -39q0 -26 -16.5 -41t-41.5 -15t-40 15t-15 41q0 24 15.5 39.5t39.5 15.5zM-874 -254q25 0 41 -16t16 -39q0 -26 -16 -41t-41 -15t-40.5 15t-15.5 41q0 23 16 39t40 16z" />
    <glyph glyph-name="uni0326" unicode="&#x326;" 
d="M-1186 -408l-16 37q83 4 111 42t28 102q0 52 -10 114h45q10 -58 10 -112q0 -173 -168 -183z" />
    <glyph glyph-name="uni0327" unicode="&#x327;" 
d="M-1075 -377q-55 0 -101 12v48q51 -15 93 -15q58 0 96.5 27t38.5 78q0 47 -43.5 81.5t-124.5 34.5l2 39l39 84h45l-35 -82v-2q65 -5 114.5 -46.5t49.5 -110.5q0 -62 -46.5 -105t-127.5 -43z" />
    <glyph glyph-name="uni0328" unicode="&#x328;" 
d="M-1061 -371q-80 0 -126 40.5t-46 115.5q0 63 46 129t132 115l31 -29q-74 -38 -118 -96.5t-44 -116.5q0 -50 31 -80.5t94 -30.5q65 0 121 27l8 -47q-56 -27 -129 -27z" />
    <glyph glyph-name="uni032E" unicode="&#x32e;" 
d="M-1024 -424q-100 0 -170.5 68.5t-79.5 191.5h45q5 -94 59.5 -154.5t145.5 -60.5t146 60.5t61 154.5h43q-7 -122 -78.5 -191t-171.5 -69z" />
    <glyph glyph-name="uni0331" unicode="&#x331;" 
d="M-750 -348h-546v47h546v-47z" />
    <glyph glyph-name="uni0335" unicode="&#x335;" 
d="M-1272 565v45h508v-45h-508z" />
    <glyph glyph-name="uni0400" unicode="&#x400;" horiz-adv-x="1157" 
d="M662 1628l-234 254h61l232 -254h-59zM182 0v1454h844v-47h-797v-655h670v-47h-670v-658h840v-47h-887z" />
    <glyph glyph-name="uni0401" unicode="&#x401;" horiz-adv-x="1157" 
d="M432 1733q-25 0 -41 16t-16 39q0 26 16 40.5t41 14.5t40 -14.5t15 -40.5q0 -24 -15.5 -39.5t-39.5 -15.5zM733 1733q-25 0 -41 16t-16 39q0 26 16 40.5t41 14.5t40 -14.5t15 -40.5q0 -24 -15.5 -39.5t-39.5 -15.5zM182 0v1454h844v-47h-797v-655h670v-47h-670v-658h840
v-47h-887z" />
    <glyph glyph-name="uni0402" unicode="&#x402;" horiz-adv-x="1624" 
d="M1008 870q249 0 380.5 -116t131.5 -328q0 -205 -126 -319.5t-345 -114.5q-106 0 -211 14l4 47q98 -14 207 -14q196 0 308.5 102t112.5 285q0 191 -118.5 294t-343.5 103q-115 0 -237 -27t-216 -73v-723h-47v1407h-477v47h1007v-47h-483v-633q100 44 221.5 70t231.5 26z
" />
    <glyph glyph-name="uni0403" unicode="&#x403;" horiz-adv-x="1064" 
d="M442 1628l232 254h61l-233 -254h-60zM182 0v1454h844v-47h-797v-1407h-47z" />
    <glyph glyph-name="uni0404" unicode="&#x404;" horiz-adv-x="1462" 
d="M1352 279l39 -31q-105 -123 -238.5 -188.5t-316.5 -65.5q-147 0 -275 48t-225 138t-153 229.5t-56 311.5q0 124 29 235t88 203.5t142.5 160t198 105t249.5 37.5q158 0 289 -54.5t247 -180.5l-39 -33q-108 119 -229 170t-268 51q-153 0 -277 -50.5t-205 -140.5t-126 -210
t-50 -262h909v-47h-909q3 -158 55.5 -285.5t142 -209.5t207.5 -125.5t255 -43.5q169 0 293.5 61t222.5 177z" />
    <glyph glyph-name="uni0405" unicode="&#x405;" horiz-adv-x="1142" 
d="M578 -6q-140 0 -268.5 54t-221.5 165l37 37q75 -102 198 -155.5t259 -53.5q109 0 199 34t147 107t57 174q0 33 -6.5 62t-15.5 52.5t-27 46t-33.5 38.5t-43.5 33.5t-47.5 28.5t-55 27t-57.5 24.5t-63 25t-63 25.5q-172 70 -240 111q-162 99 -179 250q-2 19 -2 40
q0 149 115 245.5t298 96.5q107 0 218 -40t198 -111l-33 -39q-84 68 -185 105.5t-196 37.5q-94 0 -175.5 -32t-136 -101t-54.5 -162q0 -73 28 -128t96.5 -100t112.5 -65.5t146 -60.5q3 -1 4 -2q176 -70 209 -86q149 -70 200 -165q37 -67 37 -157q0 -159 -121.5 -260.5
t-334.5 -101.5z" />
    <glyph glyph-name="uni0406" unicode="&#x406;" horiz-adv-x="440" 
d="M197 0v1454h47v-1454h-47z" />
    <glyph glyph-name="uni0407" unicode="&#x407;" horiz-adv-x="440" 
d="M68 1733q-25 0 -41.5 16t-16.5 39q0 26 16.5 40.5t41.5 14.5t40 -14.5t15 -40.5q0 -24 -15.5 -39.5t-39.5 -15.5zM369 1733q-25 0 -41.5 16t-16.5 39q0 26 16.5 40.5t41.5 14.5t40 -14.5t15 -40.5q0 -24 -15.5 -39.5t-39.5 -15.5zM197 0v1454h47v-1454h-47z" />
    <glyph glyph-name="uni0408" unicode="&#x408;" horiz-adv-x="956" 
d="M434 -6q-92 0 -195.5 50t-185.5 142l29 37q168 -182 352 -182q316 0 316 395v1018h47v-1028q0 -432 -363 -432z" />
    <glyph glyph-name="uni0409" unicode="&#x409;" horiz-adv-x="2250" 
d="M1667 825q107 0 193 -23t151 -71.5t100 -129t35 -189.5q0 -108 -35 -188.5t-100 -128.5t-151 -71.5t-193 -23.5h-469v1407h-696q-43 -610 -68 -805q-28 -222 -77.5 -358.5t-113.5 -192t-151 -55.5q-37 0 -61 8l4 45q21 -6 57 -6q71 0 124 47t97 170.5t72 329.5
q39 278 70 864h790v-629h422zM1667 47q222 0 326 98t104 267q0 170 -103.5 268t-326.5 98h-422v-731h422z" />
    <glyph glyph-name="uni040A" unicode="&#x40a;" horiz-adv-x="2222" 
d="M1653 776q217 0 341 -94.5t124 -284.5q0 -103 -34 -180t-97.5 -124t-148 -70t-191.5 -23h-492v729h-926v-729h-47v1454h47v-678h926v678h47v-678h451zM1647 47q220 0 320.5 95t100.5 255q0 70 -22 127.5t-68.5 104.5t-129 73.5t-195.5 26.5h-451v-682h445z" />
    <glyph glyph-name="uni040B" unicode="&#x40b;" horiz-adv-x="1570" 
d="M1016 870q223 0 319.5 -112t96.5 -352v-406h-48v401q0 228 -85 325t-283 97q-97 0 -218 -29t-243 -96v-698h-47v1407h-477v47h1007v-47h-483v-657q122 64 243 92t218 28z" />
    <glyph glyph-name="uni040C" unicode="&#x40c;" horiz-adv-x="1253" 
d="M514 1628l231 254h62l-234 -254h-59zM182 0v1454h47v-989h4l857 989h63l-596 -688l606 -766h-61l-576 731l-297 -344v-387h-47z" />
    <glyph glyph-name="uni040D" unicode="&#x40d;" horiz-adv-x="1452" 
d="M803 1628l-234 254h62l231 -254h-59zM182 0v1454h47v-1372h2l994 1372h45v-1454h-47v1370h-2l-992 -1370h-47z" />
    <glyph glyph-name="uni040E" unicode="&#x40e;" horiz-adv-x="1306" 
d="M655 1618q-115 0 -192.5 63.5t-87.5 171.5l45 9q10 -84 70 -142.5t165 -58.5q106 0 166 58.5t68 142.5l47 -9q-12 -108 -89 -171.5t-192 -63.5zM1194 1454h51l-500 -1108q-69 -151 -90 -188q-66 -117 -158 -150q-45 -16 -100 -16q-60 0 -122 22.5t-101 65.5l19 45
q40 -44 95.5 -65t108.5 -21q51 0 90.5 16.5t73.5 56t61.5 88.5t63.5 130l-625 1124h52l596 -1065h4q0 2 4 10z" />
    <glyph glyph-name="uni040F" unicode="&#x40f;" horiz-adv-x="1376" 
d="M1194 1454v-1454h-483l-2 -301h-41l-2 301h-484v1454h47v-1407h918v1407h47z" />
    <glyph glyph-name="uni0410" unicode="&#x410;" horiz-adv-x="1310" 
d="M59 0l564 1454h59l569 -1454h-51l-170 432h-751l-168 -432h-52zM297 479h715l-357 918h-4z" />
    <glyph glyph-name="uni0411" unicode="&#x411;" horiz-adv-x="1222" 
d="M182 0v1454h807v-47h-760v-584h402q222 0 350.5 -100t128.5 -311q0 -108 -35 -188.5t-100 -128.5t-151 -71.5t-193 -23.5h-449zM229 47h402q222 0 326 98t104 267q0 168 -104 266t-326 98h-402v-729z" />
    <glyph glyph-name="uni0412" unicode="&#x412;" horiz-adv-x="1249" 
d="M182 0v1454h418q100 0 180 -18.5t145 -58t100.5 -109.5t35.5 -166q0 -121 -68 -213.5t-196 -126.5v-4q141 -21 237 -115.5t96 -257.5q0 -178 -125.5 -281.5t-375.5 -103.5h-447zM229 782h410q54 0 104.5 9.5t100 32.5t86.5 58.5t59.5 92t22.5 127.5q0 305 -414 305h-369
v-625zM229 47h408q204 0 324 84t120 248q0 171 -115.5 263.5t-328.5 92.5h-408v-688z" />
    <glyph glyph-name="uni0413" unicode="&#x413;" horiz-adv-x="1064" 
d="M182 0v1454h844v-47h-797v-1407h-47z" />
    <glyph glyph-name="uni0414" unicode="&#x414;" horiz-adv-x="1603" 
d="M1516 47v-348h-41l-5 301h-1378l-4 -301h-41v348h174q163 217 238 637q53 292 59 770h797v-1407h201zM504 676q-72 -413 -230 -629h994v1360h-705q-9 -451 -59 -731z" />
    <glyph glyph-name="uni0415" unicode="&#x415;" horiz-adv-x="1157" 
d="M182 0v1454h844v-47h-797v-655h670v-47h-670v-658h840v-47h-887z" />
    <glyph glyph-name="uni0416" unicode="&#x416;" horiz-adv-x="1880" 
d="M74 0l544 764l-548 690h61l780 -987h2v987h48v-991h2l768 991h61l-537 -690l555 -764h-59l-526 727l-264 -338v-389h-48v391l-264 336l-516 -727h-59z" />
    <glyph glyph-name="uni0417" unicode="&#x417;" horiz-adv-x="1214" 
d="M614 -6q-162 0 -294 56t-220 157l33 39q73 -94 201.5 -149.5t281.5 -55.5q192 0 313.5 95t121.5 257q0 160 -117 251t-330 91h-270v47h272q67 0 131.5 19t120 56.5t89.5 102t34 146.5q0 145 -102.5 227t-280.5 82q-236 0 -405 -131l-33 35q74 64 194.5 103.5t245.5 39.5
q193 0 311.5 -98.5t118.5 -257.5q0 -120 -68.5 -213.5t-201.5 -130.5v-2q68 -10 127 -35.5t108 -68.5t77 -109t28 -148q0 -173 -127.5 -289t-358.5 -116z" />
    <glyph glyph-name="uni0418" unicode="&#x418;" horiz-adv-x="1452" 
d="M182 0v1454h47v-1372h2l994 1372h45v-1454h-47v1370h-2l-992 -1370h-47z" />
    <glyph glyph-name="uni0419" unicode="&#x419;" horiz-adv-x="1452" 
d="M727 1618q-115 0 -193 63.5t-88 171.5l46 9q10 -84 70 -142.5t165 -58.5q106 0 166 58.5t68 142.5l47 -9q-12 -108 -89 -171.5t-192 -63.5zM182 0v1454h47v-1372h2l994 1372h45v-1454h-47v1370h-2l-992 -1370h-47z" />
    <glyph glyph-name="uni041A" unicode="&#x41a;" horiz-adv-x="1253" 
d="M182 0v1454h47v-989h4l857 989h63l-596 -688l606 -766h-61l-576 731l-297 -344v-387h-47z" />
    <glyph glyph-name="uni041B" unicode="&#x41b;" horiz-adv-x="1427" 
d="M455 1454h790v-1454h-47v1407h-696q-43 -610 -68 -805q-28 -222 -77.5 -358.5t-113.5 -192t-151 -55.5q-37 0 -61 8l4 45q21 -6 57 -6q71 0 124 47t97 170.5t72 329.5q39 278 70 864z" />
    <glyph glyph-name="uni041C" unicode="&#x41c;" horiz-adv-x="1746" 
d="M182 0v1454h49l641 -1075h5l639 1075h47v-1454h-47v1362h-3l-618 -1045h-43l-621 1045h-2v-1362h-47z" />
    <glyph glyph-name="uni041D" unicode="&#x41d;" horiz-adv-x="1417" 
d="M182 0v1454h47v-745h959v745h47v-1454h-47v662h-959v-662h-47z" />
    <glyph glyph-name="uni041E" unicode="&#x41e;" horiz-adv-x="1683" 
d="M846 -6q-198 0 -361.5 90.5t-260.5 259.5t-97 385q0 215 97 383.5t260.5 259t361.5 90.5q145 0 275 -53.5t226 -147.5t152.5 -232.5t56.5 -299.5q0 -162 -56.5 -300.5t-152.5 -233t-226 -148t-275 -53.5zM846 41q135 0 256 50t210.5 138.5t142 218t52.5 281.5
q0 151 -52.5 280.5t-142 217.5t-210.5 138t-256 50q-138 0 -261 -50t-213.5 -138t-143 -217.5t-52.5 -280.5q0 -152 52.5 -281.5t143 -218t213.5 -138.5t261 -50z" />
    <glyph glyph-name="uni041F" unicode="&#x41f;" horiz-adv-x="1376" 
d="M182 0v1454h1012v-1454h-47v1407h-918v-1407h-47z" />
    <glyph glyph-name="uni0420" unicode="&#x420;" horiz-adv-x="1191" 
d="M182 0v1454h477q118 0 205.5 -31t140 -87t78 -129t25.5 -163q0 -108 -35.5 -189.5t-100.5 -131t-152.5 -74t-196.5 -24.5h-394v-625h-47zM229 672h392q116 0 202.5 28t137 79.5t74.5 117t24 147.5q0 179 -105.5 271t-281.5 92h-443v-735z" />
    <glyph glyph-name="uni0421" unicode="&#x421;" horiz-adv-x="1462" 
d="M836 -6q-147 0 -275 48t-225 138t-153 229.5t-56 311.5q0 124 29 235t88 203.5t143 160t199 105t250 37.5q157 0 299.5 -67t255.5 -207l-39 -33q-205 260 -516 260q-157 0 -283.5 -53.5t-208 -147.5t-125 -220t-43.5 -273q0 -162 51.5 -292t141 -214t209 -129t258.5 -45
q312 0 516 256l39 -31q-219 -272 -555 -272z" />
    <glyph glyph-name="uni0422" unicode="&#x422;" horiz-adv-x="1110" 
d="M528 0v1407h-477v47h1008v-47h-484v-1407h-47z" />
    <glyph glyph-name="uni0423" unicode="&#x423;" horiz-adv-x="1306" 
d="M1194 1454h51l-500 -1108q-69 -151 -90 -188q-66 -117 -158 -150q-45 -16 -100 -16q-60 0 -122 22.5t-101 65.5l19 45q40 -44 95.5 -65t108.5 -21q51 0 90.5 16.5t73.5 56t61.5 88.5t63.5 130l-625 1124h52l596 -1065h4q0 2 4 10z" />
    <glyph glyph-name="uni0424" unicode="&#x424;" horiz-adv-x="1716" 
d="M891 1360q319 0 513.5 -168.5t194.5 -454.5q0 -175 -88.5 -309.5t-249 -207.5t-368.5 -73h-12v-147h-47v147h-11q-318 2 -512 163.5t-194 426.5q0 287 192 455t512 168h13v131h47v-131h10zM166 737q0 -158 79 -280t228.5 -191.5t349.5 -70.5h11v1118h-13
q-306 0 -480.5 -157t-174.5 -419zM893 195q299 0 478 150.5t179 391.5q0 261 -176 418t-483 158h-10v-1118h12z" />
    <glyph glyph-name="uni0425" unicode="&#x425;" horiz-adv-x="1236" 
d="M70 0l520 725l-522 729h55l495 -686h3l491 686h59l-522 -729l520 -725h-59l-487 678h-5l-491 -678h-57z" />
    <glyph glyph-name="uni0426" unicode="&#x426;" horiz-adv-x="1456" 
d="M1366 47v-348h-41l-4 301h-1139v1454h47v-1407h889v1407h47v-1407h201z" />
    <glyph glyph-name="uni0427" unicode="&#x427;" horiz-adv-x="1263" 
d="M1034 1454h47v-1454h-47v643q-110 -62 -243.5 -89.5t-229.5 -27.5q-227 0 -324.5 112.5t-97.5 352.5v463h47v-459q0 -229 86 -325.5t289 -96.5q97 0 231.5 30t241.5 95v756z" />
    <glyph glyph-name="uni0428" unicode="&#x428;" horiz-adv-x="1949" 
d="M1720 1454h47v-1454h-1585v1454h47v-1407h723v1407h47v-1407h721v1407z" />
    <glyph glyph-name="uni0429" unicode="&#x429;" horiz-adv-x="2058" 
d="M1968 47v-348h-41l-4 301h-1741v1454h47v-1407h723v1407h47v-1407h721v1407h47v-1407h201z" />
    <glyph glyph-name="uni042A" unicode="&#x42a;" horiz-adv-x="1486" 
d="M903 825q107 0 193 -23t151 -71.5t100 -129t35 -189.5q0 -108 -35 -188.5t-100 -128.5t-151 -71.5t-193 -23.5h-469v1407h-424v47h471v-629h422zM903 47q222 0 326 98t104 267q0 170 -103.5 268t-326.5 98h-422v-731h422z" />
    <glyph glyph-name="uni042B" unicode="&#x42b;" horiz-adv-x="1599" 
d="M182 0v1454h47v-629h381q107 0 193 -23t151 -71.5t100.5 -129t35.5 -189.5q0 -211 -129 -311.5t-351 -100.5h-428zM1370 0v1454h47v-1454h-47zM229 47h381q222 0 326 98t104 267q0 170 -103.5 268t-326.5 98h-381v-731z" />
    <glyph glyph-name="uni042C" unicode="&#x42c;" horiz-adv-x="1234" 
d="M182 0v1454h47v-629h422q107 0 193 -23t151 -71.5t100 -129t35 -189.5q0 -108 -35 -188.5t-100 -128.5t-151 -71.5t-193 -23.5h-469zM229 47h422q222 0 326 98t104 267q0 170 -103.5 268t-326.5 98h-422v-731z" />
    <glyph glyph-name="uni042D" unicode="&#x42d;" horiz-adv-x="1484" 
d="M651 1462q161 0 295.5 -57.5t224.5 -157.5t139.5 -235.5t49.5 -290.5q0 -214 -90 -380t-251.5 -256.5t-369.5 -90.5q-335 0 -551 246l37 30q79 -100 211 -164.5t305 -64.5q289 0 471.5 182.5t188.5 481.5h-934v47h934q-7 191 -87.5 340.5t-229.5 236t-343 86.5
q-139 0 -257 -47t-234 -149l-37 34q237 209 528 209z" />
    <glyph glyph-name="uni042E" unicode="&#x42e;" horiz-adv-x="2078" 
d="M1268 1462q202 0 360.5 -94t246 -261t87.5 -378t-87.5 -378.5t-246 -262t-360.5 -94.5q-285 0 -474.5 186.5t-211.5 481.5h-353v-662h-47v1454h47v-745h351v20q0 211 86.5 378t244 261t357.5 94zM1268 41q188 0 335.5 88.5t228.5 245t81 354.5q0 197 -81 353
t-228.5 244.5t-335.5 88.5q-187 0 -333 -88t-226 -244t-80 -354q0 -197 80 -353.5t226 -245.5t333 -89z" />
    <glyph glyph-name="uni042F" unicode="&#x42f;" horiz-adv-x="1273" 
d="M117 0l409 621q-181 23 -285 127.5t-104 295.5q0 184 115 297t342 113h498v-1454h-48v614h-464l-406 -614h-57zM631 662h413v745h-452q-188 0 -297 -91.5t-109 -271.5q0 -177 107.5 -279.5t337.5 -102.5z" />
    <glyph glyph-name="uni0430" unicode="&#x430;" horiz-adv-x="1210" 
d="M584 -6q-135 0 -247 60.5t-178.5 173.5t-66.5 257q0 141 61 258t175 186.5t258 69.5q141 0 256 -77.5t170 -210.5h2v280h45v-991h-45v272h-2q-56 -127 -168 -202.5t-260 -75.5zM584 39q182 0 306 124.5t124 321.5q0 198 -120 333.5t-308 135.5t-317.5 -131t-129.5 -338
q0 -189 124 -317.5t321 -128.5z" />
    <glyph glyph-name="uni0431" unicode="&#x431;" horiz-adv-x="1212" 
d="M637 -6q-243 0 -378 164t-134 460q0 78 2 133t8 125t16 120t28.5 107.5t44.5 98.5t64 83.5t87 72t113.5 53.5t142.5 37l381 65l12 -45l-385 -65q-85 -15 -152 -42.5t-115.5 -63t-83.5 -86.5t-56.5 -103.5t-34.5 -124.5t-19 -139.5t-8 -157.5h2q48 137 168 225t285 88
q208 0 351.5 -141.5t143.5 -361.5q0 -109 -41 -204t-109 -159.5t-155 -101.5t-178 -37zM641 39q114 0 213.5 60.5t159 166.5t59.5 230q0 198 -128 328t-320 130q-185 0 -315 -125t-130 -315q0 -43 9 -90.5t28.5 -102.5t55.5 -104t85 -89.5t122 -64.5t161 -24z" />
    <glyph glyph-name="uni0432" unicode="&#x432;" horiz-adv-x="1075" 
d="M166 0v991h440q152 0 235 -61t83 -178q0 -89 -45.5 -150.5t-120.5 -83.5v-2q91 -13 153 -77t62 -175q0 -127 -90.5 -195.5t-270.5 -68.5h-446zM211 537h414q116 0 184 56t68 157q0 196 -277 196h-389v-409zM211 45h397q318 0 318 217q0 112 -77.5 171t-225.5 59h-412
v-447z" />
    <glyph glyph-name="uni0433" unicode="&#x433;" horiz-adv-x="905" 
d="M166 0v991h682v-45h-637v-946h-45z" />
    <glyph glyph-name="uni0434" unicode="&#x434;" horiz-adv-x="1200" 
d="M1139 45v-338h-39l-4 293h-1012l-4 -293h-39v338h135q132 173 184 453q35 193 39 493h582v-946h158zM231 45h705v901h-494q-4 -294 -34 -457q-50 -268 -177 -444z" />
    <glyph glyph-name="uni0435" unicode="&#x435;" horiz-adv-x="1089" 
d="M1001 498h-858v-2q0 -199 119.5 -328t304.5 -129q227 0 357 166l34 -27q-138 -184 -387 -184q-208 0 -341.5 142t-133.5 360q0 216 135.5 359.5t335.5 143.5q192 0 313 -134.5t121 -338.5v-28zM567 954q-169 0 -288 -116t-134 -295h809q-11 186 -116 298.5t-271 112.5z
" />
    <glyph glyph-name="uni0436" unicode="&#x436;" horiz-adv-x="1556" 
d="M63 0l404 567l-401 424h63l619 -649h2v649h45v-649h2l602 649h63l-391 -420l422 -571h-59l-396 537l-243 -263v-274h-45v274l-250 258l-383 -532h-54z" />
    <glyph glyph-name="uni0437" unicode="&#x437;" horiz-adv-x="999" 
d="M492 -6q-140 0 -234 31t-172 81l14 48q171 -115 392 -115q170 0 264 64t94 171q0 101 -78.5 159.5t-224.5 58.5h-240v45h240q117 0 185.5 54.5t68.5 151.5q0 99 -82 155t-223 56q-197 0 -346 -90l-21 41q155 94 369 94q159 0 254.5 -69t95.5 -185q0 -85 -45.5 -144
t-122.5 -83v-2q91 -15 154 -76t63 -164q0 -127 -103 -204.5t-302 -77.5z" />
    <glyph glyph-name="uni0438" unicode="&#x438;" horiz-adv-x="1177" 
d="M166 0v991h45v-917h4l754 917h43v-991h-45v915h-4l-752 -915h-45z" />
    <glyph glyph-name="uni0439" unicode="&#x439;" horiz-adv-x="1177" 
d="M592 1149q-117 0 -194 67t-87 189l45 8q10 -98 69.5 -159.5t166.5 -61.5t166 61.5t67 159.5l47 -8q-12 -122 -87.5 -189t-192.5 -67zM166 0v991h45v-917h4l754 917h43v-991h-45v915h-4l-752 -915h-45z" />
    <glyph glyph-name="uni043A" unicode="&#x43a;" horiz-adv-x="1046" 
d="M166 0v991h45v-680l4 -2l680 682h66l-426 -428l446 -563h-61l-420 528l-289 -288v-240h-45z" />
    <glyph glyph-name="uni043B" unicode="&#x43b;" horiz-adv-x="1107" 
d="M344 991h598v-991h-45v946h-508q-14 -339 -39 -553q-11 -96 -31.5 -168t-45.5 -114.5t-58 -68.5t-64 -35t-69 -9q-31 0 -43 6l4 45q18 -6 43 -6q81 0 140 84t79 272q21 216 39 592z" />
    <glyph glyph-name="uni043C" unicode="&#x43c;" horiz-adv-x="1339" 
d="M166 0v991h45l457 -749h4l458 749h44v-991h-46v899h-2l-436 -711h-43l-434 711h-2v-899h-45z" />
    <glyph glyph-name="uni043D" unicode="&#x43d;" horiz-adv-x="1155" 
d="M166 0v991h45v-487h733v487h45v-991h-45v459h-733v-459h-45z" />
    <glyph glyph-name="uni043E" unicode="&#x43e;" horiz-adv-x="1185" 
d="M594 -6q-145 0 -260 68.5t-176.5 182.5t-61.5 251q0 101 36.5 193t100.5 160.5t158 109t203 40.5q136 0 248.5 -62.5t180 -178.5t67.5 -262t-67.5 -261.5t-180 -178t-248.5 -62.5zM594 39q190 0 319 128t129 329t-129.5 329.5t-318.5 128.5q-132 0 -236.5 -62.5
t-159.5 -166.5t-55 -229q0 -93 32.5 -176.5t90.5 -145.5t143 -98.5t185 -36.5z" />
    <glyph glyph-name="uni043F" unicode="&#x43f;" horiz-adv-x="1140" 
d="M166 0v991h809v-991h-45v946h-719v-946h-45z" />
    <glyph glyph-name="uni0440" unicode="&#x440;" horiz-adv-x="1228" 
d="M166 -406v1397h45v-280h2q57 134 171.5 211t256.5 77q143 0 255.5 -69.5t173 -186.5t60.5 -258q0 -217 -141 -354t-346 -137q-149 0 -261.5 74.5t-168.5 199.5h-2v-674h-45zM643 39q194 0 317 129t123 317q0 207 -127.5 338t-314.5 131q-127 0 -226 -63.5t-151.5 -170
t-52.5 -235.5q0 -197 124.5 -321.5t307.5 -124.5z" />
    <glyph glyph-name="uni0441" unicode="&#x441;" horiz-adv-x="1021" 
d="M569 -6q-211 0 -342 140t-131 362q0 221 132 362t343 141q105 0 202.5 -40.5t166.5 -116.5l-35 -35q-56 67 -143.5 107t-190.5 40q-191 0 -309.5 -128.5t-118.5 -329.5q0 -203 118 -330t308 -127q99 0 192 38t152 105l31 -35q-65 -69 -165 -111t-210 -42z" />
    <glyph glyph-name="uni0442" unicode="&#x442;" horiz-adv-x="876" 
d="M416 0v946h-377v45h799v-45h-377v-946h-45z" />
    <glyph glyph-name="uni0443" unicode="&#x443;" horiz-adv-x="1036" 
d="M332 -406l176 416l-453 981h56l419 -921h2l390 921h55l-594 -1397h-51z" />
    <glyph glyph-name="uni0444" unicode="&#x444;" horiz-adv-x="1359" 
d="M702 999q269 0 423.5 -139.5t154.5 -363.5q0 -223 -156.5 -362.5t-418.5 -139.5h-3v-400h-45v400h-2q-262 0 -418.5 139.5t-156.5 362.5q0 224 154 363.5t423 139.5v508h45v-508zM127 496q0 -204 143.5 -330.5t384.5 -126.5h2v915q-248 0 -389 -127t-141 -331zM705 39
q241 0 384.5 126.5t143.5 330.5t-141.5 331t-389.5 127v-915h3z" />
    <glyph glyph-name="uni0445" unicode="&#x445;" horiz-adv-x="954" 
d="M68 0l381 496l-386 495h62l350 -456h4l352 456h62l-383 -493l383 -498h-62l-352 455h-2l-350 -455h-59z" />
    <glyph glyph-name="uni0446" unicode="&#x446;" horiz-adv-x="1167" 
d="M1106 45v-338h-39l-4 293h-897v991h45v-946h692v946h45v-946h158z" />
    <glyph glyph-name="uni0447" unicode="&#x447;" horiz-adv-x="1054" 
d="M844 991h45v-991h-45v418q-189 -76 -369 -76q-201 0 -286 91t-85 310v248h46v-241q0 -142 34 -221t102.5 -110.5t188.5 -31.5q188 0 369 78v526z" />
    <glyph glyph-name="uni0448" unicode="&#x448;" horiz-adv-x="1654" 
d="M166 0v991h45v-946h594v946h45v-946h594v946h45v-991h-1323z" />
    <glyph glyph-name="uni0449" unicode="&#x449;" horiz-adv-x="1708" 
d="M1647 45v-338h-39l-4 293h-1438v991h45v-946h594v946h45v-946h594v946h45v-946h158z" />
    <glyph glyph-name="uni044A" unicode="&#x44a;" horiz-adv-x="1171" 
d="M774 610q165 0 247.5 -78.5t82.5 -226.5q0 -147 -88 -226t-264 -79h-383v946h-336v45h381v-381h360zM752 45q305 0 305 260t-285 260h-358v-520h338z" />
    <glyph glyph-name="uni044B" unicode="&#x44b;" horiz-adv-x="1323" 
d="M166 0v991h45v-379h344q165 0 247.5 -78.5t82.5 -228.5q0 -147 -88.5 -226t-264.5 -79h-366zM1112 0v991h45v-991h-45zM211 45h321q306 0 306 260q0 262 -285 262h-342v-522z" />
    <glyph glyph-name="uni044C" unicode="&#x44c;" horiz-adv-x="968" 
d="M166 0v991h45v-381h360q165 0 247.5 -78.5t82.5 -226.5q0 -147 -88 -226t-264 -79h-383zM211 45h338q305 0 305 260t-285 260h-358v-520z" />
    <glyph glyph-name="uni044D" unicode="&#x44d;" horiz-adv-x="1056" 
d="M471 999q211 0 350.5 -140.5t139.5 -362.5q0 -216 -133 -359t-355 -143q-242 0 -387 123l27 37q139 -115 360 -115q198 0 316 123.5t124 314.5h-649v45h649q-9 192 -133.5 312t-310.5 120q-179 0 -328 -90l-20 41q68 41 160.5 67.5t189.5 26.5z" />
    <glyph glyph-name="uni044E" unicode="&#x44e;" horiz-adv-x="1566" 
d="M987 999q95 0 183 -37t154.5 -102t106 -160t39.5 -204q0 -145 -67.5 -261.5t-177.5 -178.5t-238 -62q-212 0 -344 132.5t-143 332.5h-289v-459h-45v991h45v-487h287q2 135 60 246.5t170 180t259 68.5zM987 39q179 0 307.5 129t128.5 328q0 99 -35.5 185.5t-95.5 145.5
t-139.5 93t-165.5 34q-136 0 -238 -63t-153 -165.5t-51 -229.5t51 -229.5t153 -165t238 -62.5z" />
    <glyph glyph-name="uni044F" unicode="&#x44f;" horiz-adv-x="1067" 
d="M469 991h432v-991h-45v395h-410h-12l-287 -395h-53l291 397q-134 15 -201 89.5t-67 199.5q0 147 88 226t264 79zM856 440v506h-387q-305 0 -305 -260q0 -118 71 -182t214 -64h407z" />
    <glyph glyph-name="uni0450" unicode="&#x450;" horiz-adv-x="1089" 
d="M651 1157h-59l-234 260h62zM1001 498h-858v-2q0 -199 119.5 -328t304.5 -129q227 0 357 166l34 -27q-138 -184 -387 -184q-208 0 -341.5 142t-133.5 360q0 216 135.5 359.5t335.5 143.5q192 0 313 -134.5t121 -338.5v-28zM567 954q-169 0 -288 -116t-134 -295h809
q-11 186 -116 298.5t-271 112.5z" />
    <glyph glyph-name="uni0451" unicode="&#x451;" horiz-adv-x="1089" 
d="M416 1241q-25 0 -41.5 16t-16.5 39q0 26 16.5 41t41.5 15t40 -15t15 -41q0 -24 -15.5 -39.5t-39.5 -15.5zM717 1241q-25 0 -41.5 16t-16.5 39q0 26 16.5 41t41.5 15t40 -15t15 -41q0 -24 -15.5 -39.5t-39.5 -15.5zM1001 498h-858v-2q0 -199 119.5 -328t304.5 -129
q227 0 357 166l34 -27q-138 -184 -387 -184q-208 0 -341.5 142t-133.5 360q0 216 135.5 359.5t335.5 143.5q192 0 313 -134.5t121 -338.5v-28zM567 954q-169 0 -288 -116t-134 -295h809q-11 186 -116 298.5t-271 112.5z" />
    <glyph glyph-name="uni0452" unicode="&#x452;" horiz-adv-x="1103" 
d="M637 934q156 0 247 -106t91 -296v-620q0 -169 -61 -246.5t-218 -77.5q-67 0 -133 29l6 45q59 -29 127 -29q82 0 130.5 21.5t76 83.5t27.5 174v598q0 195 -82 287t-211 92q-196 0 -312 -127.5t-116 -337.5v-424h-45v1174h-160v45h160v288h45v-288h467v-45h-467v-512h2
q52 128 163 200t263 72z" />
    <glyph glyph-name="uni0453" unicode="&#x453;" horiz-adv-x="905" 
d="M362 1149l252 276h64l-254 -276h-62zM166 0v991h682v-45h-637v-946h-45z" />
    <glyph glyph-name="uni0454" unicode="&#x454;" horiz-adv-x="1048" 
d="M942 170l29 -33q-133 -143 -387 -143q-222 0 -355 143t-133 359q0 222 139.5 362.5t350.5 140.5q103 0 195 -30t155 -84l-31 -33q-126 102 -317 102q-186 0 -311 -120t-134 -312h650v-45h-650q6 -191 124.5 -314.5t316.5 -123.5q233 0 358 131z" />
    <glyph glyph-name="uni0455" unicode="&#x455;" horiz-adv-x="849" 
d="M432 -6q-210 0 -362 137l26 37q68 -61 144.5 -95t191.5 -34q131 0 209 62t78 149q0 23 -4.5 43t-11 35.5t-19.5 30.5t-24.5 26t-32 22.5t-35.5 19t-42 18t-44.5 16.5t-49 17t-50.5 18q-48 17 -78 29t-67.5 30t-60 37t-43.5 44t-30.5 56.5t-9.5 69.5q0 101 82 169t202 68
q188 0 324 -118l-31 -33q-69 59 -138.5 81.5t-152.5 22.5q-101 0 -170 -55t-69 -131q0 -39 14.5 -70.5t34 -52t58 -41.5t65 -32t76.5 -29l51 -18q50 -18 74.5 -26.5t63.5 -25.5t58 -30t44 -34t36 -43t19 -52t8 -66q-2 -106 -91 -179t-243 -73z" />
    <glyph glyph-name="uni0456" unicode="&#x456;" horiz-adv-x="399" 
d="M203 1241q-25 0 -41.5 16t-16.5 39q0 26 16.5 41t41.5 15t40 -15t15 -41q0 -24 -15.5 -39.5t-39.5 -15.5zM176 0v991h45v-991h-45z" />
    <glyph glyph-name="uni0457" unicode="&#x457;" horiz-adv-x="399" 
d="M47 1241q-25 0 -41 16t-16 39q0 26 16 41t41 15t40 -15t15 -41q0 -24 -15.5 -39.5t-39.5 -15.5zM348 1241q-25 0 -41 16t-16 39q0 26 16 41t41 15t40 -15t15 -41q0 -24 -15.5 -39.5t-39.5 -15.5zM176 0v991h45v-991h-45z" />
    <glyph glyph-name="uni0458" unicode="&#x458;" horiz-adv-x="360" 
d="M195 1241q-25 0 -41.5 16t-16.5 39q0 26 16.5 41t41.5 15t40 -15t15 -41q0 -24 -15.5 -39.5t-39.5 -15.5zM8 -412q-70 0 -129 29l6 49q54 -33 127 -33q158 0 158 193v1165h45v-1165q0 -238 -207 -238z" />
    <glyph glyph-name="uni0459" unicode="&#x459;" horiz-adv-x="1687" 
d="M1290 610q165 0 247.5 -78.5t82.5 -226.5q0 -147 -88 -226t-264 -79h-383v946h-496q-14 -339 -39 -553q-11 -96 -31.5 -168t-45.5 -114.5t-58 -68.5t-64 -35t-69 -9q-31 0 -43 6l4 45q18 -6 43 -6q81 0 140.5 84t78.5 272q21 216 39 592h586v-381h360zM1268 45
q305 0 305 260t-285 260h-358v-520h338z" />
    <glyph glyph-name="uni045A" unicode="&#x45a;" horiz-adv-x="1757" 
d="M1382 571q154 0 231 -73.5t77 -212.5q0 -137 -83.5 -211t-246.5 -74h-436v516h-713v-516h-45v991h45v-430h713v430h45v-420h413zM1360 45q282 0 282 240q0 241 -262 241h-411v-481h391z" />
    <glyph glyph-name="uni045B" unicode="&#x45b;" horiz-adv-x="1103" 
d="M637 934q156 0 247 -106t91 -296v-532h-45v510q0 195 -82 287t-211 92q-196 0 -312 -127.5t-116 -337.5v-424h-45v1174h-160v45h160v288h45v-288h467v-45h-467v-512h2q52 128 163 200t263 72z" />
    <glyph glyph-name="uni045C" unicode="&#x45c;" horiz-adv-x="1046" 
d="M389 1149l252 276h64l-254 -276h-62zM166 0v991h45v-680l4 -2l680 682h66l-426 -428l446 -563h-61l-420 528l-289 -288v-240h-45z" />
    <glyph glyph-name="uni045D" unicode="&#x45d;" horiz-adv-x="1177" 
d="M627 1157l-234 260h62l231 -260h-59zM166 0v991h45v-917h4l754 917h43v-991h-45v915h-4l-752 -915h-45z" />
    <glyph glyph-name="uni045E" unicode="&#x45e;" horiz-adv-x="1036" 
d="M522 1149q-117 0 -193.5 67t-86.5 189l45 8q10 -98 69 -159.5t166 -61.5t166.5 61.5t67.5 159.5l47 -8q-12 -122 -88 -189t-193 -67zM332 -406l176 416l-453 981h56l419 -921h2l390 921h55l-594 -1397h-51z" />
    <glyph glyph-name="uni045F" unicode="&#x45f;" horiz-adv-x="1114" 
d="M948 991v-991h-366l-2 -293h-39l-2 293h-373v991h45v-946h692v946h45z" />
    <glyph glyph-name="uni0462" unicode="&#x462;" horiz-adv-x="1466" 
d="M883 825q107 0 193 -23t151 -71.5t100 -129t35 -189.5q0 -108 -35 -188.5t-100 -128.5t-151 -71.5t-193 -23.5h-469v1186h-394v45h394v223h47v-223h557v-45h-557v-361h422zM883 47q222 0 326 98t104 267q0 170 -103.5 268t-326.5 98h-422v-731h422z" />
    <glyph glyph-name="uni0463" unicode="&#x463;" horiz-adv-x="1144" 
d="M748 610q165 0 247 -78.5t82 -226.5q0 -147 -88 -226t-264 -79h-385v946h-336v45h336v516h45v-516h401v-45h-401v-336h363zM725 45q305 0 305 260t-285 260h-360v-520h340z" />
    <glyph glyph-name="uni0472" unicode="&#x472;" horiz-adv-x="1683" 
d="M844 1462q146 0 276 -53.5t226.5 -147.5t153 -232.5t56.5 -299.5q0 -216 -96.5 -385t-258.5 -259.5t-357 -90.5q-158 0 -293 57.5t-227.5 156.5t-144.5 234t-52 287q0 150 52 284.5t144.5 233.5t227.5 157t293 58zM844 1415q-191 0 -343 -89t-236 -239.5t-89 -334.5h1331
q-4 146 -58 271t-143 210.5t-209 133.5t-253 48zM844 41q179 0 327.5 81.5t239 234t96.5 348.5h-1331q6 -185 90 -336t235.5 -239.5t342.5 -88.5z" />
    <glyph glyph-name="uni0473" unicode="&#x473;" horiz-adv-x="1185" 
d="M594 999q136 0 248.5 -62.5t180 -178.5t67.5 -262t-67.5 -261.5t-180 -178t-248.5 -62.5q-145 0 -260 68.5t-176.5 182.5t-61.5 251q0 101 36.5 193t100.5 160.5t158 109t203 40.5zM594 954q-195 0 -320 -127t-131 -313h899q-6 194 -135 317t-313 123zM594 39
q184 0 311.5 119.5t136.5 310.5h-899q9 -183 134 -306.5t317 -123.5z" />
    <glyph glyph-name="uni0474" unicode="&#x474;" horiz-adv-x="1419" 
d="M621 0l-560 1454h52l530 -1380h4l395 1149q45 132 96.5 185.5t149.5 53.5q47 0 90.5 -17t59.5 -34l-13 -47q-16 19 -56.5 35t-82.5 16q-80 0 -121.5 -48t-77.5 -155l-417 -1212h-49z" />
    <glyph glyph-name="uni0475" unicode="&#x475;" horiz-adv-x="1097" 
d="M485 0l-426 991h54l393 -921h4l291 741q39 101 74 142.5t100 41.5q74 0 129 -37l-12 -47q-64 37 -109 37q-49 0 -76 -32.5t-61 -120.5l-316 -795h-45z" />
    <glyph glyph-name="uni048A" unicode="&#x48a;" horiz-adv-x="1470" 
d="M727 1618q-115 0 -193 63.5t-88 171.5l46 9q10 -84 70 -142.5t165 -58.5q106 0 166 58.5t68 142.5l47 -9q-12 -108 -89 -171.5t-192 -63.5zM1270 47h78v-8l-121 -340h-41l98 301h-61v1370h-2l-992 -1370h-47v1454h47v-1372h2l994 1372h45v-1407z" />
    <glyph glyph-name="uni048B" unicode="&#x48b;" horiz-adv-x="1181" 
d="M592 1149q-117 0 -194 67t-87 189l45 8q10 -98 69.5 -159.5t166.5 -61.5t166 61.5t67 159.5l47 -8q-12 -122 -87.5 -189t-192.5 -67zM1012 45h71v-8l-110 -330h-39l96 293h-63v915h-4l-752 -915h-45v991h45v-917h4l754 917h43v-946z" />
    <glyph glyph-name="uni048C" unicode="&#x48c;" horiz-adv-x="1280" 
d="M696 825q107 0 193 -23t151 -71.5t100.5 -129t35.5 -189.5q0 -211 -129 -311.5t-351 -100.5h-469v1176h-215v47h215v231h47v-231h381v-47h-381v-351h422zM696 47q222 0 326 98t104 267q0 170 -103.5 268t-326.5 98h-422v-731h422z" />
    <glyph glyph-name="uni048D" unicode="&#x48d;" horiz-adv-x="970" 
d="M573 610q165 0 247.5 -78.5t82.5 -226.5q0 -147 -88 -226t-264 -79h-385v866h-158v45h158v129h45v-129h424v-45h-424v-256h362zM551 45q305 0 305 260t-285 260h-360v-520h340z" />
    <glyph glyph-name="uni048E" unicode="&#x48e;" horiz-adv-x="1191" 
d="M1108 1044q0 -162 -77.5 -260.5t-217.5 -136.5l172 -315l-43 -21l-178 326q-64 -12 -141 -12h-394v-625h-47v1454h477q118 0 205.5 -31t140 -87t78 -129t25.5 -163zM791 690q138 35 203 128t65 226q0 179 -105.5 271t-281.5 92h-443v-735h392q71 0 118 8l-164 303l43 21z
" />
    <glyph glyph-name="uni048F" unicode="&#x48f;" horiz-adv-x="1228" 
d="M1130 485q0 -150 -69.5 -264t-188.5 -174l146 -258l-39 -22l-148 262q-90 -35 -188 -35q-149 0 -261.5 74.5t-168.5 199.5h-2v-674h-45v1397h45v-280h2q57 134 171.5 211t256.5 77q143 0 255.5 -69.5t173 -186.5t60.5 -258zM211 485q0 -197 124.5 -321.5t307.5 -124.5
q84 0 166 29l-160 282l39 23l162 -287q109 55 171 161.5t62 237.5q0 207 -127.5 338t-314.5 131q-127 0 -226 -63.5t-151.5 -170t-52.5 -235.5z" />
    <glyph glyph-name="uni0490" unicode="&#x490;" horiz-adv-x="1064" 
d="M985 1755h41v-348h-797v-1407h-47v1454h799z" />
    <glyph glyph-name="uni0491" unicode="&#x491;" horiz-adv-x="905" 
d="M809 1284h39v-338h-637v-946h-45v991h639z" />
    <glyph glyph-name="uni0492" unicode="&#x492;" horiz-adv-x="1120" 
d="M1081 1407h-796v-678h434v-47h-434v-682h-47v682h-218v47h218v725h843v-47z" />
    <glyph glyph-name="uni0493" unicode="&#x493;" horiz-adv-x="905" 
d="M848 946h-637v-432h469v-45h-469v-469h-45v469h-158v45h158v477h682v-45z" />
    <glyph glyph-name="uni0494" unicode="&#x494;" horiz-adv-x="1288" 
d="M625 784q122 0 220.5 -34t173.5 -103.5t116 -183t41 -264.5q0 -153 -44.5 -272.5t-122 -192t-177 -109.5t-214.5 -37q-93 0 -192 21l4 47q108 -21 188 -21q110 0 201.5 35.5t160.5 104t107.5 177t38.5 247.5q0 141 -37.5 246t-106.5 168t-158 93.5t-199 30.5
q-199 0 -396 -73v-664h-47v1454h844v-47h-797v-692q205 69 396 69z" />
    <glyph glyph-name="uni0495" unicode="&#x495;" horiz-adv-x="1038" 
d="M543 508q209 0 335 -116.5t126 -336.5q0 -217 -137 -342t-345 -125q-70 0 -160 17l5 45q84 -17 155 -17q195 0 314.5 115t119.5 307q0 196 -108.5 302t-304.5 106q-107 0 -179 -14.5t-153 -42.5v-406h-45v991h682v-45h-637v-493q52 17 89 27t103 19t140 9z" />
    <glyph glyph-name="uni0496" unicode="&#x496;" horiz-adv-x="1925" 
d="M1829 47v-348h-41l-4 301h-33l-526 727l-264 -338v-389h-48v391l-264 336l-516 -727h-59l544 764l-548 690h61l780 -987h2v987h48v-991h2l768 991h61l-537 -690l521 -717h53z" />
    <glyph glyph-name="uni0497" unicode="&#x497;" horiz-adv-x="1576" 
d="M1513 45v-338h-38l-5 293h-36l-396 537l-243 -263v-274h-45v274l-250 258l-383 -532h-54l404 567l-401 424h63l619 -649h2v649h45v-649h2l602 649h63l-391 -420l389 -526h53z" />
    <glyph glyph-name="uni0498" unicode="&#x498;" horiz-adv-x="1214" 
d="M1100 399q0 -83 -31 -155.5t-90 -128t-152 -88t-209 -33.5l-20 -84q180 -17 180 -143q0 -65 -46 -101t-114 -39q-83 -3 -149 21v51q53 -27 129 -27q136 0 133 103q-1 49 -54 73.5t-136 24.5l32 121q-300 15 -473 213l33 39q73 -94 201.5 -149.5t281.5 -55.5
q192 0 313.5 95t121.5 257q0 160 -117 251t-330 91h-270v47h272q67 0 131.5 19t120 56.5t89.5 102t34 146.5q0 145 -102.5 227t-280.5 82q-236 0 -405 -131l-33 35q74 64 194.5 103.5t245.5 39.5q193 0 311.5 -98.5t118.5 -257.5q0 -120 -68.5 -213.5t-201.5 -130.5v-2
q68 -10 127 -35.5t108 -68.5t77 -109t28 -148z" />
    <glyph glyph-name="uni0499" unicode="&#x499;" horiz-adv-x="999" 
d="M897 276q0 -122 -96 -199t-281 -83l-20 -84q180 -17 180 -143q0 -65 -46 -101t-114 -39q-83 -3 -149 21v51q53 -27 129 -27q136 0 133 103q-1 49 -54.5 73.5t-136.5 24.5l33 121q-218 4 -389 112l14 48q171 -115 392 -115q170 0 264 64t94 171q0 101 -78.5 159.5
t-224.5 58.5h-240v45h240q117 0 185.5 54.5t68.5 151.5q0 99 -82 155t-223 56q-197 0 -346 -90l-21 41q155 94 369 94q159 0 254.5 -69t95.5 -185q0 -85 -45.5 -144t-122.5 -83v-2q91 -15 154 -76t63 -164z" />
    <glyph glyph-name="uni049A" unicode="&#x49a;" horiz-adv-x="1298" 
d="M1180 47v-348h-41l-4 301h-33l-576 731l-297 -344v-387h-47v1454h47v-989h4l857 989h63l-596 -688l569 -719h54z" />
    <glyph glyph-name="uni049B" unicode="&#x49b;" horiz-adv-x="1067" 
d="M1001 45v-338h-38l-5 293h-38l-420 528l-289 -288v-240h-45v991h45v-680l4 -2l680 682h66l-426 -428l411 -518h55z" />
    <glyph glyph-name="uni049C" unicode="&#x49c;" horiz-adv-x="1312" 
d="M1161 0l-555 686h-78v-444h-47v444h-252v-686h-47v1454h47v-721h252v447h47v-447h82l543 721h59l-563 -745l574 -709h-62z" />
    <glyph glyph-name="uni049D" unicode="&#x49d;" horiz-adv-x="1064" 
d="M940 0l-356 475h-97v-295h-45v295h-231v-475h-45v991h45v-471h231v287h45v-287h99l325 471h58l-344 -491l374 -500h-59z" />
    <glyph glyph-name="uni049E" unicode="&#x49e;" horiz-adv-x="1273" 
d="M578 766l606 -766h-62l-575 731l-297 -344v-387h-47v1186h-201v45h201v223h47v-223h360v-45h-360v-721h4l856 989h64z" />
    <glyph glyph-name="uni049F" unicode="&#x49f;" horiz-adv-x="1046" 
d="M535 563l446 -563h-61l-420 528l-289 -288v-240h-45v1231h-158v45h158v231h45v-231h444v-45h-444v-920l4 -2l680 682h66z" />
    <glyph glyph-name="uni04A0" unicode="&#x4a0;" horiz-adv-x="1505" 
d="M809 766l606 -766h-61l-576 731l-297 -344v-387h-47v1407h-424v47h471v-989h4l856 989h64z" />
    <glyph glyph-name="uni04A1" unicode="&#x4a1;" horiz-adv-x="1239" 
d="M727 563l447 -563h-62l-420 528l-289 -288v-240h-45v946h-335v45h380v-680l5 -2l679 682h66z" />
    <glyph glyph-name="uni04A2" unicode="&#x4a2;" horiz-adv-x="1525" 
d="M1436 47v-348h-41l-4 301h-203v662h-959v-662h-47v1454h47v-745h959v745h47v-1407h201z" />
    <glyph glyph-name="uni04A3" unicode="&#x4a3;" horiz-adv-x="1208" 
d="M1147 45v-338h-39l-4 293h-160v459h-733v-459h-45v991h45v-487h733v487h45v-946h158z" />
    <glyph glyph-name="uni04A4" unicode="&#x4a4;" horiz-adv-x="1699" 
d="M1661 1454v-47h-436v-1407h-47v662h-949v-662h-47v1454h47v-745h949v745h483z" />
    <glyph glyph-name="uni04A5" unicode="&#x4a5;" horiz-adv-x="1361" 
d="M1315 991v-45h-340v-946h-45v459h-719v-459h-45v991h45v-487h719v487h385z" />
    <glyph glyph-name="uni04A6" unicode="&#x4a6;" horiz-adv-x="2240" 
d="M1577 784q122 0 220.5 -34t173.5 -103.5t116 -183t41 -264.5q0 -153 -44.5 -272.5t-122 -192t-176.5 -109.5t-214 -37q-94 0 -193 21l4 47q108 -21 189 -21q110 0 201.5 35.5t160.5 104t107.5 177t38.5 247.5q0 141 -38 246t-107 168t-158 93.5t-199 30.5
q-198 0 -395 -73v-664h-47v1407h-906v-1407h-47v1454h1000v-739q205 69 395 69z" />
    <glyph glyph-name="uni04A7" unicode="&#x4a7;" horiz-adv-x="1794" 
d="M1298 508q209 0 335 -116.5t126 -336.5q0 -145 -65 -252.5t-172.5 -161t-243.5 -53.5q-70 0 -160 17l4 45q84 -17 156 -17q195 0 314.5 115t119.5 307q0 195 -109 301.5t-305 106.5q-107 0 -178.5 -14.5t-152.5 -42.5v-406h-45v946h-711v-946h-45v991h801v-538
q53 17 89 27t102 19t140 9z" />
    <glyph glyph-name="uni04A8" unicode="&#x4a8;" horiz-adv-x="1755" 
d="M1749 45q-80 -53 -215 -53q-170 0 -322 76q-155 -76 -364 -76q-139 0 -259 37t-208.5 104t-151.5 158.5t-95 202.5t-32 235q0 212 91 379t258.5 260.5t384.5 93.5q138 0 254 -43l-25 -43q-104 39 -229 39q-195 0 -349.5 -82t-244.5 -239.5t-90 -364.5q0 -201 84 -357
t243 -244.5t369 -88.5q179 0 309 57v2q-148 95 -230.5 262t-84.5 373q-1 235 112.5 385t280.5 150q162 0 267.5 -149.5t105.5 -383.5q0 -214 -93.5 -378.5t-248.5 -258.5v-4q126 -55 268 -55q120 0 203 53zM891 733q2 -202 86.5 -364t234.5 -246h2q157 86 251 246t94 366
q0 211 -91 348.5t-233 137.5q-151 0 -248.5 -138.5t-95.5 -349.5z" />
    <glyph glyph-name="uni04A9" unicode="&#x4a9;" horiz-adv-x="1206" 
d="M1182 8q-46 -16 -125 -16q-102 0 -207 59q-118 -59 -256 -59q-152 0 -272 68t-185.5 183.5t-66.5 256.5q-2 212 128 355.5t328 143.5q51 0 82 -6l-14 -43q-32 4 -68 4q-119 0 -213 -60.5t-145.5 -164t-50.5 -229.5q1 -132 62.5 -238t170.5 -165.5t244 -59.5q112 0 205 41
v4q-110 74 -176 193.5t-66 256.5q0 157 82 268t207 111q120 0 199 -111t79 -274q0 -131 -62 -251.5t-165 -194.5l2 -4q76 -39 158 -39q77 0 108 14zM604 532q0 -132 67 -247t177 -183q102 67 165.5 179.5t63.5 244.5q0 145 -67 242.5t-164 97.5q-102 0 -172 -96t-70 -238z
" />
    <glyph glyph-name="uni04AA" unicode="&#x4aa;" horiz-adv-x="1462" 
d="M836 41q312 0 516 256l39 -31q-219 -272 -555 -272h-23l-20 -84q180 -17 180 -143q0 -65 -46 -101t-114 -39q-83 -3 -149 21v51q52 -27 129 -27q136 0 133 103q-1 49 -54.5 73.5t-136.5 24.5l33 123q-136 11 -251.5 64t-203 142.5t-137 223t-49.5 295.5q0 124 29 235
t88 203.5t143 160t199 105t250 37.5q157 0 299.5 -67t255.5 -207l-39 -33q-205 260 -516 260q-157 0 -283.5 -53.5t-208 -147.5t-125 -220t-43.5 -273q0 -162 51.5 -292t141 -214t209 -129t258.5 -45z" />
    <glyph glyph-name="uni04AB" unicode="&#x4ab;" horiz-adv-x="1021" 
d="M944 147q-65 -68 -163 -110t-208 -43l-20 -84q180 -17 180 -143q0 -65 -46 -101t-114 -39q-83 -3 -149 21v51q52 -27 129 -27q136 0 133 103q-1 49 -54 73.5t-136 24.5l32 123q-195 13 -313.5 151t-118.5 349q0 221 132 362t343 141q105 0 202.5 -40.5t166.5 -116.5
l-35 -35q-56 67 -143.5 107t-190.5 40q-191 0 -309.5 -128.5t-118.5 -329.5q0 -203 118 -330t308 -127q99 0 192 38t152 105z" />
    <glyph glyph-name="uni04AC" unicode="&#x4ac;" horiz-adv-x="1110" 
d="M1059 1407h-484v-1360h201v-348h-41l-4 301h-203v1407h-477v47h1008v-47z" />
    <glyph glyph-name="uni04AD" unicode="&#x4ad;" horiz-adv-x="876" 
d="M838 946h-377v-901h157v-338h-38l-5 293h-159v946h-377v45h799v-45z" />
    <glyph glyph-name="uni04AE" unicode="&#x4ae;" horiz-adv-x="1138" 
d="M545 0v662l-508 792h57l471 -739h4l475 739h58l-510 -792v-662h-47z" />
    <glyph glyph-name="uni04AF" unicode="&#x4af;" horiz-adv-x="1011" 
d="M899 991h51l-420 -1011v-386h-45v386l-426 1011h54l393 -942h4z" />
    <glyph glyph-name="uni04B0" unicode="&#x4b0;" horiz-adv-x="1138" 
d="M1102 1454l-490 -760h312v-47h-332v-647h-47v647h-342v47h321l-487 760h57l471 -739h4l475 739h58z" />
    <glyph glyph-name="uni04B1" unicode="&#x4b1;" horiz-adv-x="1011" 
d="M950 991l-393 -946h264v-45h-282l-9 -20v-386h-45v386l-8 20h-287v45h269l-400 946h54l393 -942h4l389 942h51z" />
    <glyph glyph-name="uni04B2" unicode="&#x4b2;" horiz-adv-x="1282" 
d="M1190 47v-348h-41l-4 301h-35l-487 678h-5l-491 -678h-57l520 725l-522 729h55l495 -686h3l491 686h59l-522 -729l486 -678h55z" />
    <glyph glyph-name="uni04B3" unicode="&#x4b3;" horiz-adv-x="974" 
d="M911 45v-338h-39l-4 293h-37l-352 455h-2l-350 -455h-59l381 496l-386 495h62l350 -456h4l352 456h62l-383 -493l348 -453h53z" />
    <glyph glyph-name="uni04B4" unicode="&#x4b4;" horiz-adv-x="1781" 
d="M1692 47v-348h-41l-4 301h-1139v1407h-477v47h1007v-47h-483v-1360h889v1407h47v-1407h201z" />
    <glyph glyph-name="uni04B5" unicode="&#x4b5;" horiz-adv-x="1398" 
d="M1337 45v-338h-39l-4 293h-897v946h-377v45h799v-45h-377v-901h693v946h45v-946h157z" />
    <glyph glyph-name="uni04B6" unicode="&#x4b6;" horiz-adv-x="1372" 
d="M1282 47v-348h-41l-4 301h-203v643q-110 -62 -243.5 -89.5t-229.5 -27.5q-227 0 -324.5 112.5t-97.5 352.5v463h47v-459q0 -229 86 -325.5t289 -96.5q97 0 231.5 30t241.5 95v756h47v-1407h201z" />
    <glyph glyph-name="uni04B7" unicode="&#x4b7;" horiz-adv-x="1107" 
d="M1047 45v-338h-39l-4 293h-160v418q-189 -76 -369 -76q-201 0 -286 91t-85 310v248h46v-241q0 -142 34 -221t102.5 -110.5t188.5 -31.5q188 0 369 78v526h45v-946h158z" />
    <glyph glyph-name="uni04B8" unicode="&#x4b8;" horiz-adv-x="1263" 
d="M1034 1454h47v-1454h-47v643q-154 -86 -377 -111v-315h-47v311q-18 -2 -49 -2q-227 0 -324.5 112.5t-97.5 352.5v463h47v-459q0 -229 86 -325.5t289 -96.5q31 0 49 2v369h47v-364q228 25 377 118v756z" />
    <glyph glyph-name="uni04B9" unicode="&#x4b9;" horiz-adv-x="1054" 
d="M844 991h45v-991h-45v418q-151 -62 -293 -72v-223h-45v219h-31q-201 0 -286 91t-85 310v248h46v-241q0 -142 34 -221t102.5 -110.5t188.5 -31.5h31v330h45v-326q145 10 293 74v526z" />
    <glyph glyph-name="uni04BA" unicode="&#x4ba;" horiz-adv-x="1269" 
d="M709 932q227 0 324 -112.5t97 -352.5v-467h-47v463q0 229 -85.5 325.5t-288.5 96.5q-96 0 -234 -31.5t-246 -93.5v-760h-47v1454h47v-641q111 60 248 89.5t232 29.5z" />
    <glyph glyph-name="uni04BB" unicode="&#x4bb;" horiz-adv-x="1122" 
d="M166 0v1507h45v-780h2q52 127 162.5 199.5t261.5 72.5q158 0 250 -105.5t92 -295.5v-598h-45v575q0 195 -82.5 287t-214.5 92q-194 0 -310 -127.5t-116 -337.5v-489h-45z" />
    <glyph glyph-name="uni04BC" unicode="&#x4bc;" horiz-adv-x="1771" 
d="M1665 764h-1294q-2 -16 -2 -47q2 -199 77.5 -350.5t223 -238.5t348.5 -87q169 0 322.5 62.5t232.5 183.5l39 -29q-85 -128 -248.5 -196t-345.5 -68q-164 0 -297 55t-221 152t-135.5 229t-47.5 287q0 31 2 45h-32q-287 0 -287 215q0 61 27 131l47 -10q-27 -68 -27 -121
q0 -85 55.5 -126.5t184.5 -41.5h35q20 186 111 333.5t246.5 233.5t350.5 86q95 0 186 -26t172.5 -80.5t143 -132t97.5 -189t36 -243.5v-27zM1030 1415q-137 0 -254.5 -45.5t-200.5 -126.5t-135.5 -191.5t-66.5 -240.5h1245q-3 179 -84 318t-213 212.5t-291 73.5z" />
    <glyph glyph-name="uni04BD" unicode="&#x4bd;" horiz-adv-x="1277" 
d="M1190 498h-858v-2q0 -199 119.5 -328t304.5 -129q226 0 356 166l35 -27q-138 -184 -387 -184q-208 0 -341.5 142t-133.5 360v2h-13q-278 0 -278 209q0 62 26 127l46 -11q-27 -65 -27 -116q0 -83 53.5 -123.5t179.5 -40.5h15q15 198 147.5 327t321.5 129q192 0 313 -134.5
t121 -338.5v-28zM756 954q-169 0 -288 -116t-134 -295h809q-11 186 -116 298.5t-271 112.5z" />
    <glyph glyph-name="uni04BE" unicode="&#x4be;" horiz-adv-x="1771" 
d="M1665 764h-1294q-2 -16 -2 -47q2 -199 77.5 -350.5t223 -238.5t348.5 -87q169 0 322.5 62.5t232.5 183.5l39 -29q-84 -126 -244.5 -194t-339.5 -70l-2 -295h-41l-2 295q-207 8 -359.5 105t-229.5 256.5t-77 361.5q0 31 2 45h-32q-287 0 -287 215q0 61 27 131l47 -10
q-27 -68 -27 -121q0 -85 55.5 -126.5t184.5 -41.5h35q20 186 111 333.5t246.5 233.5t350.5 86q95 0 186 -26t172.5 -80.5t143 -132t97.5 -189t36 -243.5v-27zM1030 1415q-137 0 -254.5 -45.5t-200.5 -126.5t-135.5 -191.5t-66.5 -240.5h1245q-3 179 -84 318t-213 212.5
t-291 73.5z" />
    <glyph glyph-name="uni04BF" unicode="&#x4bf;" horiz-adv-x="1277" 
d="M1190 498h-858v-2q0 -199 119.5 -328t304.5 -129q226 0 356 166l35 -27q-129 -175 -365 -184l-2 -287h-39l-2 287q-200 7 -327 148t-127 354v2h-13q-278 0 -278 209q0 62 26 127l46 -11q-27 -65 -27 -116q0 -83 53.5 -123.5t179.5 -40.5h15q15 198 147.5 327t321.5 129
q192 0 313 -134.5t121 -338.5v-28zM756 954q-169 0 -288 -116t-134 -295h809q-11 186 -116 298.5t-271 112.5z" />
    <glyph glyph-name="uni04C0" unicode="&#x4c0;" horiz-adv-x="440" 
d="M197 0v1454h47v-1454h-47z" />
    <glyph glyph-name="uni04C1" unicode="&#x4c1;" horiz-adv-x="1880" 
d="M938 1618q-115 0 -193 63.5t-88 171.5l45 9q10 -84 70.5 -142.5t165.5 -58.5q106 0 165.5 58.5t67.5 142.5l48 -9q-12 -108 -89 -171.5t-192 -63.5zM74 0l544 764l-548 690h61l780 -987h2v987h48v-991h2l768 991h61l-537 -690l555 -764h-59l-526 727l-264 -338v-389h-48
v391l-264 336l-516 -727h-59z" />
    <glyph glyph-name="uni04C2" unicode="&#x4c2;" horiz-adv-x="1556" 
d="M772 1149q-117 0 -193.5 67t-86.5 189l45 8q10 -98 69 -159.5t166 -61.5t166.5 61.5t67.5 159.5l47 -8q-12 -122 -88 -189t-193 -67zM63 0l404 567l-401 424h63l619 -649h2v649h45v-649h2l602 649h63l-391 -420l422 -571h-59l-396 537l-243 -263v-274h-45v274l-250 258
l-383 -532h-54z" />
    <glyph glyph-name="uni04C3" unicode="&#x4c3;" horiz-adv-x="1312" 
d="M625 776q114 0 211.5 -34.5t174.5 -102.5t121 -181t44 -259q0 -153 -44.5 -272.5t-122 -192t-177 -109.5t-214.5 -37q-93 0 -192 21l4 47q108 -21 188 -21q110 0 201.5 35.5t160.5 104t107.5 177t38.5 247.5q0 137 -41 241.5t-112 166t-158.5 92t-189.5 30.5
q-53 0 -105 -6l-291 -336v-387h-47v1454h47v-989h4l857 989h63l-588 -680q18 2 60 2z" />
    <glyph glyph-name="uni04C4" unicode="&#x4c4;" horiz-adv-x="1064" 
d="M543 508q94 0 175.5 -28.5t144.5 -83.5t99.5 -143t36.5 -198q0 -145 -64.5 -252.5t-171.5 -161t-241 -53.5q-70 0 -160 17l5 45q84 -17 155 -17q192 0 311 115t119 307t-113 300t-296 108q-47 0 -113 -4l-219 -219v-240h-45v991h45v-680l4 -2l680 682h66l-484 -485
q20 2 66 2z" />
    <glyph glyph-name="uni04C5" unicode="&#x4c5;" horiz-adv-x="1445" 
d="M1245 47h78v-8l-121 -340h-41l99 301h-62v1407h-696q-43 -610 -68 -805q-28 -222 -77.5 -358.5t-113.5 -192t-151 -55.5q-37 0 -61 8l4 45q21 -6 57 -6q71 0 124 47t97 170.5t72 329.5q39 278 70 864h790v-1407z" />
    <glyph glyph-name="uni04C6" unicode="&#x4c6;" horiz-adv-x="1112" 
d="M942 45h72v-8l-111 -330h-39l97 293h-64v946h-508q-14 -339 -39 -553q-11 -96 -31.5 -168t-45.5 -114.5t-58 -68.5t-64 -35t-69 -9q-31 0 -43 6l4 45q18 -6 43 -6q81 0 140 84t79 272q21 216 39 592h598v-946z" />
    <glyph glyph-name="uni04C7" unicode="&#x4c7;" horiz-adv-x="1417" 
d="M1188 1454h47v-1505q0 -188 -72 -274.5t-239 -86.5q-85 0 -148 29l4 47q60 -31 146 -31q60 0 103.5 12.5t81.5 45t57.5 97.5t19.5 161v713h-959v-662h-47v1454h47v-745h959v745z" />
    <glyph glyph-name="uni04C8" unicode="&#x4c8;" horiz-adv-x="1155" 
d="M944 991h45v-1079q0 -169 -60.5 -246.5t-217.5 -77.5q-67 0 -133 29l6 45q59 -29 127 -29q61 0 102 11.5t72 42t45 85.5t14 140v547h-733v-459h-45v991h45v-487h733v487z" />
    <glyph glyph-name="uni04C9" unicode="&#x4c9;" horiz-adv-x="1435" 
d="M1235 47h78v-8l-121 -340h-41l98 301h-61v662h-959v-662h-47v1454h47v-745h959v745h47v-1407z" />
    <glyph glyph-name="uni04CA" unicode="&#x4ca;" horiz-adv-x="1159" 
d="M989 45h72v-8l-111 -330h-39l97 293h-64v459h-733v-459h-45v991h45v-487h733v487h45v-946z" />
    <glyph glyph-name="uni04CB" unicode="&#x4cb;" horiz-adv-x="1263" 
d="M1034 1454h47v-1454h-202l-5 -301h-40v348h200v596q-110 -62 -243.5 -89.5t-229.5 -27.5q-227 0 -324.5 112.5t-97.5 352.5v463h47v-459q0 -229 86 -325.5t289 -96.5q97 0 231.5 30t241.5 95v756z" />
    <glyph glyph-name="uni04CC" unicode="&#x4cc;" horiz-adv-x="1054" 
d="M844 991h45v-991h-160l-4 -293h-39v338h158v373q-189 -76 -369 -76q-201 0 -286 91t-85 310v248h46v-241q0 -142 34 -221t102.5 -110.5t188.5 -31.5q188 0 369 78v526z" />
    <glyph glyph-name="uni04CD" unicode="&#x4cd;" horiz-adv-x="1765" 
d="M1563 47h77v-8l-120 -340h-41l98 301h-61v1362h-3l-618 -1045h-43l-621 1045h-2v-1362h-47v1454h49l641 -1075h5l639 1075h47v-1407z" />
    <glyph glyph-name="uni04CE" unicode="&#x4ce;" horiz-adv-x="1343" 
d="M1174 45h71v-8l-110 -330h-39l96 293h-64v899h-2l-436 -711h-43l-434 711h-2v-899h-45v991h45l457 -749h4l458 749h44v-946z" />
    <glyph glyph-name="uni04CF" unicode="&#x4cf;" horiz-adv-x="397" 
d="M176 0v1507h45v-1507h-45z" />
    <glyph glyph-name="uni04D0" unicode="&#x4d0;" horiz-adv-x="1310" 
d="M655 1618q-115 0 -192.5 63.5t-87.5 171.5l45 9q10 -84 70 -142.5t165 -58.5q106 0 166 58.5t68 142.5l47 -9q-12 -108 -89 -171.5t-192 -63.5zM59 0l564 1454h59l569 -1454h-51l-170 432h-751l-168 -432h-52zM297 479h715l-357 918h-4z" />
    <glyph glyph-name="uni04D1" unicode="&#x4d1;" horiz-adv-x="1210" 
d="M588 1149q-117 0 -194 67t-87 189l45 8q10 -98 69.5 -159.5t166.5 -61.5t166 61.5t67 159.5l47 -8q-12 -122 -87.5 -189t-192.5 -67zM584 -6q-135 0 -247 60.5t-178.5 173.5t-66.5 257q0 141 61 258t175 186.5t258 69.5q141 0 256 -77.5t170 -210.5h2v280h45v-991h-45
v272h-2q-56 -127 -168 -202.5t-260 -75.5zM584 39q182 0 306 124.5t124 321.5q0 198 -120 333.5t-308 135.5t-317.5 -131t-129.5 -338q0 -189 124 -317.5t321 -128.5z" />
    <glyph glyph-name="uni04D2" unicode="&#x4d2;" horiz-adv-x="1310" 
d="M502 1733q-25 0 -41.5 16t-16.5 39q0 26 16.5 40.5t41.5 14.5t40 -14.5t15 -40.5q0 -24 -15.5 -39.5t-39.5 -15.5zM803 1733q-25 0 -41.5 16t-16.5 39q0 26 16.5 40.5t41.5 14.5t40 -14.5t15 -40.5q0 -24 -15.5 -39.5t-39.5 -15.5zM59 0l564 1454h59l569 -1454h-51
l-170 432h-751l-168 -432h-52zM297 479h715l-357 918h-4z" />
    <glyph glyph-name="uni04D3" unicode="&#x4d3;" horiz-adv-x="1210" 
d="M434 1241q-25 0 -41 16t-16 39q0 26 16 41t41 15t40 -15t15 -41q0 -24 -15.5 -39.5t-39.5 -15.5zM735 1241q-25 0 -41 16t-16 39q0 26 16 41t41 15t40.5 -15t15.5 -41q0 -24 -15.5 -39.5t-40.5 -15.5zM584 -6q-135 0 -247 60.5t-178.5 173.5t-66.5 257q0 141 61 258
t175 186.5t258 69.5q141 0 256 -77.5t170 -210.5h2v280h45v-991h-45v272h-2q-56 -127 -168 -202.5t-260 -75.5zM584 39q182 0 306 124.5t124 321.5q0 198 -120 333.5t-308 135.5t-317.5 -131t-129.5 -338q0 -189 124 -317.5t321 -128.5z" />
    <glyph glyph-name="uni04D4" unicode="&#x4d4;" horiz-adv-x="1843" 
d="M10 0l844 1454h877v-47h-797v-657h676v-48h-676v-655h838v-47h-885v432h-568l-251 -432h-58zM346 479h541v928h-2z" />
    <glyph glyph-name="uni04D5" unicode="&#x4d5;" horiz-adv-x="1589" 
d="M1511 522v-24h-743q6 -215 106 -337t265 -122q109 0 174.5 40t126.5 126l35 -27q-64 -93 -140.5 -138.5t-191.5 -45.5q-81 0 -147 24t-112 66t-76 92.5t-48 110.5h-2q-30 -136 -138 -214.5t-253 -78.5t-224.5 81t-79.5 199q0 117 89 192t264 75l309 2v49q0 199 -53 279.5
t-187 80.5q-164 0 -313 -86l-22 39q159 94 335 94q136 0 200.5 -68.5t78.5 -209.5h2q42 128 136 203t226 75q164 0 273.5 -136t109.5 -341zM770 543h694q-11 186 -101 298.5t-235 112.5q-156 0 -250 -113.5t-108 -297.5zM367 39q151 0 254.5 94t103.5 264v101l-309 -2
q-133 0 -219 -57t-86 -165q0 -98 66.5 -166.5t189.5 -68.5z" />
    <glyph glyph-name="uni04D6" unicode="&#x4d6;" horiz-adv-x="1157" 
d="M586 1618q-115 0 -193 63.5t-88 171.5l45 9q10 -84 70.5 -142.5t165.5 -58.5q106 0 165.5 58.5t67.5 142.5l47 -9q-12 -108 -88.5 -171.5t-191.5 -63.5zM182 0v1454h844v-47h-797v-655h670v-47h-670v-658h840v-47h-887z" />
    <glyph glyph-name="uni04D7" unicode="&#x4d7;" horiz-adv-x="1089" 
d="M569 1149q-117 0 -193.5 67t-86.5 189l45 8q10 -98 69 -159.5t166 -61.5t166.5 61.5t67.5 159.5l47 -8q-12 -122 -88 -189t-193 -67zM1001 498h-858v-2q0 -199 119.5 -328t304.5 -129q227 0 357 166l34 -27q-138 -184 -387 -184q-208 0 -341.5 142t-133.5 360
q0 216 135.5 359.5t335.5 143.5q192 0 313 -134.5t121 -338.5v-28zM567 954q-169 0 -288 -116t-134 -295h809q-11 186 -116 298.5t-271 112.5z" />
    <glyph glyph-name="uni04D8" unicode="&#x4d8;" horiz-adv-x="1605" 
d="M770 1462q161 0 295.5 -57.5t224.5 -157t139.5 -233.5t49.5 -287q0 -156 -50.5 -291.5t-139 -232.5t-215.5 -153t-273 -56q-133 0 -252 42t-213 123t-149.5 212t-55.5 295v26h1296v35q-1 147 -47 273t-129.5 218t-207.5 144.5t-273 52.5q-146 0 -266 -45.5t-236 -140.5
l-37 35q239 198 539 198zM801 41q256 0 427.5 169t194.5 435h-1245q3 -180 85 -318.5t222.5 -212t315.5 -73.5z" />
    <glyph glyph-name="uni04D9" unicode="&#x4d9;" horiz-adv-x="1099" 
d="M522 999q211 0 346.5 -142t135.5 -359q0 -224 -122.5 -364t-340.5 -140q-201 0 -325 131.5t-126 333.5q0 21 4 37h862v2q0 199 -122.5 327.5t-311.5 128.5q-174 0 -327 -90l-23 37q162 98 350 98zM541 39q184 0 292.5 112t120.5 300h-817q4 -186 115.5 -299t288.5 -113z
" />
    <glyph glyph-name="uni04DA" unicode="&#x4da;" horiz-adv-x="1605" 
d="M659 1733q-25 0 -41 16t-16 39q0 26 16 40.5t41 14.5t40.5 -14.5t15.5 -40.5q0 -24 -15.5 -39.5t-40.5 -15.5zM961 1733q-25 0 -41.5 16t-16.5 39q0 26 16.5 40.5t41.5 14.5t40 -14.5t15 -40.5q0 -24 -15.5 -39.5t-39.5 -15.5zM770 1462q161 0 295.5 -57.5t224.5 -157
t139.5 -233.5t49.5 -287q0 -156 -50.5 -291.5t-139 -232.5t-215.5 -153t-273 -56q-133 0 -252 42t-213 123t-149.5 212t-55.5 295v26h1296v35q-1 147 -47 273t-129.5 218t-207.5 144.5t-273 52.5q-146 0 -266 -45.5t-236 -140.5l-37 35q239 198 539 198zM801 41
q256 0 427.5 169t194.5 435h-1245q3 -180 85 -318.5t222.5 -212t315.5 -73.5z" />
    <glyph glyph-name="uni04DB" unicode="&#x4db;" horiz-adv-x="1099" 
d="M416 1241q-25 0 -41.5 16t-16.5 39q0 26 16.5 41t41.5 15t40 -15t15 -41q0 -24 -15.5 -39.5t-39.5 -15.5zM717 1241q-25 0 -41.5 16t-16.5 39q0 26 16.5 41t41.5 15t40 -15t15 -41q0 -24 -15.5 -39.5t-39.5 -15.5zM522 999q211 0 346.5 -142t135.5 -359
q0 -224 -122.5 -364t-340.5 -140q-201 0 -325 131.5t-126 333.5q0 21 4 37h862v2q0 199 -122.5 327.5t-311.5 128.5q-174 0 -327 -90l-23 37q162 98 350 98zM541 39q184 0 292.5 112t120.5 300h-817q4 -186 115.5 -299t288.5 -113z" />
    <glyph glyph-name="uni04DC" unicode="&#x4dc;" horiz-adv-x="1880" 
d="M784 1733q-25 0 -41 16t-16 39q0 26 16 40.5t41 14.5t40.5 -14.5t15.5 -40.5q0 -24 -16 -39.5t-40 -15.5zM1085 1733q-25 0 -41 16t-16 39q0 26 16 40.5t41 14.5t40.5 -14.5t15.5 -40.5q0 -24 -15.5 -39.5t-40.5 -15.5zM74 0l544 764l-548 690h61l780 -987h2v987h48v-991
h2l768 991h61l-537 -690l555 -764h-59l-526 727l-264 -338v-389h-48v391l-264 336l-516 -727h-59z" />
    <glyph glyph-name="uni04DD" unicode="&#x4dd;" horiz-adv-x="1556" 
d="M618 1241q-25 0 -41 16t-16 39q0 26 16 41t41 15t40.5 -15t15.5 -41q0 -24 -16 -39.5t-40 -15.5zM920 1241q-25 0 -41.5 16t-16.5 39q0 26 16.5 41t41.5 15t40 -15t15 -41q0 -24 -15.5 -39.5t-39.5 -15.5zM63 0l404 567l-401 424h63l619 -649h2v649h45v-649h2l602 649h63
l-391 -420l422 -571h-59l-396 537l-243 -263v-274h-45v274l-250 258l-383 -532h-54z" />
    <glyph glyph-name="uni04DE" unicode="&#x4de;" horiz-adv-x="1214" 
d="M440 1733q-25 0 -41 16t-16 39q0 26 16 40.5t41 14.5t40.5 -14.5t15.5 -40.5q0 -24 -16 -39.5t-40 -15.5zM741 1733q-25 0 -41 16t-16 39q0 26 16 40.5t41 14.5t40.5 -14.5t15.5 -40.5q0 -24 -15.5 -39.5t-40.5 -15.5zM614 -6q-162 0 -294 56t-220 157l33 39
q73 -94 201.5 -149.5t281.5 -55.5q192 0 313.5 95t121.5 257q0 160 -117 251t-330 91h-270v47h272q67 0 131.5 19t120 56.5t89.5 102t34 146.5q0 145 -102.5 227t-280.5 82q-236 0 -405 -131l-33 35q74 64 194.5 103.5t245.5 39.5q193 0 311.5 -98.5t118.5 -257.5
q0 -120 -68.5 -213.5t-201.5 -130.5v-2q68 -10 127 -35.5t108 -68.5t77 -109t28 -148q0 -173 -127.5 -289t-358.5 -116z" />
    <glyph glyph-name="uni04DF" unicode="&#x4df;" horiz-adv-x="999" 
d="M367 1241q-25 0 -41.5 16t-16.5 39q0 26 16.5 41t41.5 15t40 -15t15 -41q0 -24 -15.5 -39.5t-39.5 -15.5zM668 1241q-25 0 -41.5 16t-16.5 39q0 26 16.5 41t41.5 15t40 -15t15 -41q0 -24 -15.5 -39.5t-39.5 -15.5zM492 -6q-140 0 -234 31t-172 81l14 48
q171 -115 392 -115q170 0 264 64t94 171q0 101 -78.5 159.5t-224.5 58.5h-240v45h240q117 0 185.5 54.5t68.5 151.5q0 99 -82 155t-223 56q-197 0 -346 -90l-21 41q155 94 369 94q159 0 254.5 -69t95.5 -185q0 -85 -45.5 -144t-122.5 -83v-2q91 -15 154 -76t63 -164
q0 -127 -103 -204.5t-302 -77.5z" />
    <glyph glyph-name="uni04E0" unicode="&#x4e0;" horiz-adv-x="1193" 
d="M438 823q347 0 503.5 -104t156.5 -330q0 -170 -125 -282.5t-350 -112.5q-169 0 -302 55.5t-221 157.5l33 39q74 -94 203 -149.5t289 -55.5q122 0 217 39.5t152 119.5t57 189q0 204 -145 295.5t-468 91.5h-69v41l610 588l-2 2h-842v47h909v-47z" />
    <glyph glyph-name="uni04E1" unicode="&#x4e1;" horiz-adv-x="927" 
d="M414 -412q-116 0 -203 26t-182 89l12 47q95 -64 179 -90.5t194 -26.5q194 0 291.5 100.5t97.5 258.5q0 124 -73.5 209t-196 123t-287.5 38h-35v39l532 543v2h-682v45h746v-41l-531 -542v-2q115 -2 213.5 -25t181.5 -70t131 -128.5t48 -190.5q0 -180 -112 -292t-324 -112z
" />
    <glyph glyph-name="uni04E2" unicode="&#x4e2;" horiz-adv-x="1452" 
d="M455 1710v47h546v-47h-546zM182 0v1454h47v-1372h2l994 1372h45v-1454h-47v1370h-2l-992 -1370h-47z" />
    <glyph glyph-name="uni04E3" unicode="&#x4e3;" horiz-adv-x="1177" 
d="M319 1268v47h547v-47h-547zM166 0v991h45v-917h4l754 917h43v-991h-45v915h-4l-752 -915h-45z" />
    <glyph glyph-name="uni04E4" unicode="&#x4e4;" horiz-adv-x="1452" 
d="M573 1733q-25 0 -41 16t-16 39q0 26 16 40.5t41 14.5t40.5 -14.5t15.5 -40.5q0 -24 -15.5 -39.5t-40.5 -15.5zM874 1733q-25 0 -41 16t-16 39q0 26 16 40.5t41 14.5t40.5 -14.5t15.5 -40.5q0 -24 -16 -39.5t-40 -15.5zM182 0v1454h47v-1372h2l994 1372h45v-1454h-47v1370
h-2l-992 -1370h-47z" />
    <glyph glyph-name="uni04E5" unicode="&#x4e5;" horiz-adv-x="1177" 
d="M438 1241q-25 0 -41 16t-16 39q0 26 16 41t41 15t40.5 -15t15.5 -41q0 -24 -16 -39.5t-40 -15.5zM739 1241q-25 0 -41 16t-16 39q0 26 16 41t41 15t40.5 -15t15.5 -41q0 -24 -15.5 -39.5t-40.5 -15.5zM166 0v991h45v-917h4l754 917h43v-991h-45v915h-4l-752 -915h-45z
" />
    <glyph glyph-name="uni04E6" unicode="&#x4e6;" horiz-adv-x="1683" 
d="M690 1733q-25 0 -41 16t-16 39q0 26 16 40.5t41 14.5t40 -14.5t15 -40.5q0 -24 -15.5 -39.5t-39.5 -15.5zM991 1733q-25 0 -41 16t-16 39q0 26 16 40.5t41 14.5t40.5 -14.5t15.5 -40.5q0 -24 -15.5 -39.5t-40.5 -15.5zM846 -6q-198 0 -361.5 90.5t-260.5 259.5t-97 385
q0 215 97 383.5t260.5 259t361.5 90.5q145 0 275 -53.5t226 -147.5t152.5 -232.5t56.5 -299.5q0 -162 -56.5 -300.5t-152.5 -233t-226 -148t-275 -53.5zM846 41q135 0 256 50t210.5 138.5t142 218t52.5 281.5q0 151 -52.5 280.5t-142 217.5t-210.5 138t-256 50
q-138 0 -261 -50t-213.5 -138t-143 -217.5t-52.5 -280.5q0 -152 52.5 -281.5t143 -218t213.5 -138.5t261 -50z" />
    <glyph glyph-name="uni04E7" unicode="&#x4e7;" horiz-adv-x="1185" 
d="M442 1241q-25 0 -41 16t-16 39q0 26 16 41t41 15t40.5 -15t15.5 -41q0 -24 -16 -39.5t-40 -15.5zM743 1241q-25 0 -41 16t-16 39q0 26 16 41t41 15t40.5 -15t15.5 -41q0 -24 -15.5 -39.5t-40.5 -15.5zM594 -6q-145 0 -260 68.5t-176.5 182.5t-61.5 251q0 101 36.5 193
t100.5 160.5t158 109t203 40.5q136 0 248.5 -62.5t180 -178.5t67.5 -262t-67.5 -261.5t-180 -178t-248.5 -62.5zM594 39q190 0 319 128t129 329t-129.5 329.5t-318.5 128.5q-132 0 -236.5 -62.5t-159.5 -166.5t-55 -229q0 -93 32.5 -176.5t90.5 -145.5t143 -98.5t185 -36.5z
" />
    <glyph glyph-name="uni04E8" unicode="&#x4e8;" horiz-adv-x="1683" 
d="M844 1462q146 0 276 -53.5t226.5 -147.5t153 -232.5t56.5 -299.5q0 -216 -96.5 -385t-258.5 -259.5t-357 -90.5q-158 0 -293 57.5t-227.5 156.5t-144.5 234t-52 287q0 150 52 284.5t144.5 233.5t227.5 157t293 58zM844 1415q-191 0 -343 -89t-236 -239.5t-89 -334.5h1331
q-4 146 -58 271t-143 210.5t-209 133.5t-253 48zM844 41q179 0 327.5 81.5t239 234t96.5 348.5h-1331q6 -185 90 -336t235.5 -239.5t342.5 -88.5z" />
    <glyph glyph-name="uni04E9" unicode="&#x4e9;" horiz-adv-x="1185" 
d="M594 999q136 0 248.5 -62.5t180 -178.5t67.5 -262t-67.5 -261.5t-180 -178t-248.5 -62.5q-145 0 -260 68.5t-176.5 182.5t-61.5 251q0 101 36.5 193t100.5 160.5t158 109t203 40.5zM594 954q-195 0 -320 -127t-131 -313h899q-6 194 -135 317t-313 123zM594 39
q184 0 311.5 119.5t136.5 310.5h-899q9 -183 134 -306.5t317 -123.5z" />
    <glyph glyph-name="uni04EA" unicode="&#x4ea;" horiz-adv-x="1683" 
d="M694 1733q-25 0 -41 16t-16 39q0 26 16 40.5t41 14.5t40.5 -14.5t15.5 -40.5q0 -24 -16 -39.5t-40 -15.5zM995 1733q-25 0 -41 16t-16 39q0 26 16 40.5t41 14.5t40.5 -14.5t15.5 -40.5q0 -24 -15.5 -39.5t-40.5 -15.5zM844 1462q146 0 276 -53.5t226.5 -147.5t153 -232.5
t56.5 -299.5q0 -216 -96.5 -385t-258.5 -259.5t-357 -90.5q-158 0 -293 57.5t-227.5 156.5t-144.5 234t-52 287q0 150 52 284.5t144.5 233.5t227.5 157t293 58zM844 1415q-191 0 -343 -89t-236 -239.5t-89 -334.5h1331q-4 146 -58 271t-143 210.5t-209 133.5t-253 48z
M844 41q179 0 327.5 81.5t239 234t96.5 348.5h-1331q6 -185 90 -336t235.5 -239.5t342.5 -88.5z" />
    <glyph glyph-name="uni04EB" unicode="&#x4eb;" horiz-adv-x="1185" 
d="M442 1241q-25 0 -41 16t-16 39q0 26 16 41t41 15t40.5 -15t15.5 -41q0 -24 -16 -39.5t-40 -15.5zM743 1241q-25 0 -41 16t-16 39q0 26 16 41t41 15t40.5 -15t15.5 -41q0 -24 -15.5 -39.5t-40.5 -15.5zM594 999q136 0 248.5 -62.5t180 -178.5t67.5 -262t-67.5 -261.5
t-180 -178t-248.5 -62.5q-145 0 -260 68.5t-176.5 182.5t-61.5 251q0 101 36.5 193t100.5 160.5t158 109t203 40.5zM594 954q-195 0 -320 -127t-131 -313h899q-6 194 -135 317t-313 123zM594 39q184 0 311.5 119.5t136.5 310.5h-899q9 -183 134 -306.5t317 -123.5z" />
    <glyph glyph-name="uni04EC" unicode="&#x4ec;" horiz-adv-x="1484" 
d="M545 1733q-25 0 -41.5 16t-16.5 39q0 26 16.5 40.5t41.5 14.5t40 -14.5t15 -40.5q0 -24 -15.5 -39.5t-39.5 -15.5zM846 1733q-25 0 -41.5 16t-16.5 39q0 26 16.5 40.5t41.5 14.5t40 -14.5t15 -40.5q0 -24 -15.5 -39.5t-39.5 -15.5zM651 1462q161 0 295.5 -57.5
t224.5 -157.5t139.5 -235.5t49.5 -290.5q0 -214 -90 -380t-251.5 -256.5t-369.5 -90.5q-335 0 -551 246l37 30q79 -100 211 -164.5t305 -64.5q289 0 471.5 182.5t188.5 481.5h-934v47h934q-7 191 -87.5 340.5t-229.5 236t-343 86.5q-139 0 -257 -47t-234 -149l-37 34
q237 209 528 209z" />
    <glyph glyph-name="uni04ED" unicode="&#x4ed;" horiz-adv-x="1056" 
d="M362 1241q-25 0 -41 16t-16 39q0 26 16 41t41 15t40.5 -15t15.5 -41q0 -24 -16 -39.5t-40 -15.5zM664 1241q-25 0 -41.5 16t-16.5 39q0 26 16.5 41t41.5 15t40 -15t15 -41q0 -24 -15.5 -39.5t-39.5 -15.5zM471 999q211 0 350.5 -140.5t139.5 -362.5q0 -216 -133 -359
t-355 -143q-242 0 -387 123l27 37q139 -115 360 -115q198 0 316 123.5t124 314.5h-649v45h649q-9 192 -133.5 312t-310.5 120q-179 0 -328 -90l-20 41q68 41 160.5 67.5t189.5 26.5z" />
    <glyph glyph-name="uni04EE" unicode="&#x4ee;" horiz-adv-x="1306" 
d="M930 1757v-47h-547v47h547zM1194 1454h51l-500 -1108q-69 -151 -90 -188q-66 -117 -158 -150q-45 -16 -100 -16q-60 0 -122 22.5t-101 65.5l19 45q40 -44 95.5 -65t108.5 -21q51 0 90.5 16.5t73.5 56t61.5 88.5t63.5 130l-625 1124h52l596 -1065h4q0 2 4 10z" />
    <glyph glyph-name="uni04EF" unicode="&#x4ef;" horiz-adv-x="1036" 
d="M250 1268v47h547v-47h-547zM332 -406l176 416l-453 981h56l419 -921h2l390 921h55l-594 -1397h-51z" />
    <glyph glyph-name="uni04F0" unicode="&#x4f0;" horiz-adv-x="1306" 
d="M502 1733q-25 0 -41.5 16t-16.5 39q0 26 16.5 40.5t41.5 14.5t40 -14.5t15 -40.5q0 -24 -15.5 -39.5t-39.5 -15.5zM803 1733q-25 0 -41.5 16t-16.5 39q0 26 16.5 40.5t41.5 14.5t40 -14.5t15 -40.5q0 -24 -15.5 -39.5t-39.5 -15.5zM1194 1454h51l-500 -1108
q-69 -151 -90 -188q-66 -117 -158 -150q-45 -16 -100 -16q-60 0 -122 22.5t-101 65.5l19 45q40 -44 95.5 -65t108.5 -21q51 0 90.5 16.5t73.5 56t61.5 88.5t63.5 130l-625 1124h52l596 -1065h4q0 2 4 10z" />
    <glyph glyph-name="uni04F1" unicode="&#x4f1;" horiz-adv-x="1036" 
d="M369 1241q-25 0 -41.5 16t-16.5 39q0 26 16.5 41t41.5 15t40 -15t15 -41q0 -24 -15.5 -39.5t-39.5 -15.5zM670 1241q-25 0 -41.5 16t-16.5 39q0 26 16.5 41t41.5 15t40 -15t15 -41q0 -24 -15.5 -39.5t-39.5 -15.5zM332 -406l176 416l-453 981h56l419 -921h2l390 921h55
l-594 -1397h-51z" />
    <glyph glyph-name="uni04F2" unicode="&#x4f2;" horiz-adv-x="1306" 
d="M813 1917l-254 -277h-59l250 277h63zM811 1640h-57l250 277h63zM1194 1454h51l-500 -1108q-69 -151 -90 -188q-66 -117 -158 -150q-45 -16 -100 -16q-60 0 -122 22.5t-101 65.5l19 45q40 -44 95.5 -65t108.5 -21q51 0 90.5 16.5t73.5 56t61.5 88.5t63.5 130l-625 1124h52
l596 -1065h4q0 2 4 10z" />
    <glyph glyph-name="uni04F3" unicode="&#x4f3;" horiz-adv-x="1036" 
d="M326 1149l249 276h64l-254 -276h-59zM580 1149l249 276h64l-256 -276h-57zM332 -406l176 416l-453 981h56l419 -921h2l390 921h55l-594 -1397h-51z" />
    <glyph glyph-name="uni04F4" unicode="&#x4f4;" horiz-adv-x="1263" 
d="M479 1733q-25 0 -41 16t-16 39q0 26 16 40.5t41 14.5t40.5 -14.5t15.5 -40.5q0 -24 -15.5 -39.5t-40.5 -15.5zM780 1733q-25 0 -41 16t-16 39q0 26 16 40.5t41 14.5t40.5 -14.5t15.5 -40.5q0 -24 -16 -39.5t-40 -15.5zM1034 1454h47v-1454h-47v643q-110 -62 -243.5 -89.5
t-229.5 -27.5q-227 0 -324.5 112.5t-97.5 352.5v463h47v-459q0 -229 86 -325.5t289 -96.5q97 0 231.5 30t241.5 95v756z" />
    <glyph glyph-name="uni04F5" unicode="&#x4f5;" horiz-adv-x="1054" 
d="M348 1241q-25 0 -41 16t-16 39q0 26 16 41t41 15t40 -15t15 -41q0 -24 -15.5 -39.5t-39.5 -15.5zM649 1241q-25 0 -41 16t-16 39q0 26 16 41t41 15t40.5 -15t15.5 -41q0 -24 -15.5 -39.5t-40.5 -15.5zM844 991h45v-991h-45v418q-189 -76 -369 -76q-201 0 -286 91t-85 310
v248h46v-241q0 -142 34 -221t102.5 -110.5t188.5 -31.5q188 0 369 78v526z" />
    <glyph glyph-name="uni04F6" unicode="&#x4f6;" horiz-adv-x="1064" 
d="M1026 1407h-797v-1360h201v-348h-41l-4 301h-203v1454h844v-47z" />
    <glyph glyph-name="uni04F7" unicode="&#x4f7;" horiz-adv-x="905" 
d="M848 946h-637v-901h158v-338h-39l-4 293h-160v991h682v-45z" />
    <glyph glyph-name="uni04F8" unicode="&#x4f8;" horiz-adv-x="1599" 
d="M647 1733q-25 0 -41 16t-16 39q0 26 16 40.5t41 14.5t40 -14.5t15 -40.5q0 -24 -15.5 -39.5t-39.5 -15.5zM948 1733q-25 0 -41 16t-16 39q0 26 16 40.5t41 14.5t40.5 -14.5t15.5 -40.5q0 -24 -16 -39.5t-40 -15.5zM182 0v1454h47v-629h381q107 0 193 -23t151 -71.5
t100.5 -129t35.5 -189.5q0 -211 -129 -311.5t-351 -100.5h-428zM1370 0v1454h47v-1454h-47zM229 47h381q222 0 326 98t104 267q0 170 -103.5 268t-326.5 98h-381v-731z" />
    <glyph glyph-name="uni04F9" unicode="&#x4f9;" horiz-adv-x="1323" 
d="M502 1241q-25 0 -41.5 16t-16.5 39q0 26 16.5 41t41.5 15t40 -15t15 -41q0 -24 -15.5 -39.5t-39.5 -15.5zM803 1241q-25 0 -41.5 16t-16.5 39q0 26 16.5 41t41.5 15t40 -15t15 -41q0 -24 -15.5 -39.5t-39.5 -15.5zM166 0v991h45v-379h344q165 0 247.5 -78.5t82.5 -228.5
q0 -147 -88.5 -226t-264.5 -79h-366zM1112 0v991h45v-991h-45zM211 45h321q306 0 306 260q0 262 -285 262h-342v-522z" />
    <glyph glyph-name="uni04FA" unicode="&#x4fa;" horiz-adv-x="1120" 
d="M1081 1407h-796v-678h434v-47h-434v-856q0 -238 -209 -238q-68 0 -127 29l4 47q51 -31 127 -31q158 0 158 193v856h-218v47h218v725h843v-47z" />
    <glyph glyph-name="uni04FB" unicode="&#x4fb;" horiz-adv-x="905" 
d="M211 946v-432h469v-45h-469v-643q0 -238 -207 -238q-70 0 -129 29l6 45q52 -29 127 -29q158 0 158 193v643h-158v45h158v477h682v-45h-637z" />
    <glyph glyph-name="uni04FC" unicode="&#x4fc;" horiz-adv-x="1236" 
d="M846 -412q-85 0 -148 29l4 47q60 -31 144 -31q264 0 264 258q0 49 -15 99.5t-48 106.5t-57.5 92t-69.5 96l-297 393h-5l-491 -678h-57l520 725l-522 729h55l495 -686h3l491 686h59l-522 -729l307 -412q48 -64 72 -99t60 -96t52.5 -116.5t16.5 -110.5q0 -140 -74.5 -221.5
t-236.5 -81.5z" />
    <glyph glyph-name="uni04FD" unicode="&#x4fd;" horiz-adv-x="954" 
d="M618 -412q-81 0 -147 29l6 45q59 -29 141 -29q116 1 175 60t59 170q0 59 -28 125t-58 108.5t-78 100.5l-209 258h-2l-350 -455h-59l381 496l-386 495h62l350 -456h4l352 456h62l-383 -493l215 -273q36 -45 59.5 -77.5t53.5 -83t45.5 -101.5t15.5 -102q0 -124 -70 -198.5
t-211 -74.5z" />
    <glyph glyph-name="uni04FE" unicode="&#x4fe;" horiz-adv-x="1236" 
d="M1053 698h-385l501 -698h-59l-487 678h-5l-491 -678h-57l501 698h-383v47h387l-507 709h55l495 -686h3l491 686h59l-507 -709h389v-47z" />
    <glyph glyph-name="uni04FF" unicode="&#x4ff;" horiz-adv-x="954" 
d="M815 469h-283l361 -469h-62l-352 455h-2l-350 -455h-59l360 469h-285v45h291l-371 477h62l350 -456h4l352 456h62l-371 -477h293v-45z" />
    <glyph glyph-name="uni0510" unicode="&#x510;" horiz-adv-x="1208" 
d="M604 -6q-123 0 -217.5 30t-152.5 83.5t-87.5 123t-29.5 152.5t30 152.5t79.5 114t106 71.5t116.5 37v2q-90 25 -152 79.5t-88.5 121.5t-26.5 145q0 162 116.5 259t307.5 97q125 0 243.5 -42.5t190.5 -116.5l-32 -35q-156 147 -398 147q-175 0 -277 -83t-102 -230
q1 -66 23 -120.5t58.5 -90.5t84.5 -61.5t99.5 -36.5t105.5 -11h272v-47h-270q-197 0 -317.5 -96.5t-120.5 -257.5q0 -160 118.5 -250t317.5 -90q159 0 286.5 59.5t196.5 167.5l37 -35q-83 -118 -215.5 -178.5t-302.5 -60.5z" />
    <glyph glyph-name="uni0511" unicode="&#x511;" horiz-adv-x="983" 
d="M500 -6q-199 0 -299.5 75.5t-100.5 202.5q0 94 67.5 161t143.5 83v2q-78 24 -126 82t-48 137q0 122 95 192t255 70q199 0 367 -98l-20 -41q-75 43 -153.5 68.5t-191.5 25.5q-141 0 -223 -57.5t-82 -161.5q0 -91 71.5 -144.5t188.5 -53.5h240v-45h-240
q-130 0 -213.5 -63.5t-83.5 -158.5q0 -107 91.5 -169t261.5 -62q131 0 218 33t161 86l18 -47q-77 -53 -167.5 -85t-229.5 -32z" />
    <glyph glyph-name="uni0512" unicode="&#x512;" horiz-adv-x="1427" 
d="M1245 1454v-1505q0 -188 -72 -274.5t-239 -86.5q-85 0 -148 29l5 47q60 -31 145 -31q60 0 103.5 12.5t81.5 45t57.5 97.5t19.5 161v1458h-696q-43 -610 -68 -805q-28 -222 -77.5 -358.5t-113.5 -192t-151 -55.5q-37 0 -61 8l4 45q21 -6 57 -6q71 0 124 47t97 170.5
t72 329.5q39 278 70 864h790z" />
    <glyph glyph-name="uni0513" unicode="&#x513;" horiz-adv-x="1107" 
d="M942 991v-1079q0 -169 -60.5 -246.5t-217.5 -77.5q-68 0 -134 29l7 45q59 -29 127 -29q61 0 102 11.5t72 42t45 85.5t14 140v1034h-508q-14 -339 -39 -553q-11 -96 -31.5 -168t-45.5 -114.5t-58 -68.5t-64 -35t-69 -9q-31 0 -43 6l4 45q18 -6 43 -6q81 0 140 84t79 272
q21 216 39 592h598z" />
    <glyph glyph-name="uni051A" unicode="&#x51a;" horiz-adv-x="1699" 
d="M1579 29l-31 -35l-213 190q-96 -91 -222.5 -140.5t-268.5 -49.5q-158 0 -293 57.5t-227.5 156.5t-144.5 234t-52 287q0 150 52 284.5t144.5 233.5t227.5 157t293 58q146 0 276 -53.5t226.5 -147.5t153 -232.5t56.5 -299.5q0 -306 -188 -510zM176 729q0 -142 49 -268
t135 -219t212 -147t272 -54q269 0 454 176l-208 189l28 36l215 -190q174 190 174 477q0 151 -52.5 280.5t-142 217.5t-211 138t-257.5 50q-146 0 -272 -54t-212 -146.5t-135 -218.5t-49 -267z" />
    <glyph glyph-name="uni051B" unicode="&#x51b;" horiz-adv-x="1230" 
d="M1022 -406v674h-2q-57 -125 -169.5 -199.5t-258.5 -74.5q-135 0 -247 60.5t-178.5 173.5t-66.5 257q0 141 60.5 258t174.5 186.5t259 69.5q140 0 254.5 -77.5t171.5 -210.5h2v280h45v-1397h-45zM592 39q181 0 305.5 124.5t124.5 321.5q0 198 -120 333.5t-308 135.5
q-190 0 -318.5 -131t-128.5 -338q0 -189 124 -317.5t321 -128.5z" />
    <glyph glyph-name="uni051C" unicode="&#x51c;" horiz-adv-x="2029" 
d="M541 0l-471 1454h51l448 -1384h2l412 1384h64l409 -1384h2l451 1384h51l-471 -1454h-62l-411 1386h-2l-414 -1386h-59z" />
    <glyph glyph-name="uni051D" unicode="&#x51d;" horiz-adv-x="1540" 
d="M422 0l-352 991h49l325 -911h5l292 911h54l297 -911h4l325 911h49l-352 -991h-49l-297 924h-2l-301 -924h-47z" />
    <glyph glyph-name="uni0524" unicode="&#x524;" horiz-adv-x="1484" 
d="M1395 47v-348h-41l-4 301h-203v1407h-918v-1407h-47v1454h1012v-1407h201z" />
    <glyph glyph-name="uni0525" unicode="&#x525;" horiz-adv-x="1193" 
d="M1133 45v-338h-39l-4 293h-160v946h-719v-946h-45v991h809v-946h158z" />
    <glyph glyph-name="uni0528" unicode="&#x528;" horiz-adv-x="1417" 
d="M1188 1454h47v-1454h-47v662h-959v-836q0 -238 -209 -238q-67 0 -126 29l4 47q51 -31 127 -31q157 0 157 193v1628h47v-745h959v745z" />
    <glyph glyph-name="uni0529" unicode="&#x529;" horiz-adv-x="1155" 
d="M944 991h45v-991h-45v459h-733v-633q0 -238 -207 -238q-70 0 -129 29l6 45q52 -29 127 -29q158 0 158 193v1165h45v-487h733v487z" />
    <glyph glyph-name="uni052E" unicode="&#x52e;" horiz-adv-x="1536" 
d="M1446 47v-348h-41l-4 301h-203v1407h-696q-43 -610 -68 -805q-28 -222 -77.5 -358.5t-113.5 -192t-151 -55.5q-37 0 -61 8l4 45q21 -6 57 -6q71 0 124 47t97 170.5t72 329.5q39 278 70 864h790v-1407h201z" />
    <glyph glyph-name="uni052F" unicode="&#x52f;" horiz-adv-x="1161" 
d="M1100 45v-338h-39l-4 293h-160v946h-508q-14 -339 -39 -553q-11 -96 -31.5 -168t-45.5 -114.5t-58 -68.5t-64 -35t-69 -9q-31 0 -43 6l4 45q18 -6 43 -6q81 0 140 84t79 272q21 216 39 592h598v-946h158z" />
    <glyph glyph-name="uni1E0C" unicode="&#x1e0c;" horiz-adv-x="1445" 
d="M182 0v1454h383q170 0 311.5 -53.5t239 -149.5t151.5 -231t54 -295q0 -214 -91.5 -378t-262.5 -255.5t-396 -91.5h-389zM229 47h340q325 0 514 187t189 491q0 200 -87 355t-248.5 241t-373.5 86h-334v-1360zM659 -254q25 0 41.5 -16t16.5 -39q0 -26 -16.5 -41t-41.5 -15
t-40 15t-15 41q0 24 15.5 39.5t39.5 15.5z" />
    <glyph glyph-name="uni1E0D" unicode="&#x1e0d;" horiz-adv-x="1228" 
d="M590 -6q-136 0 -248 60.5t-179 173.5t-67 257q0 141 61 258t175 186.5t258 69.5q141 0 256 -77.5t170 -212.5h4v798h45v-1507h-45v276h-4q-51 -127 -164.5 -204.5t-261.5 -77.5zM590 39q181 0 305.5 124.5t124.5 321.5q0 129 -53.5 235.5t-152.5 170t-224 63.5
q-190 0 -318.5 -131t-128.5 -338q0 -189 124.5 -317.5t322.5 -128.5zM614 -254q25 0 41.5 -16t16.5 -39q0 -26 -16.5 -41t-41.5 -15t-40 15t-15 41q0 24 15.5 39.5t39.5 15.5z" />
    <glyph glyph-name="uni1E0E" unicode="&#x1e0e;" horiz-adv-x="1445" 
d="M182 0v1454h383q170 0 311.5 -53.5t239 -149.5t151.5 -231t54 -295q0 -214 -91.5 -378t-262.5 -255.5t-396 -91.5h-389zM229 47h340q325 0 514 187t189 491q0 200 -87 355t-248.5 241t-373.5 86h-334v-1360zM934 -348h-547v47h547v-47z" />
    <glyph glyph-name="uni1E0F" unicode="&#x1e0f;" horiz-adv-x="1228" 
d="M590 -6q-136 0 -248 60.5t-179 173.5t-67 257q0 141 61 258t175 186.5t258 69.5q141 0 256 -77.5t170 -212.5h4v798h45v-1507h-45v276h-4q-51 -127 -164.5 -204.5t-261.5 -77.5zM590 39q181 0 305.5 124.5t124.5 321.5q0 129 -53.5 235.5t-152.5 170t-224 63.5
q-190 0 -318.5 -131t-128.5 -338q0 -189 124.5 -317.5t322.5 -128.5zM889 -348h-547v47h547v-47z" />
    <glyph glyph-name="uni1E20" unicode="&#x1e20;" horiz-adv-x="1556" 
d="M555 1710v47h547v-47h-547zM838 -6q-155 0 -287 54t-225.5 149.5t-146 231.5t-52.5 296q0 216 90 384t252 260.5t369 92.5q321 0 528 -202l-33 -33q-196 188 -495 188q-294 0 -478 -191t-184 -499q0 -201 83.5 -356.5t234.5 -241.5t344 -86q319 0 512 166v444h-551v47
h598v-514q-211 -190 -559 -190z" />
    <glyph glyph-name="uni1E21" unicode="&#x1e21;" horiz-adv-x="1200" 
d="M305 1268v47h547v-47h-547zM598 -412q-217 0 -405 115l14 47q184 -117 393 -117q202 0 304 108.5t102 289.5v268h-2q-54 -127 -165 -200.5t-264 -73.5q-132 0 -240.5 59.5t-173.5 173t-65 260.5q0 132 59.5 241.5t170.5 174.5t252 65q144 0 257 -71t169 -195h2v258h45
v-971q0 -198 -116.5 -315t-336.5 -117zM575 70q196 0 313.5 126.5t117.5 321.5q0 193 -122 314.5t-306 121.5q-128 0 -228 -59t-153.5 -158t-53.5 -219q0 -200 124 -324t308 -124z" />
    <glyph glyph-name="uni1E24" unicode="&#x1e24;" horiz-adv-x="1417" 
d="M182 0v1454h47v-745h959v745h47v-1454h-47v662h-959v-662h-47zM707 -254q25 0 41 -16t16 -39q0 -26 -16 -41t-41 -15t-40.5 15t-15.5 41q0 23 15.5 39t40.5 16z" />
    <glyph glyph-name="uni1E25" unicode="&#x1e25;" horiz-adv-x="1122" 
d="M166 0v1507h45v-780h2q52 127 162.5 199.5t261.5 72.5q158 0 250 -105.5t92 -295.5v-598h-45v575q0 195 -82.5 287t-214.5 92q-194 0 -310 -127.5t-116 -337.5v-489h-45zM573 -254q25 0 41.5 -16t16.5 -39q0 -26 -16.5 -41t-41.5 -15t-40 15t-15 41q0 24 15.5 39.5
t39.5 15.5z" />
    <glyph glyph-name="uni1E2A" unicode="&#x1e2a;" horiz-adv-x="1417" 
d="M182 0v1454h47v-745h959v745h47v-1454h-47v662h-959v-662h-47zM707 -424q-100 0 -170.5 68.5t-79.5 191.5h45q5 -94 59.5 -154.5t145.5 -60.5t145.5 60.5t60.5 154.5h43q-7 -123 -78 -191.5t-171 -68.5z" />
    <glyph glyph-name="uni1E2B" unicode="&#x1e2b;" horiz-adv-x="1122" 
d="M166 0v1507h45v-780h2q52 127 162.5 199.5t261.5 72.5q158 0 250 -105.5t92 -295.5v-598h-45v575q0 195 -82.5 287t-214.5 92q-194 0 -310 -127.5t-116 -337.5v-489h-45zM573 -424q-100 0 -170 68.5t-79 191.5h45q5 -94 59 -154.5t145 -60.5t146 60.5t61 154.5h43
q-7 -122 -78.5 -191t-171.5 -69z" />
    <glyph glyph-name="uni1E30" unicode="&#x1e30;" horiz-adv-x="1253" 
d="M514 1628l231 254h62l-234 -254h-59zM182 0v1454h47v-989h4l857 989h63l-596 -688l606 -766h-61l-576 731l-297 -344v-387h-47z" />
    <glyph glyph-name="uni1E31" unicode="&#x1e31;" horiz-adv-x="989" 
d="M166 0v1507h45v-1220l2 -2l649 706h64l-396 -430l392 -561h-58l-366 524l-287 -309v-215h-45zM412 1149l252 276h63l-254 -276h-61z" />
    <glyph glyph-name="uni1E36" unicode="&#x1e36;" horiz-adv-x="1081" 
d="M182 0v1454h47v-1407h807v-47h-854zM610 -254q25 0 41.5 -16t16.5 -39q0 -26 -16.5 -41t-41.5 -15t-40 15t-15 41q0 24 15.5 39.5t39.5 15.5z" />
    <glyph glyph-name="uni1E37" unicode="&#x1e37;" horiz-adv-x="397" 
d="M176 0v1507h45v-1507h-45zM193 -254q25 0 41 -16t16 -39q0 -26 -16 -41t-41 -15t-40.5 15t-15.5 41q0 23 15.5 39t40.5 16z" />
    <glyph glyph-name="uni1E38" unicode="&#x1e38;" horiz-adv-x="1081" 
d="M250 1710v47h547v-47h-547zM182 0v1454h47v-1407h807v-47h-854zM610 -254q25 0 41.5 -16t16.5 -39q0 -26 -16.5 -41t-41.5 -15t-40 15t-15 41q0 24 15.5 39.5t39.5 15.5z" />
    <glyph glyph-name="uni1E39" unicode="&#x1e39;" horiz-adv-x="397" 
d="M-72 1737v47h547v-47h-547zM176 0v1507h45v-1507h-45zM195 -254q25 0 41 -16t16 -39q0 -26 -16 -41t-41 -15t-40.5 15t-15.5 41q0 23 15.5 39t40.5 16z" />
    <glyph glyph-name="uni1E3A" unicode="&#x1e3a;" horiz-adv-x="1081" 
d="M182 0v1454h47v-1407h807v-47h-854zM885 -348h-547v47h547v-47z" />
    <glyph glyph-name="uni1E3B" unicode="&#x1e3b;" horiz-adv-x="397" 
d="M176 0v1507h45v-1507h-45zM475 -348h-547v47h547v-47z" />
    <glyph glyph-name="uni1E42" unicode="&#x1e42;" horiz-adv-x="1746" 
d="M182 0v1454h49l641 -1075h5l639 1075h47v-1454h-47v1362h-3l-618 -1045h-43l-621 1045h-2v-1362h-47zM868 -254q25 0 41.5 -16t16.5 -39q0 -26 -16.5 -41t-41.5 -15t-40 15t-15 41q0 24 15.5 39.5t39.5 15.5z" />
    <glyph glyph-name="uni1E43" unicode="&#x1e43;" horiz-adv-x="1765" 
d="M166 0v991h45v-260h2q51 125 152 196.5t225 71.5q132 0 216.5 -80t111.5 -221h2q46 139 148 220t230 81q165 0 248.5 -115.5t83.5 -316.5v-567h-45v545q0 203 -74.5 306t-212.5 103q-157 0 -263.5 -129.5t-106.5 -335.5v-489h-45v545q0 202 -78 305.5t-215 103.5
q-162 0 -270.5 -129.5t-108.5 -335.5v-489h-45zM907 -254q25 0 41.5 -16t16.5 -39q0 -26 -16.5 -41t-41.5 -15t-40 15t-15 41q0 24 15.5 39.5t39.5 15.5z" />
    <glyph glyph-name="uni1E44" unicode="&#x1e44;" horiz-adv-x="1490" 
d="M745 1696q-25 0 -41 16t-16 39q0 26 16 40.5t41 14.5t40.5 -14.5t15.5 -40.5q0 -23 -15.5 -39t-40.5 -16zM182 0v1454h45l1030 -1372h3v1372h47v-1454h-47l-1029 1370h-2v-1370h-47z" />
    <glyph glyph-name="uni1E45" unicode="&#x1e45;" horiz-adv-x="1112" 
d="M580 1241q-25 0 -41.5 16t-16.5 39q0 26 16.5 41t41.5 15t40 -15t15 -41q0 -24 -15.5 -39.5t-39.5 -15.5zM166 0v991h45v-262h2q53 127 161.5 198.5t252.5 71.5q158 0 250 -105.5t92 -295.5v-598h-45v575q0 195 -82.5 287t-214.5 92q-187 0 -301.5 -128t-114.5 -337v-489
h-45z" />
    <glyph glyph-name="uni1E46" unicode="&#x1e46;" horiz-adv-x="1490" 
d="M182 0v1454h45l1030 -1372h3v1372h47v-1454h-47l-1029 1370h-2v-1370h-47zM772 -254q25 0 41 -16t16 -39q0 -26 -16 -41t-41 -15t-40 15t-15 41q0 24 15.5 39.5t39.5 15.5z" />
    <glyph glyph-name="uni1E47" unicode="&#x1e47;" horiz-adv-x="1112" 
d="M166 0v991h45v-262h2q53 127 161.5 198.5t252.5 71.5q158 0 250 -105.5t92 -295.5v-598h-45v575q0 195 -82.5 287t-214.5 92q-187 0 -301.5 -128t-114.5 -337v-489h-45zM588 -254q25 0 41 -16t16 -39q0 -26 -16 -41t-41 -15t-40.5 15t-15.5 41q0 23 16 39t40 16z" />
    <glyph glyph-name="uni1E48" unicode="&#x1e48;" horiz-adv-x="1490" 
d="M182 0v1454h45l1030 -1372h3v1372h47v-1454h-47l-1029 1370h-2v-1370h-47zM1047 -348h-547v47h547v-47z" />
    <glyph glyph-name="uni1E49" unicode="&#x1e49;" horiz-adv-x="1112" 
d="M166 0v991h45v-262h2q53 127 161.5 198.5t252.5 71.5q158 0 250 -105.5t92 -295.5v-598h-45v575q0 195 -82.5 287t-214.5 92q-187 0 -301.5 -128t-114.5 -337v-489h-45zM862 -348h-547v47h547v-47z" />
    </font>
</defs>
</svg>
