<?xml version="1.0" standalone="no"?>
<!DOCTYPE svg PUBLIC "-//W3C//DTD SVG 1.1//EN" "http://www.w3.org/Graphics/SVG/1.1/DTD/svg11.dtd" >
<svg xmlns="http://www.w3.org/2000/svg" xmlns:xlink="http://www.w3.org/1999/xlink" version="1.1">
<metadata>
Created by FontForge 20201107 at Tue Aug  6 05:21:15 2024
 By 
Copyright (c) 2015 by Kostas Bartsokas. All rights reserved.
</metadata>
<defs>
<font id="AvertaStdCY-ExtrathinItalic" horiz-adv-x="0" >
  <font-face 
    font-family="Averta Std CY Extrathin"
    font-weight="100"
    font-style="italic"
    font-stretch="normal"
    units-per-em="2048"
    panose-1="0 0 2 0 0 0 0 0 0 0"
    ascent="1638"
    descent="-410"
    x-height="991"
    cap-height="1454"
    bbox="-1370 -631 2632 2116"
    underline-thickness="36"
    underline-position="-159"
    slope="-7"
    unicode-range="U+000D-2E18"
  />
<missing-glyph horiz-adv-x="808" 
 />
    <glyph glyph-name=".notdef" horiz-adv-x="808" 
 />
    <glyph glyph-name=".null" 
 />
    <glyph glyph-name="nonmarkingreturn" horiz-adv-x="682" 
 />
    <glyph glyph-name="CR" unicode="&#xd;" 
 />
    <glyph glyph-name="space" unicode=" " horiz-adv-x="485" 
 />
    <glyph glyph-name="exclam" unicode="!" horiz-adv-x="409" 
d="M180 369l133 1138h52l-148 -1138h-37zM168 -8q-25 0 -39 15t-14 40q0 24 15.5 39.5t39.5 15.5q23 0 38 -15t15 -38q0 -25 -16 -41t-39 -16z" />
    <glyph glyph-name="quotedbl" unicode="&#x22;" horiz-adv-x="493" 
d="M170 1010l121 444h55l-133 -444h-43zM330 1010l119 444h55l-131 -444h-43z" />
    <glyph glyph-name="numbersign" unicode="#" horiz-adv-x="1153" 
d="M211 -51l119 459h-244l6 45h248l100 383h-266l6 43h271l120 464h45l-120 -464h354l119 464h45l-121 -464h254l-6 -43h-260l-99 -383h277l-6 -45h-285l-117 -459h-45l119 459h-352l-119 -459h-43zM383 453h354l101 383h-355z" />
    <glyph glyph-name="dollar" unicode="$" horiz-adv-x="1046" 
d="M664 1360q86 -9 166 -49t139 -103l-35 -37q-62 68 -146.5 106t-173.5 38q-144 0 -238.5 -78t-94.5 -205q0 -24 3.5 -45.5t13.5 -41.5t17.5 -36t26.5 -34.5t29 -30t36.5 -29t37 -25.5t43 -26.5t42 -23.5t45.5 -25q49 -27 75 -41t68.5 -40.5t66 -45.5t53.5 -47.5t45 -55
t26 -60t11 -69.5q0 -163 -112.5 -262.5t-295.5 -99.5h-16l-31 -250h-43l31 254q-105 11 -202.5 65.5t-158.5 147.5l39 35q69 -104 169.5 -154.5t211.5 -50.5q161 0 259.5 86.5t98.5 226.5q0 42 -18.5 80.5t-39.5 64.5t-70 60.5t-77 50.5t-94 52q-12 7 -18 10
q-50 27 -79 43.5t-72.5 45t-69 54t-51.5 59t-38 72t-12 82.5q0 148 107 241t280 93h3l30 260h43z" />
    <glyph glyph-name="percent" unicode="%" horiz-adv-x="1861" 
d="M604 -14l-41 16l742 1468l41 -18zM512 674q-156 0 -258 102t-102 262q0 175 117.5 298.5t285.5 123.5q160 0 264.5 -100t104.5 -260q0 -183 -120 -304.5t-292 -121.5zM512 719q154 0 260.5 109.5t106.5 271.5q0 140 -91 227.5t-233 87.5q-150 0 -254 -110.5t-104 -266.5
q0 -140 89.5 -229.5t225.5 -89.5zM1337 -6q-156 0 -258 102t-102 262q0 174 117.5 297t285.5 123q160 0 264.5 -99.5t104.5 -260.5q0 -182 -120 -303t-292 -121zM1337 39q155 0 261 108.5t106 270.5q0 141 -91 228t-233 87q-150 0 -254 -110t-104 -265q0 -140 89 -229.5
t226 -89.5z" />
    <glyph glyph-name="ampersand" unicode="&#x26;" horiz-adv-x="1456" 
d="M428 -6q-155 0 -249.5 94t-94.5 254q0 168 88.5 298t222.5 183q-62 30 -102.5 93t-40.5 149q0 165 113 281t294 116q133 0 213.5 -69t94.5 -185l-45 -14q-11 102 -79.5 161.5t-185.5 59.5q-164 0 -261 -101.5t-97 -252.5q0 -86 51 -148.5t129 -62.5h957l-6 -47h-363
q-8 -134 -35.5 -252t-79 -221t-124 -177t-175 -116.5t-225.5 -42.5zM430 39q263 0 418.5 207t173.5 557h-510q-71 0 -141 -37.5t-123 -99.5t-86 -147t-33 -175q0 -135 79.5 -220t221.5 -85z" />
    <glyph glyph-name="quotesingle" unicode="'" horiz-adv-x="335" 
d="M170 1010l121 444h55l-133 -444h-43z" />
    <glyph glyph-name="parenleft" unicode="(" horiz-adv-x="464" 
d="M238 -281q-95 314 -95 619q0 307 84 610.5t240 550.5l35 -20q-151 -245 -232.5 -540t-81.5 -593q0 -287 93 -606z" />
    <glyph glyph-name="parenright" unicode=")" horiz-adv-x="464" 
d="M37 -279l-39 17q150 276 227.5 549.5t77.5 576.5q0 338 -100 613l41 24q104 -268 104 -631q0 -303 -78 -584.5t-233 -564.5z" />
    <glyph glyph-name="asterisk" unicode="*" horiz-adv-x="784" 
d="M412 831l41 285l-234 -151l-16 43l241 135l-211 135l27 41l201 -150l28 285h43l-43 -285l236 152l16 -43l-243 -135l213 -135l-27 -39l-201 147l-28 -285h-43z" />
    <glyph glyph-name="plus" unicode="+" horiz-adv-x="1112" 
d="M485 94l56 449h-404l6 45h404l55 450h45l-55 -450h399l-6 -45h-399l-56 -449h-45z" />
    <glyph glyph-name="comma" unicode="," horiz-adv-x="327" 
d="M-14 -262l118 446h58l-137 -446h-39z" />
    <glyph glyph-name="hyphen" unicode="-" horiz-adv-x="778" 
d="M137 606l6 47h531l-4 -47h-533z" />
    <glyph glyph-name="period" unicode="." horiz-adv-x="364" 
d="M125 -8q-25 0 -39 15t-14 40q0 24 15.5 39.5t39.5 15.5q23 0 38 -15t15 -38q0 -25 -16 -41t-39 -16z" />
    <glyph glyph-name="slash" unicode="/" horiz-adv-x="681" 
d="M-98 -236l-37 21l930 1743l34 -23z" />
    <glyph glyph-name="zero" unicode="0" horiz-adv-x="1155" 
d="M508 -6q-162 0 -266.5 133.5t-104.5 392.5q0 130 21.5 256.5t67.5 242t110.5 203t158 139.5t203.5 52q167 0 268 -132.5t101 -395.5q0 -132 -20.5 -257.5t-65 -241t-108.5 -202.5t-158 -138.5t-207 -51.5zM510 41q104 0 190 50t144.5 132.5t99 192.5t58.5 227.5t18 239.5
q0 243 -89.5 363t-234.5 120q-101 0 -187 -50t-144.5 -133.5t-99.5 -193t-60 -228t-19 -239.5q0 -238 92.5 -359.5t231.5 -121.5z" />
    <glyph glyph-name="one" unicode="1" horiz-adv-x="634" 
d="M487 1407h48l-173 -1407h-47l162 1339l-321 -247l-27 38z" />
    <glyph glyph-name="two" unicode="2" horiz-adv-x="917" 
d="M6 0l6 45l506 483q148 141 229.5 273.5t81.5 283.5q0 118 -67.5 199.5t-188.5 81.5q-118 0 -222 -68.5t-156 -185.5l-39 27q58 123 171.5 198.5t247.5 75.5q132 0 217 -92t85 -236q0 -83 -25 -164t-72 -155t-100.5 -137t-124.5 -131l-469 -447v-4h688l-6 -47h-762z" />
    <glyph glyph-name="three" unicode="3" horiz-adv-x="942" 
d="M387 -6q-149 0 -245 69.5t-126 186.5l43 18q26 -104 110 -165.5t218 -61.5q179 0 288 111t109 292q0 122 -77 195.5t-224 73.5h-133l6 47h138q156 0 252 99.5t96 258.5q0 119 -75.5 183.5t-201.5 64.5q-211 0 -358 -182l-39 28q167 201 399 201q146 0 234 -76t88 -219
q0 -140 -69.5 -240t-188.5 -139v-4q98 -32 150.5 -109t52.5 -188q0 -198 -125.5 -321t-321.5 -123z" />
    <glyph glyph-name="four" unicode="4" horiz-adv-x="1001" 
d="M729 315h197l-6 -47h-197l-33 -268h-47l33 268h-656l7 47l790 1092h45zM682 315l121 990l-717 -990h596z" />
    <glyph glyph-name="five" unicode="5" horiz-adv-x="1003" 
d="M973 1360h-594l-96 -553q53 35 126 51t136 16q172 0 270 -92.5t98 -269.5q0 -226 -138.5 -372t-354.5 -146q-132 0 -231 71t-132 185l43 18q34 -106 118.5 -166.5t203.5 -60.5q129 0 230 61.5t156.5 168.5t55.5 239q0 156 -84 235.5t-237 79.5q-73 0 -155 -22.5
t-124 -63.5l-41 6l117 662h639z" />
    <glyph glyph-name="six" unicode="6" horiz-adv-x="1069" 
d="M487 -6q-172 0 -271 114.5t-99 303.5q0 166 56 337.5t151.5 315t235.5 248.5t296 137v-47q-160 -33 -300.5 -150t-232.5 -276t-133 -336l5 -2q70 108 185.5 168.5t250.5 60.5q156 0 248 -99t92 -257q0 -144 -65.5 -263.5t-176.5 -187t-242 -67.5zM489 43q86 0 165.5 36
t139 97.5t95 149.5t35.5 186q0 139 -80.5 223t-220.5 84q-158 0 -278 -85.5t-175 -227.5q-4 -58 -4 -84q0 -173 85 -276t238 -103z" />
    <glyph glyph-name="seven" unicode="7" horiz-adv-x="905" 
d="M178 1407h778l-6 -49l-739 -1374l-43 18l729 1358h-725z" />
    <glyph glyph-name="eight" unicode="8" horiz-adv-x="1067" 
d="M459 -6q-177 0 -277 91.5t-100 244.5t91 273t249 157v2q-82 20 -137.5 82.5t-55.5 169.5q0 175 118.5 287t301.5 112q150 0 236 -79.5t86 -209.5q0 -125 -75 -229t-189 -131v-2q114 -26 178.5 -108t64.5 -203q0 -201 -139.5 -329t-351.5 -128zM567 784q149 0 253 93
t104 237q0 123 -76 187.5t-209 64.5q-155 0 -259 -98.5t-104 -243.5q0 -119 78 -179.5t213 -60.5zM469 43q184 0 308 116t124 285q0 144 -90 217.5t-242 73.5q-193 0 -316.5 -115t-123.5 -284q0 -139 93.5 -216t246.5 -77z" />
    <glyph glyph-name="nine" unicode="9" horiz-adv-x="1075" 
d="M254 -49v47q122 28 237.5 106t205.5 186t154.5 240t92.5 267l-2 2q-79 -119 -198 -191.5t-269 -72.5q-148 0 -234.5 96t-86.5 248q0 145 63 267t178 194.5t258 72.5q167 0 263 -109.5t96 -318.5q0 -164 -59.5 -335t-159.5 -313.5t-242 -247t-297 -138.5zM475 584
q143 0 270.5 79.5t215.5 243.5q2 27 2 80q-3 191 -85.5 285t-224.5 94q-127 0 -231.5 -65t-162.5 -174t-58 -236q0 -139 70 -223t204 -84z" />
    <glyph glyph-name="colon" unicode=":" horiz-adv-x="350" 
d="M229 889q-25 0 -39 15t-14 40q0 24 15.5 39.5t39.5 15.5q23 0 38.5 -15t15.5 -38q0 -24 -16.5 -40.5t-39.5 -16.5zM119 -8q-25 0 -39 15t-14 40q0 24 15.5 39.5t39.5 15.5q23 0 38 -15t15 -38q0 -25 -16 -41t-39 -16z" />
    <glyph glyph-name="semicolon" unicode=";" horiz-adv-x="358" 
d="M248 889q-25 0 -39 15t-14 40q0 24 15.5 39.5t39.5 15.5q23 0 38 -15t15 -38q0 -25 -16 -41t-39 -16zM4 -262l119 446h57l-137 -446h-39z" />
    <glyph glyph-name="less" unicode="&#x3c;" horiz-adv-x="1058" 
d="M856 133l-739 430l4 33l846 430l-6 -49l-773 -397l674 -396z" />
    <glyph glyph-name="equal" unicode="=" horiz-adv-x="1067" 
d="M164 772l6 45h848l-6 -45h-848zM115 313l6 45h848l-6 -45h-848z" />
    <glyph glyph-name="greater" unicode="&#x3e;" horiz-adv-x="1052" 
d="M113 133l6 51l772 396l-676 397l6 49l742 -430l-5 -33z" />
    <glyph glyph-name="question" unicode="?" horiz-adv-x="790" 
d="M322 360l16 121q3 24 10 48t14.5 42.5t23.5 42t26 38t32.5 39.5t33.5 36.5t38 39t37 38.5q106 111 155.5 199t49.5 206q0 124 -68 190t-180 66q-94 0 -176.5 -45.5t-138.5 -130.5l-29 33q68 94 160 143.5t190 49.5q134 0 211.5 -87.5t77.5 -228.5q0 -65 -16.5 -123
t-51 -112t-68.5 -95t-87 -96q-11 -11 -41 -42t-41.5 -43t-34.5 -38t-33 -41.5t-23.5 -38.5t-20 -44t-9.5 -44l-17 -123h-40zM319 -8q-25 0 -39 15t-14 40q0 23 16 39t40 16q23 0 38 -15t15 -38q0 -25 -16.5 -41t-39.5 -16z" />
    <glyph glyph-name="at" unicode="@" horiz-adv-x="1839" 
d="M827 -266q-152 0 -284 53.5t-227 148t-149 230t-54 293.5q0 75 14.5 155.5t47.5 166t81.5 164.5t121.5 150t162.5 123t209 82.5t256.5 30.5q211 0 376.5 -87t260 -251.5t94.5 -380.5q0 -84 -19 -170.5t-56.5 -167t-104.5 -131.5t-152 -51q-108 0 -159 71.5t-46 184.5
q0 7 1 20t1 15h-4q-61 -121 -164.5 -193.5t-224.5 -72.5q-139 0 -220 87.5t-81 246.5q0 133 50.5 244.5t156 183t248.5 71.5q88 0 167.5 -27.5t122.5 -76.5l4 2l11 96h45l-56 -461q-3 -22 -8 -92q-12 -252 150 -252q61 0 111.5 31t83 80t55 112.5t32 125.5t9.5 122
q0 307 -190 491.5t-494 184.5q-146 0 -272 -36.5t-216.5 -100t-160.5 -145.5t-112.5 -175.5t-63.5 -186.5t-21 -183q0 -147 50.5 -273.5t138.5 -215.5t211.5 -139t266.5 -50q277 0 467 108l29 -39q-206 -116 -496 -116zM817 164q141 0 263.5 125t144.5 297l26 205
q-46 54 -128 83t-156 29q-98 0 -177.5 -37t-129.5 -100t-76.5 -143t-26.5 -170q0 -133 65 -211t195 -78z" />
    <glyph glyph-name="A" unicode="A" horiz-adv-x="1198" 
d="M0 0l684 1454h55l336 -1454h-49l-98 432h-674l-203 -432h-51zM276 479h642l-209 914h-4z" />
    <glyph glyph-name="B" unicode="B" horiz-adv-x="1175" 
d="M133 0l178 1454h414q68 0 125.5 -15t105 -46.5t74.5 -87t27 -131.5q0 -131 -73 -245.5t-204 -156.5v-2q119 -24 189.5 -98t70.5 -207q0 -224 -144 -344.5t-394 -120.5h-369zM276 788h363q162 0 265.5 112t103.5 274q0 114 -69.5 173.5t-225.5 59.5h-361zM186 47h322
q220 0 351.5 105.5t131.5 304.5q0 146 -87.5 215t-268.5 69h-365z" />
    <glyph glyph-name="C" unicode="C" horiz-adv-x="1370" 
d="M700 -6q-250 0 -398 166t-148 448q0 165 54.5 320.5t148.5 273.5t230.5 189t291.5 71q303 0 495 -313l-41 -27q-93 157 -201 225t-251 68q-146 0 -274.5 -68t-215.5 -180t-137.5 -257.5t-50.5 -299.5q0 -264 134 -416.5t365 -152.5q124 0 251.5 56.5t226.5 164.5l37 -29
q-99 -109 -236 -174t-281 -65z" />
    <glyph glyph-name="D" unicode="D" horiz-adv-x="1349" 
d="M133 0l178 1454h363q277 0 428 -156.5t151 -433.5q0 -249 -97 -445.5t-275 -307.5t-406 -111h-342zM186 47h287q214 0 381.5 105.5t258.5 290.5t91 417q0 258 -137 402.5t-395 144.5h-318z" />
    <glyph glyph-name="E" unicode="E" horiz-adv-x="1085" 
d="M133 0l178 1454h760l-4 -47h-715l-80 -655h598l-4 -47h-600l-80 -658h752l-4 -47h-801z" />
    <glyph glyph-name="F" unicode="F" horiz-adv-x="1048" 
d="M133 0l178 1454h795l-4 -47h-750l-80 -659h646l-5 -48h-647l-86 -700h-47z" />
    <glyph glyph-name="G" unicode="G" horiz-adv-x="1443" 
d="M717 -6q-265 0 -414 164t-149 446q0 168 54 323.5t148 274t232.5 189.5t296.5 71q273 0 461 -223l-35 -35q-175 211 -428 211q-147 0 -275.5 -67.5t-216 -179.5t-138 -259t-50.5 -305q0 -262 135.5 -412.5t380.5 -150.5q129 0 255.5 43t219.5 123l53 444h-489l6 47h536
l-63 -514q-101 -94 -239.5 -142t-280.5 -48z" />
    <glyph glyph-name="H" unicode="H" horiz-adv-x="1335" 
d="M133 0l178 1454h47l-92 -745h854l90 745h47l-176 -1454h-47l80 662h-852l-82 -662h-47z" />
    <glyph glyph-name="I" unicode="I" horiz-adv-x="462" 
d="M147 0l179 1454h47l-178 -1454h-48z" />
    <glyph glyph-name="J" unicode="J" horiz-adv-x="890" 
d="M326 -6q-82 0 -167.5 50.5t-140.5 141.5l31 39q53 -87 129 -135.5t150 -48.5q295 0 340 387l125 1026h47l-125 -1028q-27 -223 -124 -327.5t-265 -104.5z" />
    <glyph glyph-name="K" unicode="K" horiz-adv-x="1165" 
d="M1186 1454l-608 -672l440 -782h-57l-416 745l-316 -350l-49 -395h-47l178 1454h47l-120 -977l4 -2l882 979h62z" />
    <glyph glyph-name="L" unicode="L" horiz-adv-x="1001" 
d="M133 0l178 1454h47l-172 -1407h721l-4 -47h-770z" />
    <glyph glyph-name="M" unicode="M" horiz-adv-x="1630" 
d="M133 0l178 1454h45l445 -1071h4l702 1071h45l-176 -1454h-47l164 1346h-6l-674 -1029h-39l-426 1033h-4l-164 -1350h-47z" />
    <glyph glyph-name="N" unicode="N" horiz-adv-x="1400" 
d="M133 0l178 1454h41l754 -1366h4l166 1366h47l-178 -1454h-45l-750 1362h-4l-166 -1362h-47z" />
    <glyph glyph-name="O" unicode="O" horiz-adv-x="1536" 
d="M711 -6q-257 0 -410.5 160.5t-153.5 443.5q0 169 53.5 326t148 276t234 190.5t300.5 71.5q257 0 410 -158t153 -446q0 -139 -32.5 -268t-96.5 -237t-152 -188.5t-205 -125.5t-249 -45zM711 41q154 0 284.5 66t217.5 177.5t135.5 259.5t48.5 312q0 267 -137 413t-379 146
q-151 0 -281 -68t-217 -181t-136.5 -260.5t-49.5 -307.5q0 -262 138 -409.5t376 -147.5z" />
    <glyph glyph-name="P" unicode="P" horiz-adv-x="1116" 
d="M133 0l178 1454h430q174 0 265.5 -90t91.5 -248q0 -220 -129.5 -355.5t-352.5 -135.5h-360l-76 -625h-47zM262 672h356q201 0 316 123t115 321q0 149 -85.5 220t-226.5 71h-385z" />
    <glyph glyph-name="Q" unicode="Q" horiz-adv-x="1568" 
d="M1452 858q0 -188 -60 -355.5t-171 -287.5l163 -186l-34 -33l-162 184q-196 -186 -471 -186q-257 0 -410 160t-153 444q0 169 53.5 326t147.5 276t233.5 190.5t300.5 71.5q257 0 410 -158t153 -446zM717 41q258 0 438 174l-170 193l35 34l170 -192q103 114 158 271.5
t55 334.5q0 268 -137 413.5t-381 145.5q-150 0 -279.5 -68t-216.5 -181t-136.5 -261t-49.5 -307q0 -262 138 -409.5t376 -147.5z" />
    <glyph glyph-name="R" unicode="R" horiz-adv-x="1179" 
d="M133 0l178 1454h430q174 0 265.5 -90t91.5 -248q0 -206 -115 -339t-315 -150l315 -627h-53l-316 625h-358l-76 -625h-47zM262 672h356q201 0 316 123t115 321q0 149 -85.5 220t-226.5 71h-385z" />
    <glyph glyph-name="S" unicode="S" horiz-adv-x="1075" 
d="M508 -6q-126 0 -248 58t-201 173l39 31q76 -109 184 -162t228 -53q171 0 278 92t107 248q0 45 -18.5 85.5t-46.5 71.5t-73 63.5t-86.5 56.5t-98.5 56q-11 6 -17 9q-46 25 -73 40t-68.5 41t-66 46.5t-54.5 51t-46 59.5t-27 66.5t-11 78.5q0 158 114.5 257t299.5 99
q106 0 205 -42.5t171 -119.5l-34 -34q-66 72 -158.5 110.5t-188.5 38.5q-155 0 -257.5 -84t-102.5 -221q0 -61 21.5 -109.5t79.5 -95t89.5 -66.5t120.5 -69q4 -3 6 -4q53 -29 81 -44.5t73.5 -44t70.5 -48.5t57 -50.5t48 -58.5t27.5 -63.5t11.5 -73.5q0 -176 -120 -282.5
t-316 -106.5z" />
    <glyph glyph-name="T" unicode="T" horiz-adv-x="1015" 
d="M422 0l172 1407h-426l6 47h905l-6 -47h-432l-172 -1407h-47z" />
    <glyph glyph-name="U" unicode="U" horiz-adv-x="1308" 
d="M586 -6q-160 0 -258.5 74.5t-132 204t-11.5 309.5l109 872h47l-109 -874q-32 -253 57 -396t300 -143q214 0 346.5 133t165.5 397l106 883h47l-108 -885q-35 -287 -178.5 -431t-380.5 -144z" />
    <glyph glyph-name="V" unicode="V" horiz-adv-x="1181" 
d="M510 0l-328 1454h49l310 -1372h2l643 1372h49l-680 -1454h-45z" />
    <glyph glyph-name="W" unicode="W" horiz-adv-x="1849" 
d="M438 0l-248 1454h50l231 -1372h4l537 1372h57l205 -1372h4l565 1372h51l-602 -1454h-55l-203 1374h-4l-536 -1374h-56z" />
    <glyph glyph-name="X" unicode="X" horiz-adv-x="1138" 
d="M14 0l555 723l-381 731h54l358 -684h4l522 684h60l-561 -731l379 -723h-56l-352 676h-4l-520 -676h-58z" />
    <glyph glyph-name="Y" unicode="Y" horiz-adv-x="1036" 
d="M434 0l80 662l-356 792h51l332 -735h4l516 735h55l-555 -792l-80 -662h-47z" />
    <glyph glyph-name="Z" unicode="Z" horiz-adv-x="1122" 
d="M59 0l7 43l960 1360v4h-743l6 47h805l-7 -47l-960 -1354l2 -6h801l-6 -47h-865z" />
    <glyph glyph-name="bracketleft" unicode="[" horiz-adv-x="516" 
d="M82 -287l217 1770h260l-4 -43h-219l-207 -1686h219l-6 -41h-260z" />
    <glyph glyph-name="backslash" unicode="\" horiz-adv-x="681" 
d="M602 -236l-504 1741l41 23l504 -1743z" />
    <glyph glyph-name="bracketright" unicode="]" horiz-adv-x="516" 
d="M-18 -287l6 41h219l207 1686h-219l4 43h262l-217 -1770h-262z" />
    <glyph glyph-name="asciicircum" unicode="^" horiz-adv-x="882" 
d="M211 1024l321 430h52l217 -430h-58l-188 385l-287 -385h-57z" />
    <glyph glyph-name="underscore" unicode="_" horiz-adv-x="935" 
d="M-88 -102l4 45h967l-4 -45h-967z" />
    <glyph glyph-name="grave" unicode="`" horiz-adv-x="968" 
d="M616 1122l-196 277h59l195 -277h-58z" />
    <glyph glyph-name="a" unicode="a" horiz-adv-x="1087" 
d="M438 -6q-157 0 -248.5 111t-91.5 282q0 167 63 306t182 222.5t271 83.5q93 0 181 -34t137 -91l4 3l14 114h45l-121 -991h-45l39 315h-4q-69 -145 -177.5 -233t-248.5 -88zM440 39q90 0 172 48t140 126.5t97 175.5t52 199l29 223q-37 55 -101.5 89t-117 44t-101.5 10
q-138 0 -245.5 -78.5t-164.5 -207.5t-57 -283t78 -250t219 -96z" />
    <glyph glyph-name="b" unicode="b" horiz-adv-x="1116" 
d="M487 -6q-224 0 -362 96l174 1417h43l-98 -827l4 -2q66 144 175 232.5t251 88.5q167 0 256.5 -113t89.5 -300q0 -118 -37.5 -225.5t-105 -189t-169 -129.5t-221.5 -48zM492 39q88 0 165 29t134 81t98.5 121t62.5 150t21 168q0 170 -75 267t-226 97q-92 0 -174 -47.5
t-140 -126t-97 -176t-52 -201.5l-37 -288q122 -74 320 -74z" />
    <glyph glyph-name="c" unicode="c" horiz-adv-x="972" 
d="M459 -6q-71 0 -135.5 26.5t-115.5 76t-81.5 127t-30.5 171.5q0 122 36.5 232t102 192.5t164.5 131t217 48.5q93 0 178.5 -39t139.5 -118l-39 -31q-47 72 -121 107.5t-158 35.5q-143 0 -252.5 -78t-165 -204t-55.5 -277q0 -156 91.5 -256t230.5 -100q222 0 350 158l35 -27
q-137 -176 -391 -176z" />
    <glyph glyph-name="d" unicode="d" horiz-adv-x="1112" 
d="M440 -6q-158 0 -250 111t-92 282q0 167 63 306t182 222.5t271 83.5q96 0 184.5 -34t139.5 -95l2 2l78 635h45l-184 -1507h-45l38 317l-4 2q-68 -146 -177 -235.5t-251 -89.5zM440 39q92 0 174.5 48t141.5 126.5t97.5 176t51.5 200.5l27 217q-35 57 -100 92t-117.5 45
t-102.5 10q-138 0 -245.5 -78.5t-164.5 -207.5t-57 -283t77 -250t218 -96z" />
    <glyph glyph-name="e" unicode="e" horiz-adv-x="940" 
d="M477 39q180 0 316 158l34 -27q-140 -176 -350 -176q-170 0 -275.5 110.5t-105.5 298.5q0 162 65 298t182.5 217t262.5 81q31 0 64.5 -5.5t74 -21.5t71.5 -41t52 -69t21 -100q0 -302 -748 -354v-5q0 -169 92 -266.5t244 -97.5zM606 954q-188 0 -318 -145t-145 -356
q699 48 699 305q0 47 -17 83.5t-42.5 57.5t-59 34t-61.5 17t-56 4z" />
    <glyph glyph-name="f" unicode="f" horiz-adv-x="571" 
d="M137 0l115 946h-125l4 45h127l29 232q18 153 81 223t169 70q98 0 174 -50l-15 -47q-62 49 -164 49q-82 0 -134 -58.5t-68 -199.5l-27 -219h313l-4 -45h-315l-115 -946h-45z" />
    <glyph glyph-name="g" unicode="g" horiz-adv-x="1089" 
d="M360 -412q-170 0 -319 76l14 49q146 -80 310 -80q77 0 137.5 12.5t119 46t100.5 89t74 146.5t48 214l26 203h-4q-71 -141 -180.5 -231t-249.5 -90q-157 0 -248.5 111.5t-91.5 283.5q0 114 37 219t103 185.5t164 128.5t212 48q93 0 182.5 -34t137.5 -91l2 3l14 114h45
l-104 -854q-16 -132 -51 -229.5t-81.5 -158t-111.5 -97.5t-132.5 -50.5t-152.5 -13.5zM438 70q87 0 169 45.5t141 118t98.5 163t50.5 181.5l29 235q-52 77 -143.5 108t-174.5 31q-137 0 -245.5 -77t-165 -198.5t-56.5 -260.5q0 -154 78 -250t219 -96z" />
    <glyph glyph-name="h" unicode="h" horiz-adv-x="1089" 
d="M115 0l184 1507h45l-104 -850h4q72 154 198.5 248t259.5 94q298 0 246 -403l-78 -596h-45l78 596q8 72 7.5 126.5t-13.5 94t-30.5 66t-45 42.5t-56.5 22.5t-65 6.5q-79 0 -162 -42t-150 -111.5t-115 -166.5t-60 -200l-53 -434h-45z" />
    <glyph glyph-name="i" unicode="i" horiz-adv-x="419" 
d="M307 1241q-23 0 -37 15t-14 40q0 24 15 40t38 16t38 -15.5t15 -38.5q0 -25 -15 -41t-40 -16zM127 0l121 991h45l-123 -991h-43z" />
    <glyph glyph-name="j" unicode="j" horiz-adv-x="329" 
d="M254 1241q-23 0 -37 15t-14 40q0 24 15 40t38 16t38 -15.5t15 -38.5q0 -25 -15 -41t-40 -16zM-127 -412q-61 0 -111 31l11 47q46 -33 104 -33q33 0 58.5 9t50.5 32.5t42.5 72t26.5 120.5l138 1124h45l-140 -1126q-16 -141 -67.5 -209t-157.5 -68z" />
    <glyph glyph-name="k" unicode="k" horiz-adv-x="944" 
d="M809 -6q-22 -4 -45 8q-17 8 -33 25.5t-26.5 32.5t-27.5 50t-24 51l-28 64l-101 228q-168 -148 -340 -232l-24 -221h-45l184 1507h45l-151 -1226l4 -2q227 122 412.5 321.5t248.5 390.5h47q-40 -131 -130.5 -261.5t-213.5 -244.5l107 -239q55 -126 84 -164.5t69 -44.5z
" />
    <glyph glyph-name="l" unicode="l" horiz-adv-x="403" 
d="M125 0l184 1507h45l-184 -1507h-45z" />
    <glyph glyph-name="m" unicode="m" horiz-adv-x="1665" 
d="M115 0l121 991h45l-39 -309l4 -2q69 145 179 232t224 87q254 0 248 -313h2q66 140 175 226.5t222 86.5q292 0 240 -403l-80 -596h-45l80 596q13 86 6.5 147.5t-22 102.5t-45 65t-62 33.5t-74.5 9.5q-141 0 -270.5 -150.5t-159.5 -379.5l-55 -424h-45l78 596
q13 86 6.5 147.5t-21 102.5t-43.5 65t-61 33.5t-74 9.5q-93 0 -188 -70t-163.5 -191.5t-84.5 -258.5l-53 -434h-45z" />
    <glyph glyph-name="n" unicode="n" horiz-adv-x="1089" 
d="M115 0l123 991h45l-41 -323h4q74 148 200 239.5t256 91.5q298 0 246 -403l-78 -596h-45l78 596q13 86 6 147.5t-22 102t-45.5 64t-64 33t-77.5 9.5q-78 0 -160 -40.5t-149.5 -108.5t-116 -166t-61.5 -205l-53 -432h-45z" />
    <glyph glyph-name="o" unicode="o" horiz-adv-x="1095" 
d="M492 -6q-180 0 -289 109.5t-109 302.5q0 118 36.5 225.5t102 189t163.5 130t214 48.5q178 0 284.5 -106t106.5 -297q0 -126 -35.5 -236t-100.5 -191t-161 -128t-212 -47zM492 39q204 0 333 154t129 403q0 171 -91 264.5t-253 93.5q-203 0 -336 -156t-133 -392
q0 -172 95 -269.5t256 -97.5z" />
    <glyph glyph-name="p" unicode="p" horiz-adv-x="1114" 
d="M63 -406l173 1397h45l-39 -315h4q70 146 178.5 234.5t249.5 88.5q161 0 253.5 -111t92.5 -284q0 -167 -63.5 -305.5t-184 -221.5t-274.5 -83q-94 0 -183 33.5t-137 91.5l-4 -2l-65 -523h-46zM502 39q139 0 248 78t166 206.5t57 282.5q0 155 -78 251.5t-223 96.5
q-91 0 -173 -47t-140.5 -125t-97.5 -174.5t-52 -199.5l-29 -226q27 -43 70.5 -73t91 -44t86 -20t74.5 -6z" />
    <glyph glyph-name="q" unicode="q" horiz-adv-x="1095" 
d="M780 -406l88 723h-4q-66 -145 -175 -234t-249 -89q-158 0 -250 111t-92 282q0 167 63 306t182 222.5t271 83.5q93 0 180.5 -32t137.5 -88l4 2l14 110h45l-170 -1397h-45zM440 39q91 0 172.5 47.5t140 126.5t98 179t52.5 206l27 213q-28 42 -70.5 72t-89 44t-85 19.5
t-73.5 5.5q-138 0 -245.5 -78t-164.5 -206.5t-57 -282.5t77 -250t218 -96z" />
    <glyph glyph-name="r" unicode="r" horiz-adv-x="557" 
d="M115 0l121 991h45l-37 -299h4q115 245 352 307l-4 -61q-152 -34 -256 -171t-127 -333l-53 -434h-45z" />
    <glyph glyph-name="s" unicode="s" horiz-adv-x="800" 
d="M352 -6q-195 0 -323 137l30 37q120 -129 293 -129q125 0 204 59t79 160q0 37 -14.5 68.5t-34.5 53t-55.5 43t-63 34t-72.5 31.5q-16 7 -24 10q-42 17 -71 31t-63 36.5t-54 47t-34 59.5t-14 76q0 114 88 182.5t211 68.5q166 0 271 -118l-31 -33q-56 60 -113 83t-135 23
q-102 0 -173 -58t-71 -155q0 -37 16 -68t48 -55.5t63.5 -41t79.5 -37.5q8 -3 41 -17t43 -18.5t39 -18.5t40 -21.5t34 -22.5t33 -27l25 -30t21.5 -35.5t11.5 -40t5 -46.5q0 -85 -48 -147.5t-121 -91.5t-161 -29z" />
    <glyph glyph-name="t" unicode="t" horiz-adv-x="673" 
d="M313 -6q-103 0 -137 69.5t-18 198.5l84 684h-123l4 45h123l45 359l45 6l-45 -365h354l-4 -45h-354l-84 -684q-7 -65 -4.5 -114.5t31.5 -79t87 -29.5q106 0 201 76l6 -52q-94 -69 -211 -69z" />
    <glyph glyph-name="u" unicode="u" horiz-adv-x="1050" 
d="M401 -6q-155 0 -223.5 96t-40.5 305l80 596h45l-80 -594q-14 -86 -6.5 -148t23.5 -102.5t49 -64.5t70 -33.5t85 -9.5q96 0 192.5 67.5t166 183t88.5 247.5l55 454h45l-121 -991h-45l39 313h-4q-70 -144 -183.5 -231.5t-234.5 -87.5z" />
    <glyph glyph-name="v" unicode="v" horiz-adv-x="962" 
d="M375 -6q-142 0 -203 99.5t-33 322.5l72 575h45l-74 -573q-7 -77 -7.5 -135t11.5 -100.5t28.5 -70t43 -44t54.5 -23t63 -6.5q134 0 262 132t184 341q58 236 13 479h49q38 -260 -21 -497q-33 -125 -91.5 -224.5t-127 -157.5t-137 -88t-131.5 -30z" />
    <glyph glyph-name="w" unicode="w" horiz-adv-x="1566" 
d="M387 -6q-304 0 -250 401l76 596h45l-76 -594q-8 -72 -8 -126.5t13.5 -94.5t31.5 -66.5t45.5 -42t56.5 -22t64 -6.5q55 0 119 40.5t120.5 108t99.5 164t56 199.5l54 440h45l-70 -573q-8 -77 -8.5 -135t11 -100.5t27.5 -70t41.5 -44t51.5 -23t59 -6.5q127 0 255 133
t179 340q58 236 13 479h49q39 -267 -21 -497q-33 -125 -91.5 -224.5t-126 -157.5t-133.5 -88t-124 -30q-241 0 -233 319h-4q-69 -142 -171.5 -230.5t-195.5 -88.5z" />
    <glyph glyph-name="x" unicode="x" horiz-adv-x="882" 
d="M10 0l404 496l-285 495h55l258 -452h9l366 452h60l-406 -497l281 -494h-54l-258 453h-4l-368 -453h-58z" />
    <glyph glyph-name="y" unicode="y" horiz-adv-x="1042" 
d="M899 991h45l-104 -856q-16 -131 -50.5 -229t-79 -158t-105 -96.5t-120.5 -50t-133 -13.5q-149 0 -301 76l15 47q142 -78 290 -78q64 0 117.5 12t108.5 46t95.5 89t72.5 146t47 213l20 176h-4q-69 -145 -183 -233t-235 -88q-155 0 -223.5 96t-40.5 305l80 596h45l-80 -594
q-14 -86 -6.5 -148t23.5 -102.5t49 -64.5t70 -33.5t85 -9.5q99 0 197 70t167 189.5t85 254.5z" />
    <glyph glyph-name="z" unicode="z" horiz-adv-x="833" 
d="M698 -43q-98 30 -229 36.5t-465 6.5l4 45l740 899v2h-607l6 45h664l-4 -41l-737 -901v-4q199 0 289 -1.5t191.5 -11.5t162.5 -30z" />
    <glyph glyph-name="braceleft" unicode="{" horiz-adv-x="561" 
d="M297 -287q-76 0 -120 49t-34 136l64 514q5 26 2.5 51t-11 45t-36.5 34.5t-76 18.5l4 45q49 6 81 19.5t47 37t20.5 43.5t9.5 54l67 538q9 79 61.5 132t135.5 53h53l-6 -43h-51q-58 0 -101.5 -40t-52.5 -108l-63 -524q-10 -86 -37 -127.5t-98 -54.5v-4q66 -13 83 -55.5
t7 -129.5l-58 -465q-12 -97 16 -137.5t95 -40.5h53l-4 -41h-51z" />
    <glyph glyph-name="bar" unicode="|" horiz-adv-x="516" 
d="M145 -236l215 1745h46l-216 -1745h-45z" />
    <glyph glyph-name="braceright" unicode="}" horiz-adv-x="563" 
d="M20 -287l7 41h51q69 0 107.5 41.5t50.5 138.5l57 465q10 86 37.5 128t97.5 55v4q-65 13 -82 55.5t-6 128.5l63 524q9 68 -24 107t-92 39h-54l5 43h55q81 0 121.5 -54t31.5 -133l-67 -538q-3 -38 -2.5 -68.5t29.5 -53t92 -30.5l-4 -45q-40 -3 -68.5 -14t-44 -24t-25.5 -34
t-13 -37.5t-5 -41.5l-64 -514q-12 -87 -67 -135t-131 -48h-56z" />
    <glyph glyph-name="asciitilde" unicode="~" horiz-adv-x="1040" 
d="M707 473q-14 0 -29 2.5t-26.5 5t-26 9t-23 10.5t-23.5 13t-20.5 12.5t-20.5 13.5l-18 12q-94 61 -166 61q-105 0 -172 -125l-35 15q79 157 209 157q34 0 68 -10.5t53.5 -21t50.5 -29.5q7 -4 32.5 -20t33 -20.5t27.5 -15t31.5 -14t28 -7t32.5 -3.5q46 0 88.5 32t68.5 95
l37 -16q-36 -78 -90 -117t-110 -39z" />
    <glyph glyph-name="uni00A0" unicode="&#xa0;" horiz-adv-x="485" 
 />
    <glyph glyph-name="exclamdown" unicode="&#xa1;" horiz-adv-x="395" 
d="M248 999q25 0 39 -15t14 -40q0 -24 -15.5 -39.5t-39.5 -15.5q-23 0 -38 15t-15 38q0 25 16 41t39 16zM236 623l-134 -1139h-51l148 1139h37z" />
    <glyph glyph-name="cent" unicode="&#xa2;" horiz-adv-x="985" 
d="M678 1110q88 -5 166 -44t129 -114l-39 -28q-47 72 -120.5 106.5t-158.5 34.5q-143 0 -252 -77.5t-164 -203t-55 -276.5q0 -156 89.5 -256t226.5 -100q225 0 354 155l35 -26q-125 -157 -336 -175l-29 -235h-39l29 233h-20q-68 0 -131.5 27t-114.5 77t-82 128t-31 172
q0 160 60 294.5t176.5 218.5t267.5 89l31 256h39z" />
    <glyph glyph-name="sterling" unicode="&#xa3;" horiz-adv-x="1032" 
d="M37 0l6 47h172l88 721h-133l6 47h133l17 137q16 126 54.5 218.5t93 143t115 74t130.5 23.5q209 0 295 -203l-39 -28q-71 184 -256 184q-138 0 -229.5 -102.5t-116.5 -317.5l-17 -129h330l-6 -47h-330l-88 -721h666l-6 -47h-885z" />
    <glyph glyph-name="currency" unicode="&#xa4;" horiz-adv-x="917" 
d="M842 838q0 -88 -33.5 -168.5t-93.5 -139.5l119 -149l-31 -33l-121 154q-101 -82 -238 -82t-219 82l-155 -152l-27 33l156 152q-56 78 -56 188q0 188 119 317l-119 154l33 31l119 -152q108 90 242 90q131 0 217 -86l153 150l27 -31l-154 -152q62 -84 62 -206zM190 723
q0 -118 68.5 -187t185.5 -69q147 0 248 107.5t101 263.5q0 126 -70 201t-186 75q-146 0 -246.5 -113.5t-100.5 -277.5z" />
    <glyph glyph-name="yen" unicode="&#xa5;" horiz-adv-x="964" 
d="M1042 1407l-469 -717h301l-6 -45h-323l-21 -31l-20 -163h340l-6 -45h-340l-49 -406h-48l50 406h-351l6 45h351l20 163l-12 31h-334l6 45h309l-290 717h55l295 -735h2l481 735h53z" />
    <glyph glyph-name="brokenbar" unicode="&#xa6;" horiz-adv-x="518" 
d="M272 791l88 718h46l-89 -718h-45zM145 -233l91 725h47l-90 -725h-48z" />
    <glyph glyph-name="section" unicode="&#xa7;" horiz-adv-x="958" 
d="M537 827q144 -59 195 -93q112 -74 112 -191q0 -205 -230 -307q67 -40 103.5 -91.5t36.5 -126.5q0 -154 -101.5 -241.5t-267.5 -87.5q-112 0 -202 44.5t-142 133.5l35 35q39 -82 122 -123t185 -41q147 0 235.5 71t88.5 203q0 48 -16.5 85t-61.5 70t-71 47.5t-98 48.5
l-18 9q-11 5 -32 15q-50 23 -75 35.5t-64.5 35t-59.5 41t-42 45t-31 57.5t-9 68q0 102 62.5 181.5t164.5 113.5q-123 80 -123 209q0 143 98.5 234.5t237.5 91.5q90 0 174 -34.5t134 -90.5l-35 -35q-45 54 -120 83.5t-151 29.5q-118 0 -204 -75t-86 -198q0 -34 9 -63
t29.5 -53t39 -41t55 -36.5t58 -29.5t65.5 -29zM565 264q232 81 232 273q0 45 -17.5 79.5t-56 62.5t-73 46t-96.5 45q-21 9 -32 14q-80 35 -110 50q-105 -22 -170.5 -93.5t-65.5 -167.5q0 -36 13 -66.5t33 -52.5t56 -44.5t68.5 -39t82.5 -40.5q19 -9 28 -13q91 -45 108 -53z
" />
    <glyph glyph-name="dieresis" unicode="&#xa8;" horiz-adv-x="942" 
d="M428 1214q-23 0 -37 15.5t-14 40.5q0 23 15 39t38 16q25 0 40 -15t15 -38q0 -25 -16 -41.5t-41 -16.5zM700 1214q-23 0 -38 15.5t-15 40.5q0 23 16 39t39 16t38.5 -15t15.5 -38q0 -25 -16.5 -41.5t-39.5 -16.5z" />
    <glyph glyph-name="copyright" unicode="&#xa9;" horiz-adv-x="1363" 
d="M682 61q-161 0 -296 80.5t-212.5 216t-77.5 293.5t77.5 293.5t213 216t297.5 80.5q161 0 295 -80t210.5 -215.5t76.5 -294.5q0 -157 -77 -292.5t-212 -216.5t-295 -81zM682 106q147 0 271.5 74.5t196 199.5t71.5 271t-71 271t-195 199.5t-271 74.5q-148 0 -273.5 -74.5
t-197.5 -199.5t-72 -271q0 -147 71.5 -272t196 -199t273.5 -74zM698 315q-140 0 -232.5 87.5t-92.5 242.5q0 147 85.5 242.5t239.5 95.5t256 -125l-36 -29q-87 109 -220 109q-134 0 -207 -81t-73 -212q0 -135 78.5 -210t201.5 -75q139 0 220 109l36 -31q-97 -123 -256 -123z
" />
    <glyph glyph-name="ordfeminine" unicode="&#xaa;" horiz-adv-x="739" 
d="M383 811q-97 0 -154 63.5t-57 178.5q0 95 35.5 175t108.5 131.5t171 51.5q54 0 108.5 -17.5t88.5 -47.5h4l8 61h45l-73 -592h-43l18 166h-2q-43 -80 -110 -125t-148 -45zM387 858q98 0 179 81.5t98 207.5l18 139q-17 34 -70 57t-116 23q-125 0 -202 -87.5t-77 -223.5
q0 -92 44.5 -144.5t125.5 -52.5z" />
    <glyph glyph-name="guillemotleft" unicode="&#xab;" horiz-adv-x="751" 
d="M266 27l-186 473l301 469h45l-297 -469l182 -473h-45zM537 27l-187 473l301 469h45l-295 -469l181 -473h-45z" />
    <glyph glyph-name="logicalnot" unicode="&#xac;" horiz-adv-x="1095" 
d="M891 383l39 313h-760l6 45h803l-43 -358h-45z" />
    <glyph glyph-name="registered" unicode="&#xae;" horiz-adv-x="1363" 
d="M684 1241q161 0 295 -80t210.5 -215.5t76.5 -294.5q0 -157 -77 -292.5t-212 -216.5t-295 -81q-161 0 -296 80.5t-212.5 216t-77.5 293.5t77.5 293.5t213 216t297.5 80.5zM682 106q147 0 271.5 74.5t196 199.5t71.5 271t-71 271t-195 199.5t-271 74.5q-148 0 -273.5 -74.5
t-197.5 -199.5t-72 -271q0 -147 71.5 -272t196 -199t273.5 -74zM911 801q0 -171 -178 -191l207 -286h-55l-205 284h-143v-284h-45v663h215q103 0 153.5 -51.5t50.5 -134.5zM537 942v-291h157q172 0 172 150q0 67 -41 104t-112 37h-176z" />
    <glyph glyph-name="macron" unicode="&#xaf;" horiz-adv-x="905" 
d="M299 1241l6 47h490l-7 -47h-489z" />
    <glyph glyph-name="degree" unicode="&#xb0;" horiz-adv-x="759" 
d="M430 926q-101 0 -160 60.5t-59 158.5q0 132 81.5 224.5t203.5 92.5q97 0 160 -64t63 -169q0 -123 -82 -213t-207 -90zM430 973q101 0 171.5 74.5t70.5 181.5q0 85 -48 135.5t-128 50.5q-102 0 -171 -77.5t-69 -192.5q0 -82 46 -127t128 -45z" />
    <glyph glyph-name="plusminus" unicode="&#xb1;" horiz-adv-x="1081" 
d="M498 287l55 448h-403l6 45h403l55 451h45l-55 -451h400l-7 -45h-399l-55 -448h-45zM57 0l6 45h848l-6 -45h-848z" />
    <glyph glyph-name="uni00B2" unicode="&#xb2;" horiz-adv-x="616" 
d="M98 893l6 37l340 305q82 74 126 140.5t44 148.5q0 79 -42.5 126.5t-122.5 47.5q-63 0 -127 -37.5t-99 -104.5l-35 27q39 72 112.5 116t150.5 44q91 0 149.5 -58t58.5 -157q0 -90 -47 -167t-135 -155l-303 -268l2 -2h424l-6 -43h-496z" />
    <glyph glyph-name="uni00B3" unicode="&#xb3;" horiz-adv-x="618" 
d="M358 887q-97 0 -161 41.5t-88 111.5l43 17q43 -125 208 -125q105 0 169.5 59.5t64.5 157.5q0 68 -51 114t-144 46h-75l4 45h88q92 0 150.5 55.5t58.5 140.5q0 72 -45 110t-129 38q-129 0 -209 -101l-37 27q94 119 248 119q96 0 156.5 -50t60.5 -139q0 -82 -40.5 -138
t-113.5 -81v-6q60 -21 91.5 -68.5t31.5 -111.5q0 -119 -80 -190.5t-201 -71.5z" />
    <glyph glyph-name="acute" unicode="&#xb4;" horiz-adv-x="968" 
d="M449 1122l260 277h63l-262 -277h-61z" />
    <glyph glyph-name="uni00B5" unicode="&#xb5;" horiz-adv-x="1091" 
d="M1001 51l13 -45q-41 -12 -84 -12q-52 0 -83.5 18.5t-42.5 50t-13.5 73t4.5 87.5l4 37h-2q-64 -130 -168 -198t-221 -68q-89 0 -150.5 45t-87.5 135h-4q-9 -109 -21 -211l-45 -369h-45l172 1397h45l-75 -608q-11 -78 -2 -136t28.5 -97.5t50.5 -64t64.5 -35.5t71.5 -11
q150 0 271.5 128t149.5 353l60 471h45l-94 -749q-6 -59 -7 -104t24 -72t79 -27q26 0 63 12z" />
    <glyph glyph-name="paragraph" unicode="&#xb6;" horiz-adv-x="704" 
d="M365 -303l190 1544h-104l-154 -1241h-45l104 854q-83 0 -136.5 46.5t-53.5 129.5q0 107 70.5 182.5t185.5 75.5h182l-194 -1591h-45z" />
    <glyph glyph-name="periodcentered" unicode="&#xb7;" horiz-adv-x="329" 
d="M170 434q-25 0 -39 15t-14 40q0 24 15.5 40t39.5 16q23 0 38 -15t15 -38q0 -25 -16 -41.5t-39 -16.5z" />
    <glyph glyph-name="cedilla" unicode="&#xb8;" horiz-adv-x="657" 
d="M180 -371q-38 0 -78 9l7 45q38 -9 71 -9q67 0 107.5 33t40.5 94q0 78 -144 84l9 43l45 84h45l-50 -88l3 -2q137 -13 137 -121q0 -80 -55 -126t-138 -46z" />
    <glyph glyph-name="uni00B9" unicode="&#xb9;" horiz-adv-x="432" 
d="M403 1735h37l-104 -842h-43l96 776l-201 -137l-20 37z" />
    <glyph glyph-name="ordmasculine" unicode="&#xba;" horiz-adv-x="733" 
d="M408 811q-107 0 -171.5 65.5t-64.5 182.5q0 144 87 248t220 104q107 0 170.5 -62.5t63.5 -177.5q0 -153 -85.5 -256.5t-219.5 -103.5zM410 858q112 0 184 87t72 222q0 95 -49 147t-140 52q-110 0 -185 -87.5t-75 -217.5q0 -95 51 -149t142 -54z" />
    <glyph glyph-name="guillemotright" unicode="&#xbb;" horiz-adv-x="753" 
d="M57 27l297 473l-182 469h47l184 -469l-301 -473h-45zM328 27l297 473l-181 469h45l187 -469l-303 -473h-45z" />
    <glyph glyph-name="onequarter" unicode="&#xbc;" horiz-adv-x="1273" 
d="M977 1470l41 -18l-744 -1466l-41 16zM258 612l96 777l-200 -138l-21 37l236 166h37l-105 -842h-43zM1061 201h127l-6 -43h-127l-19 -158h-43l19 158h-402l6 41l488 643h37zM1018 201l65 544l-407 -544h342z" />
    <glyph glyph-name="onehalf" unicode="&#xbd;" horiz-adv-x="1339" 
d="M977 1470l41 -18l-744 -1466l-41 16zM258 612l96 777l-200 -138l-21 37l236 166h37l-105 -842h-43zM786 45l2 -2h424l-6 -43h-495l6 37l340 305q82 74 126 140.5t44 148.5q0 79 -43 126.5t-123 47.5q-63 0 -126.5 -37t-98.5 -104l-35 26q40 72 112.5 116t149.5 44
q91 0 150 -58t59 -157q0 -90 -47 -167t-135 -155z" />
    <glyph glyph-name="threequarters" unicode="&#xbe;" horiz-adv-x="1431" 
d="M1135 1470l41 -18l-744 -1466l-41 16zM604 868q0 -119 -79.5 -190.5t-200.5 -71.5q-97 0 -161.5 42t-88.5 112l43 16q43 -125 209 -125q105 0 169 59.5t64 157.5q0 68 -50.5 114t-143.5 46h-76l4 45h88q92 0 150.5 56t58.5 141q0 72 -45 109.5t-129 37.5
q-129 0 -209 -100l-37 26q94 119 248 119q96 0 156.5 -49.5t60.5 -138.5q0 -82 -40.5 -138t-113.5 -81v-6q60 -21 91.5 -69t31.5 -112zM1219 201h127l-7 -43h-127l-18 -158h-43l18 158h-401l6 41l488 643h36zM1176 201l65 544l-407 -544h342z" />
    <glyph glyph-name="questiondown" unicode="&#xbf;" horiz-adv-x="718" 
d="M492 999q25 0 39 -15t14 -40q0 -24 -15.5 -39.5t-40.5 -15.5q-23 0 -38 15t-15 38q0 24 16 40.5t40 16.5zM489 631l-16 -121q-3 -24 -10 -48t-14.5 -42.5t-23.5 -42t-26 -38t-32.5 -39.5t-33.5 -36.5t-38 -39t-37 -38.5q-106 -111 -155.5 -199.5t-49.5 -205.5
q0 -124 68 -190t180 -66q94 0 176.5 45.5t138.5 130.5l29 -33q-68 -94 -159.5 -143t-190.5 -49q-134 0 -211.5 87t-77.5 228q0 65 16.5 123t51 112t68.5 95t87 96q11 11 41 42t41.5 43t34.5 38t33 41.5t23.5 38.5t20 44t9.5 44l17 123h40z" />
    <glyph glyph-name="Agrave" unicode="&#xc0;" horiz-adv-x="1198" 
d="M711 1628l-201 254h59l199 -254h-57zM0 0l684 1454h55l336 -1454h-49l-98 432h-674l-203 -432h-51zM276 479h642l-209 914h-4z" />
    <glyph glyph-name="Aacute" unicode="&#xc1;" horiz-adv-x="1198" 
d="M721 1628l260 254h59l-262 -254h-57zM0 0l684 1454h55l336 -1454h-49l-98 432h-674l-203 -432h-51zM276 479h642l-209 914h-4z" />
    <glyph glyph-name="Acircumflex" unicode="&#xc2;" horiz-adv-x="1198" 
d="M479 1628l264 223h48l192 -223h-57l-160 184h-4l-221 -184h-62zM0 0l684 1454h55l336 -1454h-49l-98 432h-674l-203 -432h-51zM276 479h642l-209 914h-4z" />
    <glyph glyph-name="Atilde" unicode="&#xc3;" horiz-adv-x="1198" 
d="M891 1628q-11 0 -22.5 2.5t-20.5 5t-21 9.5l-18 10.5t-19.5 14t-17 13.5t-17.5 15.5t-16 13.5q-68 57 -108 57q-81 0 -135 -127l-39 17q66 156 172 156q37 0 67 -17t66 -49q30 -27 43 -38t38 -24.5t46 -13.5q35 0 69.5 32.5t59.5 96.5l37 -18q-31 -77 -75.5 -116.5
t-88.5 -39.5zM0 0l684 1454h55l336 -1454h-49l-98 432h-674l-203 -432h-51zM276 479h642l-209 914h-4z" />
    <glyph glyph-name="Adieresis" unicode="&#xc4;" horiz-adv-x="1198" 
d="M612 1696q-23 0 -37 15t-14 40q0 23 15 39t38 16q25 0 40.5 -15t15.5 -38q0 -25 -16.5 -41t-41.5 -16zM885 1696q-23 0 -38.5 15t-15.5 40q0 23 16.5 39t39.5 16t38 -15t15 -38q0 -25 -16 -41t-39 -16zM0 0l684 1454h55l336 -1454h-49l-98 432h-674l-203 -432h-51z
M276 479h642l-209 914h-4z" />
    <glyph glyph-name="Aring" unicode="&#xc5;" horiz-adv-x="1198" 
d="M743 1612q-63 0 -104 42t-41 105q0 65 43 107.5t109 42.5q63 0 105 -41.5t42 -104.5q0 -65 -44 -108t-110 -43zM743 1659q47 0 78 29t31 75q0 44 -29 72.5t-73 28.5q-46 0 -76.5 -29.5t-30.5 -75.5q0 -44 28.5 -72t71.5 -28zM0 0l684 1454h55l336 -1454h-49l-98 432h-674
l-203 -432h-51zM276 479h642l-209 914h-4z" />
    <glyph glyph-name="AE" unicode="&#xc6;" horiz-adv-x="1687" 
d="M-49 0l938 1454h786l-6 -47h-715l-77 -657h604l-4 -48h-607l-79 -655h749l-4 -47h-799l54 432h-506l-279 -432h-55zM313 477h484l110 920h-2z" />
    <glyph glyph-name="Ccedilla" unicode="&#xc7;" horiz-adv-x="1370" 
d="M881 1415q-146 0 -274.5 -68t-215.5 -180t-137.5 -257.5t-50.5 -299.5q0 -264 134 -416.5t365 -152.5q124 0 251.5 56.5t226.5 164.5l37 -29q-99 -109 -236 -174t-281 -65l-38 -70l2 -2q137 -13 137 -121q0 -80 -55 -126t-138 -46q-38 0 -78 9l7 45q37 -9 71 -9
q67 0 107.5 33t40.5 94q0 78 -144 84l9 43l36 68q-231 15 -367 179t-136 433q0 165 54.5 320.5t148.5 273.5t230.5 189t291.5 71q303 0 495 -313l-41 -27q-93 157 -201 225t-251 68z" />
    <glyph glyph-name="Egrave" unicode="&#xc8;" horiz-adv-x="1085" 
d="M801 1634l-201 254h59l199 -254h-57zM133 0l178 1454h760l-4 -47h-715l-80 -655h598l-4 -47h-600l-80 -658h752l-4 -47h-801z" />
    <glyph glyph-name="Eacute" unicode="&#xc9;" horiz-adv-x="1085" 
d="M600 1634l260 254h60l-263 -254h-57zM133 0l178 1454h760l-4 -47h-715l-80 -655h598l-4 -47h-600l-80 -658h752l-4 -47h-801z" />
    <glyph glyph-name="Ecircumflex" unicode="&#xca;" horiz-adv-x="1085" 
d="M477 1634l264 224h47l193 -224h-57l-160 185h-4l-221 -185h-62zM133 0l178 1454h760l-4 -47h-715l-80 -655h598l-4 -47h-600l-80 -658h752l-4 -47h-801z" />
    <glyph glyph-name="Edieresis" unicode="&#xcb;" horiz-adv-x="1085" 
d="M610 1702q-23 0 -37 15t-14 40q0 23 15 39t38 16q25 0 40.5 -15t15.5 -38q0 -25 -16.5 -41t-41.5 -16zM883 1702q-23 0 -38.5 15t-15.5 40q0 23 16.5 39t39.5 16t38 -15t15 -38q0 -25 -16 -41t-39 -16zM133 0l178 1454h760l-4 -47h-715l-80 -655h598l-4 -47h-600
l-80 -658h752l-4 -47h-801z" />
    <glyph glyph-name="Igrave" unicode="&#xcc;" horiz-adv-x="462" 
d="M338 1628l-201 254h60l198 -254h-57zM147 0l179 1454h47l-178 -1454h-48z" />
    <glyph glyph-name="Iacute" unicode="&#xcd;" horiz-adv-x="462" 
d="M348 1628l260 254h60l-262 -254h-58zM147 0l179 1454h47l-178 -1454h-48z" />
    <glyph glyph-name="Icircumflex" unicode="&#xce;" horiz-adv-x="462" 
d="M115 1628l264 223h47l192 -223h-57l-160 184h-4l-221 -184h-61zM147 0l179 1454h47l-178 -1454h-48z" />
    <glyph glyph-name="Idieresis" unicode="&#xcf;" horiz-adv-x="462" 
d="M248 1696q-23 0 -37 15t-14 40q0 23 15 39t38 16q25 0 40 -15t15 -38q0 -25 -16 -41t-41 -16zM520 1696q-23 0 -38 15t-15 40q0 23 16 39t39 16t38 -15t15 -38q0 -25 -16 -41t-39 -16zM147 0l179 1454h47l-178 -1454h-48z" />
    <glyph glyph-name="Eth" unicode="&#xd0;" horiz-adv-x="1349" 
d="M674 1454q277 0 428 -156.5t151 -433.5q0 -249 -97 -445.5t-275 -307.5t-406 -111h-342l86 709h-174l8 47h172l86 698h363zM473 47q214 0 381.5 105.5t258.5 290.5t91 417q0 258 -137 402.5t-395 144.5h-318l-80 -651h390l-5 -47h-391l-82 -662h287z" />
    <glyph glyph-name="Ntilde" unicode="&#xd1;" horiz-adv-x="1400" 
d="M995 1628q-11 0 -22.5 2.5t-20.5 5.5t-20.5 9.5t-18.5 10.5t-19 13.5t-16.5 13.5t-17.5 15t-16 14q-68 57 -109 57q-81 0 -135 -127l-39 17q66 156 172 156q37 0 67 -17t66 -49q30 -27 43 -38t38 -24.5t46 -13.5q35 0 69.5 32.5t59.5 96.5l37 -18q-31 -77 -75.5 -116.5
t-88.5 -39.5zM133 0l178 1454h41l754 -1366h4l166 1366h47l-178 -1454h-45l-750 1362h-4l-166 -1362h-47z" />
    <glyph glyph-name="Ograve" unicode="&#xd2;" horiz-adv-x="1536" 
d="M944 1628l-201 254h60l198 -254h-57zM711 -6q-257 0 -410.5 160.5t-153.5 443.5q0 169 53.5 326t148 276t234 190.5t300.5 71.5q257 0 410 -158t153 -446q0 -139 -32.5 -268t-96.5 -237t-152 -188.5t-205 -125.5t-249 -45zM711 41q154 0 284.5 66t217.5 177.5
t135.5 259.5t48.5 312q0 267 -137 413t-379 146q-151 0 -281 -68t-217 -181t-136.5 -260.5t-49.5 -307.5q0 -262 138 -409.5t376 -147.5z" />
    <glyph glyph-name="Oacute" unicode="&#xd3;" horiz-adv-x="1536" 
d="M911 1628l260 254h60l-262 -254h-58zM711 -6q-257 0 -410.5 160.5t-153.5 443.5q0 169 53.5 326t148 276t234 190.5t300.5 71.5q257 0 410 -158t153 -446q0 -139 -32.5 -268t-96.5 -237t-152 -188.5t-205 -125.5t-249 -45zM711 41q154 0 284.5 66t217.5 177.5
t135.5 259.5t48.5 312q0 267 -137 413t-379 146q-151 0 -281 -68t-217 -181t-136.5 -260.5t-49.5 -307.5q0 -262 138 -409.5t376 -147.5z" />
    <glyph glyph-name="Ocircumflex" unicode="&#xd4;" horiz-adv-x="1536" 
d="M684 1628l264 223h47l193 -223h-58l-159 184h-4l-222 -184h-61zM711 -6q-257 0 -410.5 160.5t-153.5 443.5q0 169 53.5 326t148 276t234 190.5t300.5 71.5q257 0 410 -158t153 -446q0 -139 -32.5 -268t-96.5 -237t-152 -188.5t-205 -125.5t-249 -45zM711 41
q154 0 284.5 66t217.5 177.5t135.5 259.5t48.5 312q0 267 -137 413t-379 146q-151 0 -281 -68t-217 -181t-136.5 -260.5t-49.5 -307.5q0 -262 138 -409.5t376 -147.5z" />
    <glyph glyph-name="Otilde" unicode="&#xd5;" horiz-adv-x="1536" 
d="M1096 1628q-11 0 -22.5 2.5t-20.5 5t-21 9.5l-18 10.5t-19.5 14t-17 13.5t-17.5 15.5t-16 13.5q-68 57 -108 57q-82 0 -136 -127l-38 17q66 156 172 156q37 0 67 -17t66 -49q30 -27 43 -38t38 -24.5t46 -13.5q35 0 69.5 32.5t59.5 96.5l37 -18q-31 -77 -75.5 -116.5
t-88.5 -39.5zM711 -6q-257 0 -410.5 160.5t-153.5 443.5q0 169 53.5 326t148 276t234 190.5t300.5 71.5q257 0 410 -158t153 -446q0 -139 -32.5 -268t-96.5 -237t-152 -188.5t-205 -125.5t-249 -45zM711 41q154 0 284.5 66t217.5 177.5t135.5 259.5t48.5 312q0 267 -137 413
t-379 146q-151 0 -281 -68t-217 -181t-136.5 -260.5t-49.5 -307.5q0 -262 138 -409.5t376 -147.5z" />
    <glyph glyph-name="Odieresis" unicode="&#xd6;" horiz-adv-x="1536" 
d="M817 1696q-23 0 -37 15t-14 40q0 23 15 39t38 16q25 0 40 -15t15 -38q0 -25 -16 -41t-41 -16zM1090 1696q-24 0 -39 15t-15 40q0 23 16.5 39t39.5 16t38 -15t15 -38q0 -25 -16 -41t-39 -16zM711 -6q-257 0 -410.5 160.5t-153.5 443.5q0 169 53.5 326t148 276t234 190.5
t300.5 71.5q257 0 410 -158t153 -446q0 -139 -32.5 -268t-96.5 -237t-152 -188.5t-205 -125.5t-249 -45zM711 41q154 0 284.5 66t217.5 177.5t135.5 259.5t48.5 312q0 267 -137 413t-379 146q-151 0 -281 -68t-217 -181t-136.5 -260.5t-49.5 -307.5q0 -262 138 -409.5
t376 -147.5z" />
    <glyph glyph-name="multiply" unicode="&#xd7;" horiz-adv-x="923" 
d="M125 199l-31 30l344 336l-260 336l35 33l258 -336l344 336l29 -31l-344 -338l260 -336l-35 -30l-260 333z" />
    <glyph glyph-name="Oslash" unicode="&#xd8;" horiz-adv-x="1550" 
d="M1481 1427l-150 -167q115 -155 115 -402q0 -139 -32.5 -268t-96.5 -237t-152 -188.5t-205 -125.5t-249 -45q-238 0 -385 135l-131 -147l-33 30l133 150q-148 161 -148 436q0 169 53.5 326t148 276t234 190.5t300.5 71.5q273 0 420 -170l145 164zM197 598q0 -250 129 -401
l944 1060q-136 158 -389 158q-151 0 -281 -68t-217 -181t-136.5 -260.5t-49.5 -307.5zM1397 856q0 222 -99 367l-940 -1057q134 -125 353 -125q154 0 284.5 66t217.5 177.5t135.5 259.5t48.5 312z" />
    <glyph glyph-name="Ugrave" unicode="&#xd9;" horiz-adv-x="1308" 
d="M786 1620l-200 254h59l199 -254h-58zM586 -6q-160 0 -258.5 74.5t-132 204t-11.5 309.5l109 872h47l-109 -874q-32 -253 57 -396t300 -143q214 0 346.5 133t165.5 397l106 883h47l-108 -885q-35 -287 -178.5 -431t-380.5 -144z" />
    <glyph glyph-name="Uacute" unicode="&#xda;" horiz-adv-x="1308" 
d="M731 1628l260 254h60l-263 -254h-57zM586 -6q-160 0 -258.5 74.5t-132 204t-11.5 309.5l109 872h47l-109 -874q-32 -253 57 -396t300 -143q214 0 346.5 133t165.5 397l106 883h47l-108 -885q-35 -287 -178.5 -431t-380.5 -144z" />
    <glyph glyph-name="Ucircumflex" unicode="&#xdb;" horiz-adv-x="1308" 
d="M537 1628l264 223h47l192 -223h-57l-160 184h-4l-221 -184h-61zM586 -6q-160 0 -258.5 74.5t-132 204t-11.5 309.5l109 872h47l-109 -874q-32 -253 57 -396t300 -143q214 0 346.5 133t165.5 397l106 883h47l-108 -885q-35 -287 -178.5 -431t-380.5 -144z" />
    <glyph glyph-name="Udieresis" unicode="&#xdc;" horiz-adv-x="1308" 
d="M670 1696q-23 0 -37.5 15t-14.5 40q0 23 15.5 39t38.5 16q25 0 40 -15t15 -38q0 -25 -16 -41t-41 -16zM942 1696q-23 0 -38 15t-15 40q0 23 16 39t39 16t38 -15t15 -38q0 -25 -16 -41t-39 -16zM586 -6q-160 0 -258.5 74.5t-132 204t-11.5 309.5l109 872h47l-109 -874
q-32 -253 57 -396t300 -143q214 0 346.5 133t165.5 397l106 883h47l-108 -885q-35 -287 -178.5 -431t-380.5 -144z" />
    <glyph glyph-name="Yacute" unicode="&#xdd;" horiz-adv-x="1036" 
d="M606 1628l260 254h60l-262 -254h-58zM434 0l80 662l-356 792h51l332 -735h4l516 735h55l-555 -792l-80 -662h-47z" />
    <glyph glyph-name="Thorn" unicode="&#xde;" horiz-adv-x="1144" 
d="M133 0l178 1454h45l-37 -321h412q174 0 265 -90t91 -248q0 -220 -129.5 -357t-351.5 -137h-389l-37 -301h-47zM223 348h385q201 0 315.5 124.5t114.5 322.5q0 150 -84.5 220t-226.5 70h-414z" />
    <glyph glyph-name="germandbls" unicode="&#xdf;" horiz-adv-x="1146" 
d="M760 -6q-120 0 -196.5 36t-137.5 101l33 39q38 -42 67.5 -66t90.5 -44.5t143 -20.5q124 0 198 60.5t76 162.5q0 45 -15.5 80t-52 66.5t-71.5 53t-98 54.5q-53 28 -78.5 42.5t-63.5 42t-55 51t-29.5 59t-9.5 77.5q2 23 10 45t18 39t30 36.5t33.5 31t41.5 30t42 27t46.5 27
t44.5 25.5q81 50 125.5 102t44.5 123q0 89 -83.5 141.5t-231.5 52.5q-48 0 -95.5 -10t-96 -34t-87 -60.5t-67 -93.5t-37.5 -129l-139 -1141h-45l141 1153q11 93 53 165t103.5 114t130 63t141.5 21q161 0 259.5 -64.5t98.5 -173.5q0 -88 -51 -149.5t-145 -118.5
q-15 -9 -54.5 -32.5t-56 -34t-46 -32t-42.5 -38t-25 -39.5t-14 -48q-3 -33 7 -61.5t24 -48t43.5 -41t50 -33.5t59.5 -33q10 -5 15 -8q58 -31 88.5 -48.5t72 -47.5t61.5 -56t35 -63.5t15 -81.5q0 -128 -91 -199t-228 -71z" />
    <glyph glyph-name="agrave" unicode="&#xe0;" horiz-adv-x="1087" 
d="M672 1149l-197 276h60l194 -276h-57zM438 -6q-157 0 -248.5 111t-91.5 282q0 167 63 306t182 222.5t271 83.5q93 0 181 -34t137 -91l4 3l14 114h45l-121 -991h-45l39 315h-4q-69 -145 -177.5 -233t-248.5 -88zM440 39q90 0 172 48t140 126.5t97 175.5t52 199l29 223
q-37 55 -101.5 89t-117 44t-101.5 10q-138 0 -245.5 -78.5t-164.5 -207.5t-57 -283t78 -250t219 -96z" />
    <glyph glyph-name="aacute" unicode="&#xe1;" horiz-adv-x="1087" 
d="M598 1149l260 276h64l-263 -276h-61zM438 -6q-157 0 -248.5 111t-91.5 282q0 167 63 306t182 222.5t271 83.5q93 0 181 -34t137 -91l4 3l14 114h45l-121 -991h-45l39 315h-4q-69 -145 -177.5 -233t-248.5 -88zM440 39q90 0 172 48t140 126.5t97 175.5t52 199l29 223
q-37 55 -101.5 89t-117 44t-101.5 10q-138 0 -245.5 -78.5t-164.5 -207.5t-57 -283t78 -250t219 -96z" />
    <glyph glyph-name="acircumflex" unicode="&#xe2;" horiz-adv-x="1087" 
d="M446 1147l259 278h47l196 -278h-57l-162 242h-2l-223 -242h-58zM438 -6q-157 0 -248.5 111t-91.5 282q0 167 63 306t182 222.5t271 83.5q93 0 181 -34t137 -91l4 3l14 114h45l-121 -991h-45l39 315h-4q-69 -145 -177.5 -233t-248.5 -88zM440 39q90 0 172 48t140 126.5
t97 175.5t52 199l29 223q-37 55 -101.5 89t-117 44t-101.5 10q-138 0 -245.5 -78.5t-164.5 -207.5t-57 -283t78 -250t219 -96z" />
    <glyph glyph-name="atilde" unicode="&#xe3;" horiz-adv-x="1087" 
d="M846 1190q-28 0 -59 15t-49.5 30t-45.5 41q-66 55 -106 55q-81 0 -135 -127l-39 17q65 155 172 155q61 0 133 -65q4 -4 17 -15t18.5 -15.5t17 -13.5t19 -13.5t17.5 -9.5t19.5 -7t18.5 -2q35 0 69.5 32.5t59.5 96.5l37 -18q-31 -77 -75.5 -116.5t-88.5 -39.5zM438 -6
q-157 0 -248.5 111t-91.5 282q0 167 63 306t182 222.5t271 83.5q93 0 181 -34t137 -91l4 3l14 114h45l-121 -991h-45l39 315h-4q-69 -145 -177.5 -233t-248.5 -88zM440 39q90 0 172 48t140 126.5t97 175.5t52 199l29 223q-37 55 -101.5 89t-117 44t-101.5 10
q-138 0 -245.5 -78.5t-164.5 -207.5t-57 -283t78 -250t219 -96z" />
    <glyph glyph-name="adieresis" unicode="&#xe4;" horiz-adv-x="1087" 
d="M573 1241q-23 0 -37 15t-14 40q0 24 15 40t38 16q25 0 40.5 -15.5t15.5 -38.5q0 -25 -16.5 -41t-41.5 -16zM846 1241q-23 0 -38 15t-15 40q0 23 16 39.5t39 16.5t38 -15.5t15 -38.5q0 -25 -16 -41t-39 -16zM438 -6q-157 0 -248.5 111t-91.5 282q0 167 63 306t182 222.5
t271 83.5q93 0 181 -34t137 -91l4 3l14 114h45l-121 -991h-45l39 315h-4q-69 -145 -177.5 -233t-248.5 -88zM440 39q90 0 172 48t140 126.5t97 175.5t52 199l29 223q-37 55 -101.5 89t-117 44t-101.5 10q-138 0 -245.5 -78.5t-164.5 -207.5t-57 -283t78 -250t219 -96z" />
    <glyph glyph-name="aring" unicode="&#xe5;" horiz-adv-x="1087" 
d="M705 1145q-63 0 -104.5 42t-41.5 105q0 65 43 107.5t109 42.5q63 0 105 -41.5t42 -104.5q0 -65 -43.5 -108t-109.5 -43zM705 1192q47 0 77.5 29t30.5 75q0 44 -29 72.5t-73 28.5q-46 0 -76.5 -29.5t-30.5 -75.5q0 -44 29 -72t72 -28zM438 -6q-157 0 -248.5 111t-91.5 282
q0 167 63 306t182 222.5t271 83.5q93 0 181 -34t137 -91l4 3l14 114h45l-121 -991h-45l39 315h-4q-69 -145 -177.5 -233t-248.5 -88zM440 39q90 0 172 48t140 126.5t97 175.5t52 199l29 223q-37 55 -101.5 89t-117 44t-101.5 10q-138 0 -245.5 -78.5t-164.5 -207.5t-57 -283
t78 -250t219 -96z" />
    <glyph glyph-name="ae" unicode="&#xe6;" horiz-adv-x="1404" 
d="M995 39q75 0 155 42.5t136 115.5l37 -27q-61 -79 -150.5 -127.5t-177.5 -48.5q-152 0 -244 82.5t-114 228.5q-50 -143 -137.5 -228t-188.5 -85q-112 0 -184 98t-72 264q0 94 23 186t69 173.5t110 144t153 99t190 36.5q67 0 139 -19.5t119 -58.5q120 84 279 84
q116 0 182.5 -57.5t66.5 -153.5q0 -85 -61.5 -155.5t-164.5 -116t-226 -73.5t-258 -37v-7q0 -170 83 -265t236 -95zM1341 791q0 47 -19.5 80.5t-52.5 50t-65 23.5t-67 7q-139 0 -242 -69t-156 -180.5t-61 -251.5q126 8 242.5 33.5t211.5 66.5t152 103.5t57 136.5zM313 37
q74 0 141 59.5t111.5 148.5t65.5 191q6 139 55 256.5t135 194.5q-81 61 -223 61q-96 0 -178.5 -36.5t-140 -96.5t-98 -138t-60 -161t-19.5 -166q0 -144 60 -228.5t151 -84.5z" />
    <glyph glyph-name="ccedilla" unicode="&#xe7;" horiz-adv-x="972" 
d="M616 999q93 0 178.5 -39t139.5 -118l-39 -31q-47 72 -121 107.5t-158 35.5q-143 0 -252.5 -78t-165 -204t-55.5 -277q0 -156 91.5 -256t230.5 -100q222 0 350 158l35 -27q-131 -167 -361 -176l-38 -70l2 -2q137 -13 137 -121q0 -80 -55 -126t-138 -46q-37 0 -78 9l7 45
q38 -9 71 -9q67 0 107.5 33t40.5 94q0 78 -144 84l9 43l34 66q-68 2 -130.5 30t-111 77t-77.5 125.5t-29 168.5q0 122 36.5 232t102 192.5t164.5 131t217 48.5z" />
    <glyph glyph-name="egrave" unicode="&#xe8;" horiz-adv-x="940" 
d="M700 1149h-57l-197 276h60zM477 39q180 0 316 158l34 -27q-140 -176 -350 -176q-170 0 -275.5 110.5t-105.5 298.5q0 162 65 298t182.5 217t262.5 81q31 0 64.5 -5.5t74 -21.5t71.5 -41t52 -69t21 -100q0 -302 -748 -354v-5q0 -169 92 -266.5t244 -97.5zM606 954
q-188 0 -318 -145t-145 -356q699 48 699 305q0 47 -17 83.5t-42.5 57.5t-59 34t-61.5 17t-56 4z" />
    <glyph glyph-name="eacute" unicode="&#xe9;" horiz-adv-x="940" 
d="M920 1425l-263 -276h-61l260 276h64zM889 762q0 -302 -748 -354v-5q0 -169 92 -266.5t244 -97.5q180 0 316 158l34 -27q-140 -176 -350 -176q-170 0 -275.5 110.5t-105.5 298.5q0 162 65 298t182.5 217t262.5 81q31 0 64.5 -5.5t74 -21.5t71.5 -41t52 -69t21 -100z
M606 954q-188 0 -318 -145t-145 -356q699 48 699 305q0 47 -17 83.5t-42.5 57.5t-59 34t-61.5 17t-56 4z" />
    <glyph glyph-name="ecircumflex" unicode="&#xea;" horiz-adv-x="940" 
d="M635 1389l-223 -242h-58l258 278h47l197 -278h-57l-162 242h-2zM477 39q180 0 316 158l34 -27q-140 -176 -350 -176q-170 0 -275.5 110.5t-105.5 298.5q0 162 65 298t182.5 217t262.5 81q31 0 64.5 -5.5t74 -21.5t71.5 -41t52 -69t21 -100q0 -302 -748 -354v-5
q0 -169 92 -266.5t244 -97.5zM606 954q-188 0 -318 -145t-145 -356q699 48 699 305q0 47 -17 83.5t-42.5 57.5t-59 34t-61.5 17t-56 4z" />
    <glyph glyph-name="edieresis" unicode="&#xeb;" horiz-adv-x="940" 
d="M481 1241q-23 0 -37 15t-14 40q0 24 15 40t38 16q25 0 40.5 -15.5t15.5 -38.5q0 -25 -16.5 -41t-41.5 -16zM754 1241q-24 0 -39 15.5t-15 39.5q0 23 16.5 39.5t39.5 16.5t38 -15.5t15 -38.5q0 -25 -16 -41t-39 -16zM477 39q180 0 316 158l34 -27q-140 -176 -350 -176
q-170 0 -275.5 110.5t-105.5 298.5q0 162 65 298t182.5 217t262.5 81q31 0 64.5 -5.5t74 -21.5t71.5 -41t52 -69t21 -100q0 -302 -748 -354v-5q0 -169 92 -266.5t244 -97.5zM606 954q-188 0 -318 -145t-145 -356q699 48 699 305q0 47 -17 83.5t-42.5 57.5t-59 34t-61.5 17
t-56 4z" />
    <glyph glyph-name="igrave" unicode="&#xec;" horiz-adv-x="419" 
d="M250 1151l-135 276h55l133 -276h-53zM127 0l121 991h45l-123 -991h-43z" />
    <glyph glyph-name="iacute" unicode="&#xed;" horiz-adv-x="419" 
d="M281 1149l260 276h63l-262 -276h-61zM127 0l121 991h45l-123 -991h-43z" />
    <glyph glyph-name="icircumflex" unicode="&#xee;" horiz-adv-x="419" 
d="M39 1147l258 278h47l197 -278h-58l-161 242h-3l-223 -242h-57zM127 0l121 991h45l-123 -991h-43z" />
    <glyph glyph-name="idieresis" unicode="&#xef;" horiz-adv-x="419" 
d="M166 1241q-23 0 -37 15t-14 40q0 24 15 40t38 16q24 0 39.5 -15t15.5 -39q0 -25 -16 -41t-41 -16zM438 1241q-23 0 -38 15t-15 40q0 23 16 39.5t39 16.5t38.5 -15.5t15.5 -38.5q0 -24 -16 -40.5t-40 -16.5zM127 0l121 991h45l-123 -991h-43z" />
    <glyph glyph-name="eth" unicode="&#xf0;" horiz-adv-x="1101" 
d="M901 1112q113 -209 113 -463q0 -182 -62.5 -330t-182.5 -236.5t-277 -88.5q-182 0 -290 110.5t-108 301.5q0 161 65 296t186 216t273 81q92 0 181.5 -37.5t146.5 -103.5q-25 129 -82 232q-60 111 -149 200l-160 -170l-29 27l160 170q-110 104 -244 156l17 40
q145 -56 258 -163l164 174l28 -29l-164 -172q88 -88 156 -211zM492 39q110 0 201.5 49t150.5 133t91 193.5t32 232.5q0 67 -9 131q-44 64 -111 105.5t-122.5 55t-106.5 13.5q-140 0 -250 -74.5t-168.5 -198.5t-58.5 -273q0 -171 94.5 -269t256.5 -98z" />
    <glyph glyph-name="ntilde" unicode="&#xf1;" horiz-adv-x="1089" 
d="M817 1190q-28 0 -58.5 15t-49 30t-45.5 41q-66 55 -107 55q-81 0 -135 -127l-39 17q65 155 172 155q61 0 133 -65q4 -4 17 -15t18.5 -15.5t17 -13.5t19 -13.5t17.5 -9.5t19.5 -7t18.5 -2q35 0 69.5 32.5t59.5 96.5l37 -18q-31 -77 -75.5 -116.5t-88.5 -39.5zM115 0
l123 991h45l-41 -323h4q74 148 200 239.5t256 91.5q298 0 246 -403l-78 -596h-45l78 596q13 86 6 147.5t-22 102t-45.5 64t-64 33t-77.5 9.5q-78 0 -160 -40.5t-149.5 -108.5t-116 -166t-61.5 -205l-53 -432h-45z" />
    <glyph glyph-name="ograve" unicode="&#xf2;" horiz-adv-x="1095" 
d="M664 1149l-197 276h59l195 -276h-57zM492 -6q-180 0 -289 109.5t-109 302.5q0 118 36.5 225.5t102 189t163.5 130t214 48.5q178 0 284.5 -106t106.5 -297q0 -126 -35.5 -236t-100.5 -191t-161 -128t-212 -47zM492 39q204 0 333 154t129 403q0 171 -91 264.5t-253 93.5
q-203 0 -336 -156t-133 -392q0 -172 95 -269.5t256 -97.5z" />
    <glyph glyph-name="oacute" unicode="&#xf3;" horiz-adv-x="1095" 
d="M625 1149l260 276h63l-262 -276h-61zM492 -6q-180 0 -289 109.5t-109 302.5q0 118 36.5 225.5t102 189t163.5 130t214 48.5q178 0 284.5 -106t106.5 -297q0 -126 -35.5 -236t-100.5 -191t-161 -128t-212 -47zM492 39q204 0 333 154t129 403q0 171 -91 264.5t-253 93.5
q-203 0 -336 -156t-133 -392q0 -172 95 -269.5t256 -97.5z" />
    <glyph glyph-name="ocircumflex" unicode="&#xf4;" horiz-adv-x="1095" 
d="M395 1147l258 278h47l197 -278h-57l-162 242h-2l-223 -242h-58zM492 -6q-180 0 -289 109.5t-109 302.5q0 118 36.5 225.5t102 189t163.5 130t214 48.5q178 0 284.5 -106t106.5 -297q0 -126 -35.5 -236t-100.5 -191t-161 -128t-212 -47zM492 39q204 0 333 154t129 403
q0 171 -91 264.5t-253 93.5q-203 0 -336 -156t-133 -392q0 -172 95 -269.5t256 -97.5z" />
    <glyph glyph-name="otilde" unicode="&#xf5;" horiz-adv-x="1095" 
d="M795 1190q-28 0 -59 15t-49.5 30t-45.5 41q-66 55 -106 55q-82 0 -136 -127l-39 17q65 155 172 155q62 0 134 -65q4 -4 17 -15t18.5 -15.5t17 -13.5t19 -13.5t17.5 -9.5t19.5 -7t18.5 -2q35 0 69.5 32.5t59.5 96.5l36 -18q-31 -78 -75 -117t-88 -39zM492 -6
q-180 0 -289 109.5t-109 302.5q0 118 36.5 225.5t102 189t163.5 130t214 48.5q178 0 284.5 -106t106.5 -297q0 -126 -35.5 -236t-100.5 -191t-161 -128t-212 -47zM492 39q204 0 333 154t129 403q0 171 -91 264.5t-253 93.5q-203 0 -336 -156t-133 -392q0 -172 95 -269.5
t256 -97.5z" />
    <glyph glyph-name="odieresis" unicode="&#xf6;" horiz-adv-x="1095" 
d="M522 1241q-23 0 -37 15t-14 40q0 24 15 40t38 16q25 0 40.5 -15.5t15.5 -38.5q0 -25 -16.5 -41t-41.5 -16zM795 1241q-23 0 -38.5 15.5t-15.5 39.5q0 23 16.5 39.5t39.5 16.5t38 -15.5t15 -38.5q0 -25 -16 -41t-39 -16zM492 -6q-180 0 -289 109.5t-109 302.5
q0 118 36.5 225.5t102 189t163.5 130t214 48.5q178 0 284.5 -106t106.5 -297q0 -126 -35.5 -236t-100.5 -191t-161 -128t-212 -47zM492 39q204 0 333 154t129 403q0 171 -91 264.5t-253 93.5q-203 0 -336 -156t-133 -392q0 -172 95 -269.5t256 -97.5z" />
    <glyph glyph-name="divide" unicode="&#xf7;" horiz-adv-x="1128" 
d="M635 903q-23 0 -37 15t-14 40q0 24 15 40t38 16t38 -15t15 -38q0 -25 -15.5 -41.5t-39.5 -16.5zM166 543l6 45h848l-6 -45h-848zM553 117q-23 0 -37 15t-14 40q0 23 15 39t38 16t38 -15t15 -38q0 -25 -15 -41t-40 -16z" />
    <glyph glyph-name="oslash" unicode="&#xf8;" horiz-adv-x="1097" 
d="M1051 977l-121 -123q74 -104 74 -258q0 -169 -61 -305t-178 -216.5t-271 -80.5q-187 0 -293 112l-125 -126l-35 24l133 135q-78 108 -78 267q0 118 36.5 225.5t102 189t163.5 130t214 48.5q185 0 291 -112l115 119zM143 406q0 -140 64 -232l663 680q-89 100 -258 100
q-203 0 -336 -156t-133 -392zM956 596q0 136 -59 225l-664 -680q91 -102 261 -102q204 0 333 154t129 403z" />
    <glyph glyph-name="ugrave" unicode="&#xf9;" horiz-adv-x="1050" 
d="M602 1149l-196 276h59l194 -276h-57zM401 -6q-155 0 -223.5 96t-40.5 305l80 596h45l-80 -594q-14 -86 -6.5 -148t23.5 -102.5t49 -64.5t70 -33.5t85 -9.5q96 0 192.5 67.5t166 183t88.5 247.5l55 454h45l-121 -991h-45l39 313h-4q-70 -144 -183.5 -231.5t-234.5 -87.5z
" />
    <glyph glyph-name="uacute" unicode="&#xfa;" horiz-adv-x="1050" 
d="M553 1149l260 276h64l-263 -276h-61zM401 -6q-155 0 -223.5 96t-40.5 305l80 596h45l-80 -594q-14 -86 -6.5 -148t23.5 -102.5t49 -64.5t70 -33.5t85 -9.5q96 0 192.5 67.5t166 183t88.5 247.5l55 454h45l-121 -991h-45l39 313h-4q-70 -144 -183.5 -231.5t-234.5 -87.5z
" />
    <glyph glyph-name="ucircumflex" unicode="&#xfb;" horiz-adv-x="1050" 
d="M342 1147l258 278h47l197 -278h-58l-161 242h-2l-224 -242h-57zM401 -6q-155 0 -223.5 96t-40.5 305l80 596h45l-80 -594q-14 -86 -6.5 -148t23.5 -102.5t49 -64.5t70 -33.5t85 -9.5q96 0 192.5 67.5t166 183t88.5 247.5l55 454h45l-121 -991h-45l39 313h-4
q-70 -144 -183.5 -231.5t-234.5 -87.5z" />
    <glyph glyph-name="udieresis" unicode="&#xfc;" horiz-adv-x="1050" 
d="M469 1241q-23 0 -37 15t-14 40q0 24 15 40t38 16q25 0 40 -15t15 -39q0 -25 -16 -41t-41 -16zM741 1241q-23 0 -38 15t-15 40q0 23 16 39.5t39 16.5t38.5 -15.5t15.5 -38.5q0 -24 -16.5 -40.5t-39.5 -16.5zM401 -6q-155 0 -223.5 96t-40.5 305l80 596h45l-80 -594
q-14 -86 -6.5 -148t23.5 -102.5t49 -64.5t70 -33.5t85 -9.5q96 0 192.5 67.5t166 183t88.5 247.5l55 454h45l-121 -991h-45l39 313h-4q-70 -144 -183.5 -231.5t-234.5 -87.5z" />
    <glyph glyph-name="yacute" unicode="&#xfd;" horiz-adv-x="1042" 
d="M893 1425l-262 -276h-62l260 276h64zM899 991h45l-104 -856q-16 -131 -50.5 -229t-79 -158t-105 -96.5t-120.5 -50t-133 -13.5q-149 0 -301 76l15 47q142 -78 290 -78q64 0 117.5 12t108.5 46t95.5 89t72.5 146t47 213l20 176h-4q-69 -145 -183 -233t-235 -88
q-155 0 -223.5 96t-40.5 305l80 596h45l-80 -594q-14 -86 -6.5 -148t23.5 -102.5t49 -64.5t70 -33.5t85 -9.5q99 0 197 70t167 189.5t85 254.5z" />
    <glyph glyph-name="thorn" unicode="&#xfe;" horiz-adv-x="1114" 
d="M63 -406l236 1913h45l-102 -831h4q70 146 178.5 234.5t249.5 88.5q161 0 253.5 -111t92.5 -284q0 -167 -63.5 -305.5t-184 -221.5t-274.5 -83q-94 0 -183 33.5t-137 91.5l-4 -2l-65 -523h-46zM502 39q139 0 248 78t166 206.5t57 282.5q0 155 -78 250.5t-223 95.5
q-91 0 -173 -47t-140.5 -124t-97.5 -173.5t-52 -199.5l-29 -226q27 -43 70.5 -73t91 -44t86 -20t74.5 -6z" />
    <glyph glyph-name="ydieresis" unicode="&#xff;" horiz-adv-x="1042" 
d="M465 1241q-23 0 -37 15t-14 40q0 24 15 40t38 16q25 0 40 -15t15 -39q0 -25 -16 -41t-41 -16zM737 1241q-23 0 -38 15t-15 40q0 23 16 39.5t39 16.5t38.5 -15.5t15.5 -38.5q0 -24 -16.5 -40.5t-39.5 -16.5zM899 991h45l-104 -856q-16 -131 -50.5 -229t-79 -158
t-105 -96.5t-120.5 -50t-133 -13.5q-149 0 -301 76l15 47q142 -78 290 -78q64 0 117.5 12t108.5 46t95.5 89t72.5 146t47 213l20 176h-4q-69 -145 -183 -233t-235 -88q-155 0 -223.5 96t-40.5 305l80 596h45l-80 -594q-14 -86 -6.5 -148t23.5 -102.5t49 -64.5t70 -33.5
t85 -9.5q99 0 197 70t167 189.5t85 254.5z" />
    <glyph glyph-name="Amacron" unicode="&#x100;" horiz-adv-x="1198" 
d="M508 1710l6 47h490l-7 -47h-489zM0 0l684 1454h55l336 -1454h-49l-98 432h-674l-203 -432h-51zM276 479h642l-209 914h-4z" />
    <glyph glyph-name="amacron" unicode="&#x101;" horiz-adv-x="1087" 
d="M465 1268l6 47h490l-7 -47h-489zM438 -6q-157 0 -248.5 111t-91.5 282q0 167 63 306t182 222.5t271 83.5q93 0 181 -34t137 -91l4 3l14 114h45l-121 -991h-45l39 315h-4q-69 -145 -177.5 -233t-248.5 -88zM440 39q90 0 172 48t140 126.5t97 175.5t52 199l29 223
q-37 55 -101.5 89t-117 44t-101.5 10q-138 0 -245.5 -78.5t-164.5 -207.5t-57 -283t78 -250t219 -96z" />
    <glyph glyph-name="Abreve" unicode="&#x102;" horiz-adv-x="1198" 
d="M731 1620q-96 0 -145 63.5t-41 171.5l43 -2q-7 -81 28 -134.5t117 -53.5q88 0 146.5 55.5t72.5 134.5l43 -2q-21 -105 -95.5 -169t-168.5 -64zM0 0l684 1454h55l336 -1454h-49l-98 432h-674l-203 -432h-51zM276 479h642l-209 914h-4z" />
    <glyph glyph-name="abreve" unicode="&#x103;" horiz-adv-x="1087" 
d="M686 1149q-97 0 -145 67t-41 193l43 -2q-14 -213 145 -213q89 0 147 59.5t72 155.5l43 -2q-21 -122 -94.5 -190t-169.5 -68zM438 -6q-157 0 -248.5 111t-91.5 282q0 167 63 306t182 222.5t271 83.5q93 0 181 -34t137 -91l4 3l14 114h45l-121 -991h-45l39 315h-4
q-69 -145 -177.5 -233t-248.5 -88zM440 39q90 0 172 48t140 126.5t97 175.5t52 199l29 223q-37 55 -101.5 89t-117 44t-101.5 10q-138 0 -245.5 -78.5t-164.5 -207.5t-57 -283t78 -250t219 -96z" />
    <glyph glyph-name="Aogonek" unicode="&#x104;" horiz-adv-x="1198" 
d="M1110 -297l4 -47q-52 -27 -117 -27q-70 0 -107.5 37t-31.5 105q8 116 166 239l-96 422h-674l-203 -432h-51l684 1454h55l336 -1454h-2q-164 -129 -172 -231q-2 -40 22 -66.5t76 -26.5q59 0 111 27zM276 479h642l-209 914h-4z" />
    <glyph glyph-name="aogonek" unicode="&#x105;" horiz-adv-x="1087" 
d="M799 -324q38 0 59 6t51 21l4 -47q-52 -27 -116 -27q-70 0 -108 37t-32 105q8 115 174 245l37 299h-4q-69 -145 -177.5 -233t-248.5 -88q-157 0 -248.5 111t-91.5 282q0 167 63 306t182 222.5t271 83.5q93 0 181 -34t137 -91l4 3l14 114h45l-121 -991h-2
q-164 -129 -172 -231q-2 -40 22.5 -66.5t76.5 -26.5zM440 39q90 0 172 48t140 126.5t97 175.5t52 199l29 223q-37 55 -101.5 89t-117 44t-101.5 10q-138 0 -245.5 -78.5t-164.5 -207.5t-57 -283t78 -250t219 -96z" />
    <glyph glyph-name="Cacute" unicode="&#x106;" horiz-adv-x="1370" 
d="M897 1628l260 254h60l-263 -254h-57zM700 -6q-250 0 -398 166t-148 448q0 165 54.5 320.5t148.5 273.5t230.5 189t291.5 71q303 0 495 -313l-41 -27q-93 157 -201 225t-251 68q-146 0 -274.5 -68t-215.5 -180t-137.5 -257.5t-50.5 -299.5q0 -264 134 -416.5t365 -152.5
q124 0 251.5 56.5t226.5 164.5l37 -29q-99 -109 -236 -174t-281 -65z" />
    <glyph glyph-name="cacute" unicode="&#x107;" horiz-adv-x="972" 
d="M618 1149l261 276h63l-262 -276h-62zM459 -6q-71 0 -135.5 26.5t-115.5 76t-81.5 127t-30.5 171.5q0 122 36.5 232t102 192.5t164.5 131t217 48.5q93 0 178.5 -39t139.5 -118l-39 -31q-47 72 -121 107.5t-158 35.5q-143 0 -252.5 -78t-165 -204t-55.5 -277
q0 -156 91.5 -256t230.5 -100q222 0 350 158l35 -27q-137 -176 -391 -176z" />
    <glyph glyph-name="Ccircumflex" unicode="&#x108;" horiz-adv-x="1370" 
d="M690 1628l264 223h47l193 -223h-57l-160 184h-4l-221 -184h-62zM700 -6q-250 0 -398 166t-148 448q0 165 54.5 320.5t148.5 273.5t230.5 189t291.5 71q303 0 495 -313l-41 -27q-93 157 -201 225t-251 68q-146 0 -274.5 -68t-215.5 -180t-137.5 -257.5t-50.5 -299.5
q0 -264 134 -416.5t365 -152.5q124 0 251.5 56.5t226.5 164.5l37 -29q-99 -109 -236 -174t-281 -65z" />
    <glyph glyph-name="ccircumflex" unicode="&#x109;" horiz-adv-x="972" 
d="M393 1147l258 278h47l197 -278h-57l-162 242h-2l-223 -242h-58zM459 -6q-71 0 -135.5 26.5t-115.5 76t-81.5 127t-30.5 171.5q0 122 36.5 232t102 192.5t164.5 131t217 48.5q93 0 178.5 -39t139.5 -118l-39 -31q-47 72 -121 107.5t-158 35.5q-143 0 -252.5 -78t-165 -204
t-55.5 -277q0 -156 91.5 -256t230.5 -100q222 0 350 158l35 -27q-137 -176 -391 -176z" />
    <glyph glyph-name="Cdotaccent" unicode="&#x10a;" horiz-adv-x="1370" 
d="M965 1696q-23 0 -37.5 15t-14.5 40q0 23 15.5 39t38.5 16t38 -15t15 -38q0 -25 -15 -41t-40 -16zM700 -6q-250 0 -398 166t-148 448q0 165 54.5 320.5t148.5 273.5t230.5 189t291.5 71q303 0 495 -313l-41 -27q-93 157 -201 225t-251 68q-146 0 -274.5 -68t-215.5 -180
t-137.5 -257.5t-50.5 -299.5q0 -264 134 -416.5t365 -152.5q124 0 251.5 56.5t226.5 164.5l37 -29q-99 -109 -236 -174t-281 -65z" />
    <glyph glyph-name="cdotaccent" unicode="&#x10b;" horiz-adv-x="972" 
d="M662 1241q-23 0 -37.5 15t-14.5 40q0 23 15.5 39.5t38.5 16.5t38 -15.5t15 -38.5q0 -25 -15 -41t-40 -16zM459 -6q-71 0 -135.5 26.5t-115.5 76t-81.5 127t-30.5 171.5q0 122 36.5 232t102 192.5t164.5 131t217 48.5q93 0 178.5 -39t139.5 -118l-39 -31
q-47 72 -121 107.5t-158 35.5q-143 0 -252.5 -78t-165 -204t-55.5 -277q0 -156 91.5 -256t230.5 -100q222 0 350 158l35 -27q-137 -176 -391 -176z" />
    <glyph glyph-name="Ccaron" unicode="&#x10c;" horiz-adv-x="1370" 
d="M924 1628l-193 223h57l160 -184h4l222 184h61l-264 -223h-47zM700 -6q-250 0 -398 166t-148 448q0 165 54.5 320.5t148.5 273.5t230.5 189t291.5 71q303 0 495 -313l-41 -27q-93 157 -201 225t-251 68q-146 0 -274.5 -68t-215.5 -180t-137.5 -257.5t-50.5 -299.5
q0 -264 134 -416.5t365 -152.5q124 0 251.5 56.5t226.5 164.5l37 -29q-99 -109 -236 -174t-281 -65z" />
    <glyph glyph-name="ccaron" unicode="&#x10d;" horiz-adv-x="972" 
d="M614 1151l-190 262h53l162 -223h4l225 223h58l-264 -262h-48zM459 -6q-71 0 -135.5 26.5t-115.5 76t-81.5 127t-30.5 171.5q0 122 36.5 232t102 192.5t164.5 131t217 48.5q93 0 178.5 -39t139.5 -118l-39 -31q-47 72 -121 107.5t-158 35.5q-143 0 -252.5 -78t-165 -204
t-55.5 -277q0 -156 91.5 -256t230.5 -100q222 0 350 158l35 -27q-137 -176 -391 -176z" />
    <glyph glyph-name="Dcaron" unicode="&#x10e;" horiz-adv-x="1349" 
d="M788 1628l-192 223h57l160 -184h4l221 184h62l-264 -223h-48zM133 0l178 1454h363q277 0 428 -156.5t151 -433.5q0 -249 -97 -445.5t-275 -307.5t-406 -111h-342zM186 47h287q214 0 381.5 105.5t258.5 290.5t91 417q0 258 -137 402.5t-395 144.5h-318z" />
    <glyph glyph-name="dcaron" unicode="&#x10f;" horiz-adv-x="1175" 
d="M1178 1223l84 323h53l-98 -323h-39zM440 -6q-158 0 -250 111t-92 282q0 167 63 306t182 222.5t271 83.5q96 0 184.5 -34t139.5 -95l2 2l78 635h45l-184 -1507h-45l38 317l-4 2q-68 -146 -177 -235.5t-251 -89.5zM440 39q92 0 174.5 48t141.5 126.5t97.5 176t51.5 200.5
l27 217q-35 57 -100 92t-117.5 45t-102.5 10q-138 0 -245.5 -78.5t-164.5 -207.5t-57 -283t77 -250t218 -96z" />
    <glyph glyph-name="Dcroat" unicode="&#x110;" horiz-adv-x="1349" 
d="M674 1454q277 0 428 -156.5t151 -433.5q0 -249 -97 -445.5t-275 -307.5t-406 -111h-342l86 709h-174l8 47h172l86 698h363zM473 47q214 0 381.5 105.5t258.5 290.5t91 417q0 258 -137 402.5t-395 144.5h-318l-80 -651h390l-5 -47h-391l-82 -662h287z" />
    <glyph glyph-name="dcroat" unicode="&#x111;" horiz-adv-x="1099" 
d="M1151 1249l-6 -45h-119l-147 -1204h-45l38 317l-4 2q-68 -146 -177 -235.5t-251 -89.5q-158 0 -250 111t-92 282q0 167 63 306t182 222.5t271 83.5q96 0 184.5 -34t139.5 -95l2 2l41 332h-444l6 45h444l31 258h45l-31 -258h119zM905 590l27 217q-35 57 -100 92t-117.5 45
t-102.5 10q-138 0 -245.5 -78.5t-164.5 -207.5t-57 -283t77 -250t218 -96q92 0 174.5 48t141.5 126.5t97.5 176t51.5 200.5z" />
    <glyph glyph-name="Emacron" unicode="&#x112;" horiz-adv-x="1085" 
d="M506 1716l6 47h489l-6 -47h-489zM133 0l178 1454h760l-4 -47h-715l-80 -655h598l-4 -47h-600l-80 -658h752l-4 -47h-801z" />
    <glyph glyph-name="emacron" unicode="&#x113;" horiz-adv-x="940" 
d="M868 1315l-6 -47h-489l6 47h489zM477 39q180 0 316 158l34 -27q-140 -176 -350 -176q-170 0 -275.5 110.5t-105.5 298.5q0 162 65 298t182.5 217t262.5 81q31 0 64.5 -5.5t74 -21.5t71.5 -41t52 -69t21 -100q0 -302 -748 -354v-5q0 -169 92 -266.5t244 -97.5zM606 954
q-188 0 -318 -145t-145 -356q699 48 699 305q0 47 -17 83.5t-42.5 57.5t-59 34t-61.5 17t-56 4z" />
    <glyph glyph-name="Ebreve" unicode="&#x114;" horiz-adv-x="1085" 
d="M729 1626q-96 0 -145 63.5t-41 172.5l43 -2q-7 -81 28 -135t117 -54q87 0 145.5 56t73.5 135l43 -2q-21 -105 -95.5 -169.5t-168.5 -64.5zM133 0l178 1454h760l-4 -47h-715l-80 -655h598l-4 -47h-600l-80 -658h752l-4 -47h-801z" />
    <glyph glyph-name="ebreve" unicode="&#x115;" horiz-adv-x="940" 
d="M594 1149q-97 0 -145 67t-41 193l43 -2q-14 -213 145 -213q89 0 147 59.5t72 155.5l43 -2q-21 -122 -94.5 -190t-169.5 -68zM477 39q180 0 316 158l34 -27q-140 -176 -350 -176q-170 0 -275.5 110.5t-105.5 298.5q0 162 65 298t182.5 217t262.5 81q31 0 64.5 -5.5
t74 -21.5t71.5 -41t52 -69t21 -100q0 -302 -748 -354v-5q0 -169 92 -266.5t244 -97.5zM606 954q-188 0 -318 -145t-145 -356q699 48 699 305q0 47 -17 83.5t-42.5 57.5t-59 34t-61.5 17t-56 4z" />
    <glyph glyph-name="Edotaccent" unicode="&#x116;" horiz-adv-x="1085" 
d="M752 1702q-23 0 -37.5 15t-14.5 40q0 23 15.5 39t38.5 16t38 -15t15 -38q0 -25 -15 -41t-40 -16zM133 0l178 1454h760l-4 -47h-715l-80 -655h598l-4 -47h-600l-80 -658h752l-4 -47h-801z" />
    <glyph glyph-name="edotaccent" unicode="&#x117;" horiz-adv-x="940" 
d="M623 1241q-23 0 -37.5 15t-14.5 40q0 23 15.5 39.5t38.5 16.5t38 -15.5t15 -38.5q0 -25 -15 -41t-40 -16zM477 39q180 0 316 158l34 -27q-140 -176 -350 -176q-170 0 -275.5 110.5t-105.5 298.5q0 162 65 298t182.5 217t262.5 81q31 0 64.5 -5.5t74 -21.5t71.5 -41
t52 -69t21 -100q0 -302 -748 -354v-5q0 -169 92 -266.5t244 -97.5zM606 954q-188 0 -318 -145t-145 -356q699 48 699 305q0 47 -17 83.5t-42.5 57.5t-59 34t-61.5 17t-56 4z" />
    <glyph glyph-name="Eogonek" unicode="&#x118;" horiz-adv-x="1085" 
d="M1067 1407h-715l-80 -655h598l-4 -47h-600l-80 -658h752l-4 -47h-2q-164 -129 -172 -231q-2 -40 22 -66.5t76 -26.5q38 0 59.5 6t51.5 21l4 -47q-52 -27 -117 -27q-70 0 -107.5 37t-31.5 105q8 112 153 229h-737l178 1454h760z" />
    <glyph glyph-name="eogonek" unicode="&#x119;" horiz-adv-x="940" 
d="M477 39q180 0 316 158l34 -27q-91 -117 -223 -158q-90 -38 -156.5 -110t-66.5 -140q0 -38 23.5 -62t72.5 -24q61 0 111 27l6 -47q-56 -27 -119 -27q-66 0 -102.5 32.5t-36.5 94.5q0 65 42.5 128t108.5 106l-2 4h-8q-170 0 -275.5 110.5t-105.5 298.5q0 162 65 298
t182.5 217t262.5 81q31 0 64.5 -5.5t74 -21.5t71.5 -41t52 -69t21 -100q0 -302 -748 -354v-5q0 -169 92 -266.5t244 -97.5zM606 954q-188 0 -318 -145t-145 -356q699 48 699 305q0 47 -17 83.5t-42.5 57.5t-59 34t-61.5 17t-56 4z" />
    <glyph glyph-name="Ecaron" unicode="&#x11a;" horiz-adv-x="1085" 
d="M711 1634l-193 224h57l160 -185h4l222 185h61l-264 -224h-47zM133 0l178 1454h760l-4 -47h-715l-80 -655h598l-4 -47h-600l-80 -658h752l-4 -47h-801z" />
    <glyph glyph-name="ecaron" unicode="&#x11b;" horiz-adv-x="940" 
d="M623 1151h-48l-190 262h53l162 -223h4l225 223h58zM477 39q180 0 316 158l34 -27q-140 -176 -350 -176q-170 0 -275.5 110.5t-105.5 298.5q0 162 65 298t182.5 217t262.5 81q31 0 64.5 -5.5t74 -21.5t71.5 -41t52 -69t21 -100q0 -302 -748 -354v-5q0 -169 92 -266.5
t244 -97.5zM606 954q-188 0 -318 -145t-145 -356q699 48 699 305q0 47 -17 83.5t-42.5 57.5t-59 34t-61.5 17t-56 4z" />
    <glyph glyph-name="Gcircumflex" unicode="&#x11c;" horiz-adv-x="1443" 
d="M653 1628l265 223h47l192 -223h-57l-160 184h-4l-221 -184h-62zM717 -6q-265 0 -414 164t-149 446q0 168 54 323.5t148 274t232.5 189.5t296.5 71q273 0 461 -223l-35 -35q-175 211 -428 211q-147 0 -275.5 -67.5t-216 -179.5t-138 -259t-50.5 -305q0 -262 135.5 -412.5
t380.5 -150.5q129 0 255.5 43t219.5 123l53 444h-489l6 47h536l-63 -514q-101 -94 -239.5 -142t-280.5 -48z" />
    <glyph glyph-name="gcircumflex" unicode="&#x11d;" horiz-adv-x="1089" 
d="M410 1147l258 278h47l196 -278h-57l-162 242h-2l-223 -242h-57zM360 -412q-170 0 -319 76l14 49q146 -80 310 -80q77 0 137.5 12.5t119 46t100.5 89t74 146.5t48 214l26 203h-4q-71 -141 -180.5 -231t-249.5 -90q-157 0 -248.5 111.5t-91.5 283.5q0 114 37 219t103 185.5
t164 128.5t212 48q93 0 182.5 -34t137.5 -91l2 3l14 114h45l-104 -854q-16 -132 -51 -229.5t-81.5 -158t-111.5 -97.5t-132.5 -50.5t-152.5 -13.5zM438 70q87 0 169 45.5t141 118t98.5 163t50.5 181.5l29 235q-52 77 -143.5 108t-174.5 31q-137 0 -245.5 -77t-165 -198.5
t-56.5 -260.5q0 -154 78 -250t219 -96z" />
    <glyph glyph-name="Gbreve" unicode="&#x11e;" horiz-adv-x="1443" 
d="M905 1620q-96 0 -145 63.5t-41 171.5l43 -2q-7 -81 28 -134.5t117 -53.5q88 0 146.5 55.5t72.5 134.5l43 -2q-21 -105 -95.5 -169t-168.5 -64zM717 -6q-265 0 -414 164t-149 446q0 168 54 323.5t148 274t232.5 189.5t296.5 71q273 0 461 -223l-35 -35q-175 211 -428 211
q-147 0 -275.5 -67.5t-216 -179.5t-138 -259t-50.5 -305q0 -262 135.5 -412.5t380.5 -150.5q129 0 255.5 43t219.5 123l53 444h-489l6 47h536l-63 -514q-101 -94 -239.5 -142t-280.5 -48z" />
    <glyph glyph-name="gbreve" unicode="&#x11f;" horiz-adv-x="1089" 
d="M649 1149q-97 0 -145 67t-41 193l43 -2q-14 -213 145 -213q89 0 147 59.5t72 155.5l43 -2q-21 -122 -94.5 -190t-169.5 -68zM360 -412q-170 0 -319 76l14 49q146 -80 310 -80q77 0 137.5 12.5t119 46t100.5 89t74 146.5t48 214l26 203h-4q-71 -141 -180.5 -231
t-249.5 -90q-157 0 -248.5 111.5t-91.5 283.5q0 114 37 219t103 185.5t164 128.5t212 48q93 0 182.5 -34t137.5 -91l2 3l14 114h45l-104 -854q-16 -132 -51 -229.5t-81.5 -158t-111.5 -97.5t-132.5 -50.5t-152.5 -13.5zM438 70q87 0 169 45.5t141 118t98.5 163t50.5 181.5
l29 235q-52 77 -143.5 108t-174.5 31q-137 0 -245.5 -77t-165 -198.5t-56.5 -260.5q0 -154 78 -250t219 -96z" />
    <glyph glyph-name="Gdotaccent" unicode="&#x120;" horiz-adv-x="1443" 
d="M928 1696q-23 0 -37 15t-14 40q0 23 15 39t38 16t38 -15t15 -38q0 -25 -15 -41t-40 -16zM717 -6q-265 0 -414 164t-149 446q0 168 54 323.5t148 274t232.5 189.5t296.5 71q273 0 461 -223l-35 -35q-175 211 -428 211q-147 0 -275.5 -67.5t-216 -179.5t-138 -259
t-50.5 -305q0 -262 135.5 -412.5t380.5 -150.5q129 0 255.5 43t219.5 123l53 444h-489l6 47h536l-63 -514q-101 -94 -239.5 -142t-280.5 -48z" />
    <glyph glyph-name="gdotaccent" unicode="&#x121;" horiz-adv-x="1089" 
d="M678 1241q-23 0 -37 15t-14 40q0 24 15 40t38 16t38 -15.5t15 -38.5q0 -25 -15 -41t-40 -16zM360 -412q-170 0 -319 76l14 49q146 -80 310 -80q77 0 137.5 12.5t119 46t100.5 89t74 146.5t48 214l26 203h-4q-71 -141 -180.5 -231t-249.5 -90q-157 0 -248.5 111.5
t-91.5 283.5q0 114 37 219t103 185.5t164 128.5t212 48q93 0 182.5 -34t137.5 -91l2 3l14 114h45l-104 -854q-16 -132 -51 -229.5t-81.5 -158t-111.5 -97.5t-132.5 -50.5t-152.5 -13.5zM438 70q87 0 169 45.5t141 118t98.5 163t50.5 181.5l29 235q-52 77 -143.5 108
t-174.5 31q-137 0 -245.5 -77t-165 -198.5t-56.5 -260.5q0 -154 78 -250t219 -96z" />
    <glyph glyph-name="Gcommaaccent" unicode="&#x122;" horiz-adv-x="1443" 
d="M717 -6q-265 0 -414 164t-149 446q0 168 54 323.5t148 274t232.5 189.5t296.5 71q273 0 461 -223l-35 -35q-175 211 -428 211q-147 0 -275.5 -67.5t-216 -179.5t-138 -259t-50.5 -305q0 -262 135.5 -412.5t380.5 -150.5q129 0 255.5 43t219.5 123l53 444h-489l6 47h536
l-63 -514q-101 -94 -239.5 -142t-280.5 -48zM524 -408l-10 37q78 5 114 57t36 164v37h41q0 -2 1 -14.5t1 -28.5q0 -241 -183 -252z" />
    <glyph glyph-name="gcommaaccent" unicode="&#x123;" horiz-adv-x="1089" 
d="M836 1425l10 -36q-78 -5 -114 -57.5t-36 -164.5v-37h-41q0 2 -1 15t-1 29q0 240 183 251zM360 -412q-170 0 -319 76l14 49q146 -80 310 -80q77 0 137.5 12.5t119 46t100.5 89t74 146.5t48 214l26 203h-4q-71 -141 -180.5 -231t-249.5 -90q-157 0 -248.5 111.5
t-91.5 283.5q0 114 37 219t103 185.5t164 128.5t212 48q93 0 182.5 -34t137.5 -91l2 3l14 114h45l-104 -854q-16 -132 -51 -229.5t-81.5 -158t-111.5 -97.5t-132.5 -50.5t-152.5 -13.5zM438 70q87 0 169 45.5t141 118t98.5 163t50.5 181.5l29 235q-52 77 -143.5 108
t-174.5 31q-137 0 -245.5 -77t-165 -198.5t-56.5 -260.5q0 -154 78 -250t219 -96z" />
    <glyph glyph-name="Hcircumflex" unicode="&#x124;" horiz-adv-x="1335" 
d="M557 1628l264 223h47l193 -223h-57l-160 184h-4l-222 -184h-61zM133 0l178 1454h47l-92 -745h854l90 745h47l-176 -1454h-47l80 662h-852l-82 -662h-47z" />
    <glyph glyph-name="hcircumflex" unicode="&#x125;" horiz-adv-x="1089" 
d="M307 1655l264 223h47l193 -223h-57l-160 184h-4l-221 -184h-62zM115 0l184 1507h45l-104 -850h4q72 154 198.5 248t259.5 94q298 0 246 -403l-78 -596h-45l78 596q8 72 7.5 126.5t-13.5 94t-30.5 66t-45 42.5t-56.5 22.5t-65 6.5q-79 0 -162 -42t-150 -111.5t-115 -166.5
t-60 -200l-53 -434h-45z" />
    <glyph glyph-name="Hbar" unicode="&#x126;" horiz-adv-x="1320" 
d="M1346 1157l-7 -45h-122l-136 -1112h-47l80 662h-852l-82 -662h-47l137 1112h-139l6 45h137l37 297h47l-36 -297h852l36 297h47l-36 -297h125zM1120 709l49 403h-854l-49 -403h854z" />
    <glyph glyph-name="hbar" unicode="&#x127;" horiz-adv-x="1089" 
d="M702 999q298 0 246 -403l-78 -596h-45l78 596q8 72 7.5 126.5t-13.5 94t-30.5 66t-45 42.5t-56.5 22.5t-65 6.5q-79 0 -162 -42t-150 -111.5t-115 -166.5t-60 -200l-53 -434h-45l147 1204h-174l6 45h174l31 258h45l-31 -258h416l-6 -45h-416l-67 -547h4q72 154 198.5 248
t259.5 94z" />
    <glyph glyph-name="Itilde" unicode="&#x128;" horiz-adv-x="462" 
d="M526 1628q-11 0 -22.5 2.5t-20.5 5.5t-20.5 9.5t-18.5 10.5t-19 13.5t-16.5 13.5t-17.5 15t-16 14q-68 57 -109 57q-81 0 -135 -127l-39 17q66 156 172 156q37 0 67 -17t66 -49q30 -27 43 -38t38 -24.5t46 -13.5q35 0 69.5 32.5t59.5 96.5l37 -18q-31 -77 -75.5 -116.5
t-88.5 -39.5zM147 0l179 1454h47l-178 -1454h-48z" />
    <glyph glyph-name="itilde" unicode="&#x129;" horiz-adv-x="419" 
d="M436 1190q-27 0 -57 15t-45 27.5t-47 41.5q-60 57 -111 57q-79 0 -133 -127l-39 17q65 155 172 155q37 0 65.5 -16t67.5 -49q5 -4 20 -17t21.5 -18.5t19.5 -15t22 -14t21 -8t23 -3.5q35 0 69.5 32.5t59.5 96.5l37 -18q-32 -78 -76.5 -117t-89.5 -39zM127 0l121 991h45
l-123 -991h-43z" />
    <glyph glyph-name="Imacron" unicode="&#x12a;" horiz-adv-x="462" 
d="M143 1710l7 47h489l-6 -47h-490zM147 0l179 1454h47l-178 -1454h-48z" />
    <glyph glyph-name="imacron" unicode="&#x12b;" horiz-adv-x="419" 
d="M57 1268l6 47h490l-6 -47h-490zM127 0l121 991h45l-123 -991h-43z" />
    <glyph glyph-name="Ibreve" unicode="&#x12c;" horiz-adv-x="462" 
d="M367 1620q-96 0 -145.5 63.5t-41.5 171.5l43 -2q-7 -81 28.5 -134.5t117.5 -53.5q88 0 146.5 55.5t72.5 134.5l43 -2q-21 -105 -95.5 -169t-168.5 -64zM147 0l179 1454h47l-178 -1454h-48z" />
    <glyph glyph-name="ibreve" unicode="&#x12d;" horiz-adv-x="419" 
d="M291 1149q-89 0 -139 68.5t-41 191.5l43 -2q-8 -98 25.5 -155.5t111.5 -57.5q81 0 130 59t62 156l45 -2q-20 -123 -85 -190.5t-152 -67.5zM127 0l121 991h45l-123 -991h-43z" />
    <glyph glyph-name="Iogonek" unicode="&#x12e;" horiz-adv-x="462" 
d="M119 -324q38 0 59 6t51 21l4 -47q-52 -27 -116 -27q-70 0 -108 37t-32 105q8 114 173 243l176 1440h47l-178 -1454h-2q-165 -130 -173 -231q-2 -40 22.5 -66.5t76.5 -26.5z" />
    <glyph glyph-name="iogonek" unicode="&#x12f;" horiz-adv-x="419" 
d="M309 1352q23 0 38 -15.5t15 -38.5q0 -25 -15 -41t-40 -16q-23 0 -37 15t-14 40q0 24 15 40t38 16zM168 0q-164 -129 -172 -231q-2 -40 22 -66.5t76 -26.5q38 0 59.5 6t51.5 21l4 -47q-52 -27 -117 -27q-70 0 -107.5 37t-31.5 105q8 118 176 247l119 973h45l-123 -991h-2z
" />
    <glyph glyph-name="Idotaccent" unicode="&#x130;" horiz-adv-x="462" 
d="M389 1696q-23 0 -37 15t-14 40q0 23 15 39t38 16t38 -15t15 -38q0 -25 -15 -41t-40 -16zM147 0l179 1454h47l-178 -1454h-48z" />
    <glyph glyph-name="dotlessi" unicode="&#x131;" horiz-adv-x="419" 
d="M127 0l121 991h45l-123 -991h-43z" />
    <glyph glyph-name="IJ" unicode="&#x132;" horiz-adv-x="1353" 
d="M147 0l179 1454h47l-178 -1454h-48zM788 -6q-82 0 -167 50.5t-140 141.5l31 39q53 -87 129 -135.5t150 -48.5q294 0 339 387l125 1026h48l-125 -1028q-27 -222 -124.5 -327t-265.5 -105z" />
    <glyph glyph-name="ij" unicode="&#x133;" horiz-adv-x="749" 
d="M307 1241q-23 0 -37 15t-14 40q0 24 15 40t38 16t38 -15.5t15 -38.5q0 -25 -15 -41t-40 -16zM674 1241q-23 0 -37 15t-14 40q0 24 15 40t38 16t38 -15.5t15 -38.5q0 -25 -15 -41t-40 -16zM127 0l121 991h45l-123 -991h-43zM293 -412q-61 0 -111 31l11 47q46 -33 104 -33
q33 0 58.5 9t50.5 32.5t42.5 72t26.5 120.5l137 1124h45l-139 -1126q-16 -141 -67.5 -209t-157.5 -68z" />
    <glyph glyph-name="Jcircumflex" unicode="&#x134;" horiz-adv-x="890" 
d="M580 1628l264 223h47l192 -223h-57l-160 184h-4l-221 -184h-61zM326 -6q-82 0 -167.5 50.5t-140.5 141.5l31 39q53 -87 129 -135.5t150 -48.5q295 0 340 387l125 1026h47l-125 -1028q-27 -223 -124 -327.5t-265 -104.5z" />
    <glyph glyph-name="jcircumflex" unicode="&#x135;" horiz-adv-x="329" 
d="M-14 1147l258 278h47l196 -278h-57l-162 242h-2l-223 -242h-57zM-127 -412q-61 0 -111 31l11 47q46 -33 104 -33q33 0 58.5 9t50.5 32.5t42.5 72t26.5 120.5l138 1124h45l-140 -1126q-16 -141 -67.5 -209t-157.5 -68z" />
    <glyph glyph-name="Kcommaaccent" unicode="&#x136;" horiz-adv-x="1165" 
d="M1186 1454l-608 -672l440 -782h-57l-416 745l-316 -350l-49 -395h-47l178 1454h47l-120 -977l4 -2l882 979h62zM487 -113h41q0 -2 1 -14.5t1 -28.5q0 -241 -182 -252l-10 37q78 5 113.5 57t35.5 164v37z" />
    <glyph glyph-name="kcommaaccent" unicode="&#x137;" horiz-adv-x="944" 
d="M809 -6q-22 -4 -45 8q-17 8 -33 25.5t-26.5 32.5t-27.5 50t-24 51l-28 64l-101 228q-168 -148 -340 -232l-24 -221h-45l184 1507h45l-151 -1226l4 -2q227 122 412.5 321.5t248.5 390.5h47q-40 -131 -130.5 -261.5t-213.5 -244.5l107 -239q55 -126 84 -164.5t69 -44.5z
M233 -408l-10 37q78 5 114 57t36 164v37h41q0 -2 1 -14.5t1 -28.5q0 -241 -183 -252z" />
    <glyph glyph-name="kgreenlandic" unicode="&#x138;" horiz-adv-x="944" 
d="M809 -6q-29 0 -45 8q-17 8 -33 25.5t-26.5 32.5t-27.5 50t-24 51l-28 64l-101 228q-168 -148 -340 -232l-24 -221h-45l121 991h45l-88 -708l6 -4q226 122 411 321.5t248 390.5h47q-40 -131 -130.5 -261.5t-213.5 -244.5l107 -239q55 -126 84 -164.5t69 -44.5z" />
    <glyph glyph-name="Lacute" unicode="&#x139;" horiz-adv-x="1001" 
d="M479 1628l260 254h60l-262 -254h-58zM133 0l178 1454h47l-172 -1407h721l-4 -47h-770z" />
    <glyph glyph-name="lacute" unicode="&#x13a;" horiz-adv-x="403" 
d="M328 1655l260 254h59l-262 -254h-57zM125 0l184 1507h45l-184 -1507h-45z" />
    <glyph glyph-name="Lcommaaccent" unicode="&#x13b;" horiz-adv-x="1001" 
d="M133 0l178 1454h47l-172 -1407h721l-4 -47h-770zM332 -408l-10 37q78 5 113.5 57t35.5 164v37h41q0 -2 1 -14.5t1 -28.5q0 -241 -182 -252z" />
    <glyph glyph-name="lcommaaccent" unicode="&#x13c;" horiz-adv-x="403" 
d="M125 0l184 1507h45l-184 -1507h-45zM-25 -408l-10 37q78 5 114 57t36 164v37h41q0 -2 1 -14.5t1 -28.5q0 -241 -183 -252z" />
    <glyph glyph-name="Lcaron" unicode="&#x13d;" horiz-adv-x="1001" 
d="M526 1223l84 323h52l-97 -323h-39zM133 0l178 1454h47l-172 -1407h721l-4 -47h-770z" />
    <glyph glyph-name="lcaron" unicode="&#x13e;" horiz-adv-x="468" 
d="M469 1223l86 323h51l-96 -323h-41zM125 0l184 1507h45l-184 -1507h-45z" />
    <glyph glyph-name="Ldot" unicode="&#x13f;" horiz-adv-x="1001" 
d="M133 0l178 1454h47l-172 -1407h721l-4 -47h-770zM696 637q-25 0 -39 15t-14 40q0 24 15.5 40t39.5 16q23 0 38.5 -15.5t15.5 -38.5q0 -24 -16 -40.5t-40 -16.5z" />
    <glyph glyph-name="ldot" unicode="&#x140;" horiz-adv-x="438" 
d="M125 0l184 1507h45l-184 -1507h-45zM428 508q-25 0 -39 15t-14 40q0 24 15.5 39.5t39.5 15.5q23 0 38 -15t15 -38q0 -25 -16 -41t-39 -16z" />
    <glyph glyph-name="Lslash" unicode="&#x141;" horiz-adv-x="1032" 
d="M217 47h721l-4 -47h-770l78 629l-203 -90l10 53l199 88l94 774h47l-92 -754l221 99l-8 -51l-219 -97z" />
    <glyph glyph-name="lslash" unicode="&#x142;" horiz-adv-x="428" 
d="M440 772l-6 -51l-170 -68l-80 -653h-45l78 633l-170 -68l6 51l170 68l101 823h45l-99 -802z" />
    <glyph glyph-name="Nacute" unicode="&#x143;" horiz-adv-x="1400" 
d="M707 1628l260 254h59l-262 -254h-57zM133 0l178 1454h41l754 -1366h4l166 1366h47l-178 -1454h-45l-750 1362h-4l-166 -1362h-47z" />
    <glyph glyph-name="nacute" unicode="&#x144;" horiz-adv-x="1089" 
d="M606 1149l260 276h64l-262 -276h-62zM115 0l123 991h45l-41 -323h4q74 148 200 239.5t256 91.5q298 0 246 -403l-78 -596h-45l78 596q13 86 6 147.5t-22 102t-45.5 64t-64 33t-77.5 9.5q-78 0 -160 -40.5t-149.5 -108.5t-116 -166t-61.5 -205l-53 -432h-45z" />
    <glyph glyph-name="Ncommaaccent" unicode="&#x145;" horiz-adv-x="1400" 
d="M133 0l178 1454h41l754 -1366h4l166 1366h47l-178 -1454h-45l-750 1362h-4l-166 -1362h-47zM451 -408l-11 37q78 5 114 57t36 164v37h41q0 -2 1 -14.5t1 -28.5q0 -241 -182 -252z" />
    <glyph glyph-name="ncommaaccent" unicode="&#x146;" horiz-adv-x="1089" 
d="M115 0l123 991h45l-41 -323h4q74 148 200 239.5t256 91.5q298 0 246 -403l-78 -596h-45l78 596q13 86 6 147.5t-22 102t-45.5 64t-64 33t-77.5 9.5q-78 0 -160 -40.5t-149.5 -108.5t-116 -166t-61.5 -205l-53 -432h-45zM303 -408l-10 37q78 5 113.5 57t35.5 164v37h41
q0 -2 1 -14.5t1 -28.5q0 -241 -182 -252z" />
    <glyph glyph-name="Ncaron" unicode="&#x147;" horiz-adv-x="1400" 
d="M817 1628l-192 223h57l160 -184h4l221 184h61l-264 -223h-47zM133 0l178 1454h41l754 -1366h4l166 1366h47l-178 -1454h-45l-750 1362h-4l-166 -1362h-47z" />
    <glyph glyph-name="ncaron" unicode="&#x148;" horiz-adv-x="1089" 
d="M639 1151l-190 262h53l162 -223h4l225 223h57l-264 -262h-47zM115 0l123 991h45l-41 -323h4q74 148 200 239.5t256 91.5q298 0 246 -403l-78 -596h-45l78 596q13 86 6 147.5t-22 102t-45.5 64t-64 33t-77.5 9.5q-78 0 -160 -40.5t-149.5 -108.5t-116 -166t-61.5 -205
l-53 -432h-45z" />
    <glyph glyph-name="napostrophe" unicode="&#x149;" horiz-adv-x="1282" 
d="M135 1110l84 344h51l-96 -344h-39zM307 0l123 991h45l-41 -323h4q74 148 200.5 239.5t256.5 91.5q298 0 246 -403l-78 -596h-45l78 596q13 86 6 147.5t-22 102t-45.5 64t-64 33t-77.5 9.5q-78 0 -160 -40.5t-149.5 -108.5t-116 -166t-61.5 -205l-54 -432h-45z" />
    <glyph glyph-name="Eng" unicode="&#x14a;" horiz-adv-x="1400" 
d="M1276 1454h47l-184 -1505q-24 -187 -100 -274t-226 -87q-57 0 -131 21l6 47q58 -21 127 -21q56 0 96.5 12t79 44.5t64 97t37.5 160.5l6 55l-748 1358h-4l-166 -1362h-47l178 1454h41l754 -1366h4z" />
    <glyph glyph-name="eng" unicode="&#x14b;" horiz-adv-x="1083" 
d="M537 -412q-47 0 -97 17l9 45q43 -17 94 -17q56 0 96 13.5t77 51t62.5 112.5t40.5 190l78 596q13 86 6 147.5t-22 102t-45.5 64t-64 33t-77.5 9.5q-162 0 -307.5 -151.5t-171.5 -364.5l-53 -436h-45l121 991h45l-39 -321h4q74 148 196.5 238.5t251.5 90.5q298 0 246 -403
l-78 -596q-29 -225 -104 -318.5t-223 -93.5z" />
    <glyph glyph-name="Omacron" unicode="&#x14c;" horiz-adv-x="1536" 
d="M713 1710l6 47h489l-6 -47h-489zM711 -6q-257 0 -410.5 160.5t-153.5 443.5q0 169 53.5 326t148 276t234 190.5t300.5 71.5q257 0 410 -158t153 -446q0 -139 -32.5 -268t-96.5 -237t-152 -188.5t-205 -125.5t-249 -45zM711 41q154 0 284.5 66t217.5 177.5t135.5 259.5
t48.5 312q0 267 -137 413t-379 146q-151 0 -281 -68t-217 -181t-136.5 -260.5t-49.5 -307.5q0 -262 138 -409.5t376 -147.5z" />
    <glyph glyph-name="omacron" unicode="&#x14d;" horiz-adv-x="1095" 
d="M414 1268l6 47h489l-6 -47h-489zM492 -6q-180 0 -289 109.5t-109 302.5q0 118 36.5 225.5t102 189t163.5 130t214 48.5q178 0 284.5 -106t106.5 -297q0 -126 -35.5 -236t-100.5 -191t-161 -128t-212 -47zM492 39q204 0 333 154t129 403q0 171 -91 264.5t-253 93.5
q-203 0 -336 -156t-133 -392q0 -172 95 -269.5t256 -97.5z" />
    <glyph glyph-name="Obreve" unicode="&#x14e;" horiz-adv-x="1536" 
d="M936 1620q-96 0 -145 63.5t-41 171.5l43 -2q-7 -81 28 -134.5t117 -53.5q88 0 146.5 55.5t72.5 134.5l43 -2q-21 -105 -95.5 -169t-168.5 -64zM711 -6q-257 0 -410.5 160.5t-153.5 443.5q0 169 53.5 326t148 276t234 190.5t300.5 71.5q257 0 410 -158t153 -446
q0 -139 -32.5 -268t-96.5 -237t-152 -188.5t-205 -125.5t-249 -45zM711 41q154 0 284.5 66t217.5 177.5t135.5 259.5t48.5 312q0 267 -137 413t-379 146q-151 0 -281 -68t-217 -181t-136.5 -260.5t-49.5 -307.5q0 -262 138 -409.5t376 -147.5z" />
    <glyph glyph-name="obreve" unicode="&#x14f;" horiz-adv-x="1095" 
d="M635 1149q-97 0 -145 67t-41 193l43 -2q-14 -213 145 -213q89 0 147 59.5t72 155.5l43 -2q-21 -122 -94.5 -190t-169.5 -68zM492 -6q-180 0 -289 109.5t-109 302.5q0 118 36.5 225.5t102 189t163.5 130t214 48.5q178 0 284.5 -106t106.5 -297q0 -126 -35.5 -236
t-100.5 -191t-161 -128t-212 -47zM492 39q204 0 333 154t129 403q0 171 -91 264.5t-253 93.5q-203 0 -336 -156t-133 -392q0 -172 95 -269.5t256 -97.5z" />
    <glyph glyph-name="Ohungarumlaut" unicode="&#x150;" horiz-adv-x="1536" 
d="M799 1614l260 276h59l-264 -276h-55zM1030 1614l258 276h60l-265 -276h-53zM711 -6q-257 0 -410.5 160.5t-153.5 443.5q0 169 53.5 326t148 276t234 190.5t300.5 71.5q257 0 410 -158t153 -446q0 -139 -32.5 -268t-96.5 -237t-152 -188.5t-205 -125.5t-249 -45zM711 41
q154 0 284.5 66t217.5 177.5t135.5 259.5t48.5 312q0 267 -137 413t-379 146q-151 0 -281 -68t-217 -181t-136.5 -260.5t-49.5 -307.5q0 -262 138 -409.5t376 -147.5z" />
    <glyph glyph-name="ohungarumlaut" unicode="&#x151;" horiz-adv-x="1095" 
d="M502 1149l260 276h59l-264 -276h-55zM733 1149l258 276h60l-265 -276h-53zM492 -6q-180 0 -289 109.5t-109 302.5q0 118 36.5 225.5t102 189t163.5 130t214 48.5q178 0 284.5 -106t106.5 -297q0 -126 -35.5 -236t-100.5 -191t-161 -128t-212 -47zM492 39q204 0 333 154
t129 403q0 171 -91 264.5t-253 93.5q-203 0 -336 -156t-133 -392q0 -172 95 -269.5t256 -97.5z" />
    <glyph glyph-name="OE" unicode="&#x152;" horiz-adv-x="1744" 
d="M1726 1407h-712l-82 -655h598l-4 -47h-598l-82 -658h751l-4 -47h-891q-255 0 -403.5 163.5t-148.5 446.5q0 134 33 260t97 231.5t150 184.5t199 123.5t239 44.5h863zM801 47l164 1360h-99q-145 0 -271 -65t-212 -174.5t-135 -254.5t-49 -303q0 -262 133 -412.5
t370 -150.5h99z" />
    <glyph glyph-name="oe" unicode="&#x153;" horiz-adv-x="1511" 
d="M1112 39q67 0 146.5 43t134.5 115l37 -27q-60 -78 -148 -127t-170 -49q-135 0 -221.5 83.5t-110.5 229.5h-2q-54 -141 -155.5 -227t-229.5 -86q-140 0 -229.5 106.5t-89.5 292.5q0 169 61 309t164.5 218.5t226.5 78.5q121 0 199.5 -82.5t97.5 -228.5h4q59 148 170 229.5
t258 81.5q107 0 172.5 -58t65.5 -153q0 -68 -40.5 -127t-104.5 -101t-155.5 -77t-181 -57t-192.5 -39q3 -162 82 -255t211 -93zM784 541q14 190 -55 300.5t-203 110.5q-170 0 -287.5 -161.5t-117.5 -397.5q0 -167 74.5 -260.5t197.5 -93.5q152 0 264 142.5t127 359.5z
M1255 952q-187 0 -303 -139t-131 -362v-17q627 108 627 357q0 38 -13.5 67.5t-34 46.5t-47.5 28t-50.5 15t-47.5 4z" />
    <glyph glyph-name="Racute" unicode="&#x154;" horiz-adv-x="1179" 
d="M575 1628l261 254h59l-262 -254h-58zM133 0l178 1454h430q174 0 265.5 -90t91.5 -248q0 -206 -115 -339t-315 -150l315 -627h-53l-316 625h-358l-76 -625h-47zM262 672h356q201 0 316 123t115 321q0 149 -85.5 220t-226.5 71h-385z" />
    <glyph glyph-name="racute" unicode="&#x155;" horiz-adv-x="559" 
d="M334 1149l260 276h63l-262 -276h-61zM115 0l121 991h45l-37 -299h4q115 245 352 307l-4 -61q-152 -34 -256 -171t-127 -333l-53 -434h-45z" />
    <glyph glyph-name="Rcommaaccent" unicode="&#x156;" horiz-adv-x="1179" 
d="M133 0l178 1454h430q174 0 265.5 -90t91.5 -248q0 -206 -115 -339t-315 -150l315 -627h-53l-316 625h-358l-76 -625h-47zM262 672h356q201 0 316 123t115 321q0 149 -85.5 220t-226.5 71h-385zM319 -408l-10 37q78 5 114 57t36 164v37h41q0 -2 1 -14.5t1 -28.5
q0 -241 -183 -252z" />
    <glyph glyph-name="rcommaaccent" unicode="&#x157;" horiz-adv-x="557" 
d="M115 0l121 991h45l-37 -299h4q115 245 352 307l-4 -61q-152 -34 -256 -171t-127 -333l-53 -434h-45zM-37 -408l-10 37q78 5 113.5 57t35.5 164v37h41q0 -2 1 -14.5t1 -28.5q0 -241 -182 -252z" />
    <glyph glyph-name="Rcaron" unicode="&#x158;" horiz-adv-x="1179" 
d="M686 1628l-192 223h57l160 -184h4l221 184h61l-264 -223h-47zM133 0l178 1454h430q174 0 265.5 -90t91.5 -248q0 -206 -115 -339t-315 -150l315 -627h-53l-316 625h-358l-76 -625h-47zM262 672h356q201 0 316 123t115 321q0 149 -85.5 220t-226.5 71h-385z" />
    <glyph glyph-name="rcaron" unicode="&#x159;" horiz-adv-x="557" 
d="M420 1151l-191 262h54l161 -223h5l225 223h57l-264 -262h-47zM115 0l121 991h45l-37 -299h4q115 245 352 307l-4 -61q-152 -34 -256 -171t-127 -333l-53 -434h-45z" />
    <glyph glyph-name="Sacute" unicode="&#x15a;" horiz-adv-x="1075" 
d="M672 1628l260 254h59l-262 -254h-57zM508 -6q-126 0 -248 58t-201 173l39 31q76 -109 184 -162t228 -53q171 0 278 92t107 248q0 45 -18.5 85.5t-46.5 71.5t-73 63.5t-86.5 56.5t-98.5 56q-11 6 -17 9q-46 25 -73 40t-68.5 41t-66 46.5t-54.5 51t-46 59.5t-27 66.5
t-11 78.5q0 158 114.5 257t299.5 99q106 0 205 -42.5t171 -119.5l-34 -34q-66 72 -158.5 110.5t-188.5 38.5q-155 0 -257.5 -84t-102.5 -221q0 -61 21.5 -109.5t79.5 -95t89.5 -66.5t120.5 -69q4 -3 6 -4q53 -29 81 -44.5t73.5 -44t70.5 -48.5t57 -50.5t48 -58.5t27.5 -63.5
t11.5 -73.5q0 -176 -120 -282.5t-316 -106.5z" />
    <glyph glyph-name="sacute" unicode="&#x15b;" horiz-adv-x="800" 
d="M461 1149l260 276h63l-262 -276h-61zM352 -6q-195 0 -323 137l30 37q120 -129 293 -129q125 0 204 59t79 160q0 37 -14.5 68.5t-34.5 53t-55.5 43t-63 34t-72.5 31.5q-16 7 -24 10q-42 17 -71 31t-63 36.5t-54 47t-34 59.5t-14 76q0 114 88 182.5t211 68.5
q166 0 271 -118l-31 -33q-56 60 -113 83t-135 23q-102 0 -173 -58t-71 -155q0 -37 16 -68t48 -55.5t63.5 -41t79.5 -37.5q8 -3 41 -17t43 -18.5t39 -18.5t40 -21.5t34 -22.5t33 -27l25 -30t21.5 -35.5t11.5 -40t5 -46.5q0 -85 -48 -147.5t-121 -91.5t-161 -29z" />
    <glyph glyph-name="Scircumflex" unicode="&#x15c;" horiz-adv-x="1075" 
d="M395 1628l264 223h48l192 -223h-57l-160 184h-4l-221 -184h-62zM508 -6q-126 0 -248 58t-201 173l39 31q76 -109 184 -162t228 -53q171 0 278 92t107 248q0 45 -18.5 85.5t-46.5 71.5t-73 63.5t-86.5 56.5t-98.5 56q-11 6 -17 9q-46 25 -73 40t-68.5 41t-66 46.5
t-54.5 51t-46 59.5t-27 66.5t-11 78.5q0 158 114.5 257t299.5 99q106 0 205 -42.5t171 -119.5l-34 -34q-66 72 -158.5 110.5t-188.5 38.5q-155 0 -257.5 -84t-102.5 -221q0 -61 21.5 -109.5t79.5 -95t89.5 -66.5t120.5 -69q4 -3 6 -4q53 -29 81 -44.5t73.5 -44t70.5 -48.5
t57 -50.5t48 -58.5t27.5 -63.5t11.5 -73.5q0 -176 -120 -282.5t-316 -106.5z" />
    <glyph glyph-name="scircumflex" unicode="&#x15d;" horiz-adv-x="800" 
d="M229 1147l258 278h48l196 -278h-57l-162 242h-2l-223 -242h-58zM352 -6q-195 0 -323 137l30 37q120 -129 293 -129q125 0 204 59t79 160q0 37 -14.5 68.5t-34.5 53t-55.5 43t-63 34t-72.5 31.5q-16 7 -24 10q-42 17 -71 31t-63 36.5t-54 47t-34 59.5t-14 76
q0 114 88 182.5t211 68.5q166 0 271 -118l-31 -33q-56 60 -113 83t-135 23q-102 0 -173 -58t-71 -155q0 -37 16 -68t48 -55.5t63.5 -41t79.5 -37.5q8 -3 41 -17t43 -18.5t39 -18.5t40 -21.5t34 -22.5t33 -27l25 -30t21.5 -35.5t11.5 -40t5 -46.5q0 -85 -48 -147.5
t-121 -91.5t-161 -29z" />
    <glyph glyph-name="Scedilla" unicode="&#x15e;" horiz-adv-x="1075" 
d="M623 1462q106 0 205 -42.5t171 -119.5l-34 -34q-66 72 -158.5 110.5t-188.5 38.5q-155 0 -257.5 -84t-102.5 -221q0 -61 21.5 -109.5t79.5 -95t89.5 -66.5t120.5 -69q4 -3 6 -4q53 -29 81 -44.5t73.5 -44t70.5 -48.5t57 -50.5t48 -58.5t27.5 -63.5t11.5 -73.5
q0 -176 -120 -282.5t-316 -106.5l-39 -70l2 -2q137 -13 137 -121q0 -80 -54.5 -126t-137.5 -46q-38 0 -78 9l6 45q38 -9 72 -9q67 0 107 33t40 94q0 78 -143 84l8 43l37 68q-117 10 -226 67.5t-180 161.5l39 31q76 -109 184 -162t228 -53q171 0 278 92t107 248
q0 45 -18.5 85.5t-46.5 71.5t-73 63.5t-86.5 56.5t-98.5 56q-11 6 -17 9q-46 25 -73 40t-68.5 41t-66 46.5t-54.5 51t-46 59.5t-27 66.5t-11 78.5q0 158 114.5 257t299.5 99z" />
    <glyph glyph-name="scedilla" unicode="&#x15f;" horiz-adv-x="800" 
d="M389 539q8 -3 41 -17t43 -18.5t39 -18.5t40 -21.5t34 -22.5t33 -27l25 -30t21.5 -35.5t11.5 -40t5 -46.5q0 -85 -48 -147.5t-121 -91.5t-161 -29h-4l-39 -70l2 -2q138 -13 138 -121q0 -80 -55 -126t-138 -46q-38 0 -78 9l6 45q38 -9 72 -9q67 0 107 33t40 94
q0 78 -143 84l8 43l37 68q-158 11 -276 135l30 37q120 -129 293 -129q125 0 204 59t79 160q0 37 -14.5 68.5t-34.5 53t-55.5 43t-63 34t-72.5 31.5q-16 7 -24 10q-42 17 -71 31t-63 36.5t-54 47t-34 59.5t-14 76q0 114 88 182.5t211 68.5q166 0 271 -118l-31 -33
q-56 60 -113 83t-135 23q-102 0 -173 -58t-71 -155q0 -37 16 -68t48 -55.5t63.5 -41t79.5 -37.5z" />
    <glyph glyph-name="Scaron" unicode="&#x160;" horiz-adv-x="1075" 
d="M629 1628l-193 223h58l159 -184h4l222 184h61l-264 -223h-47zM508 -6q-126 0 -248 58t-201 173l39 31q76 -109 184 -162t228 -53q171 0 278 92t107 248q0 45 -18.5 85.5t-46.5 71.5t-73 63.5t-86.5 56.5t-98.5 56q-11 6 -17 9q-46 25 -73 40t-68.5 41t-66 46.5t-54.5 51
t-46 59.5t-27 66.5t-11 78.5q0 158 114.5 257t299.5 99q106 0 205 -42.5t171 -119.5l-34 -34q-66 72 -158.5 110.5t-188.5 38.5q-155 0 -257.5 -84t-102.5 -221q0 -61 21.5 -109.5t79.5 -95t89.5 -66.5t120.5 -69q4 -3 6 -4q53 -29 81 -44.5t73.5 -44t70.5 -48.5t57 -50.5
t48 -58.5t27.5 -63.5t11.5 -73.5q0 -176 -120 -282.5t-316 -106.5z" />
    <glyph glyph-name="scaron" unicode="&#x161;" horiz-adv-x="800" 
d="M451 1151l-191 262h53l162 -223h4l226 223h57l-264 -262h-47zM352 -6q-195 0 -323 137l30 37q120 -129 293 -129q125 0 204 59t79 160q0 37 -14.5 68.5t-34.5 53t-55.5 43t-63 34t-72.5 31.5q-16 7 -24 10q-42 17 -71 31t-63 36.5t-54 47t-34 59.5t-14 76q0 114 88 182.5
t211 68.5q166 0 271 -118l-31 -33q-56 60 -113 83t-135 23q-102 0 -173 -58t-71 -155q0 -37 16 -68t48 -55.5t63.5 -41t79.5 -37.5q8 -3 41 -17t43 -18.5t39 -18.5t40 -21.5t34 -22.5t33 -27l25 -30t21.5 -35.5t11.5 -40t5 -46.5q0 -85 -48 -147.5t-121 -91.5t-161 -29z" />
    <glyph glyph-name="uni0162" unicode="&#x162;" horiz-adv-x="1015" 
d="M174 1454h905l-6 -47h-432l-170 -1395h10l-49 -88l2 -2q137 -13 137 -121q0 -80 -54.5 -126t-137.5 -46q-37 0 -78 9l6 45q37 -9 72 -9q67 0 107 33t40 94q0 78 -143 84l8 43l39 72h-8l172 1407h-426z" />
    <glyph glyph-name="uni0163" unicode="&#x163;" horiz-adv-x="673" 
d="M287 946l-84 -684q-7 -65 -4.5 -114.5t31.5 -79t87 -29.5q106 0 201 76l6 -52q-94 -69 -211 -69h-8l-39 -70l2 -2q138 -13 138 -121q0 -80 -55 -126t-138 -46q-37 0 -78 9l6 45q37 -9 72 -9q67 0 107 33t40 94q0 78 -143 84l8 43l39 72q-136 31 -106 262l84 684h-123
l4 45h123l45 359l45 6l-45 -365h354l-4 -45h-354z" />
    <glyph glyph-name="Tcaron" unicode="&#x164;" horiz-adv-x="1015" 
d="M621 1628l-193 223h57l160 -184h4l221 184h62l-264 -223h-47zM422 0l172 1407h-426l6 47h905l-6 -47h-432l-172 -1407h-47z" />
    <glyph glyph-name="tcaron" unicode="&#x165;" horiz-adv-x="673" 
d="M512 1223l84 323h51l-96 -323h-39zM313 -6q-103 0 -137 69.5t-18 198.5l84 684h-123l4 45h123l45 359l45 6l-45 -365h354l-4 -45h-354l-84 -684q-7 -65 -4.5 -114.5t31.5 -79t87 -29.5q106 0 201 76l6 -52q-94 -69 -211 -69z" />
    <glyph glyph-name="Tbar" unicode="&#x166;" horiz-adv-x="1015" 
d="M1073 1407h-432l-74 -610h221l-2 -45h-225l-92 -752h-47l92 752h-217l2 45h221l74 610h-426l6 47h905z" />
    <glyph glyph-name="tbar" unicode="&#x167;" horiz-adv-x="673" 
d="M641 946h-354l-41 -336h307l-6 -45h-307l-37 -303q-7 -65 -4.5 -114.5t31.5 -79t87 -29.5q106 0 201 76l6 -52q-94 -69 -211 -69q-103 0 -137 69.5t-18 198.5l37 303h-107l6 45h107l41 336h-123l4 45h123l45 359l45 6l-45 -365h354z" />
    <glyph glyph-name="Utilde" unicode="&#x168;" horiz-adv-x="1308" 
d="M948 1628q-11 0 -22.5 2.5t-20.5 5.5t-20.5 9.5t-18.5 10.5t-19 13.5t-16.5 13.5t-17.5 15t-16 14q-68 57 -109 57q-81 0 -135 -127l-39 17q66 156 172 156q37 0 67 -17t66 -49q30 -27 43 -38t38 -24.5t46 -13.5q35 0 69.5 32.5t59.5 96.5l37 -18q-31 -77 -75.5 -116.5
t-88.5 -39.5zM586 -6q-160 0 -258.5 74.5t-132 204t-11.5 309.5l109 872h47l-109 -874q-32 -253 57 -396t300 -143q214 0 346.5 133t165.5 397l106 883h47l-108 -885q-35 -287 -178.5 -431t-380.5 -144z" />
    <glyph glyph-name="utilde" unicode="&#x169;" horiz-adv-x="1050" 
d="M741 1190q-28 0 -58.5 15t-49 30t-45.5 41q-66 55 -107 55q-81 0 -135 -127l-39 17q65 155 172 155q61 0 133 -65q4 -4 17 -15t18.5 -15.5t17 -13.5t19 -13.5t17.5 -9.5t19.5 -7t18.5 -2q35 0 69.5 32.5t59.5 96.5l37 -18q-31 -77 -75.5 -116.5t-88.5 -39.5zM401 -6
q-155 0 -223.5 96t-40.5 305l80 596h45l-80 -594q-14 -86 -6.5 -148t23.5 -102.5t49 -64.5t70 -33.5t85 -9.5q96 0 192.5 67.5t166 183t88.5 247.5l55 454h45l-121 -991h-45l39 313h-4q-70 -144 -183.5 -231.5t-234.5 -87.5z" />
    <glyph glyph-name="Umacron" unicode="&#x16a;" horiz-adv-x="1308" 
d="M565 1710l6 47h490l-6 -47h-490zM586 -6q-160 0 -258.5 74.5t-132 204t-11.5 309.5l109 872h47l-109 -874q-32 -253 57 -396t300 -143q214 0 346.5 133t165.5 397l106 883h47l-108 -885q-35 -287 -178.5 -431t-380.5 -144z" />
    <glyph glyph-name="umacron" unicode="&#x16b;" horiz-adv-x="1050" 
d="M360 1268l7 47h489l-6 -47h-490zM401 -6q-155 0 -223.5 96t-40.5 305l80 596h45l-80 -594q-14 -86 -6.5 -148t23.5 -102.5t49 -64.5t70 -33.5t85 -9.5q96 0 192.5 67.5t166 183t88.5 247.5l55 454h45l-121 -991h-45l39 313h-4q-70 -144 -183.5 -231.5t-234.5 -87.5z" />
    <glyph glyph-name="Ubreve" unicode="&#x16c;" horiz-adv-x="1308" 
d="M788 1620q-96 0 -145 63.5t-41 171.5l43 -2q-7 -81 28.5 -134.5t117.5 -53.5q88 0 146.5 55.5t72.5 134.5l43 -2q-21 -105 -96 -169t-169 -64zM586 -6q-160 0 -258.5 74.5t-132 204t-11.5 309.5l109 872h47l-109 -874q-32 -253 57 -396t300 -143q214 0 346.5 133
t165.5 397l106 883h47l-108 -885q-35 -287 -178.5 -431t-380.5 -144z" />
    <glyph glyph-name="ubreve" unicode="&#x16d;" horiz-adv-x="1050" 
d="M582 1149q-97 0 -145.5 67t-41.5 193l43 -2q-14 -213 146 -213q89 0 147 59.5t72 155.5l43 -2q-21 -122 -94.5 -190t-169.5 -68zM401 -6q-155 0 -223.5 96t-40.5 305l80 596h45l-80 -594q-14 -86 -6.5 -148t23.5 -102.5t49 -64.5t70 -33.5t85 -9.5q96 0 192.5 67.5
t166 183t88.5 247.5l55 454h45l-121 -991h-45l39 313h-4q-70 -144 -183.5 -231.5t-234.5 -87.5z" />
    <glyph glyph-name="Uring" unicode="&#x16e;" horiz-adv-x="1308" 
d="M801 1612q-63 0 -104.5 42t-41.5 105q0 65 43 107.5t109 42.5q63 0 105 -41.5t42 -104.5q0 -65 -43.5 -108t-109.5 -43zM801 1659q47 0 77.5 29t30.5 75q0 44 -29 72.5t-73 28.5q-46 0 -76.5 -29.5t-30.5 -75.5q0 -44 29 -72t72 -28zM586 -6q-160 0 -258.5 74.5t-132 204
t-11.5 309.5l109 872h47l-109 -874q-32 -253 57 -396t300 -143q214 0 346.5 133t165.5 397l106 883h47l-108 -885q-35 -287 -178.5 -431t-380.5 -144z" />
    <glyph glyph-name="uring" unicode="&#x16f;" horiz-adv-x="1050" 
d="M600 1145q-63 0 -104 42t-41 105q0 65 42.5 107.5t108.5 42.5q63 0 105.5 -41.5t42.5 -104.5q0 -65 -44 -108t-110 -43zM600 1192q47 0 78 29t31 75q0 44 -29.5 72.5t-73.5 28.5q-46 0 -76 -29.5t-30 -75.5q0 -44 28.5 -72t71.5 -28zM401 -6q-155 0 -223.5 96t-40.5 305
l80 596h45l-80 -594q-14 -86 -6.5 -148t23.5 -102.5t49 -64.5t70 -33.5t85 -9.5q96 0 192.5 67.5t166 183t88.5 247.5l55 454h45l-121 -991h-45l39 313h-4q-70 -144 -183.5 -231.5t-234.5 -87.5z" />
    <glyph glyph-name="Uhungarumlaut" unicode="&#x170;" horiz-adv-x="1308" 
d="M651 1614l260 276h60l-264 -276h-56zM883 1614l258 276h59l-264 -276h-53zM586 -6q-160 0 -258.5 74.5t-132 204t-11.5 309.5l109 872h47l-109 -874q-32 -253 57 -396t300 -143q214 0 346.5 133t165.5 397l106 883h47l-108 -885q-35 -287 -178.5 -431t-380.5 -144z" />
    <glyph glyph-name="uhungarumlaut" unicode="&#x171;" horiz-adv-x="1050" 
d="M449 1149l260 276h59l-264 -276h-55zM680 1149l258 276h59l-264 -276h-53zM401 -6q-155 0 -223.5 96t-40.5 305l80 596h45l-80 -594q-14 -86 -6.5 -148t23.5 -102.5t49 -64.5t70 -33.5t85 -9.5q96 0 192.5 67.5t166 183t88.5 247.5l55 454h45l-121 -991h-45l39 313h-4
q-70 -144 -183.5 -231.5t-234.5 -87.5z" />
    <glyph glyph-name="Uogonek" unicode="&#x172;" horiz-adv-x="1308" 
d="M1206 1454h47l-108 -885q-61 -493 -434 -563q-95 -49 -159.5 -114t-68.5 -123q-3 -40 23.5 -66.5t75.5 -26.5q38 0 59 6t51 21l4 -47q-52 -27 -116 -27q-76 0 -110.5 42t-29.5 100q3 54 47.5 111t118.5 108l-2 4h-18q-160 0 -258.5 74.5t-132 204t-11.5 309.5l109 872h47
l-109 -874q-32 -253 57 -396t300 -143q214 0 346.5 133t165.5 397z" />
    <glyph glyph-name="uogonek" unicode="&#x173;" horiz-adv-x="1050" 
d="M754 -324q38 0 59 6t51 21l4 -47q-52 -27 -116 -27q-70 0 -108 37t-32 105q8 115 174 245l37 297h-4q-70 -144 -183.5 -231.5t-234.5 -87.5q-155 0 -223.5 96t-40.5 305l80 596h45l-80 -594q-14 -86 -6.5 -148t23.5 -102.5t49 -64.5t70 -33.5t85 -9.5q96 0 192.5 67.5
t166 183t88.5 247.5l55 454h45l-121 -991h-2q-164 -129 -172 -231q-2 -40 22.5 -66.5t76.5 -26.5z" />
    <glyph glyph-name="Wcircumflex" unicode="&#x174;" horiz-adv-x="1849" 
d="M805 1628l264 223h47l193 -223h-58l-159 184h-5l-221 -184h-61zM438 0l-248 1454h50l231 -1372h4l537 1372h57l205 -1372h4l565 1372h51l-602 -1454h-55l-203 1374h-4l-536 -1374h-56z" />
    <glyph glyph-name="wcircumflex" unicode="&#x175;" horiz-adv-x="1566" 
d="M629 1147l258 278h47l196 -278h-57l-162 242h-2l-223 -242h-57zM387 -6q-304 0 -250 401l76 596h45l-76 -594q-8 -72 -8 -126.5t13.5 -94.5t31.5 -66.5t45.5 -42t56.5 -22t64 -6.5q55 0 119 40.5t120.5 108t99.5 164t56 199.5l54 440h45l-70 -573q-8 -77 -8.5 -135
t11 -100.5t27.5 -70t41.5 -44t51.5 -23t59 -6.5q127 0 255 133t179 340q58 236 13 479h49q39 -267 -21 -497q-33 -125 -91.5 -224.5t-126 -157.5t-133.5 -88t-124 -30q-241 0 -233 319h-4q-69 -142 -171.5 -230.5t-195.5 -88.5z" />
    <glyph glyph-name="Ycircumflex" unicode="&#x176;" horiz-adv-x="1036" 
d="M395 1628l264 223h48l192 -223h-57l-160 184h-4l-221 -184h-62zM434 0l80 662l-356 792h51l332 -735h4l516 735h55l-555 -792l-80 -662h-47z" />
    <glyph glyph-name="ycircumflex" unicode="&#x177;" horiz-adv-x="1042" 
d="M618 1389l-223 -242h-57l258 278h47l197 -278h-58l-161 242h-3zM899 991h45l-104 -856q-16 -131 -50.5 -229t-79 -158t-105 -96.5t-120.5 -50t-133 -13.5q-149 0 -301 76l15 47q142 -78 290 -78q64 0 117.5 12t108.5 46t95.5 89t72.5 146t47 213l20 176h-4
q-69 -145 -183 -233t-235 -88q-155 0 -223.5 96t-40.5 305l80 596h45l-80 -594q-14 -86 -6.5 -148t23.5 -102.5t49 -64.5t70 -33.5t85 -9.5q99 0 197 70t167 189.5t85 254.5z" />
    <glyph glyph-name="Ydieresis" unicode="&#x178;" horiz-adv-x="1036" 
d="M528 1696q-23 0 -37 15t-14 40q0 23 15 39t38 16q25 0 40.5 -15t15.5 -38q0 -25 -16.5 -41t-41.5 -16zM801 1696q-23 0 -38 15t-15 40q0 23 16 39t39 16t38 -15t15 -38q0 -25 -16 -41t-39 -16zM434 0l80 662l-356 792h51l332 -735h4l516 735h55l-555 -792l-80 -662h-47z
" />
    <glyph glyph-name="Zacute" unicode="&#x179;" horiz-adv-x="1122" 
d="M567 1628l260 254h60l-262 -254h-58zM59 0l7 43l960 1360v4h-743l6 47h805l-7 -47l-960 -1354l2 -6h801l-6 -47h-865z" />
    <glyph glyph-name="zacute" unicode="&#x17a;" horiz-adv-x="833" 
d="M430 1149l260 276h64l-262 -276h-62zM698 -43q-98 30 -229 36.5t-465 6.5l4 45l740 899v2h-607l6 45h664l-4 -41l-737 -901v-4q199 0 289 -1.5t191.5 -11.5t162.5 -30z" />
    <glyph glyph-name="Zdotaccent" unicode="&#x17b;" horiz-adv-x="1122" 
d="M719 1696q-23 0 -37 15t-14 40q0 23 15 39t38 16t38 -15t15 -38q0 -25 -15 -41t-40 -16zM59 0l7 43l960 1360v4h-743l6 47h805l-7 -47l-960 -1354l2 -6h801l-6 -47h-865z" />
    <glyph glyph-name="zdotaccent" unicode="&#x17c;" horiz-adv-x="833" 
d="M512 1241q-23 0 -37 15t-14 40q0 24 15 40t38 16t38 -15.5t15 -38.5q0 -25 -15 -41t-40 -16zM698 -43q-98 30 -229 36.5t-465 6.5l4 45l740 899v2h-607l6 45h664l-4 -41l-737 -901v-4q199 0 289 -1.5t191.5 -11.5t162.5 -30z" />
    <glyph glyph-name="Zcaron" unicode="&#x17d;" horiz-adv-x="1122" 
d="M678 1628l-193 223h58l159 -184h5l221 184h61l-264 -223h-47zM59 0l7 43l960 1360v4h-743l6 47h805l-7 -47l-960 -1354l2 -6h801l-6 -47h-865z" />
    <glyph glyph-name="zcaron" unicode="&#x17e;" horiz-adv-x="833" 
d="M465 1151l-191 262h54l161 -223h5l225 223h57l-264 -262h-47zM698 -43q-98 30 -229 36.5t-465 6.5l4 45l740 899v2h-607l6 45h664l-4 -41l-737 -901v-4q199 0 289 -1.5t191.5 -11.5t162.5 -30z" />
    <glyph glyph-name="longs" unicode="&#x17f;" horiz-adv-x="516" 
d="M137 0l115 946h-125l4 45h127l29 232q18 153 81 223t169 70q98 0 174 -50l-15 -47q-62 49 -164 49q-82 0 -134 -58.5t-68 -199.5l-148 -1210h-45z" />
    <glyph glyph-name="uni018F" unicode="&#x18f;" horiz-adv-x="1464" 
d="M801 1462q257 0 411 -158t154 -446q0 -139 -32.5 -268t-95 -237t-148.5 -188.5t-200 -125.5t-243 -45q-241 0 -391 161t-150 443q0 43 7 94h1194q12 79 12 164q0 267 -139 413t-381 146q-122 0 -243 -43.5t-204 -116.5l-30 35q81 73 208 122.5t271 49.5zM647 41
q125 0 235.5 46t192.5 127.5t139.5 191.5t83.5 239h-1142q-2 -16 -2 -47q0 -260 135 -408.5t358 -148.5z" />
    <glyph glyph-name="florin" unicode="&#x192;" horiz-adv-x="923" 
d="M55 -186q-121 0 -198 80l30 34q61 -67 170 -67q172 0 234 250l192 796h-143l10 47h146l67 271q37 154 106.5 222.5t172.5 68.5q119 0 196 -80l-30 -35q-61 67 -170 67q-81 0 -140 -56.5t-92 -192.5l-61 -265h307l-12 -47h-308l-196 -801q-37 -155 -107.5 -223.5
t-173.5 -68.5z" />
    <glyph glyph-name="uni019D" unicode="&#x19d;" horiz-adv-x="1388" 
d="M-55 -412q-67 0 -115 19l8 47q37 -19 109 -19q68 0 111 51.5t59 180.5l194 1587h41l742 -1366h4l166 1366h47l-178 -1454h-46l-737 1362h-4l-182 -1495q-16 -135 -66 -207t-153 -72z" />
    <glyph glyph-name="Ohorn" unicode="&#x1a0;" horiz-adv-x="1648" 
d="M1614 1585h47l-27 -211q-18 -138 -67 -198t-127 -60q-6 0 -18 1t-17 1q41 -112 41 -260q0 -139 -32.5 -268t-96.5 -237t-152 -188.5t-205 -125.5t-249 -45q-257 0 -410.5 160.5t-153.5 443.5q0 169 53.5 326t148 276t234 190.5t300.5 71.5q176 0 306 -76t197 -221
q27 -6 54 -6q60 0 96.5 47t50.5 170zM711 41q154 0 284.5 66t217.5 177.5t135.5 259.5t48.5 312q0 267 -137 413t-379 146q-151 0 -281 -68t-217 -181t-136.5 -260.5t-49.5 -307.5q0 -262 138 -409.5t376 -147.5z" />
    <glyph glyph-name="ohorn" unicode="&#x1a1;" horiz-adv-x="1234" 
d="M1204 1157h47l-26 -211q-18 -138 -67.5 -198t-127.5 -60q-6 0 -18.5 1t-18.5 1q8 -39 8 -94q0 -126 -35.5 -236t-100.5 -191t-161 -128t-212 -47q-180 0 -289 109.5t-109 302.5q0 118 36.5 225.5t102 189t163.5 130t214 48.5q142 0 240 -68t133 -196q36 -4 47 -4
q61 0 97.5 47t50.5 170zM492 39q204 0 333 154t129 403q0 171 -91 264.5t-253 93.5q-203 0 -336 -156t-133 -392q0 -172 95 -269.5t256 -97.5z" />
    <glyph glyph-name="Uhorn" unicode="&#x1af;" horiz-adv-x="1411" 
d="M1440 1585h47l-27 -211q-18 -138 -67 -198t-127 -60q-33 0 -54 6l-67 -553q-35 -287 -178.5 -431t-380.5 -144q-160 0 -258.5 74.5t-132 204t-11.5 309.5l109 872h47l-109 -874q-32 -253 57 -396t300 -143q214 0 346.5 133t165.5 397l106 883h47l-34 -291q32 -4 47 -4
q60 0 96.5 47t50.5 170z" />
    <glyph glyph-name="uhorn" unicode="&#x1b0;" horiz-adv-x="1153" 
d="M1143 1157h47l-27 -211q-18 -138 -67 -198t-127 -60q-8 0 -56 6l-84 -694h-45l39 313h-4q-70 -144 -183.5 -231.5t-234.5 -87.5q-155 0 -223.5 96t-40.5 305l80 596h45l-80 -594q-14 -86 -6.5 -148t23.5 -102.5t49 -64.5t70 -33.5t85 -9.5q96 0 192.5 67.5t166 183
t88.5 247.5l55 454h45l-30 -256q36 -4 49 -4q60 0 96.5 47t50.5 170z" />
    <glyph glyph-name="uni01CD" unicode="&#x1cd;" horiz-adv-x="1198" 
d="M713 1628l-193 223h58l159 -184h4l222 184h61l-264 -223h-47zM0 0l684 1454h55l336 -1454h-49l-98 432h-674l-203 -432h-51zM276 479h642l-209 914h-4z" />
    <glyph glyph-name="uni01CE" unicode="&#x1ce;" horiz-adv-x="1087" 
d="M668 1151l-191 262h53l162 -223h4l226 223h57l-264 -262h-47zM438 -6q-157 0 -248.5 111t-91.5 282q0 167 63 306t182 222.5t271 83.5q93 0 181 -34t137 -91l4 3l14 114h45l-121 -991h-45l39 315h-4q-69 -145 -177.5 -233t-248.5 -88zM440 39q90 0 172 48t140 126.5
t97 175.5t52 199l29 223q-37 55 -101.5 89t-117 44t-101.5 10q-138 0 -245.5 -78.5t-164.5 -207.5t-57 -283t78 -250t219 -96z" />
    <glyph glyph-name="uni01CF" unicode="&#x1cf;" horiz-adv-x="462" 
d="M348 1628l-192 223h57l160 -184h4l221 184h61l-264 -223h-47zM147 0l179 1454h47l-178 -1454h-48z" />
    <glyph glyph-name="uni01D0" unicode="&#x1d0;" horiz-adv-x="419" 
d="M260 1151l-190 262h53l162 -223h4l225 223h57l-264 -262h-47zM127 0l121 991h45l-123 -991h-43z" />
    <glyph glyph-name="uni01D1" unicode="&#x1d1;" horiz-adv-x="1536" 
d="M918 1628l-193 223h57l160 -184h4l221 184h62l-264 -223h-47zM711 -6q-257 0 -410.5 160.5t-153.5 443.5q0 169 53.5 326t148 276t234 190.5t300.5 71.5q257 0 410 -158t153 -446q0 -139 -32.5 -268t-96.5 -237t-152 -188.5t-205 -125.5t-249 -45zM711 41q154 0 284.5 66
t217.5 177.5t135.5 259.5t48.5 312q0 267 -137 413t-379 146q-151 0 -281 -68t-217 -181t-136.5 -260.5t-49.5 -307.5q0 -262 138 -409.5t376 -147.5z" />
    <glyph glyph-name="uni01D2" unicode="&#x1d2;" horiz-adv-x="1095" 
d="M616 1151l-190 262h53l162 -223h4l225 223h58l-264 -262h-48zM492 -6q-180 0 -289 109.5t-109 302.5q0 118 36.5 225.5t102 189t163.5 130t214 48.5q178 0 284.5 -106t106.5 -297q0 -126 -35.5 -236t-100.5 -191t-161 -128t-212 -47zM492 39q204 0 333 154t129 403
q0 171 -91 264.5t-253 93.5q-203 0 -336 -156t-133 -392q0 -172 95 -269.5t256 -97.5z" />
    <glyph glyph-name="uni01D3" unicode="&#x1d3;" horiz-adv-x="1308" 
d="M770 1628l-192 223h57l160 -184h4l221 184h61l-264 -223h-47zM586 -6q-160 0 -258.5 74.5t-132 204t-11.5 309.5l109 872h47l-109 -874q-32 -253 57 -396t300 -143q214 0 346.5 133t165.5 397l106 883h47l-108 -885q-35 -287 -178.5 -431t-380.5 -144z" />
    <glyph glyph-name="uni01D4" unicode="&#x1d4;" horiz-adv-x="1050" 
d="M563 1151l-190 262h53l162 -223h4l225 223h57l-264 -262h-47zM401 -6q-155 0 -223.5 96t-40.5 305l80 596h45l-80 -594q-14 -86 -6.5 -148t23.5 -102.5t49 -64.5t70 -33.5t85 -9.5q96 0 192.5 67.5t166 183t88.5 247.5l55 454h45l-121 -991h-45l39 313h-4
q-70 -144 -183.5 -231.5t-234.5 -87.5z" />
    <glyph glyph-name="uni01D5" unicode="&#x1d5;" horiz-adv-x="1308" 
d="M578 1952l6 47h489l-6 -47h-489zM639 1671q-23 0 -37 15t-14 40q0 24 15 40t38 16t38 -15t15 -38q0 -25 -15.5 -41.5t-39.5 -16.5zM940 1671q-23 0 -37 15t-14 40q0 24 15 40t38 16t38 -15t15 -38q0 -25 -15.5 -41.5t-39.5 -16.5zM586 -6q-160 0 -258.5 74.5t-132 204
t-11.5 309.5l109 872h47l-109 -874q-32 -253 57 -396t300 -143q214 0 346.5 133t165.5 397l106 883h47l-108 -885q-35 -287 -178.5 -431t-380.5 -144z" />
    <glyph glyph-name="uni01D6" unicode="&#x1d6;" horiz-adv-x="1050" 
d="M410 1552l6 47h489l-6 -47h-489zM477 1241q-23 0 -37 15t-14 40q0 24 15 40t38 16q25 0 40.5 -15.5t15.5 -38.5q0 -25 -16.5 -41t-41.5 -16zM750 1241q-24 0 -39 15.5t-15 39.5q0 23 16.5 39.5t39.5 16.5t38 -15.5t15 -38.5q0 -25 -16 -41t-39 -16zM401 -6
q-155 0 -223.5 96t-40.5 305l80 596h45l-80 -594q-14 -86 -6.5 -148t23.5 -102.5t49 -64.5t70 -33.5t85 -9.5q96 0 192.5 67.5t166 183t88.5 247.5l55 454h45l-121 -991h-45l39 313h-4q-70 -144 -183.5 -231.5t-234.5 -87.5z" />
    <glyph glyph-name="uni01D7" unicode="&#x1d7;" horiz-adv-x="1308" 
d="M778 1829l262 258h60l-266 -258h-56zM639 1671q-23 0 -37 15t-14 40q0 24 15 40t38 16t38 -15t15 -38q0 -25 -15.5 -41.5t-39.5 -16.5zM940 1671q-23 0 -37 15t-14 40q0 24 15 40t38 16t38 -15t15 -38q0 -25 -15.5 -41.5t-39.5 -16.5zM586 -6q-160 0 -258.5 74.5
t-132 204t-11.5 309.5l109 872h47l-109 -874q-32 -253 57 -396t300 -143q214 0 346.5 133t165.5 397l106 883h47l-108 -885q-35 -287 -178.5 -431t-380.5 -144z" />
    <glyph glyph-name="uni01D8" unicode="&#x1d8;" horiz-adv-x="1050" 
d="M602 1419l252 277h61l-256 -277h-57zM477 1241q-23 0 -37 15t-14 40q0 24 15 40t38 16q25 0 40.5 -15.5t15.5 -38.5q0 -25 -16.5 -41t-41.5 -16zM750 1241q-24 0 -39 15.5t-15 39.5q0 23 16.5 39.5t39.5 16.5t38 -15.5t15 -38.5q0 -25 -16 -41t-39 -16zM401 -6
q-155 0 -223.5 96t-40.5 305l80 596h45l-80 -594q-14 -86 -6.5 -148t23.5 -102.5t49 -64.5t70 -33.5t85 -9.5q96 0 192.5 67.5t166 183t88.5 247.5l55 454h45l-121 -991h-45l39 313h-4q-70 -144 -183.5 -231.5t-234.5 -87.5z" />
    <glyph glyph-name="uni01D9" unicode="&#x1d9;" horiz-adv-x="1308" 
d="M786 1876l-192 201h57l160 -166h4l221 166h62l-264 -201h-48zM639 1671q-23 0 -37 15t-14 40q0 24 15 40t38 16t38 -15t15 -38q0 -25 -15.5 -41.5t-39.5 -16.5zM940 1671q-23 0 -37 15t-14 40q0 24 15 40t38 16t38 -15t15 -38q0 -25 -15.5 -41.5t-39.5 -16.5zM586 -6
q-160 0 -258.5 74.5t-132 204t-11.5 309.5l109 872h47l-109 -874q-32 -253 57 -396t300 -143q214 0 346.5 133t165.5 397l106 883h47l-108 -885q-35 -287 -178.5 -431t-380.5 -144z" />
    <glyph glyph-name="uni01DA" unicode="&#x1da;" horiz-adv-x="1050" 
d="M612 1448l-190 262h53l162 -223h4l225 223h58l-265 -262h-47zM477 1241q-23 0 -37 15t-14 40q0 24 15 40t38 16q25 0 40.5 -15.5t15.5 -38.5q0 -25 -16.5 -41t-41.5 -16zM750 1241q-24 0 -39 15.5t-15 39.5q0 23 16.5 39.5t39.5 16.5t38 -15.5t15 -38.5q0 -25 -16 -41
t-39 -16zM401 -6q-155 0 -223.5 96t-40.5 305l80 596h45l-80 -594q-14 -86 -6.5 -148t23.5 -102.5t49 -64.5t70 -33.5t85 -9.5q96 0 192.5 67.5t166 183t88.5 247.5l55 454h45l-121 -991h-45l39 313h-4q-70 -144 -183.5 -231.5t-234.5 -87.5z" />
    <glyph glyph-name="uni01DB" unicode="&#x1db;" horiz-adv-x="1308" 
d="M797 1829l-207 258h57l205 -258h-55zM639 1671q-23 0 -37 15t-14 40q0 24 15 40t38 16t38 -15t15 -38q0 -25 -15.5 -41.5t-39.5 -16.5zM940 1671q-23 0 -37 15t-14 40q0 24 15 40t38 16t38 -15t15 -38q0 -25 -15.5 -41.5t-39.5 -16.5zM586 -6q-160 0 -258.5 74.5
t-132 204t-11.5 309.5l109 872h47l-109 -874q-32 -253 57 -396t300 -143q214 0 346.5 133t165.5 397l106 883h47l-108 -885q-35 -287 -178.5 -431t-380.5 -144z" />
    <glyph glyph-name="uni01DC" unicode="&#x1dc;" horiz-adv-x="1050" 
d="M600 1419l-221 277h59l219 -277h-57zM477 1241q-23 0 -37 15t-14 40q0 24 15 40t38 16q25 0 40.5 -15.5t15.5 -38.5q0 -25 -16.5 -41t-41.5 -16zM750 1241q-24 0 -39 15.5t-15 39.5q0 23 16.5 39.5t39.5 16.5t38 -15.5t15 -38.5q0 -25 -16 -41t-39 -16zM401 -6
q-155 0 -223.5 96t-40.5 305l80 596h45l-80 -594q-14 -86 -6.5 -148t23.5 -102.5t49 -64.5t70 -33.5t85 -9.5q96 0 192.5 67.5t166 183t88.5 247.5l55 454h45l-121 -991h-45l39 313h-4q-70 -144 -183.5 -231.5t-234.5 -87.5z" />
    <glyph glyph-name="Gcaron" unicode="&#x1e6;" horiz-adv-x="1443" 
d="M887 1628l-193 223h58l159 -184h4l222 184h61l-264 -223h-47zM717 -6q-265 0 -414 164t-149 446q0 168 54 323.5t148 274t232.5 189.5t296.5 71q273 0 461 -223l-35 -35q-175 211 -428 211q-147 0 -275.5 -67.5t-216 -179.5t-138 -259t-50.5 -305q0 -262 135.5 -412.5
t380.5 -150.5q129 0 255.5 43t219.5 123l53 444h-489l6 47h536l-63 -514q-101 -94 -239.5 -142t-280.5 -48z" />
    <glyph glyph-name="gcaron" unicode="&#x1e7;" horiz-adv-x="1089" 
d="M631 1151l-191 262h54l161 -223h4l226 223h57l-264 -262h-47zM360 -412q-170 0 -319 76l14 49q146 -80 310 -80q77 0 137.5 12.5t119 46t100.5 89t74 146.5t48 214l26 203h-4q-71 -141 -180.5 -231t-249.5 -90q-157 0 -248.5 111.5t-91.5 283.5q0 114 37 219t103 185.5
t164 128.5t212 48q93 0 182.5 -34t137.5 -91l2 3l14 114h45l-104 -854q-16 -132 -51 -229.5t-81.5 -158t-111.5 -97.5t-132.5 -50.5t-152.5 -13.5zM438 70q87 0 169 45.5t141 118t98.5 163t50.5 181.5l29 235q-52 77 -143.5 108t-174.5 31q-137 0 -245.5 -77t-165 -198.5
t-56.5 -260.5q0 -154 78 -250t219 -96z" />
    <glyph glyph-name="uni01EA" unicode="&#x1ea;" horiz-adv-x="1536" 
d="M756 -4q-158 -126 -166 -227q-2 -40 22 -66.5t76 -26.5q38 0 59.5 6t51.5 21l4 -47q-52 -27 -117 -27q-70 0 -107.5 37t-31.5 105q8 110 145 223q-250 6 -397.5 165.5t-147.5 438.5q0 169 53.5 326t148 276t234 190.5t300.5 71.5q257 0 410 -158t153 -446
q0 -168 -49 -320.5t-136.5 -269.5t-218.5 -190t-286 -82zM197 598q0 -262 138 -409.5t376 -147.5q154 0 284.5 66t217.5 177.5t135.5 259.5t48.5 312q0 267 -137 413t-379 146q-151 0 -281 -68t-217 -181t-136.5 -260.5t-49.5 -307.5z" />
    <glyph glyph-name="uni01EB" unicode="&#x1eb;" horiz-adv-x="1095" 
d="M518 -6q-158 -126 -166 -225q-2 -40 22.5 -66.5t76.5 -26.5q38 0 59 6t51 21l4 -47q-52 -27 -116 -27q-70 0 -108 37t-32 105q8 106 144 221v4q-164 11 -261.5 119t-97.5 291q0 118 36.5 225.5t102 189t163.5 130t214 48.5q178 0 284.5 -106t106.5 -297
q0 -163 -57.5 -297t-168.5 -216t-257 -89zM141 406q0 -172 95 -269.5t256 -97.5q204 0 333 154t129 403q0 171 -91 264.5t-253 93.5q-203 0 -336 -156t-133 -392z" />
    <glyph glyph-name="Aringacute" unicode="&#x1fa;" horiz-adv-x="1198" 
d="M743 1612q-63 0 -104 42t-41 105q0 65 43 107.5t109 42.5q76 0 120 -60l179 117h77l-237 -156q8 -19 8 -47q0 -65 -44 -108t-110 -43zM750 1864q-46 0 -76.5 -29.5t-30.5 -75.5q0 -44 28.5 -72t71.5 -28q47 0 78 29t31 75q0 44 -29 72.5t-73 28.5zM684 1454h55l336 -1454
h-49l-98 432h-674l-203 -432h-51zM276 479h642l-209 914h-4z" />
    <glyph glyph-name="aringacute" unicode="&#x1fb;" horiz-adv-x="1087" 
d="M705 1145q-63 0 -104.5 42t-41.5 105q0 65 43 107.5t109 42.5q80 0 123 -62l172 111h73l-227 -148q6 -21 6 -47q0 -65 -43.5 -108t-109.5 -43zM711 1397q-46 0 -76.5 -29.5t-30.5 -75.5q0 -44 29 -72t72 -28q47 0 77.5 29t30.5 75q0 44 -29 72.5t-73 28.5zM936 877
l14 114h45l-121 -991h-45l39 315h-4q-69 -145 -177.5 -233t-248.5 -88q-157 0 -248.5 111t-91.5 282q0 167 63 306t182 222.5t271 83.5q93 0 181 -34t137 -91zM901 588l29 223q-37 55 -101.5 89t-117 44t-101.5 10q-138 0 -245.5 -78.5t-164.5 -207.5t-57 -283t78 -250
t219 -96q90 0 172 48t140 126.5t97 175.5t52 199z" />
    <glyph glyph-name="AEacute" unicode="&#x1fc;" horiz-adv-x="1687" 
d="M977 1628l260 254h59l-262 -254h-57zM-49 0l938 1454h786l-6 -47h-715l-77 -657h604l-4 -48h-607l-79 -655h749l-4 -47h-799l54 432h-506l-279 -432h-55zM313 477h484l110 920h-2z" />
    <glyph glyph-name="aeacute" unicode="&#x1fd;" horiz-adv-x="1404" 
d="M1155 1425l-262 -276h-62l261 276h63zM995 39q75 0 155 42.5t136 115.5l37 -27q-61 -79 -150.5 -127.5t-177.5 -48.5q-152 0 -244 82.5t-114 228.5q-50 -143 -137.5 -228t-188.5 -85q-112 0 -184 98t-72 264q0 94 23 186t69 173.5t110 144t153 99t190 36.5
q67 0 139 -19.5t119 -58.5q120 84 279 84q116 0 182.5 -57.5t66.5 -153.5q0 -85 -61.5 -155.5t-164.5 -116t-226 -73.5t-258 -37v-7q0 -170 83 -265t236 -95zM1341 791q0 47 -19.5 80.5t-52.5 50t-65 23.5t-67 7q-139 0 -242 -69t-156 -180.5t-61 -251.5q126 8 242.5 33.5
t211.5 66.5t152 103.5t57 136.5zM313 37q74 0 141 59.5t111.5 148.5t65.5 191q6 139 55 256.5t135 194.5q-81 61 -223 61q-96 0 -178.5 -36.5t-140 -96.5t-98 -138t-60 -161t-19.5 -166q0 -144 60 -228.5t151 -84.5z" />
    <glyph glyph-name="Oslashacute" unicode="&#x1fe;" horiz-adv-x="1550" 
d="M1204 1882l-262 -254h-57l260 254h59zM1481 1427l-150 -167q115 -155 115 -402q0 -139 -32.5 -268t-96.5 -237t-152 -188.5t-205 -125.5t-249 -45q-238 0 -385 135l-131 -147l-33 30l133 150q-148 161 -148 436q0 169 53.5 326t148 276t234 190.5t300.5 71.5
q273 0 420 -170l145 164zM197 598q0 -250 129 -401l944 1060q-136 158 -389 158q-151 0 -281 -68t-217 -181t-136.5 -260.5t-49.5 -307.5zM1397 856q0 222 -99 367l-940 -1057q134 -125 353 -125q154 0 284.5 66t217.5 177.5t135.5 259.5t48.5 312z" />
    <glyph glyph-name="oslashacute" unicode="&#x1ff;" horiz-adv-x="1097" 
d="M948 1425l-262 -276h-61l260 276h63zM1051 977l-121 -123q74 -104 74 -258q0 -169 -61 -305t-178 -216.5t-271 -80.5q-187 0 -293 112l-125 -126l-35 24l133 135q-78 108 -78 267q0 118 36.5 225.5t102 189t163.5 130t214 48.5q185 0 291 -112l115 119zM143 406
q0 -140 64 -232l663 680q-89 100 -258 100q-203 0 -336 -156t-133 -392zM956 596q0 136 -59 225l-664 -680q91 -102 261 -102q204 0 333 154t129 403z" />
    <glyph glyph-name="Scommaaccent" unicode="&#x218;" horiz-adv-x="1075" 
d="M508 -6q-126 0 -248 58t-201 173l39 31q76 -109 184 -162t228 -53q171 0 278 92t107 248q0 45 -18.5 85.5t-46.5 71.5t-73 63.5t-86.5 56.5t-98.5 56q-11 6 -17 9q-46 25 -73 40t-68.5 41t-66 46.5t-54.5 51t-46 59.5t-27 66.5t-11 78.5q0 158 114.5 257t299.5 99
q106 0 205 -42.5t171 -119.5l-34 -34q-66 72 -158.5 110.5t-188.5 38.5q-155 0 -257.5 -84t-102.5 -221q0 -61 21.5 -109.5t79.5 -95t89.5 -66.5t120.5 -69q4 -3 6 -4q53 -29 81 -44.5t73.5 -44t70.5 -48.5t57 -50.5t48 -58.5t27.5 -63.5t11.5 -73.5q0 -176 -120 -282.5
t-316 -106.5zM311 -408l-10 37q78 5 114 57t36 164v37h41q0 -2 1 -14.5t1 -28.5q0 -241 -183 -252z" />
    <glyph glyph-name="scommaaccent" unicode="&#x219;" horiz-adv-x="800" 
d="M352 -6q-195 0 -323 137l30 37q120 -129 293 -129q125 0 204 59t79 160q0 37 -14.5 68.5t-34.5 53t-55.5 43t-63 34t-72.5 31.5q-16 7 -24 10q-42 17 -71 31t-63 36.5t-54 47t-34 59.5t-14 76q0 114 88 182.5t211 68.5q166 0 271 -118l-31 -33q-56 60 -113 83t-135 23
q-102 0 -173 -58t-71 -155q0 -37 16 -68t48 -55.5t63.5 -41t79.5 -37.5q8 -3 41 -17t43 -18.5t39 -18.5t40 -21.5t34 -22.5t33 -27l25 -30t21.5 -35.5t11.5 -40t5 -46.5q0 -85 -48 -147.5t-121 -91.5t-161 -29zM152 -408l-11 37q78 5 114 57t36 164v37h41q0 -2 1 -14.5
t1 -28.5q0 -241 -182 -252z" />
    <glyph glyph-name="uni021A" unicode="&#x21a;" horiz-adv-x="1015" 
d="M422 0l172 1407h-426l6 47h905l-6 -47h-432l-172 -1407h-47zM274 -408l-10 37q78 5 114 57t36 164v37h41q0 -2 1 -14.5t1 -28.5q0 -241 -183 -252z" />
    <glyph glyph-name="uni021B" unicode="&#x21b;" horiz-adv-x="673" 
d="M313 -6q-103 0 -137 69.5t-18 198.5l84 684h-123l4 45h123l45 359l45 6l-45 -365h354l-4 -45h-354l-84 -684q-7 -65 -4.5 -114.5t31.5 -79t87 -29.5q106 0 201 76l6 -52q-94 -69 -211 -69zM109 -408l-11 37q78 5 114 57t36 164v37h41q0 -2 1 -14.5t1 -28.5
q0 -241 -182 -252z" />
    <glyph glyph-name="uni0232" unicode="&#x232;" horiz-adv-x="1036" 
d="M424 1710l6 47h490l-7 -47h-489zM434 0l80 662l-356 792h51l332 -735h4l516 735h55l-555 -792l-80 -662h-47z" />
    <glyph glyph-name="uni0233" unicode="&#x233;" horiz-adv-x="1042" 
d="M852 1315l-6 -47h-490l6 47h490zM899 991h45l-104 -856q-16 -131 -50.5 -229t-79 -158t-105 -96.5t-120.5 -50t-133 -13.5q-149 0 -301 76l15 47q142 -78 290 -78q64 0 117.5 12t108.5 46t95.5 89t72.5 146t47 213l20 176h-4q-69 -145 -183 -233t-235 -88
q-155 0 -223.5 96t-40.5 305l80 596h45l-80 -594q-14 -86 -6.5 -148t23.5 -102.5t49 -64.5t70 -33.5t85 -9.5q99 0 197 70t167 189.5t85 254.5z" />
    <glyph glyph-name="uni0237" unicode="&#x237;" horiz-adv-x="329" 
d="M-127 -412q-61 0 -111 31l11 47q46 -33 104 -33q33 0 58.5 9t50.5 32.5t42.5 72t26.5 120.5l138 1124h45l-140 -1126q-16 -141 -67.5 -209t-157.5 -68z" />
    <glyph glyph-name="uni0251" unicode="&#x251;" horiz-adv-x="1087" 
d="M438 -6q-157 0 -248.5 111t-91.5 282q0 167 63 306t182 222.5t271 83.5q93 0 181 -34t137 -91l4 3l14 114h45l-121 -991h-45l39 315h-4q-69 -145 -177.5 -233t-248.5 -88zM440 39q90 0 172 48t140 126.5t97 175.5t52 199l29 223q-37 55 -101.5 89t-117 44t-101.5 10
q-138 0 -245.5 -78.5t-164.5 -207.5t-57 -283t78 -250t219 -96z" />
    <glyph glyph-name="uni0259" unicode="&#x259;" horiz-adv-x="923" 
d="M467 999q163 0 267 -112t104 -303q0 -167 -64.5 -300.5t-186 -211.5t-280.5 -78q-118 0 -191 65t-73 162q0 70 34.5 129t94.5 100.5t133.5 73.5t160.5 51.5t165 30.5t157 15q-9 155 -96 244t-225 89q-88 0 -164.5 -33t-120.5 -75l-30 35q55 49 139 83.5t176 34.5zM309 39
q144 0 254 70.5t168 191.5t60 274q-142 -11 -260 -34.5t-221.5 -63.5t-162.5 -105t-59 -149q0 -78 61 -131t160 -53z" />
    <glyph glyph-name="uni0261" unicode="&#x261;" horiz-adv-x="1089" 
d="M360 -412q-170 0 -319 76l14 49q146 -80 310 -80q77 0 137.5 12.5t119 46t100.5 89t74 146.5t48 214l26 203h-4q-71 -141 -180.5 -231t-249.5 -90q-157 0 -248.5 111.5t-91.5 283.5q0 114 37 219t103 185.5t164 128.5t212 48q93 0 182.5 -34t137.5 -91l2 3l14 114h45
l-104 -854q-16 -132 -51 -229.5t-81.5 -158t-111.5 -97.5t-132.5 -50.5t-152.5 -13.5zM438 70q87 0 169 45.5t141 118t98.5 163t50.5 181.5l29 235q-52 77 -143.5 108t-174.5 31q-137 0 -245.5 -77t-165 -198.5t-56.5 -260.5q0 -154 78 -250t219 -96z" />
    <glyph glyph-name="uni0272" unicode="&#x272;" horiz-adv-x="1089" 
d="M702 999q298 0 246 -403l-78 -596h-45l78 596q13 86 6 147.5t-22 102t-45.5 64t-64 33t-77.5 9.5q-76 0 -155.5 -38t-146.5 -103t-116 -158t-65 -196l-57 -457q-9 -73 -17 -121.5t-21.5 -100t-31.5 -83t-44.5 -58t-63.5 -38t-86 -11.5q-47 0 -97 17l8 45q43 -17 95 -17
q101 0 144.5 78t68.5 289l123 991h45l-41 -323h4q74 148 200 239.5t256 91.5z" />
    <glyph glyph-name="uni02BB" unicode="&#x2bb;" horiz-adv-x="284" 
d="M174 907l64 445h38l-49 -445h-53z" />
    <glyph glyph-name="uni02BC" unicode="&#x2bc;" horiz-adv-x="229" 
d="M137 1110l84 344h51l-96 -344h-39z" />
    <glyph glyph-name="uni02BE" unicode="&#x2be;" horiz-adv-x="409" 
d="M211 1487q108 -7 167.5 -69t59.5 -152q0 -108 -76.5 -189t-205.5 -90l-2 43q102 5 172.5 67.5t70.5 164.5q0 81 -53.5 129.5t-142.5 54.5z" />
    <glyph glyph-name="uni02BF" unicode="&#x2bf;" horiz-adv-x="407" 
d="M379 987q-108 7 -167.5 69t-59.5 152q0 108 76.5 189t205.5 90l2 -43q-102 -5 -172.5 -67.5t-70.5 -164.5q0 -81 53.5 -129.5t142.5 -54.5z" />
    <glyph glyph-name="circumflex" unicode="&#x2c6;" horiz-adv-x="995" 
d="M324 1120l258 279h47l196 -279h-57l-162 242h-2l-223 -242h-57z" />
    <glyph glyph-name="caron" unicode="&#x2c7;" horiz-adv-x="995" 
d="M547 1124l-191 262h54l161 -223h4l226 223h57l-264 -262h-47z" />
    <glyph glyph-name="uni02C8" unicode="&#x2c8;" horiz-adv-x="317" 
d="M168 807l55 489h47l-55 -487z" />
    <glyph glyph-name="uni02C9" unicode="&#x2c9;" horiz-adv-x="739" 
d="M219 1268l6 47h490l-6 -47h-490z" />
    <glyph glyph-name="uni02CA" unicode="&#x2ca;" horiz-adv-x="530" 
d="M244 1149l260 276h63l-262 -276h-61z" />
    <glyph glyph-name="uni02CB" unicode="&#x2cb;" horiz-adv-x="540" 
d="M410 1149l-197 276h59l195 -276h-57z" />
    <glyph glyph-name="uni02CC" unicode="&#x2cc;" horiz-adv-x="317" 
d="M43 -311l55 489h47l-55 -487z" />
    <glyph glyph-name="breve" unicode="&#x2d8;" horiz-adv-x="897" 
d="M518 1122q-97 0 -145 67t-41 193l43 -2q-14 -213 145 -213q89 0 147 59.5t72 155.5l43 -2q-21 -122 -94.5 -190t-169.5 -68z" />
    <glyph glyph-name="dotaccent" unicode="&#x2d9;" horiz-adv-x="929" 
d="M559 1214q-23 0 -37 15.5t-14 40.5q0 23 15 39t38 16t38 -15t15 -38q0 -25 -15.5 -41.5t-39.5 -16.5z" />
    <glyph glyph-name="ring" unicode="&#x2da;" horiz-adv-x="854" 
d="M516 1112q-63 0 -104 42.5t-41 105.5q0 65 42.5 107t108.5 42q63 0 105.5 -41t42.5 -104q0 -65 -44 -108.5t-110 -43.5zM516 1159q47 0 78 29.5t31 75.5q0 44 -29 72t-74 28q-46 0 -76 -29t-30 -75q0 -44 28.5 -72.5t71.5 -28.5z" />
    <glyph glyph-name="ogonek" unicode="&#x2db;" horiz-adv-x="888" 
d="M410 -371q-70 0 -108 37t-32 105q8 122 191 258l24 -29q-164 -129 -172 -231q-2 -40 22.5 -66.5t76.5 -26.5q38 0 59 6t51 21l4 -47q-52 -27 -116 -27z" />
    <glyph glyph-name="tilde" unicode="&#x2dc;" horiz-adv-x="987" 
d="M723 1163q-28 0 -59 15t-49.5 30t-45.5 41q-34 28 -57.5 42t-48.5 14q-81 0 -135 -127l-39 16q66 156 172 156q37 0 67 -17t66 -49q4 -4 17 -15t18.5 -15.5t17 -13.5t19 -13.5t17.5 -9.5t19.5 -7t18.5 -2q35 0 69.5 32.5t59.5 96.5l37 -18q-31 -77 -75.5 -116.5
t-88.5 -39.5z" />
    <glyph glyph-name="hungarumlaut" unicode="&#x2dd;" horiz-adv-x="970" 
d="M303 1122l260 277h60l-265 -277h-55zM535 1122l258 277h59l-264 -277h-53z" />
    <glyph glyph-name="gravecomb" unicode="&#x300;" 
d="M-877 1122l-196 277h59l195 -277h-58z" />
    <glyph glyph-name="acutecomb" unicode="&#x301;" 
d="M-1087 1122l260 277h63l-262 -277h-61z" />
    <glyph glyph-name="uni0302" unicode="&#x302;" 
d="M-1198 1120l258 279h47l197 -279h-58l-161 242h-3l-223 -242h-57z" />
    <glyph glyph-name="tildecomb" unicode="&#x303;" 
d="M-799 1163q-28 0 -58.5 15t-49 30t-45.5 41q-67 56 -107 56q-81 0 -135 -127l-39 16q66 156 172 156q37 0 67 -17t66 -49q4 -4 17 -15t18.5 -15.5t17 -13.5t19 -13.5t17.5 -9.5t19.5 -7t18.5 -2q35 0 69.5 32.5t59.5 96.5l37 -18q-31 -77 -75.5 -116.5t-88.5 -39.5z" />
    <glyph glyph-name="uni0304" unicode="&#x304;" 
d="M-1178 1241l7 47h489l-6 -47h-490z" />
    <glyph glyph-name="uni0306" unicode="&#x306;" 
d="M-958 1122q-97 0 -145.5 67t-41.5 193l43 -2q-14 -213 146 -213q89 0 147 59.5t72 155.5l43 -2q-21 -122 -94.5 -190t-169.5 -68z" />
    <glyph glyph-name="uni0307" unicode="&#x307;" 
d="M-932 1214q-23 0 -37 15.5t-14 40.5q0 23 15 39t38 16t38 -15t15 -38q0 -25 -15.5 -41.5t-39.5 -16.5z" />
    <glyph glyph-name="uni0308" unicode="&#x308;" 
d="M-1071 1214q-23 0 -37 15.5t-14 40.5q0 23 15 39t38 16q25 0 40 -15t15 -38q0 -25 -16 -41.5t-41 -16.5zM-799 1214q-23 0 -38 15.5t-15 40.5q0 23 16 39t39 16t38.5 -15t15.5 -38q0 -25 -16.5 -41.5t-39.5 -16.5z" />
    <glyph glyph-name="hookabovecomb" unicode="&#x309;" 
d="M-936 1108l-57 2q47 36 69 53.5t63.5 55t61 69.5t19.5 60q0 73 -99 73q-47 0 -97.5 -18.5t-76.5 -46.5l-6 47q89 61 187 61q63 0 100 -27.5t37 -86.5q0 -41 -37.5 -91t-65.5 -73.5t-87 -68.5q-7 -6 -11 -9z" />
    <glyph glyph-name="uni030A" unicode="&#x30a;" 
d="M-938 1118q-63 0 -104 42.5t-41 105.5q0 65 42.5 107t108.5 42q63 0 105.5 -41t42.5 -104q0 -65 -44 -108.5t-110 -43.5zM-938 1165q47 0 78 29.5t31 75.5q0 44 -29 72t-74 28q-46 0 -76 -29t-30 -75q0 -44 28.5 -72.5t71.5 -28.5z" />
    <glyph glyph-name="uni030B" unicode="&#x30b;" 
d="M-1092 1122l261 277h59l-264 -277h-56zM-860 1122l258 277h59l-264 -277h-53z" />
    <glyph glyph-name="uni030C" unicode="&#x30c;" 
d="M-975 1124l-190 262h53l162 -223h4l225 223h57l-264 -262h-47z" />
    <glyph glyph-name="uni0312" unicode="&#x312;" 
d="M-938 1104v45q0 239 180 250l10 -35q-78 -4 -113.5 -57.5t-35.5 -163.5q0 -27 2 -39h-43z" />
    <glyph glyph-name="uni0313" unicode="&#x313;" 
d="M-1063 1399v-45q0 -239 -180 -250l-10 35q78 4 113.5 57.5t35.5 163.5q0 27 -2 39h43z" />
    <glyph glyph-name="uni031B" unicode="&#x31b;" 
d="M-895 985q-22 0 -70 8l15 41q30 -6 55 -6q60 0 96.5 47t50.5 170l27 209h47l-26 -211q-18 -138 -67.5 -198t-127.5 -60z" />
    <glyph glyph-name="dotbelowcomb" unicode="&#x323;" 
d="M-1122 -254q23 0 37 -15t14 -40q0 -24 -15 -40t-38 -16t-38.5 15.5t-15.5 38.5q0 25 15.5 41t40.5 16z" />
    <glyph glyph-name="uni0324" unicode="&#x324;" 
d="M-1255 -254q23 0 38 -15t15 -40q0 -23 -16 -39.5t-39 -16.5t-38.5 15.5t-15.5 38.5q0 25 16.5 41t39.5 16zM-983 -254q23 0 37 -15t14 -40q0 -24 -15 -40t-38 -16q-25 0 -40 15.5t-15 38.5q0 25 16 41t41 16z" />
    <glyph glyph-name="uni0326" unicode="&#x326;" 
d="M-1280 -408l-10 37q78 5 113.5 57t35.5 164v37h41q0 -2 1 -14.5t1 -28.5q0 -241 -182 -252z" />
    <glyph glyph-name="uni0327" unicode="&#x327;" 
d="M-1171 -371q-37 0 -78 9l6 45q37 -9 72 -9q67 0 107 33t40 94q0 78 -143 84l8 43l45 84h45l-49 -88l2 -2q137 -13 137 -121q0 -80 -54.5 -126t-137.5 -46z" />
    <glyph glyph-name="uni0328" unicode="&#x328;" 
d="M-1165 -371q-70 0 -108 37t-32 105q8 122 191 258l24 -29q-164 -129 -172 -231q-2 -40 22.5 -66.5t76.5 -26.5q38 0 59 6t51 21l4 -47q-52 -27 -116 -27z" />
    <glyph glyph-name="uni032E" unicode="&#x32e;" 
d="M-1139 -424q-97 0 -145 67t-41 193l43 -2q-14 -213 145 -213q89 0 147 59.5t72 155.5l44 -2q-21 -122 -95 -190t-170 -68z" />
    <glyph glyph-name="uni0331" unicode="&#x331;" 
d="M-1370 -348l6 47h490l-7 -47h-489z" />
    <glyph glyph-name="uni0335" unicode="&#x335;" 
d="M-1237 565l6 45h457l-6 -45h-457z" />
    <glyph glyph-name="uni0400" unicode="&#x400;" horiz-adv-x="1085" 
d="M801 1634l-201 254h59l199 -254h-57zM133 0l178 1454h760l-4 -47h-715l-80 -655h598l-4 -47h-600l-80 -658h752l-4 -47h-801z" />
    <glyph glyph-name="uni0401" unicode="&#x401;" horiz-adv-x="1085" 
d="M616 1739q-23 0 -37 15t-14 40q0 23 15 39t38 16q25 0 40.5 -15t15.5 -38q0 -25 -16.5 -41t-41.5 -16zM889 1739q-23 0 -38 15t-15 40q0 23 16 39t39 16t38 -15t15 -38q0 -25 -16 -41t-39 -16zM133 0l178 1454h760l-4 -47h-715l-80 -655h598l-4 -47h-600l-80 -658h752
l-4 -47h-801z" />
    <glyph glyph-name="uni0402" unicode="&#x402;" horiz-adv-x="1470" 
d="M938 877q89 0 166 -23.5t137 -69t94.5 -120.5t34.5 -172q0 -123 -43 -219.5t-119 -157t-175.5 -92t-217.5 -31.5q-69 0 -121 8l8 47q41 -8 113 -8q236 0 371 121t135 332q0 160 -102 248.5t-283 88.5q-97 0 -202.5 -28t-196.5 -82l-88 -719h-48l172 1407h-426l5 47h907
l-6 -47h-432l-78 -635q87 46 193.5 75.5t201.5 29.5z" />
    <glyph glyph-name="uni0403" unicode="&#x403;" horiz-adv-x="995" 
d="M571 1628l260 254h60l-262 -254h-58zM133 0l180 1454h764l-6 -47h-717l-174 -1407h-47z" />
    <glyph glyph-name="uni0404" unicode="&#x404;" horiz-adv-x="1327" 
d="M881 1415q-171 0 -316 -92.5t-234 -242t-116 -328.5h821l-6 -47h-823q-4 -62 -4 -95q0 -264 134 -416.5t365 -152.5q129 0 255 50.5t223 156.5l37 -29q-96 -107 -233 -166t-284 -59q-250 0 -398 166t-148 448q0 165 54.5 320.5t148.5 273.5t230.5 189t291.5 71
q269 0 450 -248l-37 -28q-86 122 -185 175.5t-226 53.5z" />
    <glyph glyph-name="uni0405" unicode="&#x405;" horiz-adv-x="1075" 
d="M508 -6q-126 0 -248 58t-201 173l39 31q76 -109 184 -162t228 -53q171 0 278 92t107 248q0 45 -18.5 85.5t-46.5 71.5t-73 63.5t-86.5 56.5t-98.5 56q-11 6 -17 9q-46 25 -73 40t-68.5 41t-66 46.5t-54.5 51t-46 59.5t-27 66.5t-11 78.5q0 158 114.5 257t299.5 99
q106 0 205 -42.5t171 -119.5l-34 -34q-66 72 -158.5 110.5t-188.5 38.5q-155 0 -257.5 -84t-102.5 -221q0 -61 21.5 -109.5t79.5 -95t89.5 -66.5t120.5 -69q4 -3 6 -4q53 -29 81 -44.5t73.5 -44t70.5 -48.5t57 -50.5t48 -58.5t27.5 -63.5t11.5 -73.5q0 -176 -120 -282.5
t-316 -106.5z" />
    <glyph glyph-name="uni0406" unicode="&#x406;" horiz-adv-x="462" 
d="M147 0l179 1454h47l-178 -1454h-48z" />
    <glyph glyph-name="uni0407" unicode="&#x407;" horiz-adv-x="462" 
d="M254 1733q-23 0 -37 15t-14 40q0 23 15 39t38 16q25 0 40 -15t15 -38q0 -25 -16 -41t-41 -16zM526 1733q-23 0 -38 15t-15 40q0 23 16 39t39 16t38.5 -15t15.5 -38q0 -24 -16 -40.5t-40 -16.5zM147 0l179 1454h47l-178 -1454h-48z" />
    <glyph glyph-name="uni0408" unicode="&#x408;" horiz-adv-x="890" 
d="M326 -6q-82 0 -167.5 50.5t-140.5 141.5l31 39q53 -87 129 -135.5t150 -48.5q295 0 340 387l125 1026h47l-125 -1028q-27 -223 -124 -327.5t-265 -104.5z" />
    <glyph glyph-name="uni0409" unicode="&#x409;" horiz-adv-x="2054" 
d="M1556 823q213 0 307 -91.5t91 -266.5q-4 -225 -147 -345t-392 -120h-368l174 1407h-588q-61 -428 -156 -805q-47 -185 -98 -308t-107 -186.5t-110.5 -87.5t-124.5 -24q-37 0 -57 8l6 45q18 -6 51 -6q59 0 107.5 24.5t98.5 86t97 176t90 284.5q97 383 162 840h682
l-78 -631h360zM1905 463q3 166 -84.5 239.5t-276.5 73.5h-354l-90 -729h321q220 0 350.5 107t133.5 309z" />
    <glyph glyph-name="uni040A" unicode="&#x40a;" horiz-adv-x="2035" 
d="M1536 776q211 0 305.5 -86t91.5 -235q-4 -218 -147 -336.5t-391 -118.5h-389l90 729h-826l-90 -729h-47l178 1454h47l-84 -678h828l84 678h47l-84 -678h387zM1884 453q3 141 -85.5 208.5t-274.5 67.5h-381l-84 -682h342q218 0 348.5 105t134.5 301z" />
    <glyph glyph-name="uni040B" unicode="&#x40b;" horiz-adv-x="1443" 
d="M985 870q208 0 280 -104t42 -340l-52 -426h-49l51 422q28 225 -33 313t-243 88q-86 0 -203.5 -31.5t-222.5 -93.5l-86 -698h-47l172 1407h-426l4 47h907l-6 -47h-432l-80 -653q107 58 223 87t201 29z" />
    <glyph glyph-name="uni040C" unicode="&#x40c;" horiz-adv-x="1165" 
d="M913 1882l-262 -254h-57l260 254h59zM1186 1454l-608 -672l440 -782h-57l-416 745l-316 -350l-49 -395h-47l178 1454h47l-120 -977l4 -2l882 979h62z" />
    <glyph glyph-name="uni040D" unicode="&#x40d;" horiz-adv-x="1368" 
d="M883 1628l-201 254h59l199 -254h-57zM133 0l178 1454h47l-165 -1362h2l1050 1362h45l-176 -1454h-47l166 1360h-2l-1049 -1360h-49z" />
    <glyph glyph-name="uni040E" unicode="&#x40e;" horiz-adv-x="1196" 
d="M745 1620q-104 0 -165.5 65t-55.5 173l45 4q-5 -84 40 -141.5t139 -57.5t155.5 58.5t87.5 144.5l43 -13q-34 -109 -110.5 -171t-178.5 -62zM1200 1454h51l-585 -1108q-84 -159 -115 -205q-81 -119 -182 -142q-28 -7 -60 -7q-55 0 -108.5 21t-85.5 61l22 45
q62 -80 174 -80q90 0 151 65t144 226l-420 1124h52l397 -1065h2l6 10z" />
    <glyph glyph-name="uni040F" unicode="&#x40f;" horiz-adv-x="1294" 
d="M1219 1454l-181 -1454h-430l-41 -301h-41l37 301h-430l180 1454h47l-174 -1407h811l174 1407h48z" />
    <glyph glyph-name="uni0410" unicode="&#x410;" horiz-adv-x="1198" 
d="M0 0l684 1454h55l336 -1454h-49l-98 432h-674l-203 -432h-51zM276 479h642l-209 914h-4z" />
    <glyph glyph-name="uni0411" unicode="&#x411;" horiz-adv-x="1132" 
d="M133 0l180 1454h731l-6 -47h-684l-71 -584h342q213 0 306.5 -91.5t90.5 -266.5q-4 -225 -147 -345t-392 -120h-350zM186 47h303q220 0 350.5 107t133.5 309q3 166 -84.5 239.5t-276.5 73.5h-336z" />
    <glyph glyph-name="uni0412" unicode="&#x412;" horiz-adv-x="1175" 
d="M133 0l178 1454h414q68 0 125.5 -15t105 -46.5t74.5 -87t27 -131.5q0 -131 -73 -245.5t-204 -156.5v-2q119 -24 189.5 -98t70.5 -207q0 -224 -144 -344.5t-394 -120.5h-369zM276 788h363q162 0 265.5 112t103.5 274q0 114 -69.5 173.5t-225.5 59.5h-361zM186 47h322
q220 0 351.5 105.5t131.5 304.5q0 146 -87.5 215t-268.5 69h-365z" />
    <glyph glyph-name="uni0413" unicode="&#x413;" horiz-adv-x="995" 
d="M133 0l180 1454h764l-6 -47h-717l-174 -1407h-47z" />
    <glyph glyph-name="uni0414" unicode="&#x414;" horiz-adv-x="1429" 
d="M1317 47l-47 -348h-41l37 301h-1235l-45 -301h-41l49 348h156q176 227 290 623q84 300 150 784h719l-174 -1407h182zM487 653q-111 -386 -276 -606h874l170 1360h-622q-60 -455 -146 -754z" />
    <glyph glyph-name="uni0415" unicode="&#x415;" horiz-adv-x="1085" 
d="M133 0l178 1454h760l-4 -47h-715l-80 -655h598l-4 -47h-600l-80 -658h752l-4 -47h-801z" />
    <glyph glyph-name="uni0416" unicode="&#x416;" horiz-adv-x="1695" 
d="M1749 1454l-592 -702l418 -752h-57l-396 713l-266 -318l-47 -395h-47l49 397l-186 316l-570 -713h-57l602 754l-416 700h56l577 -979l4 2l119 977h47l-119 -977l2 -2l818 979h61z" />
    <glyph glyph-name="uni0417" unicode="&#x417;" horiz-adv-x="1142" 
d="M547 -6q-141 0 -260.5 54t-196.5 161l39 31q148 -199 420 -199q196 0 309 106t113 289q0 156 -93 230.5t-264 74.5h-241l6 47h209q184 0 293.5 104.5t109.5 258.5q0 123 -80 193.5t-241 70.5q-187 0 -363 -110l-28 32q184 125 391 125q78 0 143 -17.5t117 -53.5t81 -96
t29 -140q0 -131 -72 -233t-208 -150v-2q51 -10 95 -33t82.5 -61t60.5 -99.5t22 -138.5q0 -204 -125.5 -324t-347.5 -120z" />
    <glyph glyph-name="uni0418" unicode="&#x418;" horiz-adv-x="1368" 
d="M133 0l178 1454h47l-165 -1362h2l1050 1362h45l-176 -1454h-47l166 1360h-2l-1049 -1360h-49z" />
    <glyph glyph-name="uni0419" unicode="&#x419;" horiz-adv-x="1368" 
d="M821 1620q-104 0 -165.5 65t-55.5 173l45 4q-5 -84 39.5 -141.5t138.5 -57.5t156 58.5t88 144.5l43 -13q-34 -109 -110.5 -171t-178.5 -62zM133 0l178 1454h47l-165 -1362h2l1050 1362h45l-176 -1454h-47l166 1360h-2l-1049 -1360h-49z" />
    <glyph glyph-name="uni041A" unicode="&#x41a;" horiz-adv-x="1165" 
d="M1186 1454l-608 -672l440 -782h-57l-416 745l-316 -350l-49 -395h-47l178 1454h47l-120 -977l4 -2l882 979h62z" />
    <glyph glyph-name="uni041B" unicode="&#x41b;" horiz-adv-x="1349" 
d="M592 1454h682l-180 -1454h-47l174 1407h-588q-61 -428 -156 -805q-47 -185 -98 -308t-107 -186.5t-110.5 -87.5t-124.5 -24q-37 0 -57 8l6 45q18 -6 51 -6q59 0 107.5 24.5t98.5 86t97 176t90 284.5q97 383 162 840z" />
    <glyph glyph-name="uni041C" unicode="&#x41c;" horiz-adv-x="1630" 
d="M133 0l178 1454h45l445 -1071h4l702 1071h45l-176 -1454h-47l164 1346h-6l-674 -1029h-39l-426 1033h-4l-164 -1350h-47z" />
    <glyph glyph-name="uni041D" unicode="&#x41d;" horiz-adv-x="1335" 
d="M133 0l178 1454h47l-92 -745h854l90 745h47l-176 -1454h-47l80 662h-852l-82 -662h-47z" />
    <glyph glyph-name="uni041E" unicode="&#x41e;" horiz-adv-x="1536" 
d="M711 -6q-257 0 -410.5 160.5t-153.5 443.5q0 169 53.5 326t148 276t234 190.5t300.5 71.5q257 0 410 -158t153 -446q0 -139 -32.5 -268t-96.5 -237t-152 -188.5t-205 -125.5t-249 -45zM711 41q154 0 284.5 66t217.5 177.5t135.5 259.5t48.5 312q0 267 -137 413t-379 146
q-151 0 -281 -68t-217 -181t-136.5 -260.5t-49.5 -307.5q0 -262 138 -409.5t376 -147.5z" />
    <glyph glyph-name="uni041F" unicode="&#x41f;" horiz-adv-x="1298" 
d="M133 0l180 1454h910l-181 -1454h-47l174 1407h-815l-174 -1407h-47z" />
    <glyph glyph-name="uni0420" unicode="&#x420;" horiz-adv-x="1116" 
d="M133 0l178 1454h430q174 0 265.5 -90t91.5 -248q0 -220 -129.5 -355.5t-352.5 -135.5h-360l-76 -625h-47zM262 672h356q201 0 316 123t115 321q0 149 -85.5 220t-226.5 71h-385z" />
    <glyph glyph-name="uni0421" unicode="&#x421;" horiz-adv-x="1370" 
d="M700 -6q-250 0 -398 166t-148 448q0 165 54.5 320.5t148.5 273.5t230.5 189t291.5 71q303 0 495 -313l-41 -27q-93 157 -201 225t-251 68q-146 0 -274.5 -68t-215.5 -180t-137.5 -257.5t-50.5 -299.5q0 -264 134 -416.5t365 -152.5q124 0 251.5 56.5t226.5 164.5l37 -29
q-99 -109 -236 -174t-281 -65z" />
    <glyph glyph-name="uni0422" unicode="&#x422;" horiz-adv-x="1015" 
d="M422 0l172 1407h-426l6 47h905l-6 -47h-432l-172 -1407h-47z" />
    <glyph glyph-name="uni0423" unicode="&#x423;" horiz-adv-x="1196" 
d="M1200 1454h51l-585 -1108q-84 -159 -115 -205q-81 -119 -182 -142q-28 -7 -60 -7q-55 0 -108.5 21t-85.5 61l22 45q62 -80 174 -80q90 0 151 65t144 226l-420 1124h52l397 -1065h2l6 10z" />
    <glyph glyph-name="uni0424" unicode="&#x424;" horiz-adv-x="1576" 
d="M1487 829q0 -108 -30.5 -208.5t-91.5 -187t-146 -151.5t-202.5 -103t-252.5 -40l-16 -139h-48l17 139q-256 5 -411.5 146.5t-155.5 378.5q0 140 50.5 265.5t141.5 221t228 152.5t300 59l13 108h47l-15 -108q264 -6 418 -145t154 -388zM199 664q0 -215 140.5 -345
t383.5 -133l141 1129q-293 -6 -479 -189.5t-186 -461.5zM770 186q151 4 277 55t211.5 137t132.5 202t47 247q0 228 -136.5 356t-390.5 132z" />
    <glyph glyph-name="uni0425" unicode="&#x425;" horiz-adv-x="1138" 
d="M14 0l555 723l-381 731h54l358 -684h4l522 684h60l-561 -731l379 -723h-56l-352 676h-4l-520 -676h-58z" />
    <glyph glyph-name="uni0426" unicode="&#x426;" horiz-adv-x="1320" 
d="M1208 47l-47 -348h-41l37 301h-1024l180 1454h47l-174 -1407h793l174 1407h47l-174 -1407h182z" />
    <glyph glyph-name="uni0427" unicode="&#x427;" horiz-adv-x="1175" 
d="M1051 1454h49l-180 -1454h-50l80 643q-107 -58 -232 -87.5t-212 -29.5q-208 0 -280 104t-42 341l60 483h49l-60 -479q-28 -225 33.5 -313.5t243.5 -88.5q90 0 216 32t232 95z" />
    <glyph glyph-name="uni0428" unicode="&#x428;" horiz-adv-x="1816" 
d="M1694 1454h47l-180 -1454h-1428l180 1454h47l-174 -1407h643l175 1407h47l-174 -1407h643z" />
    <glyph glyph-name="uni0429" unicode="&#x429;" horiz-adv-x="1861" 
d="M1749 47l-47 -348h-41l37 301h-1565l180 1454h47l-174 -1407h643l175 1407h47l-174 -1407h643l174 1407h47l-174 -1407h182z" />
    <glyph glyph-name="uni042A" unicode="&#x42a;" horiz-adv-x="1355" 
d="M858 823q213 0 306.5 -91.5t90.5 -266.5q-4 -225 -146.5 -345t-391.5 -120h-369l174 1407h-399l6 47h446l-77 -631h360zM1206 463q3 166 -84 239.5t-276 73.5h-354l-91 -729h322q220 0 350 107t133 309z" />
    <glyph glyph-name="uni042B" unicode="&#x42b;" horiz-adv-x="1523" 
d="M133 0l180 1454h47l-77 -631h329q213 0 307 -91.5t91 -266.5q-4 -225 -147 -345t-392 -120h-338zM1223 0l178 1454h47l-178 -1454h-47zM186 47h291q220 0 350.5 107t133.5 309q3 166 -84.5 239.5t-276.5 73.5h-324z" />
    <glyph glyph-name="uni042C" unicode="&#x42c;" horiz-adv-x="1140" 
d="M133 0l180 1454h47l-77 -631h360q213 0 306.5 -91.5t90.5 -266.5q-4 -225 -146.5 -345t-391.5 -120h-369zM186 47h322q220 0 350 107t133 309q3 166 -84 239.5t-276 73.5h-355z" />
    <glyph glyph-name="uni042D" unicode="&#x42d;" horiz-adv-x="1366" 
d="M719 1462q250 0 398.5 -165.5t148.5 -446.5q0 -171 -52 -326.5t-145.5 -273t-232 -187t-301.5 -69.5q-315 0 -480 246l41 30q60 -100 171 -164.5t268 -64.5q135 0 252.5 52.5t201.5 144t140 211t77 256.5h-829l6 47h829q5 82 5 98q0 261 -135 413t-365 152
q-120 0 -225 -40.5t-211 -127.5l-31 35q223 180 469 180z" />
    <glyph glyph-name="uni042E" unicode="&#x42e;" horiz-adv-x="1925" 
d="M1286 1462q247 0 398 -159.5t151 -442.5q0 -234 -88.5 -431t-255 -317t-377.5 -120q-242 0 -391.5 159t-149.5 437q0 51 2 78h-319l-82 -666h-47l178 1454h47l-90 -741h320q18 151 77 287t149 238.5t214.5 163t263.5 60.5zM1114 39q147 0 274 66t213.5 178t135.5 261.5
t49 313.5q0 263 -135 410t-367 147q-114 0 -218 -44.5t-184 -123.5t-139.5 -182.5t-90.5 -226.5t-31 -250q0 -257 134 -403t359 -146z" />
    <glyph glyph-name="uni042F" unicode="&#x42f;" horiz-adv-x="1173" 
d="M641 1454h457l-180 -1454h-48l76 616h-383h-22l-447 -616h-57l450 621q-150 21 -226.5 116t-76.5 234q0 216 123 349.5t334 133.5zM563 664h389l92 743h-403q-186 0 -297 -118.5t-111 -317.5q0 -146 86.5 -226.5t243.5 -80.5z" />
    <glyph glyph-name="uni0430" unicode="&#x430;" horiz-adv-x="1087" 
d="M438 -6q-157 0 -248.5 111t-91.5 282q0 167 63 306t182 222.5t271 83.5q93 0 181 -34t137 -91l4 3l14 114h45l-121 -991h-45l39 315h-4q-69 -145 -177.5 -233t-248.5 -88zM440 39q90 0 172 48t140 126.5t97 175.5t52 199l29 223q-37 55 -101.5 89t-117 44t-101.5 10
q-138 0 -245.5 -78.5t-164.5 -207.5t-57 -283t78 -250t219 -96z" />
    <glyph glyph-name="uni0431" unicode="&#x431;" horiz-adv-x="1116" 
d="M526 -6q-174 0 -287.5 130t-113.5 363q0 140 19.5 269t62 246t105 207t153 151.5t201.5 81.5q38 7 103 16t104.5 15t89 20t86.5 33l8 -45q-49 -25 -109.5 -39t-150 -26t-125.5 -19q-107 -19 -192.5 -80t-143 -154.5t-94.5 -204t-56 -241.5l4 -2q69 134 187 209t260 75
q169 0 280 -107t111 -296q0 -168 -60.5 -304.5t-176 -217t-265.5 -80.5zM526 39q198 0 326.5 154.5t128.5 402.5q0 168 -95.5 263t-248.5 95q-131 0 -239.5 -69t-167 -175.5t-58.5 -222.5q0 -213 99.5 -330.5t254.5 -117.5z" />
    <glyph glyph-name="uni0432" unicode="&#x432;" horiz-adv-x="993" 
d="M678 532q94 -17 147.5 -78t53.5 -149q0 -142 -106.5 -226.5t-270.5 -84.5q-192 0 -301 100.5t-109 288.5q0 122 39 233.5t108 196.5t171.5 135.5t222.5 50.5q33 0 66.5 -5t71.5 -20t66 -38t47 -62.5t19 -89.5q0 -177 -225 -249v-3zM633 954q-129 0 -235 -65t-169 -170.5
t-82 -235.5l392 62q44 7 83.5 17t84 29t76 43.5t52.5 62.5t21 83q0 51 -21.5 87.5t-57 54t-70.5 25t-74 7.5zM502 39q149 0 239 73.5t90 192.5q0 45 -18.5 83.5t-58 67t-100.5 38.5t-146 -2l-367 -56q-2 -18 -2 -53q0 -168 94.5 -256t268.5 -88z" />
    <glyph glyph-name="uni0433" unicode="&#x433;" horiz-adv-x="835" 
d="M358 -8q-143 0 -220 55.5t-77 151.5q0 86 57.5 153.5t184.5 132.5l223 113q109 55 149 103t40 112t-55.5 102.5t-157.5 38.5q-91 0 -167 -33t-120 -75l-31 35q55 49 139.5 83.5t178.5 34.5q121 0 190.5 -50.5t69.5 -131.5q0 -80 -46.5 -137.5t-162.5 -116.5l-231 -119
q-114 -58 -163.5 -115t-49.5 -128q0 -76 62.5 -120t186.5 -44q186 0 322 158l35 -27q-140 -176 -357 -176z" />
    <glyph glyph-name="uni0434" unicode="&#x434;" horiz-adv-x="1087" 
d="M487 -6q-182 0 -289.5 110.5t-107.5 301.5q0 161 65 296t186 216t273 81q96 0 190.5 -42.5t151.5 -114.5l2 2q-10 279 -121 429t-331 187q-56 10 -123 10l8 46q108 -1 196.5 -24.5t151 -62t110.5 -94.5t77 -116.5t47.5 -135.5t25.5 -144t7 -148q1 -168 -28.5 -309
t-90.5 -252t-163 -173.5t-237 -62.5zM487 39q224 0 346.5 193.5t124.5 541.5q-33 50 -80 87t-95 56t-90 28t-79 9q-140 0 -250 -75t-168.5 -199.5t-58.5 -273.5q0 -171 94 -269t256 -98z" />
    <glyph glyph-name="uni0435" unicode="&#x435;" horiz-adv-x="940" 
d="M477 39q180 0 316 158l34 -27q-140 -176 -350 -176q-170 0 -275.5 110.5t-105.5 298.5q0 162 65 298t182.5 217t262.5 81q31 0 64.5 -5.5t74 -21.5t71.5 -41t52 -69t21 -100q0 -302 -748 -354v-5q0 -169 92 -266.5t244 -97.5zM606 954q-188 0 -318 -145t-145 -356
q699 48 699 305q0 47 -17 83.5t-42.5 57.5t-59 34t-61.5 17t-56 4z" />
    <glyph glyph-name="uni0436" unicode="&#x436;" horiz-adv-x="1415" 
d="M1149 246q57 -127 85.5 -165t68.5 -44l-13 -43q-29 0 -45 8q-9 5 -18 11.5t-17.5 16.5t-15 18t-15 23.5t-14 24.5t-15 29.5t-13.5 30t-15 34.5t-16 35l-100 228q-152 -133 -316 -201l-31 -252h-45l78 639l-2 2q-217 -84 -378.5 -263t-225.5 -378h-45q40 131 122.5 256.5
t194.5 226.5l-94 262q-30 85 -57 131.5t-47 59.5t-49 18l12 43q29 0 45 -8q74 -38 139 -223l88 -248q146 121 303 176l37 297h45l-84 -688l2 -2q229 111 397 301t232 389h45q-41 -135 -127 -267t-203 -239z" />
    <glyph glyph-name="uni0437" unicode="&#x437;" horiz-adv-x="870" 
d="M389 -6q-97 0 -177 20t-118 40.5t-82 51.5l19 46q140 -113 358 -113q149 0 239.5 73.5t90.5 192.5q0 84 -64 135.5t-172 51.5h-221l6 45h158q70 0 140.5 25.5t123.5 83t53 134.5q0 51 -24 87.5t-63.5 54t-76.5 25t-75 7.5q-184 0 -330 -90l-16 41q151 94 346 94
q43 0 87.5 -9.5t92 -31.5t77.5 -67t30 -107q0 -180 -209 -258v-2q87 -20 135.5 -78.5t48.5 -140.5q0 -142 -106.5 -226.5t-270.5 -84.5z" />
    <glyph glyph-name="uni0438" unicode="&#x438;" horiz-adv-x="1042" 
d="M393 -6q-155 0 -223.5 96t-40.5 305l80 596h45l-80 -594q-14 -86 -6.5 -148t23.5 -102.5t49 -64.5t70 -33.5t85 -9.5q96 0 192.5 67.5t166 183t88.5 247.5l55 454h45l-121 -991h-45l39 313h-4q-70 -144 -183.5 -231.5t-234.5 -87.5z" />
    <glyph glyph-name="uni0439" unicode="&#x439;" horiz-adv-x="1042" 
d="M586 1149q-105 0 -166 68t-55 190l45 4q-5 -98 39 -158.5t139 -60.5q96 0 157 61.5t86 161.5l43 -12q-33 -123 -108.5 -188.5t-179.5 -65.5zM393 -6q-155 0 -223.5 96t-40.5 305l80 596h45l-80 -594q-14 -86 -6.5 -148t23.5 -102.5t49 -64.5t70 -33.5t85 -9.5
q96 0 192.5 67.5t166 183t88.5 247.5l55 454h45l-121 -991h-45l39 313h-4q-70 -144 -183.5 -231.5t-234.5 -87.5z" />
    <glyph glyph-name="uni043A" unicode="&#x43a;" horiz-adv-x="968" 
d="M117 0l121 991h45l-88 -712l4 -3q235 121 425 321.5t253 393.5h47q-74 -247 -334 -491l112 -254q57 -127 85.5 -165t68.5 -44l-12 -43q-29 0 -45 8q-27 14 -53 50.5t-41 69t-46 103.5l-106 240q-169 -153 -367 -246l-24 -219h-45z" />
    <glyph glyph-name="uni043B" unicode="&#x43b;" horiz-adv-x="1005" 
d="M618 991h289l-123 -991h-45l117 946h-240q-100 0 -164.5 -56t-86.5 -159q-14 -66 -36 -182t-30 -156q-26 -121 -60 -203.5t-73.5 -123t-76.5 -56.5t-81 -16q-27 0 -39 6l11 45q15 -6 36 -6q73 0 136.5 85t103.5 275q4 22 63 340q22 117 102 184.5t197 67.5z" />
    <glyph glyph-name="uni043C" unicode="&#x43c;" horiz-adv-x="1247" 
d="M115 0l123 991h43l317 -749h4l502 749h45l-123 -991h-45l113 901h-2l-478 -713h-39l-303 715h-2l-110 -903h-45z" />
    <glyph glyph-name="uni043D" unicode="&#x43d;" horiz-adv-x="1077" 
d="M934 991h45l-123 -991h-45l57 459l-651 -4l-57 -455h-45l123 991h45l-62 -491l651 4z" />
    <glyph glyph-name="uni043E" unicode="&#x43e;" horiz-adv-x="1095" 
d="M492 -6q-180 0 -289 109.5t-109 302.5q0 118 36.5 225.5t102 189t163.5 130t214 48.5q178 0 284.5 -106t106.5 -297q0 -126 -35.5 -236t-100.5 -191t-161 -128t-212 -47zM492 39q204 0 333 154t129 403q0 171 -91 264.5t-253 93.5q-203 0 -336 -156t-133 -392
q0 -172 95 -269.5t256 -97.5z" />
    <glyph glyph-name="uni043F" unicode="&#x43f;" horiz-adv-x="1089" 
d="M115 0l123 991h45l-41 -323h4q74 148 200 239.5t256 91.5q298 0 246 -403l-78 -596h-45l78 596q13 86 6 147.5t-22 102t-45.5 64t-64 33t-77.5 9.5q-78 0 -160 -40.5t-149.5 -108.5t-116 -166t-61.5 -205l-53 -432h-45z" />
    <glyph glyph-name="uni0440" unicode="&#x440;" horiz-adv-x="1114" 
d="M63 -406l173 1397h45l-39 -315h4q70 146 178.5 234.5t249.5 88.5q161 0 253.5 -111t92.5 -284q0 -167 -63.5 -305.5t-184 -221.5t-274.5 -83q-94 0 -183 33.5t-137 91.5l-4 -2l-65 -523h-46zM502 39q139 0 248 78t166 206.5t57 282.5q0 155 -78 251.5t-223 96.5
q-91 0 -173 -47t-140.5 -125t-97.5 -174.5t-52 -199.5l-29 -226q27 -43 70.5 -73t91 -44t86 -20t74.5 -6z" />
    <glyph glyph-name="uni0441" unicode="&#x441;" horiz-adv-x="972" 
d="M459 -6q-71 0 -135.5 26.5t-115.5 76t-81.5 127t-30.5 171.5q0 122 36.5 232t102 192.5t164.5 131t217 48.5q93 0 178.5 -39t139.5 -118l-39 -31q-47 72 -121 107.5t-158 35.5q-143 0 -252.5 -78t-165 -204t-55.5 -277q0 -156 91.5 -256t230.5 -100q222 0 350 158l35 -27
q-137 -176 -391 -176z" />
    <glyph glyph-name="uni0442" unicode="&#x442;" horiz-adv-x="1665" 
d="M115 0l121 991h45l-39 -309l4 -2q69 145 179 232t224 87q254 0 248 -313h2q66 140 175 226.5t222 86.5q292 0 240 -403l-80 -596h-45l80 596q13 86 6.5 147.5t-22 102.5t-45 65t-62 33.5t-74.5 9.5q-141 0 -270.5 -150.5t-159.5 -379.5l-55 -424h-45l78 596
q13 86 6.5 147.5t-21 102.5t-43.5 65t-61 33.5t-74 9.5q-93 0 -188 -70t-163.5 -191.5t-84.5 -258.5l-53 -434h-45z" />
    <glyph glyph-name="uni0443" unicode="&#x443;" horiz-adv-x="1042" 
d="M899 991h45l-104 -856q-16 -131 -50.5 -229t-79 -158t-105 -96.5t-120.5 -50t-133 -13.5q-149 0 -301 76l15 47q142 -78 290 -78q64 0 117.5 12t108.5 46t95.5 89t72.5 146t47 213l20 176h-4q-69 -145 -183 -233t-235 -88q-155 0 -223.5 96t-40.5 305l80 596h45l-80 -594
q-14 -86 -6.5 -148t23.5 -102.5t49 -64.5t70 -33.5t85 -9.5q99 0 197 70t167 189.5t85 254.5z" />
    <glyph glyph-name="uni0444" unicode="&#x444;" horiz-adv-x="1439" 
d="M586 -406l76 611h-5q-33 -86 -114.5 -148.5t-169.5 -62.5q-140 0 -211.5 106t-71.5 289q0 167 49.5 305.5t142.5 221.5t212 83q73 0 141 -33.5t104 -91.5l4 3l78 630h45l-88 -719h4q34 86 114 148.5t169 62.5q142 0 213.5 -105.5t71.5 -289.5q0 -167 -49.5 -305.5
t-142.5 -221.5t-212 -83q-73 0 -141.5 33.5t-104.5 91.5l-4 -2l-65 -523h-45zM379 39q113 0 202 114.5t111 292.5l43 361q-41 80 -111 113.5t-132 33.5q-105 0 -187 -78t-125 -206.5t-43 -282.5q0 -159 59.5 -253.5t182.5 -94.5zM948 39q105 0 187 78t125 206.5t43 282.5
q0 159 -60 253.5t-184 94.5q-113 0 -201 -114t-110 -293l-43 -361q41 -80 111 -113.5t132 -33.5z" />
    <glyph glyph-name="uni0445" unicode="&#x445;" horiz-adv-x="882" 
d="M10 0l404 496l-285 495h55l258 -452h9l366 452h60l-406 -497l281 -494h-54l-258 453h-4l-368 -453h-58z" />
    <glyph glyph-name="uni0446" unicode="&#x446;" horiz-adv-x="1091" 
d="M979 45h22l-47 -338h-39l37 293q-54 4 -88 24t-46.5 51t-16 71.5t3.5 84.5l8 82h-4q-70 -144 -183 -231.5t-233 -87.5q-155 0 -223.5 96t-40.5 305l80 596h45l-80 -594q-14 -86 -6.5 -148t23.5 -102.5t49 -64.5t70 -33.5t85 -9.5q96 0 192.5 67.5t166 183t88.5 247.5
l55 454h45l-88 -719q-8 -70 -7.5 -120.5t32.5 -78.5t100 -28z" />
    <glyph glyph-name="uni0447" unicode="&#x447;" horiz-adv-x="976" 
d="M711 0l75 623h-4q-66 -125 -182 -204t-233 -79q-292 0 -244 346l43 305h45l-43 -303q-10 -87 -3 -145.5t36.5 -93.5t70 -49.5t97.5 -14.5q93 0 189.5 59t166.5 161t86 216l23 170h45l-123 -991h-45z" />
    <glyph glyph-name="uni0448" unicode="&#x448;" horiz-adv-x="1595" 
d="M365 -6q-135 0 -199.5 97.5t-36.5 303.5l80 596h45l-80 -594q-48 -358 188 -358q60 0 127.5 40.5t125.5 108t101 164t56 199.5l53 440h45l-71 -594q-13 -86 -5.5 -148t23 -102.5t45 -64.5t61 -33.5t72.5 -9.5q57 0 122.5 40.5t123 107.5t100.5 163.5t56 198.5l53 442h45
l-121 -991h-45l39 313h-4q-65 -145 -168.5 -232t-204.5 -87q-120 0 -184.5 77.5t-58.5 241.5h-5q-69 -143 -172.5 -231t-205.5 -88z" />
    <glyph glyph-name="uni0449" unicode="&#x449;" horiz-adv-x="1644" 
d="M1532 45h22l-47 -338h-39l37 293q-54 4 -88 24t-46.5 51t-16 71.5t3.5 84.5l8 82h-4q-63 -145 -166 -232t-205 -87q-120 0 -184.5 77.5t-58.5 241.5h-5q-69 -143 -172.5 -231t-205.5 -88q-135 0 -199.5 97.5t-36.5 303.5l80 596h45l-80 -594q-48 -358 188 -358
q60 0 127.5 40.5t125.5 108t101 164t56 199.5l53 440h45l-71 -594q-13 -86 -5.5 -148t23 -102.5t45 -64.5t61 -33.5t72.5 -9.5q57 0 122.5 40.5t123 107.5t100.5 163.5t56 198.5l53 442h45l-88 -719q-7 -70 -6.5 -120.5t32 -78.5t99.5 -28z" />
    <glyph glyph-name="uni044A" unicode="&#x44a;" horiz-adv-x="1050" 
d="M686 762q120 0 204.5 -78.5t84.5 -212.5q0 -130 -47 -237.5t-141.5 -174.5t-219.5 -67q-174 0 -248.5 106t-50.5 281l76 567h-262l6 45h307l-59 -436h4q46 87 142 147t204 60zM567 37q160 0 260.5 121t100.5 313q0 110 -68.5 178t-183.5 68q-77 0 -154.5 -40.5
t-137 -120.5t-71.5 -181q-20 -163 45 -250.5t209 -87.5z" />
    <glyph glyph-name="uni044B" unicode="&#x44b;" horiz-adv-x="1202" 
d="M393 -8q-174 0 -248.5 106t-50.5 281l82 612h45l-59 -436h4q46 87 142 147t204 60t190 -79t82 -212q0 -129 -46.5 -237.5t-137 -175t-207.5 -66.5zM938 0l121 991h45l-123 -991h-43zM393 37q149 0 246.5 121.5t97.5 312.5q0 108 -66 177t-169 69q-77 0 -154.5 -40.5
t-137 -120.5t-71.5 -181q-20 -163 45 -250.5t209 -87.5z" />
    <glyph glyph-name="uni044C" unicode="&#x44c;" horiz-adv-x="876" 
d="M393 -8q-174 0 -248.5 106t-50.5 281l82 612h45l-59 -436h4q46 87 142 147t204 60q120 0 204.5 -78.5t84.5 -212.5q0 -130 -47 -237.5t-141.5 -174.5t-219.5 -67zM393 37q160 0 260.5 121t100.5 313q0 110 -68.5 178t-183.5 68q-77 0 -154.5 -40.5t-137 -120.5
t-71.5 -181q-20 -163 45 -250.5t209 -87.5z" />
    <glyph glyph-name="uni044D" unicode="&#x44d;" horiz-adv-x="960" 
d="M475 999q178 0 284.5 -106t106.5 -297q0 -169 -61 -305t-178 -216.5t-271 -80.5q-207 0 -321 137l28 37q103 -129 293 -129q180 0 303 120.5t152 323.5l-592 -8l4 45l594 8q2 23 2 68q0 171 -91 264.5t-253 93.5q-93 0 -175.5 -33.5t-127.5 -74.5l-29 35q59 49 147 83.5
t185 34.5z" />
    <glyph glyph-name="uni044E" unicode="&#x44e;" horiz-adv-x="1458" 
d="M981 999q171 0 277 -106.5t106 -296.5q0 -168 -60.5 -304.5t-175 -217t-262.5 -80.5q-173 0 -281 111t-108 301q0 35 2 51l-262 -2l-57 -455h-45l123 991h45l-62 -491l262 2q29 213 164 355t334 142zM866 39q196 0 323.5 154.5t127.5 402.5q0 170 -91 265t-245 93
q-195 -2 -326 -158t-131 -390q0 -169 93.5 -268t248.5 -99z" />
    <glyph glyph-name="uni044F" unicode="&#x44f;" horiz-adv-x="972" 
d="M516 991h358l-122 -991h-45l49 408l-297 -2q-24 0 -70 4l-168 -240q-8 -12 -25 -37t-25 -37t-21 -29t-25 -28.5t-25 -20.5q-39 -24 -80 -24l-8 43q43 3 72 27t86 106l172 248q-102 21 -152.5 83.5t-50.5 157.5q0 155 106 243.5t271 88.5zM461 451l301 2l61 493h-307
q-150 0 -240 -77t-90 -210q0 -208 275 -208z" />
    <glyph glyph-name="uni0450" unicode="&#x450;" horiz-adv-x="940" 
d="M700 1149h-57l-197 276h60zM477 39q180 0 316 158l34 -27q-140 -176 -350 -176q-170 0 -275.5 110.5t-105.5 298.5q0 162 65 298t182.5 217t262.5 81q31 0 64.5 -5.5t74 -21.5t71.5 -41t52 -69t21 -100q0 -302 -748 -354v-5q0 -169 92 -266.5t244 -97.5zM606 954
q-188 0 -318 -145t-145 -356q699 48 699 305q0 47 -17 83.5t-42.5 57.5t-59 34t-61.5 17t-56 4z" />
    <glyph glyph-name="uni0451" unicode="&#x451;" horiz-adv-x="940" 
d="M481 1241q-23 0 -37 15t-14 40q0 24 15 40t38 16q25 0 40.5 -15.5t15.5 -38.5q0 -25 -16.5 -41t-41.5 -16zM754 1241q-24 0 -39 15.5t-15 39.5q0 23 16.5 39.5t39.5 16.5t38 -15.5t15 -38.5q0 -25 -16 -41t-39 -16zM477 39q180 0 316 158l34 -27q-140 -176 -350 -176
q-170 0 -275.5 110.5t-105.5 298.5q0 162 65 298t182.5 217t262.5 81q31 0 64.5 -5.5t74 -21.5t71.5 -41t52 -69t21 -100q0 -302 -748 -354v-5q0 -169 92 -266.5t244 -97.5zM606 954q-188 0 -318 -145t-145 -356q699 48 699 305q0 47 -17 83.5t-42.5 57.5t-59 34t-61.5 17
t-56 4z" />
    <glyph glyph-name="uni0452" unicode="&#x452;" horiz-adv-x="1054" 
d="M696 946q86 0 144 -35.5t83 -96t35 -140t0 -166.5q-24 -290 -171.5 -543t-376.5 -377l-21 39q148 79 263.5 225t179 316t77.5 346q3 62 3 118t-13.5 105t-36.5 85t-66 56.5t-102 20.5q-112 0 -218 -70t-179 -189.5t-90 -258.5l-47 -381h-45l143 1176h-158l6 45h158
l35 286h43l-35 -286h434l-6 -45h-434l-68 -570h5q73 155 195.5 247.5t262.5 92.5z" />
    <glyph glyph-name="uni0453" unicode="&#x453;" horiz-adv-x="835" 
d="M463 1149l260 276h63l-262 -276h-61zM358 -8q-143 0 -220 55.5t-77 151.5q0 86 57.5 153.5t184.5 132.5l223 113q109 55 149 103t40 112t-55.5 102.5t-157.5 38.5q-91 0 -167 -33t-120 -75l-31 35q55 49 139.5 83.5t178.5 34.5q121 0 190.5 -50.5t69.5 -131.5
q0 -80 -46.5 -137.5t-162.5 -116.5l-231 -119q-114 -58 -163.5 -115t-49.5 -128q0 -76 62.5 -120t186.5 -44q186 0 322 158l35 -27q-140 -176 -357 -176z" />
    <glyph glyph-name="uni0454" unicode="&#x454;" horiz-adv-x="983" 
d="M627 999q81 0 160 -32t133 -95l-35 -32q-97 114 -258 114q-188 0 -313 -121t-160 -311l589 8l-6 -45l-590 -8q-4 -54 -4 -82q0 -158 94.5 -257t251.5 -99q208 0 336 158l35 -27q-137 -176 -377 -176q-163 0 -275 107t-112 294q0 165 62.5 301t185 219.5t283.5 83.5z" />
    <glyph glyph-name="uni0455" unicode="&#x455;" horiz-adv-x="800" 
d="M352 -6q-195 0 -323 137l30 37q120 -129 293 -129q125 0 204 59t79 160q0 37 -14.5 68.5t-34.5 53t-55.5 43t-63 34t-72.5 31.5q-16 7 -24 10q-42 17 -71 31t-63 36.5t-54 47t-34 59.5t-14 76q0 114 88 182.5t211 68.5q166 0 271 -118l-31 -33q-56 60 -113 83t-135 23
q-102 0 -173 -58t-71 -155q0 -37 16 -68t48 -55.5t63.5 -41t79.5 -37.5q8 -3 41 -17t43 -18.5t39 -18.5t40 -21.5t34 -22.5t33 -27l25 -30t21.5 -35.5t11.5 -40t5 -46.5q0 -85 -48 -147.5t-121 -91.5t-161 -29z" />
    <glyph glyph-name="uni0456" unicode="&#x456;" horiz-adv-x="419" 
d="M307 1241q-23 0 -37 15t-14 40q0 24 15 40t38 16t38 -15.5t15 -38.5q0 -25 -15 -41t-40 -16zM127 0l121 991h45l-123 -991h-43z" />
    <glyph glyph-name="uni0457" unicode="&#x457;" horiz-adv-x="419" 
d="M166 1241q-23 0 -37 15t-14 40q0 24 15 40t38 16q24 0 39.5 -15t15.5 -39q0 -25 -16 -41t-41 -16zM438 1241q-23 0 -38 15t-15 40q0 23 16 39.5t39 16.5t38.5 -15.5t15.5 -38.5q0 -24 -16 -40.5t-40 -16.5zM127 0l121 991h45l-123 -991h-43z" />
    <glyph glyph-name="uni0458" unicode="&#x458;" horiz-adv-x="329" 
d="M254 1241q-23 0 -37 15t-14 40q0 24 15 40t38 16t38 -15.5t15 -38.5q0 -25 -15 -41t-40 -16zM-127 -412q-61 0 -111 31l11 47q46 -33 104 -33q33 0 58.5 9t50.5 32.5t42.5 72t26.5 120.5l138 1124h45l-140 -1126q-16 -141 -67.5 -209t-157.5 -68z" />
    <glyph glyph-name="uni0459" unicode="&#x459;" horiz-adv-x="1548" 
d="M1184 762q120 0 204.5 -78.5t84.5 -212.5q0 -130 -47 -237.5t-141.5 -174.5t-219.5 -67q-174 0 -248.5 106t-50.5 281l76 567h-226q-100 0 -164.5 -56t-86.5 -159q-14 -66 -36 -182t-30 -156q-20 -97 -47 -170t-55 -116t-61.5 -69t-63 -35t-64.5 -9q-27 0 -39 6l11 45
q15 -6 36 -6q73 0 136.5 85t103.5 275q4 22 63 340q22 117 102 184.5t197 67.5h275l-59 -436h4q46 87 142 147t204 60zM1065 37q160 0 260 121t100 313q0 110 -68.5 178t-182.5 68q-77 0 -154.5 -40.5t-136.5 -120.5t-72 -181q-20 -163 45 -250.5t209 -87.5z" />
    <glyph glyph-name="uni045A" unicode="&#x45a;" horiz-adv-x="1536" 
d="M1188 762q120 0 204.5 -78.5t84.5 -212.5q0 -130 -47 -237.5t-141.5 -174.5t-219.5 -67q-174 0 -248.5 106t-50.5 281l10 80l-583 -4l-58 -455h-45l123 991h45l-61 -491l585 4l66 487h45l-59 -436h4q46 87 142 147t204 60zM1069 37q160 0 260.5 121t100.5 313
q0 110 -68.5 178t-183.5 68q-77 0 -154.5 -40.5t-136.5 -120.5t-72 -181q-20 -163 45 -250.5t209 -87.5z" />
    <glyph glyph-name="uni045B" unicode="&#x45b;" horiz-adv-x="1060" 
d="M692 946q292 0 240 -403l-70 -543h-45l70 543q13 86 6 147.5t-22 102t-44.5 64t-62 33t-74.5 9.5q-110 0 -215 -70t-178 -189.5t-90 -258.5l-47 -381h-45l143 1176h-158l6 45h158l35 286h43l-35 -286h434l-6 -45h-434l-68 -570h5q73 155 195 247.5t259 92.5z" />
    <glyph glyph-name="uni045C" unicode="&#x45c;" horiz-adv-x="968" 
d="M463 1149l260 276h63l-262 -276h-61zM117 0l121 991h45l-88 -712l4 -3q235 121 425 321.5t253 393.5h47q-74 -247 -334 -491l112 -254q57 -127 85.5 -165t68.5 -44l-12 -43q-29 0 -45 8q-27 14 -53 50.5t-41 69t-46 103.5l-106 240q-169 -153 -367 -246l-24 -219h-45z
" />
    <glyph glyph-name="uni045D" unicode="&#x45d;" horiz-adv-x="1042" 
d="M602 1149l-196 276h59l194 -276h-57zM393 -6q-155 0 -223.5 96t-40.5 305l80 596h45l-80 -594q-14 -86 -6.5 -148t23.5 -102.5t49 -64.5t70 -33.5t85 -9.5q96 0 192.5 67.5t166 183t88.5 247.5l55 454h45l-121 -991h-45l39 313h-4q-70 -144 -183.5 -231.5t-234.5 -87.5z
" />
    <glyph glyph-name="uni045E" unicode="&#x45e;" horiz-adv-x="1042" 
d="M590 1149q-105 0 -166 68t-55 190l45 4q-5 -98 39 -158.5t139 -60.5q96 0 157.5 61.5t86.5 161.5l43 -12q-33 -123 -109 -188.5t-180 -65.5zM899 991h45l-104 -856q-16 -131 -50.5 -229t-79 -158t-105 -96.5t-120.5 -50t-133 -13.5q-149 0 -301 76l15 47q142 -78 290 -78
q64 0 117.5 12t108.5 46t95.5 89t72.5 146t47 213l20 176h-4q-69 -145 -183 -233t-235 -88q-155 0 -223.5 96t-40.5 305l80 596h45l-80 -594q-14 -86 -6.5 -148t23.5 -102.5t49 -64.5t70 -33.5t85 -9.5q99 0 197 70t167 189.5t85 254.5z" />
    <glyph glyph-name="uni045F" unicode="&#x45f;" horiz-adv-x="1042" 
d="M393 -6q-155 0 -223.5 96t-40.5 305l80 596h45l-80 -594q-14 -86 -6.5 -148t23.5 -102.5t49 -64.5t70 -33.5t85 -9.5q96 0 192.5 67.5t166 183t88.5 247.5l55 454h45l-121 -991h-45l39 313h-4q-70 -144 -183.5 -231.5t-234.5 -87.5zM367 -360l36 290h43l-40 -290h-39z
" />
    <glyph glyph-name="uni0462" unicode="&#x462;" horiz-adv-x="1327" 
d="M840 825q97 0 171 -23t127 -71t75 -127t10 -186q-24 -216 -152 -317t-332 -101h-426l150 1186h-369l6 47h367l29 221h49l-29 -221h500l-6 -47h-498l-45 -361h373zM1174 420q18 166 -62.5 262t-275.5 96h-375l-92 -731h374q199 0 305 100.5t126 272.5z" />
    <glyph glyph-name="uni0463" unicode="&#x463;" horiz-adv-x="1480" 
d="M1008 -8q-175 0 -250.5 108t-46.5 291l24 166q24 146 20.5 233.5t-36 124.5t-103.5 37q-58 0 -126 -40.5t-129 -107.5t-107 -165t-59 -203l-54 -436h-45l121 991h45l-39 -321h4q71 147 183.5 238t207.5 91q136 0 171 -111.5t-11 -332.5h4q46 87 141 147t203 60
q120 0 204.5 -78.5t84.5 -212.5q0 -130 -47 -237.5t-141 -174.5t-219 -67zM1008 37q160 0 260 121t100 313q0 110 -68.5 178t-183.5 68q-76 0 -153.5 -41.5t-135.5 -118.5t-71 -170q-25 -171 40.5 -260.5t211.5 -89.5z" />
    <glyph glyph-name="uni0472" unicode="&#x472;" horiz-adv-x="1536" 
d="M883 1462q257 0 410 -158t153 -446q0 -139 -32.5 -268t-96.5 -237t-152 -188.5t-205 -125.5t-249 -45q-257 0 -410.5 160.5t-153.5 443.5q0 169 53.5 326t148 276t234 190.5t300.5 71.5zM881 1415q-177 0 -322.5 -91t-234 -239.5t-117.5 -332.5h1186q4 70 4 104
q0 267 -137 413t-379 146zM711 41q136 0 254.5 51.5t203.5 142t141 211t76 259.5h-1185q-4 -70 -4 -103q0 -264 138 -412.5t376 -148.5z" />
    <glyph glyph-name="uni0473" unicode="&#x473;" horiz-adv-x="1095" 
d="M610 999q178 0 284.5 -106t106.5 -297q0 -126 -35.5 -236t-100.5 -191t-161 -128t-212 -47q-180 0 -289 109.5t-109 302.5q0 118 36.5 225.5t102 189t163.5 130t214 48.5zM610 954q-178 0 -304 -123t-156 -319l802 14q2 23 2 70q0 171 -91 264.5t-253 93.5zM492 39
q178 0 301.5 120.5t152.5 323.5l-803 -14q-2 -20 -2 -63q0 -172 95 -269.5t256 -97.5z" />
    <glyph glyph-name="uni0474" unicode="&#x474;" horiz-adv-x="1282" 
d="M504 0l-322 1454h49l304 -1378h2l493 1147q58 132 112.5 185.5t143.5 53.5q42 0 80.5 -17t50.5 -34l-16 -47q-13 19 -47.5 35t-71.5 16q-71 0 -114.5 -48.5t-90.5 -154.5l-528 -1212h-45z" />
    <glyph glyph-name="uni0475" unicode="&#x475;" horiz-adv-x="962" 
d="M352 0l-231 991h49l215 -934h2l330 754q44 100 84 142t106 42q71 0 109 -49l-23 -41q-37 43 -84 43q-49 0 -80 -33.5t-69 -121.5l-352 -793h-56z" />
    <glyph glyph-name="uni048A" unicode="&#x48a;" horiz-adv-x="1386" 
d="M821 1620q-104 0 -165.5 65t-55.5 173l45 4q-5 -84 39.5 -141.5t138.5 -57.5t156 58.5t88 144.5l43 -13q-34 -109 -110.5 -171t-178.5 -62zM1290 1454l-170 -1407h76v-8l-158 -340h-43l133 301h-61l166 1360h-2l-1049 -1360h-49l178 1454h47l-165 -1362h2l1050 1362h45z
" />
    <glyph glyph-name="uni048B" unicode="&#x48b;" horiz-adv-x="1042" 
d="M586 1149q-105 0 -166 68t-55 190l45 4q-5 -98 39 -158.5t139 -60.5q96 0 157 61.5t86 161.5l43 -12q-33 -123 -108.5 -188.5t-179.5 -65.5zM842 166q-7 -64 3.5 -92.5t51.5 -28.5h35v-8l-148 -330h-41l127 295q-51 6 -68 43.5t-9 104.5q2 23 10.5 89.5t9.5 73.5h-4
q-70 -144 -183 -231.5t-233 -87.5q-155 0 -223.5 96t-40.5 305l80 596h45l-80 -594q-14 -86 -6.5 -148t23.5 -102.5t49 -64.5t70 -33.5t85 -9.5q96 0 192.5 67.5t166 183t88.5 247.5l55 454h45z" />
    <glyph glyph-name="uni048C" unicode="&#x48c;" horiz-adv-x="1163" 
d="M676 825q199 0 302 -99t81 -308q-24 -216 -152 -317t-332 -101h-425l147 1176h-195l7 45h194l29 233h49l-29 -233h342l-6 -45h-342l-43 -351h373zM1010 420q18 166 -62.5 262t-275.5 96h-375l-92 -731h375q200 0 306 101t124 272z" />
    <glyph glyph-name="uni048D" unicode="&#x48d;" horiz-adv-x="921" 
d="M557 752q120 0 204.5 -78.5t84.5 -212.5q0 -125 -47 -230.5t-142 -172t-219 -66.5q-174 0 -248.5 106t-50.5 281l68 506h-141l6 43h141l14 112h45l-14 -112h371l-6 -43h-371l-45 -340h4q46 87 142 147t204 60zM438 37q159 0 260 119.5t101 304.5q0 110 -68.5 178
t-183.5 68q-121 0 -233 -94.5t-130 -237.5q-20 -163 45 -250.5t209 -87.5z" />
    <glyph glyph-name="uni048E" unicode="&#x48e;" horiz-adv-x="1116" 
d="M1098 1116q0 -174 -83 -299t-233 -170l115 -315l-41 -21l-119 326q-59 -12 -121 -12h-360l-76 -625h-47l178 1454h430q174 0 265.5 -90t91.5 -248zM764 692q136 41 210.5 154t74.5 270q0 149 -85.5 220t-226.5 71h-385l-90 -735h356q48 0 103 10l-113 301l43 21z" />
    <glyph glyph-name="uni048F" unicode="&#x48f;" horiz-adv-x="1114" 
d="M1020 604q0 -186 -79 -335.5t-218 -221.5l100 -264l-39 -23l-100 269q-87 -35 -186 -35q-94 0 -183 33.5t-137 91.5l-4 -2l-65 -523h-46l173 1397h45l-39 -315h4q70 146 178.5 234.5t249.5 88.5q161 0 253.5 -111t92.5 -284zM707 90q124 67 195 206.5t71 309.5
q0 155 -78 251.5t-223 96.5q-91 0 -173 -47t-140.5 -125t-97.5 -174.5t-52 -199.5l-29 -226q27 -43 70.5 -73t91 -44t86 -20t74.5 -6q88 0 164 31l-101 274l39 23z" />
    <glyph glyph-name="uni0490" unicode="&#x490;" horiz-adv-x="995" 
d="M1077 1755h41l-47 -348h-717l-174 -1407h-47l180 1454h719z" />
    <glyph glyph-name="uni0491" unicode="&#x491;" horiz-adv-x="839" 
d="M846 1284h39l-41 -338h-568l-116 -946h-45l123 991h569z" />
    <glyph glyph-name="uni0492" unicode="&#x492;" horiz-adv-x="1019" 
d="M1096 1407h-717l-84 -672h391l-6 -45h-389l-86 -690h-47l86 690h-195l6 45h193l90 719h764z" />
    <glyph glyph-name="uni0493" unicode="&#x493;" horiz-adv-x="835" 
d="M358 37q186 0 322 158l35 -27q-140 -176 -357 -176q-143 0 -220 55.5t-77 151.5q0 86 57.5 153.5t184.5 132.5l49 25v2l-192 70l18 39l228 -84l120 61q109 55 149 103t40 112t-55.5 102.5t-157.5 38.5q-91 0 -167 -33t-120 -75l-31 35q55 49 139.5 83.5t178.5 34.5
q121 0 190.5 -50.5t69.5 -131.5q0 -80 -46.5 -137.5t-162.5 -116.5l-88 -45v-2l229 -84l-16 -39l-266 96l-90 -45q-114 -58 -163.5 -115t-49.5 -128q0 -76 62.5 -120t186.5 -44z" />
    <glyph glyph-name="uni0494" unicode="&#x494;" horiz-adv-x="1193" 
d="M1071 1407h-717l-86 -692q192 69 361 69q201 0 316.5 -113.5t115.5 -346.5q0 -153 -39 -286.5t-111.5 -233.5t-184 -158t-247.5 -58q-87 0 -170 21l6 47q95 -21 166 -21q126 0 228.5 55.5t167.5 150t100 217t35 259.5q0 214 -104 317t-281 103t-365 -73l-82 -664h-47
l180 1454h764z" />
    <glyph glyph-name="uni0495" unicode="&#x495;" horiz-adv-x="980" 
d="M549 500q71 0 132.5 -21t111 -64t78 -115.5t28.5 -168.5q0 -242 -147.5 -392.5t-376.5 -150.5q-106 0 -191 31l9 45q83 -31 182 -31q209 0 343 138.5t134 359.5q0 92 -27 158.5t-73.5 101t-96.5 49.5t-108 15q-78 0 -147.5 -26.5t-113.5 -67t-70.5 -83.5t-31.5 -81
l-24 -197h-45l123 991h610l-4 -45h-568l-75 -612h4q57 75 149.5 120.5t194.5 45.5z" />
    <glyph glyph-name="uni0496" unicode="&#x496;" horiz-adv-x="1738" 
d="M1606 47l-47 -348h-41l36 301h-36l-396 713l-266 -318l-47 -395h-47l49 397l-186 316l-570 -713h-57l602 754l-416 700h56l577 -979l4 2l119 977h47l-119 -977l2 -2l818 979h61l-592 -702l391 -705h58z" />
    <glyph glyph-name="uni0497" unicode="&#x497;" horiz-adv-x="1443" 
d="M1341 45h39l-47 -338h-39l37 293h-8q-105 0 -141 68q-14 26 -176 385q-152 -133 -316 -201l-31 -252h-45l78 639l-2 2q-217 -84 -378.5 -263t-225.5 -378h-45q40 131 122.5 256.5t194.5 226.5l-94 262q-30 85 -57 131.5t-47 59.5t-49 18l12 43q29 0 45 -8
q74 -38 139 -223l88 -248q146 121 303 176l37 297h45l-84 -688l2 -2q229 111 397 301t232 389h45q-41 -135 -127 -267t-203 -239q157 -348 179 -385q33 -55 120 -55z" />
    <glyph glyph-name="uni0498" unicode="&#x498;" horiz-adv-x="1142" 
d="M760 770q51 -10 95 -33t82.5 -61t60.5 -99.5t22 -138.5q0 -204 -125.5 -324t-347.5 -120h-2l-35 -80q64 -7 104.5 -35t40.5 -80q0 -82 -52 -126t-142 -44q-48 0 -96 11l6 43q53 -11 82 -11q69 0 113 31.5t44 89.5q0 40 -37 60.5t-120 23.5l47 119q-127 8 -232.5 61
t-177.5 152l39 31q148 -199 420 -199q196 0 309 106t113 289q0 156 -93 230.5t-264 74.5h-241l6 47h209q184 0 293.5 104.5t109.5 258.5q0 123 -80 193.5t-241 70.5q-187 0 -363 -110l-28 32q184 125 391 125q78 0 143 -17.5t117 -53.5t81 -96t29 -140q0 -131 -72 -233
t-208 -150v-2z" />
    <glyph glyph-name="uni0499" unicode="&#x499;" horiz-adv-x="870" 
d="M582 524q87 -20 135.5 -78.5t48.5 -140.5q0 -141 -105.5 -225t-267.5 -86l-35 -80q64 -7 105 -35t41 -80q0 -82 -52.5 -126t-142.5 -44q-48 0 -96 11l6 43q53 -11 82 -11q69 0 113.5 31.5t44.5 89.5q0 40 -37 60.5t-121 23.5l47 117q-84 4 -155.5 24.5t-105.5 39.5
t-75 48l19 46q140 -113 358 -113q149 0 239.5 73.5t90.5 192.5q0 84 -64 135.5t-172 51.5h-221l6 45h158q70 0 140.5 25.5t123.5 83t53 134.5q0 51 -24 87.5t-63.5 54t-76.5 25t-75 7.5q-184 0 -330 -90l-16 41q151 94 346 94q43 0 87.5 -9.5t92 -31.5t77.5 -67t30 -107
q0 -180 -209 -258v-2z" />
    <glyph glyph-name="uni049A" unicode="&#x49a;" horiz-adv-x="1181" 
d="M1049 47l-48 -348h-40l36 301h-36l-416 745l-316 -350l-49 -395h-47l178 1454h47l-120 -977l4 -2l882 979h62l-608 -672l413 -735h58z" />
    <glyph glyph-name="uni049B" unicode="&#x49b;" horiz-adv-x="1003" 
d="M893 45h39l-47 -338h-39l37 293h-9q-105 0 -141 68q-20 35 -182 395q-174 -154 -365 -244l-24 -219h-45l121 991h45l-88 -712l4 -3q235 121 425 321.5t253 393.5h47q-74 -249 -336 -493q165 -369 184 -398q33 -55 121 -55z" />
    <glyph glyph-name="uni049C" unicode="&#x49c;" horiz-adv-x="1220" 
d="M1245 1454l-606 -745l434 -709h-57l-420 686h-61l-56 -444h-45l55 444h-225l-84 -686h-47l178 1454h47l-88 -723l226 2l55 447h45l-55 -447h57l588 721h59z" />
    <glyph glyph-name="uni049D" unicode="&#x49d;" horiz-adv-x="968" 
d="M702 246q57 -127 85.5 -165t68.5 -44l-12 -43q-29 0 -45 8q-27 14 -53 50.5t-41 69t-46 103.5l-106 240l-61 -51l-33 -271h-43l28 234q-125 -96 -258 -158l-24 -219h-45l121 991h45l-88 -712l4 -3q118 60 254 164l41 330h43l-37 -291q137 117 236.5 251.5t140.5 260.5h47
q-74 -247 -334 -491z" />
    <glyph glyph-name="uni049E" unicode="&#x49e;" horiz-adv-x="1189" 
d="M1210 1454l-608 -672l440 -782h-57l-416 745l-315 -350l-49 -395h-47l145 1186h-219l6 45h219l27 223h47l-27 -223h342l-6 -45h-342l-88 -709l4 -2l883 979h61z" />
    <glyph glyph-name="uni049F" unicode="&#x49f;" horiz-adv-x="966" 
d="M700 246q57 -127 85.5 -165t68.5 -44l-12 -43q-29 0 -45 8q-27 14 -53 50.5t-41 69t-46 103.5l-106 240q-169 -153 -367 -246l-24 -219h-45l149 1231h-170l4 45h172l29 231h45l-29 -231h355l-6 -45h-355l-116 -952l4 -3q235 121 424.5 321.5t252.5 393.5h48
q-74 -247 -334 -491z" />
    <glyph glyph-name="uni04A0" unicode="&#x4a0;" horiz-adv-x="1382" 
d="M1403 1454l-608 -672l440 -782h-57l-416 745l-316 -350l-49 -395h-47l172 1407h-399l6 47h446l-120 -977l4 -2l882 979h62z" />
    <glyph glyph-name="uni04A1" unicode="&#x4a1;" horiz-adv-x="1079" 
d="M813 246q57 -127 85.5 -165t68.5 -44l-13 -43q-29 0 -45 8q-17 8 -33 25.5t-26.5 32.5t-27.5 50t-24 51l-28 64l-106 240q-169 -153 -367 -246l-25 -219h-45l115 946h-260l6 45h307l-2 -4l-88 -708l4 -3q235 121 425 321.5t253 393.5h47q-74 -247 -334 -491z" />
    <glyph glyph-name="uni04A2" unicode="&#x4a2;" horiz-adv-x="1380" 
d="M1270 47l-47 -348h-41l37 301h-185l80 662h-852l-82 -662h-47l178 1454h47l-92 -745h854l90 745h47l-170 -1407h183z" />
    <glyph glyph-name="uni04A3" unicode="&#x4a3;" horiz-adv-x="1126" 
d="M1014 45h22l-47 -338h-39l37 293q-55 4 -89 24t-46.5 51t-15.5 71.5t4 84.5l26 228l-649 -4l-57 -455h-45l123 991h45l-62 -491l651 4l60 487h45l-88 -719q-7 -70 -6.5 -120.5t32 -78.5t99.5 -28z" />
    <glyph glyph-name="uni04A4" unicode="&#x4a4;" horiz-adv-x="1605" 
d="M1206 1454h482l-7 -47h-434l-174 -1407h-47l82 662h-846l-82 -662h-47l178 1454h47l-92 -745h848z" />
    <glyph glyph-name="uni04A5" unicode="&#x4a5;" horiz-adv-x="1259" 
d="M1268 991l-4 -45h-310l-116 -946h-45l57 459l-633 -4l-57 -455h-45l123 991h45l-62 -491l633 4l61 487h353z" />
    <glyph glyph-name="uni04A6" unicode="&#x4a6;" horiz-adv-x="2056" 
d="M1491 784q201 0 316.5 -113.5t115.5 -346.5q0 -153 -39 -286.5t-111.5 -233.5t-184 -158t-247.5 -58q-87 0 -170 21l7 47q94 -21 165 -21q126 0 228.5 55.5t167.5 150t100 217t35 259.5q0 214 -104 317t-281 103t-365 -73l-82 -664h-47l174 1407h-815l-174 -1407h-47
l180 1454h910l-93 -739q192 69 361 69z" />
    <glyph glyph-name="uni04A7" unicode="&#x4a7;" horiz-adv-x="1675" 
d="M1069 -412q-105 0 -190 31l8 45q83 -31 182 -31q209 0 343 138.5t134 359.5q0 92 -27 158.5t-73.5 101t-96.5 49.5t-108 15q-78 0 -147 -26.5t-113 -67t-70.5 -83.5t-31.5 -81l-25 -197h-45l78 592q46 360 -185 360q-163 0 -312 -152t-175 -364l-53 -436h-45l121 991h45
l-39 -321h4q74 146 200.5 237.5t256.5 91.5q131 0 192.5 -98t34.5 -309l-33 -258h4q53 75 145 120.5t195 45.5q71 0 132.5 -21t111 -64t78 -115.5t28.5 -168.5q0 -242 -147.5 -392.5t-376.5 -150.5z" />
    <glyph glyph-name="uni04A8" unicode="&#x4a8;" horiz-adv-x="1622" 
d="M1548 133l35 -31q-101 -110 -272 -110q-140 0 -256 76q-149 -76 -330 -76q-266 0 -430 162t-164 444q0 169 53.5 326t147.5 276t233.5 190.5t300.5 71.5q67 0 146 -14l-15 -45q-62 12 -133 12q-151 0 -281 -68t-217 -181t-136.5 -260.5t-49.5 -307.5q0 -261 148.5 -410
t396.5 -149q156 0 283 57v2q-101 83 -156 215.5t-55 298.5q0 95 18.5 189.5t55 178.5t87 148.5t118.5 102t145 37.5q128 0 204 -114t76 -304q0 -232 -104.5 -435.5t-290.5 -318.5v-2q98 -55 205 -55q150 0 237 94zM846 614q0 -163 55.5 -291t157.5 -200q184 104 288.5 302.5
t104.5 424.5q0 167 -63 269t-170 102q-111 0 -198.5 -94t-131 -230.5t-43.5 -282.5z" />
    <glyph glyph-name="uni04A9" unicode="&#x4a9;" horiz-adv-x="1255" 
d="M1208 197l33 -27q-61 -89 -160.5 -132.5t-185.5 -43.5q-115 0 -199 41q-100 -41 -225 -41q-181 0 -289 113.5t-108 302.5q0 182 73 334.5t189 263.5l33 -25q-128 -132 -188 -271t-60 -302q0 -172 94.5 -271.5t255.5 -99.5q93 0 172 24v5q-75 54 -115.5 156.5t-40.5 226.5
q0 144 45.5 268t128.5 199t185 75q59 0 103.5 -25t70 -68.5t37.5 -97.5t12 -118q0 -190 -87.5 -362t-229.5 -259v-2q59 -22 143 -22t172.5 42.5t140.5 115.5zM535 446q0 -124 43 -219.5t122 -140.5q147 75 234.5 241.5t87.5 354.5q0 122 -43 194t-133 72q-87 0 -159.5 -71.5
t-112 -186.5t-39.5 -244z" />
    <glyph glyph-name="uni04AA" unicode="&#x4aa;" horiz-adv-x="1370" 
d="M881 1415q-146 0 -274.5 -68t-215.5 -180t-137.5 -257.5t-50.5 -299.5q0 -264 134 -416.5t365 -152.5q124 0 251.5 56.5t226.5 164.5l37 -29q-99 -109 -236 -174t-281 -65h-18l-35 -80q64 -7 105 -35t41 -80q0 -82 -52.5 -126t-142.5 -44q-48 0 -96 11l6 43
q53 -11 82 -11q69 0 113.5 31.5t44.5 89.5q0 40 -37 60.5t-121 23.5l49 119q-224 22 -354.5 185.5t-130.5 426.5q0 165 54.5 320.5t148.5 273.5t230.5 189t291.5 71q303 0 495 -313l-41 -27q-93 157 -201 225t-251 68z" />
    <glyph glyph-name="uni04AB" unicode="&#x4ab;" horiz-adv-x="972" 
d="M616 999q93 0 178.5 -39t139.5 -118l-39 -31q-47 72 -121 107.5t-158 35.5q-143 0 -252.5 -78t-165 -204t-55.5 -277q0 -156 91.5 -256t230.5 -100q222 0 350 158l35 -27q-134 -173 -379 -176l-35 -80q64 -7 105 -35t41 -80q0 -82 -52.5 -126t-142.5 -44q-48 0 -96 11
l6 43q53 -11 82 -11q69 0 113.5 31.5t44.5 89.5q0 40 -37 60.5t-121 23.5l47 119q-139 11 -234.5 117t-95.5 282q0 122 36.5 232t102 192.5t164.5 131t217 48.5z" />
    <glyph glyph-name="uni04AC" unicode="&#x4ac;" horiz-adv-x="1015" 
d="M1073 1407h-432l-166 -1360h182l-47 -348h-41l37 301h-184l172 1407h-426l6 47h905z" />
    <glyph glyph-name="uni04AD" unicode="&#x4ad;" horiz-adv-x="1703" 
d="M1595 45h23l-47 -338h-39l37 293q-72 5 -110.5 38.5t-42.5 84t3 113.5l51 360q12 108 5.5 177t-38 109.5t-70 56t-91.5 15.5q-62 0 -129 -39t-125.5 -106.5t-102.5 -168.5t-59 -216l-55 -424h-45l78 596q13 86 6.5 147.5t-21 102.5t-43.5 65t-61 33.5t-74 9.5
q-91 0 -185 -70t-163 -191.5t-86 -258.5l-51 -434h-45l121 991h45l-39 -309l4 -2q69 144 178.5 231.5t220.5 87.5q254 0 248 -313h2q66 139 173 226t210 87q141 0 206 -97.5t34 -305.5l-48 -322q-9 -72 -8 -123t32.5 -78.5t100.5 -27.5z" />
    <glyph glyph-name="uni04AE" unicode="&#x4ae;" horiz-adv-x="1036" 
d="M434 0l80 662l-356 792h51l332 -735h4l516 735h55l-555 -792l-80 -662h-47z" />
    <glyph glyph-name="uni04AF" unicode="&#x4af;" horiz-adv-x="950" 
d="M328 -406l39 398l-246 999h49l231 -946h5q389 472 487 946h49q-32 -159 -92.5 -312.5t-140.5 -284.5t-146.5 -223t-148.5 -191l-41 -386h-45z" />
    <glyph glyph-name="uni04B0" unicode="&#x4b0;" horiz-adv-x="1036" 
d="M1116 1454l-532 -762h299l-6 -45h-318l-78 -647h-47l78 647h-324l7 45h305l-342 762h51l332 -735h4l516 735h55z" />
    <glyph glyph-name="uni04B1" unicode="&#x4b1;" horiz-adv-x="950" 
d="M942 991q-98 -484 -485 -948h229l-6 -43h-266l-41 -406h-45l39 406h-254l4 43h239l-235 948h49l231 -946h5q389 472 487 946h49z" />
    <glyph glyph-name="uni04B2" unicode="&#x4b2;" horiz-adv-x="1167" 
d="M1034 47l-47 -348h-41l37 301h-35l-352 676h-4l-520 -676h-58l555 723l-381 731h54l358 -684h4l522 684h60l-561 -731l354 -676h55z" />
    <glyph glyph-name="uni04B3" unicode="&#x4b3;" horiz-adv-x="937" 
d="M668 147q34 -61 66 -81.5t85 -20.5h43l-47 -338h-39l37 293h-12q-54 0 -92.5 23t-69.5 79l-199 351h-4l-368 -453h-58l404 496l-285 495h55l258 -452h9l366 452h60l-406 -495z" />
    <glyph glyph-name="uni04B4" unicode="&#x4b4;" horiz-adv-x="1607" 
d="M1495 47l-47 -348h-41l37 301h-1024l174 1407h-426l6 47h903l-6 -47h-430l-168 -1360h793l174 1407h47l-174 -1407h182z" />
    <glyph glyph-name="uni04B5" unicode="&#x4b5;" horiz-adv-x="1091" 
d="M909 1315l-6 -47h-588l9 47h585zM979 45h22l-47 -338h-39l37 293q-54 4 -88 24t-46.5 51t-16 71.5t3.5 84.5l8 82h-4q-70 -144 -183 -231.5t-233 -87.5q-155 0 -223.5 96t-40.5 305l80 596h45l-80 -594q-14 -86 -6.5 -148t23.5 -102.5t49 -64.5t70 -33.5t85 -9.5
q96 0 192.5 67.5t166 183t88.5 247.5l55 454h45l-88 -719q-8 -70 -7.5 -120.5t32.5 -78.5t100 -28z" />
    <glyph glyph-name="uni04B6" unicode="&#x4b6;" horiz-adv-x="1220" 
d="M1108 47l-47 -348h-41l37 301h-187l80 643q-107 -58 -232 -87.5t-212 -29.5q-208 0 -280 104t-42 341l60 483h49l-60 -479q-28 -225 33.5 -313.5t243.5 -88.5q90 0 216 32t232 95l93 754h49l-174 -1407h182z" />
    <glyph glyph-name="uni04B7" unicode="&#x4b7;" horiz-adv-x="1013" 
d="M901 45h23l-47 -338h-39l36 293q-55 4 -89 24t-46.5 51t-15.5 71.5t4 84.5l47 392h-4q-65 -123 -180 -203t-223 -80q-292 0 -244 346l43 305h45l-43 -303q-10 -87 -3 -145.5t36.5 -93.5t70 -49.5t97.5 -14.5q88 0 181.5 59t163 161t85.5 216l22 170h45l-90 -719
q-8 -70 -7.5 -120.5t32.5 -78.5t100 -28z" />
    <glyph glyph-name="uni04B8" unicode="&#x4b8;" horiz-adv-x="1175" 
d="M1051 1454h49l-180 -1454h-50l80 643q-150 -81 -344 -108l-39 -318h-45l39 311q-20 -2 -55 -2q-208 0 -280 104t-42 341l60 483h49l-60 -479q-28 -225 33.5 -313.5t243.5 -88.5q34 0 57 2l45 369h45l-45 -362q198 27 346 118z" />
    <glyph glyph-name="uni04B9" unicode="&#x4b9;" horiz-adv-x="976" 
d="M834 991h45l-123 -991h-45l75 623h-4q-49 -93 -129 -162.5t-170 -100.5l-26 -213h-43l24 201q-33 -8 -76 -8q-287 0 -239 346l43 305h45l-43 -303q-23 -165 29.5 -234t167.5 -69q34 0 79 10l43 346h43l-41 -329q119 47 210.5 160t111.5 249z" />
    <glyph glyph-name="uni04BA" unicode="&#x4ba;" horiz-adv-x="1191" 
d="M741 940q209 0 280 -107t40 -358l-57 -475h-50l58 471q29 240 -31.5 331t-243.5 91q-87 0 -221 -33t-240 -92l-94 -768h-49l180 1454h49l-79 -633q109 57 240.5 88t217.5 31z" />
    <glyph glyph-name="uni04BB" unicode="&#x4bb;" horiz-adv-x="1089" 
d="M115 0l184 1507h45l-104 -850h4q72 154 198.5 248t259.5 94q298 0 246 -403l-78 -596h-45l78 596q8 72 7.5 126.5t-13.5 94t-30.5 66t-45 42.5t-56.5 22.5t-65 6.5q-79 0 -162 -42t-150 -111.5t-115 -166.5t-60 -200l-53 -434h-45z" />
    <glyph glyph-name="uni04BC" unicode="&#x4bc;" horiz-adv-x="1648" 
d="M1575 764h-1194q-12 -80 -12 -164q0 -267 139 -413t381 -146q124 0 251 56.5t226 164.5l37 -29q-99 -109 -235.5 -174t-280.5 -65q-257 0 -411 158t-154 446q0 86 12 166h-29q-125 0 -180 48t-55 124q0 99 51 178l43 -18q-47 -76 -47 -158q0 -127 192 -127h33
q27 138 88 256.5t149 206.5t207 138t254 50q241 0 391 -161t150 -443q0 -50 -6 -94zM1040 1415q-125 0 -235.5 -46t-192.5 -127.5t-139.5 -191.5t-83.5 -239h1143q2 16 2 47q0 260 -135.5 408.5t-358.5 148.5z" />
    <glyph glyph-name="uni04BD" unicode="&#x4bd;" horiz-adv-x="1107" 
d="M645 39q180 0 316 158l34 -27q-140 -176 -350 -176q-170 0 -275.5 110.5t-105.5 298.5v3q-109 3 -167.5 51t-55.5 127q5 105 72 172l37 -23q-34 -38 -50 -80t-14 -73q7 -123 180 -129q14 232 156.5 390t351.5 158q31 0 64.5 -5.5t74 -21.5t71.5 -41t52 -69t21 -100
q0 -78 -50.5 -141.5t-129.5 -102.5t-181 -65.5t-198.5 -37t-188.5 -9.5v-3q0 -169 92 -266.5t244 -97.5zM774 954q-189 0 -319 -145t-144 -358q83 -1 173.5 8t185.5 32t169.5 57.5t122.5 89t48 120.5q0 47 -17 83.5t-42.5 57.5t-59 34t-61.5 17t-56 4z" />
    <glyph glyph-name="uni04BE" unicode="&#x4be;" horiz-adv-x="1648" 
d="M1575 764h-1194q-12 -80 -12 -164q0 -267 139 -413t381 -146q124 0 251 56.5t226 164.5l37 -29q-97 -108 -232.5 -173t-277.5 -66l-41 -295h-41l37 295q-241 12 -383.5 170t-142.5 434q0 86 12 166h-29q-125 0 -180 48t-55 124q0 99 51 178l43 -18q-47 -76 -47 -158
q0 -127 192 -127h33q27 138 88 256.5t149 206.5t207 138t254 50q241 0 391 -161t150 -443q0 -50 -6 -94zM1040 1415q-125 0 -235.5 -46t-192.5 -127.5t-139.5 -191.5t-83.5 -239h1143q2 16 2 47q0 260 -135.5 408.5t-358.5 148.5z" />
    <glyph glyph-name="uni04BF" unicode="&#x4bf;" horiz-adv-x="1107" 
d="M645 39q180 0 316 158l34 -27q-136 -167 -327 -176l-37 -287h-39l33 287q-162 8 -261.5 117.5t-99.5 291.5v3q-109 3 -167.5 51t-55.5 127q5 105 72 172l37 -23q-34 -38 -50 -80t-14 -73q7 -123 180 -129q14 232 156.5 390t351.5 158q31 0 64.5 -5.5t74 -21.5t71.5 -41
t52 -69t21 -100q0 -78 -50.5 -141.5t-129.5 -102.5t-181 -65.5t-198.5 -37t-188.5 -9.5v-3q0 -169 92 -266.5t244 -97.5zM774 954q-189 0 -319 -145t-144 -358q83 -1 173.5 8t185.5 32t169.5 57.5t122.5 89t48 120.5q0 47 -17 83.5t-42.5 57.5t-59 34t-61.5 17t-56 4z" />
    <glyph glyph-name="uni04C0" unicode="&#x4c0;" horiz-adv-x="462" 
d="M147 0l179 1454h47l-178 -1454h-48z" />
    <glyph glyph-name="uni04C1" unicode="&#x4c1;" horiz-adv-x="1695" 
d="M985 1620q-104 0 -165.5 65t-55.5 173l45 4q-5 -84 39.5 -141.5t138.5 -57.5t156 58.5t88 144.5l43 -13q-34 -109 -110.5 -171t-178.5 -62zM1749 1454l-592 -702l418 -752h-57l-396 713l-266 -318l-47 -395h-47l49 397l-186 316l-570 -713h-57l602 754l-416 700h56
l577 -979l4 2l119 977h47l-119 -977l2 -2l818 979h61z" />
    <glyph glyph-name="uni04C2" unicode="&#x4c2;" horiz-adv-x="1415" 
d="M778 1149q-105 0 -166 68t-55 190l45 4q-5 -98 39 -158.5t139 -60.5q96 0 157.5 61.5t86.5 161.5l43 -12q-33 -123 -109 -188.5t-180 -65.5zM1149 246q57 -127 85.5 -165t68.5 -44l-13 -43q-29 0 -45 8q-9 5 -18 11.5t-17.5 16.5t-15 18t-15 23.5t-14 24.5t-15 29.5
t-13.5 30t-15 34.5t-16 35l-100 228q-152 -133 -316 -201l-31 -252h-45l78 639l-2 2q-217 -84 -378.5 -263t-225.5 -378h-45q40 131 122.5 256.5t194.5 226.5l-94 262q-30 85 -57 131.5t-47 59.5t-49 18l12 43q29 0 45 -8q74 -38 139 -223l88 -248q146 121 303 176l37 297
h45l-84 -688l2 -2q229 111 397 301t232 389h45q-41 -135 -127 -267t-203 -239z" />
    <glyph glyph-name="uni04C3" unicode="&#x4c3;" horiz-adv-x="1175" 
d="M561 733q229 0 362.5 -112.5t133.5 -337.5q0 -110 -24.5 -212.5t-73.5 -190t-117.5 -153t-163 -102.5t-203.5 -37q-87 0 -170 21l6 47q94 -21 166 -21q125 0 228 55t168 146.5t100 207t35 241.5q0 202 -123.5 301.5t-333.5 99.5q-22 0 -62 -4l-260 -287l-49 -395h-47
l178 1454h47l-120 -977l4 -2l882 979h62l-654 -723q10 2 29 2z" />
    <glyph glyph-name="uni04C4" unicode="&#x4c4;" horiz-adv-x="987" 
d="M586 496q124 -19 212.5 -118.5t88.5 -266.5q0 -239 -147 -381t-378 -142q-105 0 -190 31l8 45q83 -31 182 -31q210 0 344 130t134 348q0 73 -19.5 132.5t-50.5 97.5t-71.5 64t-79.5 37.5t-78 12.5q-70 -64 -170.5 -130.5t-184.5 -105.5l-24 -219h-45l121 991h45l-88 -712
l4 -3q235 121 425 321.5t253 393.5h47q-74 -247 -338 -495z" />
    <glyph glyph-name="uni04C5" unicode="&#x4c5;" horiz-adv-x="1368" 
d="M1274 1454l-174 -1407h76v-8l-158 -340h-43l133 301h-61l174 1407h-588q-61 -428 -156 -805q-47 -185 -98 -308t-107 -186.5t-110.5 -87.5t-124.5 -24q-37 0 -57 8l6 45q18 -6 51 -6q59 0 107.5 24.5t98.5 86t97 176t90 284.5q97 383 162 840h682z" />
    <glyph glyph-name="uni04C6" unicode="&#x4c6;" horiz-adv-x="995" 
d="M795 166q-7 -64 3.5 -92.5t51.5 -28.5h35v-8l-148 -330h-41l127 295q-50 6 -66.5 43.5t-8.5 104.5l96 796h-228q-100 0 -164.5 -56t-86.5 -159q-14 -66 -36 -182t-30 -156q-26 -121 -60 -203.5t-73.5 -123t-76.5 -56.5t-81 -16q-27 0 -39 6l11 45q15 -6 36 -6
q73 0 136.5 85t103.5 275q4 22 63 340q22 117 102 184.5t197 67.5h277z" />
    <glyph glyph-name="uni04C7" unicode="&#x4c7;" horiz-adv-x="1335" 
d="M1210 1454h47l-182 -1505q-24 -188 -99.5 -274.5t-225.5 -86.5q-58 0 -132 21l7 47q58 -21 127 -21q56 0 96.5 12t79 44.5t63.5 97t37 160.5l6 51l80 662h-852l-82 -662h-47l178 1454h47l-92 -745h854z" />
    <glyph glyph-name="uni04C8" unicode="&#x4c8;" horiz-adv-x="1077" 
d="M934 991h45l-123 -991q-27 -225 -103 -318.5t-225 -93.5q-46 0 -96 17l8 45q42 -17 95 -17q45 0 78 7.5t66.5 30.5t57.5 63t43.5 106.5t30.5 159.5l57 459l-651 -4l-57 -455h-45l123 991h45l-62 -491l651 4z" />
    <glyph glyph-name="uni04C9" unicode="&#x4c9;" horiz-adv-x="1353" 
d="M1257 1454l-170 -1407h76v-8l-157 -340h-43l133 301h-62l80 662h-852l-82 -662h-47l178 1454h47l-92 -745h854l90 745h47z" />
    <glyph glyph-name="uni04CA" unicode="&#x4ca;" horiz-adv-x="1069" 
d="M877 166q-7 -64 3.5 -92.5t51.5 -28.5h35v-8l-148 -330h-41l127 295q-50 6 -67 43.5t-9 104.5l37 309l-649 -4l-57 -455h-45l123 991h45l-62 -491l651 4l60 487h45z" />
    <glyph glyph-name="uni04CB" unicode="&#x4cb;" horiz-adv-x="1175" 
d="M1051 1454h49l-180 -1454h-183l-45 -301h-41l49 348h177l73 596q-107 -58 -232 -87.5t-212 -29.5q-208 0 -280 104t-42 341l60 483h49l-60 -479q-28 -225 33.5 -313.5t243.5 -88.5q90 0 216 32t232 95z" />
    <glyph glyph-name="uni04CC" unicode="&#x4cc;" horiz-adv-x="976" 
d="M834 991h45l-123 -991h-37l-43 -2q-27 -1 -42 -4.5t-31 -20t-21 -47.5l-33 -219h-39l29 221q3 20 8 36t13 27t15.5 20t19 14t19 9t20.5 5.5t18.5 2t17.5 1t14 0.5l33 2l69 578h-4q-66 -125 -182 -204t-233 -79q-292 0 -244 346l43 305h45l-43 -303q-10 -87 -3 -145.5
t36.5 -93.5t70 -49.5t97.5 -14.5q93 0 189.5 59t166.5 161t86 216z" />
    <glyph glyph-name="uni04CD" unicode="&#x4cd;" horiz-adv-x="1648" 
d="M1552 1454l-170 -1407h76v-8l-158 -340h-43l134 301h-62l164 1346h-6l-674 -1029h-39l-426 1033h-4l-164 -1350h-47l178 1454h45l445 -1071h4l702 1071h45z" />
    <glyph glyph-name="uni04CE" unicode="&#x4ce;" horiz-adv-x="1249" 
d="M1049 166q-7 -64 3.5 -92.5t51.5 -28.5h35v-8l-148 -330h-41l127 295q-51 6 -67.5 43t-8.5 105l93 751h-2l-478 -713h-39l-303 715h-2l-110 -903h-45l123 991h43l317 -749h4l502 749h45z" />
    <glyph glyph-name="uni04CF" unicode="&#x4cf;" horiz-adv-x="403" 
d="M125 0l184 1507h45l-184 -1507h-45z" />
    <glyph glyph-name="uni04D0" unicode="&#x4d0;" horiz-adv-x="1198" 
d="M741 1620q-104 0 -165.5 65t-55.5 173l45 4q-5 -84 39.5 -141.5t138.5 -57.5t156 58.5t88 144.5l43 -13q-34 -109 -110.5 -171t-178.5 -62zM0 0l684 1454h55l336 -1454h-49l-98 432h-674l-203 -432h-51zM276 479h642l-209 914h-4z" />
    <glyph glyph-name="uni04D1" unicode="&#x4d1;" horiz-adv-x="1087" 
d="M698 1149q-105 0 -166 68t-55 190l45 4q-5 -98 39 -158.5t139 -60.5q96 0 157.5 61.5t86.5 161.5l43 -12q-33 -123 -109 -188.5t-180 -65.5zM438 -6q-157 0 -248.5 111t-91.5 282q0 167 63 306t182 222.5t271 83.5q93 0 181 -34t137 -91l4 3l14 114h45l-121 -991h-45
l39 315h-4q-69 -145 -177.5 -233t-248.5 -88zM440 39q90 0 172 48t140 126.5t97 175.5t52 199l29 223q-37 55 -101.5 89t-117 44t-101.5 10q-138 0 -245.5 -78.5t-164.5 -207.5t-57 -283t78 -250t219 -96z" />
    <glyph glyph-name="uni04D2" unicode="&#x4d2;" horiz-adv-x="1198" 
d="M618 1733q-23 0 -37 15t-14 40q0 23 15.5 39t38.5 16q25 0 40 -15t15 -38q0 -25 -16.5 -41t-41.5 -16zM891 1733q-23 0 -38 15t-15 40q0 23 16 39t39 16t38 -15t15 -38q0 -25 -16 -41t-39 -16zM0 0l684 1454h55l336 -1454h-49l-98 432h-674l-203 -432h-51zM276 479h642
l-209 914h-4z" />
    <glyph glyph-name="uni04D3" unicode="&#x4d3;" horiz-adv-x="1087" 
d="M573 1241q-23 0 -37 15t-14 40q0 24 15 40t38 16q25 0 40.5 -15.5t15.5 -38.5q0 -25 -16.5 -41t-41.5 -16zM846 1241q-23 0 -38 15t-15 40q0 23 16 39.5t39 16.5t38 -15.5t15 -38.5q0 -25 -16 -41t-39 -16zM438 -6q-157 0 -248.5 111t-91.5 282q0 167 63 306t182 222.5
t271 83.5q93 0 181 -34t137 -91l4 3l14 114h45l-121 -991h-45l39 315h-4q-69 -145 -177.5 -233t-248.5 -88zM440 39q90 0 172 48t140 126.5t97 175.5t52 199l29 223q-37 55 -101.5 89t-117 44t-101.5 10q-138 0 -245.5 -78.5t-164.5 -207.5t-57 -283t78 -250t219 -96z" />
    <glyph glyph-name="uni04D4" unicode="&#x4d4;" horiz-adv-x="1687" 
d="M-49 0l938 1454h786l-6 -47h-715l-77 -657h604l-4 -48h-607l-79 -655h749l-4 -47h-799l54 432h-506l-279 -432h-55zM313 477h484l110 920h-2z" />
    <glyph glyph-name="uni04D5" unicode="&#x4d5;" horiz-adv-x="1404" 
d="M995 39q75 0 155 42.5t136 115.5l37 -27q-61 -79 -150.5 -127.5t-177.5 -48.5q-152 0 -244 82.5t-114 228.5q-50 -143 -137.5 -228t-188.5 -85q-112 0 -184 98t-72 264q0 94 23 186t69 173.5t110 144t153 99t190 36.5q67 0 139 -19.5t119 -58.5q120 84 279 84
q116 0 182.5 -57.5t66.5 -153.5q0 -85 -61.5 -155.5t-164.5 -116t-226 -73.5t-258 -37v-7q0 -170 83 -265t236 -95zM1341 791q0 47 -19.5 80.5t-52.5 50t-65 23.5t-67 7q-139 0 -242 -69t-156 -180.5t-61 -251.5q126 8 242.5 33.5t211.5 66.5t152 103.5t57 136.5zM313 37
q74 0 141 59.5t111.5 148.5t65.5 191q6 139 55 256.5t135 194.5q-81 61 -223 61q-96 0 -178.5 -36.5t-140 -96.5t-98 -138t-60 -161t-19.5 -166q0 -144 60 -228.5t151 -84.5z" />
    <glyph glyph-name="uni04D6" unicode="&#x4d6;" horiz-adv-x="1085" 
d="M739 1626q-104 0 -165.5 65t-55.5 173l45 4q-5 -84 39.5 -141.5t138.5 -57.5t156 58.5t88 144.5l43 -12q-34 -109 -110.5 -171.5t-178.5 -62.5zM133 0l178 1454h760l-4 -47h-715l-80 -655h598l-4 -47h-600l-80 -658h752l-4 -47h-801z" />
    <glyph glyph-name="uni04D7" unicode="&#x4d7;" horiz-adv-x="940" 
d="M606 1149q-105 0 -166 68t-55 190l45 4q-5 -98 39 -158.5t139 -60.5q96 0 157.5 61.5t86.5 161.5l43 -12q-33 -123 -109 -188.5t-180 -65.5zM889 762q0 -302 -748 -354v-5q0 -169 92 -266.5t244 -97.5q180 0 316 158l34 -27q-140 -176 -350 -176q-170 0 -275.5 110.5
t-105.5 298.5q0 162 65 298t182.5 217t262.5 81q31 0 64.5 -5.5t74 -21.5t71.5 -41t52 -69t21 -100zM606 954q-188 0 -318 -145t-145 -356q699 48 699 305q0 47 -17 83.5t-42.5 57.5t-59 34t-61.5 17t-56 4z" />
    <glyph glyph-name="uni04D8" unicode="&#x4d8;" horiz-adv-x="1472" 
d="M817 1462q257 0 411 -158t154 -446q0 -174 -51.5 -331t-143 -275.5t-227.5 -188t-296 -69.5q-241 0 -391 161t-150 443q0 50 6 94h1194q12 79 12 164q0 267 -139 413t-381 146q-122 0 -242.5 -43.5t-203.5 -116.5l-31 35q81 73 208 122.5t271 49.5zM664 41
q125 0 235.5 46t192.5 127.5t139.5 191.5t83.5 239h-1143q-2 -16 -2 -47q0 -260 135.5 -408.5t358.5 -148.5z" />
    <glyph glyph-name="uni04D9" unicode="&#x4d9;" horiz-adv-x="923" 
d="M467 999q163 0 267 -112t104 -303q0 -167 -64.5 -300.5t-186 -211.5t-280.5 -78q-118 0 -191 65t-73 162q0 70 34.5 129t94.5 100.5t133.5 73.5t160.5 51.5t165 30.5t157 15q-9 155 -96 244t-225 89q-88 0 -164.5 -33t-120.5 -75l-30 35q55 49 139 83.5t176 34.5zM309 39
q144 0 254 70.5t168 191.5t60 274q-142 -11 -260 -34.5t-221.5 -63.5t-162.5 -105t-59 -149q0 -78 61 -131t160 -53z" />
    <glyph glyph-name="uni04DA" unicode="&#x4da;" horiz-adv-x="1472" 
d="M727 1739q-23 0 -37 15t-14 40q0 23 15 39t38 16q25 0 40 -15t15 -38q0 -25 -16 -41t-41 -16zM999 1739q-23 0 -38 15t-15 40q0 23 16 39t39 16t38.5 -15t15.5 -38q0 -24 -16.5 -40.5t-39.5 -16.5zM817 1462q257 0 411 -158t154 -446q0 -174 -51.5 -331t-143 -275.5
t-227.5 -188t-296 -69.5q-241 0 -391 161t-150 443q0 50 6 94h1194q12 79 12 164q0 267 -139 413t-381 146q-122 0 -242.5 -43.5t-203.5 -116.5l-31 35q81 73 208 122.5t271 49.5zM664 41q125 0 235.5 46t192.5 127.5t139.5 191.5t83.5 239h-1143q-2 -16 -2 -47
q0 -260 135.5 -408.5t358.5 -148.5z" />
    <glyph glyph-name="uni04DB" unicode="&#x4db;" horiz-adv-x="923" 
d="M422 1241q-23 0 -37 15t-14 40q0 24 15 40t38 16q24 0 39.5 -15t15.5 -39q0 -25 -16 -41t-41 -16zM694 1241q-23 0 -38 15t-15 40q0 23 16 39.5t39 16.5t38.5 -15.5t15.5 -38.5q0 -24 -16 -40.5t-40 -16.5zM467 999q163 0 267 -112t104 -303q0 -167 -64.5 -300.5
t-186 -211.5t-280.5 -78q-118 0 -191 65t-73 162q0 70 34.5 129t94.5 100.5t133.5 73.5t160.5 51.5t165 30.5t157 15q-9 155 -96 244t-225 89q-88 0 -164.5 -33t-120.5 -75l-30 35q55 49 139 83.5t176 34.5zM309 39q144 0 254 70.5t168 191.5t60 274q-142 -11 -260 -34.5
t-221.5 -63.5t-162.5 -105t-59 -149q0 -78 61 -131t160 -53z" />
    <glyph glyph-name="uni04DC" unicode="&#x4dc;" horiz-adv-x="1695" 
d="M862 1733q-23 0 -37 15t-14 40q0 23 15 39t38 16q25 0 40.5 -15t15.5 -38q0 -25 -16.5 -41t-41.5 -16zM1135 1733q-23 0 -38.5 15.5t-15.5 39.5q0 23 16.5 39t39.5 16t38 -15t15 -38q0 -25 -16 -41t-39 -16zM1749 1454l-592 -702l418 -752h-57l-396 713l-266 -318
l-47 -395h-47l49 397l-186 316l-570 -713h-57l602 754l-416 700h56l577 -979l4 2l119 977h47l-119 -977l2 -2l818 979h61z" />
    <glyph glyph-name="uni04DD" unicode="&#x4dd;" horiz-adv-x="1415" 
d="M653 1241q-23 0 -37 15t-14 40q0 24 15 40t38 16q25 0 40.5 -15.5t15.5 -38.5q0 -25 -16.5 -41t-41.5 -16zM926 1241q-24 0 -39 15.5t-15 39.5q0 23 16.5 39.5t39.5 16.5t38 -15.5t15 -38.5q0 -25 -16 -41t-39 -16zM1149 246q57 -127 85.5 -165t68.5 -44l-13 -43
q-29 0 -45 8q-9 5 -18 11.5t-17.5 16.5t-15 18t-15 23.5t-14 24.5t-15 29.5t-13.5 30t-15 34.5t-16 35l-100 228q-152 -133 -316 -201l-31 -252h-45l78 639l-2 2q-217 -84 -378.5 -263t-225.5 -378h-45q40 131 122.5 256.5t194.5 226.5l-94 262q-30 85 -57 131.5t-47 59.5
t-49 18l12 43q29 0 45 -8q74 -38 139 -223l88 -248q146 121 303 176l37 297h45l-84 -688l2 -2q229 111 397 301t232 389h45q-41 -135 -127 -267t-203 -239z" />
    <glyph glyph-name="uni04DE" unicode="&#x4de;" horiz-adv-x="1142" 
d="M598 1733q-23 0 -37 15t-14 40q0 23 15 39t38 16q25 0 40 -15t15 -38q0 -25 -16 -41t-41 -16zM870 1733q-23 0 -38 15t-15 40q0 23 16 39t39 16t38.5 -15t15.5 -38q0 -24 -16 -40.5t-40 -16.5zM547 -6q-141 0 -260.5 54t-196.5 161l39 31q148 -199 420 -199
q196 0 309 106t113 289q0 156 -93 230.5t-264 74.5h-241l6 47h209q184 0 293.5 104.5t109.5 258.5q0 123 -80 193.5t-241 70.5q-187 0 -363 -110l-28 32q184 125 391 125q78 0 143 -17.5t117 -53.5t81 -96t29 -140q0 -131 -72 -233t-208 -150v-2q51 -10 95 -33t82.5 -61
t60.5 -99.5t22 -138.5q0 -204 -125.5 -324t-347.5 -120z" />
    <glyph glyph-name="uni04DF" unicode="&#x4df;" horiz-adv-x="870" 
d="M397 1241q-23 0 -37 15t-14 40q0 24 15 40t38 16q25 0 40.5 -15.5t15.5 -38.5q0 -25 -16.5 -41t-41.5 -16zM670 1241q-24 0 -39 15.5t-15 39.5q0 23 16.5 39.5t39.5 16.5t38 -15.5t15 -38.5q0 -25 -16 -41t-39 -16zM389 -6q-97 0 -177 20t-118 40.5t-82 51.5l19 46
q140 -113 358 -113q149 0 239.5 73.5t90.5 192.5q0 84 -64 135.5t-172 51.5h-221l6 45h158q70 0 140.5 25.5t123.5 83t53 134.5q0 51 -24 87.5t-63.5 54t-76.5 25t-75 7.5q-184 0 -330 -90l-16 41q151 94 346 94q43 0 87.5 -9.5t92 -31.5t77.5 -67t30 -107q0 -180 -209 -258
v-2q87 -20 135.5 -78.5t48.5 -140.5q0 -142 -106.5 -226.5t-270.5 -84.5z" />
    <glyph glyph-name="uni04E0" unicode="&#x4e0;" horiz-adv-x="1122" 
d="M553 -6q-145 0 -265.5 54t-197.5 161l39 31q148 -199 426 -199q191 0 303.5 102t112.5 269q0 362 -537 362h-28l4 39l620 590v4h-756l7 47h819l-6 -47l-613 -586v-2q249 -5 394 -105.5t145 -299.5q0 -189 -125 -304.5t-342 -115.5z" />
    <glyph glyph-name="uni04E1" unicode="&#x4e1;" horiz-adv-x="800" 
d="M731 991l-6 -41l-481 -506q35 5 47 5q177 0 290 -98t113 -281q0 -211 -136.5 -346.5t-352.5 -135.5q-180 0 -299 76l14 47q112 -78 285 -78q196 0 319 121.5t123 315.5q0 72 -20 129.5t-54 95t-81 62.5t-98.5 35.5t-110.5 10.5q-57 0 -103 -12l-12 35l496 518l-2 2h-556
l7 45h618z" />
    <glyph glyph-name="uni04E2" unicode="&#x4e2;" horiz-adv-x="1368" 
d="M588 1710l6 47h489l-6 -47h-489zM133 0l178 1454h47l-165 -1362h2l1050 1362h45l-176 -1454h-47l166 1360h-2l-1049 -1360h-49z" />
    <glyph glyph-name="uni04E3" unicode="&#x4e3;" horiz-adv-x="1042" 
d="M352 1268l6 47h490l-6 -47h-490zM393 -6q-155 0 -223.5 96t-40.5 305l80 596h45l-80 -594q-14 -86 -6.5 -148t23.5 -102.5t49 -64.5t70 -33.5t85 -9.5q96 0 192.5 67.5t166 183t88.5 247.5l55 454h45l-121 -991h-45l39 313h-4q-70 -144 -183.5 -231.5t-234.5 -87.5z" />
    <glyph glyph-name="uni04E4" unicode="&#x4e4;" horiz-adv-x="1368" 
d="M698 1733q-23 0 -37 15t-14 40q0 23 15 39t38 16q25 0 40.5 -15t15.5 -38q0 -25 -16.5 -41t-41.5 -16zM971 1733q-23 0 -38 15t-15 40q0 23 16 39t39 16t38 -15t15 -38q0 -25 -16 -41t-39 -16zM133 0l178 1454h47l-165 -1362h2l1050 1362h45l-176 -1454h-47l166 1360h-2
l-1049 -1360h-49z" />
    <glyph glyph-name="uni04E5" unicode="&#x4e5;" horiz-adv-x="1042" 
d="M461 1241q-23 0 -37 15t-14 40q0 24 15 40t38 16q25 0 40 -15t15 -39q0 -25 -16 -41t-41 -16zM733 1241q-23 0 -38 15t-15 40q0 23 16 39.5t39 16.5t38 -15.5t15 -38.5q0 -25 -16 -41t-39 -16zM393 -6q-155 0 -223.5 96t-40.5 305l80 596h45l-80 -594q-14 -86 -6.5 -148
t23.5 -102.5t49 -64.5t70 -33.5t85 -9.5q96 0 192.5 67.5t166 183t88.5 247.5l55 454h45l-121 -991h-45l39 313h-4q-70 -144 -183.5 -231.5t-234.5 -87.5z" />
    <glyph glyph-name="uni04E6" unicode="&#x4e6;" horiz-adv-x="1536" 
d="M823 1733q-23 0 -37 15t-14 40q0 23 15 39t38 16q25 0 40.5 -15t15.5 -38q0 -25 -16.5 -41t-41.5 -16zM1096 1733q-24 0 -39 15.5t-15 39.5q0 23 16.5 39t39.5 16t38 -15t15 -38q0 -25 -16 -41t-39 -16zM711 -6q-257 0 -410.5 160.5t-153.5 443.5q0 169 53.5 326t148 276
t234 190.5t300.5 71.5q257 0 410 -158t153 -446q0 -139 -32.5 -268t-96.5 -237t-152 -188.5t-205 -125.5t-249 -45zM711 41q154 0 284.5 66t217.5 177.5t135.5 259.5t48.5 312q0 267 -137 413t-379 146q-151 0 -281 -68t-217 -181t-136.5 -260.5t-49.5 -307.5
q0 -262 138 -409.5t376 -147.5z" />
    <glyph glyph-name="uni04E7" unicode="&#x4e7;" horiz-adv-x="1095" 
d="M522 1241q-23 0 -37 15t-14 40q0 24 15 40t38 16q25 0 40.5 -15.5t15.5 -38.5q0 -25 -16.5 -41t-41.5 -16zM795 1241q-23 0 -38.5 15.5t-15.5 39.5q0 23 16.5 39.5t39.5 16.5t38 -15.5t15 -38.5q0 -25 -16 -41t-39 -16zM492 -6q-180 0 -289 109.5t-109 302.5
q0 118 36.5 225.5t102 189t163.5 130t214 48.5q178 0 284.5 -106t106.5 -297q0 -126 -35.5 -236t-100.5 -191t-161 -128t-212 -47zM492 39q204 0 333 154t129 403q0 171 -91 264.5t-253 93.5q-203 0 -336 -156t-133 -392q0 -172 95 -269.5t256 -97.5z" />
    <glyph glyph-name="uni04E8" unicode="&#x4e8;" horiz-adv-x="1536" 
d="M883 1462q257 0 410 -158t153 -446q0 -139 -32.5 -268t-96.5 -237t-152 -188.5t-205 -125.5t-249 -45q-257 0 -410.5 160.5t-153.5 443.5q0 169 53.5 326t148 276t234 190.5t300.5 71.5zM881 1415q-177 0 -322.5 -91t-234 -239.5t-117.5 -332.5h1186q4 70 4 104
q0 267 -137 413t-379 146zM711 41q136 0 254.5 51.5t203.5 142t141 211t76 259.5h-1185q-4 -70 -4 -103q0 -264 138 -412.5t376 -148.5z" />
    </font>
</defs>
</svg>
