<?xml version="1.0" standalone="no"?>
<!DOCTYPE svg PUBLIC "-//W3C//DTD SVG 1.1//EN" "http://www.w3.org/Graphics/SVG/1.1/DTD/svg11.dtd" >
<svg xmlns="http://www.w3.org/2000/svg" xmlns:xlink="http://www.w3.org/1999/xlink" version="1.1">
<metadata>
Created by FontForge 20201107 at Tue Aug  6 05:21:10 2024
 By 
Copyright (c) 2015 by Kostas Bartsokas. All rights reserved.
</metadata>
<defs>
<font id="AvertaStdCY-Extrabold" horiz-adv-x="0" >
  <font-face 
    font-family="Averta Std CY Extrabold"
    font-weight="800"
    font-stretch="normal"
    units-per-em="2048"
    panose-1="0 0 9 0 0 0 0 0 0 0"
    ascent="1638"
    descent="-410"
    x-height="1001"
    cap-height="1454"
    bbox="-1454 -528 2935 2177"
    underline-thickness="118"
    underline-position="-198"
    unicode-range="U+000D-2E18"
  />
<missing-glyph horiz-adv-x="903" 
 />
    <glyph glyph-name=".notdef" horiz-adv-x="903" 
 />
    <glyph glyph-name=".null" 
 />
    <glyph glyph-name="nonmarkingreturn" horiz-adv-x="682" 
 />
    <glyph glyph-name="CR" unicode="&#xd;" 
 />
    <glyph glyph-name="space" unicode=" " horiz-adv-x="495" 
 />
    <glyph glyph-name="exclam" unicode="!" horiz-adv-x="591" 
d="M182 502l-55 1005h340l-55 -1005h-230zM297 -18q-77 0 -130.5 52.5t-53.5 127.5t54 128.5t130 53.5q75 0 129.5 -53.5t54.5 -128.5t-54.5 -127.5t-129.5 -52.5z" />
    <glyph glyph-name="quotedbl" unicode="&#x22;" horiz-adv-x="909" 
d="M57 901l62 553h315l-139 -553h-238zM485 901l62 553h317l-141 -553h-238z" />
    <glyph glyph-name="numbersign" unicode="#" horiz-adv-x="1316" 
d="M201 -98l57 366h-203v236h240l41 262h-227v233h264l53 344h213l-53 -344h256l53 344h213l-53 -344h211l-2 -233h-246l-41 -262h233l-2 -236h-266l-57 -366h-215l57 366h-254l-55 -366h-217zM508 504h256l41 262h-254z" />
    <glyph glyph-name="dollar" unicode="$" horiz-adv-x="1155" 
d="M1094 414q0 -173 -108.5 -284t-293.5 -136v-234h-219v236q-241 40 -414 213l197 240q81 -77 174.5 -115.5t173.5 -38.5q59 0 93 25.5t34 66.5q0 46 -40.5 76.5t-155.5 64.5q-57 17 -98.5 31.5t-90.5 36t-83 43.5t-68 54t-54.5 68t-33.5 83.5t-13 103.5q0 165 101 277.5
t280 136.5v240h221v-248q100 -20 199.5 -66.5t173.5 -107.5l-190 -238q-158 111 -299 111q-127 0 -127 -82q0 -38 39.5 -66.5t138.5 -58.5q69 -21 116 -37t100 -38.5t86.5 -45t67 -54t52 -68t30 -84t11.5 -105.5z" />
    <glyph glyph-name="percent" unicode="%" horiz-adv-x="2068" 
d="M827 -53l-229 98l649 1444l228 -98zM471 653q-174 0 -294 115t-120 297q0 171 116 289.5t298 118.5q176 0 296 -113.5t120 -294.5q0 -113 -51 -206.5t-147 -149.5t-218 -56zM473 866q78 0 127 56.5t49 138.5q0 86 -50.5 140t-125.5 54q-77 0 -126.5 -56.5t-49.5 -137.5
q0 -85 51.5 -140t124.5 -55zM1597 -18q-174 0 -293.5 114t-119.5 295q0 173 115.5 291.5t297.5 118.5q175 0 295.5 -114.5t120.5 -295.5q0 -172 -116 -290.5t-300 -118.5zM1599 195q78 0 127.5 56.5t49.5 137.5q0 85 -51 139t-126 54q-78 0 -127 -56t-49 -137
q0 -85 50.5 -139.5t125.5 -54.5z" />
    <glyph glyph-name="ampersand" unicode="&#x26;" horiz-adv-x="1345" 
d="M539 -18q-135 0 -245 55.5t-174.5 159.5t-64.5 237q0 266 256 426v4l-149 197q15 185 142 299.5t321 114.5q331 0 477 -318l-258 -94q-63 140 -189 143q-70 0 -106.5 -40t-44.5 -89l407 -540l7 2q32 88 32 170l291 6q0 -252 -125 -445v-8l197 -262h-350l-66 84h-6
q-137 -102 -352 -102zM573 266q84 0 154 39v6l-248 328q-110 -63 -110 -184q0 -87 56.5 -138t147.5 -51z" />
    <glyph glyph-name="quotesingle" unicode="'" horiz-adv-x="479" 
d="M57 901l62 553h315l-139 -553h-238z" />
    <glyph glyph-name="parenleft" unicode="(" horiz-adv-x="638" 
d="M346 -330q-125 186 -190.5 425t-65.5 507q0 270 66 511t192 425l227 -102q-98 -180 -150 -394t-52 -440q0 -447 202 -829z" />
    <glyph glyph-name="parenright" unicode=")" horiz-adv-x="638" 
d="M293 -330l-230 103q203 384 203 829q0 225 -52.5 439.5t-150.5 394.5l228 102q126 -184 192 -425t66 -511q0 -268 -65.5 -507t-190.5 -425z" />
    <glyph glyph-name="asterisk" unicode="*" horiz-adv-x="798" 
d="M307 776l10 195l-163 -103l-95 160l172 86l-172 90l95 162l163 -104l-10 192h185l-11 -192l164 100l94 -158l-172 -88l172 -88l-94 -162l-160 105l7 -195h-185z" />
    <glyph glyph-name="plus" unicode="+" horiz-adv-x="1173" 
d="M451 82v352h-355v268h355v355h270v-355h354v-268h-354v-352h-270z" />
    <glyph glyph-name="comma" unicode="," horiz-adv-x="501" 
d="M37 -274l61 553h316l-148 -553h-229z" />
    <glyph glyph-name="hyphen" unicode="-" horiz-adv-x="786" 
d="M80 487v291h627v-291h-627z" />
    <glyph glyph-name="period" unicode="." horiz-adv-x="548" 
d="M274 -18q-77 0 -130.5 52.5t-53.5 127.5t54 128.5t130 53.5q75 0 130 -53.5t55 -128.5t-55 -127.5t-130 -52.5z" />
    <glyph glyph-name="slash" unicode="/" horiz-adv-x="903" 
d="M170 -227l-225 102l778 1749l223 -102z" />
    <glyph glyph-name="zero" unicode="0" horiz-adv-x="1275" 
d="M637 -18q-255 0 -407 193.5t-152 529.5q0 216 68 379t195 252t296 89q255 0 408 -192.5t153 -527.5q0 -331 -151.5 -527t-409.5 -196zM637 293q101 0 159 103.5t58 308.5q0 190 -55.5 299.5t-161.5 109.5q-100 0 -158.5 -104t-58.5 -305q0 -189 56 -300.5t161 -111.5z
" />
    <glyph glyph-name="one" unicode="1" horiz-adv-x="860" 
d="M381 0v1006l-213 -158l-158 246l443 313h264v-1407h-336z" />
    <glyph glyph-name="two" unicode="2" horiz-adv-x="1073" 
d="M66 0l-5 217l418 445q90 95 131 163.5t41 139.5q0 66 -41.5 109.5t-105.5 43.5q-130 0 -215 -129l-238 170q69 120 188 193t291 73q122 0 225.5 -49.5t167.5 -147t64 -224.5q0 -128 -47.5 -230.5t-183.5 -243.5l-215 -223l2 -6h456v-301h-933z" />
    <glyph glyph-name="three" unicode="3" horiz-adv-x="1087" 
d="M535 -18q-188 0 -326 90t-191 233l289 115q48 -148 203 -148q68 0 116 42.5t48 115.5q0 69 -50 114.5t-141 45.5h-92v258h115q71 0 110 38.5t39 100.5q0 64 -42 103.5t-109 39.5q-116 0 -166 -110l-266 141q46 117 166.5 190.5t275.5 73.5q199 0 330 -101t131 -277
q0 -101 -45.5 -182.5t-128.5 -133.5v-6q102 -47 159.5 -134t57.5 -206q0 -183 -135 -293t-348 -110z" />
    <glyph glyph-name="four" unicode="4" horiz-adv-x="1155" 
d="M600 0v221h-569v199l633 987h260v-911h180v-275h-180v-221h-324zM371 475h258v416z" />
    <glyph glyph-name="five" unicode="5" horiz-adv-x="1097" 
d="M598 913q179 0 303.5 -125.5t124.5 -326.5q0 -213 -142.5 -346t-365.5 -133q-313 0 -498 215l238 190q94 -108 227 -108q89 0 148 53.5t59 132.5q0 90 -63 140t-137 50q-97 0 -191 -69l-174 65l45 756h778v-299h-501l-15 -223q92 28 164 28z" />
    <glyph glyph-name="six" unicode="6" horiz-adv-x="1171" 
d="M678 907q85 0 160.5 -30t135 -86t94 -143.5t34.5 -194.5q0 -211 -145.5 -341t-370.5 -130t-366.5 158t-141.5 417q0 215 89 401.5t262.5 319t404.5 176.5l92 -258q-189 -54 -303.5 -136t-171.5 -204l2 -2q106 53 225 53zM592 272q87 0 139.5 54.5t52.5 136.5
q0 81 -53 132.5t-141 51.5q-54 0 -108 -28t-93 -74v-21q0 -113 59 -182.5t144 -69.5z" />
    <glyph glyph-name="seven" unicode="7" horiz-adv-x="968" 
d="M33 1407h878v-215l-454 -1227l-330 62l424 1083h-518v297z" />
    <glyph glyph-name="eight" unicode="8" horiz-adv-x="1148" 
d="M573 -18q-146 0 -262.5 49t-185 142.5t-68.5 215.5q0 136 68.5 231.5t177.5 139.5v6q-70 32 -119 111.5t-49 175.5q0 178 122.5 275t315.5 97q195 0 319 -98t124 -274q0 -97 -49.5 -176.5t-120.5 -110.5v-6q111 -42 179.5 -138t68.5 -233q0 -125 -70 -218.5t-187 -141
t-264 -47.5zM573 887q62 0 102 38.5t40 96.5q0 60 -40.5 100.5t-101.5 40.5q-59 0 -99 -41t-40 -100t39 -97t100 -38zM573 256q78 0 130.5 52.5t52.5 125.5q0 76 -51.5 126t-131.5 50q-79 0 -130.5 -49.5t-51.5 -126.5q0 -75 52.5 -126.5t129.5 -51.5z" />
    <glyph glyph-name="nine" unicode="9" horiz-adv-x="1169" 
d="M573 1425q232 0 375.5 -159.5t143.5 -417.5q0 -162 -53 -310.5t-150 -268t-241.5 -204.5t-319.5 -118l-92 258q190 53 306 135.5t173 206.5l-2 2q-106 -53 -228 -53q-84 0 -159.5 30t-134.5 86t-93.5 143.5t-34.5 194.5q0 140 67.5 249t183.5 167.5t259 58.5zM381 940
q0 -83 52 -133.5t142 -50.5q53 0 107.5 29t93.5 77v17q0 115 -56.5 184.5t-141.5 69.5q-89 0 -143 -55.5t-54 -137.5z" />
    <glyph glyph-name="colon" unicode=":" horiz-adv-x="555" 
d="M276 657q-76 0 -130 53t-54 128t54 128.5t130 53.5q75 0 130 -53.5t55 -128.5t-55 -128t-130 -53zM276 -18q-77 0 -130.5 52.5t-53.5 127.5t54 128.5t130 53.5q75 0 130 -53.5t55 -128.5t-55 -127.5t-130 -52.5z" />
    <glyph glyph-name="semicolon" unicode=";" horiz-adv-x="518" 
d="M270 657q-76 0 -130 53t-54 128t54 128.5t130 53.5q75 0 130 -53.5t55 -128.5t-55 -128t-130 -53zM49 -274l62 553h315l-147 -553h-230z" />
    <glyph glyph-name="less" unicode="&#x3c;" horiz-adv-x="1171" 
d="M1073 39l-964 405v222l964 415v-297l-569 -227l569 -229v-289z" />
    <glyph glyph-name="equal" unicode="=" horiz-adv-x="1191" 
d="M113 670v268h979v-268h-979zM113 199v268h979v-268h-979z" />
    <glyph glyph-name="greater" unicode="&#x3e;" horiz-adv-x="1171" 
d="M115 39v289l569 229l-569 227v297l964 -415v-222z" />
    <glyph glyph-name="question" unicode="?" horiz-adv-x="956" 
d="M260 494l-2 100q0 27 4 52.5t15.5 49.5t21 42t30 42.5t31.5 36.5t36 38.5t34 35.5q42 45 62 68t42.5 65.5t22.5 79.5q0 62 -35.5 95.5t-99.5 33.5q-105 0 -191 -96l-221 202q71 86 189.5 137.5t249.5 51.5q92 0 171.5 -25t141.5 -74t97.5 -128t35.5 -179
q0 -108 -48.5 -189.5t-133.5 -160.5q-9 -8 -33 -29.5t-33 -30t-28 -26.5t-26.5 -28.5t-18.5 -25.5t-15.5 -29t-5.5 -28l-8 -81h-285zM408 -18q-77 0 -131 52.5t-54 127.5t54.5 128.5t130.5 53.5q75 0 129.5 -53.5t54.5 -128.5t-54.5 -127.5t-129.5 -52.5z" />
    <glyph glyph-name="at" unicode="@" horiz-adv-x="1816" 
d="M840 -309q-161 0 -302 59t-243 162t-160.5 250.5t-58.5 318.5q0 82 14.5 165t48 169.5t83 164.5t123 147.5t164 120t211 79.5t259.5 29q234 0 411 -101.5t268 -272.5t91 -384q0 -44 -5.5 -89t-20.5 -97t-38 -98t-60.5 -89.5t-85 -75t-115.5 -50.5t-148 -19
q-206 0 -252 135l-6 2q-87 -117 -234 -117q-151 0 -241 107t-90 280q0 54 11.5 115.5t40 128.5t70 120.5t108 88.5t146.5 35q140 0 218 -113h4l10 94h305l-55 -559q-4 -32 -4 -45q0 -43 14.5 -62.5t48.5 -19.5q47 0 85.5 33.5t61 85t34.5 106t12 101.5q0 121 -38.5 226
t-110.5 184.5t-184.5 125.5t-250.5 46q-151 0 -274 -43.5t-203 -114t-134.5 -163t-78 -187.5t-23.5 -191q0 -266 167.5 -437t424.5 -171q213 0 402 117l90 -140q-219 -157 -510 -157zM879 369q63 0 111 54.5t48 137.5q0 64 -33.5 104t-82.5 40q-63 0 -113.5 -55t-50.5 -136
q0 -66 35 -105.5t86 -39.5z" />
    <glyph glyph-name="A" unicode="A" horiz-adv-x="1421" 
d="M12 0l535 1454h327l533 -1454h-356l-86 262h-508l-86 -262h-359zM549 549h325l-161 491h-4z" />
    <glyph glyph-name="B" unicode="B" horiz-adv-x="1296" 
d="M131 0v1454h551q238 0 357.5 -92t119.5 -262q0 -105 -51 -190.5t-168 -131.5v-4q295 -76 295 -368q0 -185 -121.5 -295.5t-357.5 -110.5h-625zM465 870h186q81 0 124.5 36.5t43.5 107.5q0 68 -43 104.5t-143 36.5h-168v-285zM465 297h233q87 0 135 40t48 116
q0 74 -50.5 115.5t-144.5 41.5h-221v-313z" />
    <glyph glyph-name="C" unicode="C" horiz-adv-x="1462" 
d="M829 -18q-158 0 -294 49t-238 140.5t-160.5 234t-58.5 319.5q0 157 50.5 293t144 238t236.5 160.5t318 58.5q162 0 316.5 -70.5t269.5 -210.5l-250 -215q-64 75 -150 121.5t-186 46.5q-164 0 -276.5 -114.5t-112.5 -307.5q0 -178 108 -297t283 -119q198 0 336 164
l250 -215q-100 -124 -251 -200t-335 -76z" />
    <glyph glyph-name="D" unicode="D" horiz-adv-x="1468" 
d="M131 0v1454h504q170 0 312 -53.5t239.5 -149.5t151 -231t53.5 -295t-51.5 -294t-146.5 -229.5t-236.5 -148.5t-315.5 -53h-510zM465 305h153q184 0 299 120t115 300q0 183 -111 303.5t-278 120.5h-178v-844z" />
    <glyph glyph-name="E" unicode="E" horiz-adv-x="1198" 
d="M131 0v1454h948v-305h-614v-279h485v-295h-485v-270h657v-305h-991z" />
    <glyph glyph-name="F" unicode="F" horiz-adv-x="1175" 
d="M131 0v1454h983v-305h-649v-328h536v-303h-536v-518h-334z" />
    <glyph glyph-name="G" unicode="G" horiz-adv-x="1509" 
d="M829 -16q-158 0 -294.5 50t-238.5 142.5t-160 234t-58 314.5q0 158 50.5 295t143 238t232.5 159t311 58q163 0 322 -68t268 -193l-242 -204q-147 143 -348 143q-161 0 -270 -116t-109 -312q0 -119 45.5 -215.5t136.5 -154.5t211 -58q134 0 252 63v172h-282v283h610v-653
q-103 -79 -259.5 -128.5t-320.5 -49.5z" />
    <glyph glyph-name="H" unicode="H" horiz-adv-x="1464" 
d="M131 0v1454h346v-602h512v602h344v-1454h-344v549h-512v-549h-346z" />
    <glyph glyph-name="I" unicode="I" horiz-adv-x="630" 
d="M139 0v1454h350v-1454h-350z" />
    <glyph glyph-name="J" unicode="J" horiz-adv-x="1028" 
d="M446 -18q-266 0 -419 194l198 236q85 -111 193 -111q143 0 143 209v944h348v-938q0 -534 -463 -534z" />
    <glyph glyph-name="K" unicode="K" horiz-adv-x="1355" 
d="M131 0v1454h342v-557h4l422 557h432l-524 -631l543 -823h-420l-348 553l-109 -133v-420h-342z" />
    <glyph glyph-name="L" unicode="L" horiz-adv-x="1132" 
d="M131 0v1454h350v-1149h604v-305h-954z" />
    <glyph glyph-name="M" unicode="M" horiz-adv-x="1761" 
d="M133 0v1454h344l404 -772h4l399 772h346v-1454h-340v801h-4l-295 -533h-219l-295 535h-6v-803h-338z" />
    <glyph glyph-name="N" unicode="N" horiz-adv-x="1513" 
d="M131 0v1454h330l579 -897l4 2v895h338v-1454h-340l-569 872h-4v-872h-338z" />
    <glyph glyph-name="O" unicode="O" horiz-adv-x="1654" 
d="M827 -18q-218 0 -389 94.5t-265.5 264t-94.5 386.5q0 162 55.5 301t153 237.5t237.5 154t303 55.5q161 0 299.5 -54.5t237.5 -151.5t155 -237t56 -305q0 -219 -96 -389t-266.5 -263t-385.5 -93zM827 299q168 0 279 123t111 305t-111 305t-279 123q-170 0 -280.5 -123.5
t-110.5 -304.5t110.5 -304.5t280.5 -123.5z" />
    <glyph glyph-name="P" unicode="P" horiz-adv-x="1253" 
d="M131 0v1454h553q258 0 388 -136.5t130 -365.5q0 -237 -145.5 -360t-399.5 -123h-192v-469h-334zM465 768h153q113 0 171.5 50.5t58.5 142.5q0 87 -56 139.5t-167 52.5h-160v-385z" />
    <glyph glyph-name="Q" unicode="Q" horiz-adv-x="1677" 
d="M1616 172l-172 -221l-174 160q-186 -129 -441 -129q-219 0 -390.5 94.5t-266 264t-94.5 386.5q0 162 55.5 301t153.5 237.5t238 154t304 55.5q215 0 385 -93.5t265.5 -264t95.5 -390.5q0 -236 -113 -420zM436 727q0 -187 111.5 -309.5t281.5 -122.5q113 0 207 59
l-127 115l146 172l125 -111q39 92 39 197q0 181 -109.5 304.5t-280.5 123.5q-170 0 -281.5 -122t-111.5 -306z" />
    <glyph glyph-name="R" unicode="R" horiz-adv-x="1329" 
d="M131 0v1454h567q132 0 233 -37t163 -105t93.5 -158.5t31.5 -201.5q0 -158 -70 -269.5t-205 -166.5l346 -516h-401l-299 469h-125v-469h-334zM465 768h172q109 0 168 51t59 142q0 88 -55 140t-166 52h-178v-385z" />
    <glyph glyph-name="S" unicode="S" horiz-adv-x="1167" 
d="M573 -18q-145 0 -283 57.5t-251 173.5l201 244q79 -86 171 -129t173 -43q82 0 123 35t41 88q0 59 -45 93.5t-171 76.5q-54 18 -95 34.5t-89 41t-83 49.5t-70 60.5t-56.5 75.5t-35 92.5t-13.5 112.5q0 181 137 303.5t340 125.5q276 6 504 -189l-192 -250
q-175 137 -297 137q-63 0 -99.5 -30t-36.5 -82q-1 -51 43.5 -86t165.5 -82q185 -71 248 -106q135 -74 179 -184q26 -67 26 -155q0 -99 -32.5 -179.5t-86 -132t-124 -87t-143.5 -50.5t-149 -15z" />
    <glyph glyph-name="T" unicode="T" horiz-adv-x="1200" 
d="M426 0v1149h-379v305h1108v-305h-381v-1149h-348z" />
    <glyph glyph-name="U" unicode="U" horiz-adv-x="1433" 
d="M715 -18q-274 0 -437 163.5t-163 460.5v848h344v-827q0 -141 67 -233.5t189 -92.5q117 0 189.5 87t72.5 239v827h342v-848q0 -288 -158.5 -456t-445.5 -168z" />
    <glyph glyph-name="V" unicode="V" horiz-adv-x="1409" 
d="M557 0l-537 1454h371l316 -965h4l315 965h367l-535 -1454h-301z" />
    <glyph glyph-name="W" unicode="W" horiz-adv-x="2099" 
d="M487 0l-456 1454h366l244 -893h6l223 893h361l221 -891h6l246 891h364l-456 -1454h-314l-241 954h-4l-252 -954h-314z" />
    <glyph glyph-name="X" unicode="X" horiz-adv-x="1445" 
d="M31 0l465 731l-447 723h395l279 -461h6l281 461h387l-447 -723l465 -731h-403l-289 469h-6l-291 -469h-395z" />
    <glyph glyph-name="Y" unicode="Y" horiz-adv-x="1302" 
d="M475 0v633l-473 821h391l256 -483h4l252 483h395l-477 -821v-633h-348z" />
    <glyph glyph-name="Z" unicode="Z" horiz-adv-x="1255" 
d="M84 0v266l631 879l-4 4h-605v305h1063v-258l-647 -885l4 -6h645v-305h-1087z" />
    <glyph glyph-name="bracketleft" unicode="[" horiz-adv-x="722" 
d="M119 -307v1812h528v-231h-260v-1346h260v-235h-528z" />
    <glyph glyph-name="backslash" unicode="\" horiz-adv-x="907" 
d="M750 -227l-777 1749l224 102l778 -1749z" />
    <glyph glyph-name="bracketright" unicode="]" horiz-adv-x="722" 
d="M604 -307h-528v235h260v1346h-260v231h528v-1812z" />
    <glyph glyph-name="asciicircum" unicode="^" horiz-adv-x="933" 
d="M84 1024l274 430h215l277 -430h-246l-137 242l-148 -242h-235z" />
    <glyph glyph-name="underscore" unicode="_" horiz-adv-x="1081" 
d="M-14 -268v213h1108v-213h-1108z" />
    <glyph glyph-name="grave" unicode="`" horiz-adv-x="1007" 
d="M442 1073l-252 305l326 -2l217 -303h-291z" />
    <glyph glyph-name="a" unicode="a" horiz-adv-x="1220" 
d="M530 -18q-207 0 -340 144t-133 374q0 228 130.5 374t326.5 146q81 0 153 -32t124 -93l4 2v104h321v-1001h-305v104l-4 2q-97 -124 -277 -124zM598 264q89 0 150 65.5t61 170.5q0 102 -60.5 169.5t-150.5 67.5q-93 0 -154 -65.5t-61 -171.5q0 -105 59.5 -170.5
t155.5 -65.5z" />
    <glyph glyph-name="b" unicode="b" horiz-adv-x="1236" 
d="M702 -18q-187 0 -284 124h-4v-106h-303v1507h319v-612h4q107 125 285 125q197 0 327 -146t130 -374q0 -230 -133 -374t-341 -144zM639 264q93 0 153 65.5t60 170.5q0 106 -61 171.5t-154 65.5q-97 0 -159 -67t-62 -170q0 -106 63 -171t160 -65z" />
    <glyph glyph-name="c" unicode="c" horiz-adv-x="1069" 
d="M586 -18q-229 0 -377 143.5t-148 372.5q0 235 147 378.5t386 143.5q124 0 238.5 -42.5t193.5 -131.5l-207 -205q-34 45 -87.5 69.5t-110.5 24.5q-105 0 -170.5 -65t-65.5 -170t66.5 -169.5t171.5 -64.5q125 0 213 94l196 -204q-151 -174 -446 -174z" />
    <glyph glyph-name="d" unicode="d" horiz-adv-x="1234" 
d="M532 -18q-208 0 -340.5 143.5t-132.5 374.5q0 228 130.5 374t326.5 146q177 0 287 -125h2v612h321v-1507h-305v106h-4q-100 -124 -285 -124zM598 264q95 0 157 65t62 171q0 103 -61.5 170t-157.5 67q-92 0 -153.5 -65.5t-61.5 -171.5q0 -105 60.5 -170.5t154.5 -65.5z
" />
    <glyph glyph-name="e" unicode="e" horiz-adv-x="1126" 
d="M1067 512q0 -36 -6 -96h-682q15 -84 79.5 -129t159.5 -45q140 3 234 108l184 -188q-145 -180 -450 -180q-229 0 -377 144.5t-148 375.5q0 227 145 372.5t372 145.5q213 0 351 -143t138 -365zM573 766q-74 0 -125.5 -42.5t-66.5 -117.5h375q-15 74 -63.5 117t-119.5 43z
" />
    <glyph glyph-name="f" unicode="f" horiz-adv-x="710" 
d="M145 0v743h-96v258h96v158q0 182 87.5 275.5t242.5 93.5q88 0 160 -25.5t110 -52.5l-59 -231q-67 36 -125 36q-94 0 -94 -108v-146h190v-258h-190v-743h-322z" />
    <glyph glyph-name="g" unicode="g" horiz-adv-x="1216" 
d="M573 -424q-237 0 -411 96l71 260q151 -88 306 -88q125 0 193.5 54.5t68.5 136.5v92l-4 2q-108 -111 -277 -111q-202 0 -332.5 140t-130.5 354q0 221 127.5 364.5t317.5 143.5q172 0 286 -117h5v98h321v-870q0 -127 -28 -225t-89.5 -174t-168.5 -116t-255 -40zM596 303
q91 0 151 61t60 156q0 94 -60.5 154.5t-150.5 60.5q-93 0 -153 -60.5t-60 -156.5t60.5 -155.5t152.5 -59.5z" />
    <glyph glyph-name="h" unicode="h" horiz-adv-x="1202" 
d="M111 0v1507h319v-618l4 -2q118 133 309 133q361 0 361 -416v-604h-320v524q0 118 -40 164.5t-128 46.5q-87 0 -136.5 -57.5t-49.5 -171.5v-506h-319z" />
    <glyph glyph-name="i" unicode="i" horiz-adv-x="561" 
d="M281 1126q-83 0 -137 53t-54 132q0 75 54.5 127.5t136.5 52.5q83 0 137.5 -52t54.5 -128q0 -79 -54.5 -132t-137.5 -53zM121 0v1001h319v-1001h-319z" />
    <glyph glyph-name="j" unicode="j" horiz-adv-x="534" 
d="M270 1126q-83 0 -136.5 53t-53.5 132q0 75 54 127.5t136 52.5q83 0 138 -52t55 -128q0 -78 -55 -131.5t-138 -53.5zM113 -424q-123 0 -228 37l52 254q46 -19 92 -19q45 0 62.5 31t17.5 98v1024h319v-1050q0 -186 -81.5 -280.5t-233.5 -94.5z" />
    <glyph glyph-name="k" unicode="k" horiz-adv-x="1101" 
d="M111 0v1507h315v-866h4l293 360h371l-338 -399l348 -602h-354l-224 393l-100 -110v-283h-315z" />
    <glyph glyph-name="l" unicode="l" horiz-adv-x="561" 
d="M121 0v1507h319v-1507h-319z" />
    <glyph glyph-name="m" unicode="m" horiz-adv-x="1802" 
d="M111 0v1001h319v-118h2q119 137 283 137q206 0 291 -150h4q120 150 338 150q167 0 260.5 -105t93.5 -331v-584h-320v510q0 225 -145 225q-73 0 -120.5 -60t-47.5 -173v-502h-319v510q0 225 -146 225q-78 0 -126 -59.5t-48 -173.5v-502h-319z" />
    <glyph glyph-name="n" unicode="n" horiz-adv-x="1191" 
d="M111 0v1001h319v-116h4q117 135 301 135q359 0 359 -420v-600h-320v522q0 119 -39 166t-121 47q-86 0 -135 -58.5t-49 -172.5v-504h-319z" />
    <glyph glyph-name="o" unicode="o" horiz-adv-x="1206" 
d="M604 -18q-242 0 -392.5 145t-150.5 373q0 230 150.5 375t392.5 145q237 0 389 -144.5t152 -375.5q0 -229 -152 -373.5t-389 -144.5zM604 264q92 0 154.5 67t62.5 169q0 104 -61.5 169.5t-155.5 65.5q-97 0 -158 -66t-61 -169q0 -100 62 -168t157 -68z" />
    <glyph glyph-name="p" unicode="p" horiz-adv-x="1236" 
d="M111 -406v1407h319v-106h4q110 125 285 125q197 0 327 -146t130 -374q0 -230 -133 -374t-341 -144q-167 0 -268 116l-4 -2v-502h-319zM639 264q93 0 153 65.5t60 170.5q0 106 -61 171.5t-154 65.5q-97 0 -159 -67t-62 -170q0 -106 63 -171t160 -65z" />
    <glyph glyph-name="q" unicode="q" horiz-adv-x="1236" 
d="M809 -406v504l-4 2q-95 -118 -273 -118q-207 0 -339 144t-132 374q0 228 130 374t327 146q175 0 285 -125h4v106h321v-1407h-319zM600 264q95 0 157 65t62 171q0 103 -62 170t-157 67q-93 0 -154 -65.5t-61 -171.5q0 -105 60.5 -170.5t154.5 -65.5z" />
    <glyph glyph-name="r" unicode="r" horiz-adv-x="763" 
d="M111 0v1001h319v-139h4q55 76 130 117t159 41h12v-346q-62 4 -76 4q-111 0 -170 -62.5t-59 -164.5v-451h-319z" />
    <glyph glyph-name="s" unicode="s" horiz-adv-x="901" 
d="M440 -18q-240 0 -407 147l149 207q125 -113 262 -113q47 0 72 16t25 44q0 25 -31.5 44t-124.5 48q-69 21 -121 46t-98.5 62.5t-71 92t-24.5 124.5q0 148 106 234t268 86q112 0 201 -30t178 -95l-151 -223q-51 51 -110.5 77.5t-112.5 26.5q-32 0 -56 -14t-24 -41
q0 -23 30.5 -42t106.5 -46q76 -26 121.5 -45t93 -47t72 -59t40 -76t15.5 -103q0 -145 -104.5 -233t-303.5 -88z" />
    <glyph glyph-name="t" unicode="t" horiz-adv-x="765" 
d="M436 -18q-135 0 -215 84.5t-80 248.5v428h-112v258h112v322l322 33v-355h242v-258h-242v-368q0 -55 16.5 -84t59.5 -29q48 0 98 23l80 -236q-60 -33 -122.5 -50t-158.5 -17z" />
    <glyph glyph-name="u" unicode="u" horiz-adv-x="1167" 
d="M455 -18q-361 0 -361 426v593h320v-514q0 -121 35.5 -172t117.5 -51q76 0 126 63t50 179v495h322v-1001h-322v113l-4 2q-109 -133 -284 -133z" />
    <glyph glyph-name="v" unicode="v" horiz-adv-x="1105" 
d="M406 0l-388 1001h338l197 -616h2l199 616h333l-389 -1001h-292z" />
    <glyph glyph-name="w" unicode="w" horiz-adv-x="1568" 
d="M360 0l-337 1001h319l164 -542h2l151 542h248l152 -542h4l166 542h317l-340 -1001h-258l-164 582h-2l-159 -582h-263z" />
    <glyph glyph-name="x" unicode="x" horiz-adv-x="1075" 
d="M20 0l338 516l-331 485h360l148 -247h2l151 247h359l-332 -487l338 -514h-344l-170 250h-2l-172 -250h-345z" />
    <glyph glyph-name="y" unicode="y" horiz-adv-x="1097" 
d="M238 -406l172 474l-392 933h342l201 -538h6l193 538h319l-526 -1407h-315z" />
    <glyph glyph-name="z" unicode="z" horiz-adv-x="978" 
d="M59 0v213l437 530v7h-398v251h824v-210l-445 -533v-4h428v-254h-846z" />
    <glyph glyph-name="braceleft" unicode="{" horiz-adv-x="724" 
d="M494 -303q-105 0 -177.5 76t-72.5 198v351q0 28 -1 43t-5.5 37t-16 33.5t-30 24t-49 18t-72.5 5.5v232q49 1 83.5 11.5t52 24.5t26.5 39t10.5 41.5t1.5 45.5v354q0 117 69 195.5t181 78.5h168v-205h-44q-34 0 -57.5 -14t-34 -36t-14.5 -41t-4 -38v-344q0 -92 -26 -145
t-81 -80v-2q31 -15 47 -26.5t32 -35.5t22 -64t6 -103v-332q0 -71 21 -104t89 -33h44v-205h-168z" />
    <glyph glyph-name="bar" unicode="|" horiz-adv-x="645" 
d="M197 -236v1745h252v-1745h-252z" />
    <glyph glyph-name="braceright" unicode="}" horiz-adv-x="724" 
d="M231 -303h-168v205h43q68 0 89.5 33.5t21.5 103.5v332q0 63 6 103t22 64t32 35.5t47 26.5v2q-55 27 -81 80t-26 145v344q0 19 -4 38t-15 41t-34.5 36t-57.5 14h-43v205h168q112 0 181 -78.5t69 -195.5v-354q0 -29 1.5 -45.5t10.5 -41.5t26.5 -39t52 -24.5t83.5 -11.5
v-232q-42 0 -72.5 -5.5t-49 -18t-30 -24t-16 -33.5t-5.5 -37t-1 -43v-351q0 -122 -72.5 -198t-177.5 -76z" />
    <glyph glyph-name="asciitilde" unicode="~" horiz-adv-x="1157" 
d="M770 389q-90 0 -211 49q-84 35 -127 35q-78 0 -131 -88l-213 86q41 125 119.5 202t185.5 77q46 0 90 -9.5t63.5 -17.5t57.5 -25q55 -30 119 -30q81 0 133 88l211 -72q-39 -129 -117 -212t-180 -83z" />
    <glyph glyph-name="uni00A0" unicode="&#xa0;" horiz-adv-x="495" 
 />
    <glyph glyph-name="exclamdown" unicode="&#xa1;" horiz-adv-x="591" 
d="M297 1018q75 0 129.5 -52.5t54.5 -127.5t-54.5 -129t-129.5 -54q-76 0 -130 54t-54 129t53.5 127.5t130.5 52.5zM182 498h230l55 -1006h-340z" />
    <glyph glyph-name="cent" unicode="&#xa2;" horiz-adv-x="1087" 
d="M1044 276q-56 -65 -143 -112.5t-199 -65.5v-194h-213v194q-190 31 -308 170.5t-118 341.5q0 200 116.5 338t309.5 172v187h213v-185q220 -34 338 -190l-215 -182q-83 96 -209 96q-102 0 -165.5 -64.5t-63.5 -167.5t64.5 -170t166.5 -67q127 0 207 92z" />
    <glyph glyph-name="sterling" unicode="&#xa3;" horiz-adv-x="1150" 
d="M80 0v301h123v307h-107v228h107v84q0 134 35 234t97 157.5t139 84.5t169 27q121 0 234 -51.5t188 -146.5l-166 -211q-45 51 -101.5 80.5t-107.5 29.5q-31 0 -55 -9t-46 -31.5t-34 -68t-12 -110.5v-69h293v-228h-289v-307h557v-301h-1024z" />
    <glyph glyph-name="currency" unicode="&#xa4;" horiz-adv-x="1042" 
d="M897 795q0 -98 -49 -185l164 -166l-142 -143l-165 168q-87 -49 -187 -49q-97 0 -184 49l-166 -166l-141 141l166 168q-48 82 -48 183q0 100 48 182l-166 170l141 141l168 -166q87 49 184 49q98 0 185 -49l165 168l142 -143l-164 -168q49 -87 49 -184zM520 641
q64 1 110 47t48 111q0 66 -46.5 112.5t-111.5 46.5q-66 -1 -112 -47.5t-48 -111.5q0 -64 47 -110t113 -48z" />
    <glyph glyph-name="yen" unicode="&#xa5;" horiz-adv-x="1243" 
d="M1243 1407l-354 -651h182v-178h-276v-101h276v-176h-276v-301h-349v301h-294v176h294v101h-294v178h200l-352 651h395l223 -489h5l221 489h399z" />
    <glyph glyph-name="brokenbar" unicode="&#xa6;" horiz-adv-x="645" 
d="M197 786v723h252v-723h-252zM197 -233v718h252v-718h-252z" />
    <glyph glyph-name="section" unicode="&#xa7;" horiz-adv-x="1107" 
d="M887 297q102 -85 102 -242q0 -171 -119 -270.5t-313 -99.5q-276 0 -473 200l180 217q71 -68 148 -102.5t141 -34.5q45 0 73.5 23.5t28.5 60.5q0 39 -30.5 63.5t-124.5 59.5q-58 23 -96.5 39t-86 39t-78 43.5t-62.5 48t-50 56.5t-29.5 66t-11.5 79q0 181 143 270
q-100 90 -100 234q0 159 112.5 260.5t303.5 101.5q113 0 234 -46.5t208 -121.5l-174 -217q-143 100 -252 100q-51 0 -75.5 -20t-24.5 -51q0 -32 27.5 -54t113.5 -59q198 -83 250 -111q114 -62 152 -142q26 -56 26 -136q0 -76 -37.5 -142t-105.5 -112zM393 600
q0 -43 38.5 -76t156.5 -78q35 -14 59 -22q37 10 55.5 34t18.5 52q0 29 -13 48.5t-58 44.5t-136 61l-47 18q-38 -10 -56 -33.5t-18 -48.5z" />
    <glyph glyph-name="dieresis" unicode="&#xa8;" horiz-adv-x="1089" 
d="M315 1079q-82 0 -136 53t-54 130q0 75 54 126.5t136 51.5q83 0 138 -51.5t55 -126.5q0 -78 -55 -130.5t-138 -52.5zM774 1079q-82 0 -136 53t-54 130q0 75 54 126.5t136 51.5q81 0 136 -51.5t55 -126.5q0 -78 -54.5 -130.5t-136.5 -52.5z" />
    <glyph glyph-name="copyright" unicode="&#xa9;" horiz-adv-x="1480" 
d="M739 -12q-182 0 -334.5 90.5t-239.5 243t-87 331.5q0 134 51.5 257t139.5 213t211.5 144t260.5 54q183 0 335.5 -90.5t239.5 -244t87 -333.5q0 -133 -52 -255.5t-140 -212.5t-211.5 -143.5t-260.5 -53.5zM739 182q196 0 330.5 138t134.5 333q0 129 -60 237t-166.5 171
t-236.5 63q-199 0 -333 -138t-134 -335q0 -196 133.5 -332.5t331.5 -136.5zM754 315q-93 0 -169 36.5t-123.5 113.5t-47.5 184q0 144 90 239t250 95q161 0 266 -127l-125 -106q-25 28 -62.5 48.5t-78.5 20.5q-67 0 -112.5 -45.5t-45.5 -124.5q0 -73 43 -121.5t115 -48.5
q39 0 77.5 19.5t63.5 50.5l125 -111q-103 -123 -266 -123z" />
    <glyph glyph-name="ordfeminine" unicode="&#xaa;" horiz-adv-x="798" 
d="M324 788q-127 0 -204 88.5t-77 229.5q0 139 74.5 226t193.5 87q108 0 185 -86h4v74h217v-604h-217v57h-4q-60 -72 -172 -72zM383 993q47 0 79 30.5t32 80.5t-32 81.5t-79 31.5q-48 0 -81.5 -32t-33.5 -81q0 -50 33 -80.5t82 -30.5z" />
    <glyph glyph-name="guillemotleft" unicode="&#xab;" horiz-adv-x="1085" 
d="M594 94h-299l-236 412l240 420h297l-240 -420zM1057 94h-301l-234 412l238 420h299l-242 -420z" />
    <glyph glyph-name="logicalnot" unicode="&#xac;" horiz-adv-x="1107" 
d="M754 285v333h-670v267h940v-600h-270z" />
    <glyph glyph-name="registered" unicode="&#xae;" horiz-adv-x="1480" 
d="M741 1321q183 0 335.5 -90.5t239.5 -244t87 -333.5q0 -133 -52 -255.5t-140 -212.5t-211.5 -143.5t-260.5 -53.5q-182 0 -334.5 90.5t-239.5 243t-87 331.5q0 134 51.5 257t139.5 213t211.5 144t260.5 54zM739 182q196 0 330.5 138t134.5 333q0 129 -60 237t-166.5 171
t-236.5 63q-199 0 -333 -138t-134 -335q0 -196 133.5 -332.5t331.5 -136.5zM1001 756q0 -147 -114 -199l147 -231h-196l-125 204h-45v-204h-168v663h264q118 0 177.5 -63.5t59.5 -169.5zM668 836v-154h57q45 0 71.5 21t26.5 57q0 33 -25.5 54.5t-72.5 21.5h-57z" />
    <glyph glyph-name="macron" unicode="&#xaf;" horiz-adv-x="899" 
d="M129 1124v246h641v-246h-641z" />
    <glyph glyph-name="degree" unicode="&#xb0;" horiz-adv-x="763" 
d="M383 897q-122 0 -207.5 84.5t-85.5 204.5q0 118 87.5 203.5t205.5 85.5q117 0 205 -86.5t88 -206.5q0 -117 -86.5 -201t-206.5 -84zM383 1077q45 0 75.5 31.5t30.5 77.5q0 44 -31.5 77t-74.5 33q-45 0 -77 -33t-32 -79q0 -44 31.5 -75.5t77.5 -31.5z" />
    <glyph glyph-name="plusminus" unicode="&#xb1;" horiz-adv-x="1196" 
d="M463 381v352h-354v268h354v355h270v-355h354v-268h-354v-352h-270zM109 0v268h978v-268h-978z" />
    <glyph glyph-name="uni00B2" unicode="&#xb2;" horiz-adv-x="675" 
d="M35 891l-2 156l250 258q53 53 77.5 89t24.5 68q0 31 -19.5 49.5t-50.5 18.5q-64 0 -116 -66l-176 125q45 70 125.5 115t187.5 45q121 0 208 -70t87 -186q0 -80 -29 -140t-119 -143l-112 -102l2 -4h264v-213h-602z" />
    <glyph glyph-name="uni00B3" unicode="&#xb3;" horiz-adv-x="692" 
d="M344 874q-120 0 -210 59t-122 150l213 84q25 -86 103 -86q36 0 59 21.5t23 52.5q0 37 -27 57.5t-76 20.5h-53v172h68q36 0 58.5 18.5t22.5 46.5q0 31 -21 51.5t-54 20.5q-62 0 -84 -67l-197 102q26 75 105 123.5t178 48.5q130 0 213.5 -61.5t83.5 -171.5
q0 -120 -101 -189v-2q129 -58 129 -201q0 -114 -86 -182t-225 -68z" />
    <glyph glyph-name="acute" unicode="&#xb4;" horiz-adv-x="1009" 
d="M268 1092l228 305l323 2l-254 -307h-297z" />
    <glyph glyph-name="uni00B5" unicode="&#xb5;" horiz-adv-x="1179" 
d="M106 -406v1407h320v-505q0 -121 39 -176.5t121 -55.5q75 0 122.5 61t47.5 175v501h321v-1001h-295l-20 111h-2q-104 -129 -248 -129q-75 0 -113 30l-4 -4q31 -131 31 -244v-170h-320z" />
    <glyph glyph-name="paragraph" unicode="&#xb6;" horiz-adv-x="1077" 
d="M563 0v561q-201 15 -322.5 123t-121.5 291q0 189 131.5 303.5t361.5 114.5h332v-1393h-381z" />
    <glyph glyph-name="periodcentered" unicode="&#xb7;" horiz-adv-x="567" 
d="M295 315q-76 0 -130 53t-54 128t54 128.5t130 53.5q75 0 129.5 -53.5t54.5 -128.5t-54.5 -128t-129.5 -53z" />
    <glyph glyph-name="cedilla" unicode="&#xb8;" horiz-adv-x="739" 
d="M307 -395q-71 0 -133 12v131q47 -14 94 -14q37 0 63.5 13t26.5 42q0 28 -40.5 44.5t-108.5 16.5v78l45 84h164l-41 -71l2 -4q213 -6 213 -164q0 -76 -72.5 -122t-212.5 -46z" />
    <glyph glyph-name="uni00B9" unicode="&#xb9;" horiz-adv-x="575" 
d="M244 891v551l-115 -80l-117 180l287 193h180v-844h-235z" />
    <glyph glyph-name="ordmasculine" unicode="&#xba;" horiz-adv-x="776" 
d="M377 788q-148 0 -241 88.5t-93 229.5q0 138 93 225.5t241 87.5q149 0 242.5 -87.5t93.5 -225.5q0 -141 -93.5 -229.5t-242.5 -88.5zM377 991q47 0 77.5 32.5t30.5 82.5q0 48 -30 80.5t-78 32.5q-47 0 -77 -31.5t-30 -81.5q0 -51 30.5 -83t76.5 -32z" />
    <glyph glyph-name="guillemotright" unicode="&#xbb;" horiz-adv-x="1085" 
d="M29 94l239 412l-241 420h299l237 -420l-233 -412h-301zM492 94l237 412l-240 420h297l240 -420l-235 -412h-299z" />
    <glyph glyph-name="onequarter" unicode="&#xbc;" horiz-adv-x="1650" 
d="M623 -53l-230 98l647 1444l230 -98zM244 610v551l-115 -80l-117 181l287 192h180v-844h-235zM1282 0v125h-326v139l377 580h185v-518h108v-201h-108v-125h-236zM1165 309h138v217z" />
    <glyph glyph-name="onehalf" unicode="&#xbd;" horiz-adv-x="1718" 
d="M623 -53l-230 98l647 1444l230 -98zM244 610v551l-115 -80l-117 181l287 192h180v-844h-235zM1077 0l-2 156l250 258q53 53 77.5 89t24.5 68q0 31 -19 49.5t-50 18.5q-65 0 -117 -66l-176 125q45 70 125.5 115t187.5 45q121 0 208 -70t87 -186q0 -80 -28.5 -140
t-118.5 -143l-113 -102l2 -4h264v-213h-602z" />
    <glyph glyph-name="threequarters" unicode="&#xbe;" horiz-adv-x="1716" 
d="M688 -53l-229 98l647 1444l229 -98zM344 594q-120 0 -210 59t-122 150l213 84q25 -86 103 -86q36 0 59 21t23 52q0 37 -27 57.5t-76 20.5h-53v172h68q36 0 58.5 19t22.5 47q0 31 -21 51.5t-54 20.5q-62 0 -84 -68l-197 102q26 75 105 123.5t178 48.5q130 0 213.5 -61.5
t83.5 -171.5q0 -119 -101 -188v-3q129 -58 129 -200q0 -114 -86 -182t-225 -68zM1348 0v125h-326v139l377 580h184v-518h109v-201h-109v-125h-235zM1231 309h137v217z" />
    <glyph glyph-name="questiondown" unicode="&#xbf;" horiz-adv-x="913" 
d="M549 1018q77 0 130.5 -52.5t53.5 -127.5t-54 -129t-130 -54q-75 0 -129.5 54t-54.5 129t54.5 127.5t129.5 52.5zM696 506l2 -100q0 -27 -4 -52.5t-15.5 -49.5t-21 -42t-30 -42.5t-31.5 -36.5t-36 -38.5t-34 -35.5q-42 -45 -62 -68t-42.5 -65.5t-22.5 -79.5
q0 -61 35.5 -95t100.5 -34q104 0 190 96l221 -203q-71 -86 -189 -137t-249 -51q-92 0 -171.5 25t-141.5 73.5t-98 127.5t-36 179q0 57 14.5 108.5t43 95.5t57 76.5t68.5 69.5q7 6 33 29t33.5 30.5t27 26.5t26.5 28.5t18 25.5t15.5 29.5t5.5 27.5l9 82h284z" />
    <glyph glyph-name="Agrave" unicode="&#xc0;" horiz-adv-x="1421" 
d="M584 1559l-258 286h327l221 -286h-290zM12 0l535 1454h327l533 -1454h-356l-86 262h-508l-86 -262h-359zM549 549h325l-161 491h-4z" />
    <glyph glyph-name="Aacute" unicode="&#xc1;" horiz-adv-x="1421" 
d="M569 1559l222 286h325l-258 -286h-289zM12 0l535 1454h327l533 -1454h-356l-86 262h-508l-86 -262h-359zM549 549h325l-161 491h-4z" />
    <glyph glyph-name="Acircumflex" unicode="&#xc2;" horiz-adv-x="1421" 
d="M340 1559l195 286h344l200 -286h-278l-92 133h-4l-93 -133h-272zM12 0l535 1454h327l533 -1454h-356l-86 262h-508l-86 -262h-359zM549 549h325l-161 491h-4z" />
    <glyph glyph-name="Atilde" unicode="&#xc3;" horiz-adv-x="1421" 
d="M885 1559q-34 0 -69 9.5t-53 18t-54 27.5q-77 41 -113 41q-66 0 -111 -94l-184 71q35 103 102 169.5t158 66.5q101 0 184 -56q63 -36 105 -36q63 0 108 94l185 -60q-36 -113 -102.5 -182t-155.5 -69zM12 0l535 1454h327l533 -1454h-356l-86 262h-508l-86 -262h-359z
M549 549h325l-161 491h-4z" />
    <glyph glyph-name="Adieresis" unicode="&#xc4;" horiz-adv-x="1421" 
d="M479 1548q-82 0 -136 53t-54 130q0 75 54 126.5t136 51.5q83 0 138 -51.5t55 -126.5q0 -78 -55 -130.5t-138 -52.5zM938 1548q-82 0 -136 53t-54 130q0 75 54 126.5t136 51.5q81 0 135.5 -51.5t54.5 -126.5q0 -78 -54 -130.5t-136 -52.5zM12 0l535 1454h327l533 -1454
h-356l-86 262h-508l-86 -262h-359zM549 549h325l-161 491h-4z" />
    <glyph glyph-name="Aring" unicode="&#xc5;" horiz-adv-x="1421" 
d="M711 1526q-94 0 -160 61.5t-66 155.5q0 91 63 153t163 62q95 0 160 -60.5t65 -154.5q0 -91 -63 -154t-162 -63zM711 1671q30 0 51.5 22t21.5 52q0 31 -21 52.5t-52 21.5q-30 0 -51 -22t-21 -52q0 -31 20.5 -52.5t51.5 -21.5zM12 0l535 1454h327l533 -1454h-356l-86 262
h-508l-86 -262h-359zM549 549h325l-161 491h-4z" />
    <glyph glyph-name="AE" unicode="&#xc6;" horiz-adv-x="1925" 
d="M4 0l660 1454h1157v-305h-621v-279h502v-297h-502v-268h664v-305h-994v262h-391l-114 -262h-361zM598 537h285v639h-4z" />
    <glyph glyph-name="Ccedilla" unicode="&#xc7;" horiz-adv-x="1462" 
d="M1415 258q-97 -120 -241 -195t-320 -81l-25 -41l2 -4q213 -6 213 -164q0 -77 -72 -122.5t-212 -45.5q-71 0 -133 12v131q47 -14 94 -14q37 0 63.5 13t26.5 42q0 28 -40.5 44.5t-108.5 16.5v78l32 64q-133 19 -245 75.5t-195 147.5t-129.5 221.5t-46.5 288.5
q0 157 50.5 293t144 238t236.5 160.5t318 58.5q162 0 316.5 -70.5t269.5 -210.5l-250 -215q-64 75 -150 121.5t-186 46.5q-164 0 -276.5 -114.5t-112.5 -307.5q0 -178 108 -297t283 -119q198 0 336 164z" />
    <glyph glyph-name="Egrave" unicode="&#xc8;" horiz-adv-x="1198" 
d="M543 1556l-258 287h327l222 -287h-291zM131 0v1454h948v-305h-614v-279h485v-295h-485v-270h657v-305h-991z" />
    <glyph glyph-name="Eacute" unicode="&#xc9;" horiz-adv-x="1198" 
d="M379 1556l221 287h326l-258 -287h-289zM131 0v1454h948v-305h-614v-279h485v-295h-485v-270h657v-305h-991z" />
    <glyph glyph-name="Ecircumflex" unicode="&#xca;" horiz-adv-x="1198" 
d="M242 1556l194 287h344l201 -287h-279l-92 134h-4l-92 -134h-272zM131 0v1454h948v-305h-614v-279h485v-295h-485v-270h657v-305h-991z" />
    <glyph glyph-name="Edieresis" unicode="&#xcb;" horiz-adv-x="1198" 
d="M381 1546q-82 0 -136.5 53t-54.5 130q0 74 54.5 126t136.5 52q83 0 137.5 -51t54.5 -127q0 -78 -54.5 -130.5t-137.5 -52.5zM840 1546q-82 0 -136.5 53t-54.5 130q0 74 54.5 126t136.5 52q81 0 135.5 -51.5t54.5 -126.5q0 -78 -54 -130.5t-136 -52.5zM131 0v1454h948
v-305h-614v-279h485v-295h-485v-270h657v-305h-991z" />
    <glyph glyph-name="Igrave" unicode="&#xcc;" horiz-adv-x="630" 
d="M184 1554l-258 287h328l221 -287h-291zM139 0v1454h350v-1454h-350z" />
    <glyph glyph-name="Iacute" unicode="&#xcd;" horiz-adv-x="630" 
d="M158 1554l221 287h326l-259 -287h-288zM139 0v1454h350v-1454h-350z" />
    <glyph glyph-name="Icircumflex" unicode="&#xce;" horiz-adv-x="630" 
d="M-55 1556l194 287h344l201 -287h-278l-93 134h-4l-92 -134h-272zM139 0v1454h350v-1454h-350z" />
    <glyph glyph-name="Idieresis" unicode="&#xcf;" horiz-adv-x="630" 
d="M84 1546q-82 0 -136 53t-54 130q0 75 54 126.5t136 51.5q83 0 137.5 -51t54.5 -127q0 -78 -54.5 -130.5t-137.5 -52.5zM543 1546q-82 0 -136.5 53t-54.5 130q0 74 54.5 126t136.5 52q81 0 135.5 -51.5t54.5 -126.5q0 -78 -54 -130.5t-136 -52.5zM139 0v1454h350v-1454
h-350z" />
    <glyph glyph-name="Eth" unicode="&#xd0;" horiz-adv-x="1468" 
d="M635 1454q170 0 312 -53.5t239.5 -149.5t151 -231t53.5 -295t-51.5 -294t-146.5 -229.5t-236.5 -148.5t-315.5 -53h-510v569h-98v287h98v598h504zM618 305q184 0 299 120t115 300q0 183 -111 303.5t-278 120.5h-178v-293h276v-287h-276v-264h153z" />
    <glyph glyph-name="Ntilde" unicode="&#xd1;" horiz-adv-x="1513" 
d="M936 1559q-34 0 -69 9.5t-53 18t-54 27.5q-77 41 -113 41q-65 0 -110 -94l-185 71q35 103 102 169.5t158 66.5q102 0 185 -56q63 -36 104 -36q64 0 109 94l184 -60q-36 -113 -102.5 -182t-155.5 -69zM131 0v1454h330l579 -897l4 2v895h338v-1454h-340l-569 872h-4v-872
h-338z" />
    <glyph glyph-name="Ograve" unicode="&#xd2;" horiz-adv-x="1654" 
d="M719 1559l-258 286h327l222 -286h-291zM827 -18q-218 0 -389 94.5t-265.5 264t-94.5 386.5q0 162 55.5 301t153 237.5t237.5 154t303 55.5q161 0 299.5 -54.5t237.5 -151.5t155 -237t56 -305q0 -219 -96 -389t-266.5 -263t-385.5 -93zM827 299q168 0 279 123t111 305
t-111 305t-279 123q-170 0 -280.5 -123.5t-110.5 -304.5t110.5 -304.5t280.5 -123.5z" />
    <glyph glyph-name="Oacute" unicode="&#xd3;" horiz-adv-x="1654" 
d="M662 1559l221 286h325l-258 -286h-288zM827 -18q-218 0 -389 94.5t-265.5 264t-94.5 386.5q0 162 55.5 301t153 237.5t237.5 154t303 55.5q161 0 299.5 -54.5t237.5 -151.5t155 -237t56 -305q0 -219 -96 -389t-266.5 -263t-385.5 -93zM827 299q168 0 279 123t111 305
t-111 305t-279 123q-170 0 -280.5 -123.5t-110.5 -304.5t110.5 -304.5t280.5 -123.5z" />
    <glyph glyph-name="Ocircumflex" unicode="&#xd4;" horiz-adv-x="1654" 
d="M459 1559l194 286h344l201 -286h-278l-93 133h-4l-92 -133h-272zM827 -18q-218 0 -389 94.5t-265.5 264t-94.5 386.5q0 162 55.5 301t153 237.5t237.5 154t303 55.5q161 0 299.5 -54.5t237.5 -151.5t155 -237t56 -305q0 -219 -96 -389t-266.5 -263t-385.5 -93zM827 299
q168 0 279 123t111 305t-111 305t-279 123q-170 0 -280.5 -123.5t-110.5 -304.5t110.5 -304.5t280.5 -123.5z" />
    <glyph glyph-name="Otilde" unicode="&#xd5;" horiz-adv-x="1654" 
d="M1004 1559q-34 0 -69 9.5t-54 18.5t-54 27q-77 41 -112 41q-66 0 -111 -94l-184 71q35 103 102 169.5t158 66.5q101 0 184 -56q63 -36 105 -36q63 0 108 94l185 -60q-36 -113 -102.5 -182t-155.5 -69zM827 -18q-218 0 -389 94.5t-265.5 264t-94.5 386.5q0 162 55.5 301
t153 237.5t237.5 154t303 55.5q161 0 299.5 -54.5t237.5 -151.5t155 -237t56 -305q0 -219 -96 -389t-266.5 -263t-385.5 -93zM827 299q168 0 279 123t111 305t-111 305t-279 123q-170 0 -280.5 -123.5t-110.5 -304.5t110.5 -304.5t280.5 -123.5z" />
    <glyph glyph-name="Odieresis" unicode="&#xd6;" horiz-adv-x="1654" 
d="M598 1548q-82 0 -136 53t-54 130q0 75 54 126.5t136 51.5q83 0 138 -51.5t55 -126.5q0 -78 -55 -130.5t-138 -52.5zM1057 1548q-82 0 -136.5 53t-54.5 130q0 74 54.5 126t136.5 52q81 0 135.5 -51.5t54.5 -126.5q0 -78 -54 -130.5t-136 -52.5zM827 -18q-218 0 -389 94.5
t-265.5 264t-94.5 386.5q0 162 55.5 301t153 237.5t237.5 154t303 55.5q161 0 299.5 -54.5t237.5 -151.5t155 -237t56 -305q0 -219 -96 -389t-266.5 -263t-385.5 -93zM827 299q168 0 279 123t111 305t-111 305t-279 123q-170 0 -280.5 -123.5t-110.5 -304.5t110.5 -304.5
t280.5 -123.5z" />
    <glyph glyph-name="multiply" unicode="&#xd7;" horiz-adv-x="1075" 
d="M268 109l-190 192l270 268l-270 269l190 188l269 -268l268 270l192 -190l-270 -271l268 -270l-188 -188l-268 270z" />
    <glyph glyph-name="Oslash" unicode="&#xd8;" horiz-adv-x="1654" 
d="M1415 1212q160 -203 160 -485q0 -219 -96 -389t-266.5 -263t-385.5 -93q-243 0 -426 116l-159 -174l-142 131l154 168q-176 201 -176 504q0 162 55.5 301t153 237.5t237.5 154t303 55.5q257 0 449 -134l158 175l139 -130zM436 727q0 -130 62 -238l544 598q-93 68 -215 68
q-170 0 -280.5 -123.5t-110.5 -304.5zM827 299q168 0 279 123t111 305q0 113 -50 215l-536 -590q86 -53 196 -53z" />
    <glyph glyph-name="Ugrave" unicode="&#xd9;" horiz-adv-x="1433" 
d="M584 1559l-258 286h327l221 -286h-290zM715 -18q-274 0 -437 163.5t-163 460.5v848h344v-827q0 -141 67 -233.5t189 -92.5q117 0 189.5 87t72.5 239v827h342v-848q0 -288 -158.5 -456t-445.5 -168z" />
    <glyph glyph-name="Uacute" unicode="&#xda;" horiz-adv-x="1433" 
d="M545 1559l221 286h326l-258 -286h-289zM715 -18q-274 0 -437 163.5t-163 460.5v848h344v-827q0 -141 67 -233.5t189 -92.5q117 0 189.5 87t72.5 239v827h342v-848q0 -288 -158.5 -456t-445.5 -168z" />
    <glyph glyph-name="Ucircumflex" unicode="&#xdb;" horiz-adv-x="1433" 
d="M346 1559l195 286h344l200 -286h-278l-92 133h-4l-93 -133h-272zM715 -18q-274 0 -437 163.5t-163 460.5v848h344v-827q0 -141 67 -233.5t189 -92.5q117 0 189.5 87t72.5 239v827h342v-848q0 -288 -158.5 -456t-445.5 -168z" />
    <glyph glyph-name="Udieresis" unicode="&#xdc;" horiz-adv-x="1433" 
d="M485 1548q-82 0 -136 53t-54 130q0 75 54 126.5t136 51.5q83 0 138 -51.5t55 -126.5q0 -78 -55 -130.5t-138 -52.5zM944 1548q-82 0 -136 53t-54 130q0 75 54 126.5t136 51.5q81 0 136 -51.5t55 -126.5q0 -78 -54.5 -130.5t-136.5 -52.5zM715 -18q-274 0 -437 163.5
t-163 460.5v848h344v-827q0 -141 67 -233.5t189 -92.5q117 0 189.5 87t72.5 239v827h342v-848q0 -288 -158.5 -456t-445.5 -168z" />
    <glyph glyph-name="Yacute" unicode="&#xdd;" horiz-adv-x="1302" 
d="M481 1559l221 286h326l-258 -286h-289zM475 0v633l-473 821h391l256 -483h4l252 483h395l-477 -821v-633h-348z" />
    <glyph glyph-name="Thorn" unicode="&#xde;" horiz-adv-x="1302" 
d="M131 0v1454h334v-242h264q131 0 231 -37.5t161.5 -105t92.5 -158t31 -200.5q0 -233 -145.5 -355.5t-397.5 -122.5h-237v-233h-334zM465 532h199q111 0 169 50t58 137t-54.5 138.5t-166.5 51.5h-205v-377z" />
    <glyph glyph-name="germandbls" unicode="&#xdf;" horiz-adv-x="1284" 
d="M590 -18v280h102q100 0 160.5 59.5t60.5 151.5q0 96 -65 155.5t-178 59.5h-60v260h45q91 0 137 48.5t46 107.5q0 65 -50.5 107t-138.5 42q-217 0 -217 -241v-1012h-321v989q0 267 139 403t391 136q125 0 224.5 -32t160 -87t92 -124t31.5 -146q0 -184 -150 -279v-4
q110 -54 173 -161t63 -240q0 -218 -126 -345.5t-341 -127.5h-178z" />
    <glyph glyph-name="agrave" unicode="&#xe0;" horiz-adv-x="1220" 
d="M508 1122l-252 305l326 -2l217 -303h-291zM530 -18q-207 0 -340 144t-133 374q0 228 130.5 374t326.5 146q81 0 153 -32t124 -93l4 2v104h321v-1001h-305v104l-4 2q-97 -124 -277 -124zM598 264q89 0 150 65.5t61 170.5q0 102 -60.5 169.5t-150.5 67.5q-93 0 -154 -65.5
t-61 -171.5q0 -105 59.5 -170.5t155.5 -65.5z" />
    <glyph glyph-name="aacute" unicode="&#xe1;" horiz-adv-x="1220" 
d="M418 1124l227 306l324 2l-254 -308h-297zM530 -18q-207 0 -340 144t-133 374q0 228 130.5 374t326.5 146q81 0 153 -32t124 -93l4 2v104h321v-1001h-305v104l-4 2q-97 -124 -277 -124zM598 264q89 0 150 65.5t61 170.5q0 102 -60.5 169.5t-150.5 67.5q-93 0 -154 -65.5
t-61 -171.5q0 -105 59.5 -170.5t155.5 -65.5z" />
    <glyph glyph-name="acircumflex" unicode="&#xe2;" horiz-adv-x="1220" 
d="M238 1122l194 305h344l199 -305h-279l-90 148h-4l-92 -148h-272zM530 -18q-207 0 -340 144t-133 374q0 228 130.5 374t326.5 146q81 0 153 -32t124 -93l4 2v104h321v-1001h-305v104l-4 2q-97 -124 -277 -124zM598 264q89 0 150 65.5t61 170.5q0 102 -60.5 169.5
t-150.5 67.5q-93 0 -154 -65.5t-61 -171.5q0 -105 59.5 -170.5t155.5 -65.5z" />
    <glyph glyph-name="atilde" unicode="&#xe3;" horiz-adv-x="1220" 
d="M782 1124q-83 0 -180 56q-2 1 -15 8t-16.5 9t-14.5 7.5t-16 7t-14 4.5t-16.5 4t-15.5 1q-66 0 -113 -99l-184 78q34 112 102 182t160 70q41 0 77.5 -9t55 -18t47.5 -26q64 -39 102 -39q69 0 113 94l184 -59q-34 -121 -100.5 -196t-155.5 -75zM530 -18q-207 0 -340 144
t-133 374q0 228 130.5 374t326.5 146q81 0 153 -32t124 -93l4 2v104h321v-1001h-305v104l-4 2q-97 -124 -277 -124zM598 264q89 0 150 65.5t61 170.5q0 102 -60.5 169.5t-150.5 67.5q-93 0 -154 -65.5t-61 -171.5q0 -105 59.5 -170.5t155.5 -65.5z" />
    <glyph glyph-name="adieresis" unicode="&#xe4;" horiz-adv-x="1220" 
d="M375 1128q-82 0 -136.5 53t-54.5 130q0 74 54.5 126t136.5 52q83 0 137.5 -51t54.5 -127q0 -78 -54.5 -130.5t-137.5 -52.5zM834 1128q-82 0 -136.5 53t-54.5 130q0 74 54.5 126t136.5 52q81 0 135.5 -51.5t54.5 -126.5q0 -78 -54 -130.5t-136 -52.5zM530 -18
q-207 0 -340 144t-133 374q0 228 130.5 374t326.5 146q81 0 153 -32t124 -93l4 2v104h321v-1001h-305v104l-4 2q-97 -124 -277 -124zM598 264q89 0 150 65.5t61 170.5q0 102 -60.5 169.5t-150.5 67.5q-93 0 -154 -65.5t-61 -171.5q0 -105 59.5 -170.5t155.5 -65.5z" />
    <glyph glyph-name="aring" unicode="&#xe5;" horiz-adv-x="1220" 
d="M606 1102q-94 0 -159.5 61.5t-65.5 155.5q0 91 63 153t162 62q95 0 160 -60.5t65 -154.5q0 -91 -63 -154t-162 -63zM606 1247q30 0 52 22t22 52q0 31 -21.5 52.5t-52.5 21.5q-30 0 -50.5 -22t-20.5 -52q0 -31 20.5 -52.5t50.5 -21.5zM530 -18q-207 0 -340 144t-133 374
q0 228 130.5 374t326.5 146q81 0 153 -32t124 -93l4 2v104h321v-1001h-305v104l-4 2q-97 -124 -277 -124zM598 264q89 0 150 65.5t61 170.5q0 102 -60.5 169.5t-150.5 67.5q-93 0 -154 -65.5t-61 -171.5q0 -105 59.5 -170.5t155.5 -65.5z" />
    <glyph glyph-name="ae" unicode="&#xe6;" horiz-adv-x="1617" 
d="M1569 506q0 -44 -8 -90h-646q21 -81 79 -125.5t153 -44.5q62 0 111 26.5t96 81.5l186 -194q-65 -82 -171 -130t-239 -48q-228 0 -350 131h-4q-59 -59 -154.5 -95t-201.5 -36q-187 0 -281 85t-94 224q0 147 100.5 229t309.5 82l151 2v8q0 83 -32.5 116.5t-102.5 33.5
q-119 0 -252 -68l-113 232q66 36 173.5 65t222.5 29q194 0 284 -119h7q125 119 315 119q202 0 331.5 -145.5t129.5 -368.5zM1094 764q-69 0 -116.5 -42t-64.5 -118h347q-15 75 -58.5 117.5t-107.5 42.5zM459 215q66 0 106.5 38.5t40.5 86.5v82l-117 -2q-141 -3 -141 -107
q0 -44 29 -71t82 -27z" />
    <glyph glyph-name="ccedilla" unicode="&#xe7;" horiz-adv-x="1069" 
d="M1032 156q-143 -163 -414 -174l-24 -41l2 -4q213 -6 213 -164q0 -76 -72.5 -122t-212.5 -46q-71 0 -133 12v131q47 -14 94 -14q37 0 63.5 13t26.5 42q0 28 -40.5 44.5t-108.5 16.5v78l35 66q-181 37 -290.5 172.5t-109.5 331.5q0 235 147 378.5t386 143.5
q124 0 238.5 -42.5t193.5 -131.5l-207 -205q-34 45 -87.5 69.5t-110.5 24.5q-105 0 -170.5 -65t-65.5 -170t66.5 -169.5t171.5 -64.5q125 0 213 94z" />
    <glyph glyph-name="egrave" unicode="&#xe8;" horiz-adv-x="1126" 
d="M766 1122h-291l-252 305l326 -2zM1067 512q0 -36 -6 -96h-682q15 -84 79.5 -129t159.5 -45q140 3 234 108l184 -188q-145 -180 -450 -180q-229 0 -377 144.5t-148 375.5q0 227 145 372.5t372 145.5q213 0 351 -143t138 -365zM573 766q-74 0 -125.5 -42.5t-66.5 -117.5
h375q-15 74 -63.5 117t-119.5 43z" />
    <glyph glyph-name="eacute" unicode="&#xe9;" horiz-adv-x="1126" 
d="M985 1432l-254 -308h-297l228 306zM1067 512q0 -36 -6 -96h-682q15 -84 79.5 -129t159.5 -45q140 3 234 108l184 -188q-145 -180 -450 -180q-229 0 -377 144.5t-148 375.5q0 227 145 372.5t372 145.5q213 0 351 -143t138 -365zM573 766q-74 0 -125.5 -42.5t-66.5 -117.5
h375q-15 74 -63.5 117t-119.5 43z" />
    <glyph glyph-name="ecircumflex" unicode="&#xea;" horiz-adv-x="1126" 
d="M573 1270l-92 -148h-272l194 305h345l198 -305h-278l-90 148h-5zM1067 512q0 -36 -6 -96h-682q15 -84 79.5 -129t159.5 -45q140 3 234 108l184 -188q-145 -180 -450 -180q-229 0 -377 144.5t-148 375.5q0 227 145 372.5t372 145.5q213 0 351 -143t138 -365zM573 766
q-74 0 -125.5 -42.5t-66.5 -117.5h375q-15 74 -63.5 117t-119.5 43z" />
    <glyph glyph-name="edieresis" unicode="&#xeb;" horiz-adv-x="1126" 
d="M346 1128q-82 0 -136 53t-54 130q0 75 54 126.5t136 51.5q83 0 138 -51.5t55 -126.5q0 -78 -55 -130.5t-138 -52.5zM805 1128q-82 0 -136.5 53t-54.5 130q0 74 54.5 126t136.5 52q81 0 135.5 -51.5t54.5 -126.5q0 -78 -54 -130.5t-136 -52.5zM1067 512q0 -36 -6 -96h-682
q15 -84 79.5 -129t159.5 -45q140 3 234 108l184 -188q-145 -180 -450 -180q-229 0 -377 144.5t-148 375.5q0 227 145 372.5t372 145.5q213 0 351 -143t138 -365zM573 766q-74 0 -125.5 -42.5t-66.5 -117.5h375q-15 74 -63.5 117t-119.5 43z" />
    <glyph glyph-name="igrave" unicode="&#xec;" horiz-adv-x="561" 
d="M139 1141l-170 307l322 -2l143 -305h-295zM121 0v1001h319v-1001h-319z" />
    <glyph glyph-name="iacute" unicode="&#xed;" horiz-adv-x="561" 
d="M139 1124l228 306l323 2l-254 -308h-297zM121 0v1001h319v-1001h-319z" />
    <glyph glyph-name="icircumflex" unicode="&#xee;" horiz-adv-x="561" 
d="M-88 1122l194 305h345l198 -305h-278l-90 148h-5l-92 -148h-272zM121 0v1001h319v-1001h-319z" />
    <glyph glyph-name="idieresis" unicode="&#xef;" horiz-adv-x="561" 
d="M74 1126q-78 0 -133.5 55t-55.5 130q0 74 55.5 127t133.5 53q74 0 128 -53.5t54 -126.5q0 -75 -54 -130t-128 -55zM487 1128q-75 0 -129.5 54t-54.5 129q0 72 54.5 126t129.5 54t130 -54t55 -126q0 -75 -55 -129t-130 -54zM121 0v1001h319v-1001h-319z" />
    <glyph glyph-name="eth" unicode="&#xf0;" horiz-adv-x="1198" 
d="M836 1206q303 -296 303 -655q0 -276 -146.5 -422.5t-392.5 -146.5q-234 0 -386.5 140.5t-152.5 356.5q0 113 36 208.5t97.5 159.5t142.5 100t171 36q98 0 182 -43l2 2q-147 199 -463 358l121 232q159 -75 295 -170l152 205l204 -148zM600 264q94 0 155.5 66.5t61.5 167.5
q0 100 -61 163.5t-156 63.5q-93 0 -154 -65t-61 -162q0 -101 62 -167.5t153 -66.5z" />
    <glyph glyph-name="ntilde" unicode="&#xf1;" horiz-adv-x="1191" 
d="M791 1124q-84 0 -181 56q-2 1 -15 8t-16.5 9t-14.5 7.5t-16 7t-14 4.5t-16.5 4t-15.5 1q-66 0 -113 -99l-184 78q34 112 102 182t160 70q41 0 77.5 -9t55 -18t47.5 -26q64 -39 103 -39q68 0 112 94l185 -59q-34 -121 -100.5 -196t-155.5 -75zM111 0v1001h319v-116h4
q117 135 301 135q359 0 359 -420v-600h-320v522q0 119 -39 166t-121 47q-86 0 -135 -58.5t-49 -172.5v-504h-319z" />
    <glyph glyph-name="ograve" unicode="&#xf2;" horiz-adv-x="1206" 
d="M494 1122l-252 305l325 -2l217 -303h-290zM604 -18q-242 0 -392.5 145t-150.5 373q0 230 150.5 375t392.5 145q237 0 389 -144.5t152 -375.5q0 -229 -152 -373.5t-389 -144.5zM604 264q92 0 154.5 67t62.5 169q0 104 -61.5 169.5t-155.5 65.5q-97 0 -158 -66t-61 -169
q0 -100 62 -168t157 -68z" />
    <glyph glyph-name="oacute" unicode="&#xf3;" horiz-adv-x="1206" 
d="M457 1124l227 306l324 2l-254 -308h-297zM604 -18q-242 0 -392.5 145t-150.5 373q0 230 150.5 375t392.5 145q237 0 389 -144.5t152 -375.5q0 -229 -152 -373.5t-389 -144.5zM604 264q92 0 154.5 67t62.5 169q0 104 -61.5 169.5t-155.5 65.5q-97 0 -158 -66t-61 -169
q0 -100 62 -168t157 -68z" />
    <glyph glyph-name="ocircumflex" unicode="&#xf4;" horiz-adv-x="1206" 
d="M236 1122l194 305h344l199 -305h-279l-90 148h-4l-92 -148h-272zM604 -18q-242 0 -392.5 145t-150.5 373q0 230 150.5 375t392.5 145q237 0 389 -144.5t152 -375.5q0 -229 -152 -373.5t-389 -144.5zM604 264q92 0 154.5 67t62.5 169q0 104 -61.5 169.5t-155.5 65.5
q-97 0 -158 -66t-61 -169q0 -100 62 -168t157 -68z" />
    <glyph glyph-name="otilde" unicode="&#xf5;" horiz-adv-x="1206" 
d="M780 1124q-83 0 -180 56q-2 1 -15 8t-16.5 9t-14.5 7.5t-16 7t-14 4.5t-16.5 4t-15.5 1q-66 0 -113 -99l-184 78q34 112 102 182t160 70q41 0 77.5 -9t55 -18t47.5 -26q64 -39 102 -39q69 0 113 94l184 -59q-34 -121 -100.5 -196t-155.5 -75zM604 -18q-242 0 -392.5 145
t-150.5 373q0 230 150.5 375t392.5 145q237 0 389 -144.5t152 -375.5q0 -229 -152 -373.5t-389 -144.5zM604 264q92 0 154.5 67t62.5 169q0 104 -61.5 169.5t-155.5 65.5q-97 0 -158 -66t-61 -169q0 -100 62 -168t157 -68z" />
    <glyph glyph-name="odieresis" unicode="&#xf6;" horiz-adv-x="1206" 
d="M373 1128q-82 0 -136.5 53t-54.5 130q0 74 54.5 126t136.5 52q83 0 137.5 -51t54.5 -127q0 -78 -54.5 -130.5t-137.5 -52.5zM831 1128q-82 0 -136 53t-54 130q0 75 54 126.5t136 51.5q81 0 136 -51.5t55 -126.5q0 -78 -54.5 -130.5t-136.5 -52.5zM604 -18
q-242 0 -392.5 145t-150.5 373q0 230 150.5 375t392.5 145q237 0 389 -144.5t152 -375.5q0 -229 -152 -373.5t-389 -144.5zM604 264q92 0 154.5 67t62.5 169q0 104 -61.5 169.5t-155.5 65.5q-97 0 -158 -66t-61 -169q0 -100 62 -168t157 -68z" />
    <glyph glyph-name="divide" unicode="&#xf7;" horiz-adv-x="1146" 
d="M571 803q-76 0 -127 49t-51 123q0 70 51 119t127 49q78 0 129.5 -48.5t51.5 -119.5q0 -74 -51.5 -123t-129.5 -49zM90 434v268h979v-268h-979zM571 -16q-76 0 -127 49t-51 123q0 70 51 119t127 49q78 0 129.5 -48.5t51.5 -119.5q0 -74 -51.5 -123t-129.5 -49z" />
    <glyph glyph-name="oslash" unicode="&#xf8;" horiz-adv-x="1206" 
d="M1028 840q117 -139 117 -340q0 -229 -152 -373.5t-389 -144.5q-173 0 -299 75l-106 -114l-119 110l100 109q-119 138 -119 338q0 230 150.5 375t392.5 145q169 0 299 -76l103 111l118 -111zM385 500q0 -54 18 -97l291 314q-43 18 -90 18q-97 0 -158 -66t-61 -169z
M604 264q92 0 154.5 67t62.5 169q0 52 -16 98l-291 -315q43 -19 90 -19z" />
    <glyph glyph-name="ugrave" unicode="&#xf9;" horiz-adv-x="1167" 
d="M475 1122l-252 305l326 -2l217 -303h-291zM455 -18q-361 0 -361 426v593h320v-514q0 -121 35.5 -172t117.5 -51q76 0 126 63t50 179v495h322v-1001h-322v113l-4 2q-109 -133 -284 -133z" />
    <glyph glyph-name="uacute" unicode="&#xfa;" horiz-adv-x="1167" 
d="M426 1124l227 306l324 2l-254 -308h-297zM455 -18q-361 0 -361 426v593h320v-514q0 -121 35.5 -172t117.5 -51q76 0 126 63t50 179v495h322v-1001h-322v113l-4 2q-109 -133 -284 -133z" />
    <glyph glyph-name="ucircumflex" unicode="&#xfb;" horiz-adv-x="1167" 
d="M217 1122l195 305h344l198 -305h-278l-90 148h-4l-93 -148h-272zM455 -18q-361 0 -361 426v593h320v-514q0 -121 35.5 -172t117.5 -51q76 0 126 63t50 179v495h322v-1001h-322v113l-4 2q-109 -133 -284 -133z" />
    <glyph glyph-name="udieresis" unicode="&#xfc;" horiz-adv-x="1167" 
d="M354 1128q-82 0 -136 53t-54 130q0 75 54 126.5t136 51.5q83 0 138 -51.5t55 -126.5q0 -78 -55 -130.5t-138 -52.5zM813 1128q-82 0 -136 53t-54 130q0 75 54 126.5t136 51.5q81 0 136 -51.5t55 -126.5q0 -78 -54.5 -130.5t-136.5 -52.5zM455 -18q-361 0 -361 426v593
h320v-514q0 -121 35.5 -172t117.5 -51q76 0 126 63t50 179v495h322v-1001h-322v113l-4 2q-109 -133 -284 -133z" />
    <glyph glyph-name="yacute" unicode="&#xfd;" horiz-adv-x="1097" 
d="M377 1124l227 306l324 2l-254 -308h-297zM238 -406l172 474l-392 933h342l201 -538h6l193 538h319l-526 -1407h-315z" />
    <glyph glyph-name="thorn" unicode="&#xfe;" horiz-adv-x="1236" 
d="M111 -406v1913h319v-610h4q108 123 285 123q197 0 327 -146t130 -374q0 -230 -133 -374t-341 -144q-172 0 -268 116l-4 -2v-502h-319zM639 264q93 0 153 65.5t60 170.5q0 106 -61 171.5t-154 65.5q-97 0 -159 -67t-62 -170q0 -106 63 -171t160 -65z" />
    <glyph glyph-name="ydieresis" unicode="&#xff;" horiz-adv-x="1097" 
d="M322 1128q-82 0 -136.5 53t-54.5 130q0 74 54.5 126t136.5 52q83 0 137.5 -51t54.5 -127q0 -78 -54.5 -130.5t-137.5 -52.5zM780 1128q-82 0 -136 53t-54 130q0 75 54 126.5t136 51.5q81 0 136 -51.5t55 -126.5q0 -78 -54.5 -130.5t-136.5 -52.5zM238 -406l172 474
l-392 933h342l201 -538h6l193 538h319l-526 -1407h-315z" />
    <glyph glyph-name="Amacron" unicode="&#x100;" horiz-adv-x="1421" 
d="M389 1591v234h641v-234h-641zM12 0l535 1454h327l533 -1454h-356l-86 262h-508l-86 -262h-359zM549 549h325l-161 491h-4z" />
    <glyph glyph-name="amacron" unicode="&#x101;" horiz-adv-x="1220" 
d="M285 1174v245h641v-245h-641zM530 -18q-207 0 -340 144t-133 374q0 228 130.5 374t326.5 146q81 0 153 -32t124 -93l4 2v104h321v-1001h-305v104l-4 2q-97 -124 -277 -124zM598 264q89 0 150 65.5t61 170.5q0 102 -60.5 169.5t-150.5 67.5q-93 0 -154 -65.5t-61 -171.5
q0 -105 59.5 -170.5t155.5 -65.5z" />
    <glyph glyph-name="Abreve" unicode="&#x102;" horiz-adv-x="1421" 
d="M709 1544q-155 0 -247.5 77.5t-105.5 223.5h234q5 -41 37 -67.5t82 -26.5q51 0 84 27t36 67h234q-13 -139 -101 -220t-253 -81zM12 0l535 1454h327l533 -1454h-356l-86 262h-508l-86 -262h-359zM549 549h325l-161 491h-4z" />
    <glyph glyph-name="abreve" unicode="&#x103;" horiz-adv-x="1220" 
d="M604 1104q-146 0 -243 85.5t-109 235.5h233q5 -43 37 -71.5t82 -28.5q51 0 84.5 29.5t36.5 70.5h233q-11 -143 -104 -232t-250 -89zM530 -18q-207 0 -340 144t-133 374q0 228 130.5 374t326.5 146q81 0 153 -32t124 -93l4 2v104h321v-1001h-305v104l-4 2
q-97 -124 -277 -124zM598 264q89 0 150 65.5t61 170.5q0 102 -60.5 169.5t-150.5 67.5q-93 0 -154 -65.5t-61 -171.5q0 -105 59.5 -170.5t155.5 -65.5z" />
    <glyph glyph-name="Aogonek" unicode="&#x104;" horiz-adv-x="1421" 
d="M1350 0q-86 -4 -139.5 -46.5t-53.5 -94.5q0 -38 21.5 -59t58.5 -21q26 0 76 10l14 -158q-59 -22 -156 -22q-113 0 -179 53t-66 139q0 54 31 109t92 94l-84 258h-508l-86 -262h-359l535 1454h327l533 -1454h-57zM549 549h325l-161 491h-4z" />
    <glyph glyph-name="aogonek" unicode="&#x105;" horiz-adv-x="1220" 
d="M795 1001h321v-1001h-18q-86 -4 -139.5 -46.5t-53.5 -94.5q0 -38 21.5 -59t58.5 -21q26 0 76 10l14 -158q-59 -22 -155 -22q-113 0 -179.5 53t-66.5 139q0 57 34.5 115t102.5 98v90l-4 2q-97 -124 -277 -124q-207 0 -340 144t-133 374q0 228 130.5 374t326.5 146
q81 0 153 -32t124 -93l4 2v104zM598 264q89 0 150 65.5t61 170.5q0 102 -60.5 169.5t-150.5 67.5q-93 0 -154 -65.5t-61 -171.5q0 -105 59.5 -170.5t155.5 -65.5z" />
    <glyph glyph-name="Cacute" unicode="&#x106;" horiz-adv-x="1462" 
d="M649 1559l221 286h326l-258 -286h-289zM829 -18q-158 0 -294 49t-238 140.5t-160.5 234t-58.5 319.5q0 157 50.5 293t144 238t236.5 160.5t318 58.5q162 0 316.5 -70.5t269.5 -210.5l-250 -215q-64 75 -150 121.5t-186 46.5q-164 0 -276.5 -114.5t-112.5 -307.5
q0 -178 108 -297t283 -119q198 0 336 164l250 -215q-100 -124 -251 -200t-335 -76z" />
    <glyph glyph-name="cacute" unicode="&#x107;" horiz-adv-x="1069" 
d="M432 1124l227 306l324 2l-254 -308h-297zM586 -18q-229 0 -377 143.5t-148 372.5q0 235 147 378.5t386 143.5q124 0 238.5 -42.5t193.5 -131.5l-207 -205q-34 45 -87.5 69.5t-110.5 24.5q-105 0 -170.5 -65t-65.5 -170t66.5 -169.5t171.5 -64.5q125 0 213 94l196 -204
q-151 -174 -446 -174z" />
    <glyph glyph-name="Ccircumflex" unicode="&#x108;" horiz-adv-x="1462" 
d="M457 1559l194 286h344l201 -286h-278l-93 133h-4l-92 -133h-272zM829 -18q-158 0 -294 49t-238 140.5t-160.5 234t-58.5 319.5q0 157 50.5 293t144 238t236.5 160.5t318 58.5q162 0 316.5 -70.5t269.5 -210.5l-250 -215q-64 75 -150 121.5t-186 46.5
q-164 0 -276.5 -114.5t-112.5 -307.5q0 -178 108 -297t283 -119q198 0 336 164l250 -215q-100 -124 -251 -200t-335 -76z" />
    <glyph glyph-name="ccircumflex" unicode="&#x109;" horiz-adv-x="1069" 
d="M225 1122l195 305h344l199 -305h-279l-90 148h-4l-92 -148h-273zM586 -18q-229 0 -377 143.5t-148 372.5q0 235 147 378.5t386 143.5q124 0 238.5 -42.5t193.5 -131.5l-207 -205q-34 45 -87.5 69.5t-110.5 24.5q-105 0 -170.5 -65t-65.5 -170t66.5 -169.5t171.5 -64.5
q125 0 213 94l196 -204q-151 -174 -446 -174z" />
    <glyph glyph-name="Cdotaccent" unicode="&#x10a;" horiz-adv-x="1462" 
d="M827 1546q-83 0 -136.5 53t-53.5 132q0 75 54 127.5t136 52.5q83 0 138 -52t55 -128q0 -78 -55 -131.5t-138 -53.5zM829 -18q-158 0 -294 49t-238 140.5t-160.5 234t-58.5 319.5q0 157 50.5 293t144 238t236.5 160.5t318 58.5q162 0 316.5 -70.5t269.5 -210.5l-250 -215
q-64 75 -150 121.5t-186 46.5q-164 0 -276.5 -114.5t-112.5 -307.5q0 -178 108 -297t283 -119q198 0 336 164l250 -215q-100 -124 -251 -200t-335 -76z" />
    <glyph glyph-name="cdotaccent" unicode="&#x10b;" horiz-adv-x="1069" 
d="M594 1126q-83 0 -137 53t-54 132q0 75 54.5 127.5t136.5 52.5t137 -52t55 -128q0 -79 -54.5 -132t-137.5 -53zM586 -18q-229 0 -377 143.5t-148 372.5q0 235 147 378.5t386 143.5q124 0 238.5 -42.5t193.5 -131.5l-207 -205q-34 45 -87.5 69.5t-110.5 24.5
q-105 0 -170.5 -65t-65.5 -170t66.5 -169.5t171.5 -64.5q125 0 213 94l196 -204q-151 -174 -446 -174z" />
    <glyph glyph-name="Ccaron" unicode="&#x10c;" horiz-adv-x="1462" 
d="M657 1559l-200 286h278l92 -133h4l93 133h272l-195 -286h-344zM829 -18q-158 0 -294 49t-238 140.5t-160.5 234t-58.5 319.5q0 157 50.5 293t144 238t236.5 160.5t318 58.5q162 0 316.5 -70.5t269.5 -210.5l-250 -215q-64 75 -150 121.5t-186 46.5q-164 0 -276.5 -114.5
t-112.5 -307.5q0 -178 108 -297t283 -119q198 0 336 164l250 -215q-100 -124 -251 -200t-335 -76z" />
    <glyph glyph-name="ccaron" unicode="&#x10d;" horiz-adv-x="1069" 
d="M424 1120l-199 305h281l90 -147h4l90 147h273l-193 -305h-346zM586 -18q-229 0 -377 143.5t-148 372.5q0 235 147 378.5t386 143.5q124 0 238.5 -42.5t193.5 -131.5l-207 -205q-34 45 -87.5 69.5t-110.5 24.5q-105 0 -170.5 -65t-65.5 -170t66.5 -169.5t171.5 -64.5
q125 0 213 94l196 -204q-151 -174 -446 -174z" />
    <glyph glyph-name="Dcaron" unicode="&#x10e;" horiz-adv-x="1468" 
d="M526 1556l-200 287h278l92 -133h4l93 133h272l-195 -287h-344zM131 0v1454h504q170 0 312 -53.5t239.5 -149.5t151 -231t53.5 -295t-51.5 -294t-146.5 -229.5t-236.5 -148.5t-315.5 -53h-510zM465 305h153q184 0 299 120t115 300q0 183 -111 303.5t-278 120.5h-178v-844z
" />
    <glyph glyph-name="dcaron" unicode="&#x10f;" horiz-adv-x="1372" 
d="M1233 1182l65 444h304l-146 -444h-223zM532 -18q-208 0 -340.5 143.5t-132.5 374.5q0 228 130.5 374t326.5 146q177 0 287 -125h2v612h321v-1507h-305v106h-4q-100 -124 -285 -124zM598 264q95 0 157 65t62 171q0 103 -61.5 170t-157.5 67q-92 0 -153.5 -65.5
t-61.5 -171.5q0 -105 60.5 -170.5t154.5 -65.5z" />
    <glyph glyph-name="Dcroat" unicode="&#x110;" horiz-adv-x="1468" 
d="M635 1454q170 0 312 -53.5t239.5 -149.5t151 -231t53.5 -295t-51.5 -294t-146.5 -229.5t-236.5 -148.5t-315.5 -53h-510v569h-98v287h98v598h504zM618 305q184 0 299 120t115 300q0 183 -111 303.5t-278 120.5h-178v-293h276v-287h-276v-264h153z" />
    <glyph glyph-name="dcroat" unicode="&#x111;" horiz-adv-x="1230" 
d="M1241 1307v-191h-115v-1116h-305v106h-4q-100 -124 -285 -124q-208 0 -340.5 143.5t-132.5 374.5q0 228 130.5 374t326.5 146q177 0 287 -125h2v221h-338v191h338v200h321v-200h115zM598 264q95 0 157 65t62 171q0 103 -61.5 170t-157.5 67q-92 0 -153.5 -65.5
t-61.5 -171.5q0 -105 60.5 -170.5t154.5 -65.5z" />
    <glyph glyph-name="Emacron" unicode="&#x112;" horiz-adv-x="1198" 
d="M291 1589v234h641v-234h-641zM131 0v1454h948v-305h-614v-279h485v-295h-485v-270h657v-305h-991z" />
    <glyph glyph-name="emacron" unicode="&#x113;" horiz-adv-x="1126" 
d="M897 1419v-245h-641v245h641zM1067 512q0 -36 -6 -96h-682q15 -84 79.5 -129t159.5 -45q140 3 234 108l184 -188q-145 -180 -450 -180q-229 0 -377 144.5t-148 375.5q0 227 145 372.5t372 145.5q213 0 351 -143t138 -365zM573 766q-74 0 -125.5 -42.5t-66.5 -117.5h375
q-15 74 -63.5 117t-119.5 43z" />
    <glyph glyph-name="Ebreve" unicode="&#x114;" horiz-adv-x="1198" 
d="M610 1542q-155 0 -247 77.5t-105 223.5h234q5 -41 36.5 -67.5t81.5 -26.5q51 0 84.5 27.5t36.5 66.5h234q-13 -139 -101.5 -220t-253.5 -81zM131 0v1454h948v-305h-614v-279h485v-295h-485v-270h657v-305h-991z" />
    <glyph glyph-name="ebreve" unicode="&#x115;" horiz-adv-x="1126" 
d="M575 1104q-146 0 -243 85.5t-109 235.5h234q5 -43 37 -71.5t81 -28.5q51 0 84.5 29.5t36.5 70.5h234q-11 -143 -104.5 -232t-250.5 -89zM1067 512q0 -36 -6 -96h-682q15 -84 79.5 -129t159.5 -45q140 3 234 108l184 -188q-145 -180 -450 -180q-229 0 -377 144.5
t-148 375.5q0 227 145 372.5t372 145.5q213 0 351 -143t138 -365zM573 766q-74 0 -125.5 -42.5t-66.5 -117.5h375q-15 74 -63.5 117t-119.5 43z" />
    <glyph glyph-name="Edotaccent" unicode="&#x116;" horiz-adv-x="1198" 
d="M612 1544q-83 0 -136.5 53t-53.5 132q0 75 54 127.5t136 52.5q83 0 138 -52t55 -128q0 -78 -55 -131.5t-138 -53.5zM131 0v1454h948v-305h-614v-279h485v-295h-485v-270h657v-305h-991z" />
    <glyph glyph-name="edotaccent" unicode="&#x117;" horiz-adv-x="1126" 
d="M578 1126q-83 0 -137 53t-54 132q0 75 54.5 127.5t136.5 52.5t137 -52t55 -128q0 -79 -54.5 -132t-137.5 -53zM1067 512q0 -36 -6 -96h-682q15 -84 79.5 -129t159.5 -45q140 3 234 108l184 -188q-145 -180 -450 -180q-229 0 -377 144.5t-148 375.5q0 227 145 372.5
t372 145.5q213 0 351 -143t138 -365zM573 766q-74 0 -125.5 -42.5t-66.5 -117.5h375q-15 74 -63.5 117t-119.5 43z" />
    <glyph glyph-name="Eogonek" unicode="&#x118;" horiz-adv-x="1198" 
d="M465 305h657v-305h-6q-85 -4 -138.5 -46.5t-53.5 -94.5q0 -38 21.5 -59t58.5 -21q25 0 75 10l15 -158q-59 -22 -156 -22q-113 0 -179.5 53t-66.5 139q0 51 29.5 105.5t87.5 93.5h-678v1454h948v-305h-614v-279h485v-295h-485v-270z" />
    <glyph glyph-name="eogonek" unicode="&#x119;" horiz-adv-x="1126" 
d="M1067 512q0 -36 -6 -96h-682q15 -84 79.5 -129t159.5 -45q140 3 234 108l184 -188q-104 -129 -295 -166q-133 -56 -133 -133q0 -36 21 -57t57 -21q22 0 35 1.5t25.5 4.5t17.5 4l12 -160q-57 -24 -153 -24q-118 0 -185 53.5t-67 140.5q0 46 23.5 95t70.5 88v6
q-182 36 -293 172.5t-111 335.5q0 227 145 372.5t372 145.5q213 0 351 -143t138 -365zM573 766q-74 0 -125.5 -42.5t-66.5 -117.5h375q-15 74 -63.5 117t-119.5 43z" />
    <glyph glyph-name="Ecaron" unicode="&#x11a;" horiz-adv-x="1198" 
d="M442 1556l-200 287h278l92 -133h4l93 133h272l-195 -287h-344zM131 0v1454h948v-305h-614v-279h485v-295h-485v-270h657v-305h-991z" />
    <glyph glyph-name="ecaron" unicode="&#x11b;" horiz-adv-x="1126" 
d="M754 1120h-346l-199 305h280l91 -147h4l90 147h272zM1067 512q0 -36 -6 -96h-682q15 -84 79.5 -129t159.5 -45q140 3 234 108l184 -188q-145 -180 -450 -180q-229 0 -377 144.5t-148 375.5q0 227 145 372.5t372 145.5q213 0 351 -143t138 -365zM573 766
q-74 0 -125.5 -42.5t-66.5 -117.5h375q-15 74 -63.5 117t-119.5 43z" />
    <glyph glyph-name="Gcircumflex" unicode="&#x11c;" horiz-adv-x="1509" 
d="M424 1556l194 287h345l200 -287h-278l-92 134h-5l-92 -134h-272zM829 -16q-158 0 -294.5 50t-238.5 142.5t-160 234t-58 314.5q0 158 50.5 295t143 238t232.5 159t311 58q163 0 322 -68t268 -193l-242 -204q-147 143 -348 143q-161 0 -270 -116t-109 -312
q0 -119 45.5 -215.5t136.5 -154.5t211 -58q134 0 252 63v172h-282v283h610v-653q-103 -79 -259.5 -128.5t-320.5 -49.5z" />
    <glyph glyph-name="gcircumflex" unicode="&#x11d;" horiz-adv-x="1216" 
d="M238 1122l194 305h344l199 -305h-279l-90 148h-4l-92 -148h-272zM573 -424q-237 0 -411 96l71 260q151 -88 306 -88q125 0 193.5 54.5t68.5 136.5v92l-4 2q-108 -111 -277 -111q-202 0 -332.5 140t-130.5 354q0 221 127.5 364.5t317.5 143.5q172 0 286 -117h5v98h321
v-870q0 -127 -28 -225t-89.5 -174t-168.5 -116t-255 -40zM596 303q91 0 151 61t60 156q0 94 -60.5 154.5t-150.5 60.5q-93 0 -153 -60.5t-60 -156.5t60.5 -155.5t152.5 -59.5z" />
    <glyph glyph-name="Gbreve" unicode="&#x11e;" horiz-adv-x="1509" 
d="M793 1542q-155 0 -247.5 77.5t-105.5 223.5h234q5 -41 37 -67.5t82 -26.5q51 0 84 27t36 67h234q-13 -139 -101 -220t-253 -81zM829 -16q-158 0 -294.5 50t-238.5 142.5t-160 234t-58 314.5q0 158 50.5 295t143 238t232.5 159t311 58q163 0 322 -68t268 -193l-242 -204
q-147 143 -348 143q-161 0 -270 -116t-109 -312q0 -119 45.5 -215.5t136.5 -154.5t211 -58q134 0 252 63v172h-282v283h610v-653q-103 -79 -259.5 -128.5t-320.5 -49.5z" />
    <glyph glyph-name="gbreve" unicode="&#x11f;" horiz-adv-x="1216" 
d="M604 1104q-146 0 -243 85.5t-109 235.5h233q5 -43 37 -71.5t82 -28.5q51 0 84.5 29.5t36.5 70.5h233q-11 -143 -104 -232t-250 -89zM573 -424q-237 0 -411 96l71 260q151 -88 306 -88q125 0 193.5 54.5t68.5 136.5v92l-4 2q-108 -111 -277 -111q-202 0 -332.5 140
t-130.5 354q0 221 127.5 364.5t317.5 143.5q172 0 286 -117h5v98h321v-870q0 -127 -28 -225t-89.5 -174t-168.5 -116t-255 -40zM596 303q91 0 151 61t60 156q0 94 -60.5 154.5t-150.5 60.5q-93 0 -153 -60.5t-60 -156.5t60.5 -155.5t152.5 -59.5z" />
    <glyph glyph-name="Gdotaccent" unicode="&#x120;" horiz-adv-x="1509" 
d="M795 1544q-83 0 -137 53t-54 132q0 75 54.5 127.5t136.5 52.5q83 0 137.5 -52t54.5 -128q0 -79 -54.5 -132t-137.5 -53zM829 -16q-158 0 -294.5 50t-238.5 142.5t-160 234t-58 314.5q0 158 50.5 295t143 238t232.5 159t311 58q163 0 322 -68t268 -193l-242 -204
q-147 143 -348 143q-161 0 -270 -116t-109 -312q0 -119 45.5 -215.5t136.5 -154.5t211 -58q134 0 252 63v172h-282v283h610v-653q-103 -79 -259.5 -128.5t-320.5 -49.5z" />
    <glyph glyph-name="gdotaccent" unicode="&#x121;" horiz-adv-x="1216" 
d="M606 1126q-83 0 -136.5 53t-53.5 132q0 75 54 127.5t136 52.5q83 0 138 -52t55 -128q0 -78 -55 -131.5t-138 -53.5zM573 -424q-237 0 -411 96l71 260q151 -88 306 -88q125 0 193.5 54.5t68.5 136.5v92l-4 2q-108 -111 -277 -111q-202 0 -332.5 140t-130.5 354
q0 221 127.5 364.5t317.5 143.5q172 0 286 -117h5v98h321v-870q0 -127 -28 -225t-89.5 -174t-168.5 -116t-255 -40zM596 303q91 0 151 61t60 156q0 94 -60.5 154.5t-150.5 60.5q-93 0 -153 -60.5t-60 -156.5t60.5 -155.5t152.5 -59.5z" />
    <glyph glyph-name="Gcommaaccent" unicode="&#x122;" horiz-adv-x="1509" 
d="M829 -16q-158 0 -294.5 50t-238.5 142.5t-160 234t-58 314.5q0 158 50.5 295t143 238t232.5 159t311 58q163 0 322 -68t268 -193l-242 -204q-147 143 -348 143q-161 0 -270 -116t-109 -312q0 -119 45.5 -215.5t136.5 -154.5t211 -58q134 0 252 63v172h-282v283h610v-653
q-103 -79 -259.5 -128.5t-320.5 -49.5zM618 -453l-57 174q59 12 85 34t26 63q0 26 -15 73h263q10 -48 10 -86q0 -124 -80.5 -189.5t-231.5 -68.5z" />
    <glyph glyph-name="gcommaaccent" unicode="&#x123;" horiz-adv-x="1216" 
d="M780 1503l58 -174q-60 -12 -85.5 -33.5t-25.5 -62.5q0 -31 14 -74h-262q-10 48 -10 86q0 124 80.5 189.5t230.5 68.5zM573 -424q-237 0 -411 96l71 260q151 -88 306 -88q125 0 193.5 54.5t68.5 136.5v92l-4 2q-108 -111 -277 -111q-202 0 -332.5 140t-130.5 354
q0 221 127.5 364.5t317.5 143.5q172 0 286 -117h5v98h321v-870q0 -127 -28 -225t-89.5 -174t-168.5 -116t-255 -40zM596 303q91 0 151 61t60 156q0 94 -60.5 154.5t-150.5 60.5q-93 0 -153 -60.5t-60 -156.5t60.5 -155.5t152.5 -59.5z" />
    <glyph glyph-name="Hcircumflex" unicode="&#x124;" horiz-adv-x="1464" 
d="M369 1559l194 286h344l201 -286h-279l-92 133h-4l-92 -133h-272zM131 0v1454h346v-602h512v602h344v-1454h-344v549h-512v-549h-346z" />
    <glyph glyph-name="hcircumflex" unicode="&#x125;" horiz-adv-x="1202" 
d="M162 1583l194 287h344l201 -287h-278l-93 133h-4l-92 -133h-272zM111 0v1507h319v-618l4 -2q118 133 309 133q361 0 361 -416v-604h-320v524q0 118 -40 164.5t-128 46.5q-87 0 -136.5 -57.5t-49.5 -171.5v-506h-319z" />
    <glyph glyph-name="Hbar" unicode="&#x126;" horiz-adv-x="1503" 
d="M1458 1264v-222h-106v-1042h-344v549h-512v-549h-346v1042h-99v222h99v190h346v-190h512v190h344v-190h106zM1008 852v190h-512v-190h512z" />
    <glyph glyph-name="hbar" unicode="&#x127;" horiz-adv-x="1202" 
d="M743 1020q361 0 361 -416v-604h-320v524q0 118 -40 164.5t-128 46.5q-87 0 -136.5 -57.5t-49.5 -171.5v-506h-319v1116h-111v191h111v200h319v-200h340v-191h-340v-227l4 -2q118 133 309 133z" />
    <glyph glyph-name="Itilde" unicode="&#x128;" horiz-adv-x="630" 
d="M489 1556q-34 0 -69.5 10t-52.5 18t-54 28q-77 41 -112 41q-66 0 -111 -94l-184 71q35 103 102 169.5t158 66.5q101 0 184 -56q63 -36 105 -36q63 0 108 94l185 -60q-36 -113 -103 -182.5t-156 -69.5zM139 0v1454h350v-1454h-350z" />
    <glyph glyph-name="itilde" unicode="&#x129;" horiz-adv-x="561" 
d="M74 1110l-187 78q38 102 101 166.5t153 64.5q45 0 80 -13t82 -40q64 -37 90 -37q57 0 105 94l182 -59q-35 -106 -99.5 -178t-152.5 -72q-64 0 -149 51q-37 23 -60 32.5t-47 8.5q-56 0 -98 -96zM121 0v1001h319v-1001h-319z" />
    <glyph glyph-name="Imacron" unicode="&#x12a;" horiz-adv-x="630" 
d="M-6 1589v234h641v-234h-641zM139 0v1454h350v-1454h-350z" />
    <glyph glyph-name="imacron" unicode="&#x12b;" horiz-adv-x="561" 
d="M-41 1174v245h641v-245h-641zM121 0v1001h319v-1001h-319z" />
    <glyph glyph-name="Ibreve" unicode="&#x12c;" horiz-adv-x="630" 
d="M313 1542q-155 0 -247 77.5t-105 223.5h234q5 -41 36.5 -67.5t81.5 -26.5q51 0 84.5 27.5t36.5 66.5h234q-13 -139 -101.5 -220t-253.5 -81zM139 0v1454h350v-1454h-350z" />
    <glyph glyph-name="ibreve" unicode="&#x12d;" horiz-adv-x="561" 
d="M281 1126q-127 0 -212.5 84.5t-97.5 235.5h226q11 -117 84 -117q36 0 57 30t24 87h230q-13 -142 -92 -231t-219 -89zM121 0v1001h319v-1001h-319z" />
    <glyph glyph-name="Iogonek" unicode="&#x12e;" horiz-adv-x="630" 
d="M139 1454h350v-1454h-40q-86 -4 -139.5 -46.5t-53.5 -94.5q0 -38 21.5 -59t58.5 -21q26 0 76 10l14 -158q-59 -22 -156 -22q-113 0 -179 53t-66 139q0 52 29 106t87 93h-2v1454z" />
    <glyph glyph-name="iogonek" unicode="&#x12f;" horiz-adv-x="561" 
d="M281 1126q-83 0 -137 53t-54 132q0 75 54.5 127.5t136.5 52.5q83 0 137.5 -52t54.5 -128q0 -79 -54.5 -132t-137.5 -53zM121 4v997h319v-1001h-16q-86 -4 -139.5 -46.5t-53.5 -94.5q0 -38 21.5 -59t58.5 -21q26 0 76 10l14 -158q-59 -22 -155 -22q-113 0 -179.5 53
t-66.5 139q0 53 30.5 107.5t90.5 95.5z" />
    <glyph glyph-name="Idotaccent" unicode="&#x130;" horiz-adv-x="630" 
d="M315 1544q-83 0 -136.5 53t-53.5 132q0 75 54 127.5t136 52.5q83 0 138 -52t55 -128q0 -78 -55 -131.5t-138 -53.5zM139 0v1454h350v-1454h-350z" />
    <glyph glyph-name="dotlessi" unicode="&#x131;" horiz-adv-x="561" 
d="M121 0v1001h319v-1001h-319z" />
    <glyph glyph-name="IJ" unicode="&#x132;" horiz-adv-x="1658" 
d="M139 0v1454h350v-1454h-350zM1077 -18q-267 0 -420 194l199 236q85 -111 193 -111q143 0 143 209v944h348v-938q0 -534 -463 -534z" />
    <glyph glyph-name="ij" unicode="&#x133;" horiz-adv-x="1095" 
d="M281 1126q-83 0 -137 53t-54 132q0 75 54.5 127.5t136.5 52.5q83 0 137.5 -52t54.5 -128q0 -79 -54.5 -132t-137.5 -53zM831 1126q-83 0 -136.5 53t-53.5 132q0 75 54 127.5t136 52.5q83 0 138 -52t55 -128q0 -78 -55 -131.5t-138 -53.5zM121 0v1001h319v-1001h-319z
M674 -424q-123 0 -228 37l52 254q46 -19 92 -19q45 0 62.5 31t17.5 98v1024h319v-1050q0 -186 -81.5 -280.5t-233.5 -94.5z" />
    <glyph glyph-name="Jcircumflex" unicode="&#x134;" horiz-adv-x="1028" 
d="M369 1559l194 286h344l201 -286h-279l-92 133h-4l-92 -133h-272zM446 -18q-266 0 -419 194l198 236q85 -111 193 -111q143 0 143 209v944h348v-938q0 -534 -463 -534z" />
    <glyph glyph-name="jcircumflex" unicode="&#x135;" horiz-adv-x="534" 
d="M-98 1122l194 305h344l199 -305h-279l-90 148h-4l-92 -148h-272zM113 -424q-123 0 -228 37l52 254q46 -19 92 -19q45 0 62.5 31t17.5 98v1024h319v-1050q0 -186 -81.5 -280.5t-233.5 -94.5z" />
    <glyph glyph-name="Kcommaaccent" unicode="&#x136;" horiz-adv-x="1355" 
d="M131 0v1454h342v-557h4l422 557h432l-524 -631l543 -823h-420l-348 553l-109 -133v-420h-342zM518 -453l-57 174q59 12 84.5 34t25.5 63q0 30 -14 73h262q10 -48 10 -86q0 -124 -80.5 -189.5t-230.5 -68.5z" />
    <glyph glyph-name="kcommaaccent" unicode="&#x137;" horiz-adv-x="1101" 
d="M111 0v1507h315v-866h4l293 360h371l-338 -399l348 -602h-354l-224 393l-100 -110v-283h-315zM393 -453l-57 174q59 12 84.5 34t25.5 63q0 30 -14 73h262q11 -53 11 -86q0 -124 -80.5 -189.5t-231.5 -68.5z" />
    <glyph glyph-name="kgreenlandic" unicode="&#x138;" horiz-adv-x="1124" 
d="M111 0v1001h315v-368h4l305 368h375l-358 -407l374 -594h-362l-240 389l-98 -106v-283h-315z" />
    <glyph glyph-name="Lacute" unicode="&#x139;" horiz-adv-x="1132" 
d="M354 1559l221 286h326l-258 -286h-289zM131 0v1454h350v-1149h604v-305h-954z" />
    <glyph glyph-name="lacute" unicode="&#x13a;" horiz-adv-x="561" 
d="M129 1585l221 287h326l-258 -287h-289zM121 0v1507h319v-1507h-319z" />
    <glyph glyph-name="Lcommaaccent" unicode="&#x13b;" horiz-adv-x="1132" 
d="M131 0v1454h350v-1149h604v-305h-954zM440 -453l-57 174q59 12 85 34t26 63q0 26 -15 73h262q11 -53 11 -86q0 -124 -80.5 -189.5t-231.5 -68.5z" />
    <glyph glyph-name="lcommaaccent" unicode="&#x13c;" horiz-adv-x="561" 
d="M121 0v1507h319v-1507h-319zM109 -453l-58 174q59 12 85 34t26 63q0 26 -15 73h263q10 -48 10 -86q0 -124 -80.5 -189.5t-230.5 -68.5z" />
    <glyph glyph-name="Lcaron" unicode="&#x13d;" horiz-adv-x="1159" 
d="M688 1178l66 444h303l-146 -444h-223zM131 0v1454h350v-1149h604v-305h-954z" />
    <glyph glyph-name="lcaron" unicode="&#x13e;" horiz-adv-x="688" 
d="M547 1182l65 444h303l-145 -444h-223zM121 0v1507h319v-1507h-319z" />
    <glyph glyph-name="Ldot" unicode="&#x13f;" horiz-adv-x="1132" 
d="M131 0v1454h350v-1149h604v-305h-954zM879 518q-77 0 -131 52.5t-54 127.5t54.5 129t130.5 54q75 0 129.5 -54t54.5 -129t-54.5 -127.5t-129.5 -52.5z" />
    <glyph glyph-name="ldot" unicode="&#x140;" horiz-adv-x="989" 
d="M121 0v1507h319v-1507h-319zM774 365q-77 0 -130.5 52.5t-53.5 127.5t54 128.5t130 53.5q75 0 129.5 -53.5t54.5 -128.5t-54.5 -127.5t-129.5 -52.5z" />
    <glyph glyph-name="Lslash" unicode="&#x141;" horiz-adv-x="1155" 
d="M504 305h604v-305h-954v524l-134 -57v248l134 57v682h350v-530l219 94v-250l-219 -94v-369z" />
    <glyph glyph-name="lslash" unicode="&#x142;" horiz-adv-x="659" 
d="M633 911v-217l-139 -61v-633h-320v494l-145 -64v215l145 64v798h320v-657z" />
    <glyph glyph-name="Nacute" unicode="&#x143;" horiz-adv-x="1513" 
d="M528 1559l222 286h325l-258 -286h-289zM131 0v1454h330l579 -897l4 2v895h338v-1454h-340l-569 872h-4v-872h-338z" />
    <glyph glyph-name="nacute" unicode="&#x144;" horiz-adv-x="1191" 
d="M420 1124l227 306l324 2l-254 -308h-297zM111 0v1001h319v-116h4q117 135 301 135q359 0 359 -420v-600h-320v522q0 119 -39 166t-121 47q-86 0 -135 -58.5t-49 -172.5v-504h-319z" />
    <glyph glyph-name="Ncommaaccent" unicode="&#x145;" horiz-adv-x="1513" 
d="M131 0v1454h330l579 -897l4 2v895h338v-1454h-340l-569 872h-4v-872h-338zM584 -453l-58 174q59 12 85 34t26 63q0 30 -14 73h262q10 -48 10 -86q0 -124 -80.5 -189.5t-230.5 -68.5z" />
    <glyph glyph-name="ncommaaccent" unicode="&#x146;" horiz-adv-x="1191" 
d="M111 0v1001h319v-116h4q117 135 301 135q359 0 359 -420v-600h-320v522q0 119 -39 166t-121 47q-86 0 -135 -58.5t-49 -172.5v-504h-319zM449 -453l-58 174q59 12 85 34t26 63q0 26 -15 73h263q10 -48 10 -86q0 -124 -80.5 -189.5t-230.5 -68.5z" />
    <glyph glyph-name="Ncaron" unicode="&#x147;" horiz-adv-x="1513" 
d="M592 1559l-201 286h279l92 -133h4l92 133h272l-194 -286h-344zM131 0v1454h330l579 -897l4 2v895h338v-1454h-340l-569 872h-4v-872h-338z" />
    <glyph glyph-name="ncaron" unicode="&#x148;" horiz-adv-x="1191" 
d="M444 1120l-198 305h280l90 -147h5l90 147h272l-192 -305h-347zM111 0v1001h319v-116h4q117 135 301 135q359 0 359 -420v-600h-320v522q0 119 -39 166t-121 47q-86 0 -135 -58.5t-49 -172.5v-504h-319z" />
    <glyph glyph-name="napostrophe" unicode="&#x149;" horiz-adv-x="1454" 
d="M-55 989l67 465h301l-145 -465h-223zM373 0v1001h319v-116h4q117 135 301 135q359 0 359 -420v-600h-320v522q0 120 -38.5 166.5t-120.5 46.5q-86 0 -135.5 -58.5t-49.5 -172.5v-504h-319z" />
    <glyph glyph-name="Eng" unicode="&#x14a;" horiz-adv-x="1513" 
d="M1044 1454h338v-1456q0 -113 -31.5 -196.5t-90.5 -132t-134 -71t-170 -22.5q-86 0 -202 25l24 258q52 -15 103 -15q161 0 161 150v8l-569 870h-4v-872h-338v1454h328l581 -897h4v897z" />
    <glyph glyph-name="eng" unicode="&#x14b;" horiz-adv-x="1183" 
d="M702 -424q-93 0 -174 31l25 233q49 -14 86 -14q68 0 97.5 38.5t29.5 121.5v536q0 120 -38.5 166.5t-121.5 46.5q-82 0 -129 -58.5t-47 -172.5v-504h-319v1001h319v-116h4q111 135 293 135q360 0 360 -420v-606q0 -218 -92 -318t-293 -100z" />
    <glyph glyph-name="Omacron" unicode="&#x14c;" horiz-adv-x="1654" 
d="M508 1591v234h641v-234h-641zM827 -18q-218 0 -389 94.5t-265.5 264t-94.5 386.5q0 162 55.5 301t153 237.5t237.5 154t303 55.5q161 0 299.5 -54.5t237.5 -151.5t155 -237t56 -305q0 -219 -96 -389t-266.5 -263t-385.5 -93zM827 299q168 0 279 123t111 305t-111 305
t-279 123q-170 0 -280.5 -123.5t-110.5 -304.5t110.5 -304.5t280.5 -123.5z" />
    <glyph glyph-name="omacron" unicode="&#x14d;" horiz-adv-x="1206" 
d="M283 1174v245h641v-245h-641zM604 -18q-242 0 -392.5 145t-150.5 373q0 230 150.5 375t392.5 145q237 0 389 -144.5t152 -375.5q0 -229 -152 -373.5t-389 -144.5zM604 264q92 0 154.5 67t62.5 169q0 104 -61.5 169.5t-155.5 65.5q-97 0 -158 -66t-61 -169q0 -100 62 -168
t157 -68z" />
    <glyph glyph-name="Obreve" unicode="&#x14e;" horiz-adv-x="1654" 
d="M827 1544q-155 0 -247 77.5t-105 223.5h234q5 -41 36.5 -67.5t81.5 -26.5q51 0 84.5 27.5t36.5 66.5h234q-13 -139 -101.5 -220t-253.5 -81zM827 -18q-218 0 -389 94.5t-265.5 264t-94.5 386.5q0 162 55.5 301t153 237.5t237.5 154t303 55.5q161 0 299.5 -54.5
t237.5 -151.5t155 -237t56 -305q0 -219 -96 -389t-266.5 -263t-385.5 -93zM827 299q168 0 279 123t111 305t-111 305t-279 123q-170 0 -280.5 -123.5t-110.5 -304.5t110.5 -304.5t280.5 -123.5z" />
    <glyph glyph-name="obreve" unicode="&#x14f;" horiz-adv-x="1206" 
d="M602 1104q-146 0 -243 85.5t-109 235.5h233q5 -43 37 -71.5t82 -28.5q51 0 84.5 29.5t36.5 70.5h233q-11 -143 -104 -232t-250 -89zM604 -18q-242 0 -392.5 145t-150.5 373q0 230 150.5 375t392.5 145q237 0 389 -144.5t152 -375.5q0 -229 -152 -373.5t-389 -144.5z
M604 264q92 0 154.5 67t62.5 169q0 104 -61.5 169.5t-155.5 65.5q-97 0 -158 -66t-61 -169q0 -100 62 -168t157 -68z" />
    <glyph glyph-name="Ohungarumlaut" unicode="&#x150;" horiz-adv-x="1654" 
d="M463 1561l225 305l318 2l-252 -307h-291zM918 1561l225 305l317 2l-252 -307h-290zM827 -18q-218 0 -389 94.5t-265.5 264t-94.5 386.5q0 162 55.5 301t153 237.5t237.5 154t303 55.5q161 0 299.5 -54.5t237.5 -151.5t155 -237t56 -305q0 -219 -96 -389t-266.5 -263
t-385.5 -93zM827 299q168 0 279 123t111 305t-111 305t-279 123q-170 0 -280.5 -123.5t-110.5 -304.5t110.5 -304.5t280.5 -123.5z" />
    <glyph glyph-name="ohungarumlaut" unicode="&#x151;" horiz-adv-x="1206" 
d="M238 1141l225 305l317 2l-252 -307h-290zM692 1141l226 305l317 2l-252 -307h-291zM604 -18q-242 0 -392.5 145t-150.5 373q0 230 150.5 375t392.5 145q237 0 389 -144.5t152 -375.5q0 -229 -152 -373.5t-389 -144.5zM604 264q92 0 154.5 67t62.5 169q0 104 -61.5 169.5
t-155.5 65.5q-97 0 -158 -66t-61 -169q0 -100 62 -168t157 -68z" />
    <glyph glyph-name="OE" unicode="&#x152;" horiz-adv-x="1943" 
d="M1217 305h653v-305h-1045q-218 0 -389 94.5t-264.5 260t-93.5 372.5q0 208 93.5 373.5t264.5 259.5t389 94h1004v-303h-612v-283h489v-290h-489v-273zM825 317h62v820h-62q-167 0 -278 -119t-111 -291q0 -171 111.5 -291t277.5 -119z" />
    <glyph glyph-name="oe" unicode="&#x153;" horiz-adv-x="1669" 
d="M1620 506q0 -52 -10 -90h-625q43 -168 219 -168q114 0 203 108l184 -194q-63 -84 -167.5 -132t-235.5 -48q-224 0 -354 133h-7q-130 -133 -321 -133q-209 0 -332 142t-123 374q0 235 125.5 378.5t339.5 143.5q87 0 169 -34t142 -95h7q60 61 146 95t183 34q207 0 332 -144
t125 -370zM1161 764q-75 0 -119.5 -43t-58.5 -117h328q-11 69 -52 114.5t-98 45.5zM526 264q70 0 113 66t43 170q0 107 -40 171t-112 64q-66 0 -110.5 -65t-44.5 -170t41.5 -170.5t109.5 -65.5z" />
    <glyph glyph-name="Racute" unicode="&#x154;" horiz-adv-x="1329" 
d="M410 1559l221 286h325l-258 -286h-288zM131 0v1454h567q132 0 233 -37t163 -105t93.5 -158.5t31.5 -201.5q0 -158 -70 -269.5t-205 -166.5l346 -516h-401l-299 469h-125v-469h-334zM465 768h172q109 0 168 51t59 142q0 88 -55 140t-166 52h-178v-385z" />
    <glyph glyph-name="racute" unicode="&#x155;" horiz-adv-x="763" 
d="M221 1124l228 306l323 2l-254 -308h-297zM111 0v1001h319v-139h4q55 76 130 117t159 41h12v-346q-62 4 -76 4q-111 0 -170 -62.5t-59 -164.5v-451h-319z" />
    <glyph glyph-name="Rcommaaccent" unicode="&#x156;" horiz-adv-x="1329" 
d="M131 0v1454h567q132 0 233 -37t163 -105t93.5 -158.5t31.5 -201.5q0 -158 -70 -269.5t-205 -166.5l346 -516h-401l-299 469h-125v-469h-334zM465 768h172q109 0 168 51t59 142q0 88 -55 140t-166 52h-178v-385zM500 -453l-58 174q59 12 85 34t26 63q0 30 -14 73h262
q10 -48 10 -86q0 -124 -80.5 -189.5t-230.5 -68.5z" />
    <glyph glyph-name="rcommaaccent" unicode="&#x157;" horiz-adv-x="763" 
d="M111 0v1001h319v-139h4q55 76 130 117t159 41h12v-346q-62 4 -76 4q-111 0 -170 -62.5t-59 -164.5v-451h-319zM100 -453l-57 174q59 12 85 34t26 63q0 26 -15 73h262q11 -53 11 -86q0 -124 -80.5 -189.5t-231.5 -68.5z" />
    <glyph glyph-name="Rcaron" unicode="&#x158;" horiz-adv-x="1329" 
d="M473 1559l-201 286h279l92 -133h4l92 133h273l-195 -286h-344zM131 0v1454h567q132 0 233 -37t163 -105t93.5 -158.5t31.5 -201.5q0 -158 -70 -269.5t-205 -166.5l346 -516h-401l-299 469h-125v-469h-334zM465 768h172q109 0 168 51t59 142q0 88 -55 140t-166 52h-178
v-385z" />
    <glyph glyph-name="rcaron" unicode="&#x159;" horiz-adv-x="763" 
d="M287 1120l-199 305h281l90 -147h4l90 147h272l-192 -305h-346zM111 0v1001h319v-139h4q55 76 130 117t159 41h12v-346q-62 4 -76 4q-111 0 -170 -62.5t-59 -164.5v-451h-319z" />
    <glyph glyph-name="Sacute" unicode="&#x15a;" horiz-adv-x="1167" 
d="M410 1559l221 286h325l-258 -286h-288zM573 -18q-145 0 -283 57.5t-251 173.5l201 244q79 -86 171 -129t173 -43q82 0 123 35t41 88q0 59 -45 93.5t-171 76.5q-54 18 -95 34.5t-89 41t-83 49.5t-70 60.5t-56.5 75.5t-35 92.5t-13.5 112.5q0 181 137 303.5t340 125.5
q276 6 504 -189l-192 -250q-175 137 -297 137q-63 0 -99.5 -30t-36.5 -82q-1 -51 43.5 -86t165.5 -82q185 -71 248 -106q135 -74 179 -184q26 -67 26 -155q0 -99 -32.5 -179.5t-86 -132t-124 -87t-143.5 -50.5t-149 -15z" />
    <glyph glyph-name="sacute" unicode="&#x15b;" horiz-adv-x="901" 
d="M266 1124l228 306l323 2l-254 -308h-297zM440 -18q-240 0 -407 147l149 207q125 -113 262 -113q47 0 72 16t25 44q0 25 -31.5 44t-124.5 48q-69 21 -121 46t-98.5 62.5t-71 92t-24.5 124.5q0 148 106 234t268 86q112 0 201 -30t178 -95l-151 -223q-51 51 -110.5 77.5
t-112.5 26.5q-32 0 -56 -14t-24 -41q0 -23 30.5 -42t106.5 -46q76 -26 121.5 -45t93 -47t72 -59t40 -76t15.5 -103q0 -145 -104.5 -233t-303.5 -88z" />
    <glyph glyph-name="Scircumflex" unicode="&#x15c;" horiz-adv-x="1167" 
d="M213 1559l195 286h344l200 -286h-278l-92 133h-4l-93 -133h-272zM573 -18q-145 0 -283 57.5t-251 173.5l201 244q79 -86 171 -129t173 -43q82 0 123 35t41 88q0 59 -45 93.5t-171 76.5q-54 18 -95 34.5t-89 41t-83 49.5t-70 60.5t-56.5 75.5t-35 92.5t-13.5 112.5
q0 181 137 303.5t340 125.5q276 6 504 -189l-192 -250q-175 137 -297 137q-63 0 -99.5 -30t-36.5 -82q-1 -51 43.5 -86t165.5 -82q185 -71 248 -106q135 -74 179 -184q26 -67 26 -155q0 -99 -32.5 -179.5t-86 -132t-124 -87t-143.5 -50.5t-149 -15z" />
    <glyph glyph-name="scircumflex" unicode="&#x15d;" horiz-adv-x="901" 
d="M90 1122l195 305h344l198 -305h-278l-90 148h-4l-93 -148h-272zM440 -18q-240 0 -407 147l149 207q125 -113 262 -113q47 0 72 16t25 44q0 25 -31.5 44t-124.5 48q-69 21 -121 46t-98.5 62.5t-71 92t-24.5 124.5q0 148 106 234t268 86q112 0 201 -30t178 -95l-151 -223
q-51 51 -110.5 77.5t-112.5 26.5q-32 0 -56 -14t-24 -41q0 -23 30.5 -42t106.5 -46q76 -26 121.5 -45t93 -47t72 -59t40 -76t15.5 -103q0 -145 -104.5 -233t-303.5 -88z" />
    <glyph glyph-name="Scedilla" unicode="&#x15e;" horiz-adv-x="1167" 
d="M1108 446q0 -94 -29.5 -172t-78.5 -129.5t-114.5 -87.5t-134 -53.5t-141.5 -21.5l-24 -41l2 -4q213 -6 213 -164q0 -76 -72.5 -122t-212.5 -46q-71 0 -133 12v131q47 -14 94 -14q37 0 63.5 13t26.5 42q0 28 -40.5 44.5t-108.5 16.5v78l35 64q-236 40 -414 221l201 244
q79 -86 171 -129t173 -43q82 0 123 35t41 88q0 59 -45 93.5t-171 76.5q-54 18 -95 34.5t-89 41t-83 49.5t-70 60.5t-56.5 75.5t-35 92.5t-13.5 112.5q0 181 137 303.5t340 125.5q276 6 504 -189l-192 -250q-175 137 -297 137q-63 0 -99.5 -30t-36.5 -82q-1 -51 43.5 -86
t165.5 -82q185 -71 248 -106q135 -74 179 -184q26 -67 26 -155z" />
    <glyph glyph-name="scedilla" unicode="&#x15f;" horiz-adv-x="901" 
d="M848 303q0 -137 -93 -223.5t-272 -95.5l-24 -43l2 -4q213 -6 213 -164q0 -76 -72.5 -122t-212.5 -46q-71 0 -133 12v131q47 -14 94 -14q37 0 63.5 13t26.5 42q0 28 -40.5 44.5t-108.5 16.5v78l33 64q-170 28 -291 137l149 207q125 -113 262 -113q47 0 72 16t25 44
q0 25 -31.5 44t-124.5 48q-69 21 -121 46t-98.5 62.5t-71 92t-24.5 124.5q0 148 106 234t268 86q112 0 201 -30t178 -95l-151 -223q-51 51 -110.5 77.5t-112.5 26.5q-32 0 -56 -14t-24 -41q0 -23 30.5 -42t106.5 -46q76 -26 121.5 -45t93 -47t72 -59t40 -76t15.5 -103z" />
    <glyph glyph-name="Scaron" unicode="&#x160;" horiz-adv-x="1167" 
d="M414 1559l-201 286h279l92 -133h4l92 133h272l-194 -286h-344zM573 -18q-145 0 -283 57.5t-251 173.5l201 244q79 -86 171 -129t173 -43q82 0 123 35t41 88q0 59 -45 93.5t-171 76.5q-54 18 -95 34.5t-89 41t-83 49.5t-70 60.5t-56.5 75.5t-35 92.5t-13.5 112.5
q0 181 137 303.5t340 125.5q276 6 504 -189l-192 -250q-175 137 -297 137q-63 0 -99.5 -30t-36.5 -82q-1 -51 43.5 -86t165.5 -82q185 -71 248 -106q135 -74 179 -184q26 -67 26 -155q0 -99 -32.5 -179.5t-86 -132t-124 -87t-143.5 -50.5t-149 -15z" />
    <glyph glyph-name="scaron" unicode="&#x161;" horiz-adv-x="901" 
d="M289 1120l-199 305h281l90 -147h4l90 147h272l-192 -305h-346zM440 -18q-240 0 -407 147l149 207q125 -113 262 -113q47 0 72 16t25 44q0 25 -31.5 44t-124.5 48q-69 21 -121 46t-98.5 62.5t-71 92t-24.5 124.5q0 148 106 234t268 86q112 0 201 -30t178 -95l-151 -223
q-51 51 -110.5 77.5t-112.5 26.5q-32 0 -56 -14t-24 -41q0 -23 30.5 -42t106.5 -46q76 -26 121.5 -45t93 -47t72 -59t40 -76t15.5 -103q0 -145 -104.5 -233t-303.5 -88z" />
    <glyph glyph-name="uni0162" unicode="&#x162;" horiz-adv-x="1200" 
d="M774 0h-143l-35 -59l2 -4q213 -6 213 -164q0 -76 -72.5 -122t-212.5 -46q-71 0 -133 12v131q47 -14 94 -14q37 0 64 13t27 42q0 28 -41 44.5t-109 16.5v78l39 72h-41v1149h-379v305h1108v-305h-381v-1149z" />
    <glyph glyph-name="uni0163" unicode="&#x163;" horiz-adv-x="765" 
d="M430 -63q213 -6 213 -164q0 -76 -72.5 -122t-212.5 -46q-71 0 -133 12v131q47 -14 94 -14q37 0 64 13t27 42q0 28 -41 44.5t-109 16.5v78l43 80q-76 33 -119 111t-43 196v428h-112v258h112v322l322 33v-355h242v-258h-242v-368q0 -55 16.5 -84t59.5 -29q48 0 98 23
l80 -236q-60 -32 -118 -49t-148 -18l-23 -41z" />
    <glyph glyph-name="Tcaron" unicode="&#x164;" horiz-adv-x="1200" 
d="M428 1559l-201 286h279l92 -133h4l92 133h273l-195 -286h-344zM426 0v1149h-379v305h1108v-305h-381v-1149h-348z" />
    <glyph glyph-name="tcaron" unicode="&#x165;" horiz-adv-x="763" 
d="M551 1182l65 444h304l-146 -444h-223zM436 -18q-135 0 -215 84.5t-80 248.5v428h-112v258h112v322l322 33v-355h242v-258h-242v-368q0 -55 16.5 -84t59.5 -29q48 0 98 23l80 -236q-60 -33 -122.5 -50t-158.5 -17z" />
    <glyph glyph-name="Tbar" unicode="&#x166;" horiz-adv-x="1200" 
d="M1155 1149h-381v-371h240v-239h-240v-539h-348v539h-223v239h223v371h-379v305h1108v-305z" />
    <glyph glyph-name="tbar" unicode="&#x167;" horiz-adv-x="765" 
d="M637 285l80 -236q-60 -33 -122.5 -50t-158.5 -17q-135 0 -215 84.5t-80 248.5v119h-92v191h92v118h-112v258h112v322l322 33v-355h242v-258h-242v-118h199v-191h-199v-59q0 -55 16.5 -84t59.5 -29q48 0 98 23z" />
    <glyph glyph-name="Utilde" unicode="&#x168;" horiz-adv-x="1433" 
d="M891 1559q-34 0 -69 9.5t-53 18t-54 27.5q-77 41 -113 41q-65 0 -110 -94l-185 71q35 103 102 169.5t158 66.5q102 0 185 -56q63 -36 104 -36q64 0 109 94l184 -60q-36 -113 -102.5 -182t-155.5 -69zM715 -18q-274 0 -437 163.5t-163 460.5v848h344v-827
q0 -141 67 -233.5t189 -92.5q117 0 189.5 87t72.5 239v827h342v-848q0 -288 -158.5 -456t-445.5 -168z" />
    <glyph glyph-name="utilde" unicode="&#x169;" horiz-adv-x="1167" 
d="M762 1124q-83 0 -180 56q-3 2 -11 6t-11 6t-10.5 5.5t-11.5 5.5t-10.5 5t-11 4.5l-10.5 3.5t-11 3t-11 1.5t-11 0.5q-66 0 -113 -99l-184 78q34 112 102 182t160 70q41 0 77.5 -9t55 -18t47.5 -26q64 -39 103 -39q69 0 113 94l184 -59q-34 -121 -100.5 -196t-155.5 -75z
M455 -18q-361 0 -361 426v593h320v-514q0 -121 35.5 -172t117.5 -51q76 0 126 63t50 179v495h322v-1001h-322v113l-4 2q-109 -133 -284 -133z" />
    <glyph glyph-name="Umacron" unicode="&#x16a;" horiz-adv-x="1433" 
d="M395 1591v234h641v-234h-641zM715 -18q-274 0 -437 163.5t-163 460.5v848h344v-827q0 -141 67 -233.5t189 -92.5q117 0 189.5 87t72.5 239v827h342v-848q0 -288 -158.5 -456t-445.5 -168z" />
    <glyph glyph-name="umacron" unicode="&#x16b;" horiz-adv-x="1167" 
d="M264 1174v245h641v-245h-641zM455 -18q-361 0 -361 426v593h320v-514q0 -121 35.5 -172t117.5 -51q76 0 126 63t50 179v495h322v-1001h-322v113l-4 2q-109 -133 -284 -133z" />
    <glyph glyph-name="Ubreve" unicode="&#x16c;" horiz-adv-x="1433" 
d="M715 1544q-155 0 -247.5 77.5t-105.5 223.5h234q5 -41 37 -67.5t82 -26.5q51 0 84.5 27.5t36.5 66.5h233q-13 -139 -101 -220t-253 -81zM715 -18q-274 0 -437 163.5t-163 460.5v848h344v-827q0 -141 67 -233.5t189 -92.5q117 0 189.5 87t72.5 239v827h342v-848
q0 -288 -158.5 -456t-445.5 -168z" />
    <glyph glyph-name="ubreve" unicode="&#x16d;" horiz-adv-x="1167" 
d="M584 1104q-146 0 -243.5 85.5t-109.5 235.5h234q5 -43 37 -71.5t82 -28.5q51 0 84.5 29.5t36.5 70.5h233q-11 -143 -104 -232t-250 -89zM455 -18q-361 0 -361 426v593h320v-514q0 -121 35.5 -172t117.5 -51q76 0 126 63t50 179v495h322v-1001h-322v113l-4 2
q-109 -133 -284 -133z" />
    <glyph glyph-name="Uring" unicode="&#x16e;" horiz-adv-x="1433" 
d="M717 1526q-94 0 -159.5 61.5t-65.5 155.5q0 91 63 153t162 62q95 0 160 -60.5t65 -154.5q0 -91 -63 -154t-162 -63zM717 1671q30 0 52 22t22 52q0 31 -21.5 52.5t-52.5 21.5q-30 0 -51 -22t-21 -52q0 -31 20.5 -52.5t51.5 -21.5zM715 -18q-274 0 -437 163.5t-163 460.5
v848h344v-827q0 -141 67 -233.5t189 -92.5q117 0 189.5 87t72.5 239v827h342v-848q0 -288 -158.5 -456t-445.5 -168z" />
    <glyph glyph-name="uring" unicode="&#x16f;" horiz-adv-x="1167" 
d="M586 1102q-94 0 -160 61.5t-66 155.5q0 91 63 153t163 62q95 0 160 -60.5t65 -154.5q0 -91 -63 -154t-162 -63zM586 1247q30 0 51.5 22t21.5 52q0 31 -21 52.5t-52 21.5q-30 0 -51 -22t-21 -52q0 -31 20.5 -52.5t51.5 -21.5zM455 -18q-361 0 -361 426v593h320v-514
q0 -121 35.5 -172t117.5 -51q76 0 126 63t50 179v495h322v-1001h-322v113l-4 2q-109 -133 -284 -133z" />
    <glyph glyph-name="Uhungarumlaut" unicode="&#x170;" horiz-adv-x="1433" 
d="M350 1561l225 305l318 2l-252 -307h-291zM805 1561l225 305l318 2l-252 -307h-291zM715 -18q-274 0 -437 163.5t-163 460.5v848h344v-827q0 -141 67 -233.5t189 -92.5q117 0 189.5 87t72.5 239v827h342v-848q0 -288 -158.5 -456t-445.5 -168z" />
    <glyph glyph-name="uhungarumlaut" unicode="&#x171;" horiz-adv-x="1167" 
d="M219 1141l225 305l318 2l-252 -307h-291zM674 1141l225 305l318 2l-252 -307h-291zM455 -18q-361 0 -361 426v593h320v-514q0 -121 35.5 -172t117.5 -51q76 0 126 63t50 179v495h322v-1001h-322v113l-4 2q-109 -133 -284 -133z" />
    <glyph glyph-name="Uogonek" unicode="&#x172;" horiz-adv-x="1433" 
d="M977 1454h342v-848q0 -223 -96.5 -376.5t-276.5 -213.5q-94 -31 -144 -72.5t-50 -88.5q0 -35 21 -53.5t58 -18.5q46 0 76 10l13 -158q-55 -24 -154 -24q-112 0 -179 54t-67 140q0 44 23.5 92.5t68.5 86.5v4q-231 30 -364 190t-133 428v848h344v-827q0 -141 67 -233.5
t189 -92.5q117 0 189.5 87t72.5 239v827z" />
    <glyph glyph-name="uogonek" unicode="&#x173;" horiz-adv-x="1167" 
d="M743 1001h322v-1001h-18q-86 -4 -139.5 -46.5t-53.5 -94.5q0 -38 21.5 -59t58.5 -21q26 0 76 10l14 -158q-59 -22 -156 -22q-113 0 -179 53t-66 139q0 53 30 107.5t90 95.5v109l-4 2q-109 -133 -284 -133q-361 0 -361 426v593h320v-514q0 -121 35.5 -172t117.5 -51
q76 0 126 63t50 179v495z" />
    <glyph glyph-name="Wcircumflex" unicode="&#x174;" horiz-adv-x="2099" 
d="M682 1559l195 286h344l200 -286h-278l-92 133h-4l-93 -133h-272zM487 0l-456 1454h366l244 -893h6l223 893h361l221 -891h6l246 891h364l-456 -1454h-314l-241 954h-4l-252 -954h-314z" />
    <glyph glyph-name="wcircumflex" unicode="&#x175;" horiz-adv-x="1568" 
d="M414 1122l194 305h344l199 -305h-279l-90 148h-4l-92 -148h-272zM360 0l-337 1001h319l164 -542h2l151 542h248l152 -542h4l166 542h317l-340 -1001h-258l-164 582h-2l-159 -582h-263z" />
    <glyph glyph-name="Ycircumflex" unicode="&#x176;" horiz-adv-x="1302" 
d="M283 1559l194 286h344l201 -286h-279l-92 133h-4l-92 -133h-272zM475 0v633l-473 821h391l256 -483h4l252 483h395l-477 -821v-633h-348z" />
    <glyph glyph-name="ycircumflex" unicode="&#x177;" horiz-adv-x="1097" 
d="M184 1122l195 305h344l199 -305h-279l-90 148h-4l-92 -148h-273zM238 -406l172 474l-392 933h342l201 -538h6l193 538h319l-526 -1407h-315z" />
    <glyph glyph-name="Ydieresis" unicode="&#x178;" horiz-adv-x="1302" 
d="M422 1548q-82 0 -136.5 53t-54.5 130q0 74 54.5 126t136.5 52q83 0 137.5 -51t54.5 -127q0 -78 -54.5 -130.5t-137.5 -52.5zM881 1548q-82 0 -136.5 53t-54.5 130q0 74 54.5 126t136.5 52q81 0 135.5 -51.5t54.5 -126.5q0 -78 -54 -130.5t-136 -52.5zM475 0v633l-473 821
h391l256 -483h4l252 483h395l-477 -821v-633h-348z" />
    <glyph glyph-name="Zacute" unicode="&#x179;" horiz-adv-x="1255" 
d="M389 1559l221 286h326l-258 -286h-289zM84 0v266l631 879l-4 4h-605v305h1063v-258l-647 -885l4 -6h645v-305h-1087z" />
    <glyph glyph-name="zacute" unicode="&#x17a;" horiz-adv-x="978" 
d="M305 1124l227 306l324 2l-254 -308h-297zM59 0v213l437 530v7h-398v251h824v-210l-445 -533v-4h428v-254h-846z" />
    <glyph glyph-name="Zdotaccent" unicode="&#x17b;" horiz-adv-x="1255" 
d="M623 1546q-83 0 -137 53t-54 132q0 75 54.5 127.5t136.5 52.5t137 -52t55 -128q0 -79 -54.5 -132t-137.5 -53zM84 0v266l631 879l-4 4h-605v305h1063v-258l-647 -885l4 -6h645v-305h-1087z" />
    <glyph glyph-name="zdotaccent" unicode="&#x17c;" horiz-adv-x="978" 
d="M494 1126q-83 0 -137 53t-54 132q0 75 54.5 127.5t136.5 52.5t137 -52t55 -128q0 -79 -54.5 -132t-137.5 -53zM59 0v213l437 530v7h-398v251h824v-210l-445 -533v-4h428v-254h-846z" />
    <glyph glyph-name="Zcaron" unicode="&#x17d;" horiz-adv-x="1255" 
d="M453 1559l-201 286h278l93 -133h4l92 133h272l-194 -286h-344zM84 0v266l631 879l-4 4h-605v305h1063v-258l-647 -885l4 -6h645v-305h-1087z" />
    <glyph glyph-name="zcaron" unicode="&#x17e;" horiz-adv-x="978" 
d="M324 1120l-199 305h281l90 -147h4l90 147h272l-192 -305h-346zM59 0v213l437 530v7h-398v251h824v-210l-445 -533v-4h428v-254h-846z" />
    <glyph glyph-name="longs" unicode="&#x17f;" horiz-adv-x="706" 
d="M145 0v743h-96v258h96v158q0 182 87.5 275.5t242.5 93.5q88 0 160 -25.5t110 -52.5l-59 -231q-67 36 -125 36q-94 0 -94 -108v-1147h-322z" />
    <glyph glyph-name="uni018F" unicode="&#x18f;" horiz-adv-x="1566" 
d="M743 1475q355 0 550.5 -202t195.5 -546q0 -182 -54.5 -325t-152 -234t-227.5 -138.5t-285 -47.5q-223 0 -384 90t-241 243t-82 353q0 88 13 151h1057q-21 171 -127.5 255.5t-286.5 84.5q-197 0 -369 -108l-188 252q107 82 262.5 128t318.5 44zM766 279q147 0 241 70
t119 194h-714q12 -114 108 -189t246 -75z" />
    <glyph glyph-name="florin" unicode="&#x192;" horiz-adv-x="1112" 
d="M207 -344q-123 0 -205 28.5t-111 59.5l107 211q95 -25 145 -25q61 0 95.5 38t46.5 128l77 606h-151l37 261h151l27 200q48 365 399 365q119 0 201 -29.5t115 -60.5l-111 -211q-87 24 -143 24q-62 0 -97 -38.5t-47 -129.5l-12 -120h254l-37 -261h-256l-88 -684
q-25 -181 -121.5 -271.5t-275.5 -90.5z" />
    <glyph glyph-name="uni019D" unicode="&#x19d;" horiz-adv-x="1513" 
d="M1044 1454h338v-1454h-340l-569 872h-2v-880q0 -216 -98 -316t-262 -100q-66 0 -185 25l25 258q50 -15 80 -15q54 0 77 32t23 99v1479h330l579 -897l4 2v895z" />
    <glyph glyph-name="Ohorn" unicode="&#x1a0;" horiz-adv-x="1722" 
d="M1466 1585h275v-155q0 -145 -62.5 -233.5t-179.5 -119.5q76 -158 76 -350q0 -219 -96 -389t-266.5 -263t-385.5 -93q-218 0 -389 94.5t-265.5 264t-94.5 386.5q0 162 55.5 301t153 237.5t237.5 154t303 55.5q178 0 326.5 -65t249.5 -183q39 24 51 69t12 127v162zM827 299
q168 0 279 123t111 305t-111 305t-279 123q-170 0 -280.5 -123.5t-110.5 -304.5t110.5 -304.5t280.5 -123.5z" />
    <glyph glyph-name="ohorn" unicode="&#x1a1;" horiz-adv-x="1421" 
d="M1108 1157h274v-156q0 -149 -66.5 -237.5t-189.5 -118.5q19 -71 19 -145q0 -229 -152 -373.5t-389 -144.5q-242 0 -392.5 145t-150.5 373q0 230 150.5 375t392.5 145q145 0 262.5 -56.5t188.5 -158.5q33 24 43 68.5t10 121.5v162zM604 264q92 0 154.5 67t62.5 169
q0 104 -61.5 169.5t-155.5 65.5q-97 0 -158 -66t-61 -169q0 -100 62 -168t157 -68z" />
    <glyph glyph-name="Uhorn" unicode="&#x1af;" horiz-adv-x="1689" 
d="M1448 1585h274v-155q0 -189 -107 -281.5t-296 -89.5v-453q0 -288 -158.5 -456t-445.5 -168q-274 0 -437 163.5t-163 460.5v848h344v-827q0 -141 67 -233.5t189 -92.5q117 0 189.5 87t72.5 239v827h342v-250q43 7 70 23.5t39.5 48t16 63t3.5 84.5v162z" />
    <glyph glyph-name="uhorn" unicode="&#x1b0;" horiz-adv-x="1462" 
d="M1171 1157h275v-156q0 -184 -101 -276t-280 -94v-631h-322v113l-4 2q-109 -133 -284 -133q-361 0 -361 426v593h320v-514q0 -121 35.5 -172t117.5 -51q76 0 126 63t50 179v495h322v-221q36 9 58 27t32 48t13 60t3 80v162z" />
    <glyph glyph-name="uni01CD" unicode="&#x1cd;" horiz-adv-x="1421" 
d="M541 1559l-201 286h278l93 -133h4l92 133h272l-194 -286h-344zM12 0l535 1454h327l533 -1454h-356l-86 262h-508l-86 -262h-359zM549 549h325l-161 491h-4z" />
    <glyph glyph-name="uni01CE" unicode="&#x1ce;" horiz-adv-x="1220" 
d="M436 1120l-198 305h280l90 -147h4l90 147h273l-193 -305h-346zM530 -18q-207 0 -340 144t-133 374q0 228 130.5 374t326.5 146q81 0 153 -32t124 -93l4 2v104h321v-1001h-305v104l-4 2q-97 -124 -277 -124zM598 264q89 0 150 65.5t61 170.5q0 102 -60.5 169.5
t-150.5 67.5q-93 0 -154 -65.5t-61 -171.5q0 -105 59.5 -170.5t155.5 -65.5z" />
    <glyph glyph-name="uni01CF" unicode="&#x1cf;" horiz-adv-x="630" 
d="M145 1556l-200 287h278l92 -133h4l93 133h272l-195 -287h-344zM139 0v1454h350v-1454h-350z" />
    <glyph glyph-name="uni01D0" unicode="&#x1d0;" horiz-adv-x="561" 
d="M111 1120l-199 305h281l90 -147h4l90 147h272l-192 -305h-346zM121 0v1001h319v-1001h-319z" />
    <glyph glyph-name="uni01D1" unicode="&#x1d1;" horiz-adv-x="1654" 
d="M659 1559l-200 286h278l92 -133h5l92 133h272l-194 -286h-345zM827 -18q-218 0 -389 94.5t-265.5 264t-94.5 386.5q0 162 55.5 301t153 237.5t237.5 154t303 55.5q161 0 299.5 -54.5t237.5 -151.5t155 -237t56 -305q0 -219 -96 -389t-266.5 -263t-385.5 -93zM827 299
q168 0 279 123t111 305t-111 305t-279 123q-170 0 -280.5 -123.5t-110.5 -304.5t110.5 -304.5t280.5 -123.5z" />
    <glyph glyph-name="uni01D2" unicode="&#x1d2;" horiz-adv-x="1206" 
d="M434 1120l-198 305h280l90 -147h4l90 147h273l-193 -305h-346zM604 -18q-242 0 -392.5 145t-150.5 373q0 230 150.5 375t392.5 145q237 0 389 -144.5t152 -375.5q0 -229 -152 -373.5t-389 -144.5zM604 264q92 0 154.5 67t62.5 169q0 104 -61.5 169.5t-155.5 65.5
q-97 0 -158 -66t-61 -169q0 -100 62 -168t157 -68z" />
    <glyph glyph-name="uni01D3" unicode="&#x1d3;" horiz-adv-x="1433" 
d="M547 1559l-201 286h279l92 -133h4l92 133h272l-194 -286h-344zM715 -18q-274 0 -437 163.5t-163 460.5v848h344v-827q0 -141 67 -233.5t189 -92.5q117 0 189.5 87t72.5 239v827h342v-848q0 -288 -158.5 -456t-445.5 -168z" />
    <glyph glyph-name="uni01D4" unicode="&#x1d4;" horiz-adv-x="1167" 
d="M416 1120l-199 305h281l90 -147h4l90 147h272l-192 -305h-346zM455 -18q-361 0 -361 426v593h320v-514q0 -121 35.5 -172t117.5 -51q76 0 126 63t50 179v495h322v-1001h-322v113l-4 2q-109 -133 -284 -133z" />
    <glyph glyph-name="uni01D5" unicode="&#x1d5;" horiz-adv-x="1433" 
d="M397 1909v164h641v-164h-641zM508 1546q-69 0 -113.5 43.5t-44.5 108.5q0 61 45 104t113 43q69 0 114.5 -42.5t45.5 -104.5q0 -65 -45.5 -108.5t-114.5 -43.5zM940 1546q-69 0 -113.5 43.5t-44.5 108.5q0 61 45 104t113 43q69 0 114.5 -42.5t45.5 -104.5
q0 -65 -45.5 -108.5t-114.5 -43.5zM715 -18q-274 0 -437 163.5t-163 460.5v848h344v-827q0 -141 67 -233.5t189 -92.5q117 0 189.5 87t72.5 239v827h342v-848q0 -288 -158.5 -456t-445.5 -168z" />
    <glyph glyph-name="uni01D6" unicode="&#x1d6;" horiz-adv-x="1167" 
d="M266 1516v206h641v-206h-641zM385 1114q-74 0 -123 47t-49 117q0 67 49.5 113.5t122.5 46.5t123.5 -46t50.5 -114q0 -70 -50 -117t-124 -47zM799 1114q-73 0 -121.5 46.5t-48.5 117.5q0 67 48.5 113.5t121.5 46.5q75 0 125.5 -46t50.5 -114q0 -70 -50.5 -117t-125.5 -47z
M455 -18q-361 0 -361 426v593h320v-514q0 -121 35.5 -172t117.5 -51q76 0 126 63t50 179v495h322v-1001h-322v113l-4 2q-109 -133 -284 -133z" />
    <glyph glyph-name="uni01D7" unicode="&#x1d7;" horiz-adv-x="1433" 
d="M621 1864l176 268h323l-284 -268h-215zM508 1548q-69 0 -113.5 43.5t-44.5 108.5q0 61 45 104t113 43q69 0 114.5 -42.5t45.5 -104.5q0 -65 -45.5 -108.5t-114.5 -43.5zM940 1548q-69 0 -113.5 43.5t-44.5 108.5q0 61 45 104t113 43q69 0 114.5 -42.5t45.5 -104.5
q0 -65 -45.5 -108.5t-114.5 -43.5zM715 -18q-274 0 -437 163.5t-163 460.5v848h344v-827q0 -141 67 -233.5t189 -92.5q117 0 189.5 87t72.5 239v827h342v-848q0 -288 -158.5 -456t-445.5 -168z" />
    <glyph glyph-name="uni01D8" unicode="&#x1d8;" horiz-adv-x="1167" 
d="M461 1487l227 278l303 2l-293 -280h-237zM377 1120q-74 0 -123 47t-49 117q0 67 49.5 113.5t122.5 46.5t123.5 -46t50.5 -114q0 -70 -50 -117t-124 -47zM791 1120q-73 0 -121.5 46.5t-48.5 117.5q0 67 48.5 113.5t121.5 46.5q75 0 125.5 -46t50.5 -114q0 -70 -50.5 -117
t-125.5 -47zM455 -18q-361 0 -361 426v593h320v-514q0 -121 35.5 -172t117.5 -51q76 0 126 63t50 179v495h322v-1001h-322v113l-4 2q-109 -133 -284 -133z" />
    <glyph glyph-name="uni01D9" unicode="&#x1d9;" horiz-adv-x="1433" 
d="M561 1870l-201 258h279l92 -121h4l92 121h273l-195 -258h-344zM508 1548q-69 0 -113.5 43.5t-44.5 108.5q0 61 45 104t113 43q69 0 114.5 -42.5t45.5 -104.5q0 -65 -45.5 -108.5t-114.5 -43.5zM940 1548q-69 0 -113.5 43.5t-44.5 108.5q0 61 45 104t113 43
q69 0 114.5 -42.5t45.5 -104.5q0 -65 -45.5 -108.5t-114.5 -43.5zM715 -18q-274 0 -437 163.5t-163 460.5v848h344v-827q0 -141 67 -233.5t189 -92.5q117 0 189.5 87t72.5 239v827h342v-848q0 -288 -158.5 -456t-445.5 -168z" />
    <glyph glyph-name="uni01DA" unicode="&#x1da;" horiz-adv-x="1167" 
d="M414 1487l-199 285h281l90 -138h4l90 138h272l-192 -285h-346zM377 1120q-74 0 -123 47t-49 117q0 67 49.5 113.5t122.5 46.5t123.5 -46t50.5 -114q0 -70 -50 -117t-124 -47zM791 1120q-73 0 -121.5 46.5t-48.5 117.5q0 67 48.5 113.5t121.5 46.5q75 0 125.5 -46
t50.5 -114q0 -70 -50.5 -117t-125.5 -47zM455 -18q-361 0 -361 426v593h320v-514q0 -121 35.5 -172t117.5 -51q76 0 126 63t50 179v495h322v-1001h-322v113l-4 2q-109 -133 -284 -133z" />
    <glyph glyph-name="uni01DB" unicode="&#x1db;" horiz-adv-x="1433" 
d="M631 1862l-285 270l324 -2l176 -268h-215zM508 1546q-69 0 -113.5 43.5t-44.5 108.5q0 61 45 104t113 43q69 0 114.5 -42.5t45.5 -104.5q0 -65 -45.5 -108.5t-114.5 -43.5zM940 1546q-69 0 -113.5 43.5t-44.5 108.5q0 61 45 104t113 43q69 0 114.5 -42.5t45.5 -104.5
q0 -65 -45.5 -108.5t-114.5 -43.5zM715 -18q-274 0 -437 163.5t-163 460.5v848h344v-827q0 -141 67 -233.5t189 -92.5q117 0 189.5 87t72.5 239v827h342v-848q0 -288 -158.5 -456t-445.5 -168z" />
    <glyph glyph-name="uni01DC" unicode="&#x1dc;" horiz-adv-x="1167" 
d="M715 1487h-238l-293 280l303 -2zM377 1120q-74 0 -123 47t-49 117q0 67 49.5 113.5t122.5 46.5t123.5 -46t50.5 -114q0 -70 -50 -117t-124 -47zM791 1120q-73 0 -121.5 46.5t-48.5 117.5q0 67 48.5 113.5t121.5 46.5q75 0 125.5 -46t50.5 -114q0 -70 -50.5 -117
t-125.5 -47zM455 -18q-361 0 -361 426v593h320v-514q0 -121 35.5 -172t117.5 -51q76 0 126 63t50 179v495h322v-1001h-322v113l-4 2q-109 -133 -284 -133z" />
    <glyph glyph-name="Gcaron" unicode="&#x1e6;" horiz-adv-x="1509" 
d="M625 1556l-201 287h278l93 -133h4l92 133h272l-194 -287h-344zM829 -16q-158 0 -294.5 50t-238.5 142.5t-160 234t-58 314.5q0 158 50.5 295t143 238t232.5 159t311 58q163 0 322 -68t268 -193l-242 -204q-147 143 -348 143q-161 0 -270 -116t-109 -312
q0 -119 45.5 -215.5t136.5 -154.5t211 -58q134 0 252 63v172h-282v283h610v-653q-103 -79 -259.5 -128.5t-320.5 -49.5z" />
    <glyph glyph-name="gcaron" unicode="&#x1e7;" horiz-adv-x="1216" 
d="M436 1120l-198 305h280l90 -147h4l90 147h273l-193 -305h-346zM573 -424q-237 0 -411 96l71 260q151 -88 306 -88q125 0 193.5 54.5t68.5 136.5v92l-4 2q-108 -111 -277 -111q-202 0 -332.5 140t-130.5 354q0 221 127.5 364.5t317.5 143.5q172 0 286 -117h5v98h321v-870
q0 -127 -28 -225t-89.5 -174t-168.5 -116t-255 -40zM596 303q91 0 151 61t60 156q0 94 -60.5 154.5t-150.5 60.5q-93 0 -153 -60.5t-60 -156.5t60.5 -155.5t152.5 -59.5z" />
    <glyph glyph-name="uni01EA" unicode="&#x1ea;" horiz-adv-x="1654" 
d="M1575 727q0 -281 -155.5 -476.5t-411.5 -250.5h2h-2q-49 -8 -64 -10q-59 -18 -93 -54t-34 -77q0 -38 21.5 -59t58.5 -21q26 0 76 10l14 -158q-59 -22 -156 -22q-113 0 -179 53t-66 139q0 48 25.5 99t76.5 90l-2 2q-275 44 -441.5 244t-166.5 491q0 162 55.5 301
t153 237.5t237.5 154t303 55.5q161 0 299.5 -54.5t237.5 -151.5t155 -237t56 -305zM827 299q168 0 279 123t111 305t-111 305t-279 123q-170 0 -280.5 -123.5t-110.5 -304.5t110.5 -304.5t280.5 -123.5z" />
    <glyph glyph-name="uni01EB" unicode="&#x1eb;" horiz-adv-x="1206" 
d="M676 -14q-53 -18 -84 -53.5t-31 -73.5t21.5 -59t58.5 -21q26 0 76 10l14 -158q-59 -22 -156 -22q-113 0 -179 53t-66 139q0 51 27.5 103.5t82.5 91.5l-2 6q-173 44 -275 178.5t-102 319.5q0 230 150.5 375t392.5 145q237 0 389 -144.5t152 -375.5q0 -211 -130 -351.5
t-339 -162.5zM604 735q-97 0 -158 -66t-61 -169q0 -100 62 -168t157 -68q92 0 154.5 67t62.5 169q0 104 -61.5 169.5t-155.5 65.5z" />
    <glyph glyph-name="Aringacute" unicode="&#x1fa;" horiz-adv-x="1421" 
d="M711 1526q-94 0 -160 61.5t-66 155.5q0 91 63 153t163 62q84 0 143 -47l129 102l326 2l-375 -305q-12 -80 -72.5 -132t-150.5 -52zM711 1819q-30 0 -51 -22t-21 -52q0 -31 20.5 -52.5t51.5 -21.5q30 0 51.5 22t21.5 52q0 31 -21 52.5t-52 21.5zM874 1454l533 -1454h-356
l-86 262h-508l-86 -262h-359l535 1454h327zM549 549h325l-161 491h-4z" />
    <glyph glyph-name="aringacute" unicode="&#x1fb;" horiz-adv-x="1220" 
d="M606 1102q-94 0 -159.5 61.5t-65.5 155.5q0 91 63 153t162 62q90 0 152 -53l131 104h323l-385 -313q-15 -74 -75 -122t-146 -48zM606 1395q-30 0 -50.5 -22t-20.5 -52q0 -31 20.5 -52.5t50.5 -21.5t52 22t22 52q0 31 -21.5 52.5t-52.5 21.5zM795 897v104h321v-1001h-305
v104l-4 2q-97 -124 -277 -124q-207 0 -340 144t-133 374q0 228 130.5 374t326.5 146q81 0 153 -32t124 -93zM598 264q89 0 150 65.5t61 170.5q0 102 -60.5 169.5t-150.5 67.5q-93 0 -154 -65.5t-61 -171.5q0 -105 59.5 -170.5t155.5 -65.5z" />
    <glyph glyph-name="AEacute" unicode="&#x1fc;" horiz-adv-x="1925" 
d="M774 1559l221 286h326l-258 -286h-289zM4 0l660 1454h1157v-305h-621v-279h502v-297h-502v-268h664v-305h-994v262h-391l-114 -262h-361zM598 537h285v639h-4z" />
    <glyph glyph-name="aeacute" unicode="&#x1fd;" horiz-adv-x="1617" 
d="M1165 1432l-254 -308h-297l228 306zM1569 506q0 -44 -8 -90h-646q21 -81 79 -125.5t153 -44.5q62 0 111 26.5t96 81.5l186 -194q-65 -82 -171 -130t-239 -48q-228 0 -350 131h-4q-59 -59 -154.5 -95t-201.5 -36q-187 0 -281 85t-94 224q0 147 100.5 229t309.5 82l151 2v8
q0 83 -32.5 116.5t-102.5 33.5q-119 0 -252 -68l-113 232q66 36 173.5 65t222.5 29q194 0 284 -119h7q125 119 315 119q202 0 331.5 -145.5t129.5 -368.5zM1094 764q-69 0 -116.5 -42t-64.5 -118h347q-15 75 -58.5 117.5t-107.5 42.5zM459 215q66 0 106.5 38.5t40.5 86.5v82
l-117 -2q-141 -3 -141 -107q0 -44 29 -71t82 -27z" />
    <glyph glyph-name="Oslashacute" unicode="&#x1fe;" horiz-adv-x="1654" 
d="M1223 1843l-258 -287h-289l221 287h326zM1415 1212q160 -203 160 -485q0 -219 -96 -389t-266.5 -263t-385.5 -93q-243 0 -426 116l-159 -174l-142 131l154 168q-176 201 -176 504q0 162 55.5 301t153 237.5t237.5 154t303 55.5q257 0 449 -134l158 175l139 -130zM436 727
q0 -130 62 -238l544 598q-93 68 -215 68q-170 0 -280.5 -123.5t-110.5 -304.5zM827 299q168 0 279 123t111 305q0 113 -50 215l-536 -590q86 -53 196 -53z" />
    <glyph glyph-name="oslashacute" unicode="&#x1ff;" horiz-adv-x="1206" 
d="M1008 1432l-254 -308h-297l227 306zM1028 840q117 -139 117 -340q0 -229 -152 -373.5t-389 -144.5q-173 0 -299 75l-106 -114l-119 110l100 109q-119 138 -119 338q0 230 150.5 375t392.5 145q169 0 299 -76l103 111l118 -111zM385 500q0 -54 18 -97l291 314
q-43 18 -90 18q-97 0 -158 -66t-61 -169zM604 264q92 0 154.5 67t62.5 169q0 52 -16 98l-291 -315q43 -19 90 -19z" />
    <glyph glyph-name="Scommaaccent" unicode="&#x218;" horiz-adv-x="1167" 
d="M573 -18q-145 0 -283 57.5t-251 173.5l201 244q79 -86 171 -129t173 -43q82 0 123 35t41 88q0 59 -45 93.5t-171 76.5q-54 18 -95 34.5t-89 41t-83 49.5t-70 60.5t-56.5 75.5t-35 92.5t-13.5 112.5q0 181 137 303.5t340 125.5q276 6 504 -189l-192 -250
q-175 137 -297 137q-63 0 -99.5 -30t-36.5 -82q-1 -51 43.5 -86t165.5 -82q185 -71 248 -106q135 -74 179 -184q26 -67 26 -155q0 -99 -32.5 -179.5t-86 -132t-124 -87t-143.5 -50.5t-149 -15zM412 -453l-58 174q59 12 85 34t26 63q0 30 -14 73h262q10 -48 10 -86
q0 -124 -80.5 -189.5t-230.5 -68.5z" />
    <glyph glyph-name="scommaaccent" unicode="&#x219;" horiz-adv-x="901" 
d="M440 -18q-240 0 -407 147l149 207q125 -113 262 -113q47 0 72 16t25 44q0 25 -31.5 44t-124.5 48q-69 21 -121 46t-98.5 62.5t-71 92t-24.5 124.5q0 148 106 234t268 86q112 0 201 -30t178 -95l-151 -223q-51 51 -110.5 77.5t-112.5 26.5q-32 0 -56 -14t-24 -41
q0 -23 30.5 -42t106.5 -46q76 -26 121.5 -45t93 -47t72 -59t40 -76t15.5 -103q0 -145 -104.5 -233t-303.5 -88zM285 -453l-58 174q59 12 85 34t26 63q0 30 -14 73h262q10 -48 10 -86q0 -124 -80.5 -189.5t-230.5 -68.5z" />
    <glyph glyph-name="uni021A" unicode="&#x21a;" horiz-adv-x="1200" 
d="M426 0v1149h-379v305h1108v-305h-381v-1149h-348zM422 -453l-57 174q59 12 84.5 34t25.5 63q0 30 -14 73h262q10 -48 10 -86q0 -124 -80.5 -189.5t-230.5 -68.5z" />
    <glyph glyph-name="uni021B" unicode="&#x21b;" horiz-adv-x="765" 
d="M436 -18q-135 0 -215 84.5t-80 248.5v428h-112v258h112v322l322 33v-355h242v-258h-242v-368q0 -55 16.5 -84t59.5 -29q48 0 98 23l80 -236q-60 -33 -122.5 -50t-158.5 -17zM254 -453l-57 174q59 12 84.5 34t25.5 63q0 30 -14 73h262q10 -48 10 -86q0 -124 -80.5 -189.5
t-230.5 -68.5z" />
    <glyph glyph-name="uni0232" unicode="&#x232;" horiz-adv-x="1302" 
d="M332 1591v234h641v-234h-641zM475 0v633l-473 821h391l256 -483h4l252 483h395l-477 -821v-633h-348z" />
    <glyph glyph-name="uni0233" unicode="&#x233;" horiz-adv-x="1097" 
d="M231 1174v245h641v-245h-641zM238 -406l172 474l-392 933h342l201 -538h6l193 538h319l-526 -1407h-315z" />
    <glyph glyph-name="uni0237" unicode="&#x237;" horiz-adv-x="534" 
d="M113 -424q-123 0 -228 37l52 254q46 -19 92 -19q45 0 62.5 31t17.5 98v1024h319v-1050q0 -186 -81.5 -280.5t-233.5 -94.5z" />
    <glyph glyph-name="uni0251" unicode="&#x251;" horiz-adv-x="1220" 
d="M530 -18q-207 0 -340 144t-133 374q0 228 130.5 374t326.5 146q81 0 153 -32t124 -93l4 2v104h321v-1001h-305v104l-4 2q-97 -124 -277 -124zM598 264q89 0 150 65.5t61 170.5q0 102 -60.5 169.5t-150.5 67.5q-93 0 -154 -65.5t-61 -171.5q0 -105 59.5 -170.5
t155.5 -65.5z" />
    <glyph glyph-name="uni0259" unicode="&#x259;" horiz-adv-x="1124" 
d="M520 1020q157 0 278.5 -58.5t193 -177t71.5 -282.5q0 -237 -137 -378.5t-371 -141.5q-239 0 -368.5 139t-129.5 368q0 57 11 99h684q-17 83 -85 126.5t-163 43.5q-137 0 -246 -72l-129 232q79 49 189.5 75.5t201.5 26.5zM559 236q82 0 131.5 41t61.5 118h-392
q11 -70 63 -114.5t136 -44.5z" />
    <glyph glyph-name="uni0261" unicode="&#x261;" horiz-adv-x="1216" 
d="M573 -424q-237 0 -411 96l71 260q151 -88 306 -88q125 0 193.5 54.5t68.5 136.5v92l-4 2q-108 -111 -277 -111q-202 0 -332.5 140t-130.5 354q0 221 127.5 364.5t317.5 143.5q172 0 286 -117h5v98h321v-870q0 -127 -28 -225t-89.5 -174t-168.5 -116t-255 -40zM596 303
q91 0 151 61t60 156q0 94 -60.5 154.5t-150.5 60.5q-93 0 -153 -60.5t-60 -156.5t60.5 -155.5t152.5 -59.5z" />
    <glyph glyph-name="uni0272" unicode="&#x272;" horiz-adv-x="1191" 
d="M735 1020q359 0 359 -420v-600h-320v522q0 119 -39 166t-121 47q-77 0 -125 -47.5t-57 -140.5v-559q0 -213 -85 -312.5t-267 -99.5q-94 0 -168 31l22 233q41 -12 72 -12q105 0 105 149v1024h319v-2h2v-114h2q117 135 301 135z" />
    <glyph glyph-name="uni02BB" unicode="&#x2bb;" horiz-adv-x="493" 
d="M106 840l48 551h235l33 -551h-316z" />
    <glyph glyph-name="uni02BC" unicode="&#x2bc;" horiz-adv-x="466" 
d="M68 989l67 465h301l-145 -465h-223z" />
    <glyph glyph-name="uni02BE" unicode="&#x2be;" horiz-adv-x="460" 
d="M63 870l-20 215q66 3 100.5 40.5t34.5 97.5q0 59 -35 96.5t-100 40.5l20 215q171 0 271 -94.5t100 -259.5q0 -163 -100 -257t-271 -94z" />
    <glyph glyph-name="uni02BF" unicode="&#x2bf;" horiz-adv-x="522" 
d="M459 870q-171 0 -271 94t-100 257q0 165 100 259.5t271 94.5l20 -215q-65 -3 -100 -40.5t-35 -96.5q0 -60 34.5 -97.5t100.5 -40.5z" />
    <glyph glyph-name="circumflex" unicode="&#x2c6;" horiz-adv-x="950" 
d="M106 1073l195 305h344l199 -305h-279l-90 148h-4l-92 -148h-273z" />
    <glyph glyph-name="caron" unicode="&#x2c7;" horiz-adv-x="950" 
d="M305 1071l-199 305h281l90 -147h4l90 147h273l-193 -305h-346z" />
    <glyph glyph-name="uni02C8" unicode="&#x2c8;" horiz-adv-x="411" 
d="M80 1423h225v-641h-225v641z" />
    <glyph glyph-name="uni02C9" unicode="&#x2c9;" horiz-adv-x="761" 
d="M59 1174v245h641v-245h-641z" />
    <glyph glyph-name="uni02CA" unicode="&#x2ca;" horiz-adv-x="673" 
d="M82 1141l227 305l324 2l-254 -307h-297z" />
    <glyph glyph-name="uni02CB" unicode="&#x2cb;" horiz-adv-x="671" 
d="M293 1122l-252 305l326 -2l217 -303h-291z" />
    <glyph glyph-name="uni02CC" unicode="&#x2cc;" horiz-adv-x="411" 
d="M80 281h225v-641h-225v641z" />
    <glyph glyph-name="breve" unicode="&#x2d8;" horiz-adv-x="944" 
d="M471 1055q-146 0 -243 85.5t-109 235.5h233q5 -43 37 -71.5t82 -28.5q51 0 84.5 29.5t36.5 70.5h233q-11 -143 -104 -232t-250 -89z" />
    <glyph glyph-name="dotaccent" unicode="&#x2d9;" horiz-adv-x="1028" 
d="M514 1077q-83 0 -136.5 53t-53.5 132q0 75 54 127.5t136 52.5q83 0 138 -52t55 -128q0 -78 -55 -131.5t-138 -53.5z" />
    <glyph glyph-name="ring" unicode="&#x2da;" horiz-adv-x="921" 
d="M461 1049q-94 0 -159.5 61.5t-65.5 155.5q0 91 63 153t162 62q95 0 160 -60.5t65 -154.5q0 -91 -63 -154t-162 -63zM461 1194q30 0 52 22t22 52q0 31 -21.5 52t-52.5 21q-30 0 -51 -21.5t-21 -51.5q0 -31 20.5 -52.5t51.5 -21.5z" />
    <glyph glyph-name="ogonek" unicode="&#x2db;" horiz-adv-x="978" 
d="M559 -391q-113 0 -179.5 53t-66.5 139q0 63 42 126t124 102l258 -29q-85 -4 -138.5 -46.5t-53.5 -94.5q0 -38 21.5 -59t58.5 -21q25 0 75 10l15 -158q-59 -22 -156 -22z" />
    <glyph glyph-name="tilde" unicode="&#x2dc;" horiz-adv-x="1019" 
d="M676 1075q-84 0 -180 55q-3 2 -11 6t-11 6t-10.5 5.5t-11.5 5.5t-10.5 5t-11 4.5l-10.5 3.5t-11 3t-11 1.5t-11 0.5q-67 0 -113 -98l-184 78q34 112 102 182t160 70q41 0 77.5 -9t55 -18t47.5 -26q64 -39 103 -39q69 0 113 94l184 -59q-34 -121 -100.5 -196t-155.5 -75z
" />
    <glyph glyph-name="hungarumlaut" unicode="&#x2dd;" horiz-adv-x="1126" 
d="M74 1092l225 305l317 2l-251 -307h-291zM528 1092l226 305l317 2l-252 -307h-291z" />
    <glyph glyph-name="gravecomb" unicode="&#x300;" 
d="M-1094 1073l-252 305l326 -2l217 -303h-291z" />
    <glyph glyph-name="acutecomb" unicode="&#x301;" 
d="M-1260 1075l228 305l323 2l-254 -307h-297z" />
    <glyph glyph-name="uni0302" unicode="&#x302;" 
d="M-1393 1073l195 305h344l199 -305h-279l-90 148h-4l-92 -148h-273z" />
    <glyph glyph-name="tildecomb" unicode="&#x303;" 
d="M-848 1075q-84 0 -180 55q-3 2 -11 6t-11 6t-10.5 5.5t-11.5 5.5t-10.5 5t-11 4.5l-10.5 3.5t-11 3t-11 1.5t-11 0.5q-66 0 -112 -98l-185 78q34 112 102.5 182t160.5 70q41 0 77.5 -9t55 -18t47.5 -26q64 -39 102 -39q69 0 113 94l184 -59q-34 -121 -100.5 -196
t-155.5 -75z" />
    <glyph glyph-name="uni0304" unicode="&#x304;" 
d="M-1346 1124v246h641v-246h-641z" />
    <glyph glyph-name="uni0306" unicode="&#x306;" 
d="M-1026 1055q-146 0 -243 85.5t-109 235.5h233q5 -43 37 -71.5t82 -28.5q51 0 84.5 29.5t36.5 70.5h233q-11 -143 -104 -232t-250 -89z" />
    <glyph glyph-name="uni0307" unicode="&#x307;" 
d="M-1024 1077q-83 0 -136.5 53t-53.5 132q0 75 54 127.5t136 52.5q83 0 138 -52t55 -128q0 -78 -55 -131.5t-138 -53.5z" />
    <glyph glyph-name="uni0308" unicode="&#x308;" 
d="M-1255 1079q-82 0 -136.5 53t-54.5 130q0 74 54.5 126t136.5 52q83 0 137.5 -51t54.5 -127q0 -78 -54.5 -130.5t-137.5 -52.5zM-797 1079q-82 0 -136 53t-54 130q0 75 54 126.5t136 51.5q81 0 136 -51.5t55 -126.5q0 -78 -54.5 -130.5t-136.5 -52.5z" />
    <glyph glyph-name="hookabovecomb" unicode="&#x309;" 
d="M-1110 1077q116 90 113 154q0 47 -60 47q-68 0 -139 -47l-57 133q46 46 127 79.5t170 33.5q103 0 160 -45t57 -132q0 -68 -52.5 -128t-132.5 -95h-186z" />
    <glyph glyph-name="uni030A" unicode="&#x30a;" 
d="M-1024 1055q-94 0 -159.5 61.5t-65.5 155.5q0 91 63 153t162 62q95 0 160 -60.5t65 -154.5q0 -91 -63 -154t-162 -63zM-1024 1200q30 0 52 22t22 52q0 31 -21.5 52.5t-52.5 21.5q-30 0 -51 -22t-21 -52q0 -31 20.5 -52.5t51.5 -21.5z" />
    <glyph glyph-name="uni030B" unicode="&#x30b;" 
d="M-1391 1092l226 305l317 2l-252 -307h-291zM-936 1092l225 305l318 2l-252 -307h-291z" />
    <glyph glyph-name="uni030C" unicode="&#x30c;" 
d="M-1194 1071l-199 305h281l90 -147h4l90 147h273l-193 -305h-346z" />
    <glyph glyph-name="uni0312" unicode="&#x312;" 
d="M-1149 1110q-10 36 -10 86q0 123 80 189t229 69l59 -174q-59 -12 -84.5 -33.5t-25.5 -60.5q0 -30 12 -76h-260z" />
    <glyph glyph-name="uni0313" unicode="&#x313;" 
d="M-883 1436q11 -40 11 -86q0 -123 -80.5 -189t-229.5 -69l-59 174q59 12 85 33.5t26 60.5q0 26 -13 76h260z" />
    <glyph glyph-name="uni031B" unicode="&#x31b;" 
d="M-1067 928l-6 141q54 4 87 19.5t48.5 47.5t20 65.5t4.5 90.5v162h274v-156q0 -195 -114 -287t-314 -83z" />
    <glyph glyph-name="dotbelowcomb" unicode="&#x323;" 
d="M-1024 -119q83 0 136.5 -52.5t53.5 -131.5q0 -75 -54 -127.5t-136 -52.5q-83 0 -138 52t-55 128q0 78 55 131t138 53z" />
    <glyph glyph-name="uni0324" unicode="&#x324;" 
d="M-1251 -121q82 0 136 -52.5t54 -129.5q0 -75 -54 -126.5t-136 -51.5q-81 0 -136 51.5t-55 126.5q0 78 54.5 130t136.5 52zM-793 -121q83 0 137 -52.5t54 -129.5q0 -74 -54.5 -126t-136.5 -52q-83 0 -137.5 51t-54.5 127q0 78 54.5 130t137.5 52z" />
    <glyph glyph-name="uni0326" unicode="&#x326;" 
d="M-1198 -453l-57 174q59 12 84.5 34t25.5 63q0 30 -14 73h262q10 -48 10 -86q0 -124 -80.5 -189.5t-230.5 -68.5z" />
    <glyph glyph-name="uni0327" unicode="&#x327;" 
d="M-1094 -395q-71 0 -133 12v131q47 -14 94 -14q37 0 64 13t27 42q0 28 -41 44.5t-109 16.5v78l45 84h164l-41 -71l2 -4q213 -6 213 -164q0 -76 -72.5 -122t-212.5 -46z" />
    <glyph glyph-name="uni0328" unicode="&#x328;" 
d="M-1208 -391q-113 0 -179.5 53t-66.5 139q0 63 42 126t124 102l258 -29q-86 -4 -139.5 -46.5t-53.5 -94.5q0 -38 21.5 -59t58.5 -21q26 0 76 10l14 -158q-59 -22 -155 -22z" />
    <glyph glyph-name="uni032E" unicode="&#x32e;" 
d="M-1022 -479q-157 0 -250 89t-104 232h233q3 -41 36.5 -70.5t84.5 -29.5q50 0 82 28.5t37 71.5h233q-12 -150 -109 -235.5t-243 -85.5z" />
    <glyph glyph-name="uni0331" unicode="&#x331;" 
d="M-702 -453h-641v246h641v-246z" />
    <glyph glyph-name="uni0335" unicode="&#x335;" 
d="M-1325 436v191h612v-191h-612z" />
    <glyph glyph-name="uni0400" unicode="&#x400;" horiz-adv-x="1198" 
d="M543 1556l-258 287h327l222 -287h-291zM131 0v1454h948v-305h-614v-279h485v-295h-485v-270h657v-305h-991z" />
    <glyph glyph-name="uni0401" unicode="&#x401;" horiz-adv-x="1198" 
d="M381 1585q-83 0 -137 52.5t-54 129.5q0 75 54.5 127t136.5 52q83 0 137.5 -51.5t54.5 -127.5q0 -78 -54.5 -130t-137.5 -52zM840 1585q-83 0 -137 52.5t-54 129.5q0 75 54.5 127t136.5 52q81 0 135.5 -52t54.5 -127q0 -78 -54 -130t-136 -52zM131 0v1454h948v-305h-614
v-279h485v-295h-485v-270h657v-305h-991z" />
    <glyph glyph-name="uni0402" unicode="&#x402;" horiz-adv-x="1595" 
d="M1059 934q233 0 364 -124.5t131 -350.5q0 -222 -134.5 -349.5t-346.5 -127.5q-92 0 -180 20l22 270q62 -10 99 -10q188 0 188 180q0 89 -59 137t-174 48q-119 0 -217 -49v-578h-340v1149h-383v305h1108v-305h-385v-277q62 27 146 44.5t161 17.5z" />
    <glyph glyph-name="uni0403" unicode="&#x403;" horiz-adv-x="1148" 
d="M379 1559l221 286h326l-258 -286h-289zM131 0v1454h961v-305h-611v-1149h-350z" />
    <glyph glyph-name="uni0404" unicode="&#x404;" horiz-adv-x="1464" 
d="M1178 446l241 -204q-99 -121 -251 -190.5t-341 -69.5q-159 0 -294 47.5t-237 138t-160 233.5t-58 324q0 160 50.5 297t144.5 238t238 158t323 57q329 0 557 -228l-228 -227q-58 60 -143 97.5t-178 37.5q-165 0 -271 -73t-139 -214h606l2 -278h-612q28 -138 131.5 -214.5
t267.5 -76.5q219 0 351 147z" />
    <glyph glyph-name="uni0405" unicode="&#x405;" horiz-adv-x="1167" 
d="M573 -18q-145 0 -283 57.5t-251 173.5l201 244q79 -86 171 -129t173 -43q82 0 123 35t41 88q0 59 -45 93.5t-171 76.5q-54 18 -95 34.5t-89 41t-83 49.5t-70 60.5t-56.5 75.5t-35 92.5t-13.5 112.5q0 181 137 303.5t340 125.5q276 6 504 -189l-192 -250
q-175 137 -297 137q-63 0 -99.5 -30t-36.5 -82q-1 -51 43.5 -86t165.5 -82q185 -71 248 -106q135 -74 179 -184q26 -67 26 -155q0 -99 -32.5 -179.5t-86 -132t-124 -87t-143.5 -50.5t-149 -15z" />
    <glyph glyph-name="uni0406" unicode="&#x406;" horiz-adv-x="630" 
d="M139 0v1454h350v-1454h-350z" />
    <glyph glyph-name="uni0407" unicode="&#x407;" horiz-adv-x="630" 
d="M84 1585q-82 0 -136 52.5t-54 129.5q0 75 54 127t136 52q83 0 137.5 -51.5t54.5 -127.5q0 -78 -54.5 -130t-137.5 -52zM543 1585q-83 0 -137 52.5t-54 129.5q0 75 54.5 127t136.5 52q81 0 135.5 -52t54.5 -127q0 -78 -54 -130t-136 -52zM139 0v1454h350v-1454h-350z" />
    <glyph glyph-name="uni0408" unicode="&#x408;" horiz-adv-x="1028" 
d="M446 -18q-266 0 -419 194l198 236q85 -111 193 -111q143 0 143 209v944h348v-938q0 -534 -463 -534z" />
    <glyph glyph-name="uni0409" unicode="&#x409;" horiz-adv-x="2164" 
d="M1587 954q276 0 405.5 -116t129.5 -340q0 -122 -25.5 -209t-87 -154.5t-171.5 -101t-271 -33.5h-549v1147h-309q-25 -462 -66 -668q-45 -246 -150.5 -368.5t-304.5 -122.5q-98 0 -165 26l22 285q54 -12 82 -12q90 0 137 86t74 258q35 207 49 765q1 39 2 58h969v-500h229z
M1579 297q94 0 141 44t47 138q0 178 -188 178h-221v-360h221z" />
    <glyph glyph-name="uni040A" unicode="&#x40a;" horiz-adv-x="2138" 
d="M1563 924q534 0 534 -439q0 -117 -25.5 -202t-87 -151t-171.5 -99t-271 -33h-569v594h-496v-594h-346v1454h346v-557h496v557h346v-530h244zM1554 297q93 0 141 43t48 125q0 81 -48.5 122.5t-140.5 41.5h-235v-332h235z" />
    <glyph glyph-name="uni040B" unicode="&#x40b;" horiz-adv-x="1593" 
d="M1106 942q391 0 391 -467v-475h-344v428q0 112 -42 153.5t-138 41.5q-118 0 -221 -50v-573h-340v1149h-383v305h1110v-305h-387v-287q69 35 164 57.5t190 22.5z" />
    <glyph glyph-name="uni040C" unicode="&#x40c;" horiz-adv-x="1355" 
d="M446 1559l222 286h325l-258 -286h-289zM131 0v1454h342v-557h4l422 557h432l-524 -631l543 -823h-420l-348 553l-109 -133v-420h-342z" />
    <glyph glyph-name="uni040D" unicode="&#x40d;" horiz-adv-x="1484" 
d="M678 1559l-258 286h328l221 -286h-291zM131 0v1454h342v-901h4l553 901h324v-1454h-342v879l-4 2l-545 -881h-332z" />
    <glyph glyph-name="uni040E" unicode="&#x40e;" horiz-adv-x="1347" 
d="M674 1548q-160 0 -251.5 72t-125.5 217l254 25q27 -129 125 -129q96 0 123 129l254 -25q-65 -289 -379 -289zM963 1454h383l-480 -1094q-24 -55 -39.5 -88t-40.5 -78t-47 -71.5t-53.5 -56.5t-65.5 -46t-79 -27t-97 -11q-83 0 -162 18.5t-126 50.5l112 291q80 -45 152 -45
q110 0 151 141l-563 1016h391l314 -633h6z" />
    <glyph glyph-name="uni040F" unicode="&#x40f;" horiz-adv-x="1402" 
d="M1272 1454v-1454h-422l-8 -281h-279l-8 281h-424v1454h346v-1147h449v1147h346z" />
    <glyph glyph-name="uni0410" unicode="&#x410;" horiz-adv-x="1421" 
d="M12 0l535 1454h327l533 -1454h-356l-86 262h-508l-86 -262h-359zM549 549h325l-161 491h-4z" />
    <glyph glyph-name="uni0411" unicode="&#x411;" horiz-adv-x="1273" 
d="M131 0v1454h971v-303h-637v-231h219q274 0 404.5 -113t130.5 -320q0 -118 -26 -203.5t-87.5 -151.5t-171.5 -99t-270 -33h-533zM465 297h209q190 0 190 170q0 83 -49.5 124.5t-138.5 41.5h-211v-336z" />
    <glyph glyph-name="uni0412" unicode="&#x412;" horiz-adv-x="1296" 
d="M131 0v1454h551q238 0 357.5 -92t119.5 -262q0 -105 -51 -190.5t-168 -131.5v-4q295 -76 295 -368q0 -185 -121.5 -295.5t-357.5 -110.5h-625zM465 870h186q81 0 124.5 36.5t43.5 107.5q0 68 -43 104.5t-143 36.5h-168v-285zM465 297h233q87 0 135 40t48 116
q0 74 -50.5 115.5t-144.5 41.5h-221v-313z" />
    <glyph glyph-name="uni0413" unicode="&#x413;" horiz-adv-x="1148" 
d="M131 0v1454h961v-305h-611v-1149h-350z" />
    <glyph glyph-name="uni0414" unicode="&#x414;" horiz-adv-x="1648" 
d="M1606 307v-588h-279l-16 281h-994l-16 -281h-278v588h206q115 230 166 506q38 231 41 641h963v-1147h207zM758 1149q-10 -302 -53 -504q-42 -187 -115 -338h467v842h-299z" />
    <glyph glyph-name="uni0415" unicode="&#x415;" horiz-adv-x="1198" 
d="M131 0v1454h948v-305h-614v-279h485v-295h-485v-270h657v-305h-991z" />
    <glyph glyph-name="uni0416" unicode="&#x416;" horiz-adv-x="2004" 
d="M16 0l449 801l-440 653h409l393 -616l4 2v614h330v-616l4 -2l385 618h410l-432 -647l461 -807h-410l-328 602l-90 -125v-477h-330v479l-90 125l-325 -604h-400z" />
    <glyph glyph-name="uni0417" unicode="&#x417;" horiz-adv-x="1259" 
d="M604 -18q-362 0 -561 219l205 256q142 -160 364 -160q108 0 168 42.5t60 117.5q0 147 -228 147h-223v281h189q102 0 154 38.5t52 106.5q0 133 -192 133q-162 0 -313 -110l-166 262q92 75 223.5 117.5t275.5 42.5q245 0 381.5 -97t136.5 -260q0 -104 -56 -195.5
t-169 -138.5v-4q143 -36 216 -127t73 -225q0 -204 -154 -325t-436 -121z" />
    <glyph glyph-name="uni0418" unicode="&#x418;" horiz-adv-x="1484" 
d="M131 0v1454h342v-901h4l553 901h324v-1454h-342v879l-4 2l-545 -881h-332z" />
    <glyph glyph-name="uni0419" unicode="&#x419;" horiz-adv-x="1484" 
d="M748 1548q-160 0 -251.5 72t-125.5 217l254 25q27 -129 125 -129q95 0 122 129l254 -25q-33 -145 -125 -217t-253 -72zM131 0v1454h342v-901h4l553 901h324v-1454h-342v879l-4 2l-545 -881h-332z" />
    <glyph glyph-name="uni041A" unicode="&#x41a;" horiz-adv-x="1355" 
d="M131 0v1454h342v-557h4l422 557h432l-524 -631l543 -823h-420l-348 553l-109 -133v-420h-342z" />
    <glyph glyph-name="uni041B" unicode="&#x41b;" horiz-adv-x="1495" 
d="M387 1454h975v-1454h-344v1147h-303q-22 -476 -58 -674q-42 -244 -145 -364.5t-309 -120.5q-113 0 -180 26l22 287q45 -10 82 -10q90 0 137 85.5t74 254.5q8 46 14 96t10.5 115.5t7.5 109t6 128t4 117.5t3.5 133.5t3.5 123.5z" />
    <glyph glyph-name="uni041C" unicode="&#x41c;" horiz-adv-x="1761" 
d="M133 0v1454h344l404 -772h4l399 772h346v-1454h-340v801h-4l-295 -533h-219l-295 535h-6v-803h-338z" />
    <glyph glyph-name="uni041D" unicode="&#x41d;" horiz-adv-x="1464" 
d="M131 0v1454h346v-602h512v602h344v-1454h-344v549h-512v-549h-346z" />
    <glyph glyph-name="uni041E" unicode="&#x41e;" horiz-adv-x="1654" 
d="M827 -18q-218 0 -389 94.5t-265.5 264t-94.5 386.5q0 162 55.5 301t153 237.5t237.5 154t303 55.5q161 0 299.5 -54.5t237.5 -151.5t155 -237t56 -305q0 -219 -96 -389t-266.5 -263t-385.5 -93zM827 299q168 0 279 123t111 305t-111 305t-279 123q-170 0 -280.5 -123.5
t-110.5 -304.5t110.5 -304.5t280.5 -123.5z" />
    <glyph glyph-name="uni041F" unicode="&#x41f;" horiz-adv-x="1402" 
d="M131 0v1454h1141v-1454h-346v1147h-449v-1147h-346z" />
    <glyph glyph-name="uni0420" unicode="&#x420;" horiz-adv-x="1253" 
d="M131 0v1454h553q258 0 388 -136.5t130 -365.5q0 -237 -145.5 -360t-399.5 -123h-192v-469h-334zM465 768h153q113 0 171.5 50.5t58.5 142.5q0 87 -56 139.5t-167 52.5h-160v-385z" />
    <glyph glyph-name="uni0421" unicode="&#x421;" horiz-adv-x="1462" 
d="M829 -18q-158 0 -294 49t-238 140.5t-160.5 234t-58.5 319.5q0 157 50.5 293t144 238t236.5 160.5t318 58.5q162 0 316.5 -70.5t269.5 -210.5l-250 -215q-64 75 -150 121.5t-186 46.5q-164 0 -276.5 -114.5t-112.5 -307.5q0 -178 108 -297t283 -119q198 0 336 164
l250 -215q-100 -124 -251 -200t-335 -76z" />
    <glyph glyph-name="uni0422" unicode="&#x422;" horiz-adv-x="1200" 
d="M426 0v1149h-379v305h1108v-305h-381v-1149h-348z" />
    <glyph glyph-name="uni0423" unicode="&#x423;" horiz-adv-x="1347" 
d="M963 1454h383l-480 -1094q-24 -55 -39.5 -88t-40.5 -78t-47 -71.5t-53.5 -56.5t-65.5 -46t-79 -27t-97 -11q-83 0 -162 18.5t-126 50.5l112 291q80 -45 152 -45q110 0 151 141l-563 1016h391l314 -633h6z" />
    <glyph glyph-name="uni0424" unicode="&#x424;" horiz-adv-x="1781" 
d="M1716 739q0 -257 -166.5 -416t-484.5 -176v-147h-340v147q-318 13 -488.5 174t-170.5 418q0 265 170.5 434.5t488.5 184.5v129h340v-129q160 -7 285 -57t204.5 -133.5t120.5 -192t41 -236.5zM1053 430q157 14 237 98.5t80 214.5q0 133 -80.5 224.5t-236.5 105.5v-643z
M418 745q0 -132 80 -217.5t241 -99.5v645q-158 -13 -239.5 -103.5t-81.5 -224.5z" />
    <glyph glyph-name="uni0425" unicode="&#x425;" horiz-adv-x="1445" 
d="M31 0l465 731l-447 723h395l279 -461h6l281 461h387l-447 -723l465 -731h-403l-289 469h-6l-291 -469h-395z" />
    <glyph glyph-name="uni0426" unicode="&#x426;" horiz-adv-x="1511" 
d="M1468 305v-586h-280l-17 281h-1040v1454h346v-1149h441v1149h344v-1149h206z" />
    <glyph glyph-name="uni0427" unicode="&#x427;" horiz-adv-x="1331" 
d="M854 1454h344v-1454h-344v526q-67 -31 -159.5 -50t-182.5 -19q-416 0 -416 467v530h346v-487q0 -118 44 -160.5t155 -42.5q120 0 213 45v645z" />
    <glyph glyph-name="uni0428" unicode="&#x428;" horiz-adv-x="1994" 
d="M1518 1454h344v-1454h-1731v1454h346v-1149h350v1149h340v-1149h351v1149z" />
    <glyph glyph-name="uni0429" unicode="&#x429;" horiz-adv-x="2113" 
d="M1862 305h206v-586h-280l-16 281h-1641v1454h346v-1149h350v1149h340v-1149h351v1149h344v-1149z" />
    <glyph glyph-name="uni042A" unicode="&#x42a;" horiz-adv-x="1497" 
d="M922 954q276 0 405 -116t129 -340q0 -122 -26 -209.5t-87.5 -154.5t-171.5 -100.5t-270 -33.5h-549v1149h-338v305h678v-500h230zM911 297q95 0 143 44t48 138q0 91 -49.5 134.5t-139.5 43.5h-221v-360h219z" />
    <glyph glyph-name="uni042B" unicode="&#x42b;" horiz-adv-x="1822" 
d="M131 0v1454h338v-500h201q277 0 406.5 -116t129.5 -340q0 -122 -26 -209.5t-87.5 -154.5t-171.5 -100.5t-270 -33.5h-520zM1346 0v1454h344v-1454h-344zM469 297h193q190 0 190 182q0 178 -190 178h-193v-360z" />
    <glyph glyph-name="uni042C" unicode="&#x42c;" horiz-adv-x="1275" 
d="M131 0v1454h340v-500h229q276 0 405.5 -116t129.5 -340q0 -122 -25.5 -209t-87 -154.5t-171.5 -101t-271 -33.5h-549zM471 297h221q189 0 189 182q0 178 -189 178h-221v-360z" />
    <glyph glyph-name="uni042D" unicode="&#x42d;" horiz-adv-x="1449" 
d="M629 1475q176 0 317 -55.5t234 -155t142.5 -237t49.5 -302.5q0 -186 -55.5 -330t-154.5 -233t-228.5 -134.5t-284.5 -45.5q-172 0 -333.5 54.5t-266.5 162.5l187 258q158 -158 409 -158q165 0 261 77.5t122 213.5h-616l2 278h610q-32 136 -135 212t-262 77
q-194 0 -353 -108l-188 251q100 78 248.5 126.5t294.5 48.5z" />
    <glyph glyph-name="uni042E" unicode="&#x42e;" horiz-adv-x="2174" 
d="M1378 1475q331 0 527 -204.5t196 -543.5q0 -222 -87.5 -390.5t-252 -261.5t-383.5 -93q-266 0 -455.5 155.5t-242.5 411.5h-209v-549h-344v1454h344v-602h201q40 281 233 452t473 171zM1376 299q171 0 270 118t99 310t-99 310t-270 118q-153 0 -258.5 -122.5
t-105.5 -311.5q0 -181 106 -301.5t258 -120.5z" />
    <glyph glyph-name="uni042F" unicode="&#x42f;" horiz-adv-x="1343" 
d="M33 0l340 524q-260 123 -260 418q0 232 134 372t392 140h573v-1454h-333v455h-168l-281 -455h-397zM705 754h174v399h-179q-115 0 -174 -55t-59 -150q0 -93 64 -143.5t174 -50.5z" />
    <glyph glyph-name="uni0430" unicode="&#x430;" horiz-adv-x="1220" 
d="M530 -18q-207 0 -340 144t-133 374q0 228 130.5 374t326.5 146q81 0 153 -32t124 -93l4 2v104h321v-1001h-305v104l-4 2q-97 -124 -277 -124zM598 264q89 0 150 65.5t61 170.5q0 102 -60.5 169.5t-150.5 67.5q-93 0 -154 -65.5t-61 -171.5q0 -105 59.5 -170.5
t155.5 -65.5z" />
    <glyph glyph-name="uni0431" unicode="&#x431;" horiz-adv-x="1202" 
d="M629 -18q-119 0 -213.5 35.5t-157 97t-103.5 148t-58.5 184.5t-16.5 212q1 144 14 252t47.5 205.5t92.5 164t148.5 114t215.5 69.5l395 70l78 -283l-416 -75q-86 -15 -141.5 -43t-87.5 -76t-45.5 -106.5t-18.5 -149.5l5 -2q48 84 134.5 136t207.5 52q179 0 307.5 -136.5
t128.5 -346.5q0 -228 -148 -375t-368 -147zM614 264q86 0 146.5 64t60.5 166q0 97 -61 158t-152 61q-94 0 -149.5 -65.5t-55.5 -145.5q0 -103 60.5 -170.5t150.5 -67.5z" />
    <glyph glyph-name="uni0432" unicode="&#x432;" horiz-adv-x="1110" 
d="M111 0v1001h495q211 0 305.5 -61.5t94.5 -181.5q0 -165 -170 -223v-5q108 -23 164.5 -85t56.5 -152q0 -64 -21 -115.5t-67.5 -92.5t-128.5 -63t-195 -22h-534zM418 600h155q119 0 119 84q0 80 -112 80h-162v-164zM418 238h184q68 0 99.5 22t31.5 68q0 86 -129 86h-186
v-176z" />
    <glyph glyph-name="uni0433" unicode="&#x433;" horiz-adv-x="878" 
d="M111 0v1001h729v-260h-410v-741h-319z" />
    <glyph glyph-name="uni0434" unicode="&#x434;" horiz-adv-x="1267" 
d="M1237 266v-526h-264l-19 260h-655l-10 -260h-264l2 526h147q57 118 86 254q21 99 27 206t6 275h784v-735h160zM481 266h283v477h-178q-14 -188 -45 -311q-20 -81 -60 -166z" />
    <glyph glyph-name="uni0435" unicode="&#x435;" horiz-adv-x="1126" 
d="M1067 512q0 -36 -6 -96h-682q15 -84 79.5 -129t159.5 -45q140 3 234 108l184 -188q-145 -180 -450 -180q-229 0 -377 144.5t-148 375.5q0 227 145 372.5t372 145.5q213 0 351 -143t138 -365zM573 766q-74 0 -125.5 -42.5t-66.5 -117.5h375q-15 74 -63.5 117t-119.5 43z
" />
    <glyph glyph-name="uni0436" unicode="&#x436;" horiz-adv-x="1626" 
d="M8 0l348 537l-342 464h365l274 -413h4v413h306v-421h4l266 421h360l-331 -462l356 -539h-352l-228 365l-75 -80v-285h-306v287l-73 80l-226 -367h-350z" />
    <glyph glyph-name="uni0437" unicode="&#x437;" horiz-adv-x="1009" 
d="M494 -20q-154 0 -255.5 24t-193.5 74l90 260q65 -49 154.5 -74.5t177.5 -25.5q162 0 162 88q0 75 -144 75h-192v207h166q64 0 96.5 19.5t32.5 52.5q0 78 -135 78q-139 0 -256 -60l-125 232q63 35 173.5 62.5t237.5 27.5q198 0 311 -66.5t113 -187.5q0 -71 -41.5 -134
t-124.5 -95v-2q103 -26 159 -92t56 -154q0 -149 -122 -229t-340 -80z" />
    <glyph glyph-name="uni0438" unicode="&#x438;" horiz-adv-x="1196" 
d="M111 0v1001h315v-587l4 -2l350 589h305v-1001h-315v551l-4 2l-346 -553h-309z" />
    <glyph glyph-name="uni0439" unicode="&#x439;" horiz-adv-x="1196" 
d="M608 1110q-160 0 -251.5 73t-125.5 218l254 43q24 -148 125 -148q99 0 123 148l254 -43q-66 -291 -379 -291zM111 0v1001h315v-587l4 -2l350 589h305v-1001h-315v551l-4 2l-346 -553h-309z" />
    <glyph glyph-name="uni043A" unicode="&#x43a;" horiz-adv-x="1142" 
d="M111 0v1001h315v-397h4l313 397h373l-352 -426l373 -575h-363l-252 395l-96 -114v-281h-315z" />
    <glyph glyph-name="uni043B" unicode="&#x43b;" horiz-adv-x="1177" 
d="M272 1001h795v-1001h-322v741h-180q-14 -268 -41 -399q-36 -176 -122.5 -265t-249.5 -89q-72 0 -121 18l12 273q27 -9 51 -9q116 0 150 211q24 145 28 520z" />
    <glyph glyph-name="uni043C" unicode="&#x43c;" horiz-adv-x="1396" 
d="M111 0v1001h307l278 -536h4l277 536h309v-1001h-303v504l-4 2l-174 -332h-215l-172 330h-4v-504h-303z" />
    <glyph glyph-name="uni043D" unicode="&#x43d;" horiz-adv-x="1177" 
d="M111 0v1001h319v-385h318v385h321v-1001h-321v358h-318v-358h-319z" />
    <glyph glyph-name="uni043E" unicode="&#x43e;" horiz-adv-x="1206" 
d="M604 -18q-242 0 -392.5 145t-150.5 373q0 230 150.5 375t392.5 145q237 0 389 -144.5t152 -375.5q0 -229 -152 -373.5t-389 -144.5zM604 264q92 0 154.5 67t62.5 169q0 104 -61.5 169.5t-155.5 65.5q-97 0 -158 -66t-61 -169q0 -100 62 -168t157 -68z" />
    <glyph glyph-name="uni043F" unicode="&#x43f;" horiz-adv-x="1144" 
d="M111 0v1004h925v-1004h-321v741h-285v-741h-319z" />
    <glyph glyph-name="uni0440" unicode="&#x440;" horiz-adv-x="1236" 
d="M111 -406v1407h319v-106h4q110 125 285 125q197 0 327 -146t130 -374q0 -230 -133 -374t-341 -144q-167 0 -268 116l-4 -2v-502h-319zM639 264q93 0 153 65.5t60 170.5q0 106 -61 171.5t-154 65.5q-97 0 -159 -67t-62 -170q0 -106 63 -171t160 -65z" />
    <glyph glyph-name="uni0441" unicode="&#x441;" horiz-adv-x="1069" 
d="M586 -18q-229 0 -377 143.5t-148 372.5q0 235 147 378.5t386 143.5q124 0 238.5 -42.5t193.5 -131.5l-207 -205q-34 45 -87.5 69.5t-110.5 24.5q-105 0 -170.5 -65t-65.5 -170t66.5 -169.5t171.5 -64.5q125 0 213 94l196 -204q-151 -174 -446 -174z" />
    <glyph glyph-name="uni0442" unicode="&#x442;" horiz-adv-x="931" 
d="M305 0v741h-272v260h864v-260h-270v-741h-322z" />
    <glyph glyph-name="uni0443" unicode="&#x443;" horiz-adv-x="1097" 
d="M238 -406l172 474l-392 933h342l201 -538h6l193 538h319l-526 -1407h-315z" />
    <glyph glyph-name="uni0444" unicode="&#x444;" horiz-adv-x="1513" 
d="M1462 500q0 -235 -147.5 -374.5t-396.5 -145.5v-386h-320v386q-257 4 -401 142.5t-144 377.5q0 225 150.5 369t394.5 155v483h320v-483q244 -9 394 -153t150 -371zM377 496q0 -114 62 -179.5t171 -76.5v526q-108 -11 -170.5 -82.5t-62.5 -187.5zM905 240
q109 11 171.5 77.5t62.5 180.5q0 115 -63.5 186t-170.5 82v-526z" />
    <glyph glyph-name="uni0445" unicode="&#x445;" horiz-adv-x="1075" 
d="M20 0l338 516l-331 485h360l148 -247h2l151 247h359l-332 -487l338 -514h-344l-170 250h-2l-172 -250h-345z" />
    <glyph glyph-name="uni0446" unicode="&#x446;" horiz-adv-x="1222" 
d="M1192 260v-520h-262l-19 260h-800v1001h319v-741h268v741h322v-741h172z" />
    <glyph glyph-name="uni0447" unicode="&#x447;" horiz-adv-x="1101" 
d="M672 1001h321v-1001h-321v332q-118 -56 -254 -56q-355 0 -355 365v360h322v-303q0 -88 34.5 -119.5t100.5 -31.5q79 0 152 33v421z" />
    <glyph glyph-name="uni0448" unicode="&#x448;" horiz-adv-x="1669" 
d="M104 0v1001h320v-737h256v737h311v-737h254v737h320v-1001h-1461z" />
    <glyph glyph-name="uni0449" unicode="&#x449;" horiz-adv-x="1769" 
d="M1565 260h178v-520h-264l-19 260h-1356v1001h320v-737h256v737h311v-737h254v737h320v-741z" />
    <glyph glyph-name="uni044A" unicode="&#x44a;" horiz-adv-x="1181" 
d="M692 741q236 0 340.5 -92t104.5 -264q0 -186 -107 -285.5t-346 -99.5h-442v741h-238v260h553v-260h135zM664 254q147 0 147 125q0 121 -139 121h-135v-246h127z" />
    <glyph glyph-name="uni044B" unicode="&#x44b;" horiz-adv-x="1542" 
d="M111 0v1001h315v-260h127q235 0 338.5 -92t103.5 -264q0 -187 -106 -286t-346 -99h-432zM1112 0v1001h322v-1001h-322zM406 254h116q148 0 148 125q0 121 -140 121h-124v-246z" />
    <glyph glyph-name="uni044C" unicode="&#x44c;" horiz-adv-x="1050" 
d="M111 0v1001h315v-260h135q236 0 340.5 -92t104.5 -264q0 -186 -107 -285.5t-346 -99.5h-442zM406 254h126q148 0 148 125q0 121 -139 121h-135v-246z" />
    <glyph glyph-name="uni044D" unicode="&#x44d;" horiz-adv-x="1067" 
d="M467 1020q244 0 391.5 -142t147.5 -380q0 -234 -139.5 -375t-391.5 -141q-269 0 -442 122l153 234q63 -46 127 -68.5t150 -21.5q204 0 231 158h-415v196h413q-17 74 -78.5 113t-156.5 41q-136 0 -250 -70l-135 229q163 105 395 105z" />
    <glyph glyph-name="uni044E" unicode="&#x44e;" horiz-adv-x="1652" 
d="M1063 1020q237 0 385.5 -144.5t148.5 -375.5q0 -230 -148.5 -374t-385.5 -144q-191 0 -323 103t-171 277h-145v-362h-322v1001h322v-391h141q31 186 165 298t333 112zM1067 264q88 0 147.5 67t59.5 169q0 104 -58 169.5t-149 65.5q-92 0 -149.5 -65.5t-57.5 -169.5
q0 -102 58.5 -169t148.5 -67z" />
    <glyph glyph-name="uni044F" unicode="&#x44f;" horiz-adv-x="1101" 
d="M547 1001h444v-1001h-309v311h-100l-201 -311h-350l248 356q-94 42 -146.5 117.5t-52.5 173.5q0 354 467 354zM682 532v222h-143q-138 0 -138 -115q0 -49 32.5 -78t96.5 -29h152z" />
    <glyph glyph-name="uni0450" unicode="&#x450;" horiz-adv-x="1126" 
d="M766 1122h-291l-252 305l326 -2zM1067 512q0 -36 -6 -96h-682q15 -84 79.5 -129t159.5 -45q140 3 234 108l184 -188q-145 -180 -450 -180q-229 0 -377 144.5t-148 375.5q0 227 145 372.5t372 145.5q213 0 351 -143t138 -365zM573 766q-74 0 -125.5 -42.5t-66.5 -117.5
h375q-15 74 -63.5 117t-119.5 43z" />
    <glyph glyph-name="uni0451" unicode="&#x451;" horiz-adv-x="1126" 
d="M346 1128q-82 0 -136 53t-54 130q0 75 54 126.5t136 51.5q83 0 138 -51.5t55 -126.5q0 -78 -55 -130.5t-138 -52.5zM805 1128q-82 0 -136.5 53t-54.5 130q0 74 54.5 126t136.5 52q81 0 135.5 -51.5t54.5 -126.5q0 -78 -54 -130.5t-136 -52.5zM1067 512q0 -36 -6 -96h-682
q15 -84 79.5 -129t159.5 -45q140 3 234 108l184 -188q-145 -180 -450 -180q-229 0 -377 144.5t-148 375.5q0 227 145 372.5t372 145.5q213 0 351 -143t138 -365zM573 766q-74 0 -125.5 -42.5t-66.5 -117.5h375q-15 74 -63.5 117t-119.5 43z" />
    <glyph glyph-name="uni0452" unicode="&#x452;" horiz-adv-x="1189" 
d="M752 936q348 0 348 -416v-526q0 -218 -92.5 -318t-292.5 -100q-93 0 -174 31l24 233q46 -14 84 -14q69 0 99 38.5t30 119.5v456q0 117 -37.5 164t-117.5 47q-91 0 -141 -57t-50 -172v-422h-321v1081h-109v242h109v184h315v-184h330v-242h-330v-276l4 -2q118 133 322 133z
" />
    <glyph glyph-name="uni0453" unicode="&#x453;" horiz-adv-x="878" 
d="M262 1124l227 306l324 2l-254 -308h-297zM111 0v1001h729v-260h-410v-741h-319z" />
    <glyph glyph-name="uni0454" unicode="&#x454;" horiz-adv-x="1081" 
d="M860 338l184 -211q-153 -145 -428 -145q-267 0 -411 142t-144 376q0 236 149 378t400 142q262 0 404 -139l-187 -203q-86 78 -215 78q-190 0 -231 -154h407v-196h-409q38 -158 244 -158q147 0 237 90z" />
    <glyph glyph-name="uni0455" unicode="&#x455;" horiz-adv-x="901" 
d="M440 -18q-240 0 -407 147l149 207q125 -113 262 -113q47 0 72 16t25 44q0 25 -31.5 44t-124.5 48q-69 21 -121 46t-98.5 62.5t-71 92t-24.5 124.5q0 148 106 234t268 86q112 0 201 -30t178 -95l-151 -223q-51 51 -110.5 77.5t-112.5 26.5q-32 0 -56 -14t-24 -41
q0 -23 30.5 -42t106.5 -46q76 -26 121.5 -45t93 -47t72 -59t40 -76t15.5 -103q0 -145 -104.5 -233t-303.5 -88z" />
    <glyph glyph-name="uni0456" unicode="&#x456;" horiz-adv-x="561" 
d="M281 1126q-83 0 -137 53t-54 132q0 75 54.5 127.5t136.5 52.5q83 0 137.5 -52t54.5 -128q0 -79 -54.5 -132t-137.5 -53zM121 0v1001h319v-1001h-319z" />
    <glyph glyph-name="uni0457" unicode="&#x457;" horiz-adv-x="561" 
d="M74 1126q-78 0 -133.5 55t-55.5 130q0 74 55.5 127t133.5 53q74 0 128 -53.5t54 -126.5q0 -75 -54 -130t-128 -55zM487 1128q-75 0 -129.5 54t-54.5 129q0 72 54.5 126t129.5 54t130 -54t55 -126q0 -75 -55 -129t-130 -54zM121 0v1001h319v-1001h-319z" />
    <glyph glyph-name="uni0458" unicode="&#x458;" horiz-adv-x="534" 
d="M270 1126q-83 0 -136.5 53t-53.5 132q0 75 54 127.5t136 52.5q83 0 138 -52t55 -128q0 -78 -55 -131.5t-138 -53.5zM113 -424q-123 0 -228 37l52 254q46 -19 92 -19q45 0 62.5 31t17.5 98v1024h319v-1050q0 -186 -81.5 -280.5t-233.5 -94.5z" />
    <glyph glyph-name="uni0459" unicode="&#x459;" horiz-adv-x="1669" 
d="M1192 741q236 0 340 -92t104 -264q0 -186 -106.5 -285.5t-345.5 -99.5h-443v741h-180q-14 -268 -41 -399q-36 -176 -122 -265t-248 -89q-72 0 -121 18l12 273q27 -9 51 -9q116 0 150 211q24 145 28 520h787v-260h135zM1163 254q148 0 148 125q0 121 -140 121h-135v-246
h127z" />
    <glyph glyph-name="uni045A" unicode="&#x45a;" horiz-adv-x="1689" 
d="M1227 709q225 0 324.5 -87.5t99.5 -252.5q0 -178 -102 -273.5t-330 -95.5h-490v389h-301v-389h-322v1004h322v-357h301v357h318v-295h180zM1184 252q141 0 141 110q0 105 -133 105h-156v-215h148z" />
    <glyph glyph-name="uni045B" unicode="&#x45b;" horiz-adv-x="1189" 
d="M752 936q348 0 348 -416v-520h-322v440q0 117 -37.5 164t-117.5 47q-91 0 -141 -57t-50 -172v-422h-321v1081h-109v242h109v184h315v-184h330v-242h-330v-276l4 -2q118 133 322 133z" />
    <glyph glyph-name="uni045C" unicode="&#x45c;" horiz-adv-x="1142" 
d="M356 1124l228 306l323 2l-254 -308h-297zM111 0v1001h315v-397h4l313 397h373l-352 -426l373 -575h-363l-252 395l-96 -114v-281h-315z" />
    <glyph glyph-name="uni045D" unicode="&#x45d;" horiz-adv-x="1196" 
d="M516 1122l-252 305l326 -2l217 -303h-291zM111 0v1001h315v-587l4 -2l350 589h305v-1001h-315v551l-4 2l-346 -553h-309z" />
    <glyph glyph-name="uni045E" unicode="&#x45e;" horiz-adv-x="1097" 
d="M553 1110q-160 0 -251.5 73t-125.5 218l254 43q24 -148 125 -148q99 0 123 148l254 -43q-66 -291 -379 -291zM238 -406l172 474l-392 933h342l201 -538h6l193 538h319l-526 -1407h-315z" />
    <glyph glyph-name="uni045F" unicode="&#x45f;" horiz-adv-x="1134" 
d="M1024 1001v-1001h-313l-11 -260h-264l-8 260h-317v1001h319v-741h275v741h319z" />
    <glyph glyph-name="uni0462" unicode="&#x462;" horiz-adv-x="1464" 
d="M911 893q274 0 393 -108t119 -314q0 -89 -15 -158t-52.5 -129.5t-98.5 -99.5t-156 -61.5t-222 -22.5h-560v1038h-305v273h305v143h334v-143h426v-273h-426v-145h258zM879 293q190 0 190 164t-182 164h-234v-328h226z" />
    <glyph glyph-name="uni0463" unicode="&#x463;" horiz-adv-x="1198" 
d="M760 657q209 0 301 -81t92 -234q0 -165 -94.5 -253.5t-306.5 -88.5h-510v745h-238v259h238v503h315v-503h322v-244h-322v-103h203zM702 240q125 0 125 100q0 94 -118 94h-156v-194h149z" />
    <glyph glyph-name="uni0472" unicode="&#x472;" horiz-adv-x="1654" 
d="M827 1475q161 0 299.5 -54.5t237.5 -151.5t155 -237t56 -305q0 -219 -96 -389.5t-266.5 -264t-385.5 -93.5q-218 0 -389 95t-265.5 265t-94.5 387q0 162 55.5 301t153 237.5t237.5 154t303 55.5zM827 1169q-151 0 -257.5 -84.5t-135.5 -226.5h785q-29 143 -135 227
t-257 84zM827 285q149 0 254 82t136 223h-781q31 -140 136 -222.5t255 -82.5z" />
    <glyph glyph-name="uni0473" unicode="&#x473;" horiz-adv-x="1206" 
d="M604 1020q239 0 390 -143.5t151 -374.5t-151.5 -376.5t-389.5 -145.5q-242 0 -392.5 145.5t-150.5 376.5q0 229 150.5 373.5t392.5 144.5zM604 766q-88 0 -145.5 -43t-75.5 -113h444q-20 70 -77.5 113t-145.5 43zM604 236q90 0 149 45t74 118h-444q16 -73 73.5 -118
t147.5 -45z" />
    <glyph glyph-name="uni0474" unicode="&#x474;" horiz-adv-x="1523" 
d="M557 0l-537 1454h371l316 -991h2l172 643q28 106 67 178.5t89 112.5t104.5 56.5t124.5 16.5q151 0 280 -63l-76 -285q-80 37 -131 37q-35 0 -61 -15t-47 -50t-35.5 -72t-34.5 -102l-303 -920h-301z" />
    <glyph glyph-name="uni0475" unicode="&#x475;" horiz-adv-x="1144" 
d="M401 0l-387 1001h334l201 -622h2l100 360q44 160 112 220.5t181 60.5q110 0 203 -43l-51 -240q-54 15 -70 15q-44 0 -71.5 -41.5t-63.5 -147.5l-199 -563h-291z" />
    <glyph glyph-name="uni048A" unicode="&#x48a;" horiz-adv-x="1581" 
d="M748 1548q-160 0 -251.5 72t-125.5 217l254 25q27 -129 125 -129q95 0 122 129l254 -25q-33 -145 -125 -217t-253 -72zM1354 305h233v-96l-182 -490h-238l74 281h-229v879l-4 2l-545 -881h-332v1454h342v-901h4l553 901h324v-1149z" />
    <glyph glyph-name="uni048B" unicode="&#x48b;" horiz-adv-x="1296" 
d="M608 1110q-160 0 -251.5 73t-125.5 218l254 43q24 -148 125 -148q99 0 123 148l254 -43q-66 -291 -379 -291zM1085 266h215v-53l-182 -473h-223l72 260h-197v551l-4 2l-346 -553h-309v1001h315v-587l4 -2l350 589h305v-735z" />
    <glyph glyph-name="uni048C" unicode="&#x48c;" horiz-adv-x="1357" 
d="M793 893q275 0 399.5 -109t124.5 -313q0 -89 -15 -158t-52.5 -129.5t-98.5 -99.5t-156.5 -61.5t-222.5 -22.5h-563v1077h-195v240h195v137h334v-137h276v-240h-276v-184h250zM780 293q94 0 136 43t42 123q0 162 -178 162h-237v-328h237z" />
    <glyph glyph-name="uni048D" unicode="&#x48d;" horiz-adv-x="1067" 
d="M641 651q209 0 301 -80.5t92 -228.5q0 -165 -94.5 -253.5t-306.5 -88.5h-510v743h-133v189h133v119h315v-119h273v-189h-273v-92h203zM580 238q63 0 96 25t33 71q0 96 -121 96h-160v-192h152z" />
    <glyph glyph-name="uni048E" unicode="&#x48e;" horiz-adv-x="1271" 
d="M1221 952q0 -283 -211 -407l120 -219l-215 -119l-147 266q-62 -4 -92 -4h-211v-469h-334v1454h571q258 0 388.5 -136.5t130.5 -365.5zM453 754h190l-100 180l164 84l118 -211q54 54 54 154q0 87 -56.5 139.5t-167.5 52.5h-202v-399z" />
    <glyph glyph-name="uni048F" unicode="&#x48f;" horiz-adv-x="1236" 
d="M1176 500q0 -134 -47 -241.5t-132 -176.5l123 -209l-180 -109l-139 228q-52 -10 -99 -10q-167 0 -268 116l-4 -2v-502h-319v1407h319v-106h4q110 125 285 125q197 0 327 -146t130 -374zM410 500q0 -106 63 -171t162 -65h24l-102 170l152 84l104 -174q39 56 39 154
q0 108 -61.5 173.5t-157.5 65.5q-98 0 -160.5 -67t-62.5 -170z" />
    <glyph glyph-name="uni0490" unicode="&#x490;" horiz-adv-x="1148" 
d="M813 1735h279v-586h-611v-1149h-350v1454h666z" />
    <glyph glyph-name="uni0491" unicode="&#x491;" horiz-adv-x="878" 
d="M575 1268h265v-527h-410v-741h-319v1001h446z" />
    <glyph glyph-name="uni0492" unicode="&#x492;" horiz-adv-x="1243" 
d="M1186 1151h-617v-346h359v-238h-359v-567h-344v567h-194v238h194v649h961v-303z" />
    <glyph glyph-name="uni0493" unicode="&#x493;" horiz-adv-x="892" 
d="M854 741h-410v-225h281v-190h-281v-326h-319v326h-137v190h137v485h729v-260z" />
    <glyph glyph-name="uni0494" unicode="&#x494;" horiz-adv-x="1314" 
d="M731 817q251 0 390 -159.5t139 -442.5q0 -310 -144 -471.5t-389 -161.5q-90 0 -172 19l23 260q66 -8 94 -8q109 0 173 85.5t64 251.5q0 163 -74.5 242.5t-195.5 79.5q-86 0 -168 -33v-479h-340v1454h961v-303h-621v-375q112 41 260 41z" />
    <glyph glyph-name="uni0495" unicode="&#x495;" horiz-adv-x="1095" 
d="M1073 88q1 -259 -122.5 -385.5t-340.5 -126.5q-79 0 -149 18l20 242q58 -8 76 -8q93 0 144 62.5t51 177.5q0 103 -52.5 160t-142.5 57q-62 0 -127 -19v-266h-319v1001h729v-260h-410v-223q116 35 217 35q117 0 212 -52.5t154 -159.5t60 -253z" />
    <glyph glyph-name="uni0496" unicode="&#x496;" horiz-adv-x="2103" 
d="M1815 305h249v-586h-278l-17 281h-190l-328 602l-90 -125v-477h-330v479l-90 125l-325 -604h-400l449 801l-440 653h409l393 -616l4 2v614h330v-616l4 -2l385 618h410l-432 -647z" />
    <glyph glyph-name="uni0497" unicode="&#x497;" horiz-adv-x="1685" 
d="M1444 264h201v-524h-263l-18 260h-98l-228 365l-75 -80v-285h-306v287l-73 80l-226 -367h-350l348 537l-342 464h365l274 -413h4v413h306v-421h4l266 421h360l-331 -462z" />
    <glyph glyph-name="uni0498" unicode="&#x498;" horiz-adv-x="1259" 
d="M1194 428q0 -186 -129.5 -304t-368.5 -138l-8 -33q170 -50 170 -158q0 -84 -65.5 -136t-202.5 -52q-76 0 -150 16v137q50 -12 95 -12q86 0 86 57q0 55 -129 64l34 115q-306 24 -483 217l205 256q142 -160 364 -160q108 0 168 42.5t60 117.5q0 147 -228 147h-223v281h189
q102 0 154 38.5t52 106.5q0 133 -192 133q-162 0 -313 -110l-166 262q92 75 223.5 117.5t275.5 42.5q245 0 381.5 -97t136.5 -260q0 -104 -56 -195.5t-169 -138.5v-4q143 -36 216 -127t73 -225z" />
    <glyph glyph-name="uni0499" unicode="&#x499;" horiz-adv-x="1009" 
d="M956 289q0 -133 -98.5 -211.5t-275.5 -93.5l-9 -31q170 -50 170 -158q0 -84 -65.5 -136t-202.5 -52q-75 0 -149 16v137q50 -12 94 -12q86 0 86 57q0 55 -129 64l35 113q-214 10 -367 96l90 260q65 -49 154.5 -74.5t177.5 -25.5q162 0 162 88q0 75 -144 75h-192v207h166
q64 0 96.5 19.5t32.5 52.5q0 78 -135 78q-139 0 -256 -60l-125 232q63 35 173.5 62.5t237.5 27.5q198 0 311 -66.5t113 -187.5q0 -71 -41.5 -134t-124.5 -95v-2q103 -26 159 -92t56 -154z" />
    <glyph glyph-name="uni049A" unicode="&#x49a;" horiz-adv-x="1454" 
d="M1149 305h264v-586h-278l-17 281h-188l-348 553l-109 -133v-420h-342v1454h342v-557h4l422 557h432l-524 -631z" />
    <glyph glyph-name="uni049B" unicode="&#x49b;" horiz-adv-x="1202" 
d="M965 264h206v-524h-262l-18 260h-117l-252 395l-96 -114v-281h-315v1001h315v-397h4l313 397h373l-352 -426z" />
    <glyph glyph-name="uni049C" unicode="&#x49c;" horiz-adv-x="1536" 
d="M1128 0l-309 606h-16v-366h-221v372l-119 2v-614h-342v1454h342v-625l119 5v389h221v-361l311 592h395l-419 -682l442 -772h-404z" />
    <glyph glyph-name="uni049D" unicode="&#x49d;" horiz-adv-x="1255" 
d="M895 0l-174 365l-43 2v-232h-168v238l-92 2v-375h-307v1001h307v-411l92 2v248h168v-244h24l189 405h338l-260 -475l278 -526h-352z" />
    <glyph glyph-name="uni049E" unicode="&#x49e;" horiz-adv-x="1384" 
d="M879 756l499 -756h-420l-331 528l-127 -190v-338h-340v1087h-148v232h148v135h327v-135h177v-232h-177v-356h2l459 723h412z" />
    <glyph glyph-name="uni049F" unicode="&#x49f;" horiz-adv-x="1142" 
d="M764 575l373 -575h-363l-252 395l-96 -114v-281h-315v1128h-109v191h109v188h315v-188h299v-191h-299v-524h4l313 397h373z" />
    <glyph glyph-name="uni04A0" unicode="&#x4a0;" horiz-adv-x="1576" 
d="M1028 823l543 -823h-420l-348 553l-111 -133v-420h-340v1149h-338v305h678v-557h6l420 557h434z" />
    <glyph glyph-name="uni04A1" unicode="&#x4a1;" horiz-adv-x="1314" 
d="M936 575l373 -575h-363l-252 395l-96 -114v-281h-315v741h-279v260h594v-397h4l313 397h373z" />
    <glyph glyph-name="uni04A2" unicode="&#x4a2;" horiz-adv-x="1583" 
d="M1333 305h207v-586h-280l-17 281h-254v549h-512v-549h-346v1454h346v-602h512v602h344v-1149z" />
    <glyph glyph-name="uni04A3" unicode="&#x4a3;" horiz-adv-x="1277" 
d="M1069 260h178v-520h-264l-18 260h-217v358h-318v-358h-319v1001h319v-385h318v385h321v-741z" />
    <glyph glyph-name="uni04A4" unicode="&#x4a4;" horiz-adv-x="1736" 
d="M1679 1454v-301h-372v-1153h-346v549h-484v-549h-346v1454h346v-602h484v602h718z" />
    <glyph glyph-name="uni04A5" unicode="&#x4a5;" horiz-adv-x="1353" 
d="M1315 1001v-260h-277v-741h-307v358h-301v-358h-319v1001h319v-385h301v385h584z" />
    <glyph glyph-name="uni04A6" unicode="&#x4a6;" horiz-adv-x="2084" 
d="M1501 817q251 0 390 -159.5t139 -442.5q0 -310 -144 -471.5t-389 -161.5q-90 0 -172 19l23 260q66 -8 94 -8q109 0 173 85.5t64 251.5q0 163 -74.5 242.5t-195.5 79.5q-88 0 -170 -33v-479h-338v1147h-424v-1147h-346v1454h1108v-678q121 41 262 41z" />
    <glyph glyph-name="uni04A7" unicode="&#x4a7;" horiz-adv-x="1689" 
d="M1667 88q1 -259 -122.5 -385.5t-340.5 -126.5q-79 0 -149 18l20 242q58 -8 76 -8q93 0 144 62.5t51 177.5q0 103 -52.5 160t-142.5 57q-62 0 -127 -19v-266h-319v741h-275v-741h-319v1001h913v-483q116 35 217 35q117 0 212 -52.5t154 -159.5t60 -253z" />
    <glyph glyph-name="uni04A8" unicode="&#x4a8;" horiz-adv-x="1771" 
d="M1753 35q-28 -27 -88 -41t-131 -14q-89 0 -176 25.5t-144 64.5q-166 -90 -376 -90q-355 0 -566 208t-211 553q0 209 90.5 375.5t259.5 262.5t388 96q86 0 182 -21l-125 -301q-14 4 -47 4q-116 0 -206 -60.5t-136.5 -157.5t-46.5 -212q0 -207 128.5 -336t340.5 -129
q23 0 69 4l3 6q-181 203 -181 482q0 145 54 261.5t155.5 184.5t231.5 68q111 0 199 -41t143 -113t83.5 -167t28.5 -206q0 -144 -56 -267.5t-159 -213.5l2 -6q10 -2 33 -2q132 0 221 63zM1204 965q-55 0 -87 -71.5t-32 -178.5q3 -200 105 -363h8q56 65 88.5 159.5t32.5 205.5
q0 109 -31 178.5t-84 69.5z" />
    <glyph glyph-name="uni04A9" unicode="&#x4a9;" horiz-adv-x="1323" 
d="M1307 -4q-54 -16 -140 -16q-73 0 -149 19.5t-121 55.5q-108 -75 -301 -75q-246 0 -397.5 142t-151.5 382q0 223 138 369.5t345 146.5q20 0 80 -6l-94 -271h-6q-62 -22 -106 -91t-44 -165q0 -109 72.5 -180t190.5 -71h24l2 4q-106 121 -106 303q0 108 39 201t121 153.5
t192 60.5q163 0 258.5 -105t95.5 -273q0 -103 -39 -201.5t-106 -157.5v-4h12q98 0 172 43zM793 516q-3 -129 67 -221h4q82 100 82 231q2 63 -17.5 110.5t-54.5 47.5q-33 0 -57 -48.5t-24 -119.5z" />
    <glyph glyph-name="uni04AA" unicode="&#x4aa;" horiz-adv-x="1462" 
d="M1415 258q-96 -117 -237 -192t-312 -84l-8 -29q170 -50 170 -158q0 -84 -65.5 -136t-202.5 -52q-76 0 -150 16v137q50 -12 95 -12q86 0 86 57q0 55 -129 64l36 121q-134 19 -246.5 75.5t-196 147.5t-130.5 222.5t-47 289.5q0 157 50.5 293t144 238t236.5 160.5t318 58.5
q162 0 316.5 -70.5t269.5 -210.5l-250 -215q-64 75 -150 121.5t-186 46.5q-164 0 -276.5 -114.5t-112.5 -307.5q0 -178 108 -297t283 -119q198 0 336 164z" />
    <glyph glyph-name="uni04AB" unicode="&#x4ab;" horiz-adv-x="1069" 
d="M1032 156q-135 -155 -387 -172l-8 -31q170 -50 170 -158q0 -84 -65.5 -136t-202.5 -52q-76 0 -150 16v137q49 -12 94 -12q86 0 86 57q0 55 -129 64l37 123q-187 33 -301.5 169.5t-114.5 336.5q0 235 147 378.5t386 143.5q124 0 238.5 -42.5t193.5 -131.5l-207 -205
q-34 45 -87.5 69.5t-110.5 24.5q-105 0 -170.5 -65t-65.5 -170t66.5 -169.5t171.5 -64.5q125 0 213 94z" />
    <glyph glyph-name="uni04AC" unicode="&#x4ac;" horiz-adv-x="1200" 
d="M1155 1149h-381v-844h203v-586h-281l-16 281h-254v1149h-379v305h1108v-305z" />
    <glyph glyph-name="uni04AD" unicode="&#x4ad;" horiz-adv-x="931" 
d="M897 741h-270v-475h174v-526h-264l-19 260h-213v741h-272v260h864v-260z" />
    <glyph glyph-name="uni04AE" unicode="&#x4ae;" horiz-adv-x="1302" 
d="M475 0v633l-473 821h391l256 -483h4l252 483h395l-477 -821v-633h-348z" />
    <glyph glyph-name="uni04AF" unicode="&#x4af;" horiz-adv-x="1105" 
d="M1087 1001l-374 -1007v-400h-320v406l-375 1001h334l201 -655h2l197 655h335z" />
    <glyph glyph-name="uni04B0" unicode="&#x4b0;" horiz-adv-x="1302" 
d="M1300 1454l-419 -721h237v-239h-295v-494h-348v494h-291v239h234l-416 721h391l256 -483h4l252 483h395z" />
    <glyph glyph-name="uni04B1" unicode="&#x4b1;" horiz-adv-x="1105" 
d="M1087 1001l-313 -813h182v-188h-243v-406h-320v406h-250v188h189l-314 813h334l201 -655h2l197 655h335z" />
    <glyph glyph-name="uni04B2" unicode="&#x4b2;" horiz-adv-x="1544" 
d="M1221 305h254v-586h-279l-16 281h-168l-289 469h-6l-291 -469h-395l465 731l-447 723h395l279 -461h6l281 461h387l-447 -723z" />
    <glyph glyph-name="uni04B3" unicode="&#x4b3;" horiz-adv-x="1134" 
d="M879 264h225v-524h-262l-19 260h-114l-170 250h-2l-172 -250h-345l338 516l-331 485h360l148 -247h2l151 247h359l-332 -487z" />
    <glyph glyph-name="uni04B4" unicode="&#x4b4;" horiz-adv-x="1789" 
d="M1540 305h207v-586h-281l-16 281h-1040v1155h-381v301h1003v-301h-276v-850h440v1149h344v-1149z" />
    <glyph glyph-name="uni04B5" unicode="&#x4b5;" horiz-adv-x="1460" 
d="M1430 260v-520h-265l-18 260h-846v741h-270v260h805v-260h-213v-481h313v741h319v-741h175z" />
    <glyph glyph-name="uni04B6" unicode="&#x4b6;" horiz-adv-x="1449" 
d="M1198 305h207v-586h-281l-16 281h-254v526q-67 -31 -159.5 -50t-182.5 -19q-416 0 -416 467v530h346v-487q0 -118 44 -160.5t155 -42.5q120 0 213 45v645h344v-1149z" />
    <glyph glyph-name="uni04B7" unicode="&#x4b7;" horiz-adv-x="1202" 
d="M993 260h178v-520h-264l-18 260h-217v332q-118 -56 -254 -56q-355 0 -355 365v360h322v-303q0 -88 34.5 -119.5t100.5 -31.5q79 0 152 33v421h321v-741z" />
    <glyph glyph-name="uni04B8" unicode="&#x4b8;" horiz-adv-x="1404" 
d="M936 1454h336v-1454h-344v532q-45 -19 -121 -36v-265h-221v232q-27 -2 -74 -2q-416 0 -416 463v530h340v-502q0 -103 33.5 -147t116.5 -53v272h221v-266q81 11 129 28v668z" />
    <glyph glyph-name="uni04B9" unicode="&#x4b9;" horiz-adv-x="1159" 
d="M731 1001h318v-1001h-318v340q-35 -15 -78 -27v-196h-168v168q-50 -4 -67 -4q-355 0 -355 360v360h316v-311q0 -77 27 -109.5t79 -39.5v233h168v-221q52 11 78 22v426z" />
    <glyph glyph-name="uni04BA" unicode="&#x4ba;" horiz-adv-x="1345" 
d="M834 1010q215 0 315 -118.5t100 -350.5v-541h-344v508q0 110 -47.5 152t-155.5 42t-225 -51v-651h-346v1454h346v-526q74 35 171.5 58.5t185.5 23.5z" />
    <glyph glyph-name="uni04BB" unicode="&#x4bb;" horiz-adv-x="1202" 
d="M111 0v1507h319v-618l4 -2q118 133 309 133q361 0 361 -416v-604h-320v524q0 118 -40 164.5t-128 46.5q-87 0 -136.5 -57.5t-49.5 -171.5v-506h-319z" />
    <glyph glyph-name="uni04BC" unicode="&#x4bc;" horiz-adv-x="1839" 
d="M1774 780q0 -70 -11 -149h-1056q24 -163 129.5 -248.5t269.5 -85.5q120 0 215.5 43t159.5 115l245 -201q-98 -121 -262 -196.5t-377 -75.5q-322 0 -514 177t-219 472q-372 7 -372 278q0 94 34 195l252 -27q-20 -59 -20 -100q0 -22 6.5 -37t16 -24t26 -14t31.5 -6.5
t37 -2.5q45 268 228 425t472 157q162 0 296 -52.5t224 -145t139.5 -220.5t49.5 -277zM1071 1176q-138 0 -234 -70t-126 -199h710q-22 121 -115 195t-235 74z" />
    <glyph glyph-name="uni04BD" unicode="&#x4bd;" horiz-adv-x="1327" 
d="M1268 512q0 -36 -6 -96h-687q15 -84 79.5 -129t162.5 -45q142 3 236 108l184 -188q-145 -180 -451 -180q-204 0 -345.5 116.5t-172.5 309.5q-288 3 -288 215q0 71 28 151l195 -20q-17 -56 -17 -80q0 -38 22.5 -51t63.5 -13q34 185 171 297.5t335 112.5q140 1 252 -63.5
t175 -181.5t63 -263zM774 766q-75 0 -128 -42.5t-68 -117.5h378q-15 74 -63 117t-119 43z" />
    <glyph glyph-name="uni04BE" unicode="&#x4be;" horiz-adv-x="1839" 
d="M1774 780q0 -70 -11 -149h-1056q24 -163 129.5 -248.5t269.5 -85.5q120 0 215.5 43t159.5 115l245 -201q-82 -100 -210 -171t-293 -93l-9 -271h-278l-8 275q-252 42 -401 212t-173 425q-372 7 -372 278q0 94 34 195l252 -27q-20 -59 -20 -100q0 -22 6.5 -37t16 -24
t26 -14t31.5 -6.5t37 -2.5q45 268 228 425t472 157q162 0 296 -52.5t224 -145t139.5 -220.5t49.5 -277zM1071 1176q-138 0 -234 -70t-126 -199h710q-22 121 -115 195t-235 74z" />
    <glyph glyph-name="uni04BF" unicode="&#x4bf;" horiz-adv-x="1327" 
d="M1268 512q0 -36 -6 -96h-687q15 -84 79.5 -129t162.5 -45q142 3 236 108l184 -188q-111 -134 -307 -168l-10 -254h-263l-10 258q-152 35 -253 144t-126 266q-288 3 -288 215q0 71 28 151l195 -20q-17 -56 -17 -80q0 -38 22.5 -51t63.5 -13q34 185 171 297.5t335 112.5
q140 1 252 -63.5t175 -181.5t63 -263zM774 766q-75 0 -128 -42.5t-68 -117.5h378q-15 74 -63 117t-119 43z" />
    <glyph glyph-name="uni04C0" unicode="&#x4c0;" horiz-adv-x="630" 
d="M139 0v1454h350v-1454h-350z" />
    <glyph glyph-name="uni04C1" unicode="&#x4c1;" horiz-adv-x="2004" 
d="M997 1548q-160 0 -251 72t-125 217l253 25q27 -129 125 -129q96 0 123 129l254 -25q-65 -289 -379 -289zM16 0l449 801l-440 653h409l393 -616l4 2v614h330v-616l4 -2l385 618h410l-432 -647l461 -807h-410l-328 602l-90 -125v-477h-330v479l-90 125l-325 -604h-400z" />
    <glyph glyph-name="uni04C2" unicode="&#x4c2;" horiz-adv-x="1626" 
d="M815 1110q-160 0 -251.5 73t-125.5 218l254 43q24 -148 125 -148q99 0 123 148l254 -43q-66 -291 -379 -291zM8 0l348 537l-342 464h365l274 -413h4v413h306v-421h4l266 421h360l-331 -462l356 -539h-352l-228 365l-75 -80v-285h-306v287l-73 80l-226 -367h-350z" />
    <glyph glyph-name="uni04C3" unicode="&#x4c3;" horiz-adv-x="1378" 
d="M807 819q224 -28 346.5 -186t122.5 -418q0 -311 -141.5 -472t-395.5 -161q-90 0 -172 19l23 260q66 -8 94 -8q110 0 176 86t66 251q0 176 -79.5 266.5t-211.5 90.5q-71 0 -162 -31v-516h-342v1454h342v-557h6l420 557h432z" />
    <glyph glyph-name="uni04C4" unicode="&#x4c4;" horiz-adv-x="1124" 
d="M739 547q99 -18 175.5 -74.5t123 -156t47.5 -228.5q1 -259 -122.5 -385.5t-339.5 -126.5q-80 0 -150 18l21 242q58 -8 75 -8q93 0 144 62.5t51 177.5q0 112 -52.5 176.5t-142.5 64.5q-73 0 -143 -24v-285h-315v1001h315v-397h4l313 397h373z" />
    <glyph glyph-name="uni04C5" unicode="&#x4c5;" horiz-adv-x="1591" 
d="M1362 305h233v-96l-182 -490h-237l73 281h-231v1147h-303q-22 -476 -58 -674q-42 -244 -145 -364.5t-309 -120.5q-113 0 -180 26l22 287q45 -10 82 -10q90 0 137 85.5t74 254.5q8 46 14 96t10.5 115.5t7.5 109t6 128t4 117.5t3.5 133.5t3.5 123.5h975v-1149z" />
    <glyph glyph-name="uni04C6" unicode="&#x4c6;" horiz-adv-x="1277" 
d="M1067 266h215v-53l-182 -473h-223l71 260h-203v741h-180q-14 -268 -41 -399q-36 -176 -122.5 -265t-249.5 -89q-72 0 -121 18l12 273q27 -9 51 -9q116 0 150 211q24 145 28 520h795v-735z" />
    <glyph glyph-name="uni04C7" unicode="&#x4c7;" horiz-adv-x="1464" 
d="M1333 1454v-1456q0 -114 -31.5 -197t-89.5 -131.5t-133 -71t-170 -22.5q-85 0 -204 25l24 258q55 -15 105 -15q77 0 115 39.5t38 110.5v555h-510v-549h-346v1454h346v-602h510v602h346z" />
    <glyph glyph-name="uni04C8" unicode="&#x4c8;" horiz-adv-x="1177" 
d="M748 1001h321v-1007q0 -218 -92.5 -318t-292.5 -100q-93 0 -174 31l25 233q46 -14 83 -14q69 0 99.5 38.5t30.5 119.5v374h-318v-358h-319v1001h319v-385h318v385z" />
    <glyph glyph-name="uni04C9" unicode="&#x4c9;" horiz-adv-x="1560" 
d="M1333 305h234v-96l-183 -490h-237l74 281h-232v549h-512v-549h-346v1454h346v-602h512v602h344v-1149z" />
    <glyph glyph-name="uni04CA" unicode="&#x4ca;" horiz-adv-x="1277" 
d="M1069 266h215v-53l-182 -473h-223l71 260h-202v358h-318v-358h-319v1001h319v-385h318v385h321v-735z" />
    <glyph glyph-name="uni04CB" unicode="&#x4cb;" horiz-adv-x="1331" 
d="M854 1454h344v-1454h-254l-18 -281h-279v545h207v262q-67 -31 -159.5 -50t-182.5 -19q-416 0 -416 467v530h346v-487q0 -118 44 -160.5t155 -42.5q120 0 213 45v645z" />
    <glyph glyph-name="uni04CC" unicode="&#x4cc;" horiz-adv-x="1101" 
d="M672 1001h321v-1001h-207l-24 -260h-264v418h174v174q-118 -56 -254 -56q-355 0 -355 365v360h322v-303q0 -88 34.5 -119.5t100.5 -31.5q79 0 152 33v421z" />
    <glyph glyph-name="uni04CD" unicode="&#x4cd;" horiz-adv-x="1857" 
d="M1630 305h234v-96l-183 -490h-237l74 281h-228v801h-4l-295 -533h-219l-295 535h-6v-803h-338v1454h344l404 -772h4l399 772h346v-1149z" />
    <glyph glyph-name="uni04CE" unicode="&#x4ce;" horiz-adv-x="1497" 
d="M1286 266h215v-53l-182 -473h-223l71 260h-184v504l-4 2l-174 -332h-215l-172 330h-4v-504h-303v1001h307l278 -536h4l277 536h309v-735z" />
    <glyph glyph-name="uni04CF" unicode="&#x4cf;" horiz-adv-x="561" 
d="M121 0v1507h319v-1507h-319z" />
    <glyph glyph-name="uni04D0" unicode="&#x4d0;" horiz-adv-x="1421" 
d="M711 1548q-160 0 -251.5 72t-125.5 217l254 25q27 -129 125 -129q96 0 123 129l254 -25q-65 -289 -379 -289zM12 0l535 1454h327l533 -1454h-356l-86 262h-508l-86 -262h-359zM549 549h325l-161 491h-4z" />
    <glyph glyph-name="uni04D1" unicode="&#x4d1;" horiz-adv-x="1220" 
d="M606 1110q-160 0 -251.5 73t-125.5 218l254 43q24 -148 125 -148q99 0 123 148l254 -43q-66 -291 -379 -291zM530 -18q-207 0 -340 144t-133 374q0 228 130.5 374t326.5 146q81 0 153 -32t124 -93l4 2v104h321v-1001h-305v104l-4 2q-97 -124 -277 -124zM598 264
q89 0 150 65.5t61 170.5q0 102 -60.5 169.5t-150.5 67.5q-93 0 -154 -65.5t-61 -171.5q0 -105 59.5 -170.5t155.5 -65.5z" />
    <glyph glyph-name="uni04D2" unicode="&#x4d2;" horiz-adv-x="1421" 
d="M479 1587q-82 0 -136 52.5t-54 129.5q0 75 54 127t136 52q83 0 138 -51.5t55 -127.5q0 -78 -55 -130t-138 -52zM938 1587q-82 0 -136 52.5t-54 129.5q0 75 54 127t136 52q81 0 135.5 -52t54.5 -127q0 -78 -54 -130t-136 -52zM12 0l535 1454h327l533 -1454h-356l-86 262
h-508l-86 -262h-359zM549 549h325l-161 491h-4z" />
    <glyph glyph-name="uni04D3" unicode="&#x4d3;" horiz-adv-x="1220" 
d="M375 1128q-82 0 -136.5 53t-54.5 130q0 74 54.5 126t136.5 52q83 0 137.5 -51t54.5 -127q0 -78 -54.5 -130.5t-137.5 -52.5zM834 1128q-82 0 -136.5 53t-54.5 130q0 74 54.5 126t136.5 52q81 0 135.5 -51.5t54.5 -126.5q0 -78 -54 -130.5t-136 -52.5zM530 -18
q-207 0 -340 144t-133 374q0 228 130.5 374t326.5 146q81 0 153 -32t124 -93l4 2v104h321v-1001h-305v104l-4 2q-97 -124 -277 -124zM598 264q89 0 150 65.5t61 170.5q0 102 -60.5 169.5t-150.5 67.5q-93 0 -154 -65.5t-61 -171.5q0 -105 59.5 -170.5t155.5 -65.5z" />
    <glyph glyph-name="uni04D4" unicode="&#x4d4;" horiz-adv-x="1925" 
d="M4 0l660 1454h1157v-305h-621v-279h502v-297h-502v-268h664v-305h-994v262h-391l-114 -262h-361zM598 537h285v639h-4z" />
    <glyph glyph-name="uni04D5" unicode="&#x4d5;" horiz-adv-x="1599" 
d="M1563 506q0 -38 -9 -90h-645q21 -81 79 -125.5t153 -44.5q62 0 111 26.5t96 81.5l186 -194q-65 -82 -171 -130t-239 -48q-228 0 -350 131h-4q-59 -59 -154.5 -95t-201.5 -36q-187 0 -281 85t-94 224q0 147 100.5 229t309.5 82l151 2v8q0 83 -32.5 116.5t-102.5 33.5
q-119 0 -252 -68l-113 232q66 36 173.5 65t222.5 29q194 0 284 -119h6q125 119 316 119q202 0 331.5 -145.5t129.5 -368.5zM1087 764q-69 0 -116 -41.5t-64 -118.5h346q-15 75 -58.5 117.5t-107.5 42.5zM453 215q66 0 106.5 38.5t40.5 86.5v82l-117 -2q-141 -3 -141 -107
q0 -44 29 -71t82 -27z" />
    <glyph glyph-name="uni04D6" unicode="&#x4d6;" horiz-adv-x="1198" 
d="M612 1546q-160 0 -251 72t-125 217l253 25q27 -129 125 -129q96 0 123 129l254 -25q-65 -289 -379 -289zM131 0v1454h948v-305h-614v-279h485v-295h-485v-270h657v-305h-991z" />
    <glyph glyph-name="uni04D7" unicode="&#x4d7;" horiz-adv-x="1126" 
d="M578 1110q-160 0 -251.5 73t-125.5 218l254 43q24 -148 125 -148q98 0 122 148l254 -43q-33 -145 -125.5 -218t-252.5 -73zM1067 512q0 -36 -6 -96h-682q15 -84 79.5 -129t159.5 -45q140 3 234 108l184 -188q-145 -180 -450 -180q-229 0 -377 144.5t-148 375.5
q0 227 145 372.5t372 145.5q213 0 351 -143t138 -365zM573 766q-74 0 -125.5 -42.5t-66.5 -117.5h375q-15 74 -63.5 117t-119.5 43z" />
    <glyph glyph-name="uni04D8" unicode="&#x4d8;" horiz-adv-x="1566" 
d="M743 1475q355 0 550.5 -202t195.5 -546q0 -182 -54.5 -325t-152 -234t-227.5 -138.5t-285 -47.5q-223 0 -384 90t-241 243t-82 353q0 88 13 151h1057q-21 171 -127.5 255.5t-286.5 84.5q-197 0 -369 -108l-188 252q107 82 262.5 128t318.5 44zM766 279q147 0 241 70
t119 194h-714q12 -114 108 -189t246 -75z" />
    <glyph glyph-name="uni04D9" unicode="&#x4d9;" horiz-adv-x="1124" 
d="M520 1020q157 0 278.5 -58.5t193 -177t71.5 -282.5q0 -237 -137 -378.5t-371 -141.5q-239 0 -368.5 139t-129.5 368q0 57 11 99h684q-17 83 -85 126.5t-163 43.5q-137 0 -246 -72l-129 232q79 49 189.5 75.5t201.5 26.5zM559 236q82 0 131.5 41t61.5 118h-392
q11 -70 63 -114.5t136 -44.5z" />
    <glyph glyph-name="uni04DA" unicode="&#x4da;" horiz-adv-x="1566" 
d="M561 1587q-82 0 -136 52.5t-54 129.5q0 75 54 127t136 52q83 0 138 -51.5t55 -127.5q0 -78 -55 -130t-138 -52zM1020 1587q-83 0 -137 52.5t-54 129.5q0 75 54.5 127t136.5 52q81 0 135.5 -52t54.5 -127q0 -78 -54 -130t-136 -52zM743 1475q355 0 550.5 -202t195.5 -546
q0 -182 -54.5 -325t-152 -234t-227.5 -138.5t-285 -47.5q-223 0 -384 90t-241 243t-82 353q0 88 13 151h1057q-21 171 -127.5 255.5t-286.5 84.5q-197 0 -369 -108l-188 252q107 82 262.5 128t318.5 44zM766 279q147 0 241 70t119 194h-714q12 -114 108 -189t246 -75z" />
    <glyph glyph-name="uni04DB" unicode="&#x4db;" horiz-adv-x="1124" 
d="M350 1128q-82 0 -136 53t-54 130q0 75 54 126.5t136 51.5q83 0 138 -51.5t55 -126.5q0 -78 -55 -130.5t-138 -52.5zM809 1128q-82 0 -136.5 53t-54.5 130q0 74 54.5 126t136.5 52q81 0 135.5 -51.5t54.5 -126.5q0 -78 -54 -130.5t-136 -52.5zM520 1020q157 0 278.5 -58.5
t193 -177t71.5 -282.5q0 -237 -137 -378.5t-371 -141.5q-239 0 -368.5 139t-129.5 368q0 57 11 99h684q-17 83 -85 126.5t-163 43.5q-137 0 -246 -72l-129 232q79 49 189.5 75.5t201.5 26.5zM559 236q82 0 131.5 41t61.5 118h-392q11 -70 63 -114.5t136 -44.5z" />
    <glyph glyph-name="uni04DC" unicode="&#x4dc;" horiz-adv-x="2004" 
d="M766 1587q-83 0 -137 52.5t-54 129.5q0 75 54.5 127t136.5 52q83 0 137.5 -51.5t54.5 -127.5q0 -78 -54.5 -130t-137.5 -52zM1225 1587q-83 0 -137 52.5t-54 129.5q0 75 54.5 127t136.5 52q81 0 135.5 -52t54.5 -127q0 -78 -54 -130t-136 -52zM16 0l449 801l-440 653h409
l393 -616l4 2v614h330v-616l4 -2l385 618h410l-432 -647l461 -807h-410l-328 602l-90 -125v-477h-330v479l-90 125l-325 -604h-400z" />
    <glyph glyph-name="uni04DD" unicode="&#x4dd;" horiz-adv-x="1626" 
d="M584 1128q-82 0 -136.5 53t-54.5 130q0 74 54.5 126t136.5 52q83 0 137.5 -51t54.5 -127q0 -78 -54.5 -130.5t-137.5 -52.5zM1042 1128q-82 0 -136 53t-54 130q0 75 54 126.5t136 51.5q81 0 136 -51.5t55 -126.5q0 -78 -54.5 -130.5t-136.5 -52.5zM8 0l348 537l-342 464
h365l274 -413h4v413h306v-421h4l266 421h360l-331 -462l356 -539h-352l-228 365l-75 -80v-285h-306v287l-73 80l-226 -367h-350z" />
    <glyph glyph-name="uni04DE" unicode="&#x4de;" horiz-adv-x="1259" 
d="M395 1587q-82 0 -136 52.5t-54 129.5q0 75 54 127t136 52q83 0 138 -51.5t55 -127.5q0 -78 -55 -130t-138 -52zM854 1587q-82 0 -136 52.5t-54 129.5q0 75 54 127t136 52q81 0 135.5 -52t54.5 -127q0 -78 -54 -130t-136 -52zM604 -18q-362 0 -561 219l205 256
q142 -160 364 -160q108 0 168 42.5t60 117.5q0 147 -228 147h-223v281h189q102 0 154 38.5t52 106.5q0 133 -192 133q-162 0 -313 -110l-166 262q92 75 223.5 117.5t275.5 42.5q245 0 381.5 -97t136.5 -260q0 -104 -56 -195.5t-169 -138.5v-4q143 -36 216 -127t73 -225
q0 -204 -154 -325t-436 -121z" />
    <glyph glyph-name="uni04DF" unicode="&#x4df;" horiz-adv-x="1009" 
d="M289 1126q-82 0 -136.5 53t-54.5 130q0 74 54.5 126t136.5 52q83 0 137.5 -51t54.5 -127q0 -78 -54.5 -130.5t-137.5 -52.5zM748 1126q-82 0 -136.5 53t-54.5 130q0 74 54.5 126t136.5 52q81 0 135.5 -51.5t54.5 -126.5q0 -78 -54 -130.5t-136 -52.5zM494 -20
q-154 0 -255.5 24t-193.5 74l90 260q65 -49 154.5 -74.5t177.5 -25.5q162 0 162 88q0 75 -144 75h-192v207h166q64 0 96.5 19.5t32.5 52.5q0 78 -135 78q-139 0 -256 -60l-125 232q63 35 173.5 62.5t237.5 27.5q198 0 311 -66.5t113 -187.5q0 -71 -41.5 -134t-124.5 -95v-2
q103 -26 159 -92t56 -154q0 -149 -122 -229t-340 -80z" />
    <glyph glyph-name="uni04E0" unicode="&#x4e0;" horiz-adv-x="1226" 
d="M774 887q107 -7 190 -48t130.5 -103t71.5 -132t24 -143q0 -227 -159 -354t-423 -127q-360 0 -565 221l199 256q80 -86 178 -124t194 -38q101 0 160.5 44t59.5 126t-71.5 124t-236.5 42h-176l-2 155l336 359l-4 6h-545v303h981v-211z" />
    <glyph glyph-name="uni04E1" unicode="&#x4e1;" horiz-adv-x="970" 
d="M393 -424q-217 0 -389 96l72 271q153 -93 295 -93q103 0 166 49.5t63 145.5q0 211 -336 211h-82v145l279 338v4h-412v258h807v-176l-299 -356v-2q367 -91 367 -434q-1 -97 -32.5 -178t-94 -144.5t-166 -99t-238.5 -35.5z" />
    <glyph glyph-name="uni04E2" unicode="&#x4e2;" horiz-adv-x="1484" 
d="M426 1591v234h641v-234h-641zM131 0v1454h342v-901h4l553 901h324v-1454h-342v879l-4 2l-545 -881h-332z" />
    <glyph glyph-name="uni04E3" unicode="&#x4e3;" horiz-adv-x="1196" 
d="M287 1174v245h641v-245h-641zM111 0v1001h315v-587l4 -2l350 589h305v-1001h-315v551l-4 2l-346 -553h-309z" />
    <glyph glyph-name="uni04E4" unicode="&#x4e4;" horiz-adv-x="1484" 
d="M516 1587q-82 0 -136 52.5t-54 129.5q0 75 54 127t136 52q83 0 138 -51.5t55 -127.5q0 -78 -55 -130t-138 -52zM975 1587q-83 0 -137 52.5t-54 129.5q0 75 54.5 127t136.5 52q81 0 135.5 -52t54.5 -127q0 -78 -54 -130t-136 -52zM131 0v1454h342v-901h4l553 901h324
v-1454h-342v879l-4 2l-545 -881h-332z" />
    <glyph glyph-name="uni04E5" unicode="&#x4e5;" horiz-adv-x="1196" 
d="M377 1128q-82 0 -136.5 53t-54.5 130q0 74 54.5 126t136.5 52q83 0 137.5 -51t54.5 -127q0 -78 -54.5 -130.5t-137.5 -52.5zM836 1128q-82 0 -136.5 53t-54.5 130q0 74 54.5 126t136.5 52q81 0 135.5 -51.5t54.5 -126.5q0 -78 -54 -130.5t-136 -52.5zM111 0v1001h315
v-587l4 -2l350 589h305v-1001h-315v551l-4 2l-346 -553h-309z" />
    <glyph glyph-name="uni04E6" unicode="&#x4e6;" horiz-adv-x="1654" 
d="M598 1587q-82 0 -136 52.5t-54 129.5q0 75 54 127t136 52q83 0 138 -51.5t55 -127.5q0 -78 -55 -130t-138 -52zM1057 1587q-83 0 -137 52.5t-54 129.5q0 75 54.5 127t136.5 52q81 0 135.5 -52t54.5 -127q0 -78 -54 -130t-136 -52zM827 -18q-218 0 -389 94.5t-265.5 264
t-94.5 386.5q0 162 55.5 301t153 237.5t237.5 154t303 55.5q161 0 299.5 -54.5t237.5 -151.5t155 -237t56 -305q0 -219 -96 -389t-266.5 -263t-385.5 -93zM827 299q168 0 279 123t111 305t-111 305t-279 123q-170 0 -280.5 -123.5t-110.5 -304.5t110.5 -304.5t280.5 -123.5z
" />
    <glyph glyph-name="uni04E7" unicode="&#x4e7;" horiz-adv-x="1206" 
d="M373 1128q-82 0 -136.5 53t-54.5 130q0 74 54.5 126t136.5 52q83 0 137.5 -51t54.5 -127q0 -78 -54.5 -130.5t-137.5 -52.5zM831 1128q-82 0 -136 53t-54 130q0 75 54 126.5t136 51.5q81 0 136 -51.5t55 -126.5q0 -78 -54.5 -130.5t-136.5 -52.5zM604 -18
q-242 0 -392.5 145t-150.5 373q0 230 150.5 375t392.5 145q237 0 389 -144.5t152 -375.5q0 -229 -152 -373.5t-389 -144.5zM604 264q92 0 154.5 67t62.5 169q0 104 -61.5 169.5t-155.5 65.5q-97 0 -158 -66t-61 -169q0 -100 62 -168t157 -68z" />
    <glyph glyph-name="uni04E8" unicode="&#x4e8;" horiz-adv-x="1654" 
d="M827 1475q161 0 299.5 -54.5t237.5 -151.5t155 -237t56 -305q0 -219 -96 -389.5t-266.5 -264t-385.5 -93.5q-218 0 -389 95t-265.5 265t-94.5 387q0 162 55.5 301t153 237.5t237.5 154t303 55.5zM827 1169q-151 0 -257.5 -84.5t-135.5 -226.5h785q-29 143 -135 227
t-257 84zM827 285q149 0 254 82t136 223h-781q31 -140 136 -222.5t255 -82.5z" />
    <glyph glyph-name="uni04E9" unicode="&#x4e9;" horiz-adv-x="1206" 
d="M604 1020q239 0 390 -143.5t151 -374.5t-151.5 -376.5t-389.5 -145.5q-242 0 -392.5 145.5t-150.5 376.5q0 229 150.5 373.5t392.5 144.5zM604 766q-88 0 -145.5 -43t-75.5 -113h444q-20 70 -77.5 113t-145.5 43zM604 236q90 0 149 45t74 118h-444q16 -73 73.5 -118
t147.5 -45z" />
    <glyph glyph-name="uni04EA" unicode="&#x4ea;" horiz-adv-x="1654" 
d="M598 1587q-82 0 -136 52.5t-54 129.5q0 75 54 127t136 52q83 0 138 -51.5t55 -127.5q0 -78 -55 -130t-138 -52zM1057 1587q-83 0 -137 52.5t-54 129.5q0 75 54.5 127t136.5 52q81 0 135.5 -52t54.5 -127q0 -78 -54 -130t-136 -52zM827 1475q161 0 299.5 -54.5
t237.5 -151.5t155 -237t56 -305q0 -219 -96 -389.5t-266.5 -264t-385.5 -93.5q-218 0 -389 95t-265.5 265t-94.5 387q0 162 55.5 301t153 237.5t237.5 154t303 55.5zM827 1169q-151 0 -257.5 -84.5t-135.5 -226.5h785q-29 143 -135 227t-257 84zM827 285q149 0 254 82
t136 223h-781q31 -140 136 -222.5t255 -82.5z" />
    <glyph glyph-name="uni04EB" unicode="&#x4eb;" horiz-adv-x="1206" 
d="M373 1128q-82 0 -136.5 53t-54.5 130q0 74 54.5 126t136.5 52q83 0 137.5 -51t54.5 -127q0 -78 -54.5 -130.5t-137.5 -52.5zM831 1128q-82 0 -136 53t-54 130q0 75 54 126.5t136 51.5q81 0 136 -51.5t55 -126.5q0 -78 -54.5 -130.5t-136.5 -52.5zM604 1020
q239 0 390 -143.5t151 -374.5t-151.5 -376.5t-389.5 -145.5q-242 0 -392.5 145.5t-150.5 376.5q0 229 150.5 373.5t392.5 144.5zM604 766q-88 0 -145.5 -43t-75.5 -113h444q-20 70 -77.5 113t-145.5 43zM604 236q90 0 149 45t74 118h-444q16 -73 73.5 -118t147.5 -45z" />
    <glyph glyph-name="uni04EC" unicode="&#x4ec;" horiz-adv-x="1449" 
d="M453 1587q-83 0 -137 52.5t-54 129.5q0 75 54.5 127t136.5 52q83 0 137.5 -51.5t54.5 -127.5q0 -78 -54.5 -130t-137.5 -52zM911 1587q-82 0 -136 52.5t-54 129.5q0 75 54 127t136 52q81 0 136 -52t55 -127q0 -78 -54.5 -130t-136.5 -52zM629 1475q176 0 317 -55.5
t234 -155t142.5 -237t49.5 -302.5q0 -186 -55.5 -330t-154.5 -233t-228.5 -134.5t-284.5 -45.5q-172 0 -333.5 54.5t-266.5 162.5l187 258q158 -158 409 -158q165 0 261 77.5t122 213.5h-616l2 278h610q-32 136 -135 212t-262 77q-194 0 -353 -108l-188 251
q100 78 248.5 126.5t294.5 48.5z" />
    <glyph glyph-name="uni04ED" unicode="&#x4ed;" horiz-adv-x="1067" 
d="M283 1128q-82 0 -136.5 53t-54.5 130q0 74 54.5 126t136.5 52q83 0 137.5 -51t54.5 -127q0 -78 -54.5 -130.5t-137.5 -52.5zM741 1128q-82 0 -136 53t-54 130q0 75 54 126.5t136 51.5q81 0 136 -51.5t55 -126.5q0 -78 -54.5 -130.5t-136.5 -52.5zM467 1020
q244 0 391.5 -142t147.5 -380q0 -234 -139.5 -375t-391.5 -141q-269 0 -442 122l153 234q63 -46 127 -68.5t150 -21.5q204 0 231 158h-415v196h413q-17 74 -78.5 113t-156.5 41q-136 0 -250 -70l-135 229q163 105 395 105z" />
    <glyph glyph-name="uni04EE" unicode="&#x4ee;" horiz-adv-x="1347" 
d="M993 1825v-234h-641v234h641zM963 1454h383l-480 -1094q-24 -55 -39.5 -88t-40.5 -78t-47 -71.5t-53.5 -56.5t-65.5 -46t-79 -27t-97 -11q-83 0 -162 18.5t-126 50.5l112 291q80 -45 152 -45q110 0 151 141l-563 1016h391l314 -633h6z" />
    <glyph glyph-name="uni04EF" unicode="&#x4ef;" horiz-adv-x="1097" 
d="M231 1174v245h641v-245h-641zM238 -406l172 474l-392 933h342l201 -538h6l193 538h319l-526 -1407h-315z" />
    <glyph glyph-name="uni04F0" unicode="&#x4f0;" horiz-adv-x="1347" 
d="M442 1587q-82 0 -136 52.5t-54 129.5q0 75 54 127t136 52q83 0 138 -51.5t55 -127.5q0 -78 -55 -130t-138 -52zM901 1587q-82 0 -136 52.5t-54 129.5q0 75 54 127t136 52q81 0 136 -52t55 -127q0 -78 -54.5 -130t-136.5 -52zM963 1454h383l-480 -1094q-24 -55 -39.5 -88
t-40.5 -78t-47 -71.5t-53.5 -56.5t-65.5 -46t-79 -27t-97 -11q-83 0 -162 18.5t-126 50.5l112 291q80 -45 152 -45q110 0 151 141l-563 1016h391l314 -633h6z" />
    <glyph glyph-name="uni04F1" unicode="&#x4f1;" horiz-adv-x="1097" 
d="M322 1128q-82 0 -136.5 53t-54.5 130q0 74 54.5 126t136.5 52q83 0 137.5 -51t54.5 -127q0 -78 -54.5 -130.5t-137.5 -52.5zM780 1128q-82 0 -136 53t-54 130q0 75 54 126.5t136 51.5q81 0 136 -51.5t55 -126.5q0 -78 -54.5 -130.5t-136.5 -52.5zM238 -406l172 474
l-392 933h342l201 -538h6l193 538h319l-526 -1407h-315z" />
    <glyph glyph-name="uni04F2" unicode="&#x4f2;" horiz-adv-x="1347" 
d="M850 1907l-252 -308h-291l225 306zM1053 1599h-291l225 306l318 2zM963 1454h383l-480 -1094q-24 -55 -39.5 -88t-40.5 -78t-47 -71.5t-53.5 -56.5t-65.5 -46t-79 -27t-97 -11q-83 0 -162 18.5t-126 50.5l112 291q80 -45 152 -45q110 0 151 141l-563 1016h391l314 -633h6
z" />
    <glyph glyph-name="uni04F3" unicode="&#x4f3;" horiz-adv-x="1097" 
d="M139 1141l226 305l317 2l-252 -307h-291zM594 1141l225 305l318 2l-252 -307h-291zM238 -406l172 474l-392 933h342l201 -538h6l193 538h319l-526 -1407h-315z" />
    <glyph glyph-name="uni04F4" unicode="&#x4f4;" horiz-adv-x="1331" 
d="M434 1587q-82 0 -136 52.5t-54 129.5q0 75 54 127t136 52q83 0 138 -51.5t55 -127.5q0 -78 -55 -130t-138 -52zM893 1587q-83 0 -137 52.5t-54 129.5q0 75 54.5 127t136.5 52q81 0 135.5 -52t54.5 -127q0 -78 -54 -130t-136 -52zM854 1454h344v-1454h-344v526
q-67 -31 -159.5 -50t-182.5 -19q-416 0 -416 467v530h346v-487q0 -118 44 -160.5t155 -42.5q120 0 213 45v645z" />
    <glyph glyph-name="uni04F5" unicode="&#x4f5;" horiz-adv-x="1101" 
d="M305 1128q-82 0 -136 53t-54 130q0 75 54 126.5t136 51.5q83 0 138 -51.5t55 -126.5q0 -78 -55 -130.5t-138 -52.5zM764 1128q-82 0 -136.5 53t-54.5 130q0 74 54.5 126t136.5 52q81 0 135.5 -51.5t54.5 -126.5q0 -78 -54 -130.5t-136 -52.5zM672 1001h321v-1001h-321
v332q-118 -56 -254 -56q-355 0 -355 365v360h322v-303q0 -88 34.5 -119.5t100.5 -31.5q79 0 152 33v421z" />
    <glyph glyph-name="uni04F6" unicode="&#x4f6;" horiz-adv-x="1148" 
d="M1092 1149h-611v-844h207v-586h-280l-17 281h-260v1454h961v-305z" />
    <glyph glyph-name="uni04F7" unicode="&#x4f7;" horiz-adv-x="878" 
d="M840 741h-410v-475h174v-526h-264l-18 260h-211v1001h729v-260z" />
    <glyph glyph-name="uni04F8" unicode="&#x4f8;" horiz-adv-x="1822" 
d="M680 1587q-83 0 -137 52.5t-54 129.5q0 75 54.5 127t136.5 52q83 0 137.5 -51.5t54.5 -127.5q0 -78 -54.5 -130t-137.5 -52zM1139 1587q-83 0 -137 52.5t-54 129.5q0 75 54.5 127t136.5 52q81 0 135.5 -52t54.5 -127q0 -78 -54 -130t-136 -52zM131 0v1454h338v-500h201
q277 0 406.5 -116t129.5 -340q0 -122 -26 -209.5t-87.5 -154.5t-171.5 -100.5t-270 -33.5h-520zM1346 0v1454h344v-1454h-344zM469 297h193q190 0 190 182q0 178 -190 178h-193v-360z" />
    <glyph glyph-name="uni04F9" unicode="&#x4f9;" horiz-adv-x="1542" 
d="M543 1128q-82 0 -136.5 53t-54.5 130q0 74 54.5 126t136.5 52q83 0 137.5 -51t54.5 -127q0 -78 -54.5 -130.5t-137.5 -52.5zM1001 1128q-82 0 -136 53t-54 130q0 75 54 126.5t136 51.5q81 0 136 -51.5t55 -126.5q0 -78 -54.5 -130.5t-136.5 -52.5zM111 0v1001h315v-260
h127q235 0 338.5 -92t103.5 -264q0 -187 -106 -286t-346 -99h-432zM1112 0v1001h322v-1001h-322zM406 254h116q148 0 148 125q0 121 -140 121h-124v-246z" />
    <glyph glyph-name="uni04FA" unicode="&#x4fa;" horiz-adv-x="1243" 
d="M1186 1151h-617v-346h359v-238h-359v-575q0 -111 -27.5 -193t-78 -130t-115.5 -70.5t-145 -22.5q-70 0 -189 25l25 258q49 -15 82 -15q54 0 78 32.5t24 98.5v592h-192v238h192v377h2v272h961v-303z" />
    <glyph glyph-name="uni04FB" unicode="&#x4fb;" horiz-adv-x="892" 
d="M854 741h-410v-225h281v-190h-281v-338q0 -213 -85 -312.5t-267 -99.5q-94 0 -168 31l23 233q41 -12 71 -12q105 0 105 149v349h-135v190h135v483h2v2h729v-260z" />
    <glyph glyph-name="uni04FC" unicode="&#x4fc;" horiz-adv-x="1427" 
d="M930 -424q-100 0 -203 25l23 258q58 -15 104 -15q69 0 106 32t37 87q0 89 -75 205l-199 301h-6l-291 -469h-395l465 731l-447 723h395l279 -461h6l281 461h387l-447 -723l271 -399q70 -106 100.5 -188t30.5 -167q0 -196 -115.5 -298.5t-306.5 -102.5z" />
    <glyph glyph-name="uni04FD" unicode="&#x4fd;" horiz-adv-x="1075" 
d="M657 -424q-91 0 -172 31l25 233q49 -14 86 -14q56 0 88.5 31.5t32.5 87.5q0 73 -74 170l-104 135h-2l-172 -250h-345l338 516l-331 485h360l148 -247h2l151 247h359l-332 -487l180 -244q139 -194 139 -336q0 -168 -99.5 -263t-277.5 -95z" />
    <glyph glyph-name="uni04FE" unicode="&#x4fe;" horiz-adv-x="1445" 
d="M1014 586l401 -586h-403l-289 469h-6l-291 -469h-395l401 586h-239v237h258l-402 631h395l279 -481h6l281 481h387l-406 -631h264v-237h-241z" />
    <glyph glyph-name="uni04FF" unicode="&#x4ff;" horiz-adv-x="1075" 
d="M770 387l283 -387h-344l-170 250h-2l-172 -250h-345l281 387h-170v188h199l-303 426h360l148 -272h2l151 272h359l-302 -426h197v-188h-172z" />
    <glyph glyph-name="uni0510" unicode="&#x510;" horiz-adv-x="1249" 
d="M631 -18q-139 -1 -248.5 30t-177.5 87t-103 127.5t-36 154.5q-1 140 86.5 237.5t214.5 122.5l-2 4q-98 44 -167.5 141.5t-72.5 219.5q-2 168 131.5 268t368.5 101q152 1 286.5 -45t231.5 -123l-189 -260q-132 118 -303 118q-86 -2 -134 -37t-48 -98q0 -65 54 -105
t139 -40h202v-281h-219q-108 0 -167.5 -42t-57.5 -113q0 -68 60.5 -109t174.5 -41q99 0 180 33.5t154 126.5l236 -236q-99 -125 -255.5 -183t-338.5 -58z" />
    <glyph glyph-name="uni0511" unicode="&#x511;" horiz-adv-x="1007" 
d="M516 -20q-227 0 -345 72.5t-118 203.5q0 91 61 156t156 86v2q-80 37 -127 103.5t-47 144.5q1 133 109.5 202.5t310.5 69.5q132 0 243.5 -28.5t172.5 -69.5l-141 -228q-108 68 -232 68q-27 0 -51 -3.5t-46.5 -11.5t-36 -24.5t-13.5 -38.5q0 -35 33 -54.5t98 -19.5h172
v-209h-185q-66 0 -104.5 -23t-38.5 -59q0 -79 154 -79q183 0 311 100l121 -254q-93 -53 -198.5 -79.5t-258.5 -26.5z" />
    <glyph glyph-name="uni0512" unicode="&#x512;" horiz-adv-x="1495" 
d="M1362 1454v-1456q0 -114 -31.5 -197t-89.5 -131.5t-133 -71t-170 -22.5q-86 0 -205 25l25 258q56 -15 104 -15q77 0 115.5 39.5t38.5 110.5v1153h-301q-22 -476 -58 -674q-42 -244 -145 -364.5t-309 -120.5q-113 0 -180 26l22 287q45 -10 82 -10q90 0 137 85.5t74 254.5
q8 46 14 96t10.5 115.5t7.5 109t6 128t4 117.5t3.5 133.5t3.5 123.5h975z" />
    <glyph glyph-name="uni0513" unicode="&#x513;" horiz-adv-x="1177" 
d="M272 1001h795v-1007q0 -218 -92.5 -318t-292.5 -100q-93 0 -174 31l24 233q46 -14 84 -14q69 0 99 38.5t30 119.5v757h-180q-14 -268 -41 -399q-36 -176 -122.5 -265t-249.5 -89q-72 0 -121 18l12 273q27 -9 51 -9q116 0 150 211q24 145 28 520z" />
    <glyph glyph-name="uni051A" unicode="&#x51a;" horiz-adv-x="1677" 
d="M1616 172l-172 -221l-174 160q-186 -129 -441 -129q-219 0 -390.5 94.5t-266 264t-94.5 386.5q0 162 55.5 301t153.5 237.5t238 154t304 55.5q215 0 385 -93.5t265.5 -264t95.5 -390.5q0 -236 -113 -420zM436 727q0 -187 111.5 -309.5t281.5 -122.5q113 0 207 59
l-127 115l146 172l125 -111q39 92 39 197q0 181 -109.5 304.5t-280.5 123.5q-170 0 -281.5 -122t-111.5 -306z" />
    <glyph glyph-name="uni051B" unicode="&#x51b;" horiz-adv-x="1236" 
d="M809 -406v504l-4 2q-95 -118 -273 -118q-207 0 -339 144t-132 374q0 228 130 374t327 146q175 0 285 -125h4v106h321v-1407h-319zM600 264q95 0 157 65t62 171q0 103 -62 170t-157 67q-93 0 -154 -65.5t-61 -171.5q0 -105 60.5 -170.5t154.5 -65.5z" />
    <glyph glyph-name="uni051C" unicode="&#x51c;" horiz-adv-x="2099" 
d="M487 0l-456 1454h366l244 -893h6l223 893h361l221 -891h6l246 891h364l-456 -1454h-314l-241 954h-4l-252 -954h-314z" />
    <glyph glyph-name="uni051D" unicode="&#x51d;" horiz-adv-x="1568" 
d="M360 0l-337 1001h319l164 -542h2l151 542h248l152 -542h4l166 542h317l-340 -1001h-258l-164 582h-2l-159 -582h-263z" />
    <glyph glyph-name="uni0524" unicode="&#x524;" horiz-adv-x="1521" 
d="M1272 305h207v-586h-281l-16 281h-256v1147h-449v-1147h-346v1454h1141v-1149z" />
    <glyph glyph-name="uni0525" unicode="&#x525;" horiz-adv-x="1245" 
d="M1036 260h178v-520h-264l-18 260h-217v741h-285v-741h-319v1004h925v-744z" />
    <glyph glyph-name="uni0528" unicode="&#x528;" horiz-adv-x="1464" 
d="M989 1454h344v-1454h-344v549h-512v-557q0 -111 -27.5 -193t-78 -130t-115.5 -70.5t-145 -22.5q-70 0 -189 25l25 258q49 -15 82 -15q54 0 78 32.5t24 98.5v1479h346v-602h512v602z" />
    <glyph glyph-name="uni0529" unicode="&#x529;" horiz-adv-x="1177" 
d="M748 1001h321v-1001h-321v358h-316v-370q0 -213 -85 -312.5t-267 -99.5q-94 0 -168 31l22 233q41 -12 72 -12q105 0 105 149v1024h319v-2h2v-383h316v385z" />
    <glyph glyph-name="uni052E" unicode="&#x52e;" horiz-adv-x="1613" 
d="M1362 305h207v-586h-281l-16 281h-254v1147h-303q-22 -476 -58 -674q-42 -244 -145 -364.5t-309 -120.5q-113 0 -180 26l22 287q45 -10 82 -10q90 0 137 85.5t74 254.5q8 46 14 96t10.5 115.5t7.5 109t6 128t4 117.5t3.5 133.5t3.5 123.5h975v-1149z" />
    <glyph glyph-name="uni052F" unicode="&#x52f;" horiz-adv-x="1277" 
d="M1067 260h178v-520h-264l-18 260h-218v741h-180q-14 -268 -41 -399q-36 -176 -122.5 -265t-249.5 -89q-72 0 -121 18l12 273q27 -9 51 -9q116 0 150 211q24 145 28 520h795v-741z" />
    <glyph glyph-name="uni1E0C" unicode="&#x1e0c;" horiz-adv-x="1468" 
d="M131 0v1454h504q170 0 312 -53.5t239.5 -149.5t151 -231t53.5 -295t-51.5 -294t-146.5 -229.5t-236.5 -148.5t-315.5 -53h-510zM465 305h153q184 0 299 120t115 300q0 183 -111 303.5t-278 120.5h-178v-844zM690 -119q83 0 137 -52.5t54 -131.5q0 -75 -54.5 -127.5
t-136.5 -52.5t-137 52t-55 128q0 78 54.5 131t137.5 53z" />
    <glyph glyph-name="uni1E0D" unicode="&#x1e0d;" horiz-adv-x="1234" 
d="M532 -18q-208 0 -340.5 143.5t-132.5 374.5q0 228 130.5 374t326.5 146q177 0 287 -125h2v612h321v-1507h-305v106h-4q-100 -124 -285 -124zM598 264q95 0 157 65t62 171q0 103 -61.5 170t-157.5 67q-92 0 -153.5 -65.5t-61.5 -171.5q0 -105 60.5 -170.5t154.5 -65.5z
M618 -119q83 0 137 -52.5t54 -131.5q0 -75 -54.5 -127.5t-136.5 -52.5t-137 52t-55 128q0 78 54.5 131t137.5 53z" />
    <glyph glyph-name="uni1E0E" unicode="&#x1e0e;" horiz-adv-x="1468" 
d="M131 0v1454h504q170 0 312 -53.5t239.5 -149.5t151 -231t53.5 -295t-51.5 -294t-146.5 -229.5t-236.5 -148.5t-315.5 -53h-510zM465 305h153q184 0 299 120t115 300q0 183 -111 303.5t-278 120.5h-178v-844zM1012 -453h-641v246h641v-246z" />
    <glyph glyph-name="uni1E0F" unicode="&#x1e0f;" horiz-adv-x="1234" 
d="M532 -18q-208 0 -340.5 143.5t-132.5 374.5q0 228 130.5 374t326.5 146q177 0 287 -125h2v612h321v-1507h-305v106h-4q-100 -124 -285 -124zM598 264q95 0 157 65t62 171q0 103 -61.5 170t-157.5 67q-92 0 -153.5 -65.5t-61.5 -171.5q0 -105 60.5 -170.5t154.5 -65.5z
M940 -453h-641v246h641v-246z" />
    <glyph glyph-name="uni1E20" unicode="&#x1e20;" horiz-adv-x="1509" 
d="M473 1589v234h641v-234h-641zM829 -16q-158 0 -294.5 50t-238.5 142.5t-160 234t-58 314.5q0 158 50.5 295t143 238t232.5 159t311 58q163 0 322 -68t268 -193l-242 -204q-147 143 -348 143q-161 0 -270 -116t-109 -312q0 -119 45.5 -215.5t136.5 -154.5t211 -58
q134 0 252 63v172h-282v283h610v-653q-103 -79 -259.5 -128.5t-320.5 -49.5z" />
    <glyph glyph-name="uni1E21" unicode="&#x1e21;" horiz-adv-x="1216" 
d="M285 1174v245h641v-245h-641zM573 -424q-237 0 -411 96l71 260q151 -88 306 -88q125 0 193.5 54.5t68.5 136.5v92l-4 2q-108 -111 -277 -111q-202 0 -332.5 140t-130.5 354q0 221 127.5 364.5t317.5 143.5q172 0 286 -117h5v98h321v-870q0 -127 -28 -225t-89.5 -174
t-168.5 -116t-255 -40zM596 303q91 0 151 61t60 156q0 94 -60.5 154.5t-150.5 60.5q-93 0 -153 -60.5t-60 -156.5t60.5 -155.5t152.5 -59.5z" />
    <glyph glyph-name="uni1E24" unicode="&#x1e24;" horiz-adv-x="1464" 
d="M131 0v1454h346v-602h512v602h344v-1454h-344v549h-512v-549h-346zM739 -119q83 0 137 -52.5t54 -131.5q0 -75 -54.5 -127.5t-136.5 -52.5q-83 0 -137.5 52t-54.5 128q0 78 54.5 131t137.5 53z" />
    <glyph glyph-name="uni1E25" unicode="&#x1e25;" horiz-adv-x="1202" 
d="M111 0v1507h319v-618l4 -2q118 133 309 133q361 0 361 -416v-604h-320v524q0 118 -40 164.5t-128 46.5q-87 0 -136.5 -57.5t-49.5 -171.5v-506h-319zM596 -119q83 0 136.5 -52.5t53.5 -131.5q0 -75 -54 -127.5t-136 -52.5q-83 0 -138 52t-55 128q0 78 55 131t138 53z" />
    <glyph glyph-name="uni1E2A" unicode="&#x1e2a;" horiz-adv-x="1464" 
d="M131 0v1454h346v-602h512v602h344v-1454h-344v549h-512v-549h-346zM741 -479q-157 0 -250 89t-104 232h234q3 -41 36 -70.5t84 -29.5q50 0 82 28.5t37 71.5h234q-12 -150 -109.5 -235.5t-243.5 -85.5z" />
    <glyph glyph-name="uni1E2B" unicode="&#x1e2b;" horiz-adv-x="1202" 
d="M111 0v1507h319v-618l4 -2q118 133 309 133q361 0 361 -416v-604h-320v524q0 118 -40 164.5t-128 46.5q-87 0 -136.5 -57.5t-49.5 -171.5v-506h-319zM598 -479q-157 0 -250 89t-104 232h233q3 -41 36.5 -70.5t84.5 -29.5q50 0 82 28.5t37 71.5h233q-12 -150 -109 -235.5
t-243 -85.5z" />
    <glyph glyph-name="uni1E30" unicode="&#x1e30;" horiz-adv-x="1355" 
d="M446 1559l222 286h325l-258 -286h-289zM131 0v1454h342v-557h4l422 557h432l-524 -631l543 -823h-420l-348 553l-109 -133v-420h-342z" />
    <glyph glyph-name="uni1E31" unicode="&#x1e31;" horiz-adv-x="1101" 
d="M111 0v1507h315v-866h4l293 360h371l-338 -399l348 -602h-354l-224 393l-100 -110v-283h-315zM508 1124l227 306l324 2l-254 -308h-297z" />
    <glyph glyph-name="uni1E36" unicode="&#x1e36;" horiz-adv-x="1132" 
d="M131 0v1454h350v-1149h604v-305h-954zM614 -119q83 0 137 -52.5t54 -131.5q0 -75 -54.5 -127.5t-136.5 -52.5t-137 52t-55 128q0 78 54.5 131t137.5 53z" />
    <glyph glyph-name="uni1E37" unicode="&#x1e37;" horiz-adv-x="561" 
d="M121 0v1507h319v-1507h-319zM283 -119q83 0 136.5 -52.5t53.5 -131.5q0 -75 -54 -127.5t-136 -52.5q-83 0 -138 52t-55 128q0 78 55 131t138 53z" />
    <glyph glyph-name="uni1E38" unicode="&#x1e38;" horiz-adv-x="1132" 
d="M266 1591v234h641v-234h-641zM131 0v1454h350v-1149h604v-305h-954zM614 -119q83 0 137 -52.5t54 -131.5q0 -75 -54.5 -127.5t-136.5 -52.5t-137 52t-55 128q0 78 54.5 131t137.5 53z" />
    <glyph glyph-name="uni1E39" unicode="&#x1e39;" horiz-adv-x="561" 
d="M-35 1618v233h641v-233h-641zM121 0v1507h319v-1507h-319zM283 -119q83 0 136.5 -52.5t53.5 -131.5q0 -75 -54 -127.5t-136 -52.5q-83 0 -138 52t-55 128q0 78 55 131t138 53z" />
    <glyph glyph-name="uni1E3A" unicode="&#x1e3a;" horiz-adv-x="1132" 
d="M131 0v1454h350v-1149h604v-305h-954zM936 -453h-641v246h641v-246z" />
    <glyph glyph-name="uni1E3B" unicode="&#x1e3b;" horiz-adv-x="561" 
d="M121 0v1507h319v-1507h-319zM604 -453h-641v246h641v-246z" />
    <glyph glyph-name="uni1E42" unicode="&#x1e42;" horiz-adv-x="1761" 
d="M133 0v1454h344l404 -772h4l399 772h346v-1454h-340v801h-4l-295 -533h-219l-295 535h-6v-803h-338zM883 -119q83 0 136.5 -52.5t53.5 -131.5q0 -75 -54 -127.5t-136 -52.5q-83 0 -138 52t-55 128q0 78 55 131t138 53z" />
    <glyph glyph-name="uni1E43" unicode="&#x1e43;" horiz-adv-x="1802" 
d="M111 0v1001h319v-118h2q119 137 283 137q206 0 291 -150h4q120 150 338 150q167 0 260.5 -105t93.5 -331v-584h-320v510q0 225 -145 225q-73 0 -120.5 -60t-47.5 -173v-502h-319v510q0 225 -146 225q-78 0 -126 -59.5t-48 -173.5v-502h-319zM913 -119q83 0 137 -52.5
t54 -131.5q0 -75 -54.5 -127.5t-136.5 -52.5t-137 52t-55 128q0 78 54.5 131t137.5 53z" />
    <glyph glyph-name="uni1E44" unicode="&#x1e44;" horiz-adv-x="1513" 
d="M762 1546q-83 0 -137 53t-54 132q0 75 54.5 127.5t136.5 52.5t137 -52t55 -128q0 -79 -54.5 -132t-137.5 -53zM131 0v1454h330l579 -897l4 2v895h338v-1454h-340l-569 872h-4v-872h-338z" />
    <glyph glyph-name="uni1E45" unicode="&#x1e45;" horiz-adv-x="1191" 
d="M614 1126q-83 0 -136.5 53t-53.5 132q0 75 54 127.5t136 52.5q83 0 138 -52t55 -128q0 -78 -55 -131.5t-138 -53.5zM111 0v1001h319v-116h4q117 135 301 135q359 0 359 -420v-600h-320v522q0 119 -39 166t-121 47q-86 0 -135 -58.5t-49 -172.5v-504h-319z" />
    <glyph glyph-name="uni1E46" unicode="&#x1e46;" horiz-adv-x="1513" 
d="M131 0v1454h330l579 -897l4 2v895h338v-1454h-340l-569 872h-4v-872h-338zM758 -119q83 0 136.5 -52.5t53.5 -131.5q0 -75 -54 -127.5t-136 -52.5q-83 0 -138 52t-55 128q0 78 55 131t138 53z" />
    <glyph glyph-name="uni1E47" unicode="&#x1e47;" horiz-adv-x="1191" 
d="M111 0v1001h319v-116h4q117 135 301 135q359 0 359 -420v-600h-320v522q0 119 -39 166t-121 47q-86 0 -135 -58.5t-49 -172.5v-504h-319zM623 -119q83 0 136.5 -52.5t53.5 -131.5q0 -75 -54 -127.5t-136 -52.5q-83 0 -138 52t-55 128q0 78 55 131t138 53z" />
    <glyph glyph-name="uni1E48" unicode="&#x1e48;" horiz-adv-x="1513" 
d="M131 0v1454h330l579 -897l4 2v895h338v-1454h-340l-569 872h-4v-872h-338zM1079 -453h-641v246h641v-246z" />
    <glyph glyph-name="uni1E49" unicode="&#x1e49;" horiz-adv-x="1191" 
d="M111 0v1001h319v-116h4q117 135 301 135q359 0 359 -420v-600h-320v522q0 119 -39 166t-121 47q-86 0 -135 -58.5t-49 -172.5v-504h-319zM944 -453h-641v246h641v-246z" />
    <glyph glyph-name="uni1E5A" unicode="&#x1e5a;" horiz-adv-x="1329" 
d="M131 0v1454h567q132 0 233 -37t163 -105t93.5 -158.5t31.5 -201.5q0 -158 -70 -269.5t-205 -166.5l346 -516h-401l-299 469h-125v-469h-334zM465 768h172q109 0 168 51t59 142q0 88 -55 140t-166 52h-178v-385zM674 -119q83 0 136.5 -52.5t53.5 -131.5q0 -75 -54 -127.5
t-136 -52.5q-83 0 -138 52t-55 128q0 78 55 131t138 53z" />
    <glyph glyph-name="uni1E5B" unicode="&#x1e5b;" horiz-adv-x="763" 
d="M111 0v1001h319v-139h4q55 76 130 117t159 41h12v-346q-62 4 -76 4q-111 0 -170 -62.5t-59 -164.5v-451h-319zM274 -119q83 0 137 -52.5t54 -131.5q0 -75 -54.5 -127.5t-136.5 -52.5t-137 52t-55 128q0 78 54.5 131t137.5 53z" />
    <glyph glyph-name="uni1E5C" unicode="&#x1e5c;" horiz-adv-x="1329" 
d="M322 1591v234h641v-234h-641zM131 0v1454h567q132 0 233 -37t163 -105t93.5 -158.5t31.5 -201.5q0 -158 -70 -269.5t-205 -166.5l346 -516h-401l-299 469h-125v-469h-334zM465 768h172q109 0 168 51t59 142q0 88 -55 140t-166 52h-178v-385zM674 -119q83 0 136.5 -52.5
t53.5 -131.5q0 -75 -54 -127.5t-136 -52.5q-83 0 -138 52t-55 128q0 78 55 131t138 53z" />
    <glyph glyph-name="uni1E5D" unicode="&#x1e5d;" horiz-adv-x="763" 
d="M135 1174v245h641v-245h-641zM111 0v1001h319v-139h4q55 76 130 117t159 41h12v-346q-62 4 -76 4q-111 0 -170 -62.5t-59 -164.5v-451h-319zM274 -119q83 0 137 -52.5t54 -131.5q0 -75 -54.5 -127.5t-136.5 -52.5t-137 52t-55 128q0 78 54.5 131t137.5 53z" />
    <glyph glyph-name="uni1E5E" unicode="&#x1e5e;" horiz-adv-x="1329" 
d="M131 0v1454h567q132 0 233 -37t163 -105t93.5 -158.5t31.5 -201.5q0 -158 -70 -269.5t-205 -166.5l346 -516h-401l-299 469h-125v-469h-334zM465 768h172q109 0 168 51t59 142q0 88 -55 140t-166 52h-178v-385zM995 -453h-641v246h641v-246z" />
    <glyph glyph-name="uni1E5F" unicode="&#x1e5f;" horiz-adv-x="763" 
d="M111 0v1001h319v-139h4q55 76 130 117t159 41h12v-346q-62 4 -76 4q-111 0 -170 -62.5t-59 -164.5v-451h-319zM596 -453h-641v246h641v-246z" />
    <glyph glyph-name="uni1E60" unicode="&#x1e60;" horiz-adv-x="1167" 
d="M584 1546q-83 0 -137 53t-54 132q0 75 54.5 127.5t136.5 52.5t137 -52t55 -128q0 -79 -54.5 -132t-137.5 -53zM573 -18q-145 0 -283 57.5t-251 173.5l201 244q79 -86 171 -129t173 -43q82 0 123 35t41 88q0 59 -45 93.5t-171 76.5q-54 18 -95 34.5t-89 41t-83 49.5
t-70 60.5t-56.5 75.5t-35 92.5t-13.5 112.5q0 181 137 303.5t340 125.5q276 6 504 -189l-192 -250q-175 137 -297 137q-63 0 -99.5 -30t-36.5 -82q-1 -51 43.5 -86t165.5 -82q185 -71 248 -106q135 -74 179 -184q26 -67 26 -155q0 -99 -32.5 -179.5t-86 -132t-124 -87
t-143.5 -50.5t-149 -15z" />
    <glyph glyph-name="uni1E61" unicode="&#x1e61;" horiz-adv-x="901" 
d="M459 1126q-83 0 -137 53t-54 132q0 75 54.5 127.5t136.5 52.5q83 0 137.5 -52t54.5 -128q0 -79 -54.5 -132t-137.5 -53zM440 -18q-240 0 -407 147l149 207q125 -113 262 -113q47 0 72 16t25 44q0 25 -31.5 44t-124.5 48q-69 21 -121 46t-98.5 62.5t-71 92t-24.5 124.5
q0 148 106 234t268 86q112 0 201 -30t178 -95l-151 -223q-51 51 -110.5 77.5t-112.5 26.5q-32 0 -56 -14t-24 -41q0 -23 30.5 -42t106.5 -46q76 -26 121.5 -45t93 -47t72 -59t40 -76t15.5 -103q0 -145 -104.5 -233t-303.5 -88z" />
    <glyph glyph-name="uni1E62" unicode="&#x1e62;" horiz-adv-x="1167" 
d="M573 -18q-145 0 -283 57.5t-251 173.5l201 244q79 -86 171 -129t173 -43q82 0 123 35t41 88q0 59 -45 93.5t-171 76.5q-54 18 -95 34.5t-89 41t-83 49.5t-70 60.5t-56.5 75.5t-35 92.5t-13.5 112.5q0 181 137 303.5t340 125.5q276 6 504 -189l-192 -250
q-175 137 -297 137q-63 0 -99.5 -30t-36.5 -82q-1 -51 43.5 -86t165.5 -82q185 -71 248 -106q135 -74 179 -184q26 -67 26 -155q0 -99 -32.5 -179.5t-86 -132t-124 -87t-143.5 -50.5t-149 -15zM586 -119q83 0 136.5 -52.5t53.5 -131.5q0 -75 -54 -127.5t-136 -52.5
q-83 0 -138 52t-55 128q0 78 55 131t138 53z" />
    <glyph glyph-name="uni1E63" unicode="&#x1e63;" horiz-adv-x="901" 
d="M440 -18q-240 0 -407 147l149 207q125 -113 262 -113q47 0 72 16t25 44q0 25 -31.5 44t-124.5 48q-69 21 -121 46t-98.5 62.5t-71 92t-24.5 124.5q0 148 106 234t268 86q112 0 201 -30t178 -95l-151 -223q-51 51 -110.5 77.5t-112.5 26.5q-32 0 -56 -14t-24 -41
q0 -23 30.5 -42t106.5 -46q76 -26 121.5 -45t93 -47t72 -59t40 -76t15.5 -103q0 -145 -104.5 -233t-303.5 -88zM459 -119q83 0 136.5 -52.5t53.5 -131.5q0 -75 -54 -127.5t-136 -52.5q-83 0 -138 52t-55 128q0 78 55 131t138 53z" />
    <glyph glyph-name="uni1E6C" unicode="&#x1e6c;" horiz-adv-x="1200" 
d="M426 0v1149h-379v305h1108v-305h-381v-1149h-348zM596 -119q83 0 136.5 -52.5t53.5 -131.5q0 -75 -54 -127.5t-136 -52.5q-83 0 -138 52t-55 128q0 78 55 131t138 53z" />
    <glyph glyph-name="uni1E6D" unicode="&#x1e6d;" horiz-adv-x="765" 
d="M436 -18q-135 0 -215 84.5t-80 248.5v428h-112v258h112v322l322 33v-355h242v-258h-242v-368q0 -55 16.5 -84t59.5 -29q48 0 98 23l80 -236q-60 -33 -122.5 -50t-158.5 -17zM428 -119q83 0 136.5 -52.5t53.5 -131.5q0 -75 -54 -127.5t-136 -52.5t-137 52t-55 128
q0 78 54.5 131t137.5 53z" />
    <glyph glyph-name="uni1E6E" unicode="&#x1e6e;" horiz-adv-x="1200" 
d="M426 0v1149h-379v305h1108v-305h-381v-1149h-348zM918 -453h-642v246h642v-246z" />
    <glyph glyph-name="uni1E6F" unicode="&#x1e6f;" horiz-adv-x="765" 
d="M436 -18q-135 0 -215 84.5t-80 248.5v428h-112v258h112v322l322 33v-355h242v-258h-242v-368q0 -55 16.5 -84t59.5 -29q48 0 98 23l80 -236q-60 -33 -122.5 -50t-158.5 -17zM750 -453h-641v246h641v-246z" />
    <glyph glyph-name="Wgrave" unicode="&#x1e80;" horiz-adv-x="2099" 
d="M920 1559l-258 286h327l221 -286h-290zM487 0l-456 1454h366l244 -893h6l223 893h361l221 -891h6l246 891h364l-456 -1454h-314l-241 954h-4l-252 -954h-314z" />
    <glyph glyph-name="wgrave" unicode="&#x1e81;" horiz-adv-x="1568" 
d="M639 1122l-252 305l326 -2l217 -303h-291zM360 0l-337 1001h319l164 -542h2l151 542h248l152 -542h4l166 542h317l-340 -1001h-258l-164 582h-2l-159 -582h-263z" />
    <glyph glyph-name="Wacute" unicode="&#x1e82;" horiz-adv-x="2099" 
d="M901 1559l221 286h326l-258 -286h-289zM487 0l-456 1454h366l244 -893h6l223 893h361l221 -891h6l246 891h364l-456 -1454h-314l-241 954h-4l-252 -954h-314z" />
    <glyph glyph-name="wacute" unicode="&#x1e83;" horiz-adv-x="1568" 
d="M635 1124l227 306l324 2l-254 -308h-297zM360 0l-337 1001h319l164 -542h2l151 542h248l152 -542h4l166 542h317l-340 -1001h-258l-164 582h-2l-159 -582h-263z" />
    <glyph glyph-name="Wdieresis" unicode="&#x1e84;" horiz-adv-x="2099" 
d="M821 1548q-82 0 -136 53t-54 130q0 75 54 126.5t136 51.5q83 0 138 -51.5t55 -126.5q0 -78 -55 -130.5t-138 -52.5zM1280 1548q-82 0 -136 53t-54 130q0 75 54 126.5t136 51.5q81 0 135.5 -51.5t54.5 -126.5q0 -78 -54 -130.5t-136 -52.5zM487 0l-456 1454h366l244 -893
h6l223 893h361l221 -891h6l246 891h364l-456 -1454h-314l-241 954h-4l-252 -954h-314z" />
    <glyph glyph-name="wdieresis" unicode="&#x1e85;" horiz-adv-x="1568" 
d="M551 1128q-82 0 -136.5 53t-54.5 130q0 74 54.5 126t136.5 52q83 0 137.5 -51t54.5 -127q0 -78 -54.5 -130.5t-137.5 -52.5zM1010 1128q-82 0 -136.5 53t-54.5 130q0 74 54.5 126t136.5 52q81 0 135.5 -51.5t54.5 -126.5q0 -78 -54 -130.5t-136 -52.5zM360 0l-337 1001
h319l164 -542h2l151 542h248l152 -542h4l166 542h317l-340 -1001h-258l-164 582h-2l-159 -582h-263z" />
    <glyph glyph-name="uni1E8E" unicode="&#x1e8e;" horiz-adv-x="1302" 
d="M653 1546q-83 0 -136.5 53t-53.5 132q0 75 54 127.5t136 52.5q83 0 138 -52t55 -128q0 -78 -55 -131.5t-138 -53.5zM475 0v633l-473 821h391l256 -483h4l252 483h395l-477 -821v-633h-348z" />
    <glyph glyph-name="uni1E8F" unicode="&#x1e8f;" horiz-adv-x="1097" 
d="M553 1126q-83 0 -137 53t-54 132q0 75 54.5 127.5t136.5 52.5q83 0 137.5 -52t54.5 -128q0 -79 -54.5 -132t-137.5 -53zM238 -406l172 474l-392 933h342l201 -538h6l193 538h319l-526 -1407h-315z" />
    <glyph glyph-name="uni1E92" unicode="&#x1e92;" horiz-adv-x="1255" 
d="M84 0v266l631 879l-4 4h-605v305h1063v-258l-647 -885l4 -6h645v-305h-1087zM623 -119q83 0 136.5 -52.5t53.5 -131.5q0 -75 -54 -127.5t-136 -52.5q-83 0 -138 52t-55 128q0 78 55 131t138 53z" />
    <glyph glyph-name="uni1E93" unicode="&#x1e93;" horiz-adv-x="978" 
d="M59 0v213l437 530v7h-398v251h824v-210l-445 -533v-4h428v-254h-846zM494 -119q83 0 136.5 -52.5t53.5 -131.5q0 -75 -54 -127.5t-136 -52.5q-83 0 -138 52t-55 128q0 78 55 131t138 53z" />
    </font>
</defs>
</svg>
