<?xml version="1.0" standalone="no"?>
<!DOCTYPE svg PUBLIC "-//W3C//DTD SVG 1.1//EN" "http://www.w3.org/Graphics/SVG/1.1/DTD/svg11.dtd" >
<svg xmlns="http://www.w3.org/2000/svg" xmlns:xlink="http://www.w3.org/1999/xlink" version="1.1">
<metadata>
Created by FontForge 20201107 at Tue Aug  6 05:21:14 2024
 By 
Copyright (c) 2015 by Kostas Bartsokas. All rights reserved.
</metadata>
<defs>
<font id="AvertaStdCY-BlackItalic" horiz-adv-x="0" >
  <font-face 
    font-family="Averta Std CY Black"
    font-weight="900"
    font-style="italic"
    font-stretch="normal"
    units-per-em="2048"
    panose-1="0 0 10 0 0 0 0 0 0 0"
    ascent="1638"
    descent="-410"
    x-height="1004"
    cap-height="1454"
    bbox="-1563 -817 2836 2187"
    underline-thickness="129"
    underline-position="-210"
    slope="-7"
    unicode-range="U+000D-2E18"
  />
<missing-glyph horiz-adv-x="802" 
 />
    <glyph glyph-name=".notdef" horiz-adv-x="802" 
 />
    <glyph glyph-name=".null" 
 />
    <glyph glyph-name="nonmarkingreturn" horiz-adv-x="682" 
 />
    <glyph glyph-name="CR" unicode="&#xd;" 
 />
    <glyph glyph-name="space" unicode=" " horiz-adv-x="339" 
 />
    <glyph glyph-name="exclam" unicode="!" horiz-adv-x="616" 
d="M211 516l63 991h365l-180 -991h-248zM289 -25q-90 0 -141.5 54t-51.5 139q0 86 53.5 140t145.5 54q90 0 141 -52t51 -136q0 -88 -53 -143.5t-145 -55.5z" />
    <glyph glyph-name="quotedbl" unicode="&#x22;" horiz-adv-x="917" 
d="M104 891l121 563h338l-205 -563h-254zM541 891l121 563h339l-206 -563h-254z" />
    <glyph glyph-name="numbersign" unicode="#" horiz-adv-x="1208" 
d="M88 -104l94 360h-164l31 252h203l63 250h-184l31 252h223l84 333h233l-86 -333h195l86 333h233l-86 -333h177l-33 -252h-213l-64 -250h195l-33 -252h-231l-92 -360h-234l92 360h-192l-94 -360h-234zM483 508h197l61 250h-192z" />
    <glyph glyph-name="dollar" unicode="$" horiz-adv-x="1060" 
d="M625 844q26 -16 74.5 -44t71.5 -42t61 -39.5t56.5 -43t43 -45t35.5 -54t19.5 -61t8.5 -73.5q0 -190 -110.5 -308.5t-302.5 -141.5l-29 -225h-219l31 231q-231 45 -355 238l252 217q50 -73 114.5 -110.5t125.5 -37.5q59 0 90 23t31 57q0 30 -29.5 55t-122.5 80
q-133 78 -180 115q-133 106 -148 255q-2 22 -2 44q0 171 107.5 287t275.5 143l29 229h219l-31 -235q201 -46 301 -201l-249 -209q-51 63 -95 85t-92 22q-39 0 -65.5 -22.5t-26.5 -57.5q0 -32 22.5 -62t88.5 -69z" />
    <glyph glyph-name="percent" unicode="%" horiz-adv-x="2007" 
d="M768 -55l-238 108l762 1440l238 -109zM487 651q-163 0 -269.5 107.5t-106.5 279.5q0 181 122 305.5t299 124.5q165 0 273 -106.5t108 -276.5q0 -183 -125 -308.5t-301 -125.5zM498 879q69 0 118.5 57t49.5 141q0 74 -40.5 119t-103.5 45q-67 0 -115.5 -57.5t-48.5 -139.5
q0 -77 39 -121t101 -44zM1526 -20q-163 0 -270 108t-107 279q0 181 122.5 305.5t299.5 124.5q165 0 273 -106.5t108 -276.5q0 -183 -125 -308.5t-301 -125.5zM1536 207q68 0 118 57.5t50 141.5q0 74 -40 118.5t-103 44.5q-67 0 -115.5 -57t-48.5 -139q0 -78 38.5 -122
t100.5 -44z" />
    <glyph glyph-name="ampersand" unicode="&#x26;" horiz-adv-x="1449" 
d="M422 -20q-176 0 -289 107.5t-113 287.5q0 136 74.5 259t202.5 183q-84 87 -84 217q0 187 130 314t333 127q88 0 157 -20t112.5 -50.5t75 -76.5t47 -88.5t26.5 -96.5l-281 -88q-14 131 -125 131q-58 0 -95.5 -43t-37.5 -105q0 -42 28 -64t68 -22h828l-39 -311h-279
q-54 -311 -243 -486t-496 -175zM481 285q87 0 164.5 51.5t128.5 130.5t76 174h-252q-103 0 -172.5 -71.5t-69.5 -159.5q0 -59 35.5 -92t89.5 -33z" />
    <glyph glyph-name="quotesingle" unicode="'" horiz-adv-x="481" 
d="M104 891l121 563h338l-205 -563h-254z" />
    <glyph glyph-name="parenleft" unicode="(" horiz-adv-x="620" 
d="M217 -340q-139 269 -139 659q0 329 97.5 655t279.5 562l227 -98q-140 -228 -218.5 -513t-78.5 -563q0 -310 98 -581z" />
    <glyph glyph-name="parenright" unicode=")" horiz-adv-x="620" 
d="M193 -330l-230 99q143 231 220 512.5t77 564.5q0 317 -96 579l266 121q137 -262 137 -655q0 -332 -96 -656t-278 -565z" />
    <glyph glyph-name="asterisk" unicode="*" horiz-adv-x="727" 
d="M301 770l33 188l-139 -100l-82 170l147 82l-129 86l119 172l121 -100l14 186h193l-33 -186l141 98l82 -170l-152 -84l132 -84l-117 -172l-117 102l-20 -188h-193z" />
    <glyph glyph-name="plus" unicode="+" horiz-adv-x="1081" 
d="M344 80l41 344h-297l37 287h297l43 348h289l-43 -348h299l-35 -287h-299l-43 -344h-289z" />
    <glyph glyph-name="comma" unicode="," horiz-adv-x="491" 
d="M-66 -274l121 563h336l-213 -563h-244z" />
    <glyph glyph-name="hyphen" unicode="-" horiz-adv-x="708" 
d="M66 477l36 311h574l-39 -311h-571z" />
    <glyph glyph-name="period" unicode="." horiz-adv-x="542" 
d="M227 -25q-90 0 -141 53.5t-51 139.5t53 140t145 54q90 0 141.5 -52t51.5 -136q0 -88 -53.5 -143.5t-145.5 -55.5z" />
    <glyph glyph-name="slash" unicode="/" horiz-adv-x="823" 
d="M76 -227l-234 108l914 1751l227 -110z" />
    <glyph glyph-name="zero" unicode="0" horiz-adv-x="1163" 
d="M528 -20q-216 0 -330 142.5t-114 418.5q0 136 23 263t71.5 240.5t118 198t169 133.5t218.5 49q216 0 331 -146t115 -417q0 -135 -23 -262t-72 -240t-119 -197.5t-170 -133.5t-218 -49zM553 319q57 0 99 58.5t64 150t32 181t10 174.5q0 98 -24.5 151t-71.5 53
q-57 0 -99.5 -59.5t-64.5 -152t-32.5 -184.5t-10.5 -179q0 -90 25 -141.5t73 -51.5z" />
    <glyph glyph-name="one" unicode="1" horiz-adv-x="835" 
d="M520 1407h293l-172 -1407h-367l117 946l-178 -129l-141 275z" />
    <glyph glyph-name="two" unicode="2" horiz-adv-x="978" 
d="M-4 0l22 233l402 441q83 91 135.5 174t52.5 162q0 40 -20 62t-58 22q-40 0 -89 -33t-89 -90l-233 196q74 115 197.5 187.5t279.5 72.5q103 0 188.5 -42t139 -125.5t53.5 -194.5q0 -153 -66 -276.5t-202 -264.5l-191 -194v-4h377l-41 -326h-858z" />
    <glyph glyph-name="three" unicode="3" horiz-adv-x="974" 
d="M412 -20q-175 0 -290.5 95t-146.5 242l322 113q6 -67 36 -101t77 -34q59 0 96 54t37 132q0 42 -25.5 69.5t-71.5 27.5h-90l33 278h80q64 0 100.5 47t36.5 117q0 40 -23 64t-55 24q-83 0 -133 -115l-266 166q57 126 177 196t263 70q177 0 278 -84.5t101 -242.5
q0 -117 -50 -214t-140 -159v-2q151 -87 151 -281q0 -141 -66.5 -247t-178.5 -160.5t-252 -54.5z" />
    <glyph glyph-name="four" unicode="4" horiz-adv-x="1038" 
d="M846 512h151l-36 -297h-150l-29 -215h-348l27 215h-481l24 211l670 981h280zM367 469h165l50 381z" />
    <glyph glyph-name="five" unicode="5" horiz-adv-x="983" 
d="M926 1081h-418l-33 -182q72 16 123 16q148 0 237 -98.5t89 -277.5q0 -250 -149.5 -404.5t-385.5 -154.5q-289 0 -428 225l270 198q21 -48 60 -74t82 -26q92 0 139 63t47 154q0 60 -28 90.5t-68 30.5q-92 0 -178 -72l-179 76l136 762h723z" />
    <glyph glyph-name="six" unicode="6" horiz-adv-x="1071" 
d="M481 -20q-186 0 -299.5 121t-113.5 339q0 178 56 345t157 302.5t252.5 232t332.5 130.5l56 -283q-295 -122 -416 -307l2 -2q102 51 194 51q137 0 225.5 -91t88.5 -263q0 -254 -144.5 -414.5t-390.5 -160.5zM514 293q66 0 113 64.5t47 144.5q0 135 -119 135
q-80 0 -149 -72q-9 -44 -9 -86q0 -80 29.5 -133t87.5 -53z" />
    <glyph glyph-name="seven" unicode="7" horiz-adv-x="866" 
d="M137 1407h795l-29 -231l-520 -1211l-354 64l469 1054h-400z" />
    <glyph glyph-name="eight" unicode="8" horiz-adv-x="1042" 
d="M449 -20q-187 0 -303.5 92t-116.5 252q0 135 70.5 253.5t189.5 176.5v6q-47 25 -79 85.5t-32 143.5q0 189 130 312.5t341 123.5q149 0 247.5 -79t98.5 -226q0 -103 -51.5 -207t-130.5 -145v-2q79 -36 126.5 -112t47.5 -185q0 -231 -148 -360t-390 -129zM571 895
q43 0 72 47t29 102q0 50 -18.5 77.5t-53.5 27.5q-43 0 -71.5 -47.5t-28.5 -102.5q0 -48 19 -76t52 -28zM485 274q56 0 98 59t42 134q0 55 -24 94t-73 39q-58 0 -97.5 -59.5t-39.5 -130.5q0 -63 25 -99.5t69 -36.5z" />
    <glyph glyph-name="nine" unicode="9" horiz-adv-x="1073" 
d="M238 -53l-56 274q286 88 422 311l-2 3q-85 -43 -182 -43q-136 0 -228 91.5t-92 262.5q0 164 70 296.5t195.5 207.5t281.5 75q183 0 292.5 -123t109.5 -344q0 -188 -60 -364.5t-164.5 -314t-257.5 -227t-329 -105.5zM575 766q73 0 132 65q6 53 6 111q0 86 -29.5 127
t-75.5 41q-71 0 -118.5 -59.5t-47.5 -149.5q0 -135 133 -135z" />
    <glyph glyph-name="colon" unicode=":" horiz-adv-x="557" 
d="M315 637q-90 0 -141 53.5t-51 138.5q0 86 53.5 140.5t145.5 54.5q90 0 141 -52t51 -136q0 -88 -53.5 -143.5t-145.5 -55.5zM233 -25q-90 0 -141 53.5t-51 139.5t53.5 140t145.5 54q90 0 141 -52t51 -136q0 -88 -53.5 -143.5t-145.5 -55.5z" />
    <glyph glyph-name="semicolon" unicode=";" horiz-adv-x="509" 
d="M283 637q-90 0 -141.5 53.5t-51.5 138.5q0 86 53.5 140.5t145.5 54.5q90 0 141 -52t51 -136q0 -88 -53 -143.5t-145 -55.5zM-63 -274l120 563h336l-213 -563h-243z" />
    <glyph glyph-name="less" unicode="&#x3c;" horiz-adv-x="1081" 
d="M913 31l-833 403l26 238l934 413l-36 -317l-492 -211l436 -217z" />
    <glyph glyph-name="equal" unicode="=" horiz-adv-x="1110" 
d="M152 662l36 286h885l-35 -286h-886zM86 186l37 287h885l-35 -287h-887z" />
    <glyph glyph-name="greater" unicode="&#x3e;" horiz-adv-x="1083" 
d="M55 31l37 309l494 217l-439 211l35 317l836 -413l-29 -238z" />
    <glyph glyph-name="question" unicode="?" horiz-adv-x="878" 
d="M213 506l8 82q6 70 48.5 133t142.5 168q41 42 64 70t43 70.5t20 84.5q0 46 -21.5 72t-62.5 26q-68 0 -146 -84l-205 207q63 85 178 139t246 54q167 0 273 -89.5t106 -248.5q0 -117 -56.5 -213.5t-158.5 -188.5q-73 -66 -108.5 -108t-46.5 -88l-21 -86h-303zM350 -25
q-90 0 -141 53.5t-51 139.5t53 140t145 54q90 0 141.5 -52t51.5 -136q0 -88 -53.5 -143.5t-145.5 -55.5z" />
    <glyph glyph-name="at" unicode="@" horiz-adv-x="1806" 
d="M846 -315q-162 0 -302.5 54.5t-243 153t-161.5 243.5t-59 317q0 77 14 159t47 171.5t81.5 171.5t123 156.5t166 129.5t216 87t267.5 32q179 0 324.5 -58.5t240.5 -160.5t146 -239.5t51 -297.5q0 -63 -11.5 -127.5t-44.5 -138.5t-85 -129.5t-141.5 -93t-204.5 -37.5
q-122 0 -187 37q-73 38 -90 127h-4q-104 -148 -256 -148q-114 0 -191 90.5t-77 257.5q0 237 117 386t286 149q132 0 195 -74h6l6 55h311l-71 -571q-2 -14 -2 -41q0 -74 67 -74q47 0 86 37.5t60.5 93t33 108.5t11.5 93q0 121 -35.5 223t-105 180.5t-181 122.5t-254.5 44
q-114 0 -212.5 -26t-170.5 -69.5t-130.5 -103.5t-96.5 -125t-63.5 -136t-36.5 -135.5t-11 -125.5q0 -134 45 -244.5t123 -184t182 -113.5t222 -40q105 0 214 33t202 90l100 -146q-113 -78 -247 -120.5t-269 -42.5zM864 387q69 0 117.5 62.5t67.5 168.5l4 31q-49 39 -111 39
q-71 0 -114.5 -63t-43.5 -146q0 -40 23 -66t57 -26z" />
    <glyph glyph-name="A" unicode="A" horiz-adv-x="1288" 
d="M-68 0l652 1454h348l295 -1454h-385l-37 246h-393l-88 -246h-392zM524 553h236l-68 455h-4z" />
    <glyph glyph-name="B" unicode="B" horiz-adv-x="1183" 
d="M53 0l178 1454h533q196 0 289.5 -75t93.5 -222q0 -109 -57.5 -213.5t-159.5 -157.5v-6q94 -39 146 -117.5t52 -191.5q0 -110 -30.5 -194.5t-96 -147.5t-177 -96t-265.5 -33h-506zM520 877h88q73 0 118.5 48t45.5 117q0 88 -102 88h-117zM453 319h131q91 0 131.5 50.5
t40.5 130.5q0 47 -31 73.5t-92 26.5h-146z" />
    <glyph glyph-name="C" unicode="C" horiz-adv-x="1318" 
d="M684 -20q-129 0 -237.5 39.5t-189.5 115t-126 193.5t-45 268q0 144 35 276.5t103 241.5t161.5 190t216.5 126t262 45q66 0 131.5 -16t133 -50.5t130 -95.5t111.5 -144l-289 -223q-44 78 -105.5 125t-133.5 47q-82 0 -152.5 -44.5t-116 -117t-71 -161.5t-25.5 -181
q0 -134 63 -205t171 -71q76 0 149.5 35t126.5 100l256 -242q-102 -122 -246.5 -186.5t-312.5 -64.5z" />
    <glyph glyph-name="D" unicode="D" horiz-adv-x="1337" 
d="M53 0l178 1454h471q298 0 450.5 -160.5t152.5 -445.5q0 -249 -93.5 -440t-275.5 -299.5t-428 -108.5h-455zM453 330h98q92 0 164 41t116 112.5t66.5 162t22.5 194.5q0 141 -63 212.5t-200 71.5h-106z" />
    <glyph glyph-name="E" unicode="E" horiz-adv-x="1091" 
d="M51 0l178 1454h877l-41 -330h-516l-31 -241h402l-37 -318h-402l-30 -235h555l-41 -330h-914z" />
    <glyph glyph-name="F" unicode="F" horiz-adv-x="1069" 
d="M53 0l178 1454h906l-41 -330h-543l-37 -295h442l-36 -323h-447l-59 -506h-363z" />
    <glyph glyph-name="G" unicode="G" horiz-adv-x="1363" 
d="M684 -20q-127 0 -234.5 37.5t-189.5 111t-128 191.5t-46 270q0 183 55.5 344.5t155 281.5t246 189.5t319.5 69.5q153 0 288 -71t210 -200l-281 -215q-39 59 -100.5 98t-138.5 39q-108 0 -193 -75.5t-128.5 -191.5t-43.5 -245q0 -144 63.5 -217t172.5 -73q100 0 192 55
l23 145h-209l37 303h559l-78 -673q-101 -76 -249.5 -125t-301.5 -49z" />
    <glyph glyph-name="H" unicode="H" horiz-adv-x="1341" 
d="M53 0l178 1454h375l-71 -588h360l72 588h376l-180 -1454h-375l66 537h-360l-66 -537h-375z" />
    <glyph glyph-name="I" unicode="I" horiz-adv-x="626" 
d="M63 0l179 1454h376l-178 -1454h-377z" />
    <glyph glyph-name="J" unicode="J" horiz-adv-x="929" 
d="M338 -20q-115 0 -215 52.5t-154 151.5l240 248q16 -41 48.5 -68.5t72.5 -27.5q31 0 53 14t42.5 63.5t31.5 137.5l112 903h371l-113 -919q-36 -292 -149.5 -423.5t-339.5 -131.5z" />
    <glyph glyph-name="K" unicode="K" horiz-adv-x="1259" 
d="M1368 1454l-510 -655l348 -799h-422l-213 535l-100 -121l-51 -414h-367l178 1454h369l-65 -543l6 -2l389 545h438z" />
    <glyph glyph-name="L" unicode="L" horiz-adv-x="1040" 
d="M53 0l178 1454h373l-137 -1124h504l-39 -330h-879z" />
    <glyph glyph-name="M" unicode="M" horiz-adv-x="1599" 
d="M53 0l178 1454h359l248 -749h6l395 749h363l-179 -1454h-362l88 715l-4 2l-256 -453h-215l-164 465l-6 -2l-88 -727h-363z" />
    <glyph glyph-name="N" unicode="N" horiz-adv-x="1368" 
d="M53 0l178 1454h338l338 -827l6 2l101 825h358l-180 -1454h-352l-324 803l-6 -2l-100 -801h-357z" />
    <glyph glyph-name="O" unicode="O" horiz-adv-x="1486" 
d="M680 -20q-272 0 -433 164t-161 456q0 174 55 332.5t153 279t245.5 192t320.5 71.5q271 0 433.5 -163.5t162.5 -451.5q0 -183 -52.5 -342.5t-149 -279.5t-245 -189t-329.5 -69zM709 328q105 0 187.5 66t127.5 182t45 260q0 146 -67 219t-175 73q-99 0 -181.5 -70.5
t-128.5 -185.5t-46 -245q0 -148 66.5 -223.5t171.5 -75.5z" />
    <glyph glyph-name="P" unicode="P" horiz-adv-x="1140" 
d="M53 0l178 1454h517q210 0 313.5 -112.5t103.5 -294.5q0 -175 -67 -308.5t-199.5 -209.5t-314.5 -76h-115l-53 -453h-363zM510 776h80q85 0 137.5 63.5t52.5 151.5q0 72 -37.5 104.5t-91.5 32.5h-98z" />
    <glyph glyph-name="Q" unicode="Q" horiz-adv-x="1492" 
d="M1456 860q0 -324 -149 -555l110 -121l-207 -233l-123 137q-171 -108 -407 -108q-272 0 -433 164t-161 456q0 174 55 332.5t154 279t246.5 192t320.5 71.5q269 0 431.5 -163.5t162.5 -451.5zM709 328q71 0 137 32l-86 97l203 221l71 -78q37 104 37 236q0 146 -68 219
t-176 73q-98 0 -180.5 -70.5t-129 -185.5t-46.5 -245q0 -148 67 -223.5t171 -75.5z" />
    <glyph glyph-name="R" unicode="R" horiz-adv-x="1216" 
d="M53 0l178 1454h529q108 0 189.5 -31.5t130.5 -87.5t73.5 -128.5t24.5 -159.5q0 -178 -71.5 -313t-205.5 -210l236 -524h-396l-182 453h-90l-53 -453h-363zM510 776h92q85 0 138 63.5t53 151.5q0 72 -38 104.5t-91 32.5h-111z" />
    <glyph glyph-name="S" unicode="S" horiz-adv-x="1097" 
d="M504 -20q-148 0 -286 64t-228 204l262 225q52 -81 122.5 -123.5t137.5 -42.5q70 0 107.5 30.5t37.5 74.5q0 36 -33 63.5t-139 89.5q-139 82 -187 119q-143 111 -165 261q-4 30 -4 63q0 140 68 247.5t183 163.5t257 56q137 0 261 -58.5t196 -171.5l-260 -217
q-55 70 -104.5 95.5t-102.5 25.5q-50 0 -81 -27.5t-30 -70.5q0 -37 26.5 -71.5t102.5 -78.5q28 -17 79 -46.5t76.5 -44.5t66 -42t61 -46t47 -49t39 -58t21.5 -66t9 -80q0 -228 -147.5 -358.5t-392.5 -130.5z" />
    <glyph glyph-name="T" unicode="T" horiz-adv-x="1095" 
d="M301 0l137 1124h-323l41 330h1018l-41 -330h-324l-137 -1124h-371z" />
    <glyph glyph-name="U" unicode="U" horiz-adv-x="1310" 
d="M598 -20q-565 0 -479 686l98 788h371l-101 -827q-9 -63 -6 -118t16.5 -95.5t48 -64t87.5 -23.5q90 0 146 64.5t75 221.5l104 842h369l-104 -854q-21 -172 -71 -292.5t-130 -192t-183 -103.5t-241 -32z" />
    <glyph glyph-name="V" unicode="V" horiz-adv-x="1275" 
d="M420 0l-299 1454h399l123 -881h4l340 881h406l-654 -1454h-319z" />
    <glyph glyph-name="W" unicode="W" horiz-adv-x="1890" 
d="M362 0l-229 1454h385l86 -844h4l283 844h364l62 -823h6l276 823h396l-586 -1454h-330l-84 881h-4l-313 -881h-316z" />
    <glyph glyph-name="X" unicode="X" horiz-adv-x="1296" 
d="M-68 0l502 739l-301 715h391l174 -440h11l264 440h424l-488 -723l324 -731h-402l-186 451h-8l-295 -451h-410z" />
    <glyph glyph-name="Y" unicode="Y" horiz-adv-x="1189" 
d="M344 0l80 631l-318 823h408l135 -477h6l244 477h422l-522 -823l-78 -631h-377z" />
    <glyph glyph-name="Z" unicode="Z" horiz-adv-x="1146" 
d="M10 0l33 289l643 827l-4 8h-518l39 330h991l-33 -280l-657 -836l4 -8h545l-39 -330h-1004z" />
    <glyph glyph-name="bracketleft" unicode="[" horiz-adv-x="718" 
d="M27 -307l223 1814h522l-31 -250h-233l-162 -1314h236l-31 -250h-524z" />
    <glyph glyph-name="backslash" unicode="\" horiz-adv-x="821" 
d="M575 -227l-483 1749l248 110l483 -1751z" />
    <glyph glyph-name="bracketright" unicode="]" horiz-adv-x="714" 
d="M-31 -307l31 250h231l162 1314h-231l31 250h520l-221 -1814h-523z" />
    <glyph glyph-name="asciicircum" unicode="^" horiz-adv-x="860" 
d="M135 1024l293 430h227l193 -430h-256l-68 227l-135 -227h-254z" />
    <glyph glyph-name="underscore" unicode="_" horiz-adv-x="966" 
d="M-115 -285l29 230h1004l-29 -230h-1004z" />
    <glyph glyph-name="grave" unicode="`" horiz-adv-x="882" 
d="M430 1087l-188 312l336 -2l161 -310h-309z" />
    <glyph glyph-name="a" unicode="a" horiz-adv-x="1122" 
d="M360 -20q-149 0 -233 115t-84 296q0 138 38 258t102 201.5t148 127.5t175 46q144 0 223 -86h6l8 66h351l-123 -1004h-350l16 129l-6 2q-108 -151 -271 -151zM485 289q72 0 136.5 89.5t89.5 250.5l4 22q-58 64 -137 64q-54 0 -98 -46.5t-65.5 -111.5t-21.5 -129
q0 -62 26 -100.5t66 -38.5z" />
    <glyph glyph-name="b" unicode="b" horiz-adv-x="1128" 
d="M489 -23q-246 0 -446 101l176 1429h348l-75 -635l4 -2q110 154 272 154q150 0 233.5 -115.5t83.5 -298.5q0 -302 -152 -467.5t-444 -165.5zM492 289q115 0 179 81.5t64 202.5q0 63 -27 102.5t-67 39.5q-74 0 -139.5 -99t-89.5 -274l-6 -45q62 -8 86 -8z" />
    <glyph glyph-name="c" unicode="c" horiz-adv-x="970" 
d="M473 -20q-201 0 -314.5 115t-113.5 327q0 91 21.5 177.5t65.5 163.5t106.5 135t150.5 92t191 34q259 0 393 -195l-264 -198q-40 86 -115 86q-85 0 -142 -86.5t-57 -200.5q0 -62 26.5 -101.5t80.5 -39.5q41 0 75.5 20.5t71.5 71.5l271 -164q-153 -237 -447 -237z" />
    <glyph glyph-name="d" unicode="d" horiz-adv-x="1097" 
d="M360 -20q-149 0 -233 115t-84 296q0 138 38 258t102 201.5t148 127.5t175 46q140 0 223 -86h6l70 569h350l-184 -1507h-350l16 129l-6 2q-108 -151 -271 -151zM485 289q72 0 136.5 89.5t89.5 250.5l4 22q-58 64 -137 64q-54 0 -98 -46.5t-65.5 -111.5t-21.5 -129
q0 -62 26 -100.5t66 -38.5z" />
    <glyph glyph-name="e" unicode="e" horiz-adv-x="972" 
d="M956 743q-2 -74 -35 -134t-86.5 -100.5t-129.5 -70.5t-155 -47t-171 -26q12 -54 47.5 -80.5t75.5 -26.5q95 0 160 96l253 -137q-148 -237 -446 -237q-193 0 -310 114t-116 307q0 173 69 314.5t198 225t294 83.5q63 0 123.5 -17t113.5 -50t84.5 -88.5t30.5 -125.5z
M629 684q1 27 -14.5 42t-43.5 15q-60 0 -109.5 -52t-72.5 -138q235 26 240 133z" />
    <glyph glyph-name="f" unicode="f" horiz-adv-x="688" 
d="M55 0l88 725h-80l35 279h80l19 147q44 377 366 377q143 0 244 -82l-86 -244q-47 31 -92 31q-41 0 -60.5 -31.5t-31.5 -126.5l-9 -71h140l-35 -279h-139l-88 -725h-351z" />
    <glyph glyph-name="g" unicode="g" horiz-adv-x="1112" 
d="M735 1004h348l-106 -873q-69 -557 -590 -557q-217 0 -377 98l107 262q119 -71 248 -71q55 0 93.5 11t74.5 41t60 89t38 150l-6 2q-109 -146 -265 -146q-99 0 -172.5 53.5t-109 138.5t-35.5 189q0 138 38 258t102 201.5t148 127.5t175 46q140 0 217 -80l6 2zM485 319
q71 0 133.5 89t86.5 237l2 14q-56 56 -129 56q-54 0 -98 -46.5t-65.5 -109t-21.5 -121.5t25 -89t67 -30z" />
    <glyph glyph-name="h" unicode="h" horiz-adv-x="1110" 
d="M35 0l184 1507h346l-78 -626l7 -4q131 147 319 147q137 0 193.5 -98.5t29.5 -307.5l-80 -618h-346l70 522q13 101 4 146t-45 45q-68 0 -131 -89.5t-84 -265.5l-43 -358h-346z" />
    <glyph glyph-name="i" unicode="i" horiz-adv-x="559" 
d="M375 1118q-91 0 -148 54.5t-57 138.5t58.5 139t152.5 55q91 0 147 -52.5t56 -135.5q0 -87 -58 -143t-151 -56zM43 0l125 1004h346l-123 -1004h-348z" />
    <glyph glyph-name="j" unicode="j" horiz-adv-x="524" 
d="M352 1118q-91 0 -148 54.5t-57 138.5t58.5 139t152.5 55q91 0 147 -52.5t56 -135.5q0 -87 -58 -143t-151 -56zM4 -424q-124 0 -227 47l86 266q28 -22 71 -22q42 0 60 36.5t29 131.5l118 969h351l-125 -1018q-26 -220 -119 -315t-244 -95z" />
    <glyph glyph-name="k" unicode="k" horiz-adv-x="1048" 
d="M903 -16q-50 -4 -112 -4q-212 0 -287 278l-19 66q-57 -30 -77 -37l-33 -287h-340l184 1507h348l-108 -878l4 -2q93 73 143.5 164.5t75.5 212.5h362q-55 -299 -276 -504l16 -62q14 -52 32.5 -85.5t44 -50.5t51 -23t63.5 -7z" />
    <glyph glyph-name="l" unicode="l" horiz-adv-x="561" 
d="M43 0l186 1507h351l-187 -1507h-350z" />
    <glyph glyph-name="m" unicode="m" horiz-adv-x="1646" 
d="M35 0l123 1004h348l-12 -107l8 -2q120 129 293 129q165 0 209 -137h10q125 137 327 137q148 0 203.5 -101.5t26.5 -322.5l-78 -600h-346l70 522q9 67 8 109.5t-14 62t-40 19.5q-50 0 -108 -91t-80 -262l-47 -360h-346l67 522q8 57 10 88t-1.5 57t-16 36t-35.5 10
q-20 0 -45.5 -18t-53 -53.5t-50.5 -98.5t-33 -142l-49 -401h-348z" />
    <glyph glyph-name="n" unicode="n" horiz-adv-x="1110" 
d="M35 0l123 1004h348l-17 -125l7 -2q128 147 317 147q137 0 193.5 -98.5t29.5 -307.5l-80 -618h-346l70 522q13 101 4 146t-45 45q-66 0 -128 -86t-83 -258l-45 -369h-348z" />
    <glyph glyph-name="o" unicode="o" horiz-adv-x="1083" 
d="M469 -20q-193 0 -308.5 115t-115.5 321q0 121 37.5 230t106.5 193.5t177.5 134.5t241.5 50q197 0 313.5 -115.5t116.5 -320.5q0 -123 -33 -229.5t-99.5 -192.5t-178.5 -136t-258 -50zM502 289q81 0 132.5 84t51.5 194q0 81 -33.5 113.5t-74.5 32.5q-55 0 -97.5 -43.5
t-63 -108t-20.5 -135.5q0 -73 34 -105t71 -32z" />
    <glyph glyph-name="p" unicode="p" horiz-adv-x="1128" 
d="M-16 -406l174 1410h350l-16 -134l2 -2q112 156 274 156q150 0 233.5 -115.5t83.5 -298.5q0 -138 -38.5 -257t-103.5 -200t-151 -127t-180 -46q-131 0 -217 59l-8 -4l-53 -441h-350zM520 289q102 0 158.5 83t56.5 201q0 63 -27 102.5t-67 39.5q-74 0 -139 -95.5
t-90 -273.5l-2 -14q43 -43 110 -43z" />
    <glyph glyph-name="q" unicode="q" horiz-adv-x="1126" 
d="M571 -406l68 535l-6 4q-112 -153 -273 -153q-149 0 -233 115t-84 296q0 138 38.5 258t102.5 201t148 127.5t174 46.5q150 0 225 -88l4 2l8 66h351l-172 -1410h-351zM485 289q72 0 136.5 89.5t89.5 250.5l4 22q-58 64 -137 64q-54 0 -98 -46.5t-65.5 -111.5t-21.5 -129
q0 -62 26 -100.5t66 -38.5z" />
    <glyph glyph-name="r" unicode="r" horiz-adv-x="718" 
d="M35 0l123 1004h348l-14 -117h2q112 137 266 137l-49 -383q-94 47 -173.5 -18t-107.5 -232l-47 -391h-348z" />
    <glyph glyph-name="s" unicode="s" horiz-adv-x="854" 
d="M381 -20q-111 0 -223 45.5t-181 126.5l185 196q44 -52 109 -85.5t122 -33.5q28 0 44 9t16 24q0 19 -23.5 35t-120.5 68q-126 67 -183.5 136t-57.5 173q0 156 109.5 253t273.5 97q109 0 204.5 -43.5t161.5 -126.5l-203 -188q-66 97 -157 102q-24 0 -43 -11.5t-19 -33.5
q0 -28 129 -94q141 -70 200.5 -139t59.5 -183q0 -144 -109 -235.5t-294 -91.5z" />
    <glyph glyph-name="t" unicode="t" horiz-adv-x="704" 
d="M348 -20q-59 0 -106 16t-85 52t-54 103.5t-5 161.5l49 412h-96l35 279h96l37 282l356 70l-43 -352h189l-35 -279h-188l-43 -371q-4 -31 5.5 -48t28.5 -17q29 0 78 22l60 -260q-136 -71 -279 -71z" />
    <glyph glyph-name="u" unicode="u" horiz-adv-x="1097" 
d="M324 -20q-70 0 -121 19.5t-89 65t-47.5 121.5t3.5 189l88 629h346l-74 -500q-19 -122 -9.5 -168.5t54.5 -46.5q56 0 113.5 77t66.5 160l60 478h348l-123 -1004h-340l8 131h-6q-118 -151 -278 -151z" />
    <glyph glyph-name="v" unicode="v" horiz-adv-x="1026" 
d="M379 -20q-79 0 -140 21.5t-99 61t-62 94t-28 120t3 139.5l74 588h344l-61 -502q-15 -97 -8.5 -155t44.5 -58q24 0 51 17t58 57t57.5 123t40.5 198q19 156 -4 320h346q31 -173 6 -383q-17 -142 -60 -253.5t-101 -183t-134.5 -118.5t-156.5 -66.5t-170 -19.5z" />
    <glyph glyph-name="w" unicode="w" horiz-adv-x="1529" 
d="M326 -20q-108 0 -177.5 57.5t-92.5 147.5t-7 202l88 617h344l-75 -517q-15 -86 -6 -142t51 -56q45 0 93 72t66 219l54 424h331l-63 -525q-13 -103 -4.5 -146.5t43.5 -43.5q23 0 46.5 17t50.5 57t50 123t35 198q16 154 -2 320h350q28 -180 4 -383q-17 -142 -58 -253.5
t-97.5 -183t-129.5 -118.5t-150 -66.5t-163 -19.5q-217 0 -270 176h-4q-111 -176 -307 -176z" />
    <glyph glyph-name="x" unicode="x" horiz-adv-x="974" 
d="M-57 0l360 524l-227 480h379l69 -203h2l115 203h387l-354 -498l235 -506h-364l-86 213h-4l-142 -213h-370z" />
    <glyph glyph-name="y" unicode="y" horiz-adv-x="1081" 
d="M705 1004h348l-107 -863q-68 -567 -577 -567q-206 0 -369 98l106 250q107 -72 238 -72q40 0 70 6t60.5 23.5t52 47.5t40 81t29.5 121h-6q-114 -149 -279 -149q-55 0 -98.5 12t-79.5 40t-55 74t-26.5 112.5t7.5 156.5l88 629h347l-72 -500q-19 -122 -11 -168.5t56 -46.5
q54 0 111.5 77.5t66.5 153.5z" />
    <glyph glyph-name="z" unicode="z" horiz-adv-x="897" 
d="M743 -55q-166 34 -340.5 44.5t-410.5 10.5l24 229l402 496v6h-299l33 273h755l-24 -230l-414 -498v-4q187 -10 352 -59z" />
    <glyph glyph-name="braceleft" unicode="{" horiz-adv-x="675" 
d="M352 -303q-99 0 -159.5 81t-45.5 206l43 338q8 74 1 98q-17 53 -120 57h-12l19 248q44 1 77 12t51.5 26.5t30 39.5t15.5 43.5t6 44.5l43 340q15 118 88.5 197t173.5 79h185l-27 -219h-31q-94 0 -115 -135l-40 -326q-12 -96 -39.5 -148.5t-79.5 -80.5v-4q19 -12 28 -19.5
t21 -25t16 -39t3.5 -59.5t-7.5 -89l-39 -319q-4 -40 -4 -69t17.5 -44.5t58.5 -15.5h43l-29 -217h-172z" />
    <glyph glyph-name="bar" unicode="|" horiz-adv-x="653" 
d="M102 -236l213 1745h271l-213 -1745h-271z" />
    <glyph glyph-name="braceright" unicode="}" horiz-adv-x="677" 
d="M-47 -303l27 217h30q60 0 84 35t33 104l39 322q7 65 16.5 105t26.5 64t31.5 35t44.5 27v4q-83 58 -64 228l41 327q2 17 2.5 23t0.5 25t-4.5 28.5t-12 22.5t-22.5 18.5t-36 5.5h-40l26 219h170q104 0 162.5 -84.5t44.5 -203.5l-43 -338q-8 -70 2 -96q21 -59 129 -60
l-18 -248q-45 -1 -77.5 -10.5t-51 -23.5t-30 -38t-16 -44.5t-8.5 -51.5l-41 -338q-15 -124 -91 -199t-173 -75h-182z" />
    <glyph glyph-name="asciitilde" unicode="~" horiz-adv-x="1073" 
d="M700 381q-30 0 -58 5.5t-41 10.5t-36.5 16t-27.5 13q-73 37 -113 37q-72 0 -129 -94l-219 104q52 128 134 206.5t181 78.5q24 0 51.5 -6t43 -11.5t44.5 -17.5t33 -14q59 -29 101 -29q74 0 133 88l219 -86q-53 -133 -135.5 -217t-180.5 -84z" />
    <glyph glyph-name="uni00A0" unicode="&#xa0;" horiz-adv-x="339" 
 />
    <glyph glyph-name="exclamdown" unicode="&#xa1;" horiz-adv-x="608" 
d="M344 1026q90 0 141.5 -53.5t51.5 -138.5q0 -86 -53.5 -140.5t-145.5 -54.5q-90 0 -141.5 52t-51.5 136q0 88 53.5 143.5t145.5 55.5zM422 485l-64 -991h-364l180 991h248z" />
    <glyph glyph-name="cent" unicode="&#xa2;" horiz-adv-x="980" 
d="M518 397q42 0 76.5 20.5t73.5 71.5l270 -161q-125 -195 -342 -232l-23 -192h-215l23 194q-149 31 -233.5 143t-84.5 289q0 216 121 383t322 209l20 185h215l-20 -181q178 -30 268 -168l-264 -196q-42 63 -123 63q-78 -1 -133 -88t-55 -198q0 -43 11 -73.5t28.5 -44
t33 -19t31.5 -5.5z" />
    <glyph glyph-name="sterling" unicode="&#xa3;" horiz-adv-x="1060" 
d="M16 0l39 328h99l32 274h-86l29 248h86l10 74q17 136 61 235.5t108.5 156t138 83t159.5 26.5q117 0 216.5 -53t162.5 -149l-197 -215q-32 45 -73 71.5t-72 26.5q-46 0 -84.5 -45t-50.5 -160l-6 -51h248l-29 -248h-246l-35 -274h465l-39 -328h-936z" />
    <glyph glyph-name="currency" unicode="&#xa4;" horiz-adv-x="948" 
d="M854 844q0 -127 -63 -228l131 -165l-162 -154l-133 166q-80 -39 -168 -39q-81 0 -152 33l-157 -158l-136 152l160 161q-18 52 -18 115q0 138 69 254l-127 160l166 153l129 -161q69 34 156 34q88 0 158 -39l165 168l136 -155l-172 -172q18 -56 18 -125zM487 655
q59 0 98.5 47t39.5 111q0 57 -30 91t-75 34q-58 0 -96.5 -49t-38.5 -119q0 -52 27.5 -83.5t74.5 -31.5z" />
    <glyph glyph-name="yen" unicode="&#xa5;" horiz-adv-x="1153" 
d="M1276 1407l-397 -659h149l-20 -173h-232l-12 -90h231l-20 -172h-232l-38 -313h-381l38 313h-243l20 172h246l12 90h-245l20 173h166l-234 659h420l103 -463h4l211 463h434z" />
    <glyph glyph-name="brokenbar" unicode="&#xa6;" horiz-adv-x="653" 
d="M227 786l88 723h271l-88 -723h-271zM102 -233l88 718h271l-88 -718h-271z" />
    <glyph glyph-name="section" unicode="&#xa7;" horiz-adv-x="1019" 
d="M680 909q133 -67 179 -102q100 -77 104 -196v-11q0 -200 -164 -303q63 -72 63 -184q0 -198 -123.5 -313t-322.5 -115q-130 0 -238 53.5t-178 155.5l213 217q43 -63 99.5 -94t111.5 -31q88 0 88 75q0 54 -162 136q-43 21 -75.5 40t-69.5 48.5t-60.5 61t-39 76t-15.5 95.5
q0 203 156 297q-70 80 -70 193q0 185 119.5 294t308.5 109q122 0 233 -49.5t171 -126.5l-205 -225q-112 94 -197 94q-37 0 -57.5 -19.5t-20.5 -50.5q0 -25 32.5 -53.5t119.5 -71.5zM412 582q0 -34 24.5 -64t93.5 -61q6 -3 18.5 -8.5t18.5 -8.5q33 13 48.5 37.5t15.5 50.5
q0 36 -26.5 63.5t-108.5 65.5l-25 13q-59 -17 -59 -88z" />
    <glyph glyph-name="dieresis" unicode="&#xa8;" horiz-adv-x="993" 
d="M352 1065q-91 0 -146.5 54t-55.5 138t57.5 139.5t150.5 55.5q91 0 147 -52.5t56 -135.5q0 -87 -58 -143t-151 -56zM823 1065q-90 0 -146 54t-56 138t58 139.5t152 55.5q90 0 146.5 -53t56.5 -135q0 -87 -58.5 -143t-152.5 -56z" />
    <glyph glyph-name="copyright" unicode="&#xa9;" horiz-adv-x="1486" 
d="M741 -20q-185 0 -339.5 91.5t-243 246.5t-88.5 337q0 181 88.5 336.5t244 247.5t342.5 92q139 0 263.5 -54t213.5 -145t141 -216t52 -261q0 -181 -88.5 -336t-244 -247t-341.5 -92zM741 193q193 0 325 135t132 327q0 193 -130.5 327t-324.5 134q-196 0 -326 -135.5
t-130 -329.5q0 -94 34.5 -178.5t94.5 -146t144.5 -97.5t180.5 -36zM758 315q-94 0 -171 36.5t-125 113.5t-48 184q0 144 91.5 239t252.5 95q72 0 142 -31t124 -96l-137 -117q-59 64 -129 64q-59 0 -101.5 -40.5t-42.5 -113.5q0 -63 39 -108t105 -45q35 0 70 17.5t59 45.5
l137 -121q-46 -55 -114.5 -89t-151.5 -34z" />
    <glyph glyph-name="ordfeminine" unicode="&#xaa;" horiz-adv-x="681" 
d="M285 791q-79 0 -134 64.5t-55 182.5q0 168 85.5 274.5t205.5 106.5q77 0 117 -51h2l6 39h233l-73 -604h-236l10 80h-4q-68 -92 -157 -92zM385 999q31 0 61 43t43 119l5 25q-26 20 -66 20q-35 0 -63.5 -42.5t-28.5 -102.5q0 -28 12.5 -45t36.5 -17z" />
    <glyph glyph-name="guillemotleft" unicode="&#xab;" horiz-adv-x="1026" 
d="M645 109l-151 399l256 407h313l-254 -407l149 -399h-313zM205 109l-152 399l254 405h316l-254 -405l149 -399h-313z" />
    <glyph glyph-name="logicalnot" unicode="&#xac;" horiz-adv-x="1013" 
d="M616 274l41 338h-563l35 285h852l-76 -623h-289z" />
    <glyph glyph-name="registered" unicode="&#xae;" horiz-adv-x="1486" 
d="M745 1331q139 0 263.5 -54t213.5 -145t141 -216t52 -261q0 -181 -88.5 -336t-244 -247t-341.5 -92q-185 0 -339.5 91.5t-243 246.5t-88.5 337q0 181 88.5 336.5t244 247.5t342.5 92zM741 193q193 0 325 135t132 327q0 193 -130.5 327t-324.5 134q-196 0 -326 -135.5
t-130 -329.5q0 -94 34.5 -178.5t94.5 -146t144.5 -97.5t180.5 -36zM1010 752q0 -144 -111 -199l143 -225h-215l-114 194h-33v-194h-184v663h270q121 0 182.5 -65.5t61.5 -173.5zM680 823v-137h43q39 0 64.5 18t25.5 52q0 28 -24 47.5t-68 19.5h-41z" />
    <glyph glyph-name="macron" unicode="&#xaf;" horiz-adv-x="792" 
d="M176 1133l33 260h596l-33 -260h-596z" />
    <glyph glyph-name="degree" unicode="&#xb0;" horiz-adv-x="716" 
d="M406 899q-113 0 -177.5 65t-64.5 171q0 142 88 240t223 98q110 0 178 -68t68 -182q0 -133 -87.5 -228.5t-227.5 -95.5zM428 1085q40 0 69 35t29 82q0 38 -20 62t-51 24q-41 0 -70 -36.5t-29 -90.5q0 -34 20 -55t52 -21z" />
    <glyph glyph-name="plusminus" unicode="&#xb1;" horiz-adv-x="1101" 
d="M395 389l41 344h-297l37 287h297l43 348h289l-43 -348h299l-35 -287h-299l-43 -344h-289zM49 0l37 287h885l-35 -287h-887z" />
    <glyph glyph-name="uni00B2" unicode="&#xb2;" horiz-adv-x="608" 
d="M76 891l14 166l240 256q110 118 110 174q0 14 -8.5 22.5t-21.5 8.5q-38 0 -91 -62l-174 139q48 69 125 112.5t174 43.5q111 0 181.5 -61.5t70.5 -161.5q0 -96 -37.5 -165.5t-121.5 -158.5l-78 -84l2 -4h194l-28 -225h-551z" />
    <glyph glyph-name="uni00B3" unicode="&#xb3;" horiz-adv-x="620" 
d="M365 874q-114 0 -192.5 63.5t-98.5 156.5l225 75q3 -77 51 -77q29 0 47.5 27t18.5 67q0 41 -51 41h-46l21 182h49q26 0 45 27t19 59q0 37 -29 37q-19 0 -36 -18.5t-26 -53.5l-198 121q33 72 111 121t169 49q112 0 180 -55.5t68 -157.5q0 -138 -114 -215v-2
q94 -58 94 -170q0 -125 -87 -201t-220 -76z" />
    <glyph glyph-name="acute" unicode="&#xb4;" horiz-adv-x="882" 
d="M283 1087l237 310l344 2l-266 -312h-315z" />
    <glyph glyph-name="uni00B5" unicode="&#xb5;" horiz-adv-x="1175" 
d="M1083 274l39 -235q-81 -59 -200 -59q-107 0 -166 41.5t-76 136.5h-4q-94 -178 -227 -178q-68 0 -113 45l-6 -2q28 -165 14 -285l-16 -144h-344l174 1410h344l-68 -541q-12 -94 6.5 -134t63.5 -40q49 0 93 56t58 171l58 488h350l-80 -646q-6 -52 3.5 -71t39.5 -19
q33 0 57 6z" />
    <glyph glyph-name="paragraph" unicode="&#xb6;" horiz-adv-x="956" 
d="M627 1407h325l-174 -1407h-358l65 543q-181 0 -292 94t-111 262q0 101 36.5 192.5t104 162t172.5 112t232 41.5z" />
    <glyph glyph-name="periodcentered" unicode="&#xb7;" horiz-adv-x="569" 
d="M317 299q-90 0 -141 53.5t-51 139.5t53.5 140t145.5 54q90 0 141 -52t51 -136q0 -88 -53.5 -143.5t-145.5 -55.5z" />
    <glyph glyph-name="cedilla" unicode="&#xb8;" horiz-adv-x="573" 
d="M117 -395q-65 0 -119 12l4 133q34 -12 84 -12q47 0 73.5 17t26.5 46q0 47 -129 47l2 80l56 84h170l-56 -71l2 -2q74 -3 114 -37.5t40 -100.5q0 -99 -70.5 -147.5t-197.5 -48.5z" />
    <glyph glyph-name="uni00B9" unicode="&#xb9;" horiz-adv-x="548" 
d="M416 1735h194l-104 -844h-248l68 520l-95 -61l-102 190z" />
    <glyph glyph-name="ordmasculine" unicode="&#xba;" horiz-adv-x="655" 
d="M358 793q-116 0 -186 69t-70 193q0 100 38.5 181t119.5 132t191 51q115 0 182 -68.5t67 -193.5q0 -73 -20 -137t-60.5 -115.5t-107.5 -81.5t-154 -30zM383 1004q39 0 65.5 39.5t26.5 91.5q0 73 -53 73q-41 0 -66.5 -41t-25.5 -94q0 -38 16.5 -53.5t36.5 -15.5z" />
    <glyph glyph-name="guillemotright" unicode="&#xbb;" horiz-adv-x="1034" 
d="M-37 109l254 399l-156 405h318l153 -405l-247 -399h-322zM414 109l254 399l-156 405h315l156 -405l-250 -399h-319z" />
    <glyph glyph-name="onequarter" unicode="&#xbc;" horiz-adv-x="1556" 
d="M1069 1493l238 -109l-764 -1439l-236 108zM481 610h-248l68 520l-94 -61l-103 191l287 194h195zM1438 334h90l-27 -211h-90l-14 -123h-250l14 123h-270l16 147l396 574h196zM1126 307h101l28 211z" />
    <glyph glyph-name="onehalf" unicode="&#xbd;" horiz-adv-x="1632" 
d="M1069 1493l238 -109l-764 -1439l-236 108zM481 610h-248l68 520l-94 -61l-103 191l287 194h195zM1380 229l2 -4h195l-29 -225h-551l15 166l239 256q111 119 111 174q0 14 -9 22.5t-22 8.5q-37 0 -90 -62l-174 140q48 68 125 111.5t174 43.5q111 0 181.5 -61.5
t70.5 -161.5q0 -95 -38 -165t-122 -159z" />
    <glyph glyph-name="threequarters" unicode="&#xbe;" horiz-adv-x="1585" 
d="M1090 1493l237 -109l-764 -1439l-235 108zM649 870q0 -125 -87 -200.5t-220 -75.5q-114 0 -192.5 63t-98.5 156l225 76q3 -78 52 -78q29 0 47 27t18 67q0 41 -51 41h-45l20 182h50q25 0 44 27t19 59q0 37 -29 37q-19 0 -35.5 -18t-25.5 -53l-199 120q33 71 111.5 120.5
t169.5 49.5q112 0 180 -55.5t68 -157.5q0 -138 -115 -215v-2q94 -58 94 -170zM1468 334h91l-27 -211h-90l-15 -123h-249l14 123h-270l16 147l395 574h197zM1157 307h100l29 211z" />
    <glyph glyph-name="questiondown" unicode="&#xbf;" horiz-adv-x="845" 
d="M545 1026q90 0 141 -53.5t51 -138.5q0 -87 -53 -141t-145 -54q-90 0 -141.5 52t-51.5 136q0 88 53.5 143.5t145.5 55.5zM682 496l-8 -82q-6 -70 -48.5 -133t-142.5 -168q-62 -64 -94.5 -114.5t-32.5 -111.5q0 -46 21.5 -72t62.5 -26q68 0 146 84l205 -207
q-63 -85 -178 -138.5t-246 -53.5q-167 0 -273 89.5t-106 248.5q0 117 56.5 213t158.5 188q73 66 108.5 108t46.5 89l21 86h303z" />
    <glyph glyph-name="Agrave" unicode="&#xc0;" horiz-adv-x="1288" 
d="M625 1544l-191 293l336 -2l164 -291h-309zM-68 0l652 1454h348l295 -1454h-385l-37 246h-393l-88 -246h-392zM524 553h236l-68 455h-4z" />
    <glyph glyph-name="Aacute" unicode="&#xc1;" horiz-adv-x="1288" 
d="M618 1544l236 291l338 2l-268 -293h-306zM-68 0l652 1454h348l295 -1454h-385l-37 246h-393l-88 -246h-392zM524 553h236l-68 455h-4z" />
    <glyph glyph-name="Acircumflex" unicode="&#xc2;" horiz-adv-x="1288" 
d="M432 1544l207 293h352l139 -293h-282l-53 125h-2l-86 -125h-275zM-68 0l652 1454h348l295 -1454h-385l-37 246h-393l-88 -246h-392zM524 553h236l-68 455h-4z" />
    <glyph glyph-name="Atilde" unicode="&#xc3;" horiz-adv-x="1288" 
d="M956 1548q-15 0 -29 1.5t-28 6t-22.5 7t-22 10.5t-18 10.5t-19 12t-16.5 10.5q-52 34 -88 34q-66 0 -119 -100l-188 92q50 105 121 171.5t155 66.5q79 0 154 -51q2 -1 16 -10t18 -11.5t15 -7.5t19.5 -6.5t17.5 -1.5q69 0 120 94l187 -74q-49 -111 -119 -182.5t-154 -71.5
zM-68 0l652 1454h348l295 -1454h-385l-37 246h-393l-88 -246h-392zM524 553h236l-68 455h-4z" />
    <glyph glyph-name="Adieresis" unicode="&#xc4;" horiz-adv-x="1288" 
d="M557 1532q-91 0 -147 54t-56 138t58 139.5t151 55.5q91 0 147 -52.5t56 -135.5q0 -87 -58 -143t-151 -56zM1028 1532q-90 0 -146.5 54t-56.5 138t58.5 139.5t152.5 55.5q90 0 146.5 -53t56.5 -135q0 -87 -58.5 -143t-152.5 -56zM-68 0l652 1454h348l295 -1454h-385
l-37 246h-393l-88 -246h-392zM524 553h236l-68 455h-4z" />
    <glyph glyph-name="Aring" unicode="&#xc5;" horiz-adv-x="1288" 
d="M780 1516q-92 0 -153.5 62t-61.5 153q0 94 63 156.5t158 62.5q92 0 153.5 -60.5t61.5 -150.5q0 -95 -63 -159t-158 -64zM784 1661q31 0 51.5 21t20.5 53q0 29 -20.5 49t-49.5 20q-32 0 -53.5 -20t-21.5 -51t20.5 -51.5t52.5 -20.5zM-68 0l652 1454h348l295 -1454h-385
l-37 246h-393l-88 -246h-392zM524 553h236l-68 455h-4z" />
    <glyph glyph-name="AE" unicode="&#xc6;" horiz-adv-x="1763" 
d="M-68 0l781 1454h1065l-41 -330h-518l-31 -243h411l-40 -318h-410l-29 -233h557l-41 -330h-915l31 246h-303l-125 -246h-392zM604 557h187l57 473h-4z" />
    <glyph glyph-name="Ccedilla" unicode="&#xc7;" horiz-adv-x="1318" 
d="M711 338q76 0 149.5 35t126.5 100l256 -242q-94 -115 -226.5 -178t-287.5 -71l-31 -41l2 -2q74 -3 114 -37.5t40 -100.5q0 -99 -70.5 -147.5t-197.5 -48.5q-65 0 -119 12l4 133q34 -12 84 -12q47 0 73.5 17t26.5 46q0 47 -129 47l2 80l39 60q-220 33 -350.5 189.5
t-130.5 418.5q0 144 35 276.5t103 241.5t161.5 190t216.5 126t262 45q66 0 131.5 -16t133 -50.5t130 -95.5t111.5 -144l-289 -223q-44 78 -105.5 125t-133.5 47q-82 0 -152.5 -44.5t-116 -117t-71 -161.5t-25.5 -181q0 -134 63 -205t171 -71z" />
    <glyph glyph-name="Egrave" unicode="&#xc8;" horiz-adv-x="1091" 
d="M602 1540l-190 293l336 -2l163 -291h-309zM51 0l178 1454h877l-41 -330h-516l-31 -241h402l-37 -318h-402l-30 -235h555l-41 -330h-914z" />
    <glyph glyph-name="Eacute" unicode="&#xc9;" horiz-adv-x="1091" 
d="M455 1540l235 291l338 2l-268 -293h-305zM51 0l178 1454h877l-41 -330h-516l-31 -241h402l-37 -318h-402l-30 -235h555l-41 -330h-914z" />
    <glyph glyph-name="Ecircumflex" unicode="&#xca;" horiz-adv-x="1091" 
d="M342 1540l207 293h352l139 -293h-282l-53 125h-3l-86 -125h-274zM51 0l178 1454h877l-41 -330h-516l-31 -241h402l-37 -318h-402l-30 -235h555l-41 -330h-914z" />
    <glyph glyph-name="Edieresis" unicode="&#xcb;" horiz-adv-x="1091" 
d="M467 1528q-91 0 -147 54t-56 138t58 139.5t151 55.5q91 0 147 -53t56 -136q0 -87 -58 -142.5t-151 -55.5zM938 1528q-90 0 -146.5 54t-56.5 138t58.5 139.5t152.5 55.5q90 0 146.5 -53.5t56.5 -135.5q0 -87 -58.5 -142.5t-152.5 -55.5zM51 0l178 1454h877l-41 -330h-516
l-31 -241h402l-37 -318h-402l-30 -235h555l-41 -330h-914z" />
    <glyph glyph-name="Igrave" unicode="&#xcc;" horiz-adv-x="626" 
d="M297 1540l-191 293l336 -2l164 -291h-309zM63 0l179 1454h376l-178 -1454h-377z" />
    <glyph glyph-name="Iacute" unicode="&#xcd;" horiz-adv-x="626" 
d="M272 1544l236 291l338 2l-268 -293h-306zM63 0l179 1454h376l-178 -1454h-377z" />
    <glyph glyph-name="Icircumflex" unicode="&#xce;" horiz-adv-x="626" 
d="M90 1540l207 293h352l139 -293h-282l-53 125h-2l-86 -125h-275zM63 0l179 1454h376l-178 -1454h-377z" />
    <glyph glyph-name="Idieresis" unicode="&#xcf;" horiz-adv-x="626" 
d="M215 1528q-91 0 -147 54t-56 138t58 139.5t151 55.5q91 0 147 -53t56 -136q0 -87 -58 -142.5t-151 -55.5zM686 1528q-90 0 -146.5 54t-56.5 138t58.5 139.5t152.5 55.5q90 0 146.5 -53.5t56.5 -135.5q0 -87 -58.5 -142.5t-152.5 -55.5zM63 0l179 1454h376l-178 -1454
h-377z" />
    <glyph glyph-name="Eth" unicode="&#xd0;" horiz-adv-x="1339" 
d="M705 1454q298 0 450 -160.5t152 -445.5q0 -249 -93.5 -440t-275.5 -299.5t-428 -108.5h-455l68 555h-82l41 311h80l71 588h472zM553 330q92 0 164 41t116 112.5t66.5 162t22.5 194.5q0 141 -63 212.5t-200 71.5h-106l-33 -258h201l-43 -311h-195l-28 -225h98z" />
    <glyph glyph-name="Ntilde" unicode="&#xd1;" horiz-adv-x="1368" 
d="M1001 1548q-15 0 -29 1.5t-28 6t-22.5 7t-22 10.5t-18 10.5t-19 12t-16.5 10.5q-52 34 -88 34q-66 0 -119 -100l-188 92q50 105 121 171.5t155 66.5q79 0 154 -51q2 -1 16 -10t18 -11.5t15 -7.5t19.5 -6.5t17.5 -1.5q69 0 120 94l187 -74q-49 -111 -119 -182.5
t-154 -71.5zM53 0l178 1454h338l338 -827l6 2l101 825h358l-180 -1454h-352l-324 803l-6 -2l-100 -801h-357z" />
    <glyph glyph-name="Ograve" unicode="&#xd2;" horiz-adv-x="1486" 
d="M772 1544l-190 293l336 -2l163 -291h-309zM680 -20q-272 0 -433 164t-161 456q0 174 55 332.5t153 279t245.5 192t320.5 71.5q271 0 433.5 -163.5t162.5 -451.5q0 -183 -52.5 -342.5t-149 -279.5t-245 -189t-329.5 -69zM709 328q105 0 187.5 66t127.5 182t45 260
q0 146 -67 219t-175 73q-99 0 -181.5 -70.5t-128.5 -185.5t-46 -245q0 -148 66.5 -223.5t171.5 -75.5z" />
    <glyph glyph-name="Oacute" unicode="&#xd3;" horiz-adv-x="1486" 
d="M719 1544l235 291l338 2l-268 -293h-305zM680 -20q-272 0 -433 164t-161 456q0 174 55 332.5t153 279t245.5 192t320.5 71.5q271 0 433.5 -163.5t162.5 -451.5q0 -183 -52.5 -342.5t-149 -279.5t-245 -189t-329.5 -69zM709 328q105 0 187.5 66t127.5 182t45 260
q0 146 -67 219t-175 73q-99 0 -181.5 -70.5t-128.5 -185.5t-46 -245q0 -148 66.5 -223.5t171.5 -75.5z" />
    <glyph glyph-name="Ocircumflex" unicode="&#xd4;" horiz-adv-x="1486" 
d="M586 1544l207 293h352l139 -293h-283l-53 125h-2l-86 -125h-274zM680 -20q-272 0 -433 164t-161 456q0 174 55 332.5t153 279t245.5 192t320.5 71.5q271 0 433.5 -163.5t162.5 -451.5q0 -183 -52.5 -342.5t-149 -279.5t-245 -189t-329.5 -69zM709 328q105 0 187.5 66
t127.5 182t45 260q0 146 -67 219t-175 73q-99 0 -181.5 -70.5t-128.5 -185.5t-46 -245q0 -148 66.5 -223.5t171.5 -75.5z" />
    <glyph glyph-name="Otilde" unicode="&#xd5;" horiz-adv-x="1486" 
d="M1110 1548q-13 0 -26.5 1.5t-23.5 3.5t-22 7t-18.5 7.5t-18.5 9.5t-16 9.5t-16.5 10.5t-14.5 9q-52 34 -88 34q-65 0 -118 -100l-189 92q50 105 121.5 171.5t155.5 66.5q78 0 153 -51q2 -1 16 -10t18 -11.5t15 -7.5t19.5 -6.5t17.5 -1.5q70 0 121 94l186 -74
q-49 -112 -118.5 -183t-153.5 -71zM680 -20q-272 0 -433 164t-161 456q0 174 55 332.5t153 279t245.5 192t320.5 71.5q271 0 433.5 -163.5t162.5 -451.5q0 -183 -52.5 -342.5t-149 -279.5t-245 -189t-329.5 -69zM709 328q105 0 187.5 66t127.5 182t45 260q0 146 -67 219
t-175 73q-99 0 -181.5 -70.5t-128.5 -185.5t-46 -245q0 -148 66.5 -223.5t171.5 -75.5z" />
    <glyph glyph-name="Odieresis" unicode="&#xd6;" horiz-adv-x="1486" 
d="M711 1532q-91 0 -147 54t-56 138t58 139.5t151 55.5q91 0 147 -52.5t56 -135.5q0 -87 -58 -143t-151 -56zM1182 1532q-90 0 -146.5 54t-56.5 138t58.5 139.5t152.5 55.5q90 0 146.5 -53t56.5 -135q0 -87 -58.5 -143t-152.5 -56zM680 -20q-272 0 -433 164t-161 456
q0 174 55 332.5t153 279t245.5 192t320.5 71.5q271 0 433.5 -163.5t162.5 -451.5q0 -183 -52.5 -342.5t-149 -279.5t-245 -189t-329.5 -69zM709 328q105 0 187.5 66t127.5 182t45 260q0 146 -67 219t-175 73q-99 0 -181.5 -70.5t-128.5 -185.5t-46 -245q0 -148 66.5 -223.5
t171.5 -75.5z" />
    <glyph glyph-name="multiply" unicode="&#xd7;" horiz-adv-x="1001" 
d="M227 102l-182 205l262 262l-196 262l223 203l194 -262l263 264l182 -205l-264 -264l196 -264l-219 -203l-199 265z" />
    <glyph glyph-name="Oslash" unicode="&#xd8;" horiz-adv-x="1488" 
d="M1518 1386l-154 -161q94 -148 94 -365q0 -183 -52.5 -342.5t-149 -279.5t-245 -189t-329.5 -69q-229 0 -379 116l-162 -172l-131 129l170 180q-92 150 -92 367q0 174 55 332.5t153 279t245.5 192t320.5 71.5q228 0 379 -115l143 153zM473 627q0 -41 6 -76l498 530
q-58 47 -148 47q-99 0 -181.5 -70.5t-128.5 -185.5t-46 -245zM1071 836q0 25 -4 71l-500 -530q58 -49 144 -49q105 0 187.5 66t127.5 182t45 260z" />
    <glyph glyph-name="Ugrave" unicode="&#xd9;" horiz-adv-x="1310" 
d="M637 1544l-191 293l336 -2l164 -291h-309zM598 -20q-565 0 -479 686l98 788h371l-101 -827q-9 -63 -6 -118t16.5 -95.5t48 -64t87.5 -23.5q90 0 146 64.5t75 221.5l104 842h369l-104 -854q-21 -172 -71 -292.5t-130 -192t-183 -103.5t-241 -32z" />
    <glyph glyph-name="Uacute" unicode="&#xda;" horiz-adv-x="1310" 
d="M606 1544l236 291l338 2l-269 -293h-305zM598 -20q-565 0 -479 686l98 788h371l-101 -827q-9 -63 -6 -118t16.5 -95.5t48 -64t87.5 -23.5q90 0 146 64.5t75 221.5l104 842h369l-104 -854q-21 -172 -71 -292.5t-130 -192t-183 -103.5t-241 -32z" />
    <glyph glyph-name="Ucircumflex" unicode="&#xdb;" horiz-adv-x="1310" 
d="M438 1544l207 293h352l140 -293h-283l-53 125h-2l-86 -125h-275zM598 -20q-565 0 -479 686l98 788h371l-101 -827q-9 -63 -6 -118t16.5 -95.5t48 -64t87.5 -23.5q90 0 146 64.5t75 221.5l104 842h369l-104 -854q-21 -172 -71 -292.5t-130 -192t-183 -103.5t-241 -32z" />
    <glyph glyph-name="Udieresis" unicode="&#xdc;" horiz-adv-x="1310" 
d="M563 1532q-91 0 -147 54t-56 138t58 139.5t151 55.5q91 0 147 -52.5t56 -135.5q0 -87 -58 -143t-151 -56zM1034 1532q-90 0 -146.5 54t-56.5 138t58.5 139.5t152.5 55.5q90 0 146.5 -53t56.5 -135q0 -87 -58.5 -143t-152.5 -56zM598 -20q-565 0 -479 686l98 788h371
l-101 -827q-9 -63 -6 -118t16.5 -95.5t48 -64t87.5 -23.5q90 0 146 64.5t75 221.5l104 842h369l-104 -854q-21 -172 -71 -292.5t-130 -192t-183 -103.5t-241 -32z" />
    <glyph glyph-name="Yacute" unicode="&#xdd;" horiz-adv-x="1189" 
d="M563 1544l236 291l338 2l-269 -293h-305zM344 0l80 631l-318 823h408l135 -477h6l244 477h422l-522 -823l-78 -631h-377z" />
    <glyph glyph-name="Thorn" unicode="&#xde;" horiz-adv-x="1191" 
d="M53 0l178 1454h363l-29 -227h195q107 0 188.5 -32t131 -88.5t74 -129.5t24.5 -160q0 -130 -39.5 -238.5t-113 -187t-183.5 -122.5t-246 -44h-154l-26 -225h-363zM483 549h119q85 0 138 63.5t53 151.5q0 70 -38 102.5t-91 32.5h-138z" />
    <glyph glyph-name="germandbls" unicode="&#xdf;" horiz-adv-x="1314" 
d="M893 -20q-103 0 -206 45t-173 127l184 194q101 -113 189 -113q59 0 59 41q0 19 -24 38t-105 63q-223 116 -223 291q0 43 11 81t37.5 77t42 58t54.5 62q47 55 73 97.5t30 91.5q4 54 -38 79t-114 25q-73 0 -120.5 -49.5t-57.5 -140.5l-127 -1047h-350l131 1075
q56 453 516 453q88 0 163.5 -13.5t140 -42.5t109 -72t68.5 -106t21 -141q-5 -140 -113 -256q-17 -18 -47 -47t-45.5 -44.5t-28 -36.5t-12.5 -40q0 -26 17 -48.5t63 -49.5q47 -28 65.5 -39t54.5 -34.5t50 -37.5t36 -38t30 -45.5t15 -50.5t7 -62q0 -166 -107.5 -255
t-275.5 -89z" />
    <glyph glyph-name="agrave" unicode="&#xe0;" horiz-adv-x="1122" 
d="M545 1143l-189 311l336 -2l162 -309h-309zM360 -20q-149 0 -233 115t-84 296q0 138 38 258t102 201.5t148 127.5t175 46q144 0 223 -86h6l8 66h351l-123 -1004h-350l16 129l-6 2q-108 -151 -271 -151zM485 289q72 0 136.5 89.5t89.5 250.5l4 22q-58 64 -137 64
q-54 0 -98 -46.5t-65.5 -111.5t-21.5 -129q0 -62 26 -100.5t66 -38.5z" />
    <glyph glyph-name="aacute" unicode="&#xe1;" horiz-adv-x="1122" 
d="M467 1141l238 309l344 2l-267 -311h-315zM360 -20q-149 0 -233 115t-84 296q0 138 38 258t102 201.5t148 127.5t175 46q144 0 223 -86h6l8 66h351l-123 -1004h-350l16 129l-6 2q-108 -151 -271 -151zM485 289q72 0 136.5 89.5t89.5 250.5l4 22q-58 64 -137 64
q-54 0 -98 -46.5t-65.5 -111.5t-21.5 -129q0 -62 26 -100.5t66 -38.5z" />
    <glyph glyph-name="acircumflex" unicode="&#xe2;" horiz-adv-x="1122" 
d="M297 1135l231 317h297l168 -317h-288l-37 149h-2l-72 -149h-297zM360 -20q-149 0 -233 115t-84 296q0 138 38 258t102 201.5t148 127.5t175 46q144 0 223 -86h6l8 66h351l-123 -1004h-350l16 129l-6 2q-108 -151 -271 -151zM485 289q72 0 136.5 89.5t89.5 250.5l4 22
q-58 64 -137 64q-54 0 -98 -46.5t-65.5 -111.5t-21.5 -129q0 -62 26 -100.5t66 -38.5z" />
    <glyph glyph-name="atilde" unicode="&#xe3;" horiz-adv-x="1122" 
d="M821 1122q-36 0 -69.5 11.5t-46.5 20t-41 28.5q-42 32 -86 32q-66 0 -119 -100l-189 92q48 118 119.5 189t157.5 71q38 0 72.5 -11t46 -18t36.5 -24q52 -35 82 -35q69 0 123 99l187 -78q-47 -126 -117.5 -201.5t-155.5 -75.5zM360 -20q-149 0 -233 115t-84 296
q0 138 38 258t102 201.5t148 127.5t175 46q144 0 223 -86h6l8 66h351l-123 -1004h-350l16 129l-6 2q-108 -151 -271 -151zM485 289q72 0 136.5 89.5t89.5 250.5l4 22q-58 64 -137 64q-54 0 -98 -46.5t-65.5 -111.5t-21.5 -129q0 -62 26 -100.5t66 -38.5z" />
    <glyph glyph-name="adieresis" unicode="&#xe4;" horiz-adv-x="1122" 
d="M430 1118q-91 0 -147 54.5t-56 138.5t58 139t151 55q91 0 147 -52.5t56 -135.5q0 -87 -58 -143t-151 -56zM901 1118q-90 0 -146.5 54.5t-56.5 138.5t58.5 139t152.5 55q90 0 146.5 -53t56.5 -135q0 -87 -58.5 -143t-152.5 -56zM360 -20q-149 0 -233 115t-84 296
q0 138 38 258t102 201.5t148 127.5t175 46q144 0 223 -86h6l8 66h351l-123 -1004h-350l16 129l-6 2q-108 -151 -271 -151zM485 289q72 0 136.5 89.5t89.5 250.5l4 22q-58 64 -137 64q-54 0 -98 -46.5t-65.5 -111.5t-21.5 -129q0 -62 26 -100.5t66 -38.5z" />
    <glyph glyph-name="aring" unicode="&#xe5;" horiz-adv-x="1122" 
d="M670 1100q-92 0 -153.5 62t-61.5 153q0 94 63 156.5t158 62.5q92 0 153.5 -60.5t61.5 -150.5q0 -95 -63 -159t-158 -64zM674 1245q31 0 51 21t20 53q0 29 -20 49.5t-49 20.5q-32 0 -54 -20.5t-22 -51.5t21 -51.5t53 -20.5zM360 -20q-149 0 -233 115t-84 296q0 138 38 258
t102 201.5t148 127.5t175 46q144 0 223 -86h6l8 66h351l-123 -1004h-350l16 129l-6 2q-108 -151 -271 -151zM485 289q72 0 136.5 89.5t89.5 250.5l4 22q-58 64 -137 64q-54 0 -98 -46.5t-65.5 -111.5t-21.5 -129q0 -62 26 -100.5t66 -38.5z" />
    <glyph glyph-name="ae" unicode="&#xe6;" horiz-adv-x="1400" 
d="M961 258q82 0 147 94l252 -139q-147 -233 -416 -233q-236 0 -315 159q-111 -162 -283 -162q-144 0 -236 98.5t-92 280.5q0 189 64.5 335.5t193 232.5t304.5 86q133 0 237 -43q102 57 238 57q65 0 125.5 -16t112.5 -48.5t83 -89.5t31 -131q0 -79 -47.5 -146.5t-128 -114
t-180.5 -76.5t-211 -42q14 -52 48.5 -77t72.5 -25zM1026 741q-55 0 -103 -52.5t-73 -139.5q229 41 229 147q0 20 -14 32.5t-39 12.5zM428 270q26 0 50.5 30.5t42.5 80.5t31 99t21 98q16 89 48 157q-110 -8 -182 -104.5t-72 -245.5q0 -55 17 -85t44 -30z" />
    <glyph glyph-name="ccedilla" unicode="&#xe7;" horiz-adv-x="970" 
d="M502 289q41 0 75.5 20.5t71.5 71.5l271 -164q-145 -222 -410 -237l-31 -39l2 -2q74 -3 114 -37.5t40 -100.5q0 -99 -70.5 -147.5t-197.5 -48.5q-65 0 -119 12l4 133q34 -12 84 -12q47 0 73.5 17t26.5 46q0 47 -129 47l2 80l41 64q-146 33 -225.5 143t-79.5 287
q0 91 21.5 177.5t65.5 163.5t106.5 135t150.5 92t191 34q259 0 393 -195l-264 -198q-40 86 -115 86q-85 0 -142 -86.5t-57 -200.5q0 -62 26.5 -101.5t80.5 -39.5z" />
    <glyph glyph-name="egrave" unicode="&#xe8;" horiz-adv-x="972" 
d="M793 1143h-310l-188 311l336 -2zM956 743q-2 -74 -35 -134t-86.5 -100.5t-129.5 -70.5t-155 -47t-171 -26q12 -54 47.5 -80.5t75.5 -26.5q95 0 160 96l253 -137q-148 -237 -446 -237q-193 0 -310 114t-116 307q0 173 69 314.5t198 225t294 83.5q63 0 123.5 -17t113.5 -50
t84.5 -88.5t30.5 -125.5zM629 684q1 27 -14.5 42t-43.5 15q-60 0 -109.5 -52t-72.5 -138q235 26 240 133z" />
    <glyph glyph-name="eacute" unicode="&#xe9;" horiz-adv-x="972" 
d="M1024 1452l-266 -311h-316l238 309zM604 1024q63 0 123.5 -17t113.5 -50t84.5 -88.5t30.5 -125.5q-2 -74 -35 -134t-86.5 -100.5t-129.5 -70.5t-155 -47t-171 -26q12 -54 47.5 -80.5t75.5 -26.5q95 0 160 96l253 -137q-148 -237 -446 -237q-193 0 -310 114t-116 307
q0 173 69 314.5t198 225t294 83.5zM629 684q1 27 -14.5 42t-43.5 15q-60 0 -109.5 -52t-72.5 -138q235 26 240 133z" />
    <glyph glyph-name="ecircumflex" unicode="&#xea;" horiz-adv-x="972" 
d="M621 1284l-72 -149h-297l231 317h297l168 -317h-289l-36 149h-2zM956 743q-2 -74 -35 -134t-86.5 -100.5t-129.5 -70.5t-155 -47t-171 -26q12 -54 47.5 -80.5t75.5 -26.5q95 0 160 96l253 -137q-148 -237 -446 -237q-193 0 -310 114t-116 307q0 173 69 314.5t198 225
t294 83.5q63 0 123.5 -17t113.5 -50t84.5 -88.5t30.5 -125.5zM629 684q1 27 -14.5 42t-43.5 15q-60 0 -109.5 -52t-72.5 -138q235 26 240 133z" />
    <glyph glyph-name="edieresis" unicode="&#xeb;" horiz-adv-x="972" 
d="M385 1118q-91 0 -147 54.5t-56 138.5t58 139t151 55q91 0 147 -52.5t56 -135.5q0 -87 -58 -143t-151 -56zM864 1505q90 0 146.5 -53t56.5 -135q0 -87 -58.5 -143t-152.5 -56q-90 0 -146.5 54.5t-56.5 138.5t58.5 139t152.5 55zM604 1024q63 0 123.5 -17t113.5 -50
t84.5 -88.5t30.5 -125.5q-2 -74 -35 -134t-86.5 -100.5t-129.5 -70.5t-155 -47t-171 -26q12 -54 47.5 -80.5t75.5 -26.5q95 0 160 96l253 -137q-148 -237 -446 -237q-193 0 -310 114t-116 307q0 173 69 314.5t198 225t294 83.5zM629 684q1 27 -14.5 42t-43.5 15
q-60 0 -109.5 -52t-72.5 -138q235 26 240 133z" />
    <glyph glyph-name="igrave" unicode="&#xec;" horiz-adv-x="557" 
d="M186 1143l-110 311l338 -2l82 -309h-310zM41 0l125 1004h346l-123 -1004h-348z" />
    <glyph glyph-name="iacute" unicode="&#xed;" horiz-adv-x="559" 
d="M199 1141l237 309l344 2l-266 -311h-315zM43 0l125 1004h346l-123 -1004h-348z" />
    <glyph glyph-name="icircumflex" unicode="&#xee;" horiz-adv-x="559" 
d="M12 1135l232 317h297l168 -317h-289l-37 149h-2l-72 -149h-297zM43 0l125 1004h346l-123 -1004h-348z" />
    <glyph glyph-name="idieresis" unicode="&#xef;" horiz-adv-x="559" 
d="M184 1120q-76 0 -128 55.5t-52 135.5q0 81 54 136.5t132 55.5t130.5 -53.5t52.5 -132.5q0 -84 -54 -140.5t-135 -56.5zM582 1120q-76 0 -128.5 55.5t-52.5 135.5q0 82 54 137t135 55q76 0 127 -53t51 -133q0 -83 -53.5 -140t-132.5 -57zM43 0l125 1004h346l-123 -1004
h-348z" />
    <glyph glyph-name="eth" unicode="&#xf0;" horiz-adv-x="1075" 
d="M868 1196q38 -48 62 -92q111 -193 108 -445q-2 -145 -34.5 -265.5t-97 -214.5t-172 -146.5t-249.5 -52.5q-211 0 -325.5 122t-114.5 328q0 114 38.5 216.5t102.5 174.5t149 114t175 42q72 0 135 -29l-6 15q-45 95 -125 163.5t-233 165.5l139 238q158 -73 274 -164
l178 219l185 -166zM502 287q82 0 133.5 97t54.5 263q-51 39 -110 39q-54 0 -98 -42.5t-65.5 -98.5t-21.5 -109q0 -80 33 -114.5t74 -34.5z" />
    <glyph glyph-name="ntilde" unicode="&#xf1;" horiz-adv-x="1110" 
d="M842 1122q-36 0 -69.5 11.5t-47.5 20.5t-41 28q-42 32 -86 32q-66 0 -119 -100l-188 92q48 119 119 189.5t157 70.5q38 0 72.5 -10.5t47 -18t36.5 -24.5q52 -35 82 -35q69 0 123 99l186 -78q-47 -126 -117 -201.5t-155 -75.5zM35 0l123 1004h348l-17 -125l7 -2
q128 147 317 147q137 0 193.5 -98.5t29.5 -307.5l-80 -618h-346l70 522q13 101 4 146t-45 45q-66 0 -128 -86t-83 -258l-45 -369h-348z" />
    <glyph glyph-name="ograve" unicode="&#xf2;" horiz-adv-x="1083" 
d="M489 1143l-188 311l336 -2l162 -309h-310zM469 -20q-193 0 -308.5 115t-115.5 321q0 121 37.5 230t106.5 193.5t177.5 134.5t241.5 50q197 0 313.5 -115.5t116.5 -320.5q0 -123 -33 -229.5t-99.5 -192.5t-178.5 -136t-258 -50zM502 289q81 0 132.5 84t51.5 194
q0 81 -33.5 113.5t-74.5 32.5q-55 0 -97.5 -43.5t-63 -108t-20.5 -135.5q0 -73 34 -105t71 -32z" />
    <glyph glyph-name="oacute" unicode="&#xf3;" horiz-adv-x="1083" 
d="M477 1141l238 309l344 2l-266 -311h-316zM469 -20q-193 0 -308.5 115t-115.5 321q0 121 37.5 230t106.5 193.5t177.5 134.5t241.5 50q197 0 313.5 -115.5t116.5 -320.5q0 -123 -33 -229.5t-99.5 -192.5t-178.5 -136t-258 -50zM502 289q81 0 132.5 84t51.5 194
q0 81 -33.5 113.5t-74.5 32.5q-55 0 -97.5 -43.5t-63 -108t-20.5 -135.5q0 -73 34 -105t71 -32z" />
    <glyph glyph-name="ocircumflex" unicode="&#xf4;" horiz-adv-x="1083" 
d="M287 1135l231 317h297l168 -317h-289l-37 149h-2l-71 -149h-297zM469 -20q-193 0 -308.5 115t-115.5 321q0 121 37.5 230t106.5 193.5t177.5 134.5t241.5 50q197 0 313.5 -115.5t116.5 -320.5q0 -123 -33 -229.5t-99.5 -192.5t-178.5 -136t-258 -50zM502 289
q81 0 132.5 84t51.5 194q0 81 -33.5 113.5t-74.5 32.5q-55 0 -97.5 -43.5t-63 -108t-20.5 -135.5q0 -73 34 -105t71 -32z" />
    <glyph glyph-name="otilde" unicode="&#xf5;" horiz-adv-x="1083" 
d="M811 1122q-36 0 -69.5 11.5t-47.5 20.5t-41 28q-42 32 -86 32q-65 0 -118 -100l-189 92q48 118 119.5 189t157.5 71q38 0 72.5 -11t46 -18t36.5 -24q52 -35 82 -35q69 0 123 99l186 -78q-47 -126 -117 -201.5t-155 -75.5zM469 -20q-193 0 -308.5 115t-115.5 321
q0 121 37.5 230t106.5 193.5t177.5 134.5t241.5 50q197 0 313.5 -115.5t116.5 -320.5q0 -123 -33 -229.5t-99.5 -192.5t-178.5 -136t-258 -50zM502 289q81 0 132.5 84t51.5 194q0 81 -33.5 113.5t-74.5 32.5q-55 0 -97.5 -43.5t-63 -108t-20.5 -135.5q0 -73 34 -105t71 -32z
" />
    <glyph glyph-name="odieresis" unicode="&#xf6;" horiz-adv-x="1083" 
d="M420 1118q-91 0 -147 54.5t-56 138.5t58 139t151 55q91 0 147 -52.5t56 -135.5q0 -87 -58 -143t-151 -56zM891 1118q-90 0 -146.5 54.5t-56.5 138.5t58.5 139t152.5 55q90 0 146.5 -53t56.5 -135q0 -87 -58.5 -143t-152.5 -56zM469 -20q-193 0 -308.5 115t-115.5 321
q0 121 37.5 230t106.5 193.5t177.5 134.5t241.5 50q197 0 313.5 -115.5t116.5 -320.5q0 -123 -33 -229.5t-99.5 -192.5t-178.5 -136t-258 -50zM502 289q81 0 132.5 84t51.5 194q0 81 -33.5 113.5t-74.5 32.5q-55 0 -97.5 -43.5t-63 -108t-20.5 -135.5q0 -73 34 -105t71 -32z
" />
    <glyph glyph-name="divide" unicode="&#xf7;" horiz-adv-x="1050" 
d="M580 811q-82 0 -133.5 49t-51.5 125t53 126t138 50q82 0 133 -48.5t51 -123.5q0 -78 -52.5 -128t-137.5 -50zM88 424l37 287h885l-35 -287h-887zM496 -23q-82 0 -133.5 49.5t-51.5 125.5t53 126t138 50q82 0 133 -48.5t51 -123.5q0 -78 -52.5 -128.5t-137.5 -50.5z" />
    <glyph glyph-name="oslash" unicode="&#xf8;" horiz-adv-x="1081" 
d="M1067 954l-98 -104q69 -104 69 -262q0 -123 -33 -229.5t-99.5 -192.5t-178.5 -136t-258 -50q-153 0 -256 71l-94 -98l-92 88l96 100q-78 111 -78 275q0 121 37.5 230t106.5 193.5t177.5 134.5t241.5 50q164 0 275 -82l94 98zM578 713q-80 0 -129.5 -86t-51.5 -197
l246 260q-29 23 -65 23zM502 289q78 0 128.5 78t55.5 184l-235 -246q24 -16 51 -16z" />
    <glyph glyph-name="ugrave" unicode="&#xf9;" horiz-adv-x="1097" 
d="M465 1143l-189 311l336 -2l162 -309h-309zM324 -20q-70 0 -121 19.5t-89 65t-47.5 121.5t3.5 189l88 629h346l-74 -500q-19 -122 -9.5 -168.5t54.5 -46.5q56 0 113.5 77t66.5 160l60 478h348l-123 -1004h-340l8 131h-6q-118 -151 -278 -151z" />
    <glyph glyph-name="uacute" unicode="&#xfa;" horiz-adv-x="1097" 
d="M485 1141l238 309l344 2l-266 -311h-316zM324 -20q-70 0 -121 19.5t-89 65t-47.5 121.5t3.5 189l88 629h346l-74 -500q-19 -122 -9.5 -168.5t54.5 -46.5q56 0 113.5 77t66.5 160l60 478h348l-123 -1004h-340l8 131h-6q-118 -151 -278 -151z" />
    <glyph glyph-name="ucircumflex" unicode="&#xfb;" horiz-adv-x="1097" 
d="M283 1135l231 317h297l168 -317h-289l-37 149h-2l-71 -149h-297zM324 -20q-70 0 -121 19.5t-89 65t-47.5 121.5t3.5 189l88 629h346l-74 -500q-19 -122 -9.5 -168.5t54.5 -46.5q56 0 113.5 77t66.5 160l60 478h348l-123 -1004h-340l8 131h-6q-118 -151 -278 -151z" />
    <glyph glyph-name="udieresis" unicode="&#xfc;" horiz-adv-x="1097" 
d="M416 1118q-91 0 -147 54.5t-56 138.5t58 139t151 55q91 0 147 -52.5t56 -135.5q0 -87 -58 -143t-151 -56zM887 1118q-90 0 -146.5 54.5t-56.5 138.5t58.5 139t152.5 55q90 0 146.5 -53t56.5 -135q0 -87 -58.5 -143t-152.5 -56zM324 -20q-70 0 -121 19.5t-89 65
t-47.5 121.5t3.5 189l88 629h346l-74 -500q-19 -122 -9.5 -168.5t54.5 -46.5q56 0 113.5 77t66.5 160l60 478h348l-123 -1004h-340l8 131h-6q-118 -151 -278 -151z" />
    <glyph glyph-name="yacute" unicode="&#xfd;" horiz-adv-x="1081" 
d="M1028 1452l-266 -311h-316l238 309zM705 1004h348l-107 -863q-68 -567 -577 -567q-206 0 -369 98l106 250q107 -72 238 -72q40 0 70 6t60.5 23.5t52 47.5t40 81t29.5 121h-6q-114 -149 -279 -149q-55 0 -98.5 12t-79.5 40t-55 74t-26.5 112.5t7.5 156.5l88 629h347
l-72 -500q-19 -122 -11 -168.5t56 -46.5q54 0 111.5 77.5t66.5 153.5z" />
    <glyph glyph-name="thorn" unicode="&#xfe;" horiz-adv-x="1128" 
d="M-16 -406l235 1913h350l-77 -637l2 -2q112 156 274 156q150 0 233.5 -115.5t83.5 -298.5q0 -138 -38.5 -257t-103.5 -200t-151 -127t-180 -46q-131 0 -217 59l-8 -4l-53 -441h-350zM520 289q102 0 158.5 83t56.5 201q0 63 -27 102.5t-67 39.5q-74 0 -139 -95.5
t-90 -273.5l-2 -14q43 -43 110 -43z" />
    <glyph glyph-name="ydieresis" unicode="&#xff;" horiz-adv-x="1081" 
d="M389 1118q-91 0 -147 54.5t-56 138.5t58 139t151 55q91 0 147 -52.5t56 -135.5q0 -87 -58 -143t-151 -56zM860 1118q-90 0 -146.5 54.5t-56.5 138.5t58.5 139t152.5 55q90 0 146.5 -53t56.5 -135q0 -87 -58.5 -143t-152.5 -56zM645 520l60 484h348l-107 -863
q-68 -567 -577 -567q-206 0 -369 98l106 250q107 -72 238 -72q40 0 70 6t60.5 23.5t52 47.5t40 81t29.5 121h-6q-114 -149 -279 -149q-55 0 -98.5 12t-79.5 40t-55 74t-26.5 112.5t7.5 156.5l88 629h347l-72 -500q-19 -122 -11 -168.5t56 -46.5q54 0 111.5 77.5t66.5 153.5z
" />
    <glyph glyph-name="Amacron" unicode="&#x100;" horiz-adv-x="1288" 
d="M483 1589l33 250h596l-33 -250h-596zM-68 0l652 1454h348l295 -1454h-385l-37 246h-393l-88 -246h-392zM524 553h236l-68 455h-4z" />
    <glyph glyph-name="amacron" unicode="&#x101;" horiz-adv-x="1122" 
d="M356 1186l33 260h596l-33 -260h-596zM360 -20q-149 0 -233 115t-84 296q0 138 38 258t102 201.5t148 127.5t175 46q144 0 223 -86h6l8 66h351l-123 -1004h-350l16 129l-6 2q-108 -151 -271 -151zM485 289q72 0 136.5 89.5t89.5 250.5l4 22q-58 64 -137 64
q-54 0 -98 -46.5t-65.5 -111.5t-21.5 -129q0 -62 26 -100.5t66 -38.5z" />
    <glyph glyph-name="Abreve" unicode="&#x102;" horiz-adv-x="1288" 
d="M772 1530q-150 0 -223 82t-64 225h244q-5 -34 14 -58t56 -24q40 0 71.5 24.5t42.5 57.5h246q-29 -137 -123 -222t-264 -85zM-68 0l652 1454h348l295 -1454h-385l-37 246h-393l-88 -246h-392zM524 553h236l-68 455h-4z" />
    <glyph glyph-name="abreve" unicode="&#x103;" horiz-adv-x="1122" 
d="M635 1094q-143 0 -219.5 86.5t-67.5 242.5h244q-5 -35 14 -59.5t56 -24.5q41 0 72 24.5t42 59.5h246q-27 -148 -127 -238.5t-260 -90.5zM360 -20q-149 0 -233 115t-84 296q0 138 38 258t102 201.5t148 127.5t175 46q144 0 223 -86h6l8 66h351l-123 -1004h-350l16 129
l-6 2q-108 -151 -271 -151zM485 289q72 0 136.5 89.5t89.5 250.5l4 22q-58 64 -137 64q-54 0 -98 -46.5t-65.5 -111.5t-21.5 -129q0 -62 26 -100.5t66 -38.5z" />
    <glyph glyph-name="Aogonek" unicode="&#x104;" horiz-adv-x="1288" 
d="M1165 0q-78 -1 -140 -56t-62 -118q0 -24 11.5 -33.5t35.5 -9.5q33 0 61 12l4 -168q-61 -20 -157 -20q-100 0 -152.5 42t-52.5 122q0 64 35 126t94 107l-37 242h-393l-88 -246h-392l652 1454h348l295 -1454h-62zM524 553h236l-68 455h-4z" />
    <glyph glyph-name="aogonek" unicode="&#x105;" horiz-adv-x="1122" 
d="M743 1004h351l-123 -1004h-31q-78 -1 -140.5 -56t-62.5 -118q0 -24 11.5 -33.5t35.5 -9.5q34 0 62 12l4 -168q-61 -20 -158 -20q-100 0 -152.5 42t-52.5 122q0 64 37 127.5t97 109.5l16 121l-6 2q-108 -151 -271 -151q-149 0 -233 115t-84 296q0 138 38 258t102 201.5
t148 127.5t175 46q144 0 223 -86h6zM485 289q72 0 136.5 89.5t89.5 250.5l4 22q-58 64 -137 64q-54 0 -98 -46.5t-65.5 -111.5t-21.5 -129q0 -62 26 -100.5t66 -38.5z" />
    <glyph glyph-name="Cacute" unicode="&#x106;" horiz-adv-x="1318" 
d="M688 1544l236 291l338 2l-269 -293h-305zM684 -20q-129 0 -237.5 39.5t-189.5 115t-126 193.5t-45 268q0 144 35 276.5t103 241.5t161.5 190t216.5 126t262 45q66 0 131.5 -16t133 -50.5t130 -95.5t111.5 -144l-289 -223q-44 78 -105.5 125t-133.5 47q-82 0 -152.5 -44.5
t-116 -117t-71 -161.5t-25.5 -181q0 -134 63 -205t171 -71q76 0 149.5 35t126.5 100l256 -242q-102 -122 -246.5 -186.5t-312.5 -64.5z" />
    <glyph glyph-name="cacute" unicode="&#x107;" horiz-adv-x="970" 
d="M457 1141l237 309l344 2l-266 -311h-315zM473 -20q-201 0 -314.5 115t-113.5 327q0 91 21.5 177.5t65.5 163.5t106.5 135t150.5 92t191 34q259 0 393 -195l-264 -198q-40 86 -115 86q-85 0 -142 -86.5t-57 -200.5q0 -62 26.5 -101.5t80.5 -39.5q41 0 75.5 20.5t71.5 71.5
l271 -164q-153 -237 -447 -237z" />
    <glyph glyph-name="Ccircumflex" unicode="&#x108;" horiz-adv-x="1318" 
d="M559 1544l207 293h352l139 -293h-282l-53 125h-2l-86 -125h-275zM684 -20q-129 0 -237.5 39.5t-189.5 115t-126 193.5t-45 268q0 144 35 276.5t103 241.5t161.5 190t216.5 126t262 45q66 0 131.5 -16t133 -50.5t130 -95.5t111.5 -144l-289 -223q-44 78 -105.5 125
t-133.5 47q-82 0 -152.5 -44.5t-116 -117t-71 -161.5t-25.5 -181q0 -134 63 -205t171 -71q76 0 149.5 35t126.5 100l256 -242q-102 -122 -246.5 -186.5t-312.5 -64.5z" />
    <glyph glyph-name="ccircumflex" unicode="&#x109;" horiz-adv-x="970" 
d="M274 1135l232 317h297l168 -317h-289l-37 149h-2l-72 -149h-297zM473 -20q-201 0 -314.5 115t-113.5 327q0 91 21.5 177.5t65.5 163.5t106.5 135t150.5 92t191 34q259 0 393 -195l-264 -198q-40 86 -115 86q-85 0 -142 -86.5t-57 -200.5q0 -62 26.5 -101.5t80.5 -39.5
q41 0 75.5 20.5t71.5 71.5l271 -164q-153 -237 -447 -237z" />
    <glyph glyph-name="Cdotaccent" unicode="&#x10a;" horiz-adv-x="1318" 
d="M922 1532q-91 0 -148 54t-57 138t58.5 139.5t152.5 55.5q91 0 146.5 -52.5t55.5 -135.5q0 -87 -57.5 -143t-150.5 -56zM684 -20q-129 0 -237.5 39.5t-189.5 115t-126 193.5t-45 268q0 144 35 276.5t103 241.5t161.5 190t216.5 126t262 45q66 0 131.5 -16t133 -50.5
t130 -95.5t111.5 -144l-289 -223q-44 78 -105.5 125t-133.5 47q-82 0 -152.5 -44.5t-116 -117t-71 -161.5t-25.5 -181q0 -134 63 -205t171 -71q76 0 149.5 35t126.5 100l256 -242q-102 -122 -246.5 -186.5t-312.5 -64.5z" />
    <glyph glyph-name="cdotaccent" unicode="&#x10b;" horiz-adv-x="970" 
d="M637 1118q-91 0 -148 54.5t-57 138.5t58.5 139t152.5 55q91 0 147 -52.5t56 -135.5q0 -87 -58 -143t-151 -56zM473 -20q-201 0 -314.5 115t-113.5 327q0 91 21.5 177.5t65.5 163.5t106.5 135t150.5 92t191 34q259 0 393 -195l-264 -198q-40 86 -115 86q-85 0 -142 -86.5
t-57 -200.5q0 -62 26.5 -101.5t80.5 -39.5q41 0 75.5 20.5t71.5 71.5l271 -164q-153 -237 -447 -237z" />
    <glyph glyph-name="Ccaron" unicode="&#x10c;" horiz-adv-x="1318" 
d="M733 1544l-139 293h283l53 -125h2l86 125h274l-207 -293h-352zM684 -20q-129 0 -237.5 39.5t-189.5 115t-126 193.5t-45 268q0 144 35 276.5t103 241.5t161.5 190t216.5 126t262 45q66 0 131.5 -16t133 -50.5t130 -95.5t111.5 -144l-289 -223q-44 78 -105.5 125
t-133.5 47q-82 0 -152.5 -44.5t-116 -117t-71 -161.5t-25.5 -181q0 -134 63 -205t171 -71q76 0 149.5 35t126.5 100l256 -242q-102 -122 -246.5 -186.5t-312.5 -64.5z" />
    <glyph glyph-name="ccaron" unicode="&#x10d;" horiz-adv-x="970" 
d="M455 1114l-138 309h283l51 -141h2l84 141h277l-207 -309h-352zM473 -20q-201 0 -314.5 115t-113.5 327q0 91 21.5 177.5t65.5 163.5t106.5 135t150.5 92t191 34q259 0 393 -195l-264 -198q-40 86 -115 86q-85 0 -142 -86.5t-57 -200.5q0 -62 26.5 -101.5t80.5 -39.5
q41 0 75.5 20.5t71.5 71.5l271 -164q-153 -237 -447 -237z" />
    <glyph glyph-name="Dcaron" unicode="&#x10e;" horiz-adv-x="1337" 
d="M596 1540l-139 293h282l54 -125h2l86 125h274l-207 -293h-352zM53 0l178 1454h471q298 0 450.5 -160.5t152.5 -445.5q0 -249 -93.5 -440t-275.5 -299.5t-428 -108.5h-455zM453 330h98q92 0 164 41t116 112.5t66.5 162t22.5 194.5q0 141 -63 212.5t-200 71.5h-106z" />
    <glyph glyph-name="dcaron" unicode="&#x10f;" horiz-adv-x="1216" 
d="M1200 1176l121 456h319l-202 -456h-238zM360 -20q-149 0 -233 115t-84 296q0 138 38 258t102 201.5t148 127.5t175 46q140 0 223 -86h6l70 569h350l-184 -1507h-350l16 129l-6 2q-108 -151 -271 -151zM485 289q72 0 136.5 89.5t89.5 250.5l4 22q-58 64 -137 64
q-54 0 -98 -46.5t-65.5 -111.5t-21.5 -129q0 -62 26 -100.5t66 -38.5z" />
    <glyph glyph-name="Dcroat" unicode="&#x110;" horiz-adv-x="1339" 
d="M705 1454q298 0 450 -160.5t152 -445.5q0 -249 -93.5 -440t-275.5 -299.5t-428 -108.5h-455l68 555h-82l41 311h80l71 588h472zM553 330q92 0 164 41t116 112.5t66.5 162t22.5 194.5q0 141 -63 212.5t-200 71.5h-106l-33 -258h201l-43 -311h-195l-28 -225h98z" />
    <glyph glyph-name="dcroat" unicode="&#x111;" horiz-adv-x="1091" 
d="M1204 1305l-24 -201h-74l-135 -1104h-350l16 129l-6 2q-108 -151 -271 -151q-149 0 -233 115t-84 296q0 138 38 258t102 201.5t148 127.5t175 46q140 0 223 -86h6l21 166h-310l25 201h309l25 202h350l-25 -202h74zM711 629l4 22q-58 64 -137 64q-54 0 -98 -46.5
t-65.5 -111.5t-21.5 -129q0 -62 26 -100.5t66 -38.5q72 0 136.5 89.5t89.5 250.5z" />
    <glyph glyph-name="Emacron" unicode="&#x112;" horiz-adv-x="1091" 
d="M393 1585l33 250h596l-33 -250h-596zM51 0l178 1454h877l-41 -330h-516l-31 -241h402l-37 -318h-402l-30 -235h555l-41 -330h-914z" />
    <glyph glyph-name="emacron" unicode="&#x113;" horiz-adv-x="972" 
d="M940 1446l-33 -260h-596l33 260h596zM956 743q-2 -74 -35 -134t-86.5 -100.5t-129.5 -70.5t-155 -47t-171 -26q12 -54 47.5 -80.5t75.5 -26.5q95 0 160 96l253 -137q-148 -237 -446 -237q-193 0 -310 114t-116 307q0 173 69 314.5t198 225t294 83.5q63 0 123.5 -17
t113.5 -50t84.5 -88.5t30.5 -125.5zM629 684q1 27 -14.5 42t-43.5 15q-60 0 -109.5 -52t-72.5 -138q235 26 240 133z" />
    <glyph glyph-name="Ebreve" unicode="&#x114;" horiz-adv-x="1091" 
d="M682 1526q-150 0 -223 82t-64 225h244q-5 -34 14 -58t56 -24q40 0 71.5 24.5t42.5 57.5h246q-29 -137 -123 -222t-264 -85zM51 0l178 1454h877l-41 -330h-516l-31 -241h402l-37 -318h-402l-30 -235h555l-41 -330h-914z" />
    <glyph glyph-name="ebreve" unicode="&#x115;" horiz-adv-x="972" 
d="M590 1094q-143 0 -219.5 86.5t-67.5 242.5h244q-5 -35 13.5 -59.5t55.5 -24.5q41 0 72.5 25t42.5 59h246q-27 -148 -127 -238.5t-260 -90.5zM604 1024q63 0 123.5 -17t113.5 -50t84.5 -88.5t30.5 -125.5q-2 -74 -35 -134t-86.5 -100.5t-129.5 -70.5t-155 -47t-171 -26
q12 -54 47.5 -80.5t75.5 -26.5q95 0 160 96l253 -137q-148 -237 -446 -237q-193 0 -310 114t-116 307q0 173 69 314.5t198 225t294 83.5zM629 684q1 27 -14.5 42t-43.5 15q-60 0 -109.5 -52t-72.5 -138q235 26 240 133z" />
    <glyph glyph-name="Edotaccent" unicode="&#x116;" horiz-adv-x="1091" 
d="M705 1528q-91 0 -148 54t-57 138t58.5 139.5t152.5 55.5q91 0 146.5 -53t55.5 -136q0 -87 -57.5 -142.5t-150.5 -55.5zM51 0l178 1454h877l-41 -330h-516l-31 -241h402l-37 -318h-402l-30 -235h555l-41 -330h-914z" />
    <glyph glyph-name="edotaccent" unicode="&#x117;" horiz-adv-x="972" 
d="M614 1118q-91 0 -147.5 54.5t-56.5 138.5t58.5 139t152.5 55q91 0 146.5 -52.5t55.5 -135.5q0 -87 -58 -143t-151 -56zM956 743q-2 -74 -35 -134t-86.5 -100.5t-129.5 -70.5t-155 -47t-171 -26q12 -54 47.5 -80.5t75.5 -26.5q95 0 160 96l253 -137q-148 -237 -446 -237
q-193 0 -310 114t-116 307q0 173 69 314.5t198 225t294 83.5q63 0 123.5 -17t113.5 -50t84.5 -88.5t30.5 -125.5zM629 684q1 27 -14.5 42t-43.5 15q-60 0 -109.5 -52t-72.5 -138q235 26 240 133z" />
    <glyph glyph-name="Eogonek" unicode="&#x118;" horiz-adv-x="1091" 
d="M1065 1124h-516l-31 -241h402l-37 -318h-402l-30 -235h555l-41 -330h-2q-78 -1 -140.5 -56t-62.5 -118q0 -24 11.5 -33.5t35.5 -9.5q33 0 61 12l4 -168q-61 -20 -157 -20q-100 0 -152.5 42t-52.5 122q0 62 34 123t91 106h-584l178 1454h877z" />
    <glyph glyph-name="eogonek" unicode="&#x119;" horiz-adv-x="972" 
d="M956 743q-2 -74 -35 -134t-86.5 -100.5t-129.5 -70.5t-155 -47t-171 -26q12 -54 47.5 -80.5t75.5 -26.5q95 0 160 96l253 -137q-101 -161 -268 -213q-78 -31 -131 -78t-53 -100q0 -43 49 -43q31 0 59 12l4 -168q-61 -20 -155 -20q-100 0 -153.5 42.5t-53.5 121.5
q0 59 31.5 117t83.5 104v6q-134 39 -210 144t-75 259q0 173 69 314.5t198 225t294 83.5q63 0 123.5 -17t113.5 -50t84.5 -88.5t30.5 -125.5zM629 684q1 27 -14.5 42t-43.5 15q-60 0 -109.5 -52t-72.5 -138q235 26 240 133z" />
    <glyph glyph-name="Ecaron" unicode="&#x11a;" horiz-adv-x="1091" 
d="M516 1540l-139 293h282l54 -125h2l86 125h274l-207 -293h-352zM51 0l178 1454h877l-41 -330h-516l-31 -241h402l-37 -318h-402l-30 -235h555l-41 -330h-914z" />
    <glyph glyph-name="ecaron" unicode="&#x11b;" horiz-adv-x="972" 
d="M784 1114h-352l-137 309h283l51 -141h2l84 141h276zM604 1024q63 0 123.5 -17t113.5 -50t84.5 -88.5t30.5 -125.5q-2 -74 -35 -134t-86.5 -100.5t-129.5 -70.5t-155 -47t-171 -26q12 -54 47.5 -80.5t75.5 -26.5q95 0 160 96l253 -137q-148 -237 -446 -237
q-193 0 -310 114t-116 307q0 173 69 314.5t198 225t294 83.5zM629 684q1 27 -14.5 42t-43.5 15q-60 0 -109.5 -52t-72.5 -138q235 26 240 133z" />
    <glyph glyph-name="Gcircumflex" unicode="&#x11c;" horiz-adv-x="1363" 
d="M524 1540l207 293h352l140 -293h-283l-53 125h-2l-86 -125h-275zM684 -20q-127 0 -234.5 37.5t-189.5 111t-128 191.5t-46 270q0 183 55.5 344.5t155 281.5t246 189.5t319.5 69.5q153 0 288 -71t210 -200l-281 -215q-39 59 -100.5 98t-138.5 39q-108 0 -193 -75.5
t-128.5 -191.5t-43.5 -245q0 -144 63.5 -217t172.5 -73q100 0 192 55l23 145h-209l37 303h559l-78 -673q-101 -76 -249.5 -125t-301.5 -49z" />
    <glyph glyph-name="gcircumflex" unicode="&#x11d;" horiz-adv-x="1112" 
d="M670 1284l-72 -149h-297l231 317h297l168 -317h-288l-37 149h-2zM735 1004h348l-106 -873q-69 -557 -590 -557q-217 0 -377 98l107 262q119 -71 248 -71q55 0 93.5 11t74.5 41t60 89t38 150l-6 2q-109 -146 -265 -146q-99 0 -172.5 53.5t-109 138.5t-35.5 189
q0 138 38 258t102 201.5t148 127.5t175 46q140 0 217 -80l6 2zM485 319q71 0 133.5 89t86.5 237l2 14q-56 56 -129 56q-54 0 -98 -46.5t-65.5 -109t-21.5 -121.5t25 -89t67 -30z" />
    <glyph glyph-name="Gbreve" unicode="&#x11e;" horiz-adv-x="1363" 
d="M864 1526q-150 0 -222.5 82t-63.5 225h243q-5 -34 14 -58t56 -24q41 0 72.5 24.5t42.5 57.5h245q-29 -137 -123 -222t-264 -85zM684 -20q-127 0 -234.5 37.5t-189.5 111t-128 191.5t-46 270q0 183 55.5 344.5t155 281.5t246 189.5t319.5 69.5q153 0 288 -71t210 -200
l-281 -215q-39 59 -100.5 98t-138.5 39q-108 0 -193 -75.5t-128.5 -191.5t-43.5 -245q0 -144 63.5 -217t172.5 -73q100 0 192 55l23 145h-209l37 303h559l-78 -673q-101 -76 -249.5 -125t-301.5 -49z" />
    <glyph glyph-name="gbreve" unicode="&#x11f;" horiz-adv-x="1112" 
d="M639 1094q-143 0 -219.5 86.5t-67.5 242.5h244q-5 -35 14 -59.5t56 -24.5q41 0 72 24.5t42 59.5h246q-27 -148 -127 -238.5t-260 -90.5zM735 1004h348l-106 -873q-69 -557 -590 -557q-217 0 -377 98l107 262q119 -71 248 -71q55 0 93.5 11t74.5 41t60 89t38 150l-6 2
q-109 -146 -265 -146q-99 0 -172.5 53.5t-109 138.5t-35.5 189q0 138 38 258t102 201.5t148 127.5t175 46q140 0 217 -80l6 2zM485 319q71 0 133.5 89t86.5 237l2 14q-56 56 -129 56q-54 0 -98 -46.5t-65.5 -109t-21.5 -121.5t25 -89t67 -30z" />
    <glyph glyph-name="Gdotaccent" unicode="&#x120;" horiz-adv-x="1363" 
d="M887 1528q-91 0 -148 54t-57 138t58.5 139.5t152.5 55.5q91 0 147 -53t56 -136q0 -87 -58 -142.5t-151 -55.5zM684 -20q-127 0 -234.5 37.5t-189.5 111t-128 191.5t-46 270q0 183 55.5 344.5t155 281.5t246 189.5t319.5 69.5q153 0 288 -71t210 -200l-281 -215
q-39 59 -100.5 98t-138.5 39q-108 0 -193 -75.5t-128.5 -191.5t-43.5 -245q0 -144 63.5 -217t172.5 -73q100 0 192 55l23 145h-209l37 303h559l-78 -673q-101 -76 -249.5 -125t-301.5 -49z" />
    <glyph glyph-name="gdotaccent" unicode="&#x121;" horiz-adv-x="1112" 
d="M664 1118q-91 0 -148 54.5t-57 138.5t58.5 139t152.5 55q91 0 146.5 -52.5t55.5 -135.5q0 -87 -57.5 -143t-150.5 -56zM735 1004h348l-106 -873q-69 -557 -590 -557q-217 0 -377 98l107 262q119 -71 248 -71q55 0 93.5 11t74.5 41t60 89t38 150l-6 2q-109 -146 -265 -146
q-99 0 -172.5 53.5t-109 138.5t-35.5 189q0 138 38 258t102 201.5t148 127.5t175 46q140 0 217 -80l6 2zM485 319q71 0 133.5 89t86.5 237l2 14q-56 56 -129 56q-54 0 -98 -46.5t-65.5 -109t-21.5 -121.5t25 -89t67 -30z" />
    <glyph glyph-name="Gcommaaccent" unicode="&#x122;" horiz-adv-x="1363" 
d="M684 -20q-127 0 -234.5 37.5t-189.5 111t-128 191.5t-46 270q0 183 55.5 344.5t155 281.5t246 189.5t319.5 69.5q153 0 288 -71t210 -200l-281 -215q-39 59 -100.5 98t-138.5 39q-108 0 -193 -75.5t-128.5 -191.5t-43.5 -245q0 -144 63.5 -217t172.5 -73q100 0 192 55
l23 145h-209l37 303h559l-78 -673q-101 -76 -249.5 -125t-301.5 -49zM453 -455l-31 195q61 8 87 30.5t26 69.5q0 16 -7 51h271q4 -32 4 -49q0 -145 -93.5 -221t-256.5 -76z" />
    <glyph glyph-name="gcommaaccent" unicode="&#x123;" horiz-adv-x="1112" 
d="M803 1165h-271q-4 32 -4 49q0 145 94 221t257 76l30 -194q-60 -8 -86 -30.5t-26 -69.5q0 -22 6 -52zM735 1004h348l-106 -873q-69 -557 -590 -557q-217 0 -377 98l107 262q119 -71 248 -71q55 0 93.5 11t74.5 41t60 89t38 150l-6 2q-109 -146 -265 -146
q-99 0 -172.5 53.5t-109 138.5t-35.5 189q0 138 38 258t102 201.5t148 127.5t175 46q140 0 217 -80l6 2zM485 319q71 0 133.5 89t86.5 237l2 14q-56 56 -129 56q-54 0 -98 -46.5t-65.5 -109t-21.5 -121.5t25 -89t67 -30z" />
    <glyph glyph-name="Hcircumflex" unicode="&#x124;" horiz-adv-x="1341" 
d="M451 1544l206 293h353l139 -293h-283l-53 125h-2l-86 -125h-274zM53 0l178 1454h375l-71 -588h360l72 588h376l-180 -1454h-375l66 537h-360l-66 -537h-375z" />
    <glyph glyph-name="hcircumflex" unicode="&#x125;" horiz-adv-x="1110" 
d="M356 1571l207 293h352l140 -293h-283l-53 125h-2l-86 -125h-275zM35 0l184 1507h346l-78 -626l7 -4q131 147 319 147q137 0 193.5 -98.5t29.5 -307.5l-80 -618h-346l70 522q13 101 4 146t-45 45q-68 0 -131 -89.5t-84 -265.5l-43 -358h-346z" />
    <glyph glyph-name="Hbar" unicode="&#x126;" horiz-adv-x="1341" 
d="M1401 1282l-29 -233h-80l-129 -1049h-375l66 537h-360l-66 -537h-375l129 1049h-73l28 233h74l20 172h375l-20 -172h360l21 172h376l-20 -172h78zM895 866l23 183h-361l-22 -183h360z" />
    <glyph glyph-name="hbar" unicode="&#x127;" horiz-adv-x="1110" 
d="M813 1024q137 0 193.5 -98.5t29.5 -307.5l-80 -618h-346l70 522q13 101 4 146t-45 45q-68 0 -131 -89.5t-84 -265.5l-43 -358h-346l135 1104h-84l23 201h86l24 202h346l-24 -202h303l-23 -201h-305l-29 -223l7 -4q131 147 319 147z" />
    <glyph glyph-name="Itilde" unicode="&#x128;" horiz-adv-x="626" 
d="M614 1544q-15 0 -29 1.5t-28 6t-22.5 7t-22 10.5t-18 10.5t-19 12t-16.5 10.5q-52 34 -88 34q-66 0 -119 -100l-189 92q50 105 121.5 171.5t155.5 66.5q79 0 154 -51q2 -1 16 -10t18 -11.5t15 -7.5t19.5 -6.5t17.5 -1.5q69 0 120 94l187 -74q-49 -111 -119 -182.5
t-154 -71.5zM63 0l179 1454h376l-178 -1454h-377z" />
    <glyph glyph-name="itilde" unicode="&#x129;" horiz-adv-x="559" 
d="M522 1096q-16 0 -31 3t-25 6t-23.5 11.5t-18.5 12t-19 14t-16 12.5q-46 33 -78 33q-60 0 -112 -94l-181 86q47 100 115.5 165.5t149.5 65.5q72 0 137 -43q7 -5 24 -17t25.5 -17t21 -10t23.5 -5q35 0 59.5 27t49.5 75l178 -78q-47 -107 -119 -177t-160 -70zM43 0l125 1004
h346l-123 -1004h-348z" />
    <glyph glyph-name="Imacron" unicode="&#x12a;" horiz-adv-x="626" 
d="M141 1585l33 250h596l-33 -250h-596zM63 0l179 1454h376l-178 -1454h-377z" />
    <glyph glyph-name="imacron" unicode="&#x12b;" horiz-adv-x="559" 
d="M72 1186l32 260h596l-32 -260h-596zM43 0l125 1004h346l-123 -1004h-348z" />
    <glyph glyph-name="Ibreve" unicode="&#x12c;" horiz-adv-x="626" 
d="M430 1526q-150 0 -223 82t-64 225h244q-5 -34 14 -58t56 -24q40 0 71.5 24.5t42.5 57.5h246q-29 -137 -123 -222t-264 -85zM63 0l179 1454h376l-178 -1454h-377z" />
    <glyph glyph-name="ibreve" unicode="&#x12d;" horiz-adv-x="559" 
d="M377 1124q-126 0 -201.5 87.5t-69.5 238.5h222q-5 -50 11 -78.5t48 -28.5q34 0 60.5 30t33.5 77h219q-24 -144 -109 -235t-214 -91zM43 0l125 1004h346l-123 -1004h-348z" />
    <glyph glyph-name="Iogonek" unicode="&#x12e;" horiz-adv-x="626" 
d="M242 1454h376l-178 -1454h-51q-78 -1 -140.5 -56t-62.5 -118q0 -24 11.5 -33.5t35.5 -9.5q34 0 62 12l4 -168q-61 -20 -158 -20q-100 0 -152 42t-52 122q0 64 34 126t92 105z" />
    <glyph glyph-name="iogonek" unicode="&#x12f;" horiz-adv-x="559" 
d="M381 1505q91 0 147 -52.5t56 -135.5q0 -87 -58 -143t-151 -56q-91 0 -148 54.5t-57 138.5t58.5 139t152.5 55zM43 6l125 998h346l-123 -1004h-26q-78 -1 -140.5 -56t-62.5 -118q0 -24 11.5 -33.5t35.5 -9.5q33 0 61 12l4 -168q-61 -20 -157 -20q-100 0 -152.5 42
t-52.5 122q0 64 36 127t95 108z" />
    <glyph glyph-name="Idotaccent" unicode="&#x130;" horiz-adv-x="626" 
d="M453 1528q-91 0 -148 54t-57 138t58.5 139.5t152.5 55.5q91 0 147 -53t56 -136q0 -87 -58 -142.5t-151 -55.5zM63 0l179 1454h376l-178 -1454h-377z" />
    <glyph glyph-name="dotlessi" unicode="&#x131;" horiz-adv-x="559" 
d="M43 0l125 1004h346l-123 -1004h-348z" />
    <glyph glyph-name="IJ" unicode="&#x132;" horiz-adv-x="1556" 
d="M63 0l179 1454h376l-178 -1454h-377zM965 -20q-115 0 -215 52.5t-154 151.5l240 248q16 -42 48 -69t72 -27q31 0 53 14t42.5 63.5t31.5 137.5l113 903h371l-113 -919q-36 -292 -149.5 -423.5t-339.5 -131.5z" />
    <glyph glyph-name="ij" unicode="&#x133;" horiz-adv-x="1083" 
d="M375 1118q-91 0 -148 54.5t-57 138.5t58.5 139t152.5 55q91 0 147 -52.5t56 -135.5q0 -87 -58 -143t-151 -56zM911 1118q-91 0 -147.5 54.5t-56.5 138.5t58.5 139t152.5 55q91 0 146.5 -52.5t55.5 -135.5q0 -87 -58 -143t-151 -56zM43 0l125 1004h346l-123 -1004h-348z
M563 -424q-124 0 -227 47l86 266q28 -22 72 -22q42 0 59.5 36.5t28.5 131.5l118 969h351l-125 -1018q-26 -220 -119 -315t-244 -95z" />
    <glyph glyph-name="Jcircumflex" unicode="&#x134;" horiz-adv-x="929" 
d="M414 1544l207 293h352l139 -293h-283l-53 125h-2l-86 -125h-274zM338 -20q-115 0 -215 52.5t-154 151.5l240 248q16 -41 48.5 -68.5t72.5 -27.5q31 0 53 14t42.5 63.5t31.5 137.5l112 903h371l-113 -919q-36 -292 -149.5 -423.5t-339.5 -131.5z" />
    <glyph glyph-name="jcircumflex" unicode="&#x135;" horiz-adv-x="524" 
d="M-10 1135l231 317h297l168 -317h-289l-37 149h-2l-71 -149h-297zM4 -424q-124 0 -227 47l86 266q28 -22 71 -22q42 0 60 36.5t29 131.5l118 969h351l-125 -1018q-26 -220 -119 -315t-244 -95z" />
    <glyph glyph-name="Kcommaaccent" unicode="&#x136;" horiz-adv-x="1259" 
d="M1368 1454l-510 -655l348 -799h-422l-213 535l-100 -121l-51 -414h-367l178 1454h369l-65 -543l6 -2l389 545h438zM428 -109h270q4 -32 4 -49q0 -145 -93.5 -221t-256.5 -76l-30 195q60 8 86 30.5t26 69.5q0 21 -6 51z" />
    <glyph glyph-name="kcommaaccent" unicode="&#x137;" horiz-adv-x="1048" 
d="M903 -16q-50 -4 -112 -4q-212 0 -287 278l-19 66q-57 -30 -77 -37l-33 -287h-340l184 1507h348l-108 -878l4 -2q93 73 143.5 164.5t75.5 212.5h362q-55 -299 -276 -504l16 -62q14 -52 32.5 -85.5t44 -50.5t51 -23t63.5 -7zM244 -455l-31 195q61 8 87 30.5t26 69.5
q0 16 -7 51h271q4 -32 4 -49q0 -145 -93.5 -221t-256.5 -76z" />
    <glyph glyph-name="kgreenlandic" unicode="&#x138;" horiz-adv-x="1042" 
d="M897 -16q-50 -4 -113 -4q-211 0 -286 278l-13 49q-58 -28 -71 -33l-31 -274h-348l123 1004h348l-41 -338l8 -2q86 64 132 145.5t71 194.5h362q-54 -297 -276 -506l16 -60q15 -52 33.5 -85.5t43.5 -50.5t50.5 -23t63.5 -7z" />
    <glyph glyph-name="Lacute" unicode="&#x139;" horiz-adv-x="1040" 
d="M500 1544l235 291l338 2l-268 -293h-305zM53 0l178 1454h373l-137 -1124h504l-39 -330h-879z" />
    <glyph glyph-name="lacute" unicode="&#x13a;" horiz-adv-x="561" 
d="M260 1571l236 291l338 2l-269 -293h-305zM43 0l186 1507h351l-187 -1507h-350z" />
    <glyph glyph-name="Lcommaaccent" unicode="&#x13b;" horiz-adv-x="1040" 
d="M53 0l178 1454h373l-137 -1124h504l-39 -330h-879zM264 -455l-31 195q61 8 87 30.5t26 69.5q0 21 -6 51h270q4 -32 4 -49q0 -145 -93.5 -221t-256.5 -76z" />
    <glyph glyph-name="lcommaaccent" unicode="&#x13c;" horiz-adv-x="561" 
d="M43 0l186 1507h351l-187 -1507h-350zM-10 -455l-31 195q61 8 87 30.5t26 69.5q0 21 -6 51h270q4 -32 4 -49q0 -145 -93.5 -221t-256.5 -76z" />
    <glyph glyph-name="Lcaron" unicode="&#x13d;" horiz-adv-x="1071" 
d="M723 1176l119 456h321l-202 -456h-238zM53 0l178 1454h373l-137 -1124h504l-39 -330h-879z" />
    <glyph glyph-name="lcaron" unicode="&#x13e;" horiz-adv-x="651" 
d="M631 1176l119 456h321l-205 -456h-235zM43 0l186 1507h351l-187 -1507h-350z" />
    <glyph glyph-name="Ldot" unicode="&#x13f;" horiz-adv-x="1044" 
d="M53 0l178 1454h373l-137 -1124h504l-39 -330h-879zM842 508q-90 0 -141.5 53.5t-51.5 138.5q0 86 53.5 140.5t145.5 54.5q90 0 141 -52t51 -136q0 -88 -53 -143.5t-145 -55.5z" />
    <glyph glyph-name="ldot" unicode="&#x140;" horiz-adv-x="948" 
d="M43 0l186 1507h351l-187 -1507h-350zM748 373q-90 0 -141.5 53.5t-51.5 138.5q0 86 53.5 140.5t145.5 54.5q90 0 141 -52.5t51 -136.5q0 -88 -53 -143t-145 -55z" />
    <glyph glyph-name="Lslash" unicode="&#x141;" horiz-adv-x="1042" 
d="M469 330h504l-39 -330h-879l64 510l-127 -55l33 272l127 57l81 670h373l-59 -496l190 86l-35 -274l-190 -84z" />
    <glyph glyph-name="lslash" unicode="&#x142;" horiz-adv-x="630" 
d="M657 940l-28 -235l-117 -56l-80 -649h-350l59 475l-121 -55l29 233l121 58l98 796h350l-77 -622z" />
    <glyph glyph-name="Nacute" unicode="&#x143;" horiz-adv-x="1368" 
d="M590 1544l235 291l338 2l-268 -293h-305zM53 0l178 1454h338l338 -827l6 2l101 825h358l-180 -1454h-352l-324 803l-6 -2l-100 -801h-357z" />
    <glyph glyph-name="nacute" unicode="&#x144;" horiz-adv-x="1110" 
d="M444 1141l238 309l344 2l-266 -311h-316zM35 0l123 1004h348l-17 -125l7 -2q128 147 317 147q137 0 193.5 -98.5t29.5 -307.5l-80 -618h-346l70 522q13 101 4 146t-45 45q-66 0 -128 -86t-83 -258l-45 -369h-348z" />
    <glyph glyph-name="Ncommaaccent" unicode="&#x145;" horiz-adv-x="1368" 
d="M53 0l178 1454h338l338 -827l6 2l101 825h358l-180 -1454h-352l-324 803l-6 -2l-100 -801h-357zM412 -455l-31 195q61 8 87 30.5t26 69.5q0 16 -7 51h271q4 -32 4 -49q0 -145 -93.5 -221t-256.5 -76z" />
    <glyph glyph-name="ncommaaccent" unicode="&#x146;" horiz-adv-x="1110" 
d="M35 0l123 1004h348l-17 -125l7 -2q128 147 317 147q137 0 193.5 -98.5t29.5 -307.5l-80 -618h-346l70 522q13 101 4 146t-45 45q-66 0 -128 -86t-83 -258l-45 -369h-348zM268 -455l-30 195q60 8 86 30.5t26 69.5q0 21 -6 51h270q4 -32 4 -49q0 -145 -93.5 -221
t-256.5 -76z" />
    <glyph glyph-name="Ncaron" unicode="&#x147;" horiz-adv-x="1368" 
d="M651 1544l-139 293h283l53 -125h2l86 125h274l-206 -293h-353zM53 0l178 1454h338l338 -827l6 2l101 825h358l-180 -1454h-352l-324 803l-6 -2l-100 -801h-357z" />
    <glyph glyph-name="ncaron" unicode="&#x148;" horiz-adv-x="1110" 
d="M498 1114l-138 309h283l51 -141h2l84 141h277l-207 -309h-352zM35 0l123 1004h348l-17 -125l7 -2q128 147 317 147q137 0 193.5 -98.5t29.5 -307.5l-80 -618h-346l70 522q13 101 4 146t-45 45q-66 0 -128 -86t-83 -258l-45 -369h-348z" />
    <glyph glyph-name="napostrophe" unicode="&#x149;" horiz-adv-x="1378" 
d="M-18 979l118 475h322l-205 -475h-235zM303 0l123 1004h348l-16 -125l6 -2q128 147 317 147q138 0 194.5 -98.5t29.5 -307.5l-80 -618h-346l69 522q13 101 4 146t-45 45q-66 0 -128 -86t-83 -258l-45 -369h-348z" />
    <glyph glyph-name="Eng" unicode="&#x14a;" horiz-adv-x="1368" 
d="M1014 1454h358l-180 -1454q-28 -228 -149 -324t-343 -96q-78 0 -137 12l47 277q40 -4 58 -4q69 0 109 30.5t50 104.5l4 25l-315 778l-6 -2l-100 -801h-357l178 1454h338l338 -827l6 2z" />
    <glyph glyph-name="eng" unicode="&#x14b;" horiz-adv-x="1099" 
d="M498 -420q-84 0 -168 17l61 264q31 -8 62 -8q70 0 104.5 55t48.5 151l64 463q14 101 4.5 146t-45.5 45q-65 0 -122 -85t-79 -259l-45 -369h-348l123 1004h348l-17 -125l7 -2q113 147 307 147q137 0 193.5 -98.5t29.5 -307.5l-78 -618q-26 -201 -145 -310.5t-305 -109.5z
" />
    <glyph glyph-name="Omacron" unicode="&#x14c;" horiz-adv-x="1486" 
d="M637 1589l33 250h596l-33 -250h-596zM680 -20q-272 0 -433 164t-161 456q0 174 55 332.5t153 279t245.5 192t320.5 71.5q271 0 433.5 -163.5t162.5 -451.5q0 -183 -52.5 -342.5t-149 -279.5t-245 -189t-329.5 -69zM709 328q105 0 187.5 66t127.5 182t45 260
q0 146 -67 219t-175 73q-99 0 -181.5 -70.5t-128.5 -185.5t-46 -245q0 -148 66.5 -223.5t171.5 -75.5z" />
    <glyph glyph-name="omacron" unicode="&#x14d;" horiz-adv-x="1083" 
d="M346 1186l33 260h596l-33 -260h-596zM469 -20q-193 0 -308.5 115t-115.5 321q0 121 37.5 230t106.5 193.5t177.5 134.5t241.5 50q197 0 313.5 -115.5t116.5 -320.5q0 -123 -33 -229.5t-99.5 -192.5t-178.5 -136t-258 -50zM502 289q81 0 132.5 84t51.5 194
q0 81 -33.5 113.5t-74.5 32.5q-55 0 -97.5 -43.5t-63 -108t-20.5 -135.5q0 -73 34 -105t71 -32z" />
    <glyph glyph-name="Obreve" unicode="&#x14e;" horiz-adv-x="1486" 
d="M926 1530q-150 0 -223 82t-64 225h244q-5 -34 13.5 -58t55.5 -24q41 0 72.5 24.5t42.5 57.5h246q-29 -137 -123 -222t-264 -85zM680 -20q-272 0 -433 164t-161 456q0 174 55 332.5t153 279t245.5 192t320.5 71.5q271 0 433.5 -163.5t162.5 -451.5q0 -183 -52.5 -342.5
t-149 -279.5t-245 -189t-329.5 -69zM709 328q105 0 187.5 66t127.5 182t45 260q0 146 -67 219t-175 73q-99 0 -181.5 -70.5t-128.5 -185.5t-46 -245q0 -148 66.5 -223.5t171.5 -75.5z" />
    <glyph glyph-name="obreve" unicode="&#x14f;" horiz-adv-x="1083" 
d="M625 1094q-143 0 -219.5 86.5t-67.5 242.5h244q-5 -35 13.5 -59.5t55.5 -24.5q41 0 72.5 25t42.5 59h246q-27 -148 -127 -238.5t-260 -90.5zM469 -20q-193 0 -308.5 115t-115.5 321q0 121 37.5 230t106.5 193.5t177.5 134.5t241.5 50q197 0 313.5 -115.5t116.5 -320.5
q0 -123 -33 -229.5t-99.5 -192.5t-178.5 -136t-258 -50zM502 289q81 0 132.5 84t51.5 194q0 81 -33.5 113.5t-74.5 32.5q-55 0 -97.5 -43.5t-63 -108t-20.5 -135.5q0 -73 34 -105t71 -32z" />
    <glyph glyph-name="Ohungarumlaut" unicode="&#x150;" horiz-adv-x="1486" 
d="M522 1540l238 309l336 2l-267 -311h-307zM971 1540l235 309l336 2l-264 -311h-307zM680 -20q-272 0 -433 164t-161 456q0 174 55 332.5t153 279t245.5 192t320.5 71.5q271 0 433.5 -163.5t162.5 -451.5q0 -183 -52.5 -342.5t-149 -279.5t-245 -189t-329.5 -69zM709 328
q105 0 187.5 66t127.5 182t45 260q0 146 -67 219t-175 73q-99 0 -181.5 -70.5t-128.5 -185.5t-46 -245q0 -148 66.5 -223.5t171.5 -75.5z" />
    <glyph glyph-name="ohungarumlaut" unicode="&#x151;" horiz-adv-x="1083" 
d="M266 1141l238 309l336 2l-267 -311h-307zM715 1141l235 309l336 2l-264 -311h-307zM469 -20q-193 0 -308.5 115t-115.5 321q0 121 37.5 230t106.5 193.5t177.5 134.5t241.5 50q197 0 313.5 -115.5t116.5 -320.5q0 -123 -33 -229.5t-99.5 -192.5t-178.5 -136t-258 -50z
M502 289q81 0 132.5 84t51.5 194q0 81 -33.5 113.5t-74.5 32.5q-55 0 -97.5 -43.5t-63 -108t-20.5 -135.5q0 -73 34 -105t71 -32z" />
    <glyph glyph-name="OE" unicode="&#x152;" horiz-adv-x="1757" 
d="M1731 1124h-506l-31 -241h391l-41 -324h-389l-29 -229h545l-41 -330h-952q-270 0 -431 160t-161 436q0 178 55.5 335t154 273t244 183t316.5 67h916zM709 346h59l94 762h-35q-148 0 -252 -141.5t-104 -337.5q0 -137 67 -210t171 -73z" />
    <glyph glyph-name="oe" unicode="&#x153;" horiz-adv-x="1497" 
d="M1055 258q85 0 147 94l252 -139q-147 -233 -434 -233q-194 0 -293 129h-10q-122 -129 -307 -129q-170 0 -276.5 116.5t-106.5 317.5q0 170 65 309.5t181.5 220t261.5 80.5q177 0 274 -129h10q132 129 330 129q65 0 125.5 -16t112.5 -48.5t83 -89.5t31 -131
q0 -78 -45.5 -143.5t-128 -114t-174.5 -83t-209 -64.5q17 -38 48.5 -57t62.5 -19zM1120 741q-57 0 -107 -57.5t-73 -151.5q114 34 174 71t60 93q0 20 -14.5 32.5t-39.5 12.5zM453 289q62 0 111.5 81.5t49.5 207.5q0 137 -92 137q-63 0 -107 -84.5t-44 -202.5q0 -139 82 -139
z" />
    <glyph glyph-name="Racute" unicode="&#x154;" horiz-adv-x="1216" 
d="M487 1544l236 291l338 2l-268 -293h-306zM53 0l178 1454h529q108 0 189.5 -31.5t130.5 -87.5t73.5 -128.5t24.5 -159.5q0 -178 -71.5 -313t-205.5 -210l236 -524h-396l-182 453h-90l-53 -453h-363zM510 776h92q85 0 138 63.5t53 151.5q0 72 -38 104.5t-91 32.5h-111z" />
    <glyph glyph-name="racute" unicode="&#x155;" horiz-adv-x="718" 
d="M209 1141l237 309l345 2l-267 -311h-315zM35 0l123 1004h348l-14 -117h2q112 137 266 137l-49 -383q-94 47 -173.5 -18t-107.5 -232l-47 -391h-348z" />
    <glyph glyph-name="Rcommaaccent" unicode="&#x156;" horiz-adv-x="1216" 
d="M53 0l178 1454h529q108 0 189.5 -31.5t130.5 -87.5t73.5 -128.5t24.5 -159.5q0 -178 -71.5 -313t-205.5 -210l236 -524h-396l-182 453h-90l-53 -453h-363zM510 776h92q85 0 138 63.5t53 151.5q0 72 -38 104.5t-91 32.5h-111zM332 -455l-31 195q61 8 87 30.5t26 69.5
q0 21 -6 51h270q4 -32 4 -49q0 -145 -93.5 -221t-256.5 -76z" />
    <glyph glyph-name="rcommaaccent" unicode="&#x157;" horiz-adv-x="718" 
d="M35 0l123 1004h348l-14 -117h2q112 137 266 137l-49 -383q-94 47 -173.5 -18t-107.5 -232l-47 -391h-348zM-25 -455l-30 195q60 8 86 30.5t26 69.5q0 21 -6 51h271q4 -32 4 -49q0 -145 -94 -221t-257 -76z" />
    <glyph glyph-name="Rcaron" unicode="&#x158;" horiz-adv-x="1216" 
d="M549 1544l-139 293h282l53 -125h3l86 125h274l-207 -293h-352zM53 0l178 1454h529q108 0 189.5 -31.5t130.5 -87.5t73.5 -128.5t24.5 -159.5q0 -178 -71.5 -313t-205.5 -210l236 -524h-396l-182 453h-90l-53 -453h-363zM510 776h92q85 0 138 63.5t53 151.5
q0 72 -38 104.5t-91 32.5h-111z" />
    <glyph glyph-name="rcaron" unicode="&#x159;" horiz-adv-x="718" 
d="M350 1114l-137 309h283l51 -141h2l84 141h276l-207 -309h-352zM35 0l123 1004h348l-14 -117h2q112 137 266 137l-49 -383q-94 47 -173.5 -18t-107.5 -232l-47 -391h-348z" />
    <glyph glyph-name="Sacute" unicode="&#x15a;" horiz-adv-x="1097" 
d="M487 1544l236 291l338 2l-268 -293h-306zM504 -20q-148 0 -286 64t-228 204l262 225q52 -81 122.5 -123.5t137.5 -42.5q70 0 107.5 30.5t37.5 74.5q0 36 -33 63.5t-139 89.5q-139 82 -187 119q-143 111 -165 261q-4 30 -4 63q0 140 68 247.5t183 163.5t257 56
q137 0 261 -58.5t196 -171.5l-260 -217q-55 70 -104.5 95.5t-102.5 25.5q-50 0 -81 -27.5t-30 -70.5q0 -37 26.5 -71.5t102.5 -78.5q28 -17 79 -46.5t76.5 -44.5t66 -42t61 -46t47 -49t39 -58t21.5 -66t9 -80q0 -228 -147.5 -358.5t-392.5 -130.5z" />
    <glyph glyph-name="sacute" unicode="&#x15b;" horiz-adv-x="854" 
d="M285 1141l237 309l344 2l-266 -311h-315zM381 -20q-111 0 -223 45.5t-181 126.5l185 196q44 -52 109 -85.5t122 -33.5q28 0 44 9t16 24q0 19 -23.5 35t-120.5 68q-126 67 -183.5 136t-57.5 173q0 156 109.5 253t273.5 97q109 0 204.5 -43.5t161.5 -126.5l-203 -188
q-66 97 -157 102q-24 0 -43 -11.5t-19 -33.5q0 -28 129 -94q141 -70 200.5 -139t59.5 -183q0 -144 -109 -235.5t-294 -91.5z" />
    <glyph glyph-name="Scircumflex" unicode="&#x15c;" horiz-adv-x="1097" 
d="M322 1544l206 293h353l139 -293h-283l-53 125h-2l-86 -125h-274zM504 -20q-148 0 -286 64t-228 204l262 225q52 -81 122.5 -123.5t137.5 -42.5q70 0 107.5 30.5t37.5 74.5q0 36 -33 63.5t-139 89.5q-139 82 -187 119q-143 111 -165 261q-4 30 -4 63q0 140 68 247.5
t183 163.5t257 56q137 0 261 -58.5t196 -171.5l-260 -217q-55 70 -104.5 95.5t-102.5 25.5q-50 0 -81 -27.5t-30 -70.5q0 -37 26.5 -71.5t102.5 -78.5q28 -17 79 -46.5t76.5 -44.5t66 -42t61 -46t47 -49t39 -58t21.5 -66t9 -80q0 -228 -147.5 -358.5t-392.5 -130.5z" />
    <glyph glyph-name="scircumflex" unicode="&#x15d;" horiz-adv-x="854" 
d="M141 1137l232 317h297l168 -317h-289l-37 149h-2l-72 -149h-297zM381 -20q-111 0 -223 45.5t-181 126.5l185 196q44 -52 109 -85.5t122 -33.5q28 0 44 9t16 24q0 19 -23.5 35t-120.5 68q-126 67 -183.5 136t-57.5 173q0 156 109.5 253t273.5 97q109 0 204.5 -43.5
t161.5 -126.5l-203 -188q-66 97 -157 102q-24 0 -43 -11.5t-19 -33.5q0 -28 129 -94q141 -70 200.5 -139t59.5 -183q0 -144 -109 -235.5t-294 -91.5z" />
    <glyph glyph-name="Scedilla" unicode="&#x15e;" horiz-adv-x="1097" 
d="M645 901q28 -17 79 -46.5t76.5 -44.5t66 -42t61 -46t47 -49t39 -58t21.5 -66t9 -80q0 -224 -143.5 -354t-380.5 -135l-31 -39l3 -2q153 -6 153 -138q0 -99 -70.5 -147.5t-197.5 -48.5q-65 0 -119 12l4 133q34 -12 84 -12q47 0 73.5 17t26.5 46q0 47 -129 47l2 80l43 66
q-242 51 -372 254l262 225q52 -81 122.5 -123.5t137.5 -42.5q70 0 107.5 30.5t37.5 74.5q0 36 -33 63.5t-139 89.5q-139 82 -187 119q-143 111 -165 261q-4 30 -4 63q0 140 68 247.5t183 163.5t257 56q137 0 261 -58.5t196 -171.5l-260 -217q-55 70 -104.5 95.5t-102.5 25.5
q-50 0 -81 -27.5t-30 -70.5q0 -37 26.5 -71.5t102.5 -78.5z" />
    <glyph glyph-name="scedilla" unicode="&#x15f;" horiz-adv-x="854" 
d="M524 629q141 -70 200.5 -139t59.5 -183q0 -144 -109 -235.5t-294 -91.5h-2l-31 -39l2 -2q74 -3 114 -37.5t40 -100.5q0 -99 -70.5 -147.5t-197.5 -48.5q-65 0 -119 12l4 133q35 -12 84 -12q47 0 73.5 17t26.5 46q0 47 -129 47l2 80l49 74q-164 46 -250 150l185 196
q44 -52 109 -85.5t122 -33.5q28 0 44 9t16 24q0 19 -23.5 35t-120.5 68q-126 67 -183.5 136t-57.5 173q0 156 109.5 253t273.5 97q109 0 204.5 -43.5t161.5 -126.5l-203 -188q-66 97 -157 102q-24 0 -43 -11.5t-19 -33.5q0 -28 129 -94z" />
    <glyph glyph-name="Scaron" unicode="&#x160;" horiz-adv-x="1097" 
d="M496 1544l-140 293h283l53 -125h2l86 125h275l-207 -293h-352zM504 -20q-148 0 -286 64t-228 204l262 225q52 -81 122.5 -123.5t137.5 -42.5q70 0 107.5 30.5t37.5 74.5q0 36 -33 63.5t-139 89.5q-139 82 -187 119q-143 111 -165 261q-4 30 -4 63q0 140 68 247.5
t183 163.5t257 56q137 0 261 -58.5t196 -171.5l-260 -217q-55 70 -104.5 95.5t-102.5 25.5q-50 0 -81 -27.5t-30 -70.5q0 -37 26.5 -71.5t102.5 -78.5q28 -17 79 -46.5t76.5 -44.5t66 -42t61 -46t47 -49t39 -58t21.5 -66t9 -80q0 -228 -147.5 -358.5t-392.5 -130.5z" />
    <glyph glyph-name="scaron" unicode="&#x161;" horiz-adv-x="854" 
d="M322 1116l-138 309h283l51 -141h2l84 141h277l-207 -309h-352zM381 -20q-111 0 -223 45.5t-181 126.5l185 196q44 -52 109 -85.5t122 -33.5q28 0 44 9t16 24q0 19 -23.5 35t-120.5 68q-126 67 -183.5 136t-57.5 173q0 156 109.5 253t273.5 97q109 0 204.5 -43.5
t161.5 -126.5l-203 -188q-66 97 -157 102q-24 0 -43 -11.5t-19 -33.5q0 -28 129 -94q141 -70 200.5 -139t59.5 -183q0 -144 -109 -235.5t-294 -91.5z" />
    <glyph glyph-name="uni0162" unicode="&#x162;" horiz-adv-x="1095" 
d="M156 1454h1018l-41 -330h-324l-137 -1124h-150l-45 -59l2 -2q74 -3 114 -37.5t40 -100.5q0 -99 -70.5 -147.5t-197.5 -48.5q-65 0 -119 12l4 133q34 -12 84 -12q47 0 73.5 17t26.5 46q0 47 -129 47l2 80l47 72h-53l137 1124h-323z" />
    <glyph glyph-name="uni0163" unicode="&#x163;" horiz-adv-x="704" 
d="M498 725l-43 -371q-4 -31 5.5 -48t28.5 -17q29 0 78 22l60 -260q-125 -65 -254 -71l-31 -39l2 -2q74 -3 114 -37.5t40 -100.5q0 -98 -71 -147t-198 -49q-64 0 -118 12l4 133q35 -12 84 -12q47 0 73.5 17t26.5 46q0 47 -129 47l2 80l49 76q-150 65 -123 309l49 412h-96
l35 279h96l37 282l356 70l-43 -352h189l-35 -279h-188z" />
    <glyph glyph-name="Tcaron" unicode="&#x164;" horiz-adv-x="1095" 
d="M494 1544l-140 293h283l53 -125h2l86 125h275l-207 -293h-352zM301 0l137 1124h-323l41 330h1018l-41 -330h-324l-137 -1124h-371z" />
    <glyph glyph-name="tcaron" unicode="&#x165;" horiz-adv-x="753" 
d="M639 1176l121 456h317l-200 -456h-238zM348 -20q-59 0 -106 16t-85 52t-54 103.5t-5 161.5l49 412h-96l35 279h96l37 282l356 70l-43 -352h189l-35 -279h-188l-43 -371q-4 -31 5.5 -48t28.5 -17q29 0 78 22l60 -260q-136 -71 -279 -71z" />
    <glyph glyph-name="Tbar" unicode="&#x166;" horiz-adv-x="1095" 
d="M1133 1124h-324l-41 -333h201l-31 -254h-201l-65 -537h-371l66 537h-195l33 254h192l41 333h-323l41 330h1018z" />
    <glyph glyph-name="tbar" unicode="&#x167;" horiz-adv-x="704" 
d="M686 725h-188l-13 -98h142l-25 -201h-139l-8 -72q-4 -31 5.5 -48t28.5 -17q29 0 78 22l60 -260q-136 -71 -279 -71q-59 0 -106 16t-85 52t-54 103.5t-5 161.5l15 113h-78l22 201h78l12 98h-96l35 279h96l37 282l356 70l-43 -352h189z" />
    <glyph glyph-name="Utilde" unicode="&#x168;" horiz-adv-x="1310" 
d="M963 1548q-13 0 -26.5 1.5t-23.5 3.5t-22 7t-18.5 7.5t-18.5 9.5t-16 9.5t-16.5 10.5t-14.5 9q-52 34 -88 34q-66 0 -119 -100l-188 92q50 105 121 171.5t155 66.5q79 0 154 -51q2 -1 16 -10t18 -11.5t15 -7.5t19.5 -6.5t17.5 -1.5q70 0 121 94l186 -74
q-49 -112 -118.5 -183t-153.5 -71zM598 -20q-565 0 -479 686l98 788h371l-101 -827q-9 -63 -6 -118t16.5 -95.5t48 -64t87.5 -23.5q90 0 146 64.5t75 221.5l104 842h369l-104 -854q-21 -172 -71 -292.5t-130 -192t-183 -103.5t-241 -32z" />
    <glyph glyph-name="utilde" unicode="&#x169;" horiz-adv-x="1097" 
d="M807 1122q-36 0 -69.5 11.5t-47.5 20.5t-41 28q-42 32 -86 32q-66 0 -119 -100l-188 92q48 119 119 189.5t157 70.5q38 0 72.5 -10.5t47 -18t36.5 -24.5q52 -35 82 -35q69 0 123 99l186 -78q-47 -126 -117 -201.5t-155 -75.5zM324 -20q-70 0 -121 19.5t-89 65
t-47.5 121.5t3.5 189l88 629h346l-74 -500q-19 -122 -9.5 -168.5t54.5 -46.5q56 0 113.5 77t66.5 160l60 478h348l-123 -1004h-340l8 131h-6q-118 -151 -278 -151z" />
    <glyph glyph-name="Umacron" unicode="&#x16a;" horiz-adv-x="1310" 
d="M489 1589l33 250h596l-33 -250h-596zM598 -20q-565 0 -479 686l98 788h371l-101 -827q-9 -63 -6 -118t16.5 -95.5t48 -64t87.5 -23.5q90 0 146 64.5t75 221.5l104 842h369l-104 -854q-21 -172 -71 -292.5t-130 -192t-183 -103.5t-241 -32z" />
    <glyph glyph-name="umacron" unicode="&#x16b;" horiz-adv-x="1097" 
d="M342 1186l33 260h596l-33 -260h-596zM324 -20q-70 0 -121 19.5t-89 65t-47.5 121.5t3.5 189l88 629h346l-74 -500q-19 -122 -9.5 -168.5t54.5 -46.5q56 0 113.5 77t66.5 160l60 478h348l-123 -1004h-340l8 131h-6q-118 -151 -278 -151z" />
    <glyph glyph-name="Ubreve" unicode="&#x16c;" horiz-adv-x="1310" 
d="M778 1530q-150 0 -222.5 82t-63.5 225h243q-5 -34 14 -58t56 -24q41 0 72.5 24.5t42.5 57.5h245q-29 -137 -123 -222t-264 -85zM598 -20q-565 0 -479 686l98 788h371l-101 -827q-9 -63 -6 -118t16.5 -95.5t48 -64t87.5 -23.5q90 0 146 64.5t75 221.5l104 842h369
l-104 -854q-21 -172 -71 -292.5t-130 -192t-183 -103.5t-241 -32z" />
    <glyph glyph-name="ubreve" unicode="&#x16d;" horiz-adv-x="1097" 
d="M621 1094q-143 0 -219.5 86.5t-67.5 242.5h244q-5 -35 13.5 -59.5t55.5 -24.5q41 0 72.5 25t42.5 59h246q-27 -148 -127 -238.5t-260 -90.5zM324 -20q-70 0 -121 19.5t-89 65t-47.5 121.5t3.5 189l88 629h346l-74 -500q-19 -122 -9.5 -168.5t54.5 -46.5q56 0 113.5 77
t66.5 160l60 478h348l-123 -1004h-340l8 131h-6q-118 -151 -278 -151z" />
    <glyph glyph-name="Uring" unicode="&#x16e;" horiz-adv-x="1310" 
d="M786 1516q-92 0 -153.5 62t-61.5 153q0 94 63.5 156.5t158.5 62.5q92 0 153.5 -60.5t61.5 -150.5q0 -95 -63.5 -159t-158.5 -64zM791 1661q31 0 51 21t20 53q0 29 -20 49t-49 20q-32 0 -54 -20t-22 -51t21 -51.5t53 -20.5zM598 -20q-565 0 -479 686l98 788h371l-101 -827
q-9 -63 -6 -118t16.5 -95.5t48 -64t87.5 -23.5q90 0 146 64.5t75 221.5l104 842h369l-104 -854q-21 -172 -71 -292.5t-130 -192t-183 -103.5t-241 -32z" />
    <glyph glyph-name="uring" unicode="&#x16f;" horiz-adv-x="1097" 
d="M655 1100q-92 0 -153.5 62t-61.5 153q0 94 63.5 156.5t158.5 62.5q92 0 153.5 -60.5t61.5 -150.5q0 -95 -63.5 -159t-158.5 -64zM659 1245q31 0 51.5 21t20.5 53q0 29 -20 49.5t-49 20.5q-32 0 -54 -20.5t-22 -51.5t20.5 -51.5t52.5 -20.5zM324 -20q-70 0 -121 19.5
t-89 65t-47.5 121.5t3.5 189l88 629h346l-74 -500q-19 -122 -9.5 -168.5t54.5 -46.5q56 0 113.5 77t66.5 160l60 478h348l-123 -1004h-340l8 131h-6q-118 -151 -278 -151z" />
    <glyph glyph-name="Uhungarumlaut" unicode="&#x170;" horiz-adv-x="1310" 
d="M375 1540l237 309l336 2l-266 -311h-307zM823 1540l236 309l336 2l-265 -311h-307zM598 -20q-565 0 -479 686l98 788h371l-101 -827q-9 -63 -6 -118t16.5 -95.5t48 -64t87.5 -23.5q90 0 146 64.5t75 221.5l104 842h369l-104 -854q-21 -172 -71 -292.5t-130 -192
t-183 -103.5t-241 -32z" />
    <glyph glyph-name="uhungarumlaut" unicode="&#x171;" horiz-adv-x="1097" 
d="M262 1141l238 309l336 2l-267 -311h-307zM711 1141l235 309l336 2l-264 -311h-307zM324 -20q-70 0 -121 19.5t-89 65t-47.5 121.5t3.5 189l88 629h346l-74 -500q-19 -122 -9.5 -168.5t54.5 -46.5q56 0 113.5 77t66.5 160l60 478h348l-123 -1004h-340l8 131h-6
q-118 -151 -278 -151z" />
    <glyph glyph-name="Uogonek" unicode="&#x172;" horiz-adv-x="1310" 
d="M958 1454h369l-104 -854q-32 -260 -129.5 -402t-264.5 -190q-83 -28 -138.5 -77t-55.5 -105q0 -19 12 -31t35 -12q26 0 61 12l5 -168q-61 -20 -158 -20q-100 0 -152.5 42t-52.5 122q0 55 31.5 109.5t83.5 99.5l-2 6q-458 58 -379 680l98 788h371l-101 -827
q-9 -63 -6 -118t16.5 -95.5t48 -64t87.5 -23.5q90 0 146 64.5t75 221.5z" />
    <glyph glyph-name="uogonek" unicode="&#x173;" horiz-adv-x="1097" 
d="M715 1004h348l-123 -1004h-27q-78 -1 -140 -56t-62 -118q0 -24 11.5 -33.5t35.5 -9.5q33 0 61 12l4 -168q-61 -20 -157 -20q-100 0 -152.5 42t-52.5 122q0 66 38 131t101 110l8 119h-6q-118 -151 -278 -151q-70 0 -121 19.5t-89 65t-47.5 121.5t3.5 189l88 629h346
l-74 -500q-19 -122 -9.5 -168.5t54.5 -46.5q56 0 113.5 77t66.5 160z" />
    <glyph glyph-name="Wcircumflex" unicode="&#x174;" horiz-adv-x="1890" 
d="M711 1544l207 293h352l139 -293h-283l-53 125h-2l-86 -125h-274zM362 0l-229 1454h385l86 -844h4l283 844h364l62 -823h6l276 823h396l-586 -1454h-330l-84 881h-4l-313 -881h-316z" />
    <glyph glyph-name="wcircumflex" unicode="&#x175;" horiz-adv-x="1529" 
d="M494 1135l231 317h297l168 -317h-289l-37 149h-2l-71 -149h-297zM326 -20q-108 0 -177.5 57.5t-92.5 147.5t-7 202l88 617h344l-75 -517q-15 -86 -6 -142t51 -56q45 0 93 72t66 219l54 424h331l-63 -525q-13 -103 -4.5 -146.5t43.5 -43.5q23 0 46.5 17t50.5 57t50 123
t35 198q16 154 -2 320h350q28 -180 4 -383q-17 -142 -58 -253.5t-97.5 -183t-129.5 -118.5t-150 -66.5t-163 -19.5q-217 0 -270 176h-4q-111 -176 -307 -176z" />
    <glyph glyph-name="Ycircumflex" unicode="&#x176;" horiz-adv-x="1189" 
d="M379 1544l207 293h352l139 -293h-282l-54 125h-2l-86 -125h-274zM344 0l80 631l-318 823h408l135 -477h6l244 477h422l-522 -823l-78 -631h-377z" />
    <glyph glyph-name="ycircumflex" unicode="&#x177;" horiz-adv-x="1081" 
d="M625 1284l-72 -149h-297l231 317h297l168 -317h-288l-37 149h-2zM705 1004h348l-107 -863q-68 -567 -577 -567q-206 0 -369 98l106 250q107 -72 238 -72q40 0 70 6t60.5 23.5t52 47.5t40 81t29.5 121h-6q-114 -149 -279 -149q-55 0 -98.5 12t-79.5 40t-55 74t-26.5 112.5
t7.5 156.5l88 629h347l-72 -500q-19 -122 -11 -168.5t56 -46.5q54 0 111.5 77.5t66.5 153.5z" />
    <glyph glyph-name="Ydieresis" unicode="&#x178;" horiz-adv-x="1189" 
d="M504 1532q-91 0 -147 54t-56 138t58 139.5t151 55.5q91 0 147 -52.5t56 -135.5q0 -87 -58 -143t-151 -56zM975 1532q-90 0 -146.5 54t-56.5 138t58.5 139.5t152.5 55.5q90 0 146.5 -53t56.5 -135q0 -87 -58.5 -143t-152.5 -56zM344 0l80 631l-318 823h408l135 -477h6
l244 477h422l-522 -823l-78 -631h-377z" />
    <glyph glyph-name="Zacute" unicode="&#x179;" horiz-adv-x="1146" 
d="M483 1544l236 291l338 2l-269 -293h-305zM10 0l33 289l643 827l-4 8h-518l39 330h991l-33 -280l-657 -836l4 -8h545l-39 -330h-1004z" />
    <glyph glyph-name="zacute" unicode="&#x17a;" horiz-adv-x="897" 
d="M309 1141l238 309l344 2l-266 -311h-316zM743 -55q-166 34 -340.5 44.5t-410.5 10.5l24 229l402 496v6h-299l33 273h755l-24 -230l-414 -498v-4q187 -10 352 -59z" />
    <glyph glyph-name="Zdotaccent" unicode="&#x17b;" horiz-adv-x="1146" 
d="M733 1532q-91 0 -148 54t-57 138t58.5 139.5t152.5 55.5q91 0 147 -52.5t56 -135.5q0 -87 -58 -143t-151 -56zM10 0l33 289l643 827l-4 8h-518l39 330h991l-33 -280l-657 -836l4 -8h545l-39 -330h-1004z" />
    <glyph glyph-name="zdotaccent" unicode="&#x17c;" horiz-adv-x="897" 
d="M551 1118q-91 0 -148 54.5t-57 138.5t58.5 139t152.5 55q91 0 147 -52.5t56 -135.5q0 -87 -58 -143t-151 -56zM743 -55q-166 34 -340.5 44.5t-410.5 10.5l24 229l402 496v6h-299l33 273h755l-24 -230l-414 -498v-4q187 -10 352 -59z" />
    <glyph glyph-name="Zcaron" unicode="&#x17d;" horiz-adv-x="1146" 
d="M545 1544l-139 293h282l53 -125h2l86 125h275l-207 -293h-352zM10 0l33 289l643 827l-4 8h-518l39 330h991l-33 -280l-657 -836l4 -8h545l-39 -330h-1004z" />
    <glyph glyph-name="zcaron" unicode="&#x17e;" horiz-adv-x="897" 
d="M369 1114l-138 309h283l51 -141h2l84 141h277l-207 -309h-352zM743 -55q-166 34 -340.5 44.5t-410.5 10.5l24 229l402 496v6h-299l33 273h755l-24 -230l-414 -498v-4q187 -10 352 -59z" />
    <glyph glyph-name="longs" unicode="&#x17f;" horiz-adv-x="688" 
d="M55 0l88 725h-80l35 279h80l19 147q44 377 366 377q143 0 244 -82l-86 -244q-47 31 -92 31q-41 0 -60.5 -31.5t-31.5 -126.5l-131 -1075h-351z" />
    <glyph glyph-name="uni018F" unicode="&#x18f;" horiz-adv-x="1427" 
d="M797 1475q272 0 436 -163.5t164 -451.5q0 -244 -88 -442.5t-258.5 -318t-393.5 -119.5q-272 0 -428.5 163t-156.5 457q0 125 39 240h911q-1 138 -71 215.5t-177 77.5q-146 0 -264 -115l-219 274q97 80 239 131.5t267 51.5zM672 307q215 0 295 223h-539
q6 -108 75.5 -165.5t168.5 -57.5z" />
    <glyph glyph-name="florin" unicode="&#x192;" horiz-adv-x="978" 
d="M66 -360q-125 0 -201 31t-98 63l133 221q75 -21 110 -21q56 0 91 39t57 127l135 582h-137l73 283h136l47 198q87 365 415 365q123 0 200.5 -32t98.5 -62l-133 -222q-85 19 -112 19q-99 0 -136 -166l-20 -100h205l-74 -283h-207l-157 -678q-45 -183 -148 -273.5
t-278 -90.5z" />
    <glyph glyph-name="uni019D" unicode="&#x19d;" horiz-adv-x="1359" 
d="M-12 -422q-91 0 -146 14l52 277q32 -4 47 -4q53 0 78.5 32t35.5 123l176 1434h338l324 -827l6 2l107 825h358l-186 -1454h-353l-309 803l-6 -2l-100 -801q-13 -104 -40.5 -180t-63.5 -122.5t-88 -73.5t-105.5 -36.5t-124.5 -9.5z" />
    <glyph glyph-name="Ohorn" unicode="&#x1a0;" horiz-adv-x="1615" 
d="M1458 1585h268l-20 -172q-19 -165 -91.5 -256.5t-178.5 -107.5q20 -95 20 -189q0 -183 -52.5 -342.5t-149 -279.5t-245 -189t-329.5 -69q-272 0 -433 164t-161 456q0 174 55 332.5t153 279t245.5 192t320.5 71.5q175 0 307.5 -70t206.5 -201q25 22 38 74t24 141zM709 328
q105 0 187.5 66t127.5 182t45 260q0 146 -67 219t-175 73q-99 0 -181.5 -70.5t-128.5 -185.5t-46 -245q0 -148 66.5 -223.5t171.5 -75.5z" />
    <glyph glyph-name="ohorn" unicode="&#x1a1;" horiz-adv-x="1292" 
d="M1087 1157h269l-21 -172q-21 -177 -101 -269t-196 -100v-28q0 -123 -33 -229.5t-99.5 -192.5t-178.5 -136t-258 -50q-193 0 -308.5 115t-115.5 321q0 121 37.5 230t106.5 193.5t177.5 134.5t241.5 50q145 0 248.5 -64t149.5 -184q24 25 36 75.5t23 139.5zM502 289
q81 0 132.5 84t51.5 194q0 81 -33.5 113.5t-74.5 32.5q-55 0 -97.5 -43.5t-63 -108t-20.5 -135.5q0 -73 34 -105t71 -32z" />
    <glyph glyph-name="Uhorn" unicode="&#x1af;" horiz-adv-x="1581" 
d="M1448 1585h268l-20 -172q-22 -184 -107.5 -276.5t-210.5 -92.5q-50 0 -100 13l-55 -457q-21 -172 -71 -292.5t-130 -192t-183 -103.5t-241 -32q-565 0 -479 686l98 788h371l-101 -827q-9 -63 -6 -118t16.5 -95.5t48 -64t87.5 -23.5q90 0 146 64.5t75 221.5l104 842h369
l-33 -264q20 -4 27 -4q26 0 44 16.5t29.5 53t17.5 70.5t13 93z" />
    <glyph glyph-name="uhorn" unicode="&#x1b0;" horiz-adv-x="1368" 
d="M1180 1157h268l-21 -172q-22 -185 -107.5 -277t-209.5 -92q-42 0 -92 11l-78 -627h-340l8 131h-6q-118 -151 -278 -151q-70 0 -121 19.5t-89 65t-47.5 121.5t3.5 189l88 629h346l-74 -500q-19 -122 -9.5 -168.5t54.5 -46.5q56 0 113.5 77t66.5 160l60 478h348l-31 -244
q4 0 11 -1t10 -1q26 0 44 16.5t29.5 53t17.5 70.5t13 93z" />
    <glyph glyph-name="uni01CD" unicode="&#x1cd;" horiz-adv-x="1288" 
d="M606 1544l-139 293h283l53 -125h2l86 125h274l-207 -293h-352zM-68 0l652 1454h348l295 -1454h-385l-37 246h-393l-88 -246h-392zM524 553h236l-68 455h-4z" />
    <glyph glyph-name="uni01CE" unicode="&#x1ce;" horiz-adv-x="1122" 
d="M477 1114l-137 309h283l51 -141h2l84 141h276l-207 -309h-352zM360 -20q-149 0 -233 115t-84 296q0 138 38 258t102 201.5t148 127.5t175 46q144 0 223 -86h6l8 66h351l-123 -1004h-350l16 129l-6 2q-108 -151 -271 -151zM485 289q72 0 136.5 89.5t89.5 250.5l4 22
q-58 64 -137 64q-54 0 -98 -46.5t-65.5 -111.5t-21.5 -129q0 -62 26 -100.5t66 -38.5z" />
    <glyph glyph-name="uni01CF" unicode="&#x1cf;" horiz-adv-x="626" 
d="M264 1540l-139 293h283l53 -125h2l86 125h274l-207 -293h-352zM63 0l179 1454h376l-178 -1454h-377z" />
    <glyph glyph-name="uni01D0" unicode="&#x1d0;" horiz-adv-x="559" 
d="M193 1114l-138 309h283l51 -141h2l84 141h277l-207 -309h-352zM43 0l125 1004h346l-123 -1004h-348z" />
    <glyph glyph-name="uni01D1" unicode="&#x1d1;" horiz-adv-x="1486" 
d="M760 1544l-139 293h282l53 -125h2l86 125h275l-207 -293h-352zM680 -20q-272 0 -433 164t-161 456q0 174 55 332.5t153 279t245.5 192t320.5 71.5q271 0 433.5 -163.5t162.5 -451.5q0 -183 -52.5 -342.5t-149 -279.5t-245 -189t-329.5 -69zM709 328q105 0 187.5 66
t127.5 182t45 260q0 146 -67 219t-175 73q-99 0 -181.5 -70.5t-128.5 -185.5t-46 -245q0 -148 66.5 -223.5t171.5 -75.5z" />
    <glyph glyph-name="uni01D2" unicode="&#x1d2;" horiz-adv-x="1083" 
d="M467 1114l-137 309h282l52 -141h2l84 141h276l-207 -309h-352zM469 -20q-193 0 -308.5 115t-115.5 321q0 121 37.5 230t106.5 193.5t177.5 134.5t241.5 50q197 0 313.5 -115.5t116.5 -320.5q0 -123 -33 -229.5t-99.5 -192.5t-178.5 -136t-258 -50zM502 289q81 0 132.5 84
t51.5 194q0 81 -33.5 113.5t-74.5 32.5q-55 0 -97.5 -43.5t-63 -108t-20.5 -135.5q0 -73 34 -105t71 -32z" />
    <glyph glyph-name="uni01D3" unicode="&#x1d3;" horiz-adv-x="1310" 
d="M612 1544l-139 293h283l53 -125h2l86 125h274l-206 -293h-353zM598 -20q-565 0 -479 686l98 788h371l-101 -827q-9 -63 -6 -118t16.5 -95.5t48 -64t87.5 -23.5q90 0 146 64.5t75 221.5l104 842h369l-104 -854q-21 -172 -71 -292.5t-130 -192t-183 -103.5t-241 -32z" />
    <glyph glyph-name="uni01D4" unicode="&#x1d4;" horiz-adv-x="1097" 
d="M463 1114l-137 309h282l51 -141h3l83 141h277l-207 -309h-352zM324 -20q-70 0 -121 19.5t-89 65t-47.5 121.5t3.5 189l88 629h346l-74 -500q-19 -122 -9.5 -168.5t54.5 -46.5q56 0 113.5 77t66.5 160l60 478h348l-123 -1004h-340l8 131h-6q-118 -151 -278 -151z" />
    <glyph glyph-name="uni01D5" unicode="&#x1d5;" horiz-adv-x="1310" 
d="M518 1898l21 168h596l-21 -168h-596zM563 1532q-73 0 -118.5 43.5t-45.5 110.5t47 111t121 44q73 0 118.5 -42t45.5 -107q0 -70 -47 -115t-121 -45zM1030 1532q-73 0 -118.5 43.5t-45.5 110.5t47 111t121 44q73 0 118.5 -42t45.5 -107q0 -70 -47 -115t-121 -45zM598 -20
q-565 0 -479 686l98 788h371l-101 -827q-9 -63 -6 -118t16.5 -95.5t48 -64t87.5 -23.5q90 0 146 64.5t75 221.5l104 842h369l-104 -854q-21 -172 -71 -292.5t-130 -192t-183 -103.5t-241 -32z" />
    <glyph glyph-name="uni01D6" unicode="&#x1d6;" horiz-adv-x="1097" 
d="M365 1507l22 183h596l-22 -183h-596zM432 1102q-78 0 -129 49t-51 123q0 71 51.5 119.5t128.5 48.5q79 0 131.5 -48t52.5 -120q0 -75 -52 -123.5t-132 -48.5zM852 1102q-78 0 -129 49t-51 123q0 71 51.5 119.5t128.5 48.5q79 0 131.5 -48t52.5 -120q0 -75 -52 -123.5
t-132 -48.5zM324 -20q-70 0 -121 19.5t-89 65t-47.5 121.5t3.5 189l88 629h346l-74 -500q-19 -122 -9.5 -168.5t54.5 -46.5q56 0 113.5 77t66.5 160l60 478h348l-123 -1004h-340l8 131h-6q-118 -151 -278 -151z" />
    <glyph glyph-name="uni01D7" unicode="&#x1d7;" horiz-adv-x="1310" 
d="M700 1855l199 275l318 2l-316 -277h-201zM563 1532q-73 0 -118.5 43.5t-45.5 110.5t47 111t121 44q73 0 118.5 -42t45.5 -107q0 -70 -47 -115t-121 -45zM1030 1532q-73 0 -118.5 43.5t-45.5 110.5t47 111t121 44q73 0 118.5 -42t45.5 -107q0 -70 -47 -115t-121 -45z
M598 -20q-565 0 -479 686l98 788h371l-101 -827q-9 -63 -6 -118t16.5 -95.5t48 -64t87.5 -23.5q90 0 146 64.5t75 221.5l104 842h369l-104 -854q-21 -172 -71 -292.5t-130 -192t-183 -103.5t-241 -32z" />
    <glyph glyph-name="uni01D8" unicode="&#x1d8;" horiz-adv-x="1097" 
d="M532 1483l224 272l317 2l-282 -274h-259zM432 1102q-78 0 -129 49t-51 123q0 71 51.5 119.5t128.5 48.5q79 0 131.5 -48t52.5 -120q0 -75 -52 -123.5t-132 -48.5zM852 1102q-78 0 -129 49t-51 123q0 71 51.5 119.5t128.5 48.5q79 0 131.5 -48t52.5 -120q0 -75 -52 -123.5
t-132 -48.5zM324 -20q-70 0 -121 19.5t-89 65t-47.5 121.5t3.5 189l88 629h346l-74 -500q-19 -122 -9.5 -168.5t54.5 -46.5q56 0 113.5 77t66.5 160l60 478h348l-123 -1004h-340l8 131h-6q-118 -151 -278 -151z" />
    <glyph glyph-name="uni01D9" unicode="&#x1d9;" horiz-adv-x="1310" 
d="M631 1872l-139 264h282l53 -113h2l86 113h275l-207 -264h-352zM563 1532q-73 0 -118.5 43.5t-45.5 110.5t47 111t121 44q73 0 118.5 -42t45.5 -107q0 -70 -47 -115t-121 -45zM1030 1532q-73 0 -118.5 43.5t-45.5 110.5t47 111t121 44q73 0 118.5 -42t45.5 -107
q0 -70 -47 -115t-121 -45zM598 -20q-565 0 -479 686l98 788h371l-101 -827q-9 -63 -6 -118t16.5 -95.5t48 -64t87.5 -23.5q90 0 146 64.5t75 221.5l104 842h369l-104 -854q-21 -172 -71 -292.5t-130 -192t-183 -103.5t-241 -32z" />
    <glyph glyph-name="uni01DA" unicode="&#x1da;" horiz-adv-x="1097" 
d="M481 1473l-137 278h283l51 -127h2l84 127h276l-206 -278h-353zM432 1102q-78 0 -129 49t-51 123q0 71 51.5 119.5t128.5 48.5q79 0 131.5 -48t52.5 -120q0 -75 -52 -123.5t-132 -48.5zM852 1102q-78 0 -129 49t-51 123q0 71 51.5 119.5t128.5 48.5q79 0 131.5 -48
t52.5 -120q0 -75 -52 -123.5t-132 -48.5zM324 -20q-70 0 -121 19.5t-89 65t-47.5 121.5t3.5 189l88 629h346l-74 -500q-19 -122 -9.5 -168.5t54.5 -46.5q56 0 113.5 77t66.5 160l60 478h348l-123 -1004h-340l8 131h-6q-118 -151 -278 -151z" />
    <glyph glyph-name="uni01DB" unicode="&#x1db;" horiz-adv-x="1310" 
d="M690 1853l-258 277h252l176 -277h-170zM563 1532q-73 0 -118.5 43.5t-45.5 110.5t47 111t121 44q73 0 118.5 -42t45.5 -107q0 -70 -47 -115t-121 -45zM1030 1532q-73 0 -118.5 43.5t-45.5 110.5t47 111t121 44q73 0 118.5 -42t45.5 -107q0 -70 -47 -115t-121 -45z
M598 -20q-565 0 -479 686l98 788h371l-101 -827q-9 -63 -6 -118t16.5 -95.5t48 -64t87.5 -23.5q90 0 146 64.5t75 221.5l104 842h369l-104 -854q-21 -172 -71 -292.5t-130 -192t-183 -103.5t-241 -32z" />
    <glyph glyph-name="uni01DC" unicode="&#x1dc;" horiz-adv-x="1097" 
d="M526 1485l-194 272l301 -2l135 -270h-242zM432 1102q-78 0 -129 49t-51 123q0 71 51.5 119.5t128.5 48.5q79 0 131.5 -48t52.5 -120q0 -75 -52 -123.5t-132 -48.5zM852 1102q-78 0 -129 49t-51 123q0 71 51.5 119.5t128.5 48.5q79 0 131.5 -48t52.5 -120
q0 -75 -52 -123.5t-132 -48.5zM324 -20q-70 0 -121 19.5t-89 65t-47.5 121.5t3.5 189l88 629h346l-74 -500q-19 -122 -9.5 -168.5t54.5 -46.5q56 0 113.5 77t66.5 160l60 478h348l-123 -1004h-340l8 131h-6q-118 -151 -278 -151z" />
    <glyph glyph-name="Gcaron" unicode="&#x1e6;" horiz-adv-x="1363" 
d="M698 1540l-139 293h283l53 -125h2l86 125h274l-206 -293h-353zM684 -20q-127 0 -234.5 37.5t-189.5 111t-128 191.5t-46 270q0 183 55.5 344.5t155 281.5t246 189.5t319.5 69.5q153 0 288 -71t210 -200l-281 -215q-39 59 -100.5 98t-138.5 39q-108 0 -193 -75.5
t-128.5 -191.5t-43.5 -245q0 -144 63.5 -217t172.5 -73q100 0 192 55l23 145h-209l37 303h559l-78 -673q-101 -76 -249.5 -125t-301.5 -49z" />
    <glyph glyph-name="gcaron" unicode="&#x1e7;" horiz-adv-x="1112" 
d="M834 1114h-353l-137 309h283l51 -141h2l84 141h276zM735 1004h348l-106 -873q-69 -557 -590 -557q-217 0 -377 98l107 262q119 -71 248 -71q55 0 93.5 11t74.5 41t60 89t38 150l-6 2q-109 -146 -265 -146q-99 0 -172.5 53.5t-109 138.5t-35.5 189q0 138 38 258t102 201.5
t148 127.5t175 46q140 0 217 -80l6 2zM485 319q71 0 133.5 89t86.5 237l2 14q-56 56 -129 56q-54 0 -98 -46.5t-65.5 -109t-21.5 -121.5t25 -89t67 -30z" />
    <glyph glyph-name="uni01EA" unicode="&#x1ea;" horiz-adv-x="1486" 
d="M782 -14q-56 -22 -93.5 -67.5t-37.5 -92.5q0 -24 11.5 -33.5t35.5 -9.5q34 0 62 12l4 -168q-61 -20 -158 -20q-100 0 -152.5 42t-52.5 122q0 59 31.5 118t83.5 103v6q-201 45 -315.5 201t-114.5 401q0 174 55 332.5t153 279t245.5 192t320.5 71.5q271 0 433.5 -163.5
t162.5 -451.5q0 -170 -45 -320t-129.5 -267t-213 -192.5t-286.5 -94.5zM827 1128q-99 0 -181.5 -70.5t-128.5 -185.5t-46 -245q0 -148 66.5 -223.5t171.5 -75.5t187.5 66t127.5 182t45 260q0 146 -67 219t-175 73z" />
    <glyph glyph-name="uni01EB" unicode="&#x1eb;" horiz-adv-x="1083" 
d="M569 -14q-57 -22 -95 -67.5t-38 -92.5q0 -24 11.5 -33.5t35.5 -9.5q34 0 62 12l4 -168q-61 -20 -158 -20q-100 0 -152.5 42t-52.5 122q0 62 33.5 123t89.5 106v4q-124 42 -194 148t-70 264q0 121 37.5 230t106.5 193.5t177.5 134.5t241.5 50q197 0 313.5 -115.5
t116.5 -320.5q0 -112 -27.5 -211t-82.5 -181.5t-147 -138t-212 -71.5zM578 713q-55 0 -97.5 -43.5t-63 -108t-20.5 -135.5q0 -73 34 -105t71 -32q81 0 132.5 84t51.5 194q0 81 -33.5 113.5t-74.5 32.5z" />
    <glyph glyph-name="Aringacute" unicode="&#x1fa;" horiz-adv-x="1288" 
d="M782 1516q-92 0 -153.5 62t-61.5 153q0 94 63 156.5t158 62.5q75 0 134 -43l131 100l323 2l-372 -283q-5 -91 -67.5 -150.5t-154.5 -59.5zM788 1804q-32 0 -53.5 -20t-21.5 -51t20.5 -51.5t52.5 -20.5q31 0 51.5 21t20.5 53q0 29 -20.5 49t-49.5 20zM584 1454h348
l295 -1454h-385l-37 246h-393l-88 -246h-392zM524 553h236l-68 455h-4z" />
    <glyph glyph-name="aringacute" unicode="&#x1fb;" horiz-adv-x="1122" 
d="M670 1100q-92 0 -153.5 62t-61.5 153q0 94 63 156.5t158 62.5q77 0 133 -43l131 102h340l-391 -307q-12 -82 -72.5 -134t-146.5 -52zM676 1389q-32 0 -54 -20.5t-22 -51.5t21 -51.5t53 -20.5q31 0 51 21t20 53q0 29 -20 49.5t-49 20.5zM735 938l8 66h351l-123 -1004h-350
l16 129l-6 2q-108 -151 -271 -151q-149 0 -233 115t-84 296q0 138 38 258t102 201.5t148 127.5t175 46q144 0 223 -86h6zM711 629l4 22q-58 64 -137 64q-54 0 -98 -46.5t-65.5 -111.5t-21.5 -129q0 -62 26 -100.5t66 -38.5q72 0 136.5 89.5t89.5 250.5z" />
    <glyph glyph-name="AEacute" unicode="&#x1fc;" horiz-adv-x="1763" 
d="M782 1544l236 291l338 2l-269 -293h-305zM-68 0l781 1454h1065l-41 -330h-518l-31 -243h411l-40 -318h-410l-29 -233h557l-41 -330h-915l31 246h-303l-125 -246h-392zM604 557h187l57 473h-4z" />
    <glyph glyph-name="aeacute" unicode="&#x1fd;" horiz-adv-x="1400" 
d="M1255 1452l-266 -311h-315l237 309zM961 258q82 0 147 94l252 -139q-147 -233 -416 -233q-236 0 -315 159q-111 -162 -283 -162q-144 0 -236 98.5t-92 280.5q0 189 64.5 335.5t193 232.5t304.5 86q133 0 237 -43q102 57 238 57q65 0 125.5 -16t112.5 -48.5t83 -89.5
t31 -131q0 -79 -47.5 -146.5t-128 -114t-180.5 -76.5t-211 -42q14 -52 48.5 -77t72.5 -25zM1026 741q-55 0 -103 -52.5t-73 -139.5q229 41 229 147q0 20 -14 32.5t-39 12.5zM428 270q26 0 50.5 30.5t42.5 80.5t31 99t21 98q16 89 48 157q-110 -8 -182 -104.5t-72 -245.5
q0 -55 17 -85t44 -30z" />
    <glyph glyph-name="Oslashacute" unicode="&#x1fe;" horiz-adv-x="1488" 
d="M1274 1833l-268 -293h-306l236 291zM1518 1386l-154 -161q94 -148 94 -365q0 -183 -52.5 -342.5t-149 -279.5t-245 -189t-329.5 -69q-229 0 -379 116l-162 -172l-131 129l170 180q-92 150 -92 367q0 174 55 332.5t153 279t245.5 192t320.5 71.5q228 0 379 -115l143 153z
M473 627q0 -41 6 -76l498 530q-58 47 -148 47q-99 0 -181.5 -70.5t-128.5 -185.5t-46 -245zM1071 836q0 25 -4 71l-500 -530q58 -49 144 -49q105 0 187.5 66t127.5 182t45 260z" />
    <glyph glyph-name="oslashacute" unicode="&#x1ff;" horiz-adv-x="1081" 
d="M1059 1452l-266 -311h-316l238 309zM1067 954l-98 -104q69 -104 69 -262q0 -123 -33 -229.5t-99.5 -192.5t-178.5 -136t-258 -50q-153 0 -256 71l-94 -98l-92 88l96 100q-78 111 -78 275q0 121 37.5 230t106.5 193.5t177.5 134.5t241.5 50q164 0 275 -82l94 98zM578 713
q-80 0 -129.5 -86t-51.5 -197l246 260q-29 23 -65 23zM502 289q78 0 128.5 78t55.5 184l-235 -246q24 -16 51 -16z" />
    <glyph glyph-name="Scommaaccent" unicode="&#x218;" horiz-adv-x="1097" 
d="M504 -20q-148 0 -286 64t-228 204l262 225q52 -81 122.5 -123.5t137.5 -42.5q70 0 107.5 30.5t37.5 74.5q0 36 -33 63.5t-139 89.5q-139 82 -187 119q-143 111 -165 261q-4 30 -4 63q0 140 68 247.5t183 163.5t257 56q137 0 261 -58.5t196 -171.5l-260 -217
q-55 70 -104.5 95.5t-102.5 25.5q-50 0 -81 -27.5t-30 -70.5q0 -37 26.5 -71.5t102.5 -78.5q28 -17 79 -46.5t76.5 -44.5t66 -42t61 -46t47 -49t39 -58t21.5 -66t9 -80q0 -228 -147.5 -358.5t-392.5 -130.5zM262 -455l-31 195q61 8 87 30.5t26 69.5q0 21 -6 51h270
q4 -32 4 -49q0 -145 -93.5 -221t-256.5 -76z" />
    <glyph glyph-name="scommaaccent" unicode="&#x219;" horiz-adv-x="854" 
d="M381 -20q-111 0 -223 45.5t-181 126.5l185 196q44 -52 109 -85.5t122 -33.5q28 0 44 9t16 24q0 19 -23.5 35t-120.5 68q-126 67 -183.5 136t-57.5 173q0 156 109.5 253t273.5 97q109 0 204.5 -43.5t161.5 -126.5l-203 -188q-66 97 -157 102q-24 0 -43 -11.5t-19 -33.5
q0 -28 129 -94q141 -70 200.5 -139t59.5 -183q0 -144 -109 -235.5t-294 -91.5zM121 -455l-31 195q61 8 87 30.5t26 69.5q0 21 -6 51h270q4 -32 4 -49q0 -145 -93.5 -221t-256.5 -76z" />
    <glyph glyph-name="uni021A" unicode="&#x21a;" horiz-adv-x="1095" 
d="M301 0l137 1124h-323l41 330h1018l-41 -330h-324l-137 -1124h-371zM250 -455l-31 195q61 8 87 30.5t26 69.5q0 21 -6 51h270q4 -32 4 -49q0 -145 -93.5 -221t-256.5 -76z" />
    <glyph glyph-name="uni021B" unicode="&#x21b;" horiz-adv-x="704" 
d="M348 -20q-59 0 -106 16t-85 52t-54 103.5t-5 161.5l49 412h-96l35 279h96l37 282l356 70l-43 -352h189l-35 -279h-188l-43 -371q-4 -31 5.5 -48t28.5 -17q29 0 78 22l60 -260q-136 -71 -279 -71zM115 -455l-31 195q61 8 87 30.5t26 69.5q0 16 -7 51h271q4 -32 4 -49
q0 -145 -93.5 -221t-256.5 -76z" />
    <glyph glyph-name="uni0232" unicode="&#x232;" horiz-adv-x="1189" 
d="M430 1589l33 250h596l-33 -250h-596zM344 0l80 631l-318 823h408l135 -477h6l244 477h422l-522 -823l-78 -631h-377z" />
    <glyph glyph-name="uni0233" unicode="&#x233;" horiz-adv-x="1081" 
d="M944 1446l-33 -260h-596l33 260h596zM705 1004h348l-107 -863q-68 -567 -577 -567q-206 0 -369 98l106 250q107 -72 238 -72q40 0 70 6t60.5 23.5t52 47.5t40 81t29.5 121h-6q-114 -149 -279 -149q-55 0 -98.5 12t-79.5 40t-55 74t-26.5 112.5t7.5 156.5l88 629h347
l-72 -500q-19 -122 -11 -168.5t56 -46.5q54 0 111.5 77.5t66.5 153.5z" />
    <glyph glyph-name="uni0237" unicode="&#x237;" horiz-adv-x="524" 
d="M4 -424q-124 0 -227 47l86 266q28 -22 71 -22q42 0 60 36.5t29 131.5l118 969h351l-125 -1018q-26 -220 -119 -315t-244 -95z" />
    <glyph glyph-name="uni0251" unicode="&#x251;" horiz-adv-x="1122" 
d="M360 -20q-149 0 -233 115t-84 296q0 138 38 258t102 201.5t148 127.5t175 46q144 0 223 -86h6l8 66h351l-123 -1004h-350l16 129l-6 2q-108 -151 -271 -151zM485 289q72 0 136.5 89.5t89.5 250.5l4 22q-58 64 -137 64q-54 0 -98 -46.5t-65.5 -111.5t-21.5 -129
q0 -62 26 -100.5t66 -38.5z" />
    <glyph glyph-name="uni0259" unicode="&#x259;" horiz-adv-x="962" 
d="M494 1024q202 0 317 -114t115 -316q0 -127 -38.5 -238t-110 -195t-181 -132.5t-242.5 -48.5q-67 0 -127.5 17t-109.5 50.5t-78 89t-29 125.5q0 86 47.5 155.5t131 115.5t182 76t215.5 46q-25 93 -127 93q-82 0 -174 -80l-179 215q65 59 172 100t216 41zM393 260
q65 0 115 54t72 145q-240 -42 -240 -150q0 -21 14 -35t39 -14z" />
    <glyph glyph-name="uni0261" unicode="&#x261;" horiz-adv-x="1112" 
d="M735 1004h348l-106 -873q-69 -557 -590 -557q-217 0 -377 98l107 262q119 -71 248 -71q55 0 93.5 11t74.5 41t60 89t38 150l-6 2q-109 -146 -265 -146q-99 0 -172.5 53.5t-109 138.5t-35.5 189q0 138 38 258t102 201.5t148 127.5t175 46q140 0 217 -80l6 2zM485 319
q71 0 133.5 89t86.5 237l2 14q-56 56 -129 56q-54 0 -98 -46.5t-65.5 -109t-21.5 -121.5t25 -89t67 -30z" />
    <glyph glyph-name="uni0272" unicode="&#x272;" horiz-adv-x="1110" 
d="M813 1024q137 0 193.5 -98.5t29.5 -307.5l-80 -618h-346l70 522q13 101 4 146t-45 45q-64 0 -125 -82.5t-84 -249.5l-47 -381q-27 -220 -119 -320t-287 -100q-83 0 -167 17l61 264q36 -8 49 -8q26 0 45 11t31 26.5t21 45t13.5 55.5t10.5 68l117 945h348l-14 -125l4 -2
q128 147 317 147z" />
    <glyph glyph-name="uni02BB" unicode="&#x2bb;" horiz-adv-x="489" 
d="M137 838l113 569h237l-30 -569h-320z" />
    <glyph glyph-name="uni02BC" unicode="&#x2bc;" horiz-adv-x="501" 
d="M147 971l119 475h322l-205 -475h-236z" />
    <glyph glyph-name="uni02BE" unicode="&#x2be;" horiz-adv-x="481" 
d="M184 1593q171 0 268 -84t97 -235q0 -195 -116.5 -306.5t-319.5 -111.5l-4 234q70 3 114.5 48t44.5 117q0 96 -121 105z" />
    <glyph glyph-name="uni02BF" unicode="&#x2bf;" horiz-adv-x="532" 
d="M526 856q-171 0 -267.5 84t-96.5 236q0 195 116.5 306t319.5 111l4 -233q-70 -3 -115 -48.5t-45 -117.5q0 -95 121 -104z" />
    <glyph glyph-name="circumflex" unicode="&#x2c6;" horiz-adv-x="811" 
d="M125 1081l231 318h297l168 -318h-289l-36 150h-2l-72 -150h-297z" />
    <glyph glyph-name="caron" unicode="&#x2c7;" horiz-adv-x="808" 
d="M305 1061l-137 309h283l51 -141h2l84 141h276l-207 -309h-352z" />
    <glyph glyph-name="uni02C8" unicode="&#x2c8;" horiz-adv-x="428" 
d="M131 756l68 596h227l-72 -594z" />
    <glyph glyph-name="uni02C9" unicode="&#x2c9;" horiz-adv-x="661" 
d="M117 1188l33 260h595l-32 -260h-596z" />
    <glyph glyph-name="uni02CA" unicode="&#x2ca;" horiz-adv-x="602" 
d="M106 1143l238 309l344 2l-266 -311h-316z" />
    <glyph glyph-name="uni02CB" unicode="&#x2cb;" horiz-adv-x="589" 
d="M336 1143l-189 311l336 -2l162 -309h-309z" />
    <glyph glyph-name="uni02CC" unicode="&#x2cc;" horiz-adv-x="428" 
d="M-4 -403l67 596h228l-72 -594z" />
    <glyph glyph-name="breve" unicode="&#x2d8;" horiz-adv-x="827" 
d="M473 1040q-143 0 -219.5 87t-67.5 243h244q-5 -35 14 -59.5t56 -24.5q41 0 72 24.5t42 59.5h246q-28 -148 -127.5 -239t-259.5 -91z" />
    <glyph glyph-name="dotaccent" unicode="&#x2d9;" horiz-adv-x="946" 
d="M553 1065q-91 0 -148 54t-57 138t58.5 139.5t152.5 55.5q91 0 147 -52.5t56 -135.5q0 -87 -58 -143t-151 -56z" />
    <glyph glyph-name="ring" unicode="&#x2da;" horiz-adv-x="831" 
d="M506 1049q-92 0 -153.5 62t-61.5 153q0 94 63 156.5t158 62.5q92 0 153.5 -60.5t61.5 -150.5q0 -95 -63 -159t-158 -64zM510 1194q31 0 51.5 21t20.5 53q0 29 -20.5 49t-49.5 20q-32 0 -54 -20t-22 -51t21 -51.5t53 -20.5z" />
    <glyph glyph-name="ogonek" unicode="&#x2db;" horiz-adv-x="890" 
d="M389 -393q-100 0 -152.5 42t-52.5 122q0 74 48 146t122 114l283 -31q-78 -1 -140.5 -56t-62.5 -118q0 -24 11.5 -33.5t35.5 -9.5q34 0 62 12l4 -168q-61 -20 -158 -20z" />
    <glyph glyph-name="tilde" unicode="&#x2dc;" horiz-adv-x="903" 
d="M682 1069q-36 0 -69.5 11t-48 20t-40.5 28q-44 33 -86 33q-66 0 -119 -100l-188 92q48 118 119.5 189t157.5 71q38 0 72.5 -11t46 -18t36.5 -24q52 -35 82 -35q69 0 123 98l186 -77q-47 -126 -117 -201.5t-155 -75.5z" />
    <glyph glyph-name="hungarumlaut" unicode="&#x2dd;" horiz-adv-x="1021" 
d="M104 1087l238 310l336 2l-266 -312h-308zM553 1087l235 310l336 2l-264 -312h-307z" />
    <glyph glyph-name="gravecomb" unicode="&#x300;" 
d="M-1040 1087l-189 312l336 -2l162 -310h-309z" />
    <glyph glyph-name="acutecomb" unicode="&#x301;" 
d="M-1182 1087l238 310l344 2l-266 -312h-316z" />
    <glyph glyph-name="uni0302" unicode="&#x302;" 
d="M-1303 1081l232 318h297l168 -318h-289l-37 150h-2l-72 -150h-297z" />
    <glyph glyph-name="tildecomb" unicode="&#x303;" 
d="M-780 1069q-36 0 -69.5 11t-48 20t-40.5 28q-44 33 -86 33q-66 0 -119 -100l-188 92q48 119 119 189.5t157 70.5q38 0 72.5 -10.5t47 -18t36.5 -24.5q52 -35 82 -35q69 0 123 98l186 -77q-47 -126 -117 -201.5t-155 -75.5z" />
    <glyph glyph-name="uni0304" unicode="&#x304;" 
d="M-1247 1133l33 260h596l-33 -260h-596z" />
    <glyph glyph-name="uni0306" unicode="&#x306;" 
d="M-967 1040q-143 0 -219 87t-67 243h243q-5 -35 14 -59.5t56 -24.5q41 0 72.5 25t42.5 59h245q-28 -148 -127.5 -239t-259.5 -91z" />
    <glyph glyph-name="uni0307" unicode="&#x307;" 
d="M-942 1065q-91 0 -148 54t-57 138t58.5 139.5t152.5 55.5q91 0 147 -52.5t56 -135.5q0 -87 -58 -143t-151 -56z" />
    <glyph glyph-name="uni0308" unicode="&#x308;" 
d="M-1171 1065q-91 0 -147 54t-56 138t58 139.5t151 55.5q91 0 146.5 -52.5t55.5 -135.5q0 -87 -57.5 -143t-150.5 -56zM-700 1065q-90 0 -146.5 54t-56.5 138t58.5 139.5t152.5 55.5q90 0 146.5 -53t56.5 -135q0 -87 -58.5 -143t-152.5 -56z" />
    <glyph glyph-name="hookabovecomb" unicode="&#x309;" 
d="M-899 1055l-174 2q96 76 106 145q7 49 -47 49q-55 0 -112 -37l-39 138q50 45 130.5 78.5t153.5 33.5q91 0 140 -38t49 -107q0 -78 -55 -149t-152 -115z" />
    <glyph glyph-name="uni030A" unicode="&#x30a;" 
d="M-932 1049q-92 0 -153.5 62t-61.5 153q0 94 63 156.5t158 62.5q92 0 153.5 -60.5t61.5 -150.5q0 -95 -63 -159t-158 -64zM-928 1194q31 0 51.5 21t20.5 53q0 29 -20.5 49t-49.5 20q-32 0 -53.5 -20t-21.5 -51t20.5 -51.5t52.5 -20.5z" />
    <glyph glyph-name="uni030B" unicode="&#x30b;" 
d="M-1325 1087l238 310l335 2l-266 -312h-307zM-877 1087l236 310l336 2l-264 -312h-308z" />
    <glyph glyph-name="uni030C" unicode="&#x30c;" 
d="M-1124 1061l-138 309h283l51 -141h2l84 141h277l-207 -309h-352z" />
    <glyph glyph-name="uni0312" unicode="&#x312;" 
d="M-1071 1112q-6 24 -6 47q0 146 94 222.5t256 76.5l31 -194q-61 -9 -86 -31.5t-25 -69.5q0 -15 4 -51h-268z" />
    <glyph glyph-name="uni0313" unicode="&#x313;" 
d="M-965 1438q7 -28 7 -47q0 -146 -94.5 -222.5t-256.5 -76.5l-30 194q61 9 85.5 31t24.5 69q0 16 -4 52h268z" />
    <glyph glyph-name="uni031B" unicode="&#x31b;" 
d="M-874 913q-78 0 -148 31l37 127q32 -16 53 -16q26 0 44 16.5t29.5 52.5t18 70.5t13.5 93.5l22 166h268l-20 -172q-22 -185 -107.5 -277t-209.5 -92z" />
    <glyph glyph-name="dotbelowcomb" unicode="&#x323;" 
d="M-1112 -102q91 0 148 -54.5t57 -138.5t-58.5 -139t-152.5 -55q-91 0 -147 52.5t-56 135.5q0 87 58 143t151 56z" />
    <glyph glyph-name="uni0324" unicode="&#x324;" 
d="M-1352 -102q90 0 146.5 -54.5t56.5 -138.5t-58.5 -139t-152.5 -55q-90 0 -146.5 53t-56.5 135q0 87 58.5 143t152.5 56zM-881 -102q91 0 147 -54.5t56 -138.5t-58 -139t-151 -55q-91 0 -147 52.5t-56 135.5q0 87 58 143t151 56z" />
    <glyph glyph-name="uni0326" unicode="&#x326;" 
d="M-1321 -455l-31 195q61 8 87 30.5t26 69.5q0 21 -6 51h270q4 -32 4 -49q0 -145 -93.5 -221t-256.5 -76z" />
    <glyph glyph-name="uni0327" unicode="&#x327;" 
d="M-1206 -395q-65 0 -119 12l4 133q34 -12 84 -12q47 0 73.5 17t26.5 46q0 47 -129 47l2 80l56 84h170l-56 -71l2 -2q74 -3 114 -37.5t40 -100.5q0 -99 -70.5 -147.5t-197.5 -48.5z" />
    <glyph glyph-name="uni0328" unicode="&#x328;" 
d="M-1335 -393q-100 0 -152.5 42t-52.5 122q0 74 48 146t122 114l283 -31q-78 -1 -140.5 -56t-62.5 -118q0 -24 11.5 -33.5t35.5 -9.5q33 0 61 12l4 -168q-61 -20 -157 -20z" />
    <glyph glyph-name="uni032E" unicode="&#x32e;" 
d="M-1147 -485q-143 0 -219.5 86.5t-67.5 242.5h244q-5 -35 14 -59.5t56 -24.5q41 0 72 24.5t42 59.5h246q-27 -148 -127 -238.5t-260 -90.5z" />
    <glyph glyph-name="uni0331" unicode="&#x331;" 
d="M-1434 -440l33 260h596l-33 -260h-596z" />
    <glyph glyph-name="uni0335" unicode="&#x335;" 
d="M-1309 426l25 201h569l-24 -201h-570z" />
    <glyph glyph-name="uni0400" unicode="&#x400;" horiz-adv-x="1091" 
d="M602 1540l-190 293l336 -2l163 -291h-309zM51 0l178 1454h877l-41 -330h-516l-31 -241h402l-37 -318h-402l-30 -235h555l-41 -330h-914z" />
    <glyph glyph-name="uni0401" unicode="&#x401;" horiz-adv-x="1091" 
d="M475 1567q-91 0 -147 54t-56 138t58 139.5t151 55.5q91 0 147 -53t56 -136q0 -87 -58 -142.5t-151 -55.5zM946 1567q-90 0 -146.5 54t-56.5 138t58.5 139.5t152.5 55.5q90 0 146.5 -53.5t56.5 -135.5q0 -87 -58.5 -142.5t-152.5 -55.5zM51 0l178 1454h877l-41 -330h-516
l-31 -241h402l-37 -318h-402l-30 -235h555l-41 -330h-914z" />
    <glyph glyph-name="uni0402" unicode="&#x402;" horiz-adv-x="1439" 
d="M1047 940q169 0 267.5 -107t98.5 -274q0 -267 -141.5 -424.5t-376.5 -157.5q-59 0 -135 13l49 291h22q91 0 143 59t52 149q0 62 -35.5 92.5t-97.5 30.5q-94 0 -172 -37l-70 -575h-370l137 1124h-324l41 330h1018l-41 -330h-324l-32 -266q132 82 291 82z" />
    <glyph glyph-name="uni0403" unicode="&#x403;" horiz-adv-x="1040" 
d="M453 1544l235 291l338 2l-268 -293h-305zM53 0l178 1454h891l-41 -330h-516l-139 -1124h-373z" />
    <glyph glyph-name="uni0404" unicode="&#x404;" horiz-adv-x="1331" 
d="M725 319q159 0 283 121l256 -247q-210 -213 -557 -213q-138 0 -251 39.5t-196 115.5t-128.5 194t-45.5 269q0 188 52.5 349t148.5 278t239.5 183.5t317.5 66.5q65 0 129.5 -11.5t134.5 -37t134.5 -76.5t111.5 -121l-279 -236q-39 66 -109.5 100.5t-144.5 34.5
q-109 0 -196.5 -67.5t-128.5 -183.5h503l-36 -297h-500q1 -129 70.5 -195t191.5 -66z" />
    <glyph glyph-name="uni0405" unicode="&#x405;" horiz-adv-x="1097" 
d="M504 -20q-148 0 -286 64t-228 204l262 225q52 -81 122.5 -123.5t137.5 -42.5q70 0 107.5 30.5t37.5 74.5q0 36 -33 63.5t-139 89.5q-139 82 -187 119q-143 111 -165 261q-4 30 -4 63q0 140 68 247.5t183 163.5t257 56q137 0 261 -58.5t196 -171.5l-260 -217
q-55 70 -104.5 95.5t-102.5 25.5q-50 0 -81 -27.5t-30 -70.5q0 -37 26.5 -71.5t102.5 -78.5q28 -17 79 -46.5t76.5 -44.5t66 -42t61 -46t47 -49t39 -58t21.5 -66t9 -80q0 -228 -147.5 -358.5t-392.5 -130.5z" />
    <glyph glyph-name="uni0406" unicode="&#x406;" horiz-adv-x="626" 
d="M63 0l179 1454h376l-178 -1454h-377z" />
    <glyph glyph-name="uni0407" unicode="&#x407;" horiz-adv-x="626" 
d="M223 1567q-91 0 -147 54t-56 138t58 139.5t151 55.5q91 0 147 -53t56 -136q0 -87 -58 -142.5t-151 -55.5zM694 1567q-90 0 -146 54t-56 138t58 139.5t152 55.5q90 0 146.5 -53.5t56.5 -135.5q0 -87 -58.5 -142.5t-152.5 -55.5zM63 0l179 1454h376l-178 -1454h-377z" />
    <glyph glyph-name="uni0408" unicode="&#x408;" horiz-adv-x="929" 
d="M338 -20q-115 0 -215 52.5t-154 151.5l240 248q16 -41 48.5 -68.5t72.5 -27.5q31 0 53 14t42.5 63.5t31.5 137.5l112 903h371l-113 -919q-36 -292 -149.5 -423.5t-339.5 -131.5z" />
    <glyph glyph-name="uni0409" unicode="&#x409;" horiz-adv-x="1974" 
d="M1526 950q92 0 165 -23t120 -61.5t78 -92t44 -111.5t13 -123q0 -282 -148.5 -410.5t-460.5 -128.5h-495l137 1124h-217q-33 -191 -49.5 -282.5t-46 -222t-60.5 -222.5q-35 -104 -73.5 -176t-93.5 -127t-129.5 -81.5t-172.5 -26.5q-108 0 -186 28l55 303q40 -12 70 -12
q137 0 229 326q60 213 160 823h919l-61 -504h203zM1362 326q199 0 199 184q0 48 -32 84.5t-91 36.5h-154l-39 -305h117z" />
    <glyph glyph-name="uni040A" unicode="&#x40a;" horiz-adv-x="1925" 
d="M1475 926q92 0 165 -23t120 -61.5t77.5 -92.5t43.5 -112t13 -123q0 -264 -149 -389t-459 -125h-508l70 561h-350l-70 -561h-375l178 1454h375l-69 -563h350l69 563h365l-66 -528h220zM1311 326q57 0 98.5 16t62 42t29 52.5t8.5 55.5q0 48 -31.5 81t-95.5 33h-165
l-35 -280h129z" />
    <glyph glyph-name="uni040B" unicode="&#x40b;" horiz-adv-x="1466" 
d="M1128 944q166 0 237 -113t42 -331l-68 -500h-368l59 446q13 104 -7 141.5t-83 37.5q-107 0 -197 -50l-71 -575h-371l137 1124h-323l41 330h1018l-41 -330h-324l-33 -272q76 39 173.5 65.5t178.5 26.5z" />
    <glyph glyph-name="uni040C" unicode="&#x40c;" horiz-adv-x="1259" 
d="M1104 1837l-268 -293h-306l236 291zM1368 1454l-510 -655l348 -799h-422l-213 535l-100 -121l-51 -414h-367l178 1454h369l-65 -543l6 -2l389 545h438z" />
    <glyph glyph-name="uni040D" unicode="&#x40d;" horiz-adv-x="1361" 
d="M731 1544l-190 293l336 -2l163 -291h-309zM53 0l178 1454h369l-108 -846l6 -2l501 848h365l-180 -1454h-369l98 799l-6 4l-493 -803h-361z" />
    <glyph glyph-name="uni040E" unicode="&#x40e;" horiz-adv-x="1249" 
d="M754 1534q-168 0 -242.5 68.5t-93.5 232.5l266 23q7 -61 36.5 -95t67.5 -34q81 0 152 139l244 -84q-153 -250 -430 -250zM952 1454h418l-555 -1081q-40 -78 -70.5 -130t-72 -106t-83.5 -85.5t-97 -51.5t-119 -20q-179 0 -287 67l121 313q62 -49 133 -49q95 0 170 129
l-393 1014h407l168 -592h10z" />
    <glyph glyph-name="uni040F" unicode="&#x40f;" horiz-adv-x="1277" 
d="M1280 1454l-178 -1454h-365l-45 -281h-297l23 281h-365l178 1454h373l-139 -1124h303l139 1124h373z" />
    <glyph glyph-name="uni0410" unicode="&#x410;" horiz-adv-x="1288" 
d="M-68 0l652 1454h348l295 -1454h-385l-37 246h-393l-88 -246h-392zM524 553h236l-68 455h-4z" />
    <glyph glyph-name="uni0411" unicode="&#x411;" horiz-adv-x="1173" 
d="M53 0l178 1454h889l-41 -330h-530l-25 -206h193q118 0 201.5 -27t130.5 -78t67.5 -116t20.5 -150q0 -289 -150.5 -418t-474.5 -129h-459zM449 319h120q103 0 142 50t39 137q0 104 -121 104h-144z" />
    <glyph glyph-name="uni0412" unicode="&#x412;" horiz-adv-x="1183" 
d="M53 0l178 1454h533q196 0 289.5 -75t93.5 -222q0 -109 -57.5 -213.5t-159.5 -157.5v-6q94 -39 146 -117.5t52 -191.5q0 -110 -30.5 -194.5t-96 -147.5t-177 -96t-265.5 -33h-506zM520 877h88q73 0 118.5 48t45.5 117q0 88 -102 88h-117zM453 319h131q91 0 131.5 50.5
t40.5 130.5q0 47 -31 73.5t-92 26.5h-146z" />
    <glyph glyph-name="uni0413" unicode="&#x413;" horiz-adv-x="1040" 
d="M53 0l178 1454h891l-41 -330h-516l-139 -1124h-373z" />
    <glyph glyph-name="uni0414" unicode="&#x414;" horiz-adv-x="1542" 
d="M1503 332l-98 -613h-297l22 281h-839l-53 -281h-299l67 613h164q143 249 217 514q62 218 117 608h923l-139 -1122h215zM813 1120q-42 -252 -102 -440q-60 -190 -140 -348h353l96 788h-207z" />
    <glyph glyph-name="uni0415" unicode="&#x415;" horiz-adv-x="1091" 
d="M51 0l178 1454h877l-41 -330h-516l-31 -241h402l-37 -318h-402l-30 -235h555l-41 -330h-914z" />
    <glyph glyph-name="uni0416" unicode="&#x416;" horiz-adv-x="1861" 
d="M1958 1454l-473 -684l323 -770h-424l-208 561l-82 -96l-58 -465h-358l55 451l-67 114l-322 -565h-416l480 776l-299 678h438l227 -623l6 3l74 620h363l-76 -608l6 -2l373 610h438z" />
    <glyph glyph-name="uni0417" unicode="&#x417;" horiz-adv-x="1122" 
d="M512 -20q-370 0 -526 245l250 244q51 -77 124.5 -113.5t153.5 -36.5q89 0 131.5 49t42.5 111q0 52 -40 81.5t-113 29.5h-203l37 295h166q91 0 144.5 37.5t53.5 105.5q0 105 -145 105q-135 0 -246 -82l-197 254q196 165 496 165q216 0 341.5 -88t125.5 -247
q0 -108 -61 -202.5t-175 -146.5v-6q84 -45 141.5 -131.5t57.5 -204.5q0 -99 -33.5 -182t-100 -146.5t-175.5 -99.5t-250 -36z" />
    <glyph glyph-name="uni0418" unicode="&#x418;" horiz-adv-x="1361" 
d="M53 0l178 1454h369l-108 -846l6 -2l501 848h365l-180 -1454h-369l98 799l-6 4l-493 -803h-361z" />
    <glyph glyph-name="uni0419" unicode="&#x419;" horiz-adv-x="1361" 
d="M829 1534q-168 0 -242 68.5t-93 232.5l266 23q7 -61 36.5 -95t67.5 -34q81 0 152 139l244 -84q-153 -250 -431 -250zM53 0l178 1454h369l-108 -846l6 -2l501 848h365l-180 -1454h-369l98 799l-6 4l-493 -803h-361z" />
    <glyph glyph-name="uni041A" unicode="&#x41a;" horiz-adv-x="1259" 
d="M1368 1454l-510 -655l348 -799h-422l-213 535l-100 -121l-51 -414h-367l178 1454h369l-65 -543l6 -2l389 545h438z" />
    <glyph glyph-name="uni041B" unicode="&#x41b;" horiz-adv-x="1396" 
d="M465 1454h934l-178 -1454h-373l139 1124h-219q-33 -191 -49.5 -282.5t-46 -222t-60.5 -222.5q-35 -103 -74.5 -175.5t-95.5 -127.5t-131.5 -81.5t-173.5 -26.5q-108 0 -186 28l55 303q40 -12 70 -12q137 0 229 326q60 213 160 823z" />
    <glyph glyph-name="uni041C" unicode="&#x41c;" horiz-adv-x="1599" 
d="M53 0l178 1454h359l248 -749h6l395 749h363l-179 -1454h-362l88 715l-4 2l-256 -453h-215l-164 465l-6 -2l-88 -727h-363z" />
    <glyph glyph-name="uni041D" unicode="&#x41d;" horiz-adv-x="1341" 
d="M53 0l178 1454h375l-71 -588h360l72 588h376l-180 -1454h-375l66 537h-360l-66 -537h-375z" />
    <glyph glyph-name="uni041E" unicode="&#x41e;" horiz-adv-x="1486" 
d="M680 -20q-272 0 -433 164t-161 456q0 174 55 332.5t153 279t245.5 192t320.5 71.5q271 0 433.5 -163.5t162.5 -451.5q0 -183 -52.5 -342.5t-149 -279.5t-245 -189t-329.5 -69zM709 328q105 0 187.5 66t127.5 182t45 260q0 146 -67 219t-175 73q-99 0 -181.5 -70.5
t-128.5 -185.5t-46 -245q0 -148 66.5 -223.5t171.5 -75.5z" />
    <glyph glyph-name="uni041F" unicode="&#x41f;" horiz-adv-x="1280" 
d="M53 0l178 1454h1051l-178 -1454h-373l139 1124h-305l-139 -1124h-373z" />
    <glyph glyph-name="uni0420" unicode="&#x420;" horiz-adv-x="1140" 
d="M53 0l178 1454h517q210 0 313.5 -112.5t103.5 -294.5q0 -175 -67 -308.5t-199.5 -209.5t-314.5 -76h-115l-53 -453h-363zM510 776h80q85 0 137.5 63.5t52.5 151.5q0 72 -37.5 104.5t-91.5 32.5h-98z" />
    <glyph glyph-name="uni0421" unicode="&#x421;" horiz-adv-x="1318" 
d="M684 -20q-129 0 -237.5 39.5t-189.5 115t-126 193.5t-45 268q0 144 35 276.5t103 241.5t161.5 190t216.5 126t262 45q66 0 131.5 -16t133 -50.5t130 -95.5t111.5 -144l-289 -223q-44 78 -105.5 125t-133.5 47q-82 0 -152.5 -44.5t-116 -117t-71 -161.5t-25.5 -181
q0 -134 63 -205t171 -71q76 0 149.5 35t126.5 100l256 -242q-102 -122 -246.5 -186.5t-312.5 -64.5z" />
    <glyph glyph-name="uni0422" unicode="&#x422;" horiz-adv-x="1095" 
d="M301 0l137 1124h-323l41 330h1018l-41 -330h-324l-137 -1124h-371z" />
    <glyph glyph-name="uni0423" unicode="&#x423;" horiz-adv-x="1249" 
d="M952 1454h418l-555 -1081q-40 -78 -70.5 -130t-72 -106t-83.5 -85.5t-97 -51.5t-119 -20q-179 0 -287 67l121 313q62 -49 133 -49q95 0 170 129l-393 1014h407l168 -592h10z" />
    <glyph glyph-name="uni0424" unicode="&#x424;" horiz-adv-x="1656" 
d="M1634 825q0 -109 -24.5 -207t-77 -184t-129.5 -149t-187.5 -102t-244.5 -44l-17 -139h-366l16 137q-233 6 -378.5 147t-145.5 367q0 134 44 259t126.5 225.5t213.5 162t292 62.5l14 119h367l-15 -121q230 -12 371 -157.5t141 -375.5zM451 698q0 -238 206 -262l78 627
q-130 -10 -207 -116t-77 -249zM993 440q130 22 200.5 113.5t70.5 234.5q0 112 -52 184t-143 87z" />
    <glyph glyph-name="uni0425" unicode="&#x425;" horiz-adv-x="1296" 
d="M-68 0l502 739l-301 715h391l174 -440h11l264 440h424l-488 -723l324 -731h-402l-186 451h-8l-295 -451h-410z" />
    <glyph glyph-name="uni0426" unicode="&#x426;" horiz-adv-x="1392" 
d="M1354 330l-99 -611h-297l23 281h-928l178 1454h373l-139 -1124h301l139 1124h373l-137 -1124h213z" />
    <glyph glyph-name="uni0427" unicode="&#x427;" horiz-adv-x="1224" 
d="M850 1454h377l-180 -1454h-375l63 522q-66 -40 -158.5 -62t-170.5 -22q-360 0 -300 445l78 571h369l-70 -518q-13 -106 9.5 -142t97.5 -36q102 0 180 53z" />
    <glyph glyph-name="uni0428" unicode="&#x428;" horiz-adv-x="1882" 
d="M1511 1454h373l-178 -1454h-1653l178 1454h373l-139 -1124h270l139 1124h365l-137 -1124h270z" />
    <glyph glyph-name="uni0429" unicode="&#x429;" horiz-adv-x="1998" 
d="M1960 330l-98 -611h-297l22 281h-1534l178 1454h373l-139 -1124h270l139 1124h365l-137 -1124h270l139 1124h373l-137 -1124h213z" />
    <glyph glyph-name="uni042A" unicode="&#x42a;" horiz-adv-x="1404" 
d="M956 950q92 0 165 -23t120 -61.5t78 -92t44 -111.5t13 -123q0 -282 -148 -410.5t-460 -128.5h-496l138 1124h-328l41 330h692l-61 -504h202zM793 326q198 0 198 184q0 48 -32 84.5t-91 36.5h-153l-39 -305h117z" />
    <glyph glyph-name="uni042B" unicode="&#x42b;" horiz-adv-x="1781" 
d="M53 0l178 1454h365l-61 -504h196q92 0 165 -23t120 -61.5t78 -92t44 -111.5t13 -123q0 -282 -148 -410.5t-460 -128.5h-490zM1229 0l178 1454h377l-178 -1454h-377zM457 326h110q199 0 199 184q0 48 -32 84.5t-91 36.5h-147z" />
    <glyph glyph-name="uni042C" unicode="&#x42c;" horiz-adv-x="1185" 
d="M53 0l178 1454h365l-61 -504h202q92 0 165 -23t120 -61.5t78 -92t44 -111.5t13 -123q0 -282 -148 -410.5t-460 -128.5h-496zM457 326h116q199 0 199 184q0 48 -32 84.5t-91 36.5h-153z" />
    <glyph glyph-name="uni042D" unicode="&#x42d;" horiz-adv-x="1310" 
d="M672 1477q290 0 448 -171t158 -456q0 -189 -49 -347.5t-142 -275t-236 -182t-323 -65.5q-106 0 -200.5 20.5t-189 77.5t-152.5 147l256 234q89 -140 280 -140q278 0 355 261h-502l37 297h501q-11 126 -85.5 193t-206.5 67q-140 0 -275 -101l-201 267q108 81 245.5 127.5
t281.5 46.5z" />
    <glyph glyph-name="uni042E" unicode="&#x42e;" horiz-adv-x="2035" 
d="M1413 1473q275 0 439.5 -163t164.5 -450q0 -180 -52.5 -339t-148.5 -279.5t-243 -190t-326 -69.5q-166 0 -293.5 74.5t-197 201t-76.5 285.5h-193l-65 -543h-375l178 1454h375l-72 -582h191q34 129 97 238t150.5 190.5t202 127t244.5 45.5zM1284 330q94 0 173 67
t125 185.5t46 263.5q0 140 -66 210t-171 70q-91 0 -170.5 -66t-126.5 -178.5t-47 -242.5q0 -156 66 -232.5t171 -76.5z" />
    <glyph glyph-name="uni042F" unicode="&#x42f;" horiz-adv-x="1224" 
d="M676 1454h551l-178 -1454h-363l55 453h-125l-270 -453h-401l350 557q-74 57 -119 143t-45 197q0 256 143.5 406.5t401.5 150.5zM778 770l45 358h-135q-80 0 -125 -58t-45 -138q0 -68 38.5 -115t107.5 -47h114z" />
    <glyph glyph-name="uni0430" unicode="&#x430;" horiz-adv-x="1122" 
d="M360 -20q-149 0 -233 115t-84 296q0 138 38 258t102 201.5t148 127.5t175 46q144 0 223 -86h6l8 66h351l-123 -1004h-350l16 129l-6 2q-108 -151 -271 -151zM485 289q72 0 136.5 89.5t89.5 250.5l4 22q-58 64 -137 64q-54 0 -98 -46.5t-65.5 -111.5t-21.5 -129
q0 -62 26 -100.5t66 -38.5z" />
    <glyph glyph-name="uni0431" unicode="&#x431;" horiz-adv-x="1095" 
d="M489 -20q-110 0 -193.5 42t-134 117t-75.5 170t-25 209q0 247 61 439t195 323t332 168q9 2 79.5 14t105 19t91 23.5t95.5 35.5l57 -293q-39 -22 -76 -38t-79.5 -27t-69.5 -16.5t-80.5 -14t-77.5 -12.5q-126 -24 -195.5 -96.5t-101.5 -221.5l2 -2q50 69 125.5 116.5
t169.5 47.5q158 0 258.5 -109.5t100.5 -285.5q0 -123 -33 -229.5t-98.5 -192.5t-177 -136t-255.5 -50zM522 289q74 0 126 69.5t52 165.5q0 46 -12 78t-32 46t-37 19t-35 5q-77 0 -124.5 -64.5t-47.5 -156.5q0 -88 33.5 -125t76.5 -37z" />
    <glyph glyph-name="uni0432" unicode="&#x432;" horiz-adv-x="1044" 
d="M819 528q79 -29 122.5 -88t43.5 -133q0 -103 -65 -178.5t-172 -112t-240 -36.5q-243 0 -354 107t-111 308q0 132 37.5 245.5t109 199.5t183 135t250.5 49q74 0 142 -16.5t123.5 -48.5t88.5 -85t33 -120q0 -81 -52 -137.5t-139 -84.5v-4zM567 756q-61 0 -113 -53.5
t-75 -141.5l115 25q147 31 147 102q0 29 -20 48.5t-54 19.5zM524 250q27 0 51 5.5t46 27t22 57.5q0 49 -46 65t-124 3l-102 -17q21 -141 153 -141z" />
    <glyph glyph-name="uni0433" unicode="&#x433;" horiz-adv-x="839" 
d="M352 -20q-170 0 -264.5 62.5t-95.5 184.5q-1 77 32.5 140t93 111t152.5 95l125 64q45 23 61.5 38.5t16.5 37.5q0 32 -49 32q-70 0 -154 -81l-182 237q62 49 172 86t205 37q160 0 257 -67.5t97 -188.5q0 -111 -60 -186t-171 -133l-162 -87q-63 -34 -73 -45
q-11 -12 -11 -28q0 -35 47 -35q42 0 88 29t76 73l254 -190q-157 -186 -455 -186z" />
    <glyph glyph-name="uni0434" unicode="&#x434;" horiz-adv-x="1067" 
d="M479 -20q-208 0 -322 122.5t-114 327.5q0 154 65.5 282.5t172 199.5t227.5 71q114 0 192 -63l5 4q-10 145 -61.5 209t-166.5 88q-78 16 -162 16l62 293q117 -1 214 -24.5t167 -62.5t123.5 -95t86.5 -118t54 -136.5t28.5 -145.5t6.5 -149q-2 -144 -25.5 -268.5t-71 -226
t-115 -173.5t-161 -111.5t-205.5 -39.5zM498 287q68 0 123.5 92t74.5 266q-53 47 -118 47q-80 0 -132.5 -83.5t-52.5 -172.5q0 -80 32.5 -114.5t72.5 -34.5z" />
    <glyph glyph-name="uni0435" unicode="&#x435;" horiz-adv-x="972" 
d="M956 743q-2 -74 -35 -134t-86.5 -100.5t-129.5 -70.5t-155 -47t-171 -26q12 -54 47.5 -80.5t75.5 -26.5q95 0 160 96l253 -137q-148 -237 -446 -237q-193 0 -310 114t-116 307q0 173 69 314.5t198 225t294 83.5q63 0 123.5 -17t113.5 -50t84.5 -88.5t30.5 -125.5z
M629 684q1 27 -14.5 42t-43.5 15q-60 0 -109.5 -52t-72.5 -138q235 26 240 133z" />
    <glyph glyph-name="uni0436" unicode="&#x436;" horiz-adv-x="1486" 
d="M1251 438q13 -52 32 -85.5t45.5 -50.5t53 -23t64.5 -7l-72 -288q-50 -4 -112 -4q-109 0 -182 76.5t-99 201.5l-18 84q-68 -25 -82 -29l-37 -313h-330l47 379l-2 2q-163 -120 -219 -381h-363q55 297 279 496l-18 69q-13 52 -32 85.5t-45.5 50.5t-53 23t-64.5 7l72 289
q50 4 112 4q109 0 182 -77t99 -202l18 -83l72 24l39 318h328l-47 -386l2 -2q172 119 229 388h362q-55 -298 -278 -496z" />
    <glyph glyph-name="uni0437" unicode="&#x437;" horiz-adv-x="897" 
d="M379 -20q-137 0 -231 22t-183 74l117 272q63 -44 134.5 -66t129.5 -22q156 0 156 80q0 61 -103 61l-159 -2l24 209l129 2q135 3 135 72q0 55 -104 55q-105 0 -221 -51l-129 246q65 35 174 63.5t198 28.5q118 0 211 -28t152 -90.5t59 -151.5q0 -81 -51.5 -137.5
t-136.5 -84.5v-4q77 -29 120.5 -88t43.5 -133q0 -156 -127.5 -241.5t-337.5 -85.5z" />
    <glyph glyph-name="uni0438" unicode="&#x438;" horiz-adv-x="1097" 
d="M324 -20q-70 0 -121 19.5t-89 65t-47.5 121.5t3.5 189l88 629h346l-74 -500q-19 -122 -9.5 -168.5t54.5 -46.5q56 0 113.5 77t66.5 160l60 478h348l-123 -1004h-340l8 131h-6q-118 -151 -278 -151z" />
    <glyph glyph-name="uni0439" unicode="&#x439;" horiz-adv-x="1097" 
d="M643 1122q-168 0 -242.5 68.5t-93.5 232.5l266 33q7 -68 34 -103.5t65 -35.5q40 0 82 39t75 110l244 -94q-153 -250 -430 -250zM324 -20q-70 0 -121 19.5t-89 65t-47.5 121.5t3.5 189l88 629h346l-74 -500q-19 -122 -9.5 -168.5t54.5 -46.5q56 0 113.5 77t66.5 160
l60 478h348l-123 -1004h-340l8 131h-6q-118 -151 -278 -151z" />
    <glyph glyph-name="uni043A" unicode="&#x43a;" horiz-adv-x="1040" 
d="M35 0l123 1004h348l-47 -377l4 -2q92 74 143 166.5t76 212.5h362q-54 -297 -274 -500l18 -66q14 -52 32.5 -85.5t44 -50.5t51 -23t63.5 -7l-72 -288q-50 -4 -112 -4q-212 0 -287 278l-19 68q-12 -5 -38.5 -18.5t-42.5 -20.5l-33 -287h-340z" />
    <glyph glyph-name="uni043B" unicode="&#x43b;" horiz-adv-x="1105" 
d="M600 1004h471l-123 -1004h-346l86 721h-12q-49 0 -72 -21.5t-33 -64.5q-56 -243 -79 -322q-88 -327 -400 -327q-85 0 -135 20l45 283q27 -8 53 -8q94 0 146 227q38 167 45 203q30 146 116 219.5t238 73.5z" />
    <glyph glyph-name="uni043C" unicode="&#x43c;" horiz-adv-x="1318" 
d="M35 0l125 1004h360l148 -523h4l250 523h362l-125 -1004h-336l64 477h-4l-148 -301h-225l-78 303h-4l-59 -479h-334z" />
    <glyph glyph-name="uni043D" unicode="&#x43d;" horiz-adv-x="1107" 
d="M725 1004h348l-123 -1004h-348l43 350l-219 -2l-43 -348h-348l123 1004h348l-47 -377l221 2z" />
    <glyph glyph-name="uni043E" unicode="&#x43e;" horiz-adv-x="1083" 
d="M469 -20q-193 0 -308.5 115t-115.5 321q0 121 37.5 230t106.5 193.5t177.5 134.5t241.5 50q197 0 313.5 -115.5t116.5 -320.5q0 -123 -33 -229.5t-99.5 -192.5t-178.5 -136t-258 -50zM502 289q81 0 132.5 84t51.5 194q0 81 -33.5 113.5t-74.5 32.5q-55 0 -97.5 -43.5
t-63 -108t-20.5 -135.5q0 -73 34 -105t71 -32z" />
    <glyph glyph-name="uni043F" unicode="&#x43f;" horiz-adv-x="1110" 
d="M35 0l123 1004h348l-17 -125l7 -2q128 147 317 147q137 0 193.5 -98.5t29.5 -307.5l-80 -618h-346l70 522q13 101 4 146t-45 45q-66 0 -128 -86t-83 -258l-45 -369h-348z" />
    <glyph glyph-name="uni0440" unicode="&#x440;" horiz-adv-x="1128" 
d="M-16 -406l174 1410h350l-16 -134l2 -2q112 156 274 156q150 0 233.5 -115.5t83.5 -298.5q0 -138 -38.5 -257t-103.5 -200t-151 -127t-180 -46q-131 0 -217 59l-8 -4l-53 -441h-350zM520 289q102 0 158.5 83t56.5 201q0 63 -27 102.5t-67 39.5q-74 0 -139 -95.5
t-90 -273.5l-2 -14q43 -43 110 -43z" />
    <glyph glyph-name="uni0441" unicode="&#x441;" horiz-adv-x="970" 
d="M473 -20q-201 0 -314.5 115t-113.5 327q0 91 21.5 177.5t65.5 163.5t106.5 135t150.5 92t191 34q259 0 393 -195l-264 -198q-40 86 -115 86q-85 0 -142 -86.5t-57 -200.5q0 -62 26.5 -101.5t80.5 -39.5q41 0 75.5 20.5t71.5 71.5l271 -164q-153 -237 -447 -237z" />
    <glyph glyph-name="uni0442" unicode="&#x442;" horiz-adv-x="1646" 
d="M35 0l123 1004h348l-12 -107l8 -2q120 129 293 129q165 0 209 -137h10q125 137 327 137q148 0 203.5 -101.5t26.5 -322.5l-78 -600h-346l70 522q9 67 8 109.5t-14 62t-40 19.5q-50 0 -108 -91t-80 -262l-47 -360h-346l67 522q8 57 10 88t-1.5 57t-16 36t-35.5 10
q-20 0 -45.5 -18t-53 -53.5t-50.5 -98.5t-33 -142l-49 -401h-348z" />
    <glyph glyph-name="uni0443" unicode="&#x443;" horiz-adv-x="1081" 
d="M705 1004h348l-107 -863q-68 -567 -577 -567q-206 0 -369 98l106 250q107 -72 238 -72q40 0 70 6t60.5 23.5t52 47.5t40 81t29.5 121h-6q-114 -149 -279 -149q-55 0 -98.5 12t-79.5 40t-55 74t-26.5 112.5t7.5 156.5l88 629h347l-72 -500q-19 -122 -11 -168.5t56 -46.5
q54 0 111.5 77.5t66.5 153.5z" />
    <glyph glyph-name="uni0444" unicode="&#x444;" horiz-adv-x="1476" 
d="M453 -406l63 515l-4 2q-37 -66 -91 -100t-106 -34q-133 0 -208.5 117t-75.5 303q0 141 33 261t88 198.5t125.5 122t146.5 43.5q114 0 188 -59l9 4l67 540h350l-77 -614l4 -2q37 66 90.5 99.5t105.5 33.5q133 0 209 -117t76 -303q0 -141 -33 -260.5t-88 -198t-125.5 -122
t-146.5 -43.5q-115 0 -189 59l-8 -4l-53 -441h-350zM958 289q49 0 83 49t47.5 111.5t13.5 128.5q0 67 -21 115t-59 48q-41 0 -86.5 -107.5t-56.5 -273.5l-2 -28q34 -43 81 -43zM455 260q41 0 86.5 107.5t56.5 273.5l2 29q-34 43 -82 43q-49 0 -83 -49t-47 -111.5t-13 -128.5
q0 -68 21 -116t59 -48z" />
    <glyph glyph-name="uni0445" unicode="&#x445;" horiz-adv-x="974" 
d="M-57 0l360 524l-227 480h379l69 -203h2l115 203h387l-354 -498l235 -506h-364l-86 213h-4l-142 -213h-370z" />
    <glyph glyph-name="uni0446" unicode="&#x446;" horiz-adv-x="1236" 
d="M1057 272h151l-110 -528h-262l28 236q-88 6 -140 47t-77 120l-6 29h-6q-54 -92 -137 -144t-174 -52q-70 0 -121 19.5t-89 65t-47.5 121.5t3.5 189l88 629h346l-74 -500q-19 -122 -9.5 -168.5t54.5 -46.5q55 0 113 78t67 155l60 482h348l-80 -646q-12 -86 74 -86z" />
    <glyph glyph-name="uni0447" unicode="&#x447;" horiz-adv-x="1060" 
d="M557 0l47 373h-6q-49 -52 -137 -87.5t-158 -35.5q-81 0 -133 28t-75 78t-28 119t9 152l53 377h346l-53 -338q-10 -62 3.5 -91.5t61.5 -29.5q55 0 100.5 34.5t49.5 63.5l45 361h344l-123 -1004h-346z" />
    <glyph glyph-name="uni0448" unicode="&#x448;" horiz-adv-x="1570" 
d="M307 -20q-70 0 -121 19.5t-89 65t-47.5 121.5t3.5 189l88 629h346l-73 -500q-19 -122 -9.5 -168.5t54.5 -46.5q48 0 97.5 73.5t59.5 161.5l60 480h330l-62 -500q-11 -86 -11 -129t12.5 -64.5t43.5 -21.5q43 0 95 77.5t63 176.5l57 461h348l-122 -1004h-345l13 133h-6
q-111 -153 -258 -153q-73 0 -127 45.5t-80 132.5h-6q-57 -85 -141.5 -131.5t-172.5 -46.5z" />
    <glyph glyph-name="uni0449" unicode="&#x449;" horiz-adv-x="1710" 
d="M1546 272h152l-111 -528h-262l29 236q-177 9 -217 167l-7 29h-6q-53 -91 -132.5 -143.5t-157.5 -52.5q-83 0 -131.5 44t-75.5 134h-6q-57 -85 -141.5 -131.5t-172.5 -46.5q-70 0 -121 19.5t-89 65t-47.5 121.5t3.5 189l88 629h346l-73 -500q-19 -122 -9.5 -168.5
t54.5 -46.5q48 0 97.5 73.5t59.5 161.5l60 480h330l-62 -500q-11 -86 -11 -129t12.5 -64.5t43.5 -21.5q43 0 94 77t64 177l57 461h348l-79 -646q-12 -86 73 -86z" />
    <glyph glyph-name="uni044A" unicode="&#x44a;" horiz-adv-x="1085" 
d="M774 821q124 0 206.5 -96.5t78.5 -247.5q-6 -237 -145.5 -368.5t-372.5 -131.5q-243 0 -338 115t-58 365l39 264h-151l35 283h503l-49 -314l4 -2q37 59 104.5 96t143.5 37zM563 260q61 0 103.5 54t42.5 124q0 54 -30 77.5t-63 23.5q-56 0 -98 -43.5t-49 -110.5
q-6 -56 16.5 -90.5t77.5 -34.5z" />
    <glyph glyph-name="uni044B" unicode="&#x44b;" horiz-adv-x="1507" 
d="M453 -23q-243 0 -338 115t-58 365l80 547h346l-49 -314l4 -2q44 66 109.5 99.5t138.5 33.5q124 0 206.5 -96.5t78.5 -247.5q-7 -237 -146 -368.5t-372 -131.5zM1001 0l125 1004h347l-123 -1004h-349zM475 260q61 0 103.5 54t42.5 124q0 54 -30 77.5t-63 23.5
q-56 0 -98 -43.5t-49 -110.5q-6 -56 16.5 -90.5t77.5 -34.5z" />
    <glyph glyph-name="uni044C" unicode="&#x44c;" horiz-adv-x="997" 
d="M453 -23q-243 0 -338 115t-58 365l80 547h346l-49 -314l4 -2q37 59 104.5 96t143.5 37q124 0 206.5 -96.5t78.5 -247.5q-6 -237 -145.5 -368.5t-372.5 -131.5zM475 260q61 0 103.5 54t42.5 124q0 54 -30 77.5t-63 23.5q-56 0 -98 -43.5t-49 -110.5q-6 -56 16.5 -90.5
t77.5 -34.5z" />
    <glyph glyph-name="uni044D" unicode="&#x44d;" horiz-adv-x="952" 
d="M479 1024q201 0 316.5 -116t111.5 -328q-3 -132 -40.5 -241.5t-107.5 -189.5t-177.5 -124.5t-243.5 -44.5q-255 0 -379 141l209 213q57 -70 170 -70q80 0 136 37t81 107l-338 -5l25 203l329 4q-8 138 -141 138q-81 0 -170 -80l-178 215q67 60 172.5 100.5t224.5 40.5z
" />
    <glyph glyph-name="uni044E" unicode="&#x44e;" horiz-adv-x="1529" 
d="M1067 1024q193 0 307.5 -115.5t114.5 -320.5q0 -123 -32.5 -229.5t-98 -192.5t-175.5 -136t-253 -50q-174 0 -282.5 98.5t-125.5 279.5l-104 -2l-43 -356h-348l123 1004h348l-47 -386l96 3q52 180 186 291.5t334 111.5zM950 289q81 0 133 84t52 194q0 81 -34 113.5
t-75 32.5q-81 0 -130.5 -88t-49.5 -199q0 -73 33.5 -105t70.5 -32z" />
    <glyph glyph-name="uni044F" unicode="&#x44f;" horiz-adv-x="1038" 
d="M549 1001l455 3l-123 -1004h-342l36 313h-55h-16l-29 -57q-69 -142 -142 -209t-190 -67q-60 0 -129 6l2 286q59 2 95 28t86 108q-55 40 -84 102.5t-29 124.5q0 182 125.5 273t339.5 93zM541 520h61l25 207h-62q-61 0 -100 -26.5t-39 -82.5q0 -98 115 -98z" />
    <glyph glyph-name="uni0450" unicode="&#x450;" horiz-adv-x="972" 
d="M793 1143h-310l-188 311l336 -2zM956 743q-2 -74 -35 -134t-86.5 -100.5t-129.5 -70.5t-155 -47t-171 -26q12 -54 47.5 -80.5t75.5 -26.5q95 0 160 96l253 -137q-148 -237 -446 -237q-193 0 -310 114t-116 307q0 173 69 314.5t198 225t294 83.5q63 0 123.5 -17t113.5 -50
t84.5 -88.5t30.5 -125.5zM629 684q1 27 -14.5 42t-43.5 15q-60 0 -109.5 -52t-72.5 -138q235 26 240 133z" />
    <glyph glyph-name="uni0451" unicode="&#x451;" horiz-adv-x="972" 
d="M385 1118q-91 0 -147 54.5t-56 138.5t58 139t151 55q91 0 147 -52.5t56 -135.5q0 -87 -58 -143t-151 -56zM864 1505q90 0 146.5 -53t56.5 -135q0 -87 -58.5 -143t-152.5 -56q-90 0 -146.5 54.5t-56.5 138.5t58.5 139t152.5 55zM604 1024q63 0 123.5 -17t113.5 -50
t84.5 -88.5t30.5 -125.5q-2 -74 -35 -134t-86.5 -100.5t-129.5 -70.5t-155 -47t-171 -26q12 -54 47.5 -80.5t75.5 -26.5q95 0 160 96l253 -137q-148 -237 -446 -237q-193 0 -310 114t-116 307q0 173 69 314.5t198 225t294 83.5zM629 684q1 27 -14.5 42t-43.5 15
q-60 0 -109.5 -52t-72.5 -138q235 26 240 133z" />
    <glyph glyph-name="uni0452" unicode="&#x452;" horiz-adv-x="1062" 
d="M772 936q75 0 129.5 -27t85 -73t45 -110.5t13 -136.5t-16.5 -155q-104 -582 -541 -872l-200 186q162 135 260.5 328.5t128.5 394.5q24 154 -55 154q-69 0 -129 -89t-80 -266l-31 -270h-346l131 1063h-94l28 237h97l24 207h338l-27 -207h326l-29 -237h-325l-35 -270l6 -5
q57 70 135 109t162 39z" />
    <glyph glyph-name="uni0453" unicode="&#x453;" horiz-adv-x="839" 
d="M305 1143l238 309l344 2l-266 -311h-316zM352 -20q-170 0 -264.5 62.5t-95.5 184.5q-1 77 32.5 140t93 111t152.5 95l125 64q45 23 61.5 38.5t16.5 37.5q0 32 -49 32q-70 0 -154 -81l-182 237q62 49 172 86t205 37q160 0 257 -67.5t97 -188.5q0 -111 -60 -186t-171 -133
l-162 -87q-63 -34 -73 -45q-11 -12 -11 -28q0 -35 47 -35q42 0 88 29t76 73l254 -190q-157 -186 -455 -186z" />
    <glyph glyph-name="uni0454" unicode="&#x454;" horiz-adv-x="991" 
d="M535 258q90 0 157 88l258 -170q-86 -110 -197.5 -153t-250.5 -43q-215 0 -338 116t-119 328q4 177 67.5 311t190 211.5t303.5 77.5q260 0 398 -158l-218 -207q-34 41 -82.5 60.5t-93.5 19.5q-152 0 -202 -133l323 4l-24 -202l-324 -5q1 -76 44.5 -110.5t107.5 -34.5z" />
    <glyph glyph-name="uni0455" unicode="&#x455;" horiz-adv-x="854" 
d="M381 -20q-111 0 -223 45.5t-181 126.5l185 196q44 -52 109 -85.5t122 -33.5q28 0 44 9t16 24q0 19 -23.5 35t-120.5 68q-126 67 -183.5 136t-57.5 173q0 156 109.5 253t273.5 97q109 0 204.5 -43.5t161.5 -126.5l-203 -188q-66 97 -157 102q-24 0 -43 -11.5t-19 -33.5
q0 -28 129 -94q141 -70 200.5 -139t59.5 -183q0 -144 -109 -235.5t-294 -91.5z" />
    <glyph glyph-name="uni0456" unicode="&#x456;" horiz-adv-x="559" 
d="M375 1118q-91 0 -148 54.5t-57 138.5t58.5 139t152.5 55q91 0 147 -52.5t56 -135.5q0 -87 -58 -143t-151 -56zM43 0l125 1004h346l-123 -1004h-348z" />
    <glyph glyph-name="uni0457" unicode="&#x457;" horiz-adv-x="559" 
d="M184 1120q-76 0 -128 55.5t-52 135.5q0 81 54 136.5t132 55.5t130.5 -53.5t52.5 -132.5q0 -84 -54 -140.5t-135 -56.5zM582 1120q-76 0 -128.5 55.5t-52.5 135.5q0 82 54 137t135 55q76 0 127 -53t51 -133q0 -83 -53.5 -140t-132.5 -57zM43 0l125 1004h346l-123 -1004
h-348z" />
    <glyph glyph-name="uni0458" unicode="&#x458;" horiz-adv-x="524" 
d="M352 1118q-91 0 -148 54.5t-57 138.5t58.5 139t152.5 55q91 0 147 -52.5t56 -135.5q0 -87 -58 -143t-151 -56zM4 -424q-124 0 -227 47l86 266q28 -22 71 -22q42 0 60 36.5t29 131.5l118 969h351l-125 -1018q-26 -220 -119 -315t-244 -95z" />
    <glyph glyph-name="uni0459" unicode="&#x459;" horiz-adv-x="1599" 
d="M1288 821q124 0 206.5 -96.5t78.5 -247.5q-7 -237 -146 -368.5t-372 -131.5q-243 0 -338 115t-58 365l39 264h-22q-49 0 -72 -21.5t-33 -64.5q-56 -243 -79 -322q-88 -327 -400 -327q-85 0 -135 20l45 283q27 -8 53 -8q94 0 146 227q38 167 45 203q30 146 116 219.5
t238 73.5h485l-49 -314l4 -2q113 133 248 133zM1077 260q61 0 103.5 54t42.5 124q0 54 -30 77.5t-63 23.5q-56 0 -98 -43.5t-49 -110.5q-6 -56 16.5 -90.5t77.5 -34.5z" />
    <glyph glyph-name="uni045A" unicode="&#x45a;" horiz-adv-x="1525" 
d="M1225 821q124 0 206 -96.5t78 -247.5q-7 -237 -146 -368.5t-372 -131.5q-215 0 -313 90t-92 283l-174 -2l-43 -348h-349l123 1004h349l-48 -377l177 2l55 375h346l-49 -314l4 -2q113 133 248 133zM1014 260q61 0 103 54t42 124q0 54 -30 77.5t-62 23.5q-56 0 -98 -43.5
t-49 -110.5q-6 -56 16.5 -90.5t77.5 -34.5z" />
    <glyph glyph-name="uni045B" unicode="&#x45b;" horiz-adv-x="1101" 
d="M795 936q140 0 197 -98.5t30 -307.5l-68 -530h-344l56 434q13 101 3.5 146t-48.5 45q-69 0 -129 -89t-80 -266l-31 -270h-346l131 1063h-94l28 237h97l24 207h338l-27 -207h326l-29 -237h-325l-35 -270l6 -5q120 148 320 148z" />
    <glyph glyph-name="uni045C" unicode="&#x45c;" horiz-adv-x="1040" 
d="M442 1143l238 309l344 2l-266 -311h-316zM35 0l123 1004h348l-47 -377l4 -2q92 74 143 166.5t76 212.5h362q-54 -297 -274 -500l18 -66q14 -52 32.5 -85.5t44 -50.5t51 -23t63.5 -7l-72 -288q-50 -4 -112 -4q-212 0 -287 278l-19 68q-12 -5 -38.5 -18.5t-42.5 -20.5
l-33 -287h-340z" />
    <glyph glyph-name="uni045D" unicode="&#x45d;" horiz-adv-x="1097" 
d="M465 1143l-189 311l336 -2l162 -309h-309zM324 -20q-70 0 -121 19.5t-89 65t-47.5 121.5t3.5 189l88 629h346l-74 -500q-19 -122 -9.5 -168.5t54.5 -46.5q56 0 113.5 77t66.5 160l60 478h348l-123 -1004h-340l8 131h-6q-118 -151 -278 -151z" />
    <glyph glyph-name="uni045E" unicode="&#x45e;" horiz-adv-x="1081" 
d="M616 1122q-168 0 -242 68.5t-93 232.5l266 33q7 -68 33.5 -103.5t64.5 -35.5q40 0 82.5 39t75.5 110l244 -94q-153 -250 -431 -250zM705 1004h348l-107 -863q-68 -567 -577 -567q-206 0 -369 98l106 250q107 -72 238 -72q40 0 70 6t60.5 23.5t52 47.5t40 81t29.5 121h-6
q-114 -149 -279 -149q-55 0 -98.5 12t-79.5 40t-55 74t-26.5 112.5t7.5 156.5l88 629h347l-72 -500q-19 -122 -11 -168.5t56 -46.5q54 0 111.5 77.5t66.5 153.5z" />
    <glyph glyph-name="uni045F" unicode="&#x45f;" horiz-adv-x="1097" 
d="M324 -20q-70 0 -121 19.5t-89 65t-47.5 121.5t3.5 189l88 629h346l-74 -500q-19 -122 -9.5 -168.5t54.5 -46.5q56 0 113.5 77t66.5 160l60 478h348l-123 -1004h-340l8 131h-6q-118 -151 -278 -151zM256 -379l29 303h293l-50 -303h-272z" />
    <glyph glyph-name="uni0462" unicode="&#x462;" horiz-adv-x="1337" 
d="M905 889q107 0 187 -30.5t125 -84.5t66.5 -119.5t21.5 -142.5q0 -264 -142 -388t-438 -124h-504l127 1034h-276l37 291h274l16 129h357l-17 -129h361l-37 -291h-358l-19 -145h219zM750 319q94 0 131 44.5t37 119.5q0 53 -27 83t-82 30h-158l-35 -277h134z" />
    <glyph glyph-name="uni0463" unicode="&#x463;" horiz-adv-x="1550" 
d="M1006 -23q-244 0 -343 118t-55 362l13 67q36 189 -41 189q-48 0 -93 -85t-67 -259l-45 -369h-348l123 1004h348l-17 -125l6 -2q53 71 122 109t145 38q128 0 187 -84.5t34 -257.5l4 -2q128 141 260 141q124 0 206.5 -96.5t78.5 -247.5q-7 -236 -146.5 -368t-371.5 -132z
M1028 260q61 0 103.5 54t42.5 124q0 54 -30 77.5t-63 23.5q-56 0 -98 -43.5t-49 -110.5q-6 -56 16.5 -90.5t77.5 -34.5z" />
    <glyph glyph-name="uni0472" unicode="&#x472;" horiz-adv-x="1486" 
d="M860 1475q271 0 433.5 -163.5t162.5 -451.5q0 -183 -52 -342.5t-148 -279.5t-243 -189t-327 -69q-277 0 -438.5 163.5t-161.5 456.5q0 174 55 332.5t153 279t245.5 192t320.5 71.5zM829 1139q-121 0 -208 -69.5t-127 -192.5h587q-1 135 -70.5 198.5t-181.5 63.5zM715 317
q120 0 204 67.5t125 195.5h-585q3 -130 74 -196.5t182 -66.5z" />
    <glyph glyph-name="uni0473" unicode="&#x473;" horiz-adv-x="1058" 
d="M596 1024q199 0 314.5 -113t115.5 -323q0 -126 -36.5 -235t-105.5 -193t-179 -132t-248 -48q-196 0 -310 114.5t-114 321.5q0 121 38 230t108 193.5t178 134.5t239 50zM569 748q-62 0 -109 -40t-75 -106l311 6q-3 42 -15.5 71t-32 43t-38.5 20t-41 6zM489 256
q65 0 112 40t71 110l-314 -7q3 -78 42 -110.5t89 -32.5z" />
    <glyph glyph-name="uni0474" unicode="&#x474;" horiz-adv-x="1374" 
d="M420 0l-299 1454h399l117 -917h4l180 581q62 201 144.5 278t240.5 77q168 0 318 -68l-123 -320q-70 31 -111 31q-21 0 -38.5 -5.5t-34 -22.5t-27 -30t-27 -46t-24.5 -51.5t-27 -64.5q-10 -25 -16 -38l-357 -858h-319z" />
    <glyph glyph-name="uni0475" unicode="&#x475;" horiz-adv-x="1052" 
d="M258 0l-190 1004h358l61 -617h5l94 346q20 73 49.5 127.5t60 85t69 49t71.5 24t73 5.5q102 0 219 -47l-81 -268q-38 12 -56 12q-51 0 -89.5 -49t-90.5 -170l-207 -502h-346z" />
    <glyph glyph-name="uni048A" unicode="&#x48a;" horiz-adv-x="1484" 
d="M829 1534q-168 0 -242 68.5t-93 232.5l266 23q7 -61 36.5 -95t67.5 -34q81 0 152 139l244 -84q-153 -250 -431 -250zM1225 330h237l-12 -80l-244 -531h-256l94 281h-229l98 799l-6 4l-493 -803h-361l178 1454h369l-108 -846l6 -2l501 848h365z" />
    <glyph glyph-name="uni048B" unicode="&#x48b;" horiz-adv-x="1181" 
d="M643 1122q-168 0 -242.5 68.5t-93.5 232.5l266 33q7 -68 34 -103.5t65 -35.5q40 0 82 39t75 110l244 -94q-153 -250 -430 -250zM1057 272h114l-6 -51l-225 -477h-246l88 252q-97 33 -135 151l-6 29h-6q-54 -92 -137 -144t-174 -52q-70 0 -121 19.5t-89 65t-47.5 121.5
t3.5 189l88 629h346l-74 -500q-19 -122 -9.5 -168.5t54.5 -46.5q55 0 113 78t67 155l60 482h348l-80 -646q-12 -86 74 -86z" />
    <glyph glyph-name="uni048C" unicode="&#x48c;" horiz-adv-x="1239" 
d="M807 889q87 0 155.5 -20.5t113.5 -55.5t75 -83.5t42.5 -102.5t12.5 -115q0 -264 -141.5 -388t-437.5 -124h-504l131 1067h-193l31 250h193l16 137h356l-16 -137h293l-31 -250h-293l-22 -178h219zM651 319q94 0 131 44.5t37 119.5q0 113 -108 113h-158l-35 -277h133z" />
    <glyph glyph-name="uni048D" unicode="&#x48d;" horiz-adv-x="1032" 
d="M723 748q141 0 212.5 -83t68.5 -206q-7 -225 -149.5 -353.5t-379.5 -128.5q-243 0 -337.5 114.5t-57.5 365.5l43 297h-119l25 200h123l14 95h340l-12 -80h235l-24 -187h-238l-25 -161l4 -3q130 130 277 130zM643 389q9 57 -18 87t-74 30q-54 0 -92.5 -29.5t-50.5 -77.5
q-14 -61 9.5 -101t80.5 -40t97 40t48 91z" />
    <glyph glyph-name="uni048E" unicode="&#x48e;" horiz-adv-x="1185" 
d="M1210 1047q0 -168 -63 -299t-182 -207l86 -215l-228 -125l-104 258q-43 -6 -90 -6h-160l-53 -453h-363l178 1454h562q210 0 313.5 -112.5t103.5 -294.5zM498 758h143l-63 170l149 82l70 -181q49 65 49 162q0 72 -37.5 104.5t-91.5 32.5h-172z" />
    <glyph glyph-name="uni048F" unicode="&#x48f;" horiz-adv-x="1128" 
d="M1085 610q0 -170 -57 -308t-154 -220l89 -193l-203 -118l-98 213q-32 -4 -50 -4q-131 0 -217 59l-8 -4l-53 -441h-350l174 1410h350l-16 -134l2 -2q112 156 274 156q150 0 233.5 -115.5t83.5 -298.5zM410 332q43 -43 110 -43q13 0 37 4l-65 145l151 88l55 -123
q37 73 37 170q0 63 -27 102.5t-67 39.5q-74 0 -139 -95.5t-90 -273.5z" />
    <glyph glyph-name="uni0490" unicode="&#x490;" horiz-adv-x="1040" 
d="M862 1739h297l-78 -615h-516l-139 -1124h-373l178 1454h572z" />
    <glyph glyph-name="uni0491" unicode="&#x491;" horiz-adv-x="813" 
d="M633 1241h256l-66 -520h-352l-88 -721h-348l123 1004h422z" />
    <glyph glyph-name="uni0492" unicode="&#x492;" horiz-adv-x="1130" 
d="M1171 1124h-520l-41 -323h357l-31 -250h-356l-68 -551h-369l68 551h-193l31 250h193l80 653h890z" />
    <glyph glyph-name="uni0493" unicode="&#x493;" horiz-adv-x="841" 
d="M397 254q41 0 86.5 23.5t73.5 64.5l250 -188q-79 -94 -189.5 -134t-265.5 -40q-170 0 -264.5 62t-95.5 183q-1 85 53 147.5t145 102.5v2l-135 39l58 182l260 -73l22 12q45 23 61.5 38.5t16.5 39.5q0 33 -53 33q-68 0 -152 -70l-180 223q62 49 172 86t205 37
q159 0 256.5 -65.5t97.5 -176.5q0 -151 -168 -233v-2l142 -41l-58 -184l-252 71l-57 -31q-63 -34 -73 -45q-11 -12 -11 -28q0 -35 55 -35z" />
    <glyph glyph-name="uni0494" unicode="&#x494;" horiz-adv-x="1208" 
d="M756 817q185 0 286 -129t101 -366q0 -123 -22 -232t-69 -203t-115.5 -162t-166.5 -106.5t-217 -38.5q-65 0 -123 12l47 283q10 -2 31 -2q65 0 115.5 39.5t78.5 103t42 134.5t14 143q0 108 -37.5 154.5t-106.5 46.5q-72 0 -139 -31l-57 -463h-365l178 1454h891l-41 -330
h-524l-45 -364q121 57 244 57z" />
    <glyph glyph-name="uni0495" unicode="&#x495;" horiz-adv-x="1062" 
d="M688 553q129 0 222.5 -103t93.5 -282q0 -279 -165.5 -435.5t-439.5 -156.5q-73 0 -153 12l67 269h37q143 0 222 71.5t79 200.5q0 59 -28 89t-76 30t-94 -27t-50 -59l-24 -162h-344l123 1004h700l-35 -283h-352l-35 -287h6q50 54 106 86.5t140 32.5z" />
    <glyph glyph-name="uni0496" unicode="&#x496;" horiz-adv-x="1978" 
d="M1485 770l184 -440h270l-98 -611h-297l23 281h-183l-208 561l-82 -96l-58 -465h-358l55 451l-67 114l-322 -565h-416l480 776l-299 678h438l227 -623l6 3l74 620h363l-76 -608l6 -2l373 610h438z" />
    <glyph glyph-name="uni0497" unicode="&#x497;" horiz-adv-x="1576" 
d="M1446 272h110l-110 -528h-262l28 240q-89 17 -148.5 90.5t-82.5 183.5l-18 84q-68 -25 -82 -29l-37 -313h-330l47 379l-2 2q-163 -120 -219 -381h-363q55 297 279 496l-18 69q-13 52 -32 85.5t-45.5 50.5t-53 23t-64.5 7l72 289q50 4 112 4q109 0 182 -77t99 -202l18 -83
l72 24l39 318h328l-47 -386l2 -2q172 119 229 388h362q-55 -298 -278 -496l18 -70q13 -52 32 -85.5t45.5 -50.5t53 -23t64.5 -7z" />
    <glyph glyph-name="uni0498" unicode="&#x498;" horiz-adv-x="1122" 
d="M872 780q84 -45 141.5 -131.5t57.5 -204.5q0 -94 -30.5 -174t-91.5 -143t-159.5 -101t-226.5 -44l-16 -35q64 -11 108.5 -46t44.5 -98q0 -101 -82 -149.5t-223 -48.5q-61 0 -116 12l8 139q31 -8 80 -8q98 0 98 59q0 47 -113 62l58 117q-290 28 -424 239l250 244
q51 -77 124.5 -113.5t153.5 -36.5q89 0 131.5 49t42.5 111q0 52 -40 81.5t-113 29.5h-203l37 295h166q91 0 144.5 37.5t53.5 105.5q0 105 -145 105q-135 0 -246 -82l-197 254q196 165 496 165q216 0 341.5 -88t125.5 -247q0 -108 -61 -202.5t-175 -146.5v-6z" />
    <glyph glyph-name="uni0499" unicode="&#x499;" horiz-adv-x="897" 
d="M680 528q77 -29 120.5 -88t43.5 -133q0 -147 -114.5 -232t-305.5 -93l-16 -35q64 -11 108.5 -46t44.5 -98q0 -101 -82 -149.5t-223 -48.5q-62 0 -117 12l8 139q31 -8 80 -8q99 0 99 59q0 47 -113 62l57 115q-172 14 -305 92l117 272q63 -44 134.5 -66t129.5 -22
q156 0 156 80q0 61 -103 61l-159 -2l24 209l129 2q135 3 135 72q0 55 -104 55q-105 0 -221 -51l-129 246q65 35 174 63.5t198 28.5q118 0 211 -28t152 -90.5t59 -151.5q0 -81 -51.5 -137.5t-136.5 -84.5v-4z" />
    <glyph glyph-name="uni049A" unicode="&#x49a;" horiz-adv-x="1376" 
d="M858 799l205 -469h274l-98 -611h-297l23 281h-181l-213 535l-100 -121l-51 -414h-367l178 1454h369l-65 -543l6 -2l389 545h438z" />
    <glyph glyph-name="uni049B" unicode="&#x49b;" horiz-adv-x="1112" 
d="M981 272h111l-111 -528h-262l29 240q-164 30 -240 274l-19 66q-9 -4 -36.5 -17t-44.5 -20l-33 -287h-340l123 1004h348l-47 -377l4 -2q92 74 143 166.5t76 212.5h362q-56 -307 -274 -500q4 -20 16 -66q13 -52 32 -85.5t45.5 -50.5t53 -23t64.5 -7z" />
    <glyph glyph-name="uni049C" unicode="&#x49c;" horiz-adv-x="1511" 
d="M1608 1454l-424 -711l274 -743h-418l-188 575h-12l-43 -339h-226l43 342h-118l-72 -578h-371l178 1454h371l-78 -633l121 6l51 406h226l-50 -395l13 2l286 614h437z" />
    <glyph glyph-name="uni049D" unicode="&#x49d;" horiz-adv-x="1187" 
d="M936 438q15 -53 33.5 -86t43 -50t50 -23t63.5 -7l-71 -288q-50 -4 -113 -4q-115 0 -175 59.5t-87 191.5l-31 156q-2 -2 -6 -2l-33 -272h-151l28 229q-10 -2 -24 -5.5t-25.5 -6t-21.5 -4.5l-41 -326h-340l123 1004h338l-52 -422l5 -2q30 3 69 12l29 239h158l-21 -159
q30 29 53.5 65t36.5 63t25.5 73.5t16 63.5t13.5 67h363q-54 -297 -274 -500z" />
    <glyph glyph-name="uni049E" unicode="&#x49e;" horiz-adv-x="1277" 
d="M1386 1454l-507 -690l346 -764h-422l-209 504l-113 -166l-43 -338h-366l131 1077h-142l31 250h141l17 127h368l-16 -127h80l-29 -250h-82l-28 -231h2l403 608h438z" />
    <glyph glyph-name="uni049F" unicode="&#x49f;" horiz-adv-x="1040" 
d="M788 438q14 -52 32.5 -85.5t44 -50.5t51 -23t63.5 -7l-72 -288q-50 -4 -112 -4q-212 0 -287 278l-19 68q-12 -5 -38.5 -18.5t-42.5 -20.5l-33 -287h-340l137 1124h-86l25 201h86l22 182h348l-22 -182h231l-26 -201h-230l-61 -497l4 -2q92 74 143 166.5t76 212.5h362
q-54 -297 -274 -500z" />
    <glyph glyph-name="uni04A0" unicode="&#x4a0;" horiz-adv-x="1476" 
d="M1585 1454l-510 -655l348 -799h-422l-213 535l-100 -121l-51 -414h-367l138 1124h-326l41 330h694l-65 -543l6 -2l389 545h438z" />
    <glyph glyph-name="uni04A1" unicode="&#x4a1;" horiz-adv-x="1169" 
d="M918 438q15 -53 33.5 -86t43 -50t50 -23t63.5 -7l-72 -288q-50 -4 -112 -4q-212 0 -287 278l-19 68q-12 -5 -38.5 -18.5t-42.5 -20.5l-33 -287h-340l88 721h-219l35 283h567l-47 -377l4 -2q92 74 143 166.5t76 212.5h363q-54 -295 -275 -500z" />
    <glyph glyph-name="uni04A2" unicode="&#x4a2;" horiz-adv-x="1458" 
d="M1417 330l-98 -611h-297l22 281h-256l66 537h-360l-66 -537h-375l178 1454h375l-71 -588h360l72 588h376l-139 -1124h213z" />
    <glyph glyph-name="uni04A3" unicode="&#x4a3;" horiz-adv-x="1247" 
d="M1067 272h152l-111 -528h-262l28 236q-61 2 -106 13.5t-81.5 37.5t-51 73.5t-6.5 114.5l16 131l-219 -2l-43 -348h-348l123 1004h348l-47 -377l221 2l45 375h348l-84 -666q-4 -38 14.5 -52t63.5 -14z" />
    <glyph glyph-name="uni04A4" unicode="&#x4a4;" horiz-adv-x="1601" 
d="M956 1454h727l-41 -330h-352l-139 -1124h-373l66 537h-350l-66 -537h-375l178 1454h375l-71 -588h350z" />
    <glyph glyph-name="uni04A5" unicode="&#x4a5;" horiz-adv-x="1286" 
d="M1333 1004l-35 -283h-280l-88 -721h-340l43 350l-207 -2l-43 -348h-348l123 1004h348l-47 -377l209 2l45 375h620z" />
    <glyph glyph-name="uni04A6" unicode="&#x4a6;" horiz-adv-x="1880" 
d="M1427 817q185 0 286.5 -129t101.5 -366q0 -123 -22 -232t-69 -203t-115.5 -162t-166.5 -106.5t-217 -38.5q-65 0 -123 12l47 283q10 -2 31 -2q65 0 115.5 39.5t78.5 103t42 134.5t14 143q0 108 -37.5 154.5t-106.5 46.5q-62 0 -131 -27l-57 -467h-367l139 1124h-305
l-139 -1124h-373l178 1454h1045l-84 -690q116 53 235 53z" />
    <glyph glyph-name="uni04A7" unicode="&#x4a7;" horiz-adv-x="1628" 
d="M965 -424q-75 0 -154 12l68 269h36q145 0 223.5 71t78.5 201q0 59 -28.5 89t-76.5 30t-93.5 -27t-49.5 -59l-25 -162h-344l68 522q14 101 5.5 146t-44.5 45q-59 0 -119.5 -86.5t-81.5 -257.5l-45 -369h-348l123 1004h348l-17 -125l7 -2q128 147 307 147q279 0 223 -406
l-27 -184h7q34 35 61 57t77.5 42t108.5 20q129 0 222.5 -103t93.5 -282q0 -279 -165 -435.5t-439 -156.5z" />
    <glyph glyph-name="uni04A8" unicode="&#x4a8;" horiz-adv-x="1662" 
d="M1647 74q-48 -45 -126 -68.5t-167 -23.5q-97 0 -179 23.5t-128 66.5q-140 -92 -353 -92q-282 0 -453 164.5t-171 455.5q0 174 55 332.5t153 279t245.5 192t320.5 71.5q10 0 30.5 -1t30.5 -1l-76 -328h-18q-98 0 -181 -75t-129 -193.5t-46 -249.5q0 -161 83.5 -253.5
t235.5 -92.5q19 0 29 2l2 4q-92 152 -92 329q0 169 57 316.5t167.5 241.5t250.5 94q100 0 176.5 -32.5t123 -91.5t70 -136.5t23.5 -171.5q0 -171 -73.5 -321.5t-204.5 -252.5v-2q30 -6 55 -6q80 0 160 55zM1153 950q-39 0 -72 -70t-49 -157.5t-16 -159.5q0 -88 31 -176l4 -2
q71 89 108 212t37 237q0 53 -12 84.5t-31 31.5z" />
    <glyph glyph-name="uni04A9" unicode="&#x4a9;" horiz-adv-x="1320" 
d="M1315 74q-116 -94 -320 -94q-181 0 -284 69q-104 -69 -246 -69q-200 0 -314 120t-114 320q0 169 74 343.5t213 285.5l249 -150q-76 -76 -132 -211t-56 -233q0 -89 39 -144.5t113 -64.5l2 2q-31 95 -31 201q0 103 28 203t78.5 181t129.5 131t171 50q137 0 215 -83.5
t78 -234.5q0 -144 -70 -271t-182 -198l2 -2q125 6 207 84zM844 707q-42 0 -75.5 -104.5t-33.5 -201.5q0 -55 10 -84l3 -2q61 59 93.5 157t32.5 179q0 29 -6 42.5t-24 13.5z" />
    <glyph glyph-name="uni04AA" unicode="&#x4aa;" horiz-adv-x="1318" 
d="M711 338q76 0 149.5 35t126.5 100l256 -242q-92 -109 -216.5 -172t-270.5 -75l-17 -37q64 -11 109 -46t45 -98q0 -101 -82 -149.5t-223 -48.5q-62 0 -117 12l8 139q31 -8 80 -8q98 0 98 59q0 20 -23.5 34.5t-44.5 19.5t-44 8l57 115q-234 24 -375 181.5t-141 430.5
q0 144 35 276.5t103 241.5t161.5 190t216.5 126t262 45q66 0 131.5 -16t133 -50.5t130 -95.5t111.5 -144l-289 -223q-44 78 -105.5 125t-133.5 47q-82 0 -152.5 -44.5t-116 -117t-71 -161.5t-25.5 -181q0 -134 63 -205t171 -71z" />
    <glyph glyph-name="uni04AB" unicode="&#x4ab;" horiz-adv-x="970" 
d="M502 289q41 0 75.5 20.5t71.5 71.5l271 -164q-137 -211 -383 -235l-17 -35q64 -11 109 -46t45 -98q0 -101 -82 -149.5t-223 -48.5q-61 0 -117 12l8 139q31 -8 80 -8q98 0 98 59q0 20 -23.5 34.5t-44.5 19.5t-44 8l59 117q-162 25 -251 137t-89 299q0 91 21.5 177.5
t65.5 163.5t106.5 135t150.5 92t191 34q259 0 393 -195l-264 -198q-40 86 -115 86q-85 0 -142 -86.5t-57 -200.5q0 -62 26.5 -101.5t80.5 -39.5z" />
    <glyph glyph-name="uni04AC" unicode="&#x4ac;" horiz-adv-x="1095" 
d="M1133 1124h-324l-96 -794h213l-99 -611h-297l23 281h-252l137 1124h-323l41 330h1018z" />
    <glyph glyph-name="uni04AD" unicode="&#x4ad;" horiz-adv-x="1771" 
d="M1593 272h152l-111 -528h-262l29 236q-63 2 -109 14t-83 39.5t-51 79.5t-1 127l47 282q34 191 -45 191q-49 0 -102 -90.5t-76 -262.5l-47 -360h-346l67 522q8 57 10 88t-1.5 57t-16 36t-35.5 10q-47 0 -104.5 -81t-75.5 -231l-49 -401h-348l123 1004h348l-12 -107l8 -2
q116 129 291 129q164 0 208 -137h11q109 137 317 137q146 0 204.5 -106t27.5 -300l-45 -280q-6 -38 13 -52t64 -14z" />
    <glyph glyph-name="uni04AE" unicode="&#x4ae;" horiz-adv-x="1189" 
d="M344 0l80 631l-318 823h408l135 -477h6l244 477h422l-522 -823l-78 -631h-377z" />
    <glyph glyph-name="uni04AF" unicode="&#x4af;" horiz-adv-x="1011" 
d="M203 -406l53 394l-193 1016h367l74 -662h4q24 46 44 90t36 89.5t28 77.5t23 80t17 68.5t14.5 72t10 62t9.5 65.5t8 57h357q-88 -578 -451 -1010l-55 -400h-346z" />
    <glyph glyph-name="uni04B0" unicode="&#x4b0;" horiz-adv-x="1189" 
d="M1321 1454l-455 -717h217l-30 -250h-273l-59 -487h-377l62 487h-271l31 250h217l-277 717h408l135 -477h6l244 477h422z" />
    <glyph glyph-name="uni04B1" unicode="&#x4b1;" horiz-adv-x="1011" 
d="M1055 1004q-69 -449 -318 -803h117l-27 -201h-223l-55 -406h-346l53 406h-176l24 201h125l-166 803h367l74 -662h4q24 46 44 90t36 89.5t28 77.5t23 80t17 68.5t14.5 72t10 62t9.5 65.5t8 57h357z" />
    <glyph glyph-name="uni04B2" unicode="&#x4b2;" horiz-adv-x="1409" 
d="M909 731l178 -401h283l-98 -611h-297l22 281h-166l-186 451h-8l-295 -451h-410l502 739l-301 715h391l174 -440h11l264 440h424z" />
    <glyph glyph-name="uni04B3" unicode="&#x4b3;" horiz-adv-x="1048" 
d="M711 426q43 -94 86 -123t121 -31h110l-110 -528h-263l29 240q-74 9 -127 59.5t-92 153.5l-6 16h-4l-142 -213h-370l360 524l-227 480h379l69 -203h2l115 203h387l-354 -498z" />
    <glyph glyph-name="uni04B4" unicode="&#x4b4;" horiz-adv-x="1630" 
d="M1591 330l-98 -611h-297l23 281h-928l137 1124h-313l41 330h882l-41 -330h-196l-99 -794h302l139 1124h373l-138 -1124h213z" />
    <glyph glyph-name="uni04B5" unicode="&#x4b5;" horiz-adv-x="1236" 
d="M1018 1446l-31 -260h-692l31 260h692zM1057 272h151l-110 -528h-262l28 236q-88 6 -140 47t-77 120l-6 29h-6q-54 -92 -137 -144t-174 -52q-70 0 -121 19.5t-89 65t-47.5 121.5t3.5 189l88 629h346l-74 -500q-19 -122 -9.5 -168.5t54.5 -46.5q55 0 113 78t67 155l60 482
h348l-80 -646q-12 -86 74 -86z" />
    <glyph glyph-name="uni04B6" unicode="&#x4b6;" horiz-adv-x="1341" 
d="M1087 330h213l-98 -611h-297l23 281h-256l63 522q-66 -40 -158.5 -62t-170.5 -22q-360 0 -300 445l78 571h369l-70 -518q-13 -106 9.5 -142t97.5 -36q102 0 180 53l80 643h377z" />
    <glyph glyph-name="uni04B7" unicode="&#x4b7;" horiz-adv-x="1191" 
d="M1012 272h151l-110 -528h-262l28 236q-61 2 -106.5 13.5t-81.5 37.5t-51 73.5t-7 114.5l21 154h-6q-41 -52 -127.5 -87.5t-157.5 -35.5q-81 0 -133 28t-75 78t-28 119t9 152l53 377h346l-53 -338q-10 -62 3.5 -91.5t61.5 -29.5q54 0 95 34t45 64l45 361h344l-82 -666
q-4 -38 14.5 -52t63.5 -14z" />
    <glyph glyph-name="uni04B8" unicode="&#x4b8;" horiz-adv-x="1323" 
d="M954 1454h371l-180 -1454h-369l66 528q-47 -22 -84 -32l-33 -260h-225l26 210q-63 -8 -120 -8q-360 0 -300 445l78 571h359l-68 -518q-13 -116 4.5 -157t81.5 -44l37 291h225l-32 -264q48 13 81 29z" />
    <glyph glyph-name="uni04B9" unicode="&#x4b9;" horiz-adv-x="1132" 
d="M766 1004h332l-123 -1004h-334l49 389h-6q-26 -20 -70 -43l-28 -213h-158l18 146q-100 -29 -147 -29q-79 0 -130.5 28t-74 78t-27.5 119t9 152l53 377h334l-55 -359q-12 -72 2.5 -100.5t68.5 -28.5l35 272h158l-31 -239q35 18 55.5 39t22.5 37z" />
    <glyph glyph-name="uni04BA" unicode="&#x4ba;" horiz-adv-x="1243" 
d="M897 1016q182 0 254 -112.5t41 -336.5l-76 -567h-368l69 518q12 99 -10.5 138.5t-95.5 39.5q-113 0 -201 -49l-80 -647h-377l180 1454h375l-63 -520q72 37 169.5 59.5t182.5 22.5z" />
    <glyph glyph-name="uni04BB" unicode="&#x4bb;" horiz-adv-x="1110" 
d="M35 0l184 1507h346l-78 -626l7 -4q131 147 319 147q137 0 193.5 -98.5t29.5 -307.5l-80 -618h-346l70 522q13 101 4 146t-45 45q-68 0 -131 -89.5t-84 -265.5l-43 -358h-346z" />
    <glyph glyph-name="uni04BC" unicode="&#x4bc;" horiz-adv-x="1671" 
d="M1620 614h-920q-6 -143 71.5 -217.5t232.5 -74.5q79 0 153.5 37.5t128.5 103.5l248 -232q-210 -251 -559 -251q-289 0 -465 163.5t-176 450.5v20q-153 3 -232 71.5t-79 184.5q0 57 20 123.5t55 116.5l238 -61q-45 -65 -45 -101q0 -47 63 -47h21q47 169 142 297
t238.5 202.5t317.5 74.5q272 0 429 -163.5t157 -457.5q0 -125 -39 -240zM1061 1147q-101 0 -176 -59t-121 -164h541q-6 108 -75.5 165.5t-168.5 57.5z" />
    <glyph glyph-name="uni04BD" unicode="&#x4bd;" horiz-adv-x="1163" 
d="M1147 743q-2 -92 -51 -162.5t-133 -114.5t-181.5 -69t-212.5 -35q14 -53 48.5 -78.5t74.5 -25.5q95 0 160 96l254 -137q-148 -237 -447 -237q-181 0 -296 101t-127 277h-3q-123 0 -185.5 53t-59.5 146q3 80 51 176l170 -37q-25 -70 -27 -92q-3 -26 11.5 -36t54.5 -15
q42 209 189 340t358 131q63 0 123.5 -17t113.5 -50t84.5 -88.5t30.5 -125.5zM819 684q1 27 -14 42t-43 15q-60 0 -110.5 -53t-73.5 -141q236 22 241 137z" />
    <glyph glyph-name="uni04BE" unicode="&#x4be;" horiz-adv-x="1671" 
d="M1620 614h-920q-6 -143 71.5 -217.5t232.5 -74.5q79 0 153.5 37.5t128.5 103.5l248 -232q-179 -216 -459 -245l-43 -267h-297l23 289q-197 54 -310.5 206t-113.5 380v20q-153 3 -232 71.5t-79 184.5q0 57 20 123.5t55 116.5l238 -61q-45 -65 -45 -101q0 -47 63 -47h21
q47 169 142 297t238.5 202.5t317.5 74.5q272 0 429 -163.5t157 -457.5q0 -125 -39 -240zM1061 1147q-101 0 -176 -59t-121 -164h541q-6 108 -75.5 165.5t-168.5 57.5z" />
    <glyph glyph-name="uni04BF" unicode="&#x4bf;" horiz-adv-x="1163" 
d="M1147 743q-2 -92 -51 -162.5t-133 -114.5t-181.5 -69t-212.5 -35q14 -53 48.5 -78.5t74.5 -25.5q95 0 160 96l254 -137q-119 -190 -330 -227l-41 -246h-264l21 262q-112 40 -179.5 131.5t-76.5 220.5h-3q-123 0 -185.5 53t-59.5 146q3 80 51 176l170 -37q-25 -70 -27 -92
q-3 -26 11.5 -36t54.5 -15q42 209 189 340t358 131q63 0 123.5 -17t113.5 -50t84.5 -88.5t30.5 -125.5zM819 684q1 27 -14 42t-43 15q-60 0 -110.5 -53t-73.5 -141q236 22 241 137z" />
    <glyph glyph-name="uni04C0" unicode="&#x4c0;" horiz-adv-x="626" 
d="M63 0l179 1454h376l-178 -1454h-377z" />
    <glyph glyph-name="uni04C1" unicode="&#x4c1;" horiz-adv-x="1861" 
d="M1059 1534q-168 0 -242.5 68.5t-93.5 232.5l266 23q7 -61 37 -95t68 -34q80 0 151 139l244 -84q-153 -250 -430 -250zM1958 1454l-473 -684l323 -770h-424l-208 561l-82 -96l-58 -465h-358l55 451l-67 114l-322 -565h-416l480 776l-299 678h438l227 -623l6 3l74 620h363
l-76 -608l6 -2l373 610h438z" />
    <glyph glyph-name="uni04C2" unicode="&#x4c2;" horiz-adv-x="1486" 
d="M831 1124q-168 0 -242 68.5t-93 232.5l266 33q7 -68 33.5 -103.5t64.5 -35.5q40 0 82.5 39t75.5 110l244 -94q-153 -250 -431 -250zM1251 438q13 -52 32 -85.5t45.5 -50.5t53 -23t64.5 -7l-72 -288q-50 -4 -112 -4q-109 0 -182 76.5t-99 201.5l-18 84q-68 -25 -82 -29
l-37 -313h-330l47 379l-2 2q-163 -120 -219 -381h-363q55 297 279 496l-18 69q-13 52 -32 85.5t-45.5 50.5t-53 23t-64.5 7l72 289q50 4 112 4q109 0 182 -77t99 -202l18 -83l72 24l39 318h328l-47 -386l2 -2q172 119 229 388h362q-55 -298 -278 -496z" />
    <glyph glyph-name="uni04C3" unicode="&#x4c3;" horiz-adv-x="1271" 
d="M860 803q146 -47 232 -184.5t86 -317.5q0 -117 -22 -222.5t-69.5 -197t-116 -158t-167 -105t-217.5 -38.5q-64 0 -123 12l47 283q10 -2 31 -2q52 0 95.5 26t71.5 67t47.5 93t27.5 101.5t8 95.5q0 127 -58 196.5t-155 82.5q-27 4 -89 8l-69 -543h-367l178 1454h369
l-65 -543l6 -2l389 545h438z" />
    <glyph glyph-name="uni04C4" unicode="&#x4c4;" horiz-adv-x="1052" 
d="M754 483q99 -22 163 -107.5t64 -207.5q0 -279 -165 -435.5t-439 -156.5q-75 0 -154 12l68 269h37q145 0 223 70t78 196q0 79 -43 126.5t-113 63.5l-65 -26l-33 -287h-340l123 1004h348l-47 -377l4 -2q92 74 143 166.5t76 212.5h362q-26 -146 -106.5 -290.5t-183.5 -230.5
z" />
    <glyph glyph-name="uni04C5" unicode="&#x4c5;" horiz-adv-x="1519" 
d="M1262 330h237l-12 -80l-244 -531h-256l94 281h-233l139 1124h-219q-33 -191 -49.5 -282.5t-46 -222t-60.5 -222.5q-35 -103 -74.5 -175.5t-95.5 -127.5t-131.5 -81.5t-173.5 -26.5q-108 0 -186 28l55 303q40 -12 70 -12q137 0 229 326q60 213 160 823h934z" />
    <glyph glyph-name="uni04C6" unicode="&#x4c6;" horiz-adv-x="1185" 
d="M1061 272h115l-7 -51l-225 -477h-246l84 244q-183 34 -159 231l59 502h-6q-51 0 -74 -21t-33 -65q-52 -223 -80 -322q-88 -327 -397 -327q-85 0 -135 20l45 283q27 -8 53 -8q94 0 146 227q38 167 45 203q30 146 116 219.5t238 73.5h465l-82 -666q-4 -38 14.5 -52
t63.5 -14z" />
    <glyph glyph-name="uni04C7" unicode="&#x4c7;" horiz-adv-x="1341" 
d="M967 1454h376l-180 -1454q-28 -227 -153 -323.5t-348 -96.5q-79 0 -138 12l47 277q40 -4 58 -4q69 0 109 30.5t50 104.5l66 537h-360l-66 -537h-375l178 1454h375l-71 -588h360z" />
    <glyph glyph-name="uni04C8" unicode="&#x4c8;" horiz-adv-x="1107" 
d="M725 1004h348l-123 -1004q-25 -201 -143.5 -310.5t-304.5 -109.5q-84 0 -168 17l61 264q31 -8 62 -8q71 0 105 55.5t46 150.5l37 291l-219 -2l-43 -348h-348l123 1004h348l-47 -377l219 2z" />
    <glyph glyph-name="uni04C9" unicode="&#x4c9;" horiz-adv-x="1464" 
d="M1204 330h238l-12 -80l-244 -531h-256l94 281h-236l66 537h-360l-66 -537h-375l178 1454h375l-71 -588h360l72 588h376z" />
    <glyph glyph-name="uni04CA" unicode="&#x4ca;" horiz-adv-x="1191" 
d="M1067 272h115l-6 -51l-226 -477h-245l83 244q-183 34 -159 231l16 131l-219 -2l-43 -348h-348l123 1004h348l-47 -377l221 2l45 375h348l-84 -666q-4 -38 14.5 -52t63.5 -14z" />
    <glyph glyph-name="uni04CB" unicode="&#x4cb;" horiz-adv-x="1224" 
d="M850 1454h377l-180 -1454h-263l-55 -281h-293l62 566h209l28 237q-66 -40 -158.5 -62t-170.5 -22q-360 0 -300 445l78 571h369l-70 -518q-13 -106 9.5 -142t97.5 -36q102 0 180 53z" />
    <glyph glyph-name="uni04CC" unicode="&#x4cc;" horiz-adv-x="1060" 
d="M682 1004h344l-123 -1004h-192q-30 0 -46 -10t-22 -35l-45 -211h-262l33 272q10 84 52.5 115.5t123.5 36.5l35 2l24 203h-6q-49 -52 -137 -87.5t-158 -35.5q-81 0 -133 28t-75 78t-28 119t9 152l53 377h346l-53 -338q-10 -62 3.5 -91.5t61.5 -29.5q55 0 100.5 34.5
t49.5 63.5z" />
    <glyph glyph-name="uni04CD" unicode="&#x4cd;" horiz-adv-x="1722" 
d="M1464 330h238l-12 -80l-244 -531h-256l94 281h-223l88 715l-4 2l-256 -453h-215l-164 465l-6 -2l-88 -727h-363l178 1454h359l248 -749h6l395 749h363z" />
    <glyph glyph-name="uni04CE" unicode="&#x4ce;" horiz-adv-x="1404" 
d="M1280 272h115l-6 -51l-226 -477h-245l86 246q-178 35 -152 229l35 258h-4l-148 -301h-225l-78 303h-4l-59 -479h-334l125 1004h360l148 -523h4l250 523h362l-82 -666q-4 -38 14.5 -52t63.5 -14z" />
    <glyph glyph-name="uni04CF" unicode="&#x4cf;" horiz-adv-x="561" 
d="M43 0l186 1507h351l-187 -1507h-350z" />
    <glyph glyph-name="uni04D0" unicode="&#x4d0;" horiz-adv-x="1288" 
d="M791 1534q-168 0 -242.5 68.5t-93.5 232.5l266 23q7 -61 36.5 -95t67.5 -34q81 0 152 139l244 -84q-153 -250 -430 -250zM-68 0l652 1454h348l295 -1454h-385l-37 246h-393l-88 -246h-392zM524 553h236l-68 455h-4z" />
    <glyph glyph-name="uni04D1" unicode="&#x4d1;" horiz-adv-x="1122" 
d="M657 1122q-168 0 -242 68.5t-93 232.5l266 33q7 -68 33.5 -103.5t64.5 -35.5q40 0 82.5 39t75.5 110l243 -94q-153 -250 -430 -250zM360 -20q-149 0 -233 115t-84 296q0 138 38 258t102 201.5t148 127.5t175 46q144 0 223 -86h6l8 66h351l-123 -1004h-350l16 129l-6 2
q-108 -151 -271 -151zM485 289q72 0 136.5 89.5t89.5 250.5l4 22q-58 64 -137 64q-54 0 -98 -46.5t-65.5 -111.5t-21.5 -129q0 -62 26 -100.5t66 -38.5z" />
    <glyph glyph-name="uni04D2" unicode="&#x4d2;" horiz-adv-x="1288" 
d="M565 1571q-91 0 -147 54t-56 138t58 139.5t151 55.5q91 0 147 -53t56 -136q0 -87 -58 -142.5t-151 -55.5zM1036 1571q-90 0 -146 54t-56 138t58 139.5t152 55.5q90 0 146.5 -53.5t56.5 -135.5q0 -87 -58.5 -142.5t-152.5 -55.5zM-68 0l652 1454h348l295 -1454h-385
l-37 246h-393l-88 -246h-392zM524 553h236l-68 455h-4z" />
    <glyph glyph-name="uni04D3" unicode="&#x4d3;" horiz-adv-x="1122" 
d="M430 1118q-91 0 -147 54.5t-56 138.5t58 139t151 55q91 0 147 -52.5t56 -135.5q0 -87 -58 -143t-151 -56zM901 1118q-90 0 -146.5 54.5t-56.5 138.5t58.5 139t152.5 55q90 0 146.5 -53t56.5 -135q0 -87 -58.5 -143t-152.5 -56zM360 -20q-149 0 -233 115t-84 296
q0 138 38 258t102 201.5t148 127.5t175 46q144 0 223 -86h6l8 66h351l-123 -1004h-350l16 129l-6 2q-108 -151 -271 -151zM485 289q72 0 136.5 89.5t89.5 250.5l4 22q-58 64 -137 64q-54 0 -98 -46.5t-65.5 -111.5t-21.5 -129q0 -62 26 -100.5t66 -38.5z" />
    <glyph glyph-name="uni04D4" unicode="&#x4d4;" horiz-adv-x="1763" 
d="M-68 0l781 1454h1065l-41 -330h-518l-31 -243h411l-40 -318h-410l-29 -233h557l-41 -330h-915l31 246h-303l-125 -246h-392zM604 557h187l57 473h-4z" />
    <glyph glyph-name="uni04D5" unicode="&#x4d5;" horiz-adv-x="1400" 
d="M961 258q82 0 147 94l252 -139q-147 -233 -416 -233q-236 0 -315 159q-111 -162 -283 -162q-144 0 -236 98.5t-92 280.5q0 189 64.5 335.5t193 232.5t304.5 86q133 0 237 -43q102 57 238 57q65 0 125.5 -16t112.5 -48.5t83 -89.5t31 -131q0 -79 -47.5 -146.5t-128 -114
t-180.5 -76.5t-211 -42q14 -52 48.5 -77t72.5 -25zM1026 741q-55 0 -103 -52.5t-73 -139.5q229 41 229 147q0 20 -14 32.5t-39 12.5zM428 270q26 0 50.5 30.5t42.5 80.5t31 99t21 98q16 89 48 157q-110 -8 -182 -104.5t-72 -245.5q0 -55 17 -85t44 -30z" />
    <glyph glyph-name="uni04D6" unicode="&#x4d6;" horiz-adv-x="1091" 
d="M700 1530q-168 0 -242 68.5t-93 232.5l266 22q7 -61 36.5 -95t67.5 -34q80 0 152 140l243 -84q-153 -250 -430 -250zM51 0l178 1454h877l-41 -330h-516l-31 -241h402l-37 -318h-402l-30 -235h555l-41 -330h-914z" />
    <glyph glyph-name="uni04D7" unicode="&#x4d7;" horiz-adv-x="972" 
d="M612 1122q-168 0 -242.5 68.5t-93.5 232.5l267 33q7 -68 33.5 -103.5t64.5 -35.5q40 0 82.5 39t75.5 110l243 -94q-153 -250 -430 -250zM604 1024q63 0 123.5 -17t113.5 -50t84.5 -88.5t30.5 -125.5q-2 -74 -35 -134t-86.5 -100.5t-129.5 -70.5t-155 -47t-171 -26
q12 -54 47.5 -80.5t75.5 -26.5q95 0 160 96l253 -137q-148 -237 -446 -237q-193 0 -310 114t-116 307q0 173 69 314.5t198 225t294 83.5zM629 684q1 27 -14.5 42t-43.5 15q-60 0 -109.5 -52t-72.5 -138q235 26 240 133z" />
    <glyph glyph-name="uni04D8" unicode="&#x4d8;" horiz-adv-x="1427" 
d="M797 1475q272 0 436 -163.5t164 -451.5q0 -244 -88 -442.5t-258.5 -318t-393.5 -119.5q-272 0 -428.5 163t-156.5 457q0 125 39 240h911q-1 138 -71 215.5t-177 77.5q-146 0 -264 -115l-219 274q97 80 239 131.5t267 51.5zM672 307q215 0 295 223h-539
q6 -108 75.5 -165.5t168.5 -57.5z" />
    <glyph glyph-name="uni04D9" unicode="&#x4d9;" horiz-adv-x="962" 
d="M494 1024q202 0 317 -114t115 -316q0 -127 -38.5 -238t-110 -195t-181 -132.5t-242.5 -48.5q-67 0 -127.5 17t-109.5 50.5t-78 89t-29 125.5q0 86 47.5 155.5t131 115.5t182 76t215.5 46q-25 93 -127 93q-82 0 -174 -80l-179 215q65 59 172 100t216 41zM393 260
q65 0 115 54t72 145q-240 -42 -240 -150q0 -21 14 -35t39 -14z" />
    <glyph glyph-name="uni04DA" unicode="&#x4da;" horiz-adv-x="1427" 
d="M657 1571q-91 0 -146.5 54t-55.5 138t58 139.5t151 55.5q91 0 146.5 -53t55.5 -136q0 -87 -58 -142.5t-151 -55.5zM1128 1571q-90 0 -146 54t-56 138t58.5 139.5t152.5 55.5q90 0 146 -53t56 -136q0 -87 -58.5 -142.5t-152.5 -55.5zM797 1475q272 0 436 -163.5
t164 -451.5q0 -244 -88 -442.5t-258.5 -318t-393.5 -119.5q-272 0 -428.5 163t-156.5 457q0 125 39 240h911q-1 138 -71 215.5t-177 77.5q-146 0 -264 -115l-219 274q97 80 239 131.5t267 51.5zM672 307q215 0 295 223h-539q6 -108 75.5 -165.5t168.5 -57.5z" />
    <glyph glyph-name="uni04DB" unicode="&#x4db;" horiz-adv-x="962" 
d="M360 1118q-91 0 -146.5 54.5t-55.5 138.5t58 139t151 55q91 0 146.5 -52.5t55.5 -135.5q0 -87 -58 -143t-151 -56zM840 1505q90 0 146 -53t56 -135q0 -87 -58.5 -143t-152.5 -56q-90 0 -146 54.5t-56 138.5t58.5 139t152.5 55zM494 1024q202 0 317 -114t115 -316
q0 -127 -38.5 -238t-110 -195t-181 -132.5t-242.5 -48.5q-67 0 -127.5 17t-109.5 50.5t-78 89t-29 125.5q0 86 47.5 155.5t131 115.5t182 76t215.5 46q-25 93 -127 93q-82 0 -174 -80l-179 215q65 59 172 100t216 41zM393 260q65 0 115 54t72 145q-240 -42 -240 -150
q0 -21 14 -35t39 -14z" />
    <glyph glyph-name="uni04DC" unicode="&#x4dc;" horiz-adv-x="1861" 
d="M834 1571q-91 0 -147 54t-56 138t58 139.5t151 55.5q91 0 146.5 -53t55.5 -136q0 -87 -57.5 -142.5t-150.5 -55.5zM1305 1571q-90 0 -146.5 54t-56.5 138t58.5 139.5t152.5 55.5q90 0 146.5 -53.5t56.5 -135.5q0 -87 -58.5 -142.5t-152.5 -55.5zM1958 1454l-473 -684
l323 -770h-424l-208 561l-82 -96l-58 -465h-358l55 451l-67 114l-322 -565h-416l480 776l-299 678h438l227 -623l6 3l74 620h363l-76 -608l6 -2l373 610h438z" />
    <glyph glyph-name="uni04DD" unicode="&#x4dd;" horiz-adv-x="1486" 
d="M604 1120q-91 0 -147 54.5t-56 138.5t58 139t151 55q91 0 147 -52.5t56 -135.5q0 -87 -58 -143t-151 -56zM1075 1120q-90 0 -146.5 54.5t-56.5 138.5t58.5 139t152.5 55q90 0 146.5 -53t56.5 -135q0 -87 -58.5 -143t-152.5 -56zM1251 438q13 -52 32 -85.5t45.5 -50.5
t53 -23t64.5 -7l-72 -288q-50 -4 -112 -4q-109 0 -182 76.5t-99 201.5l-18 84q-68 -25 -82 -29l-37 -313h-330l47 379l-2 2q-163 -120 -219 -381h-363q55 297 279 496l-18 69q-13 52 -32 85.5t-45.5 50.5t-53 23t-64.5 7l72 289q50 4 112 4q109 0 182 -77t99 -202l18 -83
l72 24l39 318h328l-47 -386l2 -2q172 119 229 388h362q-55 -298 -278 -496z" />
    <glyph glyph-name="uni04DE" unicode="&#x4de;" horiz-adv-x="1122" 
d="M477 1571q-91 0 -147 54t-56 138t58 139.5t151 55.5q91 0 147 -53t56 -136q0 -87 -58 -142.5t-151 -55.5zM948 1571q-90 0 -146.5 54t-56.5 138t58.5 139.5t152.5 55.5q90 0 146.5 -53.5t56.5 -135.5q0 -87 -58.5 -142.5t-152.5 -55.5zM512 -20q-370 0 -526 245l250 244
q51 -77 124.5 -113.5t153.5 -36.5q89 0 131.5 49t42.5 111q0 52 -40 81.5t-113 29.5h-203l37 295h166q91 0 144.5 37.5t53.5 105.5q0 105 -145 105q-135 0 -246 -82l-197 254q196 165 496 165q216 0 341.5 -88t125.5 -247q0 -108 -61 -202.5t-175 -146.5v-6
q84 -45 141.5 -131.5t57.5 -204.5q0 -99 -33.5 -182t-100 -146.5t-175.5 -99.5t-250 -36z" />
    <glyph glyph-name="uni04DF" unicode="&#x4df;" horiz-adv-x="897" 
d="M276 1120q-91 0 -146.5 54.5t-55.5 138.5t58 139t151 55q91 0 146.5 -52.5t55.5 -135.5q0 -87 -58 -143t-151 -56zM748 1120q-90 0 -146.5 54.5t-56.5 138.5t58.5 139t152.5 55q90 0 146 -53t56 -135q0 -87 -58 -143t-152 -56zM379 -20q-137 0 -231 22t-183 74l117 272
q63 -44 134.5 -66t129.5 -22q156 0 156 80q0 61 -103 61l-159 -2l24 209l129 2q135 3 135 72q0 55 -104 55q-105 0 -221 -51l-129 246q65 35 174 63.5t198 28.5q118 0 211 -28t152 -90.5t59 -151.5q0 -81 -51.5 -137.5t-136.5 -84.5v-4q77 -29 120.5 -88t43.5 -133
q0 -156 -127.5 -241.5t-337.5 -85.5z" />
    <glyph glyph-name="uni04E0" unicode="&#x4e0;" horiz-adv-x="1097" 
d="M512 -20q-370 0 -526 245l250 244q51 -77 124.5 -113.5t153.5 -36.5q88 0 131 48t43 102q0 76 -63 107.5t-209 31.5h-88l16 178l311 332l-4 6h-446l39 330h884l-28 -227l-338 -363v-4q309 -78 309 -395q0 -107 -33.5 -194t-100.5 -153t-175 -102t-250 -36z" />
    <glyph glyph-name="uni04E1" unicode="&#x4e1;" horiz-adv-x="849" 
d="M819 1004l-22 -183l-301 -299q123 -26 205.5 -130.5t82.5 -262.5q0 -261 -144.5 -408t-406.5 -147q-220 0 -364 90l106 268q119 -61 228 -61q108 0 168.5 61.5t60.5 173.5q0 87 -49 136t-125 49q-40 0 -80 -12l-72 188l238 258v6h-299l33 273h741z" />
    <glyph glyph-name="uni04E2" unicode="&#x4e2;" horiz-adv-x="1361" 
d="M522 1589l33 250h596l-33 -250h-596zM53 0l178 1454h369l-108 -846l6 -2l501 848h365l-180 -1454h-369l98 799l-6 4l-493 -803h-361z" />
    <glyph glyph-name="uni04E3" unicode="&#x4e3;" horiz-adv-x="1097" 
d="M342 1186l33 260h596l-33 -260h-596zM324 -20q-70 0 -121 19.5t-89 65t-47.5 121.5t3.5 189l88 629h346l-74 -500q-19 -122 -9.5 -168.5t54.5 -46.5q56 0 113.5 77t66.5 160l60 478h348l-123 -1004h-340l8 131h-6q-118 -151 -278 -151z" />
    <glyph glyph-name="uni04E4" unicode="&#x4e4;" horiz-adv-x="1361" 
d="M604 1571q-91 0 -147 54t-56 138t58 139.5t151 55.5q91 0 147 -53t56 -136q0 -87 -58 -142.5t-151 -55.5zM1075 1571q-90 0 -146.5 54t-56.5 138t58.5 139.5t152.5 55.5q90 0 146.5 -53.5t56.5 -135.5q0 -87 -58.5 -142.5t-152.5 -55.5zM53 0l178 1454h369l-108 -846
l6 -2l501 848h365l-180 -1454h-369l98 799l-6 4l-493 -803h-361z" />
    <glyph glyph-name="uni04E5" unicode="&#x4e5;" horiz-adv-x="1097" 
d="M416 1118q-91 0 -147 54.5t-56 138.5t58 139t151 55q91 0 147 -52.5t56 -135.5q0 -87 -58 -143t-151 -56zM887 1118q-90 0 -146.5 54.5t-56.5 138.5t58.5 139t152.5 55q90 0 146.5 -53t56.5 -135q0 -87 -58.5 -143t-152.5 -56zM324 -20q-70 0 -121 19.5t-89 65
t-47.5 121.5t3.5 189l88 629h346l-74 -500q-19 -122 -9.5 -168.5t54.5 -46.5q56 0 113.5 77t66.5 160l60 478h348l-123 -1004h-340l8 131h-6q-118 -151 -278 -151z" />
    <glyph glyph-name="uni04E6" unicode="&#x4e6;" horiz-adv-x="1486" 
d="M719 1571q-91 0 -147 54t-56 138t58 139.5t151 55.5q91 0 147 -53t56 -136q0 -87 -58 -142.5t-151 -55.5zM1190 1571q-90 0 -146.5 54t-56.5 138t58.5 139.5t152.5 55.5q90 0 146.5 -53.5t56.5 -135.5q0 -87 -58.5 -142.5t-152.5 -55.5zM680 -20q-272 0 -433 164
t-161 456q0 174 55 332.5t153 279t245.5 192t320.5 71.5q271 0 433.5 -163.5t162.5 -451.5q0 -183 -52.5 -342.5t-149 -279.5t-245 -189t-329.5 -69zM709 328q105 0 187.5 66t127.5 182t45 260q0 146 -67 219t-175 73q-99 0 -181.5 -70.5t-128.5 -185.5t-46 -245
q0 -148 66.5 -223.5t171.5 -75.5z" />
    <glyph glyph-name="uni04E7" unicode="&#x4e7;" horiz-adv-x="1083" 
d="M420 1118q-91 0 -147 54.5t-56 138.5t58 139t151 55q91 0 147 -52.5t56 -135.5q0 -87 -58 -143t-151 -56zM891 1118q-90 0 -146.5 54.5t-56.5 138.5t58.5 139t152.5 55q90 0 146.5 -53t56.5 -135q0 -87 -58.5 -143t-152.5 -56zM469 -20q-193 0 -308.5 115t-115.5 321
q0 121 37.5 230t106.5 193.5t177.5 134.5t241.5 50q197 0 313.5 -115.5t116.5 -320.5q0 -123 -33 -229.5t-99.5 -192.5t-178.5 -136t-258 -50zM502 289q81 0 132.5 84t51.5 194q0 81 -33.5 113.5t-74.5 32.5q-55 0 -97.5 -43.5t-63 -108t-20.5 -135.5q0 -73 34 -105t71 -32z
" />
    <glyph glyph-name="uni04E8" unicode="&#x4e8;" horiz-adv-x="1486" 
d="M860 1475q271 0 433.5 -163.5t162.5 -451.5q0 -183 -52 -342.5t-148 -279.5t-243 -189t-327 -69q-277 0 -438.5 163.5t-161.5 456.5q0 174 55 332.5t153 279t245.5 192t320.5 71.5zM829 1139q-121 0 -208 -69.5t-127 -192.5h587q-1 135 -70.5 198.5t-181.5 63.5zM715 317
q120 0 204 67.5t125 195.5h-585q3 -130 74 -196.5t182 -66.5z" />
    <glyph glyph-name="uni04E9" unicode="&#x4e9;" horiz-adv-x="1058" 
d="M596 1024q199 0 314.5 -113t115.5 -323q0 -126 -36.5 -235t-105.5 -193t-179 -132t-248 -48q-196 0 -310 114.5t-114 321.5q0 121 38 230t108 193.5t178 134.5t239 50zM569 748q-62 0 -109 -40t-75 -106l311 6q-3 42 -15.5 71t-32 43t-38.5 20t-41 6zM489 256
q65 0 112 40t71 110l-314 -7q3 -78 42 -110.5t89 -32.5z" />
    <glyph glyph-name="uni04EA" unicode="&#x4ea;" horiz-adv-x="1486" 
d="M719 1571q-91 0 -147 54t-56 138t58 139.5t151 55.5q91 0 147 -53t56 -136q0 -87 -58 -142.5t-151 -55.5zM1190 1571q-90 0 -146.5 54t-56.5 138t58.5 139.5t152.5 55.5q90 0 146.5 -53.5t56.5 -135.5q0 -87 -58.5 -142.5t-152.5 -55.5zM860 1475q271 0 433.5 -163.5
t162.5 -451.5q0 -183 -52 -342.5t-148 -279.5t-243 -189t-327 -69q-277 0 -438.5 163.5t-161.5 456.5q0 174 55 332.5t153 279t245.5 192t320.5 71.5zM829 1139q-121 0 -208 -69.5t-127 -192.5h587q-1 135 -70.5 198.5t-181.5 63.5zM715 317q120 0 204 67.5t125 195.5h-585
q3 -130 74 -196.5t182 -66.5z" />
    <glyph glyph-name="uni04EB" unicode="&#x4eb;" horiz-adv-x="1058" 
d="M410 1118q-91 0 -147 54.5t-56 138.5t58 139t151 55q91 0 146.5 -52.5t55.5 -135.5q0 -87 -57.5 -143t-150.5 -56zM889 1505q90 0 146.5 -53t56.5 -135q0 -87 -58.5 -143t-152.5 -56q-90 0 -146.5 54.5t-56.5 138.5t58.5 139t152.5 55zM596 1024q199 0 314.5 -113
t115.5 -323q0 -126 -36.5 -235t-105.5 -193t-179 -132t-248 -48q-196 0 -310 114.5t-114 321.5q0 121 38 230t108 193.5t178 134.5t239 50zM569 748q-62 0 -109 -40t-75 -106l311 6q-3 42 -15.5 71t-32 43t-38.5 20t-41 6zM489 256q65 0 112 40t71 110l-314 -7
q3 -78 42 -110.5t89 -32.5z" />
    <glyph glyph-name="uni04EC" unicode="&#x4ec;" horiz-adv-x="1310" 
d="M539 1571q-91 0 -147 54t-56 138t58 139.5t151 55.5q91 0 147 -53t56 -136q0 -87 -58 -142.5t-151 -55.5zM1010 1571q-90 0 -146.5 54t-56.5 138t58.5 139.5t152.5 55.5q90 0 146.5 -53.5t56.5 -135.5q0 -87 -58.5 -142.5t-152.5 -55.5zM672 1477q290 0 448 -171
t158 -456q0 -189 -49 -347.5t-142 -275t-236 -182t-323 -65.5q-106 0 -200.5 20.5t-189 77.5t-152.5 147l256 234q89 -140 280 -140q278 0 355 261h-502l37 297h501q-11 126 -85.5 193t-206.5 67q-140 0 -275 -101l-201 267q108 81 245.5 127.5t281.5 46.5z" />
    <glyph glyph-name="uni04ED" unicode="&#x4ed;" horiz-adv-x="952" 
d="M311 1120q-91 0 -146.5 54.5t-55.5 138.5t57.5 139t150.5 55q91 0 147 -52.5t56 -135.5q0 -87 -58 -143t-151 -56zM791 1507q90 0 146 -53t56 -135q0 -87 -58.5 -143t-152.5 -56q-90 0 -146 54.5t-56 138.5t58.5 139t152.5 55zM479 1024q201 0 316.5 -116t111.5 -328
q-3 -132 -40.5 -241.5t-107.5 -189.5t-177.5 -124.5t-243.5 -44.5q-255 0 -379 141l209 213q57 -70 170 -70q80 0 136 37t81 107l-338 -5l25 203l329 4q-8 138 -141 138q-81 0 -170 -80l-178 215q67 60 172.5 100.5t224.5 40.5z" />
    <glyph glyph-name="uni04EE" unicode="&#x4ee;" horiz-adv-x="1249" 
d="M1075 1839l-33 -250h-596l33 250h596zM952 1454h418l-555 -1081q-40 -78 -70.5 -130t-72 -106t-83.5 -85.5t-97 -51.5t-119 -20q-179 0 -287 67l121 313q62 -49 133 -49q95 0 170 129l-393 1014h407l168 -592h10z" />
    <glyph glyph-name="uni04EF" unicode="&#x4ef;" horiz-adv-x="1081" 
d="M944 1446l-33 -260h-596l33 260h596zM705 1004h348l-107 -863q-68 -567 -577 -567q-206 0 -369 98l106 250q107 -72 238 -72q40 0 70 6t60.5 23.5t52 47.5t40 81t29.5 121h-6q-114 -149 -279 -149q-55 0 -98.5 12t-79.5 40t-55 74t-26.5 112.5t7.5 156.5l88 629h347
l-72 -500q-19 -122 -11 -168.5t56 -46.5q54 0 111.5 77.5t66.5 153.5z" />
    <glyph glyph-name="uni04F0" unicode="&#x4f0;" horiz-adv-x="1249" 
d="M528 1571q-91 0 -146.5 54t-55.5 138t58 139.5t151 55.5q91 0 146.5 -53t55.5 -136q0 -87 -58 -142.5t-151 -55.5zM999 1571q-90 0 -146 54t-56 138t58.5 139.5t152.5 55.5q90 0 146 -53t56 -136q0 -87 -58.5 -142.5t-152.5 -55.5zM952 1454h418l-555 -1081
q-40 -78 -70.5 -130t-72 -106t-83.5 -85.5t-97 -51.5t-119 -20q-179 0 -287 67l121 313q62 -49 133 -49q95 0 170 129l-393 1014h407l168 -592h10z" />
    <glyph glyph-name="uni04F1" unicode="&#x4f1;" horiz-adv-x="1081" 
d="M389 1118q-91 0 -147 54.5t-56 138.5t58 139t151 55q91 0 147 -52.5t56 -135.5q0 -87 -58 -143t-151 -56zM860 1118q-90 0 -146.5 54.5t-56.5 138.5t58.5 139t152.5 55q90 0 146.5 -53t56.5 -135q0 -87 -58.5 -143t-152.5 -56zM645 520l60 484h348l-107 -863
q-68 -567 -577 -567q-206 0 -369 98l106 250q107 -72 238 -72q40 0 70 6t60.5 23.5t52 47.5t40 81t29.5 121h-6q-114 -149 -279 -149q-55 0 -98.5 12t-79.5 40t-55 74t-26.5 112.5t7.5 156.5l88 629h347l-72 -500q-19 -122 -11 -168.5t56 -46.5q54 0 111.5 77.5t66.5 153.5z
" />
    <glyph glyph-name="uni04F2" unicode="&#x4f2;" horiz-adv-x="1249" 
d="M948 1905l-266 -312h-307l237 310zM1130 1593h-307l236 310l336 2zM702 862l250 592h418l-555 -1081q-40 -78 -70.5 -130t-72 -106t-83.5 -85.5t-97 -51.5t-119 -20q-179 0 -287 67l121 313q62 -49 133 -49q95 0 170 129l-393 1014h407l168 -592h10z" />
    <glyph glyph-name="uni04F3" unicode="&#x4f3;" horiz-adv-x="1081" 
d="M786 1454l-266 -311h-307l238 309zM969 1143h-307l235 309l336 2zM645 520l60 484h348l-107 -863q-68 -567 -577 -567q-206 0 -369 98l106 250q107 -72 238 -72q40 0 70 6t60.5 23.5t52 47.5t40 81t29.5 121h-6q-114 -149 -279 -149q-55 0 -98.5 12t-79.5 40t-55 74
t-26.5 112.5t7.5 156.5l88 629h347l-72 -500q-19 -122 -11 -168.5t56 -46.5q54 0 111.5 77.5t66.5 153.5z" />
    <glyph glyph-name="uni04F4" unicode="&#x4f4;" horiz-adv-x="1224" 
d="M506 1571q-91 0 -147 54t-56 138t58 139.5t151 55.5q91 0 147 -53t56 -136q0 -87 -58 -142.5t-151 -55.5zM977 1571q-90 0 -146.5 54t-56.5 138t58.5 139.5t152.5 55.5q90 0 146.5 -53.5t56.5 -135.5q0 -87 -58.5 -142.5t-152.5 -55.5zM850 1454h377l-180 -1454h-375
l63 522q-66 -40 -158.5 -62t-170.5 -22q-360 0 -300 445l78 571h369l-70 -518q-13 -106 9.5 -142t97.5 -36q102 0 180 53z" />
    <glyph glyph-name="uni04F5" unicode="&#x4f5;" horiz-adv-x="1060" 
d="M375 1118q-91 0 -147 54.5t-56 138.5t58 139t151 55q91 0 147 -52.5t56 -135.5q0 -87 -58 -143t-151 -56zM846 1118q-90 0 -146.5 54.5t-56.5 138.5t58.5 139t152.5 55q90 0 146.5 -53t56.5 -135q0 -87 -58.5 -143t-152.5 -56zM557 0l47 373h-6q-49 -52 -137 -87.5
t-158 -35.5q-81 0 -133 28t-75 78t-28 119t9 152l53 377h346l-53 -338q-10 -62 3.5 -91.5t61.5 -29.5q55 0 100.5 34.5t49.5 63.5l45 361h344l-123 -1004h-346z" />
    <glyph glyph-name="uni04F6" unicode="&#x4f6;" horiz-adv-x="1040" 
d="M1081 1124h-516l-98 -794h213l-98 -611h-297l22 281h-254l178 1454h891z" />
    <glyph glyph-name="uni04F7" unicode="&#x4f7;" horiz-adv-x="839" 
d="M455 -258l43 328h-4q-42 -40 -103.5 -66.5t-126.5 -26.5q-122 2 -196.5 66t-75.5 184q-1 77 32.5 140t93 111t152.5 95l125 64q45 23 61.5 38.5t16.5 37.5q0 32 -49 32q-70 0 -154 -81l-182 237q62 49 172 86t205 37q160 0 257 -67.5t97 -188.5q0 -111 -60 -186
t-171 -133l-162 -87q-63 -34 -73 -45q-11 -12 -11 -28q0 -35 47 -35q98 0 164 100l254 -190l-90 -422h-262z" />
    <glyph glyph-name="uni04F8" unicode="&#x4f8;" horiz-adv-x="1781" 
d="M799 1571q-91 0 -147 54t-56 138t58 139.5t151 55.5q91 0 147 -53t56 -136q0 -87 -58 -142.5t-151 -55.5zM1270 1571q-90 0 -146.5 54t-56.5 138t58.5 139.5t152.5 55.5q90 0 146.5 -53.5t56.5 -135.5q0 -87 -58.5 -142.5t-152.5 -55.5zM53 0l178 1454h365l-61 -504h196
q92 0 165 -23t120 -61.5t78 -92t44 -111.5t13 -123q0 -282 -148 -410.5t-460 -128.5h-490zM1229 0l178 1454h377l-178 -1454h-377zM457 326h110q199 0 199 184q0 48 -32 84.5t-91 36.5h-147z" />
    <glyph glyph-name="uni04F9" unicode="&#x4f9;" horiz-adv-x="1507" 
d="M594 1118q-91 0 -147 54.5t-56 138.5t58 139t151 55q91 0 147 -52.5t56 -135.5q0 -87 -58 -143t-151 -56zM1065 1118q-90 0 -146.5 54.5t-56.5 138.5t58.5 139t152.5 55q90 0 146.5 -53t56.5 -135q0 -87 -58.5 -143t-152.5 -56zM453 -23q-243 0 -338 115t-58 365l80 547
h346l-49 -314l4 -2q44 66 109.5 99.5t138.5 33.5q124 0 206.5 -96.5t78.5 -247.5q-7 -237 -146 -368.5t-372 -131.5zM1001 0l125 1004h347l-123 -1004h-349zM475 260q61 0 103.5 54t42.5 124q0 54 -30 77.5t-63 23.5q-56 0 -98 -43.5t-49 -110.5q-6 -56 16.5 -90.5
t77.5 -34.5z" />
    </font>
</defs>
</svg>
