<?xml version="1.0" standalone="no"?>
<!DOCTYPE svg PUBLIC "-//W3C//DTD SVG 1.1//EN" "http://www.w3.org/Graphics/SVG/1.1/DTD/svg11.dtd" >
<svg xmlns="http://www.w3.org/2000/svg" xmlns:xlink="http://www.w3.org/1999/xlink" version="1.1">
<metadata>
Created by FontForge 20201107 at Tue Aug  6 05:21:15 2024
 By 
Copyright (c) 2015 by Kostas Bartsokas. All rights reserved.
</metadata>
<defs>
<font id="AvertaStdCY-Thin" horiz-adv-x="0" >
  <font-face 
    font-family="Averta Std CY Thin"
    font-weight="200"
    font-stretch="normal"
    units-per-em="2048"
    panose-1="0 0 3 0 0 0 0 0 0 0"
    ascent="1638"
    descent="-410"
    x-height="993"
    cap-height="1454"
    bbox="-1358 -526 2763 2118"
    underline-thickness="45"
    underline-position="-161"
    unicode-range="U+000D-2E18"
  />
<missing-glyph horiz-adv-x="901" 
 />
    <glyph glyph-name=".notdef" horiz-adv-x="901" 
 />
    <glyph glyph-name=".null" 
 />
    <glyph glyph-name="nonmarkingreturn" horiz-adv-x="682" 
 />
    <glyph glyph-name="CR" unicode="&#xd;" 
 />
    <glyph glyph-name="space" unicode=" " horiz-adv-x="569" 
 />
    <glyph glyph-name="exclam" unicode="!" horiz-adv-x="409" 
d="M176 381l-12 1126h80l-13 -1126h-55zM205 -10q-31 0 -51.5 20t-20.5 51t20.5 50.5t51.5 19.5t51 -19.5t20 -50.5t-20 -51t-51 -20z" />
    <glyph glyph-name="quotedbl" unicode="&#x22;" horiz-adv-x="538" 
d="M98 999l70 455h78l-90 -455h-58zM291 999l71 455h80l-92 -455h-59z" />
    <glyph glyph-name="numbersign" unicode="#" horiz-adv-x="1261" 
d="M289 -55l69 450h-268v62h275l59 372h-295v60h303l70 454h59l-69 -454h385l67 454h60l-70 -454h276v-60h-284l-56 -372h299v-62h-311l-67 -450h-58l68 450h-385l-68 -450h-59zM424 457h385l57 372h-385z" />
    <glyph glyph-name="dollar" unicode="$" horiz-adv-x="1118" 
d="M1020 344q0 -151 -108 -247.5t-302 -100.5v-252h-65v254q-240 15 -426 192l53 56q88 -84 198 -132t224 -48q153 0 251.5 73t98.5 203q0 43 -11 79t-26.5 62.5t-46.5 51.5t-56.5 41t-72 35t-78 30t-88.5 29q-174 59 -237 92q-140 73 -172 189q-11 39 -11 85
q0 143 103 234.5t289 91.5h8v260h65v-266q90 -12 184.5 -48.5t163.5 -86.5l-49 -56q-73 56 -180 91.5t-192 35.5q-138 0 -227 -67.5t-89 -186.5q0 -62 24 -107.5t86 -81.5t101.5 -52.5t136.5 -50.5q13 -5 19 -7q180 -59 250 -97q140 -76 171 -204q11 -43 11 -94z" />
    <glyph glyph-name="percent" unicode="%" horiz-adv-x="1943" 
d="M688 -18l-61 22l626 1466l60 -24zM481 670q-171 0 -286 111t-115 288q0 167 111.5 281t289.5 114q168 0 285 -111t117 -284q0 -169 -112 -284t-290 -115zM481 731q151 0 244.5 97t93.5 241q0 148 -97 240t-241 92q-151 0 -243.5 -95.5t-92.5 -236.5q0 -151 96.5 -244.5
t239.5 -93.5zM1444 -8q-168 0 -284 111t-116 286q0 167 111.5 281t288.5 114q171 0 287 -109.5t116 -285.5q0 -168 -112 -282.5t-291 -114.5zM1446 53q150 0 244 96.5t94 239.5q0 148 -97 241t-241 93q-151 0 -245.5 -96t-94.5 -238q0 -148 98 -242t242 -94z" />
    <glyph glyph-name="ampersand" unicode="&#x26;" horiz-adv-x="1282" 
d="M541 -8q-191 0 -319 113t-128 296q0 129 80 250t211 185v4l-197 219q3 183 112.5 294t293.5 111q140 0 240 -70.5t141 -187.5l-66 -24q-33 98 -114 156t-199 59q-158 0 -243.5 -87t-88.5 -235l705 -788h6q100 156 100 362h70q0 -108 -31 -218.5t-94 -199.5v-4l201 -227
h-88l-156 174h-4q-160 -182 -432 -182zM545 59q237 0 383 166v4l-496 555q-117 -55 -191.5 -159.5t-74.5 -221.5q0 -147 105 -245.5t274 -98.5z" />
    <glyph glyph-name="quotesingle" unicode="'" horiz-adv-x="344" 
d="M98 999l70 455h78l-90 -455h-58z" />
    <glyph glyph-name="parenleft" unicode="(" horiz-adv-x="493" 
d="M346 -283q-211 429 -211 893q0 249 60 481.5t163 411.5l56 -30q-99 -176 -155 -399t-56 -464q0 -247 52.5 -456t150.5 -412z" />
    <glyph glyph-name="parenright" unicode=")" horiz-adv-x="493" 
d="M147 -283l-59 25q98 203 150.5 412t52.5 456q0 241 -56 464t-155 399l55 30q103 -179 163 -411.5t60 -481.5q0 -464 -211 -893z" />
    <glyph glyph-name="asterisk" unicode="*" horiz-adv-x="827" 
d="M383 825l8 277l-235 -146l-29 54l246 131l-248 131l31 51l235 -145l-8 276h59l-8 -276l238 147l28 -53l-245 -131l245 -131l-28 -52l-238 144l8 -277h-59z" />
    <glyph glyph-name="plus" unicode="+" horiz-adv-x="1191" 
d="M561 92v440h-438v66h438v442h68v-442h440v-66h-440v-440h-68z" />
    <glyph glyph-name="comma" unicode="," horiz-adv-x="342" 
d="M72 -264l69 457h80l-92 -457h-57z" />
    <glyph glyph-name="hyphen" unicode="-" horiz-adv-x="827" 
d="M117 596v70h594v-70h-594z" />
    <glyph glyph-name="period" unicode="." horiz-adv-x="378" 
d="M188 -10q-31 0 -51 20t-20 51t20 50.5t51 19.5t51.5 -19.5t20.5 -50.5t-20.5 -51t-51.5 -20z" />
    <glyph glyph-name="slash" unicode="/" horiz-adv-x="778" 
d="M25 -236l-58 29l797 1745l55 -31z" />
    <glyph glyph-name="zero" unicode="0" horiz-adv-x="1251" 
d="M627 -8q-109 0 -201.5 46.5t-161.5 134t-108 223t-39 304.5q0 206 57.5 366t174.5 254.5t278 94.5q108 0 200.5 -46.5t161 -135t107.5 -225.5t39 -308q0 -202 -57 -360.5t-174 -253t-277 -94.5zM627 61q138 0 237.5 83t148 225.5t48.5 330.5q0 310 -121 478t-313 168
q-207 0 -322 -178t-115 -468q0 -306 121.5 -472.5t315.5 -166.5z" />
    <glyph glyph-name="one" unicode="1" horiz-adv-x="675" 
d="M410 0v1317l-322 -244l-41 55l367 279h67v-1407h-71z" />
    <glyph glyph-name="two" unicode="2" horiz-adv-x="1005" 
d="M66 0v59l524 514q113 109 174 207.5t61 216.5q0 152 -94 249t-244 97q-121 0 -211 -59.5t-141 -173.5l-61 37q57 127 161 196.5t254 69.5q168 0 289 -112t121 -300q0 -121 -60.5 -232t-189.5 -237l-473 -458l2 -4h742v-70h-854z" />
    <glyph glyph-name="three" unicode="3" horiz-adv-x="1036" 
d="M504 -8q-166 0 -284.5 68t-174.5 184l66 30q49 -99 148.5 -156t242.5 -57q159 0 262.5 89t103.5 235q0 136 -98 225.5t-281 89.5h-131v68h150q81 0 146 25.5t103 67t57.5 90.5t19.5 100q0 134 -95.5 214.5t-244.5 80.5q-224 0 -342 -166l-64 37q139 198 406 198
q177 0 295 -97t118 -263q0 -101 -61.5 -191t-177.5 -125v-6q128 -37 201 -133.5t73 -226.5q0 -167 -124.5 -274t-313.5 -107z" />
    <glyph glyph-name="four" unicode="4" horiz-adv-x="1107" 
d="M764 0v264h-717v62l723 1081h66v-1075h217v-68h-217v-264h-72zM133 332h631v946z" />
    <glyph glyph-name="five" unicode="5" horiz-adv-x="1093" 
d="M537 879q132 0 237.5 -51t169.5 -153.5t64 -240.5q0 -195 -137.5 -318.5t-340.5 -123.5q-146 0 -267.5 67.5t-182.5 178.5l63 34q53 -97 155 -154t228 -57q176 0 292 105t116 268q0 176 -115 276.5t-291 100.5q-157 0 -276 -84l-55 8l39 674h712v-70h-647l-29 -530
q59 34 132 52t133 18z" />
    <glyph glyph-name="six" unicode="6" horiz-adv-x="1155" 
d="M623 872q198 0 319 -118.5t121 -319.5q0 -122 -58 -222.5t-165.5 -160t-243.5 -59.5q-209 0 -346 146t-137 380q0 159 43 302.5t113 249t161 187.5t185.5 129.5t187.5 63.5l18 -68q-79 -15 -159 -53t-158 -103t-141.5 -148t-109 -197t-60.5 -242q68 105 179.5 169
t250.5 64zM598 61q175 0 283 107.5t108 265.5q0 169 -101.5 269t-273.5 100q-82 0 -154 -25.5t-124.5 -68.5t-90 -95.5t-59.5 -111.5q4 -196 120.5 -318.5t291.5 -122.5z" />
    <glyph glyph-name="seven" unicode="7" horiz-adv-x="989" 
d="M59 1407h867v-64l-619 -1361l-69 20l610 1335h-789v70z" />
    <glyph glyph-name="eight" unicode="8" horiz-adv-x="1157" 
d="M573 -8q-212 0 -345.5 114t-133.5 279q0 140 85 242t227 133v4q-100 24 -171 104t-71 197q0 158 116 254t293 96q186 0 300 -99t114 -251q0 -117 -72.5 -197t-171.5 -104v-4q141 -29 226.5 -131.5t85.5 -243.5q0 -115 -64.5 -205.5t-174 -139t-243.5 -48.5zM573 793
q152 0 247 73.5t95 196.5q0 127 -96 205t-246 78q-153 0 -244 -80.5t-91 -202.5q0 -124 92 -197t243 -73zM573 61q183 0 295.5 95t112.5 233q0 151 -111 242.5t-297 91.5q-184 0 -294.5 -91.5t-110.5 -242.5q0 -144 116 -236t289 -92z" />
    <glyph glyph-name="nine" unicode="9" horiz-adv-x="1163" 
d="M573 1415q209 0 346 -150t136 -397q-1 -115 -26.5 -222t-68.5 -192.5t-101 -161.5t-123 -132.5t-135.5 -100t-138 -70t-130.5 -38.5l-15 67q76 15 157 52.5t165 103t152.5 148.5t118.5 199.5t65 246.5q-69 -106 -186.5 -172t-268.5 -66q-186 0 -305 118t-119 308
q0 94 35 178t97 146t151.5 98.5t193.5 36.5zM528 600q92 0 177.5 31t160.5 99.5t115 166.5q-6 203 -120.5 326t-285.5 123q-182 0 -293.5 -112.5t-111.5 -275.5q0 -162 99 -260t259 -98z" />
    <glyph glyph-name="colon" unicode=":" horiz-adv-x="362" 
d="M180 860q-31 0 -51 20.5t-20 51.5t20 50t51 19t51.5 -19.5t20.5 -49.5q0 -31 -20.5 -51.5t-51.5 -20.5zM180 -10q-31 0 -51 20t-20 51t20 50.5t51 19.5t51.5 -19.5t20.5 -50.5t-20.5 -51t-51.5 -20z" />
    <glyph glyph-name="semicolon" unicode=";" horiz-adv-x="376" 
d="M182 860q-31 0 -51 20.5t-20 51.5t20 50t51 19t51.5 -19.5t20.5 -49.5q0 -31 -20.5 -51.5t-51.5 -20.5zM74 -264l69 457h80l-92 -457h-57z" />
    <glyph glyph-name="less" unicode="&#x3c;" horiz-adv-x="1138" 
d="M1008 125l-887 426v51l887 430v-74l-785 -380l785 -379v-74z" />
    <glyph glyph-name="equal" unicode="=" horiz-adv-x="1148" 
d="M109 762v65h944v-65h-944zM109 303v66h944v-66h-944z" />
    <glyph glyph-name="greater" unicode="&#x3e;" horiz-adv-x="1132" 
d="M147 125v74l785 379l-785 380v74l887 -430v-51z" />
    <glyph glyph-name="question" unicode="?" horiz-adv-x="866" 
d="M358 373v121q0 29 9 60t18 51.5t36 56t37.5 48t49 54t45.5 49.5q80 84 125 162.5t45 175.5q0 134 -87.5 213.5t-211.5 79.5q-95 0 -179.5 -44t-138.5 -128l-51 53q65 93 163 143t208 50q166 0 270.5 -105t104.5 -260q0 -112 -51 -199t-142 -182q-12 -13 -45.5 -48.5
t-46 -49.5t-36 -43t-32.5 -47.5t-17.5 -43.5t-8.5 -48v-119h-64zM393 -10q-31 0 -51 20t-20 51t20 50.5t51 19.5t51.5 -19.5t20.5 -50.5t-20.5 -51t-51.5 -20z" />
    <glyph glyph-name="at" unicode="@" horiz-adv-x="1837" 
d="M836 -270q-205 0 -372 94t-263.5 264t-96.5 383q0 76 14 156t46.5 165t80 162.5t119.5 147.5t160.5 120.5t207.5 80.5t255 30q215 0 384 -88t265.5 -253.5t96.5 -381.5q0 -49 -9 -104t-27 -114t-49 -112.5t-71 -96.5t-97.5 -68t-123.5 -25q-75 0 -117 42.5t-45 127.5
q-4 36 -2 66l-4 2q-47 -100 -143 -157.5t-211 -57.5q-154 0 -260.5 109t-106.5 284q0 60 15 121t49.5 120.5t83.5 105.5t123 74.5t163 28.5q110 0 197 -60t125 -163l2 2l20 213h70l-53 -579l-5 -68q0 -48 8 -78.5t24.5 -44t33 -18t41.5 -4.5q77 0 138.5 47t96 118.5
t52.5 146t18 140.5q0 198 -87.5 350.5t-242.5 234t-352 81.5q-142 0 -264 -35t-209.5 -95.5t-155.5 -139.5t-108.5 -170t-61 -182t-20.5 -181q0 -191 86 -346t239 -243.5t343 -88.5q256 0 450 107l35 -50q-205 -120 -485 -120zM846 180q74 0 136.5 25.5t103.5 66t70 92.5
t41.5 103.5t12.5 99.5q0 139 -82 230.5t-215 91.5q-92 0 -165.5 -33t-118 -87.5t-67.5 -119.5t-23 -133q0 -145 86.5 -240.5t220.5 -95.5z" />
    <glyph glyph-name="A" unicode="A" horiz-adv-x="1325" 
d="M57 0l561 1454h82l568 -1454h-78l-162 418h-731l-162 -418h-78zM322 485h679l-337 881h-5z" />
    <glyph glyph-name="B" unicode="B" horiz-adv-x="1259" 
d="M182 0v1454h428q80 0 148 -11.5t127 -38t100 -66.5t64.5 -100t23.5 -136q0 -121 -66 -212.5t-192 -125.5v-4q66 -10 123.5 -38t104 -72.5t73.5 -112t27 -150.5q0 -178 -125.5 -282.5t-372.5 -104.5h-463zM254 791h389q52 0 100.5 9t95.5 31.5t81.5 56t55.5 86.5t21 120
q0 290 -391 290h-352v-593zM254 70h393q194 0 307 80t113 235q0 162 -110 250t-314 88h-389v-653z" />
    <glyph glyph-name="C" unicode="C" horiz-adv-x="1466" 
d="M838 -6q-148 0 -276.5 48t-226.5 138t-154 229.5t-56 311.5q0 156 47 290.5t135 235.5t224 159t305 58q158 0 302 -68t257 -208l-58 -47q-202 252 -501 252q-150 0 -271.5 -51.5t-200.5 -142.5t-121 -213t-42 -265q0 -155 49.5 -281t136 -207.5t202 -125.5t249.5 -44
q300 0 499 250l58 -47q-219 -272 -557 -272z" />
    <glyph glyph-name="D" unicode="D" horiz-adv-x="1454" 
d="M182 0v1454h393q170 0 311.5 -53.5t239 -149.5t151.5 -231t54 -295q0 -325 -204.5 -525t-544.5 -200h-400zM254 70h324q313 0 495 181t182 474q0 294 -187 476.5t-495 182.5h-319v-1314z" />
    <glyph glyph-name="E" unicode="E" horiz-adv-x="1167" 
d="M182 0v1454h852v-70h-780v-622h653v-70h-653v-622h823v-70h-895z" />
    <glyph glyph-name="F" unicode="F" horiz-adv-x="1134" 
d="M182 0v1454h893v-70h-821v-630h707v-70h-707v-684h-72z" />
    <glyph glyph-name="G" unicode="G" horiz-adv-x="1556" 
d="M840 -6q-155 0 -287.5 53.5t-227 148.5t-147.5 231.5t-53 297.5q0 216 89.5 384t252 261.5t371.5 93.5q323 0 532 -209l-49 -47q-193 185 -483 185q-282 0 -459.5 -185t-177.5 -483q0 -193 80 -344t226 -234.5t333 -83.5q299 0 487 156v420h-526v70h598v-527
q-209 -188 -559 -188z" />
    <glyph glyph-name="H" unicode="H" horiz-adv-x="1429" 
d="M182 0v1454h72v-733h920v733h73v-1454h-73v651h-920v-651h-72z" />
    <glyph glyph-name="I" unicode="I" horiz-adv-x="464" 
d="M195 0v1454h73v-1454h-73z" />
    <glyph glyph-name="J" unicode="J" horiz-adv-x="966" 
d="M436 -6q-94 0 -198.5 49.5t-182.5 140.5l43 56q159 -177 336 -177q144 0 222.5 89.5t78.5 291.5v1010h72v-1018q0 -442 -371 -442z" />
    <glyph glyph-name="K" unicode="K" horiz-adv-x="1267" 
d="M182 0v1454h72v-952h4l819 952h94l-587 -684l600 -770h-94l-555 715l-281 -324v-391h-72z" />
    <glyph glyph-name="L" unicode="L" horiz-adv-x="1093" 
d="M182 0v1454h72v-1384h790v-70h-862z" />
    <glyph glyph-name="M" unicode="M" horiz-adv-x="1755" 
d="M182 0v1454h74l621 -1048h4l618 1048h74v-1454h-74v1311h-2l-590 -998h-59l-590 998h-2v-1311h-74z" />
    <glyph glyph-name="N" unicode="N" horiz-adv-x="1501" 
d="M182 0v1454h70l989 -1329h2v1329h74v-1454h-74l-985 1325h-4v-1325h-72z" />
    <glyph glyph-name="O" unicode="O" horiz-adv-x="1685" 
d="M846 -8q-200 0 -364 91.5t-260.5 261t-96.5 384.5q0 214 96.5 383t260.5 260.5t364 91.5q146 0 277 -53.5t228 -148.5t153.5 -233.5t56.5 -299.5q0 -216 -97 -385.5t-259.5 -260.5t-358.5 -91zM846 63q130 0 247 48.5t203 134.5t136.5 211.5t50.5 271.5t-50.5 271
t-136.5 210.5t-203 134t-247 48.5q-133 0 -251.5 -48.5t-205.5 -134.5t-137.5 -211t-50.5 -270q0 -146 50.5 -271t137.5 -211t205.5 -135t251.5 -49z" />
    <glyph glyph-name="P" unicode="P" horiz-adv-x="1204" 
d="M182 0v1454h484q119 0 208 -31.5t142 -89t78.5 -131.5t25.5 -166q0 -109 -35.5 -191.5t-101.5 -133.5t-155 -76t-199 -25h-375v-610h-72zM254 680h371q217 0 318 97t101 259q0 171 -100.5 259.5t-271.5 88.5h-418v-704z" />
    <glyph glyph-name="Q" unicode="Q" horiz-adv-x="1703" 
d="M1585 43l-45 -53l-209 186q-96 -88 -221.5 -136t-265.5 -48q-158 0 -293 57.5t-228 157t-145.5 234.5t-52.5 288q0 151 52.5 286t145 234t228 157t293.5 58q197 0 360 -91t260 -260t97 -384q0 -301 -181 -504zM201 729q0 -185 80 -336.5t228 -240.5t335 -89
q251 0 432 164l-203 183l43 53l207 -187q160 184 160 453q0 145 -50 270t-136.5 211t-203.5 134.5t-249 48.5q-187 0 -335 -89t-228 -240t-80 -335z" />
    <glyph glyph-name="R" unicode="R" horiz-adv-x="1263" 
d="M182 0v1454h484q117 0 205.5 -31.5t142.5 -88.5t81 -132t27 -166q0 -196 -110.5 -299t-309.5 -121l441 -616h-88l-439 610h-362v-610h-72zM254 680h373q218 0 319 97t101 259q0 173 -101.5 260.5t-281.5 87.5h-410v-704z" />
    <glyph glyph-name="S" unicode="S" horiz-adv-x="1150" 
d="M582 -8q-139 0 -269.5 55t-224.5 166l51 57q75 -101 195.5 -154t251.5 -53q164 0 273.5 78.5t109.5 218.5q0 31 -6 59t-14.5 50t-26 43t-31.5 36t-41.5 32.5t-45.5 28t-53 26t-55 23.5t-61 24t-62 25q-175 70 -247 116q-164 103 -175 264q-1 13 -1 27q0 150 118 250
t301 100q109 0 221.5 -41t202.5 -114l-47 -60q-86 69 -185 106.5t-190 37.5q-90 0 -167 -30.5t-128 -95.5t-51 -153q0 -55 22.5 -101t48.5 -75.5t85.5 -63t93 -48t111.5 -45.5q8 -3 12 -5q176 -70 212 -86q146 -70 197 -165q37 -68 37 -160q0 -165 -125.5 -269t-336.5 -104z
" />
    <glyph glyph-name="T" unicode="T" horiz-adv-x="1122" 
d="M522 0v1384h-469v70h1016v-70h-475v-1384h-72z" />
    <glyph glyph-name="U" unicode="U" horiz-adv-x="1406" 
d="M702 -8q-241 0 -389.5 158.5t-148.5 431.5v872h74v-870q0 -242 127 -381.5t337 -139.5q211 0 340 139.5t129 381.5v870h72v-872q0 -272 -149.5 -431t-391.5 -159z" />
    <glyph glyph-name="V" unicode="V" horiz-adv-x="1306" 
d="M618 0l-557 1454h80l512 -1343h2l512 1343h80l-557 -1454h-72z" />
    <glyph glyph-name="W" unicode="W" horiz-adv-x="2041" 
d="M539 0l-469 1454h77l433 -1341h2l395 1341h88l393 -1341h2l434 1341h78l-469 -1454h-84l-397 1350h-2l-399 -1350h-82z" />
    <glyph glyph-name="X" unicode="X" horiz-adv-x="1261" 
d="M70 0l514 725l-514 729h84l477 -668h2l473 668h88l-516 -729l516 -725h-90l-469 659h-4l-475 -659h-86z" />
    <glyph glyph-name="Y" unicode="Y" horiz-adv-x="1157" 
d="M541 0v659l-506 795h88l452 -717h5l454 717h86l-506 -795v-659h-73z" />
    <glyph glyph-name="Z" unicode="Z" horiz-adv-x="1214" 
d="M115 0v63l866 1319l-2 2h-811v70h909v-65l-866 -1317l2 -2h872v-70h-970z" />
    <glyph glyph-name="bracketleft" unicode="[" horiz-adv-x="550" 
d="M162 -289v1774h311v-60h-248v-1654h248v-60h-311z" />
    <glyph glyph-name="backslash" unicode="\" horiz-adv-x="780" 
d="M772 -236l-795 1743l56 31l796 -1745z" />
    <glyph glyph-name="bracketright" unicode="]" horiz-adv-x="550" 
d="M389 -289h-311v60h248v1654h-248v60h311v-1774z" />
    <glyph glyph-name="asciicircum" unicode="^" horiz-adv-x="931" 
d="M135 1024l297 430h68l297 -430h-76l-256 371l-254 -371h-76z" />
    <glyph glyph-name="underscore" unicode="_" horiz-adv-x="1048" 
d="M-12 -117v60h1075v-60h-1075z" />
    <glyph glyph-name="grave" unicode="`" horiz-adv-x="1038" 
d="M571 1126l-235 265h86l231 -265h-82z" />
    <glyph glyph-name="a" unicode="a" horiz-adv-x="1216" 
d="M582 -8q-135 0 -246.5 61t-177.5 175t-66 259q0 142 61 259t174.5 186t256.5 69q135 0 245.5 -72t165.5 -198l2 2v260h68v-993h-68v254h-2q-56 -121 -163.5 -191.5t-249.5 -70.5zM588 59q173 0 291 119t118 309q0 123 -50 225t-144.5 163t-214.5 61q-178 0 -301 -126
t-123 -323q0 -182 118 -305t306 -123z" />
    <glyph glyph-name="b" unicode="b" horiz-adv-x="1234" 
d="M647 -8q-142 0 -250 70.5t-164 189.5h-2v-252h-67v1507h69v-772h3q57 125 166 195.5t245 70.5q143 0 256 -69t173.5 -186t60.5 -259q0 -145 -66 -259t-177 -175t-247 -61zM643 59q187 0 304.5 123t117.5 305q0 198 -122 323.5t-302 125.5q-120 0 -214.5 -61t-145 -163
t-50.5 -225q0 -190 119 -309t293 -119z" />
    <glyph glyph-name="c" unicode="c" horiz-adv-x="1030" 
d="M573 -8q-213 0 -345 140.5t-132 363.5q0 222 133 363.5t346 141.5q107 0 206.5 -41.5t170.5 -119.5l-51 -47q-54 65 -138.5 104t-184.5 39q-183 0 -297.5 -123.5t-114.5 -316.5q0 -194 113 -315.5t296 -121.5q97 0 186 37t146 103l47 -49q-66 -71 -166 -114.5t-215 -43.5
z" />
    <glyph glyph-name="d" unicode="d" horiz-adv-x="1234" 
d="M588 -8q-136 0 -248 61t-179 175t-67 259q0 217 139 365.5t355 148.5q135 0 245.5 -72t165.5 -198h5v776h67v-1507h-65v258h-5q-52 -121 -161.5 -193.5t-251.5 -72.5zM592 59q174 0 294 119.5t120 308.5q0 188 -116.5 318.5t-297.5 130.5q-180 0 -303 -125.5t-123 -323.5
q0 -182 118.5 -305t307.5 -123z" />
    <glyph glyph-name="e" unicode="e" horiz-adv-x="1097" 
d="M1010 524q0 -33 -2 -37h-842q3 -187 117.5 -307.5t289.5 -120.5q221 0 345 160l51 -41q-139 -186 -394 -186q-210 0 -344.5 142.5t-134.5 361.5q0 218 136 361.5t339 143.5q193 0 316 -135.5t123 -341.5zM569 936q-158 0 -271 -108t-130 -277h772q-14 174 -113.5 279.5
t-257.5 105.5z" />
    <glyph glyph-name="f" unicode="f" horiz-adv-x="645" 
d="M211 0v928h-135v65h135v234q0 145 66.5 218t181.5 73q105 0 203 -58l-15 -63q-95 53 -186 53q-81 0 -130.5 -54.5t-49.5 -172.5v-230h340v-65h-340v-928h-70z" />
    <glyph glyph-name="g" unicode="g" horiz-adv-x="1206" 
d="M598 -414q-215 0 -405 115l18 68q183 -115 387 -115q194 0 292.5 102.5t98.5 274.5v248h-2q-54 -119 -161 -187.5t-251 -68.5q-133 0 -242 60t-174 173.5t-65 259.5q0 134 59.5 244t170.5 175.5t251 65.5q136 0 245.5 -65.5t166.5 -181.5h2v239h68v-962
q0 -204 -117 -324.5t-342 -120.5zM580 90q186 0 298.5 121t112.5 307q0 184 -117 301t-292 117q-122 0 -218 -57t-147 -152t-51 -209q0 -191 119 -309.5t295 -118.5z" />
    <glyph glyph-name="h" unicode="h" horiz-adv-x="1134" 
d="M164 0v1507h69v-762h3q53 121 160 188.5t251 67.5q161 0 253.5 -104.5t92.5 -298.5v-598h-67v571q0 188 -79 276.5t-208 88.5q-185 0 -295.5 -121t-110.5 -323v-492h-69z" />
    <glyph glyph-name="i" unicode="i" horiz-adv-x="419" 
d="M213 1227q-29 0 -49.5 20t-20.5 49q0 30 20 49t50 19q31 0 50.5 -18.5t19.5 -49.5q0 -30 -19.5 -49.5t-50.5 -19.5zM174 0v993h70v-993h-70z" />
    <glyph glyph-name="j" unicode="j" horiz-adv-x="378" 
d="M203 1227q-29 0 -49.5 20t-20.5 49q0 30 20 49t50 19q31 0 50 -18.5t19 -49.5q0 -30 -19.5 -49.5t-49.5 -19.5zM18 -414q-76 0 -137 31l10 68q55 -31 125 -31q150 0 150 186v1153h70v-1153q0 -114 -51.5 -184t-166.5 -70z" />
    <glyph glyph-name="k" unicode="k" horiz-adv-x="1003" 
d="M164 0v1507h69v-1188l3 -2l616 676h92l-391 -428l387 -565h-82l-354 514l-271 -293v-221h-69z" />
    <glyph glyph-name="l" unicode="l" horiz-adv-x="417" 
d="M174 0v1507h70v-1507h-70z" />
    <glyph glyph-name="m" unicode="m" horiz-adv-x="1775" 
d="M164 0v993h69v-245h3q52 118 149.5 185.5t216.5 67.5q130 0 213 -74.5t113 -209.5h2q47 132 148 208t227 76q166 0 250.5 -115t84.5 -317v-569h-69v541q0 195 -71.5 295t-203.5 100q-149 0 -250.5 -124t-101.5 -320v-492h-70v541q0 194 -74 294.5t-206 100.5
q-155 0 -258 -123.5t-103 -320.5v-492h-69z" />
    <glyph glyph-name="n" unicode="n" horiz-adv-x="1124" 
d="M164 0v993h69v-248h3q54 121 160 188.5t243 67.5q159 0 251.5 -105.5t92.5 -299.5v-596h-68v569q0 97 -22 169.5t-62 115t-90.5 62.5t-111.5 20q-179 0 -287.5 -121.5t-108.5 -322.5v-492h-69z" />
    <glyph glyph-name="o" unicode="o" horiz-adv-x="1191" 
d="M596 -8q-146 0 -261 68.5t-177 183t-62 252.5t62 253t177 183.5t261 68.5q138 0 251.5 -62.5t181 -179t67.5 -263.5q0 -146 -67.5 -262t-181 -179t-251.5 -63zM596 59q183 0 305.5 122.5t122.5 314.5q0 96 -33.5 179t-91 140t-136 89t-167.5 32q-189 0 -309.5 -128
t-120.5 -312t120 -310.5t310 -126.5z" />
    <glyph glyph-name="p" unicode="p" horiz-adv-x="1234" 
d="M164 -406v1399h69v-260h3q57 125 166.5 196.5t246.5 71.5q142 0 254.5 -69t173 -186t60.5 -259q0 -145 -65.5 -259t-176.5 -175t-246 -61q-141 0 -249.5 69.5t-163.5 188.5h-3v-656h-69zM645 59q186 0 303 123t117 305q0 198 -122 323.5t-300 125.5q-182 0 -297 -130
t-115 -319q0 -190 119.5 -309t294.5 -119z" />
    <glyph glyph-name="q" unicode="q" horiz-adv-x="1234" 
d="M1006 -406v656h-2q-57 -118 -166 -188t-248 -70q-136 0 -247.5 61t-178 175t-66.5 259q0 142 61 259t175 186t258 69q134 0 244.5 -72t167.5 -198h2v262h67v-1399h-67zM594 59q174 0 293 119t119 309q0 123 -50.5 225t-145 163t-214.5 61q-180 0 -303 -125.5t-123 -323.5
q0 -182 118 -305t306 -123z" />
    <glyph glyph-name="r" unicode="r" horiz-adv-x="663" 
d="M164 0v993h69v-233h5q47 113 136.5 177t209.5 64q41 0 61 -2v-75q-46 4 -61 4q-159 0 -255 -120t-96 -314v-494h-69z" />
    <glyph glyph-name="s" unicode="s" horiz-adv-x="858" 
d="M436 -8q-212 0 -366 139l36 53q70 -61 144.5 -94t185.5 -33q123 0 196 57.5t73 139.5q0 26 -7 48t-15 38t-29 32.5t-34 25.5t-45.5 23t-49 20t-59 20.5t-60.5 21.5q-57 20 -92.5 35t-77.5 39.5t-65.5 50.5t-39.5 64.5t-16 85.5q0 104 85 173.5t210 69.5q186 0 325 -118
l-41 -54q-120 105 -284 105q-93 0 -158.5 -50.5t-65.5 -121.5q0 -36 14 -65.5t32 -48.5t54.5 -39.5t62 -31t73.5 -28.5q163 -58 202 -76q106 -51 136 -127q17 -41 16 -94q-2 -110 -91.5 -185t-248.5 -75z" />
    <glyph glyph-name="t" unicode="t" horiz-adv-x="727" 
d="M422 -8q-130 0 -179.5 69.5t-49.5 206.5v660h-136v65h136v355l69 8v-363h385v-65h-385v-629q0 -125 31.5 -182.5t128.5 -57.5q109 0 201 64l18 -66q-101 -65 -219 -65z" />
    <glyph glyph-name="u" unicode="u" horiz-adv-x="1101" 
d="M514 -8q-179 0 -277 115t-98 315v571h70v-544q0 -196 82 -293t231 -97q154 0 257.5 123t103.5 322v489h69v-993h-69v242l-2 2q-52 -118 -150 -185t-217 -67z" />
    <glyph glyph-name="v" unicode="v" horiz-adv-x="1021" 
d="M479 0l-422 993h78l377 -895h2l373 895h76l-416 -993h-68z" />
    <glyph glyph-name="w" unicode="w" horiz-adv-x="1544" 
d="M418 0l-350 993h71l312 -880h4l280 880h72l285 -880h4l309 880h74l-351 -993h-71l-283 885h-2l-287 -885h-67z" />
    <glyph glyph-name="x" unicode="x" horiz-adv-x="970" 
d="M66 0l376 498l-379 495h89l331 -440h4l334 440h88l-379 -493l379 -500h-86l-336 436h-2l-333 -436h-86z" />
    <glyph glyph-name="y" unicode="y" horiz-adv-x="1044" 
d="M324 -406l176 422l-447 977h80l402 -891h2l372 891h78l-588 -1399h-75z" />
    <glyph glyph-name="z" unicode="z" horiz-adv-x="909" 
d="M61 0v59l678 867v2h-651v65h748v-57l-680 -868v-5h688v-63h-783z" />
    <glyph glyph-name="braceleft" unicode="{" horiz-adv-x="608" 
d="M432 -289q-86 0 -142.5 51.5t-56.5 139.5v501q0 22 -1 35t-5.5 32.5t-14.5 31t-26.5 24t-43.5 19.5t-64 10v61q44 4 74.5 15t46 23t23.5 34t9.5 37.5t1.5 42.5v522q0 83 53.5 139t145.5 56h66v-58h-56q-65 0 -106 -39t-41 -106v-506q0 -88 -25.5 -131.5t-99.5 -56.5v-4
q75 -14 100 -56.5t25 -132.5v-450q0 -96 35.5 -136t111.5 -40h56v-58h-66z" />
    <glyph glyph-name="bar" unicode="|" horiz-adv-x="514" 
d="M223 -236v1745h66v-1745h-66z" />
    <glyph glyph-name="braceright" unicode="}" horiz-adv-x="608" 
d="M176 -289h-65v58h55q76 0 111.5 40t35.5 136v450q0 90 25 132.5t100 56.5v4q-74 13 -99.5 56.5t-25.5 131.5v506q0 67 -41 106t-106 39h-55v58h65q92 0 145.5 -56t53.5 -139v-522q0 -27 1.5 -42.5t9.5 -37.5t23.5 -34t46 -23t74.5 -15v-61q-37 -3 -64 -10t-43.5 -19.5
t-26.5 -24t-14.5 -31t-5.5 -32.5t-1 -35v-501q0 -88 -56.5 -139.5t-142.5 -51.5z" />
    <glyph glyph-name="asciitilde" unicode="~" horiz-adv-x="1114" 
d="M764 465q-20 0 -42.5 4t-38 8.5t-41.5 15.5t-36 15.5t-40 20t-36 18.5q-94 53 -170 53q-117 0 -174 -123l-51 21q70 170 221 170q13 0 25.5 -1t26 -4t23 -4.5t24.5 -7t21.5 -7.5t23 -9t21 -9t22 -10.5t20.5 -9.5q47 -26 67.5 -36.5t60.5 -24t73 -13.5q50 0 93.5 30.5
t68.5 90.5l49 -18q-31 -84 -88.5 -127t-122.5 -43z" />
    <glyph glyph-name="uni00A0" unicode="&#xa0;" horiz-adv-x="569" 
 />
    <glyph glyph-name="exclamdown" unicode="&#xa1;" horiz-adv-x="409" 
d="M205 1001q31 0 51 -20t20 -51t-20 -50.5t-51 -19.5t-51.5 19.5t-20.5 50.5t20.5 51t51.5 20zM176 610h55l13 -1126h-80z" />
    <glyph glyph-name="cent" unicode="&#xa2;" horiz-adv-x="1087" 
d="M1020 262q-64 -66 -160 -109t-203 -49v-229h-61v227q-214 7 -346.5 147.5t-132.5 356.5q0 217 132 357t347 149v248h61v-248q103 -6 197.5 -47.5t161.5 -114.5l-51 -45q-60 65 -148.5 103.5t-193.5 38.5q-193 0 -313 -123.5t-120 -317.5q0 -193 119 -313.5t312 -120.5
q103 0 196.5 36.5t153.5 100.5z" />
    <glyph glyph-name="sterling" unicode="&#xa3;" horiz-adv-x="1126" 
d="M92 0v70h187v669h-144v62h144v170q0 114 31 201t85 139t121.5 78t145.5 26q234 0 356 -201l-49 -49q-103 181 -303 181q-144 0 -230 -99t-86 -286v-160h363v-62h-361v-669h727v-70h-987z" />
    <glyph glyph-name="currency" unicode="&#xa4;" horiz-adv-x="1003" 
d="M872 786q0 -135 -90 -243l158 -156l-43 -43l-156 158q-109 -88 -245 -88t-244 90l-158 -158l-41 43l158 158q-88 106 -88 239q0 138 88 244l-158 160l41 41l160 -160q107 92 244 92q135 0 241 -88l158 158l43 -41l-158 -160q90 -108 90 -246zM498 477q129 0 220 91.5
t91 219.5q-2 130 -92.5 222t-218.5 92q-129 0 -220.5 -91.5t-91.5 -219.5q2 -130 93 -222t219 -92z" />
    <glyph glyph-name="yen" unicode="&#xa5;" horiz-adv-x="1073" 
d="M1042 1407l-417 -711h325v-61h-362l-13 -23v-159h375v-62h-375v-391h-71v391h-383v62h383v159l-12 23h-371v61h334l-418 711h86l416 -717h4l418 717h81z" />
    <glyph glyph-name="brokenbar" unicode="&#xa6;" horiz-adv-x="514" 
d="M223 791v718h68v-718h-68zM223 -233v725h68v-725h-68z" />
    <glyph glyph-name="section" unicode="&#xa7;" horiz-adv-x="1044" 
d="M741 242q164 -85 164 -244q0 -135 -102 -222t-275 -87q-117 0 -223.5 44.5t-185.5 135.5l47 51q65 -80 161 -121t197 -41q130 0 218.5 63t88.5 175q0 44 -18 80t-38.5 58.5t-70 47.5t-78 36.5t-97.5 36.5q-13 5 -19 7q-175 64 -235 97q-137 75 -159 186q-5 24 -5 51
q0 94 55 164.5t153 101.5q-153 92 -153 244q0 127 94.5 211t247.5 84q94 0 191.5 -35t168.5 -94l-45 -53q-66 53 -151 82.5t-158 29.5q-111 0 -192.5 -59.5t-81.5 -163.5q0 -33 10 -61.5t22.5 -49.5t40 -42t46.5 -33.5t60 -30t61.5 -25.5t68.5 -26q166 -60 211 -82
q122 -61 157 -150q17 -44 17 -100q0 -91 -50.5 -160t-142.5 -106zM184 604q0 -28 6 -52t21 -44.5t29.5 -37t43 -33.5t49 -28.5t60 -27.5t64 -25t71.5 -26q88 -30 136 -51q91 23 144.5 80.5t53.5 142.5q0 24 -5 45.5t-11.5 38.5t-21 33.5t-25.5 28t-34 25t-37.5 21.5
t-44.5 20t-46.5 18.5t-52.5 19.5t-54 20q-101 38 -127 49q-98 -16 -158.5 -72.5t-60.5 -144.5z" />
    <glyph glyph-name="dieresis" unicode="&#xa8;" horiz-adv-x="1021" 
d="M354 1202q-29 0 -49 20t-20 48q0 30 19.5 48.5t49.5 18.5q29 0 48.5 -19t19.5 -48t-19.5 -48.5t-48.5 -19.5zM670 1202q-30 0 -50 20t-20 48q0 30 19.5 48.5t50.5 18.5q29 0 48 -19t19 -48t-19 -48.5t-48 -19.5z" />
    <glyph glyph-name="copyright" unicode="&#xa9;" horiz-adv-x="1368" 
d="M684 53q-162 0 -298.5 81.5t-215 219t-78.5 297.5t78.5 297.5t215.5 219t300 81.5q123 0 233 -48t188 -128.5t123.5 -190.5t45.5 -231q0 -159 -77.5 -296.5t-214.5 -219.5t-300 -82zM684 113q146 0 269.5 73.5t193.5 197t70 267.5q0 108 -41.5 207t-111.5 172t-169 116.5
t-209 43.5q-146 0 -269.5 -73.5t-194 -197.5t-70.5 -268q0 -145 70 -268.5t193 -196.5t269 -73zM700 315q-140 0 -232.5 87.5t-92.5 242.5q0 147 85.5 242.5t239.5 95.5q156 0 258 -125l-45 -37q-83 105 -213 105q-127 0 -197.5 -78t-70.5 -203q0 -129 75 -200.5t193 -71.5
q135 0 213 104l45 -39q-97 -123 -258 -123z" />
    <glyph glyph-name="ordfeminine" unicode="&#xaa;" horiz-adv-x="841" 
d="M408 805q-128 0 -213.5 83.5t-85.5 215.5q0 131 83.5 219t215.5 88q76 0 142 -36t105 -101h2v133h62v-596h-62v125h-2q-39 -61 -104 -96t-143 -35zM418 864q102 0 171.5 67.5t69.5 172.5q0 106 -67.5 178t-171.5 72q-106 0 -178 -69.5t-72 -180.5q0 -102 69 -171t179 -69
z" />
    <glyph glyph-name="guillemotleft" unicode="&#xab;" horiz-adv-x="870" 
d="M410 33h-70l-264 467l264 467h70l-260 -467zM729 33h-70l-264 467l264 467h70l-262 -467z" />
    <glyph glyph-name="logicalnot" unicode="&#xac;" horiz-adv-x="1165" 
d="M965 373v317h-830v66h895v-383h-65z" />
    <glyph glyph-name="registered" unicode="&#xae;" horiz-adv-x="1368" 
d="M686 1249q123 0 233 -48t188 -128.5t123.5 -190.5t45.5 -231q0 -159 -77.5 -296.5t-214.5 -219.5t-300 -82q-162 0 -298.5 81.5t-215 219t-78.5 297.5t78.5 297.5t215.5 219t300 81.5zM684 113q146 0 269.5 73.5t193.5 197t70 267.5q0 108 -41.5 207t-111.5 172
t-169 116.5t-209 43.5q-146 0 -269.5 -73.5t-194 -197.5t-70.5 -268q0 -145 70 -268.5t193 -196.5t269 -73zM918 797q0 -170 -170 -193l198 -280h-67l-199 276h-133v-276h-58v663h220q105 0 157 -52.5t52 -137.5zM547 932v-279h147q166 0 166 144q0 64 -39.5 99.5
t-109.5 35.5h-164z" />
    <glyph glyph-name="macron" unicode="&#xaf;" horiz-adv-x="974" 
d="M211 1231v65h555v-65h-555z" />
    <glyph glyph-name="degree" unicode="&#xb0;" horiz-adv-x="790" 
d="M395 924q-113 0 -194.5 79t-81.5 189t83.5 191t192.5 81q110 0 192.5 -81t82.5 -193q0 -109 -81.5 -187.5t-193.5 -78.5zM395 981q88 0 152.5 62t64.5 147q0 88 -65.5 151.5t-151.5 63.5q-87 0 -152 -63.5t-65 -149.5q0 -88 64 -149.5t153 -61.5z" />
    <glyph glyph-name="plusminus" unicode="&#xb1;" horiz-adv-x="1171" 
d="M551 295v440h-438v66h438v442h67v-442h441v-66h-441v-440h-67zM113 0v66h944v-66h-944z" />
    <glyph glyph-name="uni00B2" unicode="&#xb2;" horiz-adv-x="669" 
d="M47 893v49l330 299q74 69 111.5 124.5t37.5 119.5q0 83 -57.5 139.5t-146.5 56.5q-66 0 -128 -34.5t-94 -98.5l-49 35q35 72 110 116t163 44q108 0 187 -70t79 -182q0 -75 -37.5 -141t-122.5 -142l-276 -252l2 -4h446v-59h-555z" />
    <glyph glyph-name="uni00B3" unicode="&#xb3;" horiz-adv-x="675" 
d="M340 885q-110 0 -188 42.5t-113 114.5l57 27q63 -123 240 -123q102 0 160.5 47t58.5 135q0 72 -62.5 122t-168.5 50h-80v60h94q92 0 146.5 44.5t54.5 111.5q0 78 -56.5 122.5t-154.5 44.5q-142 0 -205 -98l-55 33q83 125 260 125q118 0 195 -59t77 -160
q0 -68 -35.5 -118.5t-107.5 -72.5v-4q80 -24 122 -80t42 -133q0 -102 -78 -166.5t-203 -64.5z" />
    <glyph glyph-name="acute" unicode="&#xb4;" horiz-adv-x="1038" 
d="M383 1120l250 279h88l-254 -279h-84z" />
    <glyph glyph-name="uni00B5" unicode="&#xb5;" horiz-adv-x="1132" 
d="M162 -406v1399h69v-540q0 -195 84 -294.5t230 -99.5q154 0 256 122.5t102 320.5v491h70v-993h-64l-6 238h-4q-54 -115 -149 -180.5t-211 -65.5q-223 0 -310 186l-2 -2q4 -152 4 -229v-353h-69z" />
    <glyph glyph-name="paragraph" unicode="&#xb6;" horiz-adv-x="774" 
d="M530 -303v1540h-122v-1237h-60v827q-114 2 -185 63.5t-71 170.5q0 113 69 175t189 62h238v-1601h-58z" />
    <glyph glyph-name="periodcentered" unicode="&#xb7;" horiz-adv-x="346" 
d="M178 418q-31 0 -51.5 20t-20.5 51t20.5 50.5t51.5 19.5t51.5 -19.5t20.5 -50.5t-20.5 -51t-51.5 -20z" />
    <glyph glyph-name="cedilla" unicode="&#xb8;" horiz-adv-x="808" 
d="M365 -379q-57 0 -103 12v56q51 -15 94 -15q55 0 93 25.5t38 75.5q0 44 -44.5 77t-125.5 33l2 43l39 84h58l-35 -80v-4q68 -3 118 -45t50 -112q0 -63 -48.5 -106.5t-135.5 -43.5z" />
    <glyph glyph-name="uni00B9" unicode="&#xb9;" horiz-adv-x="460" 
d="M264 893v758l-198 -135l-33 51l243 168h52v-842h-64z" />
    <glyph glyph-name="ordmasculine" unicode="&#xba;" horiz-adv-x="835" 
d="M418 803q-137 0 -223 87.5t-86 217.5t86 216.5t223 86.5q131 0 219 -85t88 -218t-88 -219t-219 -86zM418 864q103 0 174.5 68.5t71.5 175.5t-71.5 176.5t-174.5 69.5q-110 0 -178 -71t-68 -175q0 -103 68 -173.5t178 -70.5z" />
    <glyph glyph-name="guillemotright" unicode="&#xbb;" horiz-adv-x="870" 
d="M141 33l262 467l-262 467h70l264 -467l-264 -467h-70zM461 33l260 467l-260 467h69l265 -467l-265 -467h-69z" />
    <glyph glyph-name="onequarter" unicode="&#xbc;" horiz-adv-x="1441" 
d="M383 -18l-59 22l626 1466l60 -24zM264 612v758l-198 -135l-33 51l243 168h52v-842h-64zM1194 0v154h-436v51l446 637h51v-629h138v-59h-138v-154h-61zM834 211h362v518z" />
    <glyph glyph-name="onehalf" unicode="&#xbd;" horiz-adv-x="1501" 
d="M383 -18l-59 22l626 1466l60 -24zM264 612v758l-198 -135l-33 51l243 168h52v-842h-64zM879 0v49l329 299q75 70 112.5 125.5t37.5 118.5q0 83 -57.5 139.5t-147.5 56.5q-66 0 -127.5 -34.5t-93.5 -98.5l-49 35q35 72 109.5 116t162.5 44q108 0 187 -70t79 -182
q0 -76 -37.5 -141.5t-121.5 -141.5l-277 -252l2 -4h447v-59h-555z" />
    <glyph glyph-name="threequarters" unicode="&#xbe;" horiz-adv-x="1628" 
d="M569 -18l-59 22l627 1466l59 -24zM340 604q-110 0 -188 43t-113 115l57 26q63 -122 240 -122q102 0 160.5 47t58.5 135q0 72 -62.5 122t-168.5 50h-80v59h94q92 0 146.5 44.5t54.5 111.5q0 78 -56.5 123t-154.5 45q-142 0 -205 -98l-55 32q83 125 260 125q118 0 195 -59
t77 -160q0 -68 -35.5 -118t-107.5 -72v-4q80 -24 122 -80t42 -133q0 -102 -78 -167t-203 -65zM1380 0v154h-436v51l447 637h51v-629h137v-59h-137v-154h-62zM1020 211h362v518z" />
    <glyph glyph-name="questiondown" unicode="&#xbf;" horiz-adv-x="784" 
d="M473 1001q31 0 51.5 -20t20.5 -51t-20.5 -50.5t-51.5 -19.5t-51.5 19.5t-20.5 50.5t20.5 51t51.5 20zM508 618v-120q0 -25 -4.5 -49.5t-17.5 -50t-23.5 -43.5t-33.5 -46.5t-35 -42t-41.5 -45.5t-39.5 -43q-80 -84 -125 -162.5t-45 -175.5q0 -134 87.5 -213.5t211.5 -79.5
q95 0 179.5 44t138.5 128l51 -53q-65 -92 -163 -142t-208 -50q-166 0 -270 104.5t-104 259.5q0 78 30.5 152t67 121t94.5 108q10 11 45 48t46.5 50t35.5 43.5t33 48t17.5 43t8.5 48.5v118h64z" />
    <glyph glyph-name="Agrave" unicode="&#xc0;" horiz-adv-x="1325" 
d="M627 1622l-236 256h86l232 -256h-82zM57 0l561 1454h82l568 -1454h-78l-162 418h-731l-162 -418h-78zM322 485h679l-337 881h-5z" />
    <glyph glyph-name="Aacute" unicode="&#xc1;" horiz-adv-x="1325" 
d="M614 1622l232 256h86l-238 -256h-80zM57 0l561 1454h82l568 -1454h-78l-162 418h-731l-162 -418h-78zM322 485h679l-337 881h-5z" />
    <glyph glyph-name="Acircumflex" unicode="&#xc2;" horiz-adv-x="1325" 
d="M375 1622l252 229h75l246 -229h-82l-200 182h-4l-207 -182h-80zM57 0l561 1454h82l568 -1454h-78l-162 418h-731l-162 -418h-78zM322 485h679l-337 881h-5z" />
    <glyph glyph-name="Atilde" unicode="&#xc3;" horiz-adv-x="1325" 
d="M821 1622q-31 0 -66.5 14.5t-54 26.5t-57.5 39q-78 57 -129 57q-83 0 -129 -123l-55 19q56 166 180 166q29 0 61 -11.5t48 -21t53 -33.5q6 -4 33.5 -23t39 -26t33 -15t39.5 -8q39 0 71 30.5t50 92.5l55 -18q-25 -83 -71 -124.5t-101 -41.5zM57 0l561 1454h82l568 -1454
h-78l-162 418h-731l-162 -418h-78zM322 485h679l-337 881h-5z" />
    <glyph glyph-name="Adieresis" unicode="&#xc4;" horiz-adv-x="1325" 
d="M506 1681q-29 0 -49.5 20t-20.5 48q0 30 20 49t50 19q29 0 48 -19.5t19 -48.5t-19 -48.5t-48 -19.5zM821 1681q-30 0 -49.5 20t-19.5 48q0 31 19 49.5t50 18.5q29 0 48.5 -19.5t19.5 -48.5t-19.5 -48.5t-48.5 -19.5zM57 0l561 1454h82l568 -1454h-78l-162 418h-731
l-162 -418h-78zM322 485h679l-337 881h-5z" />
    <glyph glyph-name="Aring" unicode="&#xc5;" horiz-adv-x="1325" 
d="M659 1597q-63 0 -110 47.5t-47 110.5q0 65 46.5 111.5t110.5 46.5q66 0 114 -46t48 -112q0 -64 -47.5 -111t-114.5 -47zM659 1657q43 0 74 29t31 69q0 41 -31 72t-74 31q-41 0 -70.5 -30.5t-29.5 -72.5q0 -40 29.5 -69t70.5 -29zM57 0l561 1454h82l568 -1454h-78
l-162 418h-731l-162 -418h-78zM322 485h679l-337 881h-5z" />
    <glyph glyph-name="AE" unicode="&#xc6;" horiz-adv-x="1855" 
d="M12 0l828 1454h901v-70h-780v-624h659v-70h-659v-620h821v-70h-895v418h-553l-240 -418h-82zM371 485h516v899h-2z" />
    <glyph glyph-name="Ccedilla" unicode="&#xc7;" horiz-adv-x="1466" 
d="M838 63q300 0 499 250l58 -47q-219 -272 -557 -272h-9l-26 -62v-4q68 -3 118 -45t50 -112q0 -63 -49 -106.5t-136 -43.5q-56 0 -102 12v56q51 -15 94 -15q55 0 93 25.5t38 75.5q0 44 -44.5 77t-125.5 33l2 43l31 68q-136 10 -253 63t-205 142.5t-138.5 223.5t-50.5 296
q0 156 47 290.5t135 235.5t224 159t305 58q158 0 302 -68t257 -208l-58 -47q-202 252 -501 252q-150 0 -271.5 -51.5t-200.5 -142.5t-121 -213t-42 -265q0 -155 49.5 -281t136 -207.5t202 -125.5t249.5 -44z" />
    <glyph glyph-name="Egrave" unicode="&#xc8;" horiz-adv-x="1167" 
d="M659 1622l-235 256h86l231 -256h-82zM182 0v1454h852v-70h-780v-622h653v-70h-653v-622h823v-70h-895z" />
    <glyph glyph-name="Eacute" unicode="&#xc9;" horiz-adv-x="1167" 
d="M442 1622l232 256h86l-238 -256h-80zM182 0v1454h852v-70h-780v-622h653v-70h-653v-622h823v-70h-895z" />
    <glyph glyph-name="Ecircumflex" unicode="&#xca;" horiz-adv-x="1167" 
d="M307 1622l252 229h76l246 -229h-82l-201 182h-4l-207 -182h-80zM182 0v1454h852v-70h-780v-622h653v-70h-653v-622h823v-70h-895z" />
    <glyph glyph-name="Edieresis" unicode="&#xcb;" horiz-adv-x="1167" 
d="M438 1681q-29 0 -49 20t-20 48q0 30 19.5 49t49.5 19q29 0 48.5 -19.5t19.5 -48.5t-19.5 -48.5t-48.5 -19.5zM754 1681q-30 0 -50 20t-20 48q0 31 19.5 49.5t50.5 18.5q29 0 48 -19.5t19 -48.5t-19 -48.5t-48 -19.5zM182 0v1454h852v-70h-780v-622h653v-70h-653v-622h823
v-70h-895z" />
    <glyph glyph-name="Igrave" unicode="&#xcc;" horiz-adv-x="464" 
d="M186 1622l-235 256h86l231 -256h-82zM195 0v1454h73v-1454h-73z" />
    <glyph glyph-name="Iacute" unicode="&#xcd;" horiz-adv-x="464" 
d="M197 1622l231 256h86l-238 -256h-79zM195 0v1454h73v-1454h-73z" />
    <glyph glyph-name="Icircumflex" unicode="&#xce;" horiz-adv-x="464" 
d="M-55 1622l252 229h75l246 -229h-82l-200 182h-5l-206 -182h-80zM195 0v1454h73v-1454h-73z" />
    <glyph glyph-name="Idieresis" unicode="&#xcf;" horiz-adv-x="464" 
d="M76 1681q-29 0 -49.5 20t-20.5 48q0 30 20 49t50 19q29 0 48 -19.5t19 -48.5t-19 -48.5t-48 -19.5zM391 1681q-30 0 -49.5 20t-19.5 48q0 31 19 49.5t50 18.5q29 0 48.5 -19.5t19.5 -48.5t-19.5 -48.5t-48.5 -19.5zM195 0v1454h73v-1454h-73z" />
    <glyph glyph-name="Eth" unicode="&#xd0;" horiz-adv-x="1454" 
d="M575 1454q170 0 311.5 -53.5t239 -149.5t151.5 -231t54 -295q0 -325 -204.5 -525t-544.5 -200h-400v698h-172v70h172v686h393zM578 70q313 0 495 181t182 474q0 294 -187 476.5t-495 182.5h-319v-616h459v-70h-459v-628h324z" />
    <glyph glyph-name="Ntilde" unicode="&#xd1;" horiz-adv-x="1501" 
d="M909 1622q-31 0 -66.5 14.5t-54 26.5t-57.5 39q-78 57 -129 57q-83 0 -129 -123l-55 19q56 166 180 166q29 0 61 -11.5t48 -21t53 -33.5q6 -4 33.5 -23t39 -26t33 -15t39.5 -8q39 0 71 30.5t50 92.5l55 -18q-25 -83 -71 -124.5t-101 -41.5zM182 0v1454h70l989 -1329h2
v1329h74v-1454h-74l-985 1325h-4v-1325h-72z" />
    <glyph glyph-name="Ograve" unicode="&#xd2;" horiz-adv-x="1685" 
d="M817 1622l-235 256h86l231 -256h-82zM846 -8q-200 0 -364 91.5t-260.5 261t-96.5 384.5q0 214 96.5 383t260.5 260.5t364 91.5q146 0 277 -53.5t228 -148.5t153.5 -233.5t56.5 -299.5q0 -216 -97 -385.5t-259.5 -260.5t-358.5 -91zM846 63q130 0 247 48.5t203 134.5
t136.5 211.5t50.5 271.5t-50.5 271t-136.5 210.5t-203 134t-247 48.5q-133 0 -251.5 -48.5t-205.5 -134.5t-137.5 -211t-50.5 -270q0 -146 50.5 -271t137.5 -211t205.5 -135t251.5 -49z" />
    <glyph glyph-name="Oacute" unicode="&#xd3;" horiz-adv-x="1685" 
d="M768 1622l231 256h86l-237 -256h-80zM846 -8q-200 0 -364 91.5t-260.5 261t-96.5 384.5q0 214 96.5 383t260.5 260.5t364 91.5q146 0 277 -53.5t228 -148.5t153.5 -233.5t56.5 -299.5q0 -216 -97 -385.5t-259.5 -260.5t-358.5 -91zM846 63q130 0 247 48.5t203 134.5
t136.5 211.5t50.5 271.5t-50.5 271t-136.5 210.5t-203 134t-247 48.5q-133 0 -251.5 -48.5t-205.5 -134.5t-137.5 -211t-50.5 -270q0 -146 50.5 -271t137.5 -211t205.5 -135t251.5 -49z" />
    <glyph glyph-name="Ocircumflex" unicode="&#xd4;" horiz-adv-x="1685" 
d="M557 1622l252 229h76l245 -229h-81l-201 182h-4l-207 -182h-80zM846 -8q-200 0 -364 91.5t-260.5 261t-96.5 384.5q0 214 96.5 383t260.5 260.5t364 91.5q146 0 277 -53.5t228 -148.5t153.5 -233.5t56.5 -299.5q0 -216 -97 -385.5t-259.5 -260.5t-358.5 -91zM846 63
q130 0 247 48.5t203 134.5t136.5 211.5t50.5 271.5t-50.5 271t-136.5 210.5t-203 134t-247 48.5q-133 0 -251.5 -48.5t-205.5 -134.5t-137.5 -211t-50.5 -270q0 -146 50.5 -271t137.5 -211t205.5 -135t251.5 -49z" />
    <glyph glyph-name="Otilde" unicode="&#xd5;" horiz-adv-x="1685" 
d="M1004 1622q-31 0 -66.5 14t-55 27t-57.5 39q-78 57 -129 57q-83 0 -129 -123l-55 19q56 166 180 166q29 0 61 -11.5t48 -21t53 -33.5q6 -4 33.5 -23t39 -26t33 -15t39.5 -8q39 0 71 30.5t50 92.5l56 -18q-25 -83 -71 -124.5t-101 -41.5zM846 -8q-200 0 -364 91.5
t-260.5 261t-96.5 384.5q0 214 96.5 383t260.5 260.5t364 91.5q146 0 277 -53.5t228 -148.5t153.5 -233.5t56.5 -299.5q0 -216 -97 -385.5t-259.5 -260.5t-358.5 -91zM846 63q130 0 247 48.5t203 134.5t136.5 211.5t50.5 271.5t-50.5 271t-136.5 210.5t-203 134t-247 48.5
q-133 0 -251.5 -48.5t-205.5 -134.5t-137.5 -211t-50.5 -270q0 -146 50.5 -271t137.5 -211t205.5 -135t251.5 -49z" />
    <glyph glyph-name="Odieresis" unicode="&#xd6;" horiz-adv-x="1685" 
d="M688 1681q-29 0 -49.5 20t-20.5 48q0 30 20 49t50 19q29 0 48.5 -19.5t19.5 -48.5t-19.5 -48.5t-48.5 -19.5zM1004 1681q-30 0 -50 20t-20 48q0 31 19.5 49.5t50.5 18.5q29 0 48 -19.5t19 -48.5t-19 -48.5t-48 -19.5zM846 -8q-200 0 -364 91.5t-260.5 261t-96.5 384.5
q0 214 96.5 383t260.5 260.5t364 91.5q146 0 277 -53.5t228 -148.5t153.5 -233.5t56.5 -299.5q0 -216 -97 -385.5t-259.5 -260.5t-358.5 -91zM846 63q130 0 247 48.5t203 134.5t136.5 211.5t50.5 271.5t-50.5 271t-136.5 210.5t-203 134t-247 48.5q-133 0 -251.5 -48.5
t-205.5 -134.5t-137.5 -211t-50.5 -270q0 -146 50.5 -271t137.5 -211t205.5 -135t251.5 -49z" />
    <glyph glyph-name="multiply" unicode="&#xd7;" horiz-adv-x="993" 
d="M166 190l-47 46l330 329l-330 330l47 47l328 -330l331 330l47 -45l-331 -332l329 -329l-47 -46l-329 328z" />
    <glyph glyph-name="Oslash" unicode="&#xd8;" horiz-adv-x="1685" 
d="M1370 1241q191 -204 191 -512q0 -216 -97 -385.5t-259.5 -260.5t-358.5 -91q-280 0 -479 174l-179 -193l-53 45l182 195q-192 208 -192 516q0 214 96.5 383t260.5 260.5t364 91.5q279 0 477 -176l166 176l49 -43zM201 729q0 -275 168 -461l903 965q-177 160 -426 160
q-133 0 -251.5 -48.5t-205.5 -134.5t-137.5 -211t-50.5 -270zM846 63q130 0 247 48.5t203 134.5t136.5 211.5t50.5 271.5q0 272 -164 457l-901 -967q183 -156 428 -156z" />
    <glyph glyph-name="Ugrave" unicode="&#xd9;" horiz-adv-x="1406" 
d="M705 1622l-236 256h86l231 -256h-81zM702 -8q-241 0 -389.5 158.5t-148.5 431.5v872h74v-870q0 -242 127 -381.5t337 -139.5q211 0 340 139.5t129 381.5v870h72v-872q0 -272 -149.5 -431t-391.5 -159z" />
    <glyph glyph-name="Uacute" unicode="&#xda;" horiz-adv-x="1406" 
d="M594 1622l231 256h86l-237 -256h-80zM702 -8q-241 0 -389.5 158.5t-148.5 431.5v872h74v-870q0 -242 127 -381.5t337 -139.5q211 0 340 139.5t129 381.5v870h72v-872q0 -272 -149.5 -431t-391.5 -159z" />
    <glyph glyph-name="Ucircumflex" unicode="&#xdb;" horiz-adv-x="1406" 
d="M418 1622l252 229h75l246 -229h-82l-200 182h-4l-207 -182h-80zM702 -8q-241 0 -389.5 158.5t-148.5 431.5v872h74v-870q0 -242 127 -381.5t337 -139.5q211 0 340 139.5t129 381.5v870h72v-872q0 -272 -149.5 -431t-391.5 -159z" />
    <glyph glyph-name="Udieresis" unicode="&#xdc;" horiz-adv-x="1406" 
d="M549 1681q-29 0 -49.5 20t-20.5 48q0 30 20 49t50 19q29 0 48 -19.5t19 -48.5t-19 -48.5t-48 -19.5zM864 1681q-30 0 -49.5 20t-19.5 48q0 31 19 49.5t50 18.5q29 0 48.5 -19.5t19.5 -48.5t-19.5 -48.5t-48.5 -19.5zM702 -8q-241 0 -389.5 158.5t-148.5 431.5v872h74
v-870q0 -242 127 -381.5t337 -139.5q211 0 340 139.5t129 381.5v870h72v-872q0 -272 -149.5 -431t-391.5 -159z" />
    <glyph glyph-name="Yacute" unicode="&#xdd;" horiz-adv-x="1157" 
d="M522 1622l232 256h86l-238 -256h-80zM541 0v659l-506 795h88l452 -717h5l454 717h86l-506 -795v-659h-73z" />
    <glyph glyph-name="Thorn" unicode="&#xde;" horiz-adv-x="1239" 
d="M182 0v1454h72v-317h446q121 0 210.5 -31t142.5 -87.5t78.5 -130.5t25.5 -167q0 -109 -35.5 -191.5t-101.5 -133.5t-155 -76t-199 -25h-412v-295h-72zM254 365h418q209 0 309 97.5t100 260.5q0 173 -100 259.5t-274 86.5h-453v-704z" />
    <glyph glyph-name="germandbls" unicode="&#xdf;" horiz-adv-x="1214" 
d="M438 -8v67h228q174 0 286.5 107t112.5 285q0 104 -49 194.5t-146.5 148.5t-224.5 58h-135v63h129q81 1 142.5 20t96 46.5t56.5 64.5t28.5 68t6.5 62q0 130 -93 202t-262 72q-180 0 -280.5 -104t-100.5 -320v-1026h-69v1026q0 245 120 368.5t330 123.5q197 0 310.5 -90.5
t113.5 -249.5q0 -36 -9 -73.5t-31 -80.5t-67.5 -78.5t-109.5 -54.5v-4q145 -48 229.5 -170t84.5 -268q0 -206 -131 -331.5t-330 -125.5h-236z" />
    <glyph glyph-name="agrave" unicode="&#xe0;" horiz-adv-x="1216" 
d="M596 1155l-236 264h86l232 -264h-82zM582 -8q-135 0 -246.5 61t-177.5 175t-66 259q0 142 61 259t174.5 186t256.5 69q135 0 245.5 -72t165.5 -198l2 2v260h68v-993h-68v254h-2q-56 -121 -163.5 -191.5t-249.5 -70.5zM588 59q173 0 291 119t118 309q0 123 -50 225
t-144.5 163t-214.5 61q-178 0 -301 -126t-123 -323q0 -182 118 -305t306 -123z" />
    <glyph glyph-name="aacute" unicode="&#xe1;" horiz-adv-x="1216" 
d="M580 1149l249 278h89l-254 -278h-84zM582 -8q-135 0 -246.5 61t-177.5 175t-66 259q0 142 61 259t174.5 186t256.5 69q135 0 245.5 -72t165.5 -198l2 2v260h68v-993h-68v254h-2q-56 -121 -163.5 -191.5t-249.5 -70.5zM588 59q173 0 291 119t118 309q0 123 -50 225
t-144.5 163t-214.5 61q-178 0 -301 -126t-123 -323q0 -182 118 -305t306 -123z" />
    <glyph glyph-name="acircumflex" unicode="&#xe2;" horiz-adv-x="1216" 
d="M305 1147l252 268h76l244 -268h-80l-199 217h-4l-209 -217h-80zM582 -8q-135 0 -246.5 61t-177.5 175t-66 259q0 142 61 259t174.5 186t256.5 69q135 0 245.5 -72t165.5 -198l2 2v260h68v-993h-68v254h-2q-56 -121 -163.5 -191.5t-249.5 -70.5zM588 59q173 0 291 119
t118 309q0 123 -50 225t-144.5 163t-214.5 61q-178 0 -301 -126t-123 -323q0 -182 118 -305t306 -123z" />
    <glyph glyph-name="atilde" unicode="&#xe3;" horiz-adv-x="1216" 
d="M752 1182q-12 0 -25 2.5t-22.5 4.5t-24.5 9.5t-22 10.5t-24 13.5t-20.5 12.5t-22.5 15t-20 14q-76 55 -127 55q-83 0 -129 -123l-55 18q55 166 180 166q75 0 158 -61q8 -6 28 -20t31 -21t27.5 -16t31 -13t29.5 -4q39 0 72 31t51 92l56 -18q-24 -83 -70.5 -125.5
t-101.5 -42.5zM582 -8q-135 0 -246.5 61t-177.5 175t-66 259q0 142 61 259t174.5 186t256.5 69q135 0 245.5 -72t165.5 -198l2 2v260h68v-993h-68v254h-2q-56 -121 -163.5 -191.5t-249.5 -70.5zM588 59q173 0 291 119t118 309q0 123 -50 225t-144.5 163t-214.5 61
q-178 0 -301 -126t-123 -323q0 -182 118 -305t306 -123z" />
    <glyph glyph-name="adieresis" unicode="&#xe4;" horiz-adv-x="1216" 
d="M432 1229q-29 0 -49.5 19.5t-20.5 47.5q0 30 20 49t50 19q29 0 48.5 -19.5t19.5 -48.5t-19.5 -48t-48.5 -19zM748 1229q-30 0 -50 19.5t-20 47.5q0 31 19.5 49.5t50.5 18.5q29 0 48 -19.5t19 -48.5t-19 -48t-48 -19zM582 -8q-135 0 -246.5 61t-177.5 175t-66 259
q0 142 61 259t174.5 186t256.5 69q135 0 245.5 -72t165.5 -198l2 2v260h68v-993h-68v254h-2q-56 -121 -163.5 -191.5t-249.5 -70.5zM588 59q173 0 291 119t118 309q0 123 -50 225t-144.5 163t-214.5 61q-178 0 -301 -126t-123 -323q0 -182 118 -305t306 -123z" />
    <glyph glyph-name="aring" unicode="&#xe5;" horiz-adv-x="1216" 
d="M590 1130q-63 0 -110.5 47.5t-47.5 110.5q0 64 47 111t111 47q66 0 114 -46t48 -112q0 -64 -47.5 -111t-114.5 -47zM590 1190q43 0 73.5 29t30.5 69q0 42 -31 72.5t-73 30.5q-41 0 -71 -31t-30 -72q0 -40 30 -69t71 -29zM582 -8q-135 0 -246.5 61t-177.5 175t-66 259
q0 142 61 259t174.5 186t256.5 69q135 0 245.5 -72t165.5 -198l2 2v260h68v-993h-68v254h-2q-56 -121 -163.5 -191.5t-249.5 -70.5zM588 59q173 0 291 119t118 309q0 123 -50 225t-144.5 163t-214.5 61q-178 0 -301 -126t-123 -323q0 -182 118 -305t306 -123z" />
    <glyph glyph-name="ae" unicode="&#xe6;" horiz-adv-x="1622" 
d="M1528 520v-33h-735q9 -201 104.5 -314.5t253.5 -113.5q72 0 126.5 20.5t89.5 52.5t75 87l51 -41q-66 -94 -144 -140t-198 -46q-149 0 -242.5 77.5t-134.5 198.5h-2q-33 -128 -139 -202t-248 -74q-149 0 -230 82.5t-81 204.5q0 121 90 196.5t268 75.5h295v45
q0 187 -51 262.5t-180 75.5q-162 0 -308 -84l-30 57q157 94 340 94q132 0 197.5 -64t84.5 -198h2q45 121 138.5 191.5t218.5 70.5q168 0 278.5 -137t110.5 -344zM797 551h659q-9 173 -94 279t-223 106q-147 0 -237.5 -106.5t-104.5 -278.5zM389 57q142 0 240 88.5t98 247.5
v96l-293 -2q-128 0 -209.5 -53.5t-81.5 -154.5q0 -93 63.5 -157.5t182.5 -64.5z" />
    <glyph glyph-name="ccedilla" unicode="&#xe7;" horiz-adv-x="1030" 
d="M573 -8l-26 -60v-4q68 -3 118 -45t50 -112q0 -63 -49 -106.5t-136 -43.5q-56 0 -102 12v56q51 -15 94 -15q55 0 93 25.5t38 75.5q0 44 -44.5 77t-125.5 33l2 43l31 66q-189 20 -304.5 157.5t-115.5 344.5q0 222 133 363.5t346 141.5q107 0 206.5 -41.5t170.5 -119.5
l-51 -47q-54 65 -138.5 104t-184.5 39q-183 0 -297.5 -123.5t-114.5 -316.5q0 -194 113 -315.5t296 -121.5q97 0 186 37t146 103l47 -49q-66 -71 -166 -114.5t-215 -43.5z" />
    <glyph glyph-name="egrave" unicode="&#xe8;" horiz-adv-x="1097" 
d="M666 1155h-82l-236 264h86zM1010 524q0 -33 -2 -37h-842q3 -187 117.5 -307.5t289.5 -120.5q221 0 345 160l51 -41q-139 -186 -394 -186q-210 0 -344.5 142.5t-134.5 361.5q0 218 136 361.5t339 143.5q193 0 316 -135.5t123 -341.5zM569 936q-158 0 -271 -108t-130 -277
h772q-14 174 -113.5 279.5t-257.5 105.5z" />
    <glyph glyph-name="eacute" unicode="&#xe9;" horiz-adv-x="1097" 
d="M850 1427l-254 -278h-84l250 278h88zM1010 524q0 -33 -2 -37h-842q3 -187 117.5 -307.5t289.5 -120.5q221 0 345 160l51 -41q-139 -186 -394 -186q-210 0 -344.5 142.5t-134.5 361.5q0 218 136 361.5t339 143.5q193 0 316 -135.5t123 -341.5zM569 936q-158 0 -271 -108
t-130 -277h772q-14 174 -113.5 279.5t-257.5 105.5z" />
    <glyph glyph-name="ecircumflex" unicode="&#xea;" horiz-adv-x="1097" 
d="M575 1364l-208 -217h-80l252 268h75l244 -268h-80l-198 217h-5zM1010 524q0 -33 -2 -37h-842q3 -187 117.5 -307.5t289.5 -120.5q221 0 345 160l51 -41q-139 -186 -394 -186q-210 0 -344.5 142.5t-134.5 361.5q0 218 136 361.5t339 143.5q193 0 316 -135.5t123 -341.5z
M569 936q-158 0 -271 -108t-130 -277h772q-14 174 -113.5 279.5t-257.5 105.5z" />
    <glyph glyph-name="edieresis" unicode="&#xeb;" horiz-adv-x="1097" 
d="M414 1229q-29 0 -49.5 19.5t-20.5 47.5q0 30 20 49t50 19q29 0 48 -19.5t19 -48.5t-19 -48t-48 -19zM729 1229q-30 0 -50 19.5t-20 47.5q0 31 19.5 49.5t50.5 18.5q29 0 48.5 -19.5t19.5 -48.5t-19.5 -48t-48.5 -19zM1010 524q0 -33 -2 -37h-842q3 -187 117.5 -307.5
t289.5 -120.5q221 0 345 160l51 -41q-139 -186 -394 -186q-210 0 -344.5 142.5t-134.5 361.5q0 218 136 361.5t339 143.5q193 0 316 -135.5t123 -341.5zM569 936q-158 0 -271 -108t-130 -277h772q-14 174 -113.5 279.5t-257.5 105.5z" />
    <glyph glyph-name="igrave" unicode="&#xec;" horiz-adv-x="419" 
d="M166 1149l-184 278h84l178 -278h-78zM174 0v993h70v-993h-70z" />
    <glyph glyph-name="iacute" unicode="&#xed;" horiz-adv-x="419" 
d="M180 1149l250 278h88l-254 -278h-84zM174 0v993h70v-993h-70z" />
    <glyph glyph-name="icircumflex" unicode="&#xee;" horiz-adv-x="419" 
d="M-76 1147l252 268h76l244 -268h-80l-199 217h-4l-209 -217h-80zM174 0v993h70v-993h-70z" />
    <glyph glyph-name="idieresis" unicode="&#xef;" horiz-adv-x="419" 
d="M51 1229q-29 0 -49 19.5t-20 47.5q0 30 19.5 49t49.5 19q29 0 48.5 -19.5t19.5 -48.5t-19.5 -48t-48.5 -19zM367 1229q-30 0 -50 19.5t-20 47.5q0 31 19.5 49.5t50.5 18.5q29 0 48 -19.5t19 -48.5t-19 -48t-48 -19zM174 0v993h70v-993h-70z" />
    <glyph glyph-name="eth" unicode="&#xf0;" horiz-adv-x="1191" 
d="M893 1120q201 -270 201 -600q0 -233 -138.5 -380.5t-361.5 -147.5q-137 0 -250 62.5t-180.5 178t-67.5 261.5q0 137 61.5 252t174.5 183t254 68q119 0 220.5 -49.5t166.5 -136.5q2 -2 6 -10l6 4q-54 155 -145 280q-78 104 -178 185l-144 -162l-49 39l143 162
q-134 95 -282 147l22 57q168 -57 303 -157l152 172l51 -39l-153 -172q108 -86 188 -197zM594 59q190 0 309 128t119 325q0 180 -123.5 299t-302.5 119q-190 0 -310 -126t-120 -308q0 -193 123 -315t305 -122z" />
    <glyph glyph-name="ntilde" unicode="&#xf1;" horiz-adv-x="1124" 
d="M741 1182q-12 0 -25 2.5t-23 5t-24 9t-22 10.5t-23 13.5t-20.5 13t-22 14.5t-20.5 14q-76 55 -127 55q-83 0 -129 -123l-55 18q55 166 180 166q75 0 158 -61q8 -6 28 -20t31 -21t27.5 -16t31 -13t29.5 -4q39 0 72 31t51 92l55 -18q-24 -83 -70.5 -125.5t-101.5 -42.5z
M164 0v993h69v-248h3q54 121 160 188.5t243 67.5q159 0 251.5 -105.5t92.5 -299.5v-596h-68v569q0 97 -22 169.5t-62 115t-90.5 62.5t-111.5 20q-179 0 -287.5 -121.5t-108.5 -322.5v-492h-69z" />
    <glyph glyph-name="ograve" unicode="&#xf2;" horiz-adv-x="1191" 
d="M594 1155l-236 264h86l232 -264h-82zM596 -8q-146 0 -261 68.5t-177 183t-62 252.5t62 253t177 183.5t261 68.5q138 0 251.5 -62.5t181 -179t67.5 -263.5q0 -146 -67.5 -262t-181 -179t-251.5 -63zM596 59q183 0 305.5 122.5t122.5 314.5q0 96 -33.5 179t-91 140t-136 89
t-167.5 32q-189 0 -309.5 -128t-120.5 -312t120 -310.5t310 -126.5z" />
    <glyph glyph-name="oacute" unicode="&#xf3;" horiz-adv-x="1191" 
d="M553 1149l250 278h88l-254 -278h-84zM596 -8q-146 0 -261 68.5t-177 183t-62 252.5t62 253t177 183.5t261 68.5q138 0 251.5 -62.5t181 -179t67.5 -263.5q0 -146 -67.5 -262t-181 -179t-251.5 -63zM596 59q183 0 305.5 122.5t122.5 314.5q0 96 -33.5 179t-91 140t-136 89
t-167.5 32q-189 0 -309.5 -128t-120.5 -312t120 -310.5t310 -126.5z" />
    <glyph glyph-name="ocircumflex" unicode="&#xf4;" horiz-adv-x="1191" 
d="M311 1147l252 268h76l244 -268h-80l-199 217h-4l-209 -217h-80zM596 -8q-146 0 -261 68.5t-177 183t-62 252.5t62 253t177 183.5t261 68.5q138 0 251.5 -62.5t181 -179t67.5 -263.5q0 -146 -67.5 -262t-181 -179t-251.5 -63zM596 59q183 0 305.5 122.5t122.5 314.5
q0 96 -33.5 179t-91 140t-136 89t-167.5 32q-189 0 -309.5 -128t-120.5 -312t120 -310.5t310 -126.5z" />
    <glyph glyph-name="otilde" unicode="&#xf5;" horiz-adv-x="1191" 
d="M758 1182q-12 0 -25 2.5t-23 5t-24 9t-22 10.5t-23 13.5t-20.5 13t-22 14.5t-20.5 14q-76 55 -127 55q-83 0 -129 -123l-56 18q55 166 180 166q75 0 158 -61q7 -5 28 -19.5t31.5 -21t27.5 -16t31.5 -13.5t29.5 -4q39 0 71.5 31t50.5 92l56 -18q-24 -83 -70.5 -125.5
t-101.5 -42.5zM596 -8q-146 0 -261 68.5t-177 183t-62 252.5t62 253t177 183.5t261 68.5q138 0 251.5 -62.5t181 -179t67.5 -263.5q0 -146 -67.5 -262t-181 -179t-251.5 -63zM596 59q183 0 305.5 122.5t122.5 314.5q0 96 -33.5 179t-91 140t-136 89t-167.5 32
q-189 0 -309.5 -128t-120.5 -312t120 -310.5t310 -126.5z" />
    <glyph glyph-name="odieresis" unicode="&#xf6;" horiz-adv-x="1191" 
d="M438 1229q-29 0 -49 19.5t-20 47.5q0 30 19.5 49t49.5 19q29 0 48.5 -19.5t19.5 -48.5t-19.5 -48t-48.5 -19zM754 1229q-30 0 -50 19.5t-20 47.5q0 31 19.5 49.5t50.5 18.5q29 0 48 -19.5t19 -48.5t-19 -48t-48 -19zM596 -8q-146 0 -261 68.5t-177 183t-62 252.5t62 253
t177 183.5t261 68.5q138 0 251.5 -62.5t181 -179t67.5 -263.5q0 -146 -67.5 -262t-181 -179t-251.5 -63zM596 59q183 0 305.5 122.5t122.5 314.5q0 96 -33.5 179t-91 140t-136 89t-167.5 32q-189 0 -309.5 -128t-120.5 -312t120 -310.5t310 -126.5z" />
    <glyph glyph-name="divide" unicode="&#xf7;" horiz-adv-x="1198" 
d="M588 891q-29 0 -49.5 20.5t-20.5 49.5q0 30 20 48.5t50 18.5q31 0 50 -18t19 -49q0 -30 -19.5 -50t-49.5 -20zM131 532v66h944v-66h-944zM588 100q-29 0 -49.5 20.5t-20.5 49.5q0 30 20 49t50 19q31 0 50 -18.5t19 -49.5q0 -30 -19.5 -50t-49.5 -20z" />
    <glyph glyph-name="oslash" unicode="&#xf8;" horiz-adv-x="1191" 
d="M1100 973l-127 -135q123 -139 123 -342q0 -146 -67.5 -262t-181 -179t-251.5 -63q-190 0 -322 110l-120 -127l-50 43l123 129q-131 140 -131 349q0 138 62 253t177 183.5t261 68.5q193 0 330 -118l125 131zM166 496q0 -177 108 -297l605 635q-117 102 -283 102
q-189 0 -309.5 -128t-120.5 -312zM1024 496q0 173 -100 290l-602 -632q116 -95 274 -95q183 0 305.5 122.5t122.5 314.5z" />
    <glyph glyph-name="ugrave" unicode="&#xf9;" horiz-adv-x="1101" 
d="M575 1155l-235 264h86l231 -264h-82zM514 -8q-179 0 -277 115t-98 315v571h70v-544q0 -196 82 -293t231 -97q154 0 257.5 123t103.5 322v489h69v-993h-69v242l-2 2q-52 -118 -150 -185t-217 -67z" />
    <glyph glyph-name="uacute" unicode="&#xfa;" horiz-adv-x="1101" 
d="M487 1149l250 278h88l-254 -278h-84zM514 -8q-179 0 -277 115t-98 315v571h70v-544q0 -196 82 -293t231 -97q154 0 257.5 123t103.5 322v489h69v-993h-69v242l-2 2q-52 -118 -150 -185t-217 -67z" />
    <glyph glyph-name="ucircumflex" unicode="&#xfb;" horiz-adv-x="1101" 
d="M258 1147l252 268h76l243 -268h-79l-199 217h-4l-209 -217h-80zM514 -8q-179 0 -277 115t-98 315v571h70v-544q0 -196 82 -293t231 -97q154 0 257.5 123t103.5 322v489h69v-993h-69v242l-2 2q-52 -118 -150 -185t-217 -67z" />
    <glyph glyph-name="udieresis" unicode="&#xfc;" horiz-adv-x="1101" 
d="M385 1229q-29 0 -49.5 19.5t-20.5 47.5q0 30 20 49t50 19q29 0 48.5 -19.5t19.5 -48.5t-19.5 -48t-48.5 -19zM700 1229q-30 0 -49.5 19.5t-19.5 47.5q0 31 19 49.5t50 18.5q29 0 48.5 -19.5t19.5 -48.5t-19.5 -48t-48.5 -19zM514 -8q-179 0 -277 115t-98 315v571h70v-544
q0 -196 82 -293t231 -97q154 0 257.5 123t103.5 322v489h69v-993h-69v242l-2 2q-52 -118 -150 -185t-217 -67z" />
    <glyph glyph-name="yacute" unicode="&#xfd;" horiz-adv-x="1044" 
d="M459 1149l250 278h88l-254 -278h-84zM324 -406l176 422l-447 977h80l402 -891h2l372 891h78l-588 -1399h-75z" />
    <glyph glyph-name="thorn" unicode="&#xfe;" horiz-adv-x="1234" 
d="M164 -406v1913h69v-772h3q56 123 165.5 194.5t245.5 71.5q143 0 256 -69t173.5 -186t60.5 -259q0 -145 -66 -259t-177 -175t-247 -61q-140 0 -248 70t-163 188h-3v-656h-69zM643 59q187 0 304.5 123t117.5 305q0 198 -122 323.5t-302 125.5q-120 0 -214.5 -61t-145 -163
t-50.5 -225q0 -190 119 -309t293 -119z" />
    <glyph glyph-name="ydieresis" unicode="&#xff;" horiz-adv-x="1044" 
d="M367 1229q-29 0 -49.5 19.5t-20.5 47.5q0 30 20 49t50 19q29 0 48 -19.5t19 -48.5t-19 -48t-48 -19zM682 1229q-30 0 -50 19.5t-20 47.5q0 31 19.5 49.5t50.5 18.5q29 0 48.5 -19.5t19.5 -48.5t-19.5 -48t-48.5 -19zM324 -406l176 422l-447 977h80l402 -891h2l372 891h78
l-588 -1399h-75z" />
    <glyph glyph-name="Amacron" unicode="&#x100;" horiz-adv-x="1325" 
d="M385 1698v65h555v-65h-555zM57 0l561 1454h82l568 -1454h-78l-162 418h-731l-162 -418h-78zM322 485h679l-337 881h-5z" />
    <glyph glyph-name="amacron" unicode="&#x101;" horiz-adv-x="1216" 
d="M315 1257v66h555v-66h-555zM582 -8q-135 0 -246.5 61t-177.5 175t-66 259q0 142 61 259t174.5 186t256.5 69q135 0 245.5 -72t165.5 -198l2 2v260h68v-993h-68v254h-2q-56 -121 -163.5 -191.5t-249.5 -70.5zM588 59q173 0 291 119t118 309q0 123 -50 225t-144.5 163
t-214.5 61q-178 0 -301 -126t-123 -323q0 -182 118 -305t306 -123z" />
    <glyph glyph-name="Abreve" unicode="&#x102;" horiz-adv-x="1325" 
d="M662 1614q-104 0 -178 65.5t-81 171.5h60q6 -71 59.5 -123.5t139.5 -52.5t138.5 52.5t57.5 123.5h62q-9 -107 -82 -172t-176 -65zM57 0l561 1454h82l568 -1454h-78l-162 418h-731l-162 -418h-78zM322 485h679l-337 881h-5z" />
    <glyph glyph-name="abreve" unicode="&#x103;" horiz-adv-x="1216" 
d="M592 1145q-107 0 -179 70t-81 196h61q6 -90 58.5 -147.5t140.5 -57.5q87 0 139 58t57 147h62q-9 -126 -81 -196t-177 -70zM582 -8q-135 0 -246.5 61t-177.5 175t-66 259q0 142 61 259t174.5 186t256.5 69q135 0 245.5 -72t165.5 -198l2 2v260h68v-993h-68v254h-2
q-56 -121 -163.5 -191.5t-249.5 -70.5zM588 59q173 0 291 119t118 309q0 123 -50 225t-144.5 163t-214.5 61q-178 0 -301 -126t-123 -323q0 -182 118 -305t306 -123z" />
    <glyph glyph-name="Aogonek" unicode="&#x104;" horiz-adv-x="1325" 
d="M1335 -287l8 -59q-56 -27 -131 -27q-83 0 -130.5 41.5t-47.5 118.5q0 56 39.5 116.5t112.5 108.5l-158 406h-731l-162 -418h-78l561 1454h82l568 -1454h-6q-73 -35 -117.5 -91.5t-44.5 -113.5q0 -49 29.5 -78.5t89.5 -29.5q42 0 64.5 5.5t51.5 20.5zM322 485h679
l-337 881h-5z" />
    <glyph glyph-name="aogonek" unicode="&#x105;" horiz-adv-x="1216" 
d="M1137 -287l8 -59q-56 -27 -131 -27q-83 0 -130.5 41.5t-47.5 118.5q0 59 41.5 122.5t119.5 108.5v236h-2q-56 -121 -163.5 -191.5t-249.5 -70.5q-135 0 -246.5 61t-177.5 175t-66 259q0 142 61 259t174.5 186t256.5 69q135 0 245.5 -72t165.5 -198l2 2v260h68v-993h-2
q-73 -35 -117.5 -91.5t-44.5 -113.5q0 -49 29.5 -78.5t89.5 -29.5q66 0 117 26zM588 59q173 0 291 119t118 309q0 123 -50 225t-144.5 163t-214.5 61q-178 0 -301 -126t-123 -323q0 -182 118 -305t306 -123z" />
    <glyph glyph-name="Cacute" unicode="&#x106;" horiz-adv-x="1466" 
d="M762 1622l231 256h86l-237 -256h-80zM838 -6q-148 0 -276.5 48t-226.5 138t-154 229.5t-56 311.5q0 156 47 290.5t135 235.5t224 159t305 58q158 0 302 -68t257 -208l-58 -47q-202 252 -501 252q-150 0 -271.5 -51.5t-200.5 -142.5t-121 -213t-42 -265q0 -155 49.5 -281
t136 -207.5t202 -125.5t249.5 -44q300 0 499 250l58 -47q-219 -272 -557 -272z" />
    <glyph glyph-name="cacute" unicode="&#x107;" horiz-adv-x="1030" 
d="M524 1149l250 278h88l-254 -278h-84zM573 -8q-213 0 -345 140.5t-132 363.5q0 222 133 363.5t346 141.5q107 0 206.5 -41.5t170.5 -119.5l-51 -47q-54 65 -138.5 104t-184.5 39q-183 0 -297.5 -123.5t-114.5 -316.5q0 -194 113 -315.5t296 -121.5q97 0 186 37t146 103
l47 -49q-66 -71 -166 -114.5t-215 -43.5z" />
    <glyph glyph-name="Ccircumflex" unicode="&#x108;" horiz-adv-x="1466" 
d="M549 1622l252 229h76l245 -229h-82l-200 182h-4l-207 -182h-80zM838 -6q-148 0 -276.5 48t-226.5 138t-154 229.5t-56 311.5q0 156 47 290.5t135 235.5t224 159t305 58q158 0 302 -68t257 -208l-58 -47q-202 252 -501 252q-150 0 -271.5 -51.5t-200.5 -142.5t-121 -213
t-42 -265q0 -155 49.5 -281t136 -207.5t202 -125.5t249.5 -44q300 0 499 250l58 -47q-219 -272 -557 -272z" />
    <glyph glyph-name="ccircumflex" unicode="&#x109;" horiz-adv-x="1030" 
d="M279 1147l251 268h76l244 -268h-80l-199 217h-4l-209 -217h-79zM573 -8q-213 0 -345 140.5t-132 363.5q0 222 133 363.5t346 141.5q107 0 206.5 -41.5t170.5 -119.5l-51 -47q-54 65 -138.5 104t-184.5 39q-183 0 -297.5 -123.5t-114.5 -316.5q0 -194 113 -315.5
t296 -121.5q97 0 186 37t146 103l47 -49q-66 -71 -166 -114.5t-215 -43.5z" />
    <glyph glyph-name="Cdotaccent" unicode="&#x10a;" horiz-adv-x="1466" 
d="M836 1679q-29 0 -49.5 20.5t-20.5 49.5q0 30 20 49t50 19q31 0 50 -18.5t19 -49.5q0 -30 -19.5 -50t-49.5 -20zM838 -6q-148 0 -276.5 48t-226.5 138t-154 229.5t-56 311.5q0 156 47 290.5t135 235.5t224 159t305 58q158 0 302 -68t257 -208l-58 -47q-202 252 -501 252
q-150 0 -271.5 -51.5t-200.5 -142.5t-121 -213t-42 -265q0 -155 49.5 -281t136 -207.5t202 -125.5t249.5 -44q300 0 499 250l58 -47q-219 -272 -557 -272z" />
    <glyph glyph-name="cdotaccent" unicode="&#x10b;" horiz-adv-x="1030" 
d="M567 1227q-29 0 -49 20t-20 49q0 30 19.5 49t49.5 19q31 0 50.5 -18.5t19.5 -49.5q0 -30 -19.5 -49.5t-50.5 -19.5zM573 -8q-213 0 -345 140.5t-132 363.5q0 222 133 363.5t346 141.5q107 0 206.5 -41.5t170.5 -119.5l-51 -47q-54 65 -138.5 104t-184.5 39
q-183 0 -297.5 -123.5t-114.5 -316.5q0 -194 113 -315.5t296 -121.5q97 0 186 37t146 103l47 -49q-66 -71 -166 -114.5t-215 -43.5z" />
    <glyph glyph-name="Ccaron" unicode="&#x10c;" horiz-adv-x="1466" 
d="M795 1622l-246 229h82l200 -182h5l204 182h82l-252 -229h-75zM838 -6q-148 0 -276.5 48t-226.5 138t-154 229.5t-56 311.5q0 156 47 290.5t135 235.5t224 159t305 58q158 0 302 -68t257 -208l-58 -47q-202 252 -501 252q-150 0 -271.5 -51.5t-200.5 -142.5t-121 -213
t-42 -265q0 -155 49.5 -281t136 -207.5t202 -125.5t249.5 -44q300 0 499 250l58 -47q-219 -272 -557 -272z" />
    <glyph glyph-name="ccaron" unicode="&#x10d;" horiz-adv-x="1030" 
d="M524 1147l-245 266h79l203 -215h4l205 215h80l-252 -266h-74zM573 -8q-213 0 -345 140.5t-132 363.5q0 222 133 363.5t346 141.5q107 0 206.5 -41.5t170.5 -119.5l-51 -47q-54 65 -138.5 104t-184.5 39q-183 0 -297.5 -123.5t-114.5 -316.5q0 -194 113 -315.5t296 -121.5
q97 0 186 37t146 103l47 -49q-66 -71 -166 -114.5t-215 -43.5z" />
    <glyph glyph-name="Dcaron" unicode="&#x10e;" horiz-adv-x="1454" 
d="M629 1622l-246 229h82l201 -182h4l204 182h82l-251 -229h-76zM182 0v1454h393q170 0 311.5 -53.5t239 -149.5t151.5 -231t54 -295q0 -325 -204.5 -525t-544.5 -200h-400zM254 70h324q313 0 495 181t182 474q0 294 -187 476.5t-495 182.5h-319v-1314z" />
    <glyph glyph-name="dcaron" unicode="&#x10f;" horiz-adv-x="1349" 
d="M1253 1219l52 333h77l-73 -333h-56zM588 -8q-136 0 -248 61t-179 175t-67 259q0 217 139 365.5t355 148.5q135 0 245.5 -72t165.5 -198h5v776h67v-1507h-65v258h-5q-52 -121 -161.5 -193.5t-251.5 -72.5zM592 59q174 0 294 119.5t120 308.5q0 188 -116.5 318.5
t-297.5 130.5q-180 0 -303 -125.5t-123 -323.5q0 -182 118.5 -305t307.5 -123z" />
    <glyph glyph-name="Dcroat" unicode="&#x110;" horiz-adv-x="1454" 
d="M575 1454q170 0 311.5 -53.5t239 -149.5t151.5 -231t54 -295q0 -325 -204.5 -525t-544.5 -200h-400v698h-172v70h172v686h393zM578 70q313 0 495 181t182 474q0 294 -187 476.5t-495 182.5h-319v-616h459v-70h-459v-628h324z" />
    <glyph glyph-name="dcroat" unicode="&#x111;" horiz-adv-x="1226" 
d="M1200 1257v-59h-129v-1198h-65v258h-5q-52 -121 -161.5 -193.5t-251.5 -72.5q-136 0 -248 61t-179 175t-67 259q0 217 139 365.5t355 148.5q135 0 245.5 -72t165.5 -198h5v467h-484v59h484v250h67v-250h129zM592 59q174 0 294 119.5t120 308.5q0 188 -116.5 318.5
t-297.5 130.5q-180 0 -303 -125.5t-123 -323.5q0 -182 118.5 -305t307.5 -123z" />
    <glyph glyph-name="Emacron" unicode="&#x112;" horiz-adv-x="1167" 
d="M317 1698v65h555v-65h-555zM182 0v1454h852v-70h-780v-622h653v-70h-653v-622h823v-70h-895z" />
    <glyph glyph-name="emacron" unicode="&#x113;" horiz-adv-x="1097" 
d="M852 1323v-66h-555v66h555zM1010 524q0 -33 -2 -37h-842q3 -187 117.5 -307.5t289.5 -120.5q221 0 345 160l51 -41q-139 -186 -394 -186q-210 0 -344.5 142.5t-134.5 361.5q0 218 136 361.5t339 143.5q193 0 316 -135.5t123 -341.5zM569 936q-158 0 -271 -108t-130 -277
h772q-14 174 -113.5 279.5t-257.5 105.5z" />
    <glyph glyph-name="Ebreve" unicode="&#x114;" horiz-adv-x="1167" 
d="M594 1614q-104 0 -177.5 65t-80.5 172h59q6 -71 59.5 -123.5t139.5 -52.5t139 52.5t58 123.5h61q-9 -107 -82 -172t-176 -65zM182 0v1454h852v-70h-780v-622h653v-70h-653v-622h823v-70h-895z" />
    <glyph glyph-name="ebreve" unicode="&#x115;" horiz-adv-x="1097" 
d="M573 1145q-107 0 -179 70t-81 196h62q6 -90 58 -147.5t140 -57.5q87 0 139.5 58t57.5 147h61q-9 -126 -81 -196t-177 -70zM1010 524q0 -33 -2 -37h-842q3 -187 117.5 -307.5t289.5 -120.5q221 0 345 160l51 -41q-139 -186 -394 -186q-210 0 -344.5 142.5t-134.5 361.5
q0 218 136 361.5t339 143.5q193 0 316 -135.5t123 -341.5zM569 936q-158 0 -271 -108t-130 -277h772q-14 174 -113.5 279.5t-257.5 105.5z" />
    <glyph glyph-name="Edotaccent" unicode="&#x116;" horiz-adv-x="1167" 
d="M594 1679q-29 0 -49.5 20.5t-20.5 49.5q0 30 20 49t50 19q31 0 50.5 -18.5t19.5 -49.5q0 -30 -20 -50t-50 -20zM182 0v1454h852v-70h-780v-622h653v-70h-653v-622h823v-70h-895z" />
    <glyph glyph-name="edotaccent" unicode="&#x117;" horiz-adv-x="1097" 
d="M575 1227q-29 0 -49 20t-20 49q0 30 19.5 49t49.5 19q31 0 50.5 -18.5t19.5 -49.5q0 -30 -19.5 -49.5t-50.5 -19.5zM1010 524q0 -33 -2 -37h-842q3 -187 117.5 -307.5t289.5 -120.5q221 0 345 160l51 -41q-139 -186 -394 -186q-210 0 -344.5 142.5t-134.5 361.5
q0 218 136 361.5t339 143.5q193 0 316 -135.5t123 -341.5zM569 936q-158 0 -271 -108t-130 -277h772q-14 174 -113.5 279.5t-257.5 105.5z" />
    <glyph glyph-name="Eogonek" unicode="&#x118;" horiz-adv-x="1167" 
d="M1149 -287l8 -59q-56 -27 -131 -27q-83 0 -130.5 41.5t-47.5 118.5q0 53 34.5 110t98.5 103h-799v1454h852v-70h-780v-622h653v-70h-653v-622h823v-70h-2q-73 -35 -117.5 -91.5t-44.5 -113.5q0 -49 29.5 -78.5t89.5 -29.5q66 0 117 26z" />
    <glyph glyph-name="eogonek" unicode="&#x119;" horiz-adv-x="1097" 
d="M1010 524q0 -33 -2 -37h-842q3 -187 117.5 -307.5t289.5 -120.5q221 0 345 160l51 -41q-113 -151 -301 -180q-71 -39 -113.5 -92.5t-42.5 -108.5q0 -47 30 -76.5t91 -29.5q67 0 115 26l8 -61q-52 -27 -129 -27q-84 0 -132.5 42t-48.5 118q0 51 30 104.5t87 98.5
q-135 3 -242 68.5t-166 179.5t-59 256q0 218 136 361.5t339 143.5q193 0 316 -135.5t123 -341.5zM569 936q-158 0 -271 -108t-130 -277h772q-14 174 -113.5 279.5t-257.5 105.5z" />
    <glyph glyph-name="Ecaron" unicode="&#x11a;" horiz-adv-x="1167" 
d="M553 1622l-246 229h82l201 -182h4l205 182h82l-252 -229h-76zM182 0v1454h852v-70h-780v-622h653v-70h-653v-622h823v-70h-895z" />
    <glyph glyph-name="ecaron" unicode="&#x11b;" horiz-adv-x="1097" 
d="M606 1147h-74l-245 266h80l202 -215h4l205 215h80zM1010 524q0 -33 -2 -37h-842q3 -187 117.5 -307.5t289.5 -120.5q221 0 345 160l51 -41q-139 -186 -394 -186q-210 0 -344.5 142.5t-134.5 361.5q0 218 136 361.5t339 143.5q193 0 316 -135.5t123 -341.5zM569 936
q-158 0 -271 -108t-130 -277h772q-14 174 -113.5 279.5t-257.5 105.5z" />
    <glyph glyph-name="Gcircumflex" unicode="&#x11c;" horiz-adv-x="1556" 
d="M541 1622l252 229h75l246 -229h-82l-201 182h-4l-206 -182h-80zM840 -6q-155 0 -287.5 53.5t-227 148.5t-147.5 231.5t-53 297.5q0 216 89.5 384t252 261.5t371.5 93.5q323 0 532 -209l-49 -47q-193 185 -483 185q-282 0 -459.5 -185t-177.5 -483q0 -193 80 -344
t226 -234.5t333 -83.5q299 0 487 156v420h-526v70h598v-527q-209 -188 -559 -188z" />
    <glyph glyph-name="gcircumflex" unicode="&#x11d;" horiz-adv-x="1206" 
d="M293 1147l252 268h76l243 -268h-80l-198 217h-4l-209 -217h-80zM598 -414q-215 0 -405 115l18 68q183 -115 387 -115q194 0 292.5 102.5t98.5 274.5v248h-2q-54 -119 -161 -187.5t-251 -68.5q-133 0 -242 60t-174 173.5t-65 259.5q0 134 59.5 244t170.5 175.5t251 65.5
q136 0 245.5 -65.5t166.5 -181.5h2v239h68v-962q0 -204 -117 -324.5t-342 -120.5zM580 90q186 0 298.5 121t112.5 307q0 184 -117 301t-292 117q-122 0 -218 -57t-147 -152t-51 -209q0 -191 119 -309.5t295 -118.5z" />
    <glyph glyph-name="Gbreve" unicode="&#x11e;" horiz-adv-x="1556" 
d="M827 1614q-104 0 -177.5 65t-80.5 172h60q6 -71 59 -123.5t139 -52.5t139 52.5t58 123.5h61q-9 -107 -82 -172t-176 -65zM840 -6q-155 0 -287.5 53.5t-227 148.5t-147.5 231.5t-53 297.5q0 216 89.5 384t252 261.5t371.5 93.5q323 0 532 -209l-49 -47q-193 185 -483 185
q-282 0 -459.5 -185t-177.5 -483q0 -193 80 -344t226 -234.5t333 -83.5q299 0 487 156v420h-526v70h598v-527q-209 -188 -559 -188z" />
    <glyph glyph-name="gbreve" unicode="&#x11f;" horiz-adv-x="1206" 
d="M580 1145q-107 0 -179.5 70t-81.5 196h62q6 -90 58.5 -147.5t140.5 -57.5q87 0 139 58t57 147h62q-9 -126 -81 -196t-177 -70zM598 -414q-215 0 -405 115l18 68q183 -115 387 -115q194 0 292.5 102.5t98.5 274.5v248h-2q-54 -119 -161 -187.5t-251 -68.5q-133 0 -242 60
t-174 173.5t-65 259.5q0 134 59.5 244t170.5 175.5t251 65.5q136 0 245.5 -65.5t166.5 -181.5h2v239h68v-962q0 -204 -117 -324.5t-342 -120.5zM580 90q186 0 298.5 121t112.5 307q0 184 -117 301t-292 117q-122 0 -218 -57t-147 -152t-51 -209q0 -191 119 -309.5
t295 -118.5z" />
    <glyph glyph-name="Gdotaccent" unicode="&#x120;" horiz-adv-x="1556" 
d="M827 1679q-29 0 -49 20.5t-20 49.5q0 30 19.5 49t49.5 19q31 0 50.5 -18.5t19.5 -49.5q0 -30 -20 -50t-50 -20zM840 -6q-155 0 -287.5 53.5t-227 148.5t-147.5 231.5t-53 297.5q0 216 89.5 384t252 261.5t371.5 93.5q323 0 532 -209l-49 -47q-193 185 -483 185
q-282 0 -459.5 -185t-177.5 -483q0 -193 80 -344t226 -234.5t333 -83.5q299 0 487 156v420h-526v70h598v-527q-209 -188 -559 -188z" />
    <glyph glyph-name="gdotaccent" unicode="&#x121;" horiz-adv-x="1206" 
d="M582 1227q-29 0 -49.5 20t-20.5 49q0 30 20 49t50 19q31 0 50 -18.5t19 -49.5q0 -30 -19.5 -49.5t-49.5 -19.5zM598 -414q-215 0 -405 115l18 68q183 -115 387 -115q194 0 292.5 102.5t98.5 274.5v248h-2q-54 -119 -161 -187.5t-251 -68.5q-133 0 -242 60t-174 173.5
t-65 259.5q0 134 59.5 244t170.5 175.5t251 65.5q136 0 245.5 -65.5t166.5 -181.5h2v239h68v-962q0 -204 -117 -324.5t-342 -120.5zM580 90q186 0 298.5 121t112.5 307q0 184 -117 301t-292 117q-122 0 -218 -57t-147 -152t-51 -209q0 -191 119 -309.5t295 -118.5z" />
    <glyph glyph-name="Gcommaaccent" unicode="&#x122;" horiz-adv-x="1556" 
d="M840 -6q-155 0 -287.5 53.5t-227 148.5t-147.5 231.5t-53 297.5q0 216 89.5 384t252 261.5t371.5 93.5q323 0 532 -209l-49 -47q-193 185 -483 185q-282 0 -459.5 -185t-177.5 -483q0 -193 80 -344t226 -234.5t333 -83.5q299 0 487 156v420h-526v70h598v-527
q-209 -188 -559 -188zM674 -414l-21 49q79 7 107 44t28 98q0 48 -10 110h66q10 -55 10 -110q0 -177 -180 -191z" />
    <glyph glyph-name="gcommaaccent" unicode="&#x123;" horiz-adv-x="1206" 
d="M739 1434l21 -50q-79 -7 -107 -43.5t-28 -97.5q0 -48 10 -110h-66q-10 55 -10 110q0 177 180 191zM598 -414q-215 0 -405 115l18 68q183 -115 387 -115q194 0 292.5 102.5t98.5 274.5v248h-2q-54 -119 -161 -187.5t-251 -68.5q-133 0 -242 60t-174 173.5t-65 259.5
q0 134 59.5 244t170.5 175.5t251 65.5q136 0 245.5 -65.5t166.5 -181.5h2v239h68v-962q0 -204 -117 -324.5t-342 -120.5zM580 90q186 0 298.5 121t112.5 307q0 184 -117 301t-292 117q-122 0 -218 -57t-147 -152t-51 -209q0 -191 119 -309.5t295 -118.5z" />
    <glyph glyph-name="Hcircumflex" unicode="&#x124;" horiz-adv-x="1429" 
d="M426 1622l252 229h76l245 -229h-81l-201 182h-4l-207 -182h-80zM182 0v1454h72v-733h920v733h73v-1454h-73v651h-920v-651h-72z" />
    <glyph glyph-name="hcircumflex" unicode="&#x125;" horiz-adv-x="1134" 
d="M164 1649l252 229h76l245 -229h-82l-200 182h-4l-207 -182h-80zM164 0v1507h69v-762h3q53 121 160 188.5t251 67.5q161 0 253.5 -104.5t92.5 -298.5v-598h-67v571q0 188 -79 276.5t-208 88.5q-185 0 -295.5 -121t-110.5 -323v-492h-69z" />
    <glyph glyph-name="Hbar" unicode="&#x126;" horiz-adv-x="1429" 
d="M1386 1167v-59h-139v-1108h-73v651h-920v-651h-72v1108h-151v59h151v287h72v-287h920v287h73v-287h139zM1174 721v387h-920v-387h920z" />
    <glyph glyph-name="hbar" unicode="&#x127;" horiz-adv-x="1134" 
d="M647 1001q161 0 253.5 -104.5t92.5 -298.5v-598h-67v571q0 188 -79 276.5t-208 88.5q-185 0 -295.5 -121t-110.5 -323v-492h-69v1198h-154v59h154v250h69v-250h437v-59h-437v-453h3q53 121 160 188.5t251 67.5z" />
    <glyph glyph-name="Itilde" unicode="&#x128;" horiz-adv-x="464" 
d="M391 1622q-31 0 -66.5 14.5t-54 26.5t-57.5 39q-78 57 -129 57q-83 0 -129 -123l-55 19q56 166 180 166q29 0 61 -11.5t48 -21t53 -33.5q6 -4 33.5 -23t39 -26t33 -15t39.5 -8q39 0 71 30.5t50 92.5l55 -18q-25 -83 -71 -124.5t-101 -41.5zM195 0v1454h73v-1454h-73z" />
    <glyph glyph-name="itilde" unicode="&#x129;" horiz-adv-x="419" 
d="M371 1182q-12 0 -25 2.5t-22.5 4.5t-24.5 9.5t-22 10.5t-24 13.5t-20.5 12.5t-22.5 15t-20 14q-76 55 -127 55q-83 0 -129 -123l-55 18q55 166 180 166q75 0 158 -61q7 -5 28 -19.5t31.5 -21t27.5 -16t31.5 -13.5t29.5 -4q39 0 71.5 31t50.5 92l56 -18
q-24 -83 -70.5 -125.5t-101.5 -42.5zM174 0v993h70v-993h-70z" />
    <glyph glyph-name="Imacron" unicode="&#x12a;" horiz-adv-x="464" 
d="M-45 1698v65h555v-65h-555zM195 0v1454h73v-1454h-73z" />
    <glyph glyph-name="imacron" unicode="&#x12b;" horiz-adv-x="419" 
d="M-66 1257v66h555v-66h-555zM174 0v993h70v-993h-70z" />
    <glyph glyph-name="Ibreve" unicode="&#x12c;" horiz-adv-x="464" 
d="M231 1614q-104 0 -177.5 65t-80.5 172h60q6 -71 59 -123.5t139 -52.5t139 52.5t58 123.5h61q-9 -107 -82 -172t-176 -65zM195 0v1454h73v-1454h-73z" />
    <glyph glyph-name="ibreve" unicode="&#x12d;" horiz-adv-x="419" 
d="M211 1145q-102 0 -168 69.5t-72 196.5h64q3 -94 47 -150.5t129 -56.5q84 0 128 56.5t46 150.5h64q-7 -127 -71.5 -196.5t-166.5 -69.5zM174 0v993h70v-993h-70z" />
    <glyph glyph-name="Iogonek" unicode="&#x12e;" horiz-adv-x="464" 
d="M338 -287l8 -59q-56 -27 -131 -27q-83 0 -130.5 41.5t-47.5 118.5q0 57 41 119t117 110v1438h73v-1454h-4q-73 -35 -117.5 -91.5t-44.5 -113.5q0 -49 29.5 -78.5t89.5 -29.5q66 0 117 26z" />
    <glyph glyph-name="iogonek" unicode="&#x12f;" horiz-adv-x="419" 
d="M213 1227q-29 0 -49.5 20t-20.5 49q0 30 20 49t50 19q31 0 50.5 -18.5t19.5 -49.5q0 -30 -19.5 -49.5t-50.5 -19.5zM315 -287l9 -59q-56 -27 -131 -27q-83 0 -131 41.5t-48 118.5q0 58 41.5 120.5t118.5 110.5v975h70v-993h-2q-73 -35 -117.5 -91.5t-44.5 -113.5
q0 -49 29.5 -78.5t89.5 -29.5q42 0 64.5 5.5t51.5 20.5z" />
    <glyph glyph-name="Idotaccent" unicode="&#x130;" horiz-adv-x="464" 
d="M231 1679q-29 0 -49 20.5t-20 49.5q0 30 19.5 49t49.5 19q31 0 50.5 -18.5t19.5 -49.5q0 -30 -20 -50t-50 -20zM195 0v1454h73v-1454h-73z" />
    <glyph glyph-name="dotlessi" unicode="&#x131;" horiz-adv-x="419" 
d="M174 0v993h70v-993h-70z" />
    <glyph glyph-name="IJ" unicode="&#x132;" horiz-adv-x="1431" 
d="M195 0v1454h73v-1454h-73zM901 -6q-94 0 -198.5 49.5t-182.5 140.5l43 56q159 -177 336 -177q144 0 222.5 89.5t78.5 291.5v1010h72v-1018q0 -442 -371 -442z" />
    <glyph glyph-name="ij" unicode="&#x133;" horiz-adv-x="798" 
d="M213 1227q-29 0 -49.5 20t-20.5 49q0 30 20 49t50 19q31 0 50.5 -18.5t19.5 -49.5q0 -30 -19.5 -49.5t-50.5 -19.5zM623 1227q-29 0 -49.5 20t-20.5 49q0 30 20 49t50 19q31 0 50 -18.5t19 -49.5q0 -30 -19.5 -49.5t-49.5 -19.5zM174 0v993h70v-993h-70zM438 -414
q-76 0 -137 31l10 68q55 -31 125 -31q150 0 150 186v1153h69v-1153q0 -114 -51 -184t-166 -70z" />
    <glyph glyph-name="Jcircumflex" unicode="&#x134;" horiz-adv-x="966" 
d="M487 1622l252 229h76l246 -229h-82l-201 182h-4l-207 -182h-80zM436 -6q-94 0 -198.5 49.5t-182.5 140.5l43 56q159 -177 336 -177q144 0 222.5 89.5t78.5 291.5v1010h72v-1018q0 -442 -371 -442z" />
    <glyph glyph-name="jcircumflex" unicode="&#x135;" horiz-adv-x="378" 
d="M-86 1147l252 268h76l243 -268h-79l-199 217h-4l-209 -217h-80zM18 -414q-76 0 -137 31l10 68q55 -31 125 -31q150 0 150 186v1153h70v-1153q0 -114 -51.5 -184t-166.5 -70z" />
    <glyph glyph-name="Kcommaaccent" unicode="&#x136;" horiz-adv-x="1267" 
d="M182 0v1454h72v-952h4l819 952h94l-587 -684l600 -770h-94l-555 715l-281 -324v-391h-72zM504 -414l-21 49q79 7 107 44t28 98q0 48 -10 110h66q10 -55 10 -110q0 -177 -180 -191z" />
    <glyph glyph-name="kcommaaccent" unicode="&#x137;" horiz-adv-x="1003" 
d="M164 0v1507h69v-1188l3 -2l616 676h92l-391 -428l387 -565h-82l-354 514l-271 -293v-221h-69zM381 -414l-21 49q79 7 107.5 44t28.5 98q0 42 -11 110h66q10 -55 10 -110q0 -177 -180 -191z" />
    <glyph glyph-name="kgreenlandic" unicode="&#x138;" horiz-adv-x="1056" 
d="M164 0v993h69v-678h3l647 678h94l-418 -436l438 -557h-90l-397 506l-277 -289v-217h-69z" />
    <glyph glyph-name="Lacute" unicode="&#x139;" horiz-adv-x="1093" 
d="M381 1622l231 256h86l-237 -256h-80zM182 0v1454h72v-1384h790v-70h-862z" />
    <glyph glyph-name="lacute" unicode="&#x13a;" horiz-adv-x="417" 
d="M168 1649l231 256h86l-237 -256h-80zM174 0v1507h70v-1507h-70z" />
    <glyph glyph-name="Lcommaaccent" unicode="&#x13b;" horiz-adv-x="1093" 
d="M182 0v1454h72v-1384h790v-70h-862zM453 -414l-21 49q79 7 107 44t28 98q0 48 -10 110h66q10 -55 10 -110q0 -177 -180 -191z" />
    <glyph glyph-name="lcommaaccent" unicode="&#x13c;" horiz-adv-x="417" 
d="M174 0v1507h70v-1507h-70zM74 -414l-21 49q79 7 107 44t28 98q0 48 -10 110h66q10 -55 10 -110q0 -177 -180 -191z" />
    <glyph glyph-name="Lcaron" unicode="&#x13d;" horiz-adv-x="1093" 
d="M573 1217l52 333h77l-73 -333h-56zM182 0v1454h72v-1384h790v-70h-862z" />
    <glyph glyph-name="lcaron" unicode="&#x13e;" horiz-adv-x="522" 
d="M426 1219l51 333h78l-74 -333h-55zM174 0v1507h70v-1507h-70z" />
    <glyph glyph-name="Ldot" unicode="&#x13f;" horiz-adv-x="1093" 
d="M182 0v1454h72v-1384h790v-70h-862zM778 618q-31 0 -51 20.5t-20 51.5t20 50.5t51 19.5t51.5 -19.5t20.5 -50.5t-20.5 -51.5t-51.5 -20.5z" />
    <glyph glyph-name="ldot" unicode="&#x140;" horiz-adv-x="495" 
d="M174 0v1507h70v-1507h-70zM459 481q-31 0 -51.5 20.5t-20.5 51.5t20.5 50.5t51.5 19.5t51 -19.5t20 -50.5t-20 -51.5t-51 -20.5z" />
    <glyph glyph-name="Lslash" unicode="&#x141;" horiz-adv-x="1148" 
d="M309 70h791v-70h-862v614l-191 -82v72l191 82v768h71v-737l244 104v-71l-244 -105v-575z" />
    <glyph glyph-name="lslash" unicode="&#x142;" horiz-adv-x="456" 
d="M434 780v-65l-166 -66v-649h-69v623l-183 -72v65l183 72v819h69v-792z" />
    <glyph glyph-name="Nacute" unicode="&#x143;" horiz-adv-x="1501" 
d="M598 1622l231 256h86l-237 -256h-80zM182 0v1454h70l989 -1329h2v1329h74v-1454h-74l-985 1325h-4v-1325h-72z" />
    <glyph glyph-name="nacute" unicode="&#x144;" horiz-adv-x="1124" 
d="M492 1149l249 278h88l-254 -278h-83zM164 0v993h69v-248h3q54 121 160 188.5t243 67.5q159 0 251.5 -105.5t92.5 -299.5v-596h-68v569q0 97 -22 169.5t-62 115t-90.5 62.5t-111.5 20q-179 0 -287.5 -121.5t-108.5 -322.5v-492h-69z" />
    <glyph glyph-name="Ncommaaccent" unicode="&#x145;" horiz-adv-x="1501" 
d="M182 0v1454h70l989 -1329h2v1329h74v-1454h-74l-985 1325h-4v-1325h-72zM614 -414l-20 49q79 7 107 44t28 98q0 48 -10 110h65q11 -60 11 -110q0 -81 -43.5 -132.5t-137.5 -58.5z" />
    <glyph glyph-name="ncommaaccent" unicode="&#x146;" horiz-adv-x="1124" 
d="M164 0v993h69v-248h3q54 121 160 188.5t243 67.5q159 0 251.5 -105.5t92.5 -299.5v-596h-68v569q0 97 -22 169.5t-62 115t-90.5 62.5t-111.5 20q-179 0 -287.5 -121.5t-108.5 -322.5v-492h-69zM434 -414l-20 49q79 7 107 44t28 98q0 48 -10 110h65q10 -55 10 -110
q0 -177 -180 -191z" />
    <glyph glyph-name="Ncaron" unicode="&#x147;" horiz-adv-x="1501" 
d="M709 1622l-246 229h82l200 -182h5l204 182h82l-252 -229h-75zM182 0v1454h70l989 -1329h2v1329h74v-1454h-74l-985 1325h-4v-1325h-72z" />
    <glyph glyph-name="ncaron" unicode="&#x148;" horiz-adv-x="1124" 
d="M541 1147l-246 266h80l203 -215h4l204 215h80l-252 -266h-73zM164 0v993h69v-248h3q54 121 160 188.5t243 67.5q159 0 251.5 -105.5t92.5 -299.5v-596h-68v569q0 97 -22 169.5t-62 115t-90.5 62.5t-111.5 20q-179 0 -287.5 -121.5t-108.5 -322.5v-492h-69z" />
    <glyph glyph-name="napostrophe" unicode="&#x149;" horiz-adv-x="1234" 
d="M45 1100l53 354h76l-72 -354h-57zM272 0v993h70v-248h2q54 121 160.5 188.5t243.5 67.5q159 0 251.5 -105.5t92.5 -299.5v-596h-68v569q0 97 -22.5 169.5t-62.5 115t-90.5 62.5t-111.5 20q-179 0 -287 -121.5t-108 -322.5v-492h-70z" />
    <glyph glyph-name="Eng" unicode="&#x14a;" horiz-adv-x="1499" 
d="M1243 1454h72v-1499q0 -193 -77 -281t-245 -88q-85 0 -151 29l4 68q57 -29 143 -29q59 0 102.5 13t79 44.5t54 92t18.5 149.5v47l-985 1325h-4v-1325h-72v1454h70l987 -1329h4v1329z" />
    <glyph glyph-name="eng" unicode="&#x14b;" horiz-adv-x="1124" 
d="M692 -414q-66 0 -135 29l8 63q53 -26 123 -26q121 0 173 55t52 211v651q0 190 -78 278.5t-208 88.5q-177 0 -285.5 -121.5t-108.5 -322.5v-492h-69v993h69v-248h3q54 121 159 188.5t242 67.5q161 0 253.5 -105.5t92.5 -299.5v-676q0 -172 -65.5 -253t-225.5 -81z" />
    <glyph glyph-name="Omacron" unicode="&#x14c;" horiz-adv-x="1685" 
d="M567 1698v65h555v-65h-555zM846 -8q-200 0 -364 91.5t-260.5 261t-96.5 384.5q0 214 96.5 383t260.5 260.5t364 91.5q146 0 277 -53.5t228 -148.5t153.5 -233.5t56.5 -299.5q0 -216 -97 -385.5t-259.5 -260.5t-358.5 -91zM846 63q130 0 247 48.5t203 134.5t136.5 211.5
t50.5 271.5t-50.5 271t-136.5 210.5t-203 134t-247 48.5q-133 0 -251.5 -48.5t-205.5 -134.5t-137.5 -211t-50.5 -270q0 -146 50.5 -271t137.5 -211t205.5 -135t251.5 -49z" />
    <glyph glyph-name="omacron" unicode="&#x14d;" horiz-adv-x="1191" 
d="M322 1257v66h555v-66h-555zM596 -8q-146 0 -261 68.5t-177 183t-62 252.5t62 253t177 183.5t261 68.5q138 0 251.5 -62.5t181 -179t67.5 -263.5q0 -146 -67.5 -262t-181 -179t-251.5 -63zM596 59q183 0 305.5 122.5t122.5 314.5q0 96 -33.5 179t-91 140t-136 89
t-167.5 32q-189 0 -309.5 -128t-120.5 -312t120 -310.5t310 -126.5z" />
    <glyph glyph-name="Obreve" unicode="&#x14e;" horiz-adv-x="1685" 
d="M844 1614q-104 0 -177.5 65t-80.5 172h59q6 -71 59.5 -123.5t139.5 -52.5t138.5 52.5t57.5 123.5h62q-9 -107 -82 -172t-176 -65zM846 -8q-200 0 -364 91.5t-260.5 261t-96.5 384.5q0 214 96.5 383t260.5 260.5t364 91.5q146 0 277 -53.5t228 -148.5t153.5 -233.5
t56.5 -299.5q0 -216 -97 -385.5t-259.5 -260.5t-358.5 -91zM846 63q130 0 247 48.5t203 134.5t136.5 211.5t50.5 271.5t-50.5 271t-136.5 210.5t-203 134t-247 48.5q-133 0 -251.5 -48.5t-205.5 -134.5t-137.5 -211t-50.5 -270q0 -146 50.5 -271t137.5 -211t205.5 -135
t251.5 -49z" />
    <glyph glyph-name="obreve" unicode="&#x14f;" horiz-adv-x="1191" 
d="M598 1145q-107 0 -179 70t-81 196h61q6 -90 58.5 -147.5t140.5 -57.5q87 0 139.5 58t57.5 147h61q-9 -126 -81 -196t-177 -70zM596 -8q-146 0 -261 68.5t-177 183t-62 252.5t62 253t177 183.5t261 68.5q138 0 251.5 -62.5t181 -179t67.5 -263.5q0 -146 -67.5 -262
t-181 -179t-251.5 -63zM596 59q183 0 305.5 122.5t122.5 314.5q0 96 -33.5 179t-91 140t-136 89t-167.5 32q-189 0 -309.5 -128t-120.5 -312t120 -310.5t310 -126.5z" />
    <glyph glyph-name="Ohungarumlaut" unicode="&#x150;" horiz-adv-x="1685" 
d="M668 1622l247 279h86l-253 -279h-80zM940 1622l248 279h86l-256 -279h-78zM846 -8q-200 0 -364 91.5t-260.5 261t-96.5 384.5q0 214 96.5 383t260.5 260.5t364 91.5q146 0 277 -53.5t228 -148.5t153.5 -233.5t56.5 -299.5q0 -216 -97 -385.5t-259.5 -260.5t-358.5 -91z
M846 63q130 0 247 48.5t203 134.5t136.5 211.5t50.5 271.5t-50.5 271t-136.5 210.5t-203 134t-247 48.5q-133 0 -251.5 -48.5t-205.5 -134.5t-137.5 -211t-50.5 -270q0 -146 50.5 -271t137.5 -211t205.5 -135t251.5 -49z" />
    <glyph glyph-name="ohungarumlaut" unicode="&#x151;" horiz-adv-x="1191" 
d="M422 1147l248 278h86l-254 -278h-80zM694 1147l248 278h86l-256 -278h-78zM596 -8q-146 0 -261 68.5t-177 183t-62 252.5t62 253t177 183.5t261 68.5q138 0 251.5 -62.5t181 -179t67.5 -263.5q0 -146 -67.5 -262t-181 -179t-251.5 -63zM596 59q183 0 305.5 122.5
t122.5 314.5q0 96 -33.5 179t-91 140t-136 89t-167.5 32q-189 0 -309.5 -128t-120.5 -312t120 -310.5t310 -126.5z" />
    <glyph glyph-name="OE" unicode="&#x152;" horiz-adv-x="1916" 
d="M1004 70h823v-70h-975q-159 0 -296 58.5t-231 157.5t-147 232.5t-53 282.5t53 282t147 231t231 154.5t296 55.5h934v-70h-782v-622h663v-70h-663v-622zM852 72h82v1310h-82q-134 1 -253.5 -46.5t-207 -132t-139 -207.5t-51.5 -265q0 -143 51.5 -267t139 -209.5
t207 -134.5t253.5 -48z" />
    <glyph glyph-name="oe" unicode="&#x153;" horiz-adv-x="1683" 
d="M1618 518q0 -23 -2 -31h-727q6 -201 99.5 -314.5t252.5 -113.5q73 0 127.5 20.5t90 53t73.5 86.5l51 -41q-64 -93 -143 -139.5t-197 -46.5q-83 0 -150 24.5t-113 68t-76 95t-48 113.5h-4q-40 -138 -139.5 -219.5t-227.5 -81.5q-188 0 -299.5 142t-111.5 362
q0 217 114.5 361t296.5 144q127 0 226 -82t139 -219h4q41 139 137.5 220t237.5 81q169 0 279 -137t110 -346zM485 59q144 0 239 122t95 315t-96.5 316.5t-235.5 123.5q-152 0 -247 -125t-95 -315t93.5 -313.5t246.5 -123.5zM891 551h655q-11 174 -96 279.5t-221 105.5
q-148 0 -237 -106t-101 -279z" />
    <glyph glyph-name="Racute" unicode="&#x154;" horiz-adv-x="1263" 
d="M467 1622l231 256h86l-237 -256h-80zM182 0v1454h484q117 0 205.5 -31.5t142.5 -88.5t81 -132t27 -166q0 -196 -110.5 -299t-309.5 -121l441 -616h-88l-439 610h-362v-610h-72zM254 680h373q218 0 319 97t101 259q0 173 -101.5 260.5t-281.5 87.5h-410v-704z" />
    <glyph glyph-name="racute" unicode="&#x155;" horiz-adv-x="663" 
d="M254 1147l250 278h88l-254 -278h-84zM164 0v993h69v-233h5q47 113 136.5 177t209.5 64q41 0 61 -2v-75q-46 4 -61 4q-159 0 -255 -120t-96 -314v-494h-69z" />
    <glyph glyph-name="Rcommaaccent" unicode="&#x156;" horiz-adv-x="1263" 
d="M182 0v1454h484q117 0 205.5 -31.5t142.5 -88.5t81 -132t27 -166q0 -196 -110.5 -299t-309.5 -121l441 -616h-88l-439 610h-362v-610h-72zM254 680h373q218 0 319 97t101 259q0 173 -101.5 260.5t-281.5 87.5h-410v-704zM475 -414l-20 49q79 7 107 44t28 98q0 48 -10 110
h65q10 -55 10 -110q0 -177 -180 -191z" />
    <glyph glyph-name="rcommaaccent" unicode="&#x157;" horiz-adv-x="663" 
d="M164 0v993h69v-233h5q47 113 136.5 177t209.5 64q41 0 61 -2v-75q-46 4 -61 4q-159 0 -255 -120t-96 -314v-494h-69zM66 -414l-21 49q79 7 107 44t28 98q0 48 -10 110h66q10 -55 10 -110q0 -177 -180 -191z" />
    <glyph glyph-name="Rcaron" unicode="&#x158;" horiz-adv-x="1263" 
d="M578 1622l-246 229h82l200 -182h4l205 182h82l-252 -229h-75zM182 0v1454h484q117 0 205.5 -31.5t142.5 -88.5t81 -132t27 -166q0 -196 -110.5 -299t-309.5 -121l441 -616h-88l-439 610h-362v-610h-72zM254 680h373q218 0 319 97t101 259q0 173 -101.5 260.5t-281.5 87.5
h-410v-704z" />
    <glyph glyph-name="rcaron" unicode="&#x159;" horiz-adv-x="663" 
d="M365 1147l-246 266h80l202 -215h5l204 215h80l-252 -266h-73zM164 0v993h69v-233h5q47 113 136.5 177t209.5 64q41 0 61 -2v-75q-46 4 -61 4q-159 0 -255 -120t-96 -314v-494h-69z" />
    <glyph glyph-name="Sacute" unicode="&#x15a;" horiz-adv-x="1150" 
d="M485 1622l232 256h86l-238 -256h-80zM582 -8q-139 0 -269.5 55t-224.5 166l51 57q75 -101 195.5 -154t251.5 -53q164 0 273.5 78.5t109.5 218.5q0 31 -6 59t-14.5 50t-26 43t-31.5 36t-41.5 32.5t-45.5 28t-53 26t-55 23.5t-61 24t-62 25q-175 70 -247 116
q-164 103 -175 264q-1 13 -1 27q0 150 118 250t301 100q109 0 221.5 -41t202.5 -114l-47 -60q-86 69 -185 106.5t-190 37.5q-90 0 -167 -30.5t-128 -95.5t-51 -153q0 -55 22.5 -101t48.5 -75.5t85.5 -63t93 -48t111.5 -45.5q8 -3 12 -5q176 -70 212 -86q146 -70 197 -165
q37 -68 37 -160q0 -165 -125.5 -269t-336.5 -104z" />
    <glyph glyph-name="sacute" unicode="&#x15b;" horiz-adv-x="858" 
d="M393 1149l250 278h88l-254 -278h-84zM436 -8q-212 0 -366 139l36 53q70 -61 144.5 -94t185.5 -33q123 0 196 57.5t73 139.5q0 26 -7 48t-15 38t-29 32.5t-34 25.5t-45.5 23t-49 20t-59 20.5t-60.5 21.5q-57 20 -92.5 35t-77.5 39.5t-65.5 50.5t-39.5 64.5t-16 85.5
q0 104 85 173.5t210 69.5q186 0 325 -118l-41 -54q-120 105 -284 105q-93 0 -158.5 -50.5t-65.5 -121.5q0 -36 14 -65.5t32 -48.5t54.5 -39.5t62 -31t73.5 -28.5q163 -58 202 -76q106 -51 136 -127q17 -41 16 -94q-2 -110 -91.5 -185t-248.5 -75z" />
    <glyph glyph-name="Scircumflex" unicode="&#x15c;" horiz-adv-x="1150" 
d="M289 1622l252 229h75l246 -229h-82l-200 182h-5l-206 -182h-80zM582 -8q-139 0 -269.5 55t-224.5 166l51 57q75 -101 195.5 -154t251.5 -53q164 0 273.5 78.5t109.5 218.5q0 31 -6 59t-14.5 50t-26 43t-31.5 36t-41.5 32.5t-45.5 28t-53 26t-55 23.5t-61 24t-62 25
q-175 70 -247 116q-164 103 -175 264q-1 13 -1 27q0 150 118 250t301 100q109 0 221.5 -41t202.5 -114l-47 -60q-86 69 -185 106.5t-190 37.5q-90 0 -167 -30.5t-128 -95.5t-51 -153q0 -55 22.5 -101t48.5 -75.5t85.5 -63t93 -48t111.5 -45.5q8 -3 12 -5q176 -70 212 -86
q146 -70 197 -165q37 -68 37 -160q0 -165 -125.5 -269t-336.5 -104z" />
    <glyph glyph-name="scircumflex" unicode="&#x15d;" horiz-adv-x="858" 
d="M152 1147l251 268h76l244 -268h-80l-199 217h-4l-209 -217h-79zM436 -8q-212 0 -366 139l36 53q70 -61 144.5 -94t185.5 -33q123 0 196 57.5t73 139.5q0 26 -7 48t-15 38t-29 32.5t-34 25.5t-45.5 23t-49 20t-59 20.5t-60.5 21.5q-57 20 -92.5 35t-77.5 39.5t-65.5 50.5
t-39.5 64.5t-16 85.5q0 104 85 173.5t210 69.5q186 0 325 -118l-41 -54q-120 105 -284 105q-93 0 -158.5 -50.5t-65.5 -121.5q0 -36 14 -65.5t32 -48.5t54.5 -39.5t62 -31t73.5 -28.5q163 -58 202 -76q106 -51 136 -127q17 -41 16 -94q-2 -110 -91.5 -185t-248.5 -75z" />
    <glyph glyph-name="Scedilla" unicode="&#x15e;" horiz-adv-x="1150" 
d="M594 -8l-27 -60v-4q68 -3 118 -45t50 -112q0 -63 -48.5 -106.5t-135.5 -43.5q-55 0 -102 12v56q51 -15 94 -15q55 0 93 25.5t38 75.5q0 44 -44.5 77t-125.5 33l2 43l31 66q-128 8 -245.5 62.5t-203.5 156.5l51 57q75 -101 195.5 -154t251.5 -53q164 0 273.5 78.5
t109.5 218.5q0 31 -6 59t-14.5 50t-26 43t-31.5 36t-41.5 32.5t-45.5 28t-53 26t-55 23.5t-61 24t-62 25q-175 70 -247 116q-164 103 -175 264q-1 13 -1 27q0 150 118 250t301 100q109 0 221.5 -41t202.5 -114l-47 -60q-86 69 -185 106.5t-190 37.5q-90 0 -167 -30.5
t-128 -95.5t-51 -153q0 -55 22.5 -101t48.5 -75.5t85.5 -63t93 -48t111.5 -45.5q8 -3 12 -5q176 -70 212 -86q146 -70 197 -165q37 -68 37 -160q0 -163 -122.5 -266.5t-327.5 -106.5z" />
    <glyph glyph-name="scedilla" unicode="&#x15f;" horiz-adv-x="858" 
d="M422 549q163 -58 202 -76q106 -51 136 -127q17 -41 16 -94q-2 -110 -91.5 -185t-248.5 -75h-14l-27 -60v-4q68 -3 118 -45t50 -112q0 -63 -48.5 -106.5t-135.5 -43.5q-57 0 -103 12v56q51 -15 95 -15q55 0 93 25.5t38 75.5q0 44 -44.5 77t-125.5 33l2 43l31 68
q-168 21 -295 135l36 53q70 -61 144.5 -94t185.5 -33q123 0 196 57.5t73 139.5q0 26 -7 48t-15 38t-29 32.5t-34 25.5t-45.5 23t-49 20t-59 20.5t-60.5 21.5q-57 20 -92.5 35t-77.5 39.5t-65.5 50.5t-39.5 64.5t-16 85.5q0 104 85 173.5t210 69.5q186 0 325 -118l-41 -54
q-120 105 -284 105q-93 0 -158.5 -50.5t-65.5 -121.5q0 -36 14 -65.5t32 -48.5t54.5 -39.5t62 -31t73.5 -28.5z" />
    <glyph glyph-name="Scaron" unicode="&#x160;" horiz-adv-x="1150" 
d="M535 1622l-246 229h82l200 -182h4l205 182h82l-252 -229h-75zM582 -8q-139 0 -269.5 55t-224.5 166l51 57q75 -101 195.5 -154t251.5 -53q164 0 273.5 78.5t109.5 218.5q0 31 -6 59t-14.5 50t-26 43t-31.5 36t-41.5 32.5t-45.5 28t-53 26t-55 23.5t-61 24t-62 25
q-175 70 -247 116q-164 103 -175 264q-1 13 -1 27q0 150 118 250t301 100q109 0 221.5 -41t202.5 -114l-47 -60q-86 69 -185 106.5t-190 37.5q-90 0 -167 -30.5t-128 -95.5t-51 -153q0 -55 22.5 -101t48.5 -75.5t85.5 -63t93 -48t111.5 -45.5q8 -3 12 -5q176 -70 212 -86
q146 -70 197 -165q37 -68 37 -160q0 -165 -125.5 -269t-336.5 -104z" />
    <glyph glyph-name="scaron" unicode="&#x161;" horiz-adv-x="858" 
d="M397 1147l-245 266h79l203 -215h4l205 215h80l-252 -266h-74zM436 -8q-212 0 -366 139l36 53q70 -61 144.5 -94t185.5 -33q123 0 196 57.5t73 139.5q0 26 -7 48t-15 38t-29 32.5t-34 25.5t-45.5 23t-49 20t-59 20.5t-60.5 21.5q-57 20 -92.5 35t-77.5 39.5t-65.5 50.5
t-39.5 64.5t-16 85.5q0 104 85 173.5t210 69.5q186 0 325 -118l-41 -54q-120 105 -284 105q-93 0 -158.5 -50.5t-65.5 -121.5q0 -36 14 -65.5t32 -48.5t54.5 -39.5t62 -31t73.5 -28.5q163 -58 202 -76q106 -51 136 -127q17 -41 16 -94q-2 -110 -91.5 -185t-248.5 -75z" />
    <glyph glyph-name="uni0162" unicode="&#x162;" horiz-adv-x="1122" 
d="M575 0l-28 -68v-4q68 -3 118 -45t50 -112q0 -63 -49 -106.5t-136 -43.5q-56 0 -102 12v56q51 -15 94 -15q55 0 93 25.5t38 75.5q0 44 -44.5 77t-125.5 33l2 43l37 80v1376h-469v70h1016v-70h-475v-1384h-19z" />
    <glyph glyph-name="uni0163" unicode="&#x163;" horiz-adv-x="727" 
d="M647 928h-385v-629q0 -125 31.5 -182.5t128.5 -57.5q109 0 201 64l18 -66q-101 -65 -219 -65h-14l-27 -60v-4q68 -3 118 -45t50 -112q0 -63 -48.5 -106.5t-135.5 -43.5q-57 0 -103 12v56q51 -15 94 -15q55 0 93 25.5t38 75.5q0 44 -44.5 77t-125.5 33l2 43l33 70
q-90 19 -124.5 86t-34.5 184v660h-136v65h136v355l69 8v-363h385v-65z" />
    <glyph glyph-name="Tcaron" unicode="&#x164;" horiz-adv-x="1122" 
d="M518 1622l-246 229h82l201 -182h4l205 182h82l-252 -229h-76zM522 0v1384h-469v70h1016v-70h-475v-1384h-72z" />
    <glyph glyph-name="tcaron" unicode="&#x165;" horiz-adv-x="727" 
d="M440 1219l52 333h77l-73 -333h-56zM422 -8q-130 0 -179.5 69.5t-49.5 206.5v660h-136v65h136v355l69 8v-363h385v-65h-385v-629q0 -125 31.5 -182.5t128.5 -57.5q109 0 201 64l18 -66q-101 -65 -219 -65z" />
    <glyph glyph-name="Tbar" unicode="&#x166;" horiz-adv-x="1122" 
d="M1069 1384h-475v-587h250v-64h-250v-733h-72v733h-248v64h248v587h-469v70h1016v-70z" />
    <glyph glyph-name="tbar" unicode="&#x167;" horiz-adv-x="727" 
d="M647 928h-385v-316h342v-59h-342v-254q0 -125 31.5 -182.5t128.5 -57.5q109 0 201 64l18 -66q-101 -65 -219 -65q-130 0 -179.5 69.5t-49.5 206.5v285h-105v59h105v316h-136v65h136v355l69 8v-363h385v-65z" />
    <glyph glyph-name="Utilde" unicode="&#x168;" horiz-adv-x="1406" 
d="M864 1622q-31 0 -66.5 14.5t-54 26.5t-57.5 39q-78 57 -129 57q-83 0 -129 -123l-55 19q56 166 180 166q29 0 61 -11.5t48 -21t53 -33.5q6 -4 33.5 -23t39 -26t33 -15t39.5 -8q39 0 71 30.5t50 92.5l55 -18q-25 -83 -71 -124.5t-101 -41.5zM702 -8q-241 0 -389.5 158.5
t-148.5 431.5v872h74v-870q0 -242 127 -381.5t337 -139.5q211 0 340 139.5t129 381.5v870h72v-872q0 -272 -149.5 -431t-391.5 -159z" />
    <glyph glyph-name="utilde" unicode="&#x169;" horiz-adv-x="1101" 
d="M705 1182q-12 0 -25 2.5t-22.5 4.5t-24.5 9.5t-22 10.5t-24 13.5t-20.5 12.5t-22.5 15t-20 14q-76 55 -127 55q-83 0 -129 -123l-55 18q55 166 180 166q75 0 158 -61q8 -6 28 -20t31 -21t27.5 -16t31 -13t29.5 -4q39 0 72 31t51 92l56 -18q-24 -83 -70.5 -125.5
t-101.5 -42.5zM514 -8q-179 0 -277 115t-98 315v571h70v-544q0 -196 82 -293t231 -97q154 0 257.5 123t103.5 322v489h69v-993h-69v242l-2 2q-52 -118 -150 -185t-217 -67z" />
    <glyph glyph-name="Umacron" unicode="&#x16a;" horiz-adv-x="1406" 
d="M428 1698v65h555v-65h-555zM702 -8q-241 0 -389.5 158.5t-148.5 431.5v872h74v-870q0 -242 127 -381.5t337 -139.5q211 0 340 139.5t129 381.5v870h72v-872q0 -272 -149.5 -431t-391.5 -159z" />
    <glyph glyph-name="umacron" unicode="&#x16b;" horiz-adv-x="1101" 
d="M268 1257v66h555v-66h-555zM514 -8q-179 0 -277 115t-98 315v571h70v-544q0 -196 82 -293t231 -97q154 0 257.5 123t103.5 322v489h69v-993h-69v242l-2 2q-52 -118 -150 -185t-217 -67z" />
    <glyph glyph-name="Ubreve" unicode="&#x16c;" horiz-adv-x="1406" 
d="M705 1614q-104 0 -178 65.5t-81 171.5h60q6 -71 59.5 -123.5t139.5 -52.5t138.5 52.5t57.5 123.5h62q-9 -107 -82 -172t-176 -65zM702 -8q-241 0 -389.5 158.5t-148.5 431.5v872h74v-870q0 -242 127 -381.5t337 -139.5q211 0 340 139.5t129 381.5v870h72v-872
q0 -272 -149.5 -431t-391.5 -159z" />
    <glyph glyph-name="ubreve" unicode="&#x16d;" horiz-adv-x="1101" 
d="M545 1145q-107 0 -179 70t-81 196h61q6 -90 58.5 -147.5t140.5 -57.5q87 0 139 58t57 147h62q-9 -126 -81 -196t-177 -70zM514 -8q-179 0 -277 115t-98 315v571h70v-544q0 -196 82 -293t231 -97q154 0 257.5 123t103.5 322v489h69v-993h-69v242l-2 2q-52 -118 -150 -185
t-217 -67z" />
    <glyph glyph-name="Uring" unicode="&#x16e;" horiz-adv-x="1406" 
d="M702 1597q-63 0 -110 47.5t-47 110.5q0 65 46.5 111.5t110.5 46.5q66 0 114 -46t48 -112q0 -64 -47.5 -111t-114.5 -47zM702 1657q43 0 74 29t31 69q0 41 -31 72t-74 31q-41 0 -70.5 -30.5t-29.5 -72.5q0 -40 29.5 -69t70.5 -29zM702 -8q-241 0 -389.5 158.5
t-148.5 431.5v872h74v-870q0 -242 127 -381.5t337 -139.5q211 0 340 139.5t129 381.5v870h72v-872q0 -272 -149.5 -431t-391.5 -159z" />
    <glyph glyph-name="uring" unicode="&#x16f;" horiz-adv-x="1101" 
d="M543 1130q-63 0 -110.5 47.5t-47.5 110.5q0 64 46.5 111t111.5 47q66 0 114 -46t48 -112q0 -64 -47.5 -111t-114.5 -47zM543 1190q43 0 73.5 29t30.5 69q0 42 -30.5 72.5t-73.5 30.5q-41 0 -71 -31t-30 -72q0 -40 30 -69t71 -29zM514 -8q-179 0 -277 115t-98 315v571h70
v-544q0 -196 82 -293t231 -97q154 0 257.5 123t103.5 322v489h69v-993h-69v242l-2 2q-52 -118 -150 -185t-217 -67z" />
    <glyph glyph-name="Uhungarumlaut" unicode="&#x170;" horiz-adv-x="1406" 
d="M528 1622l248 279h86l-254 -279h-80zM801 1622l248 279h86l-256 -279h-78zM702 -8q-241 0 -389.5 158.5t-148.5 431.5v872h74v-870q0 -242 127 -381.5t337 -139.5q211 0 340 139.5t129 381.5v870h72v-872q0 -272 -149.5 -431t-391.5 -159z" />
    <glyph glyph-name="uhungarumlaut" unicode="&#x171;" horiz-adv-x="1101" 
d="M369 1147l247 278h86l-253 -278h-80zM641 1147l248 278h86l-256 -278h-78zM514 -8q-179 0 -277 115t-98 315v571h70v-544q0 -196 82 -293t231 -97q154 0 257.5 123t103.5 322v489h69v-993h-69v242l-2 2q-52 -118 -150 -185t-217 -67z" />
    <glyph glyph-name="Uogonek" unicode="&#x172;" horiz-adv-x="1406" 
d="M1171 1454h72v-872q0 -243 -120 -397t-322 -185q-70 -37 -112 -92t-42 -111q0 -48 30.5 -77t90.5 -29q62 0 115 24l10 -59q-59 -27 -131 -27q-83 0 -131.5 42t-48.5 118q0 49 30 103t86 98v2q-240 2 -387 160t-147 430v872h74v-870q0 -242 127 -381.5t337 -139.5
q211 0 340 139.5t129 381.5v870z" />
    <glyph glyph-name="uogonek" unicode="&#x173;" horiz-adv-x="1101" 
d="M1024 -287l8 -59q-56 -27 -131 -27q-83 0 -130.5 41.5t-47.5 118.5q0 58 41.5 120.5t118.5 110.5v224l-2 2q-52 -118 -150 -185t-217 -67q-179 0 -277 115t-98 315v571h70v-544q0 -196 82 -293t231 -97q154 0 257.5 123t103.5 322v489h69v-993h-2q-73 -35 -117.5 -91.5
t-44.5 -113.5q0 -49 29.5 -78.5t89.5 -29.5q66 0 117 26z" />
    <glyph glyph-name="Wcircumflex" unicode="&#x174;" horiz-adv-x="2041" 
d="M733 1622l252 229h76l246 -229h-82l-201 182h-4l-207 -182h-80zM539 0l-469 1454h77l433 -1341h2l395 1341h88l393 -1341h2l434 1341h78l-469 -1454h-84l-397 1350h-2l-399 -1350h-82z" />
    <glyph glyph-name="wcircumflex" unicode="&#x175;" horiz-adv-x="1544" 
d="M485 1147l252 268h76l244 -268h-80l-199 217h-4l-209 -217h-80zM418 0l-350 993h71l312 -880h4l280 880h72l285 -880h4l309 880h74l-351 -993h-71l-283 885h-2l-287 -885h-67z" />
    <glyph glyph-name="Ycircumflex" unicode="&#x176;" horiz-adv-x="1157" 
d="M293 1622l252 229h76l245 -229h-82l-200 182h-4l-207 -182h-80zM541 0v659l-506 795h88l452 -717h5l454 717h86l-506 -795v-659h-73z" />
    <glyph glyph-name="ycircumflex" unicode="&#x177;" horiz-adv-x="1044" 
d="M240 1147l252 268h75l244 -268h-80l-199 217h-4l-209 -217h-79zM324 -406l176 422l-447 977h80l402 -891h2l372 891h78l-588 -1399h-75z" />
    <glyph glyph-name="Ydieresis" unicode="&#x178;" horiz-adv-x="1157" 
d="M424 1681q-29 0 -49.5 20t-20.5 48q0 30 20 49t50 19q29 0 48.5 -19.5t19.5 -48.5t-19.5 -48.5t-48.5 -19.5zM739 1681q-30 0 -49.5 20t-19.5 48q0 31 19 49.5t50 18.5q29 0 48.5 -19.5t19.5 -48.5t-19.5 -48.5t-48.5 -19.5zM541 0v659l-506 795h88l452 -717h5l454 717
h86l-506 -795v-659h-73z" />
    <glyph glyph-name="Zacute" unicode="&#x179;" horiz-adv-x="1214" 
d="M444 1622l232 256h86l-238 -256h-80zM115 0v63l866 1319l-2 2h-811v70h909v-65l-866 -1317l2 -2h872v-70h-970z" />
    <glyph glyph-name="zacute" unicode="&#x17a;" horiz-adv-x="909" 
d="M418 1149l250 278h88l-254 -278h-84zM61 0v59l678 867v2h-651v65h748v-57l-680 -868v-5h688v-63h-783z" />
    <glyph glyph-name="Zdotaccent" unicode="&#x17b;" horiz-adv-x="1214" 
d="M596 1679q-29 0 -49.5 20.5t-20.5 49.5q0 30 20 49t50 19q31 0 50.5 -18.5t19.5 -49.5q0 -30 -20 -50t-50 -20zM115 0v63l866 1319l-2 2h-811v70h909v-65l-866 -1317l2 -2h872v-70h-970z" />
    <glyph glyph-name="zdotaccent" unicode="&#x17c;" horiz-adv-x="909" 
d="M451 1227q-29 0 -49.5 20t-20.5 49q0 30 20 49t50 19q31 0 50 -18.5t19 -49.5q0 -30 -19.5 -49.5t-49.5 -19.5zM61 0v59l678 867v2h-651v65h748v-57l-680 -868v-5h688v-63h-783z" />
    <glyph glyph-name="Zcaron" unicode="&#x17d;" horiz-adv-x="1214" 
d="M555 1622l-246 229h82l201 -182h4l205 182h82l-252 -229h-76zM115 0v63l866 1319l-2 2h-811v70h909v-65l-866 -1317l2 -2h872v-70h-970z" />
    <glyph glyph-name="zcaron" unicode="&#x17e;" horiz-adv-x="909" 
d="M408 1147l-246 266h80l202 -215h5l204 215h80l-252 -266h-73zM61 0v59l678 867v2h-651v65h748v-57l-680 -868v-5h688v-63h-783z" />
    <glyph glyph-name="longs" unicode="&#x17f;" horiz-adv-x="598" 
d="M211 0v928h-135v65h135v234q0 145 66.5 218t181.5 73q105 0 203 -58l-15 -63q-95 53 -186 53q-81 0 -130.5 -54.5t-49.5 -172.5v-1223h-70z" />
    <glyph glyph-name="uni018F" unicode="&#x18f;" horiz-adv-x="1570" 
d="M737 1464q163 0 298.5 -57.5t225 -157.5t138.5 -234t49 -288q0 -210 -87 -378t-243 -262.5t-352 -94.5q-136 0 -256 43t-213.5 125t-148 212.5t-54.5 293.5v39h1276v22q-1 192 -77 342t-221.5 237t-338.5 87q-140 0 -258 -44t-233 -135l-49 54q237 196 544 196zM764 63
q245 0 410.5 158t191.5 414h-1198q2 -128 48 -235.5t125 -181t188 -114.5t235 -41z" />
    <glyph glyph-name="florin" unicode="&#x192;" horiz-adv-x="1046" 
d="M170 -201q-144 0 -236 82l37 53q76 -67 195 -67q88 0 143.5 55t71.5 184l106 783h-161l8 65h162l34 265q23 157 94.5 228t190.5 71q139 0 234 -82l-37 -52q-82 64 -195 64q-88 0 -143.5 -54.5t-73.5 -185.5l-31 -254h336l-8 -65h-338l-108 -791q-20 -156 -91.5 -227.5
t-189.5 -71.5z" />
    <glyph glyph-name="uni019D" unicode="&#x19d;" horiz-adv-x="1501" 
d="M1243 1454h74v-1454h-74l-985 1325h-2v-1479q0 -260 -221 -260q-68 0 -133 29l6 68q52 -29 123 -29q151 0 151 184v1616h74v-6l985 -1323h2v1329z" />
    <glyph glyph-name="Ohorn" unicode="&#x1a0;" horiz-adv-x="1765" 
d="M1599 1585h68v-155q0 -154 -50.5 -228t-152.5 -88q97 -173 97 -385q0 -216 -97 -385.5t-259.5 -260.5t-358.5 -91q-200 0 -364 91.5t-260.5 261t-96.5 384.5q0 214 96.5 383t260.5 260.5t364 91.5q180 0 332 -77.5t249 -217.5q90 8 131 65.5t41 195.5v155zM846 63
q130 0 247 48.5t203 134.5t136.5 211.5t50.5 271.5t-50.5 271t-136.5 210.5t-203 134t-247 48.5q-133 0 -251.5 -48.5t-205.5 -134.5t-137.5 -211t-50.5 -270q0 -146 50.5 -271t137.5 -211t205.5 -135t251.5 -49z" />
    <glyph glyph-name="ohorn" unicode="&#x1a1;" horiz-adv-x="1333" 
d="M1206 1157h68v-156q0 -156 -53 -230.5t-158 -86.5q33 -94 33 -188q0 -146 -67.5 -262t-181 -179t-251.5 -63q-146 0 -261 68.5t-177 183t-62 252.5t62 253t177 183.5t261 68.5q144 0 261.5 -69t180.5 -189q87 6 127.5 64t40.5 194v156zM596 59q183 0 305.5 122.5
t122.5 314.5q0 96 -33.5 179t-91 140t-136 89t-167.5 32q-189 0 -309.5 -128t-120.5 -312t120 -310.5t310 -126.5z" />
    <glyph glyph-name="Uhorn" unicode="&#x1af;" horiz-adv-x="1531" 
d="M1419 1585h68v-155q0 -168 -61 -241.5t-183 -78.5v-528q0 -272 -149.5 -431t-391.5 -159q-241 0 -389.5 158.5t-148.5 431.5v872h74v-870q0 -242 127 -381.5t337 -139.5q211 0 340 139.5t129 381.5v870h72v-285q92 6 134 63.5t42 197.5v155z" />
    <glyph glyph-name="uhorn" unicode="&#x1b0;" horiz-adv-x="1249" 
d="M1124 1157h68v-156q0 -167 -59.5 -240t-180.5 -79v-682h-69v242l-2 2q-52 -118 -150 -185t-217 -67q-179 0 -277 115t-98 315v571h70v-544q0 -196 82 -293t231 -97q154 0 257.5 123t103.5 322v489h69v-252q90 6 131 64t41 196v156z" />
    <glyph glyph-name="uni01CD" unicode="&#x1cd;" horiz-adv-x="1325" 
d="M621 1622l-246 229h82l200 -182h5l204 182h82l-252 -229h-75zM57 0l561 1454h82l568 -1454h-78l-162 418h-731l-162 -418h-78zM322 485h679l-337 881h-5z" />
    <glyph glyph-name="uni01CE" unicode="&#x1ce;" horiz-adv-x="1216" 
d="M551 1147l-246 266h80l203 -215h4l205 215h80l-252 -266h-74zM582 -8q-135 0 -246.5 61t-177.5 175t-66 259q0 142 61 259t174.5 186t256.5 69q135 0 245.5 -72t165.5 -198l2 2v260h68v-993h-68v254h-2q-56 -121 -163.5 -191.5t-249.5 -70.5zM588 59q173 0 291 119
t118 309q0 123 -50 225t-144.5 163t-214.5 61q-178 0 -301 -126t-123 -323q0 -182 118 -305t306 -123z" />
    <glyph glyph-name="uni01CF" unicode="&#x1cf;" horiz-adv-x="464" 
d="M190 1622l-245 229h82l200 -182h4l205 182h82l-252 -229h-76zM195 0v1454h73v-1454h-73z" />
    <glyph glyph-name="uni01D0" unicode="&#x1d0;" horiz-adv-x="419" 
d="M170 1147l-246 266h80l203 -215h4l205 215h80l-252 -266h-74zM174 0v993h70v-993h-70z" />
    <glyph glyph-name="uni01D1" unicode="&#x1d1;" horiz-adv-x="1685" 
d="M803 1622l-246 229h82l201 -182h4l205 182h81l-251 -229h-76zM846 -8q-200 0 -364 91.5t-260.5 261t-96.5 384.5q0 214 96.5 383t260.5 260.5t364 91.5q146 0 277 -53.5t228 -148.5t153.5 -233.5t56.5 -299.5q0 -216 -97 -385.5t-259.5 -260.5t-358.5 -91zM846 63
q130 0 247 48.5t203 134.5t136.5 211.5t50.5 271.5t-50.5 271t-136.5 210.5t-203 134t-247 48.5q-133 0 -251.5 -48.5t-205.5 -134.5t-137.5 -211t-50.5 -270q0 -146 50.5 -271t137.5 -211t205.5 -135t251.5 -49z" />
    <glyph glyph-name="uni01D2" unicode="&#x1d2;" horiz-adv-x="1191" 
d="M557 1147l-246 266h80l203 -215h4l205 215h80l-252 -266h-74zM596 -8q-146 0 -261 68.5t-177 183t-62 252.5t62 253t177 183.5t261 68.5q138 0 251.5 -62.5t181 -179t67.5 -263.5q0 -146 -67.5 -262t-181 -179t-251.5 -63zM596 59q183 0 305.5 122.5t122.5 314.5
q0 96 -33.5 179t-91 140t-136 89t-167.5 32q-189 0 -309.5 -128t-120.5 -312t120 -310.5t310 -126.5z" />
    <glyph glyph-name="uni01D3" unicode="&#x1d3;" horiz-adv-x="1406" 
d="M664 1622l-246 229h82l200 -182h5l204 182h82l-252 -229h-75zM702 -8q-241 0 -389.5 158.5t-148.5 431.5v872h74v-870q0 -242 127 -381.5t337 -139.5q211 0 340 139.5t129 381.5v870h72v-872q0 -272 -149.5 -431t-391.5 -159z" />
    <glyph glyph-name="uni01D4" unicode="&#x1d4;" horiz-adv-x="1101" 
d="M504 1147l-246 266h80l203 -215h4l205 215h79l-251 -266h-74zM514 -8q-179 0 -277 115t-98 315v571h70v-544q0 -196 82 -293t231 -97q154 0 257.5 123t103.5 322v489h69v-993h-69v242l-2 2q-52 -118 -150 -185t-217 -67z" />
    <glyph glyph-name="uni01D5" unicode="&#x1d5;" horiz-adv-x="1406" 
d="M428 1948v59h555v-59h-555zM549 1655q-29 0 -49.5 20t-20.5 49t20 47.5t50 18.5q31 0 50 -18.5t19 -47.5q0 -30 -19.5 -49.5t-49.5 -19.5zM858 1655q-29 0 -49.5 20t-20.5 49t20 47.5t50 18.5q31 0 50.5 -18.5t19.5 -47.5q0 -30 -20 -49.5t-50 -19.5zM702 -8
q-241 0 -389.5 158.5t-148.5 431.5v872h74v-870q0 -242 127 -381.5t337 -139.5q211 0 340 139.5t129 381.5v870h72v-872q0 -272 -149.5 -431t-391.5 -159z" />
    <glyph glyph-name="uni01D6" unicode="&#x1d6;" horiz-adv-x="1101" 
d="M268 1550v66h555v-66h-555zM387 1231q-30 0 -50 19t-20 48q0 30 20 48t50 18t49 -18t19 -48q0 -29 -19.5 -48t-48.5 -19zM702 1231q-31 0 -51 19t-20 48q0 30 20 48t51 18q30 0 49 -18t19 -48q0 -29 -19.5 -48t-48.5 -19zM514 -8q-179 0 -277 115t-98 315v571h70v-544
q0 -196 82 -293t231 -97q154 0 257.5 123t103.5 322v489h69v-993h-69v242l-2 2q-52 -118 -150 -185t-217 -67z" />
    <glyph glyph-name="uni01D7" unicode="&#x1d7;" horiz-adv-x="1406" 
d="M676 1829l242 274h88l-256 -274h-74zM549 1655q-29 0 -49.5 20t-20.5 49t20 47.5t50 18.5q31 0 50 -18.5t19 -47.5q0 -30 -19.5 -49.5t-49.5 -19.5zM858 1655q-29 0 -49.5 20t-20.5 49t20 47.5t50 18.5q31 0 50.5 -18.5t19.5 -47.5q0 -30 -20 -49.5t-50 -19.5zM702 -8
q-241 0 -389.5 158.5t-148.5 431.5v872h74v-870q0 -242 127 -381.5t337 -139.5q211 0 340 139.5t129 381.5v870h72v-872q0 -272 -149.5 -431t-391.5 -159z" />
    <glyph glyph-name="uni01D8" unicode="&#x1d8;" horiz-adv-x="1101" 
d="M500 1430l250 278h88l-260 -278h-78zM387 1231q-30 0 -50 19t-20 48q0 30 20 48t50 18t49 -18t19 -48q0 -29 -19.5 -48t-48.5 -19zM702 1231q-31 0 -51 19t-20 48q0 30 20 48t51 18q30 0 49 -18t19 -48q0 -29 -19.5 -48t-48.5 -19zM514 -8q-179 0 -277 115t-98 315v571
h70v-544q0 -196 82 -293t231 -97q154 0 257.5 123t103.5 322v489h69v-993h-69v242l-2 2q-52 -118 -150 -185t-217 -67z" />
    <glyph glyph-name="uni01D9" unicode="&#x1d9;" horiz-adv-x="1406" 
d="M678 1872l-246 229h82l201 -182h4l205 182h82l-252 -229h-76zM549 1655q-29 0 -49.5 20t-20.5 49t20 47.5t50 18.5q31 0 50 -18.5t19 -47.5q0 -30 -19.5 -49.5t-49.5 -19.5zM858 1655q-29 0 -49.5 20t-20.5 49t20 47.5t50 18.5q31 0 50.5 -18.5t19.5 -47.5
q0 -30 -20 -49.5t-50 -19.5zM702 -8q-241 0 -389.5 158.5t-148.5 431.5v872h74v-870q0 -242 127 -381.5t337 -139.5q211 0 340 139.5t129 381.5v870h72v-872q0 -272 -149.5 -431t-391.5 -159z" />
    <glyph glyph-name="uni01DA" unicode="&#x1da;" horiz-adv-x="1101" 
d="M504 1454l-246 266h80l203 -215h4l205 215h79l-251 -266h-74zM387 1231q-30 0 -50 19t-20 48q0 30 20 48t50 18t49 -18t19 -48q0 -29 -19.5 -48t-48.5 -19zM702 1231q-31 0 -51 19t-20 48q0 30 20 48t51 18q30 0 49 -18t19 -48q0 -29 -19.5 -48t-48.5 -19zM514 -8
q-179 0 -277 115t-98 315v571h70v-544q0 -196 82 -293t231 -97q154 0 257.5 123t103.5 322v489h69v-993h-69v242l-2 2q-52 -118 -150 -185t-217 -67z" />
    <glyph glyph-name="uni01DB" unicode="&#x1db;" horiz-adv-x="1406" 
d="M670 1829l-254 274h86l241 -274h-73zM549 1655q-29 0 -49.5 20t-20.5 49t20 47.5t50 18.5q31 0 50 -18.5t19 -47.5q0 -30 -19.5 -49.5t-49.5 -19.5zM858 1655q-29 0 -49.5 20t-20.5 49t20 47.5t50 18.5q31 0 50.5 -18.5t19.5 -47.5q0 -30 -20 -49.5t-50 -19.5zM702 -8
q-241 0 -389.5 158.5t-148.5 431.5v872h74v-870q0 -242 127 -381.5t337 -139.5q211 0 340 139.5t129 381.5v870h72v-872q0 -272 -149.5 -431t-391.5 -159z" />
    <glyph glyph-name="uni01DC" unicode="&#x1dc;" horiz-adv-x="1101" 
d="M600 1430h-76l-262 278h88zM387 1231q-30 0 -50 19t-20 48q0 30 20 48t50 18t49 -18t19 -48q0 -29 -19.5 -48t-48.5 -19zM702 1231q-31 0 -51 19t-20 48q0 30 20 48t51 18q30 0 49 -18t19 -48q0 -29 -19.5 -48t-48.5 -19zM514 -8q-179 0 -277 115t-98 315v571h70v-544
q0 -196 82 -293t231 -97q154 0 257.5 123t103.5 322v489h69v-993h-69v242l-2 2q-52 -118 -150 -185t-217 -67z" />
    <glyph glyph-name="Gcaron" unicode="&#x1e6;" horiz-adv-x="1556" 
d="M786 1622l-245 229h82l200 -182h4l205 182h82l-252 -229h-76zM840 -6q-155 0 -287.5 53.5t-227 148.5t-147.5 231.5t-53 297.5q0 216 89.5 384t252 261.5t371.5 93.5q323 0 532 -209l-49 -47q-193 185 -483 185q-282 0 -459.5 -185t-177.5 -483q0 -193 80 -344
t226 -234.5t333 -83.5q299 0 487 156v420h-526v70h598v-527q-209 -188 -559 -188z" />
    <glyph glyph-name="gcaron" unicode="&#x1e7;" horiz-adv-x="1206" 
d="M539 1147l-246 266h80l202 -215h5l204 215h80l-252 -266h-73zM598 -414q-215 0 -405 115l18 68q183 -115 387 -115q194 0 292.5 102.5t98.5 274.5v248h-2q-54 -119 -161 -187.5t-251 -68.5q-133 0 -242 60t-174 173.5t-65 259.5q0 134 59.5 244t170.5 175.5t251 65.5
q136 0 245.5 -65.5t166.5 -181.5h2v239h68v-962q0 -204 -117 -324.5t-342 -120.5zM580 90q186 0 298.5 121t112.5 307q0 184 -117 301t-292 117q-122 0 -218 -57t-147 -152t-51 -209q0 -191 119 -309.5t295 -118.5z" />
    <glyph glyph-name="uni01EA" unicode="&#x1ea;" horiz-adv-x="1685" 
d="M913 -6q-69 -35 -110 -89t-41 -110q0 -49 29.5 -78.5t89.5 -29.5q42 0 64.5 5.5t51.5 20.5l9 -59q-56 -27 -132 -27q-83 0 -130.5 41.5t-47.5 118.5q0 49 31.5 105t89.5 100q-144 5 -271 61t-220 151t-147 231t-54 294q0 214 96.5 383t260.5 260.5t364 91.5
q146 0 277 -53.5t228 -148.5t153.5 -233.5t56.5 -299.5q0 -153 -50.5 -286t-138 -226.5t-206 -152t-253.5 -70.5zM201 729q0 -146 50.5 -271t137.5 -211t205.5 -135t251.5 -49q130 0 247 48.5t203 134.5t136.5 211.5t50.5 271.5t-50.5 271t-136.5 210.5t-203 134t-247 48.5
q-133 0 -251.5 -48.5t-205.5 -134.5t-137.5 -211t-50.5 -270z" />
    <glyph glyph-name="uni01EB" unicode="&#x1eb;" horiz-adv-x="1191" 
d="M653 -6q-69 -35 -110 -89t-41 -110q0 -49 29.5 -78.5t89.5 -29.5q42 0 64.5 5.5t51.5 20.5l8 -59q-56 -27 -131 -27q-83 0 -130.5 41.5t-47.5 118.5q0 50 32 105.5t91 99.5v2q-136 9 -242.5 78.5t-163.5 180.5t-57 243q0 138 62 253t177 183.5t261 68.5
q138 0 251.5 -62.5t181 -179t67.5 -263.5q0 -205 -126 -343t-317 -159zM166 496q0 -184 120 -310.5t310 -126.5q183 0 305.5 122.5t122.5 314.5q0 96 -33.5 179t-91 140t-136 89t-167.5 32q-189 0 -309.5 -128t-120.5 -312z" />
    <glyph glyph-name="Aringacute" unicode="&#x1fa;" horiz-adv-x="1325" 
d="M659 1597q-63 0 -110 47.5t-47 110.5q0 65 46.5 111.5t110.5 46.5q42 0 79 -21t59 -55l180 119h102l-260 -174q2 -8 2 -27q0 -64 -47.5 -111t-114.5 -47zM659 1858q-41 0 -70.5 -30.5t-29.5 -72.5q0 -40 29.5 -69t70.5 -29q43 0 74 29t31 69q0 41 -31 72t-74 31z
M700 1454l568 -1454h-78l-162 418h-731l-162 -418h-78l561 1454h82zM322 485h679l-337 881h-5z" />
    <glyph glyph-name="aringacute" unicode="&#x1fb;" horiz-adv-x="1216" 
d="M590 1133q-63 0 -110.5 47t-47.5 110q0 64 47 111t111 47q81 0 129 -64l178 115h102l-254 -166q7 -24 7 -43q0 -64 -47.5 -110.5t-114.5 -46.5zM590 1393q-41 0 -71 -31t-30 -72q0 -40 30 -69t71 -29q43 0 73.5 29t30.5 69q0 42 -31 72.5t-73 30.5zM997 993h68v-993h-68
v254h-2q-56 -121 -163.5 -191.5t-249.5 -70.5q-135 0 -246.5 61t-177.5 175t-66 259q0 142 61 259t174.5 186t256.5 69q135 0 245.5 -72t165.5 -198l2 2v260zM588 59q173 0 291 119t118 309q0 123 -50 225t-144.5 163t-214.5 61q-178 0 -301 -126t-123 -323q0 -182 118 -305
t306 -123z" />
    <glyph glyph-name="AEacute" unicode="&#x1fc;" horiz-adv-x="1855" 
d="M879 1622l231 256h86l-238 -256h-79zM12 0l828 1454h901v-70h-780v-624h659v-70h-659v-620h821v-70h-895v418h-553l-240 -418h-82zM371 485h516v899h-2z" />
    <glyph glyph-name="aeacute" unicode="&#x1fd;" horiz-adv-x="1622" 
d="M1065 1427l-254 -278h-84l250 278h88zM1528 520v-33h-735q9 -201 104.5 -314.5t253.5 -113.5q72 0 126.5 20.5t89.5 52.5t75 87l51 -41q-66 -94 -144 -140t-198 -46q-149 0 -242.5 77.5t-134.5 198.5h-2q-33 -128 -139 -202t-248 -74q-149 0 -230 82.5t-81 204.5
q0 121 90 196.5t268 75.5h295v45q0 187 -51 262.5t-180 75.5q-162 0 -308 -84l-30 57q157 94 340 94q132 0 197.5 -64t84.5 -198h2q45 121 138.5 191.5t218.5 70.5q168 0 278.5 -137t110.5 -344zM797 551h659q-9 173 -94 279t-223 106q-147 0 -237.5 -106.5t-104.5 -278.5z
M389 57q142 0 240 88.5t98 247.5v96l-293 -2q-128 0 -209.5 -53.5t-81.5 -154.5q0 -93 63.5 -157.5t182.5 -64.5z" />
    <glyph glyph-name="Oslashacute" unicode="&#x1fe;" horiz-adv-x="1685" 
d="M1085 1878l-237 -256h-80l231 256h86zM1370 1241q191 -204 191 -512q0 -216 -97 -385.5t-259.5 -260.5t-358.5 -91q-280 0 -479 174l-179 -193l-53 45l182 195q-192 208 -192 516q0 214 96.5 383t260.5 260.5t364 91.5q279 0 477 -176l166 176l49 -43zM201 729
q0 -275 168 -461l903 965q-177 160 -426 160q-133 0 -251.5 -48.5t-205.5 -134.5t-137.5 -211t-50.5 -270zM846 63q130 0 247 48.5t203 134.5t136.5 211.5t50.5 271.5q0 272 -164 457l-901 -967q183 -156 428 -156z" />
    <glyph glyph-name="oslashacute" unicode="&#x1ff;" horiz-adv-x="1191" 
d="M891 1427l-254 -278h-84l250 278h88zM1100 973l-127 -135q123 -139 123 -342q0 -146 -67.5 -262t-181 -179t-251.5 -63q-190 0 -322 110l-120 -127l-50 43l123 129q-131 140 -131 349q0 138 62 253t177 183.5t261 68.5q193 0 330 -118l125 131zM166 496q0 -177 108 -297
l605 635q-117 102 -283 102q-189 0 -309.5 -128t-120.5 -312zM1024 496q0 173 -100 290l-602 -632q116 -95 274 -95q183 0 305.5 122.5t122.5 314.5z" />
    <glyph glyph-name="Scommaaccent" unicode="&#x218;" horiz-adv-x="1150" 
d="M582 -8q-139 0 -269.5 55t-224.5 166l51 57q75 -101 195.5 -154t251.5 -53q164 0 273.5 78.5t109.5 218.5q0 31 -6 59t-14.5 50t-26 43t-31.5 36t-41.5 32.5t-45.5 28t-53 26t-55 23.5t-61 24t-62 25q-175 70 -247 116q-164 103 -175 264q-1 13 -1 27q0 150 118 250
t301 100q109 0 221.5 -41t202.5 -114l-47 -60q-86 69 -185 106.5t-190 37.5q-90 0 -167 -30.5t-128 -95.5t-51 -153q0 -55 22.5 -101t48.5 -75.5t85.5 -63t93 -48t111.5 -45.5q8 -3 12 -5q176 -70 212 -86q146 -70 197 -165q37 -68 37 -160q0 -165 -125.5 -269t-336.5 -104z
M442 -414l-20 49q79 7 107 44t28 98q0 48 -10 110h65q11 -60 11 -110q0 -81 -43.5 -132.5t-137.5 -58.5z" />
    <glyph glyph-name="scommaaccent" unicode="&#x219;" horiz-adv-x="858" 
d="M436 -8q-212 0 -366 139l36 53q70 -61 144.5 -94t185.5 -33q123 0 196 57.5t73 139.5q0 26 -7 48t-15 38t-29 32.5t-34 25.5t-45.5 23t-49 20t-59 20.5t-60.5 21.5q-57 20 -92.5 35t-77.5 39.5t-65.5 50.5t-39.5 64.5t-16 85.5q0 104 85 173.5t210 69.5q186 0 325 -118
l-41 -54q-120 105 -284 105q-93 0 -158.5 -50.5t-65.5 -121.5q0 -36 14 -65.5t32 -48.5t54.5 -39.5t62 -31t73.5 -28.5q163 -58 202 -76q106 -51 136 -127q17 -41 16 -94q-2 -110 -91.5 -185t-248.5 -75zM270 -414l-20 49q79 7 107 44t28 98q0 48 -10 110h65q11 -61 11 -110
q0 -81 -43.5 -132.5t-137.5 -58.5z" />
    <glyph glyph-name="uni021A" unicode="&#x21a;" horiz-adv-x="1122" 
d="M522 0v1384h-469v70h1016v-70h-475v-1384h-72zM422 -414l-21 49q79 7 107.5 44t28.5 98q0 42 -11 110h66q10 -55 10 -110q0 -177 -180 -191z" />
    <glyph glyph-name="uni021B" unicode="&#x21b;" horiz-adv-x="727" 
d="M422 -8q-130 0 -179.5 69.5t-49.5 206.5v660h-136v65h136v355l69 8v-363h385v-65h-385v-629q0 -125 31.5 -182.5t128.5 -57.5q109 0 201 64l18 -66q-101 -65 -219 -65zM256 -414l-20 49q79 7 107 44t28 98q0 42 -11 110h66q10 -55 10 -110q0 -177 -180 -191z" />
    <glyph glyph-name="uni0232" unicode="&#x232;" horiz-adv-x="1157" 
d="M303 1698v65h555v-65h-555zM541 0v659l-506 795h88l452 -717h5l454 717h86l-506 -795v-659h-73z" />
    <glyph glyph-name="uni0233" unicode="&#x233;" horiz-adv-x="1044" 
d="M250 1257v66h555v-66h-555zM324 -406l176 422l-447 977h80l402 -891h2l372 891h78l-588 -1399h-75z" />
    <glyph glyph-name="uni0237" unicode="&#x237;" horiz-adv-x="378" 
d="M18 -414q-76 0 -137 31l10 68q55 -31 125 -31q150 0 150 186v1153h70v-1153q0 -114 -51.5 -184t-166.5 -70z" />
    <glyph glyph-name="uni0251" unicode="&#x251;" horiz-adv-x="1216" 
d="M582 -8q-135 0 -246.5 61t-177.5 175t-66 259q0 142 61 259t174.5 186t256.5 69q135 0 245.5 -72t165.5 -198l2 2v260h68v-993h-68v254h-2q-56 -121 -163.5 -191.5t-249.5 -70.5zM588 59q173 0 291 119t118 309q0 123 -50 225t-144.5 163t-214.5 61q-178 0 -301 -126
t-123 -323q0 -182 118 -305t306 -123z" />
    <glyph glyph-name="uni0259" unicode="&#x259;" horiz-adv-x="1105" 
d="M524 1001q212 0 349 -141.5t137 -361.5q0 -226 -123 -366t-342 -140q-205 0 -329 133t-126 338q0 27 4 43h846q-3 191 -120 310.5t-298 119.5q-167 0 -321 -88l-31 55q165 98 354 98zM545 59q174 0 276.5 104t116.5 279h-776q6 -173 111.5 -278t271.5 -105z" />
    <glyph glyph-name="uni0261" unicode="&#x261;" horiz-adv-x="1206" 
d="M598 -414q-215 0 -405 115l18 68q183 -115 387 -115q194 0 292.5 102.5t98.5 274.5v248h-2q-54 -119 -161 -187.5t-251 -68.5q-133 0 -242 60t-174 173.5t-65 259.5q0 134 59.5 244t170.5 175.5t251 65.5q136 0 245.5 -65.5t166.5 -181.5h2v239h68v-962
q0 -204 -117 -324.5t-342 -120.5zM580 90q186 0 298.5 121t112.5 307q0 184 -117 301t-292 117q-122 0 -218 -57t-147 -152t-51 -209q0 -191 119 -309.5t295 -118.5z" />
    <glyph glyph-name="uni0272" unicode="&#x272;" horiz-adv-x="1124" 
d="M639 1001q159 0 251.5 -105.5t92.5 -299.5v-596h-68v569q0 97 -22 169.5t-62 115t-90.5 62.5t-111.5 20q-179 0 -287.5 -121.5t-108.5 -322.5v-648q0 -258 -219 -258q-71 0 -133 29l8 63q51 -26 123 -26q152 0 152 188v1153h69v-248h3q54 121 160 188.5t243 67.5z" />
    <glyph glyph-name="uni02BB" unicode="&#x2bb;" horiz-adv-x="337" 
d="M135 899l19 455h57l4 -455h-80z" />
    <glyph glyph-name="uni02BC" unicode="&#x2bc;" horiz-adv-x="249" 
d="M59 1100l54 354h73l-69 -354h-58z" />
    <glyph glyph-name="uni02BE" unicode="&#x2be;" horiz-adv-x="399" 
d="M86 975l-8 57q91 6 149 61t58 142t-58 140.5t-149 58.5l8 59q121 -7 191.5 -80t70.5 -178t-70.5 -179t-191.5 -81z" />
    <glyph glyph-name="uni02BF" unicode="&#x2bf;" horiz-adv-x="446" 
d="M360 975q-121 7 -191.5 81t-70.5 179t70.5 178t191.5 80l9 -59q-91 -5 -149 -58.5t-58 -140.5t58 -142t149 -61z" />
    <glyph glyph-name="circumflex" unicode="&#x2c6;" horiz-adv-x="1071" 
d="M250 1120l252 269h76l243 -269h-80l-198 217h-4l-209 -217h-80z" />
    <glyph glyph-name="caron" unicode="&#x2c7;" horiz-adv-x="1071" 
d="M496 1120l-246 266h80l202 -215h5l204 215h80l-252 -266h-73z" />
    <glyph glyph-name="uni02C8" unicode="&#x2c8;" horiz-adv-x="325" 
d="M131 1382h66v-555h-66v555z" />
    <glyph glyph-name="uni02C9" unicode="&#x2c9;" horiz-adv-x="821" 
d="M133 1260v65h555v-65h-555z" />
    <glyph glyph-name="uni02CA" unicode="&#x2ca;" horiz-adv-x="593" 
d="M158 1149l250 278h88l-254 -278h-84z" />
    <glyph glyph-name="uni02CB" unicode="&#x2cb;" horiz-adv-x="591" 
d="M350 1155l-235 264h86l231 -264h-82z" />
    <glyph glyph-name="uni02CC" unicode="&#x2cc;" horiz-adv-x="325" 
d="M131 264h66v-555h-66v555z" />
    <glyph glyph-name="breve" unicode="&#x2d8;" horiz-adv-x="974" 
d="M487 1118q-107 0 -179 70t-81 196h62q6 -90 58 -147t140 -57q87 0 139.5 57.5t57.5 146.5h61q-9 -126 -81 -196t-177 -70z" />
    <glyph glyph-name="dotaccent" unicode="&#x2d9;" horiz-adv-x="989" 
d="M496 1200q-29 0 -49.5 20.5t-20.5 49.5q0 30 20 48.5t50 18.5q31 0 50 -18t19 -49q0 -30 -19.5 -50t-49.5 -20z" />
    <glyph glyph-name="ring" unicode="&#x2da;" horiz-adv-x="897" 
d="M446 1102q-63 0 -110 47.5t-47 110.5q0 64 46.5 110.5t110.5 46.5q66 0 114 -45.5t48 -111.5q0 -64 -47.5 -111t-114.5 -47zM446 1161q43 0 74 29.5t31 69.5q0 41 -31 71.5t-74 30.5q-41 0 -70.5 -30.5t-29.5 -71.5q0 -40 29.5 -69.5t70.5 -29.5z" />
    <glyph glyph-name="ogonek" unicode="&#x2db;" horiz-adv-x="956" 
d="M553 -373q-83 0 -130.5 41.5t-47.5 118.5q0 62 46.5 128.5t131.5 113.5l49 -29q-73 -35 -117.5 -91.5t-44.5 -113.5q0 -49 29.5 -78.5t89.5 -29.5q66 0 117 26l8 -59q-56 -27 -131 -27z" />
    <glyph glyph-name="tilde" unicode="&#x2dc;" horiz-adv-x="1073" 
d="M696 1155q-12 0 -25 2.5t-23 5t-24 9t-22 10.5t-23 13.5t-20.5 13t-22 14.5t-20.5 14q-76 55 -127 55q-83 0 -129 -123l-55 19q55 166 180 166q73 0 158 -62q7 -5 28 -19.5t31 -21t27 -15.5t31.5 -13t29.5 -4q39 0 72 31t51 91l55 -18q-24 -83 -70.5 -125.5t-101.5 -42.5
z" />
    <glyph glyph-name="hungarumlaut" unicode="&#x2dd;" horiz-adv-x="1062" 
d="M227 1120l248 279h86l-254 -279h-80zM500 1120l248 279h86l-256 -279h-78z" />
    <glyph glyph-name="gravecomb" unicode="&#x300;" 
d="M-958 1126l-236 265h86l231 -265h-81z" />
    <glyph glyph-name="acutecomb" unicode="&#x301;" 
d="M-1174 1120l250 279h88l-254 -279h-84z" />
    <glyph glyph-name="uni0302" unicode="&#x302;" 
d="M-1311 1120l252 269h76l244 -269h-80l-199 217h-4l-209 -217h-80z" />
    <glyph glyph-name="tildecomb" unicode="&#x303;" 
d="M-864 1155q-12 0 -25 2.5t-23 5t-24 9t-22 10.5t-23 13.5t-20.5 13t-22 14.5t-20.5 14q-76 55 -127 55q-83 0 -129 -123l-56 19q55 166 180 166q73 0 158 -62q6 -4 28 -19.5t31.5 -21t27 -15.5t32 -13.5t29.5 -3.5q39 0 71.5 30.5t50.5 91.5l56 -18q-24 -83 -70.5 -125.5
t-101.5 -42.5z" />
    <glyph glyph-name="uni0304" unicode="&#x304;" 
d="M-1300 1231v65h555v-65h-555z" />
    <glyph glyph-name="uni0306" unicode="&#x306;" 
d="M-1024 1118q-107 0 -179 70t-81 196h61q6 -90 58.5 -147t140.5 -57q87 0 139.5 57.5t57.5 146.5h61q-9 -126 -81 -196t-177 -70z" />
    <glyph glyph-name="uni0307" unicode="&#x307;" 
d="M-1022 1200q-29 0 -49.5 20.5t-20.5 49.5q0 30 20 48.5t50 18.5q31 0 50.5 -18.5t19.5 -48.5t-20 -50t-50 -20z" />
    <glyph glyph-name="uni0308" unicode="&#x308;" 
d="M-1184 1202q-29 0 -49 20t-20 48q0 30 19.5 48.5t49.5 18.5q29 0 48.5 -19t19.5 -48t-19.5 -48.5t-48.5 -19.5zM-868 1202q-30 0 -50 20t-20 48q0 30 19.5 48.5t50.5 18.5q29 0 48 -19t19 -48t-19 -48.5t-48 -19.5z" />
    <glyph glyph-name="hookabovecomb" unicode="&#x309;" 
d="M-1075 1108q106 75 138 105q63 60 63 110q0 84 -115 84q-52 0 -103 -18.5t-82 -47.5l-18 60q100 65 209 65q76 0 124 -35.5t48 -107.5q0 -14 -4 -28.5t-8.5 -26.5t-15.5 -26t-17.5 -23.5t-22 -23.5t-22 -20t-25 -20t-23 -17t-23 -16.5t-19.5 -13.5h-84z" />
    <glyph glyph-name="uni030A" unicode="&#x30a;" 
d="M-1026 1104q-63 0 -110.5 47.5t-47.5 110.5q0 64 46.5 110.5t111.5 46.5q66 0 114 -45.5t48 -111.5q0 -64 -47.5 -111t-114.5 -47zM-1026 1163q43 0 73.5 29.5t30.5 69.5q0 41 -30.5 71.5t-73.5 30.5q-41 0 -70.5 -30.5t-29.5 -71.5q0 -40 29.5 -69.5t70.5 -29.5z" />
    <glyph glyph-name="uni030B" unicode="&#x30b;" 
d="M-1200 1120l248 279h86l-254 -279h-80zM-928 1120l248 279h86l-256 -279h-78z" />
    <glyph glyph-name="uni030C" unicode="&#x30c;" 
d="M-1065 1120l-246 266h80l203 -215h4l205 215h80l-252 -266h-74z" />
    <glyph glyph-name="uni0312" unicode="&#x312;" 
d="M-1032 1104q-10 58 -10 110q0 82 43 133.5t137 57.5l20 -49q-79 -7 -107 -43.5t-28 -98.5q0 -48 10 -110h-65z" />
    <glyph glyph-name="uni0313" unicode="&#x313;" 
d="M-971 1403q10 -58 10 -111q0 -81 -43 -132.5t-137 -57.5l-20 49q79 7 107 43t28 98q0 49 -10 111h65z" />
    <glyph glyph-name="uni031B" unicode="&#x31b;" 
d="M-1026 979v59q68 1 109 23t63.5 79.5t22.5 157.5v156h67v-156q0 -175 -65 -247t-197 -72z" />
    <glyph glyph-name="dotbelowcomb" unicode="&#x323;" 
d="M-1024 -242q29 0 49.5 -20t20.5 -49q0 -30 -20 -49t-50 -19q-31 0 -50.5 18.5t-19.5 49.5q0 29 20 49t50 20z" />
    <glyph glyph-name="uni0324" unicode="&#x324;" 
d="M-1184 -244q30 0 50 -19.5t20 -47.5q0 -31 -19.5 -49.5t-50.5 -18.5q-29 0 -48 19.5t-19 48.5t19 48t48 19zM-868 -244q29 0 49 -19.5t20 -47.5q0 -30 -19.5 -49t-49.5 -19q-29 0 -48.5 19.5t-19.5 48.5t19.5 48t48.5 19z" />
    <glyph glyph-name="uni0326" unicode="&#x326;" 
d="M-1186 -414l-20 49q79 7 107 44t28 98q0 48 -10 110h65q10 -55 10 -110q0 -177 -180 -191z" />
    <glyph glyph-name="uni0327" unicode="&#x327;" 
d="M-1077 -379q-57 0 -103 12v56q51 -15 95 -15q55 0 93 25.5t38 75.5q0 44 -44.5 77t-125.5 33l2 43l39 84h57l-35 -80v-4q68 -3 118 -45t50 -112q0 -63 -48.5 -106.5t-135.5 -43.5z" />
    <glyph glyph-name="uni0328" unicode="&#x328;" 
d="M-1075 -373q-83 0 -130.5 41.5t-47.5 118.5q0 62 46.5 128.5t131.5 113.5l49 -29q-73 -35 -117.5 -91.5t-44.5 -113.5q0 -49 29.5 -78.5t89.5 -29.5q66 0 117 26l8 -59q-56 -27 -131 -27z" />
    <glyph glyph-name="uni032E" unicode="&#x32e;" 
d="M-1024 -428q-105 0 -177 70t-81 196h61q5 -89 57.5 -147t139.5 -58q88 0 140.5 57.5t58.5 147.5h61q-9 -126 -81 -196t-179 -70z" />
    <glyph glyph-name="uni0331" unicode="&#x331;" 
d="M-745 -358h-555v65h555v-65z" />
    <glyph glyph-name="uni0335" unicode="&#x335;" 
d="M-1276 553v59h516v-59h-516z" />
    <glyph glyph-name="uni0400" unicode="&#x400;" horiz-adv-x="1167" 
d="M659 1622l-235 256h86l231 -256h-82zM182 0v1454h852v-70h-780v-622h653v-70h-653v-622h823v-70h-895z" />
    <glyph glyph-name="uni0401" unicode="&#x401;" horiz-adv-x="1167" 
d="M434 1718q-29 0 -49 20t-20 48q0 30 19.5 48.5t49.5 18.5q29 0 48.5 -19t19.5 -48t-19.5 -48.5t-48.5 -19.5zM750 1718q-30 0 -50 20t-20 48q0 30 19.5 48.5t50.5 18.5q29 0 48 -19t19 -48t-19 -48.5t-48 -19.5zM182 0v1454h852v-70h-780v-622h653v-70h-653v-622h823v-70
h-895z" />
    <glyph glyph-name="uni0402" unicode="&#x402;" horiz-adv-x="1622" 
d="M1012 877q245 0 377.5 -117t132.5 -330q0 -209 -127.5 -324.5t-345.5 -115.5q-93 0 -205 16l4 68q102 -15 199 -15q187 0 293 96.5t106 272.5q0 182 -114 280.5t-328 98.5q-112 0 -227.5 -25.5t-203.5 -70.5v-711h-73v1384h-469v70h1018v-70h-476v-602q94 43 211 69
t228 26z" />
    <glyph glyph-name="uni0403" unicode="&#x403;" horiz-adv-x="1079" 
d="M442 1622l232 256h86l-238 -256h-80zM182 0v1454h854v-70h-782v-1384h-72z" />
    <glyph glyph-name="uni0404" unicode="&#x404;" horiz-adv-x="1466" 
d="M1337 295l58 -47q-105 -123 -239.5 -188.5t-319.5 -65.5q-117 0 -223 29.5t-195.5 90t-154.5 146t-101.5 204t-36.5 257.5q0 157 47 292t135 235.5t225 158t306 57.5q156 0 287 -54.5t247 -178.5l-55 -51q-103 114 -220.5 163.5t-260.5 49.5q-193 0 -336 -83t-217 -223.5
t-82 -322.5h880l2 -70h-882q5 -199 91 -343.5t226.5 -216t317.5 -71.5q305 0 501 232z" />
    <glyph glyph-name="uni0405" unicode="&#x405;" horiz-adv-x="1150" 
d="M582 -8q-139 0 -269.5 55t-224.5 166l51 57q75 -101 195.5 -154t251.5 -53q164 0 273.5 78.5t109.5 218.5q0 31 -6 59t-14.5 50t-26 43t-31.5 36t-41.5 32.5t-45.5 28t-53 26t-55 23.5t-61 24t-62 25q-175 70 -247 116q-164 103 -175 264q-1 13 -1 27q0 150 118 250
t301 100q109 0 221.5 -41t202.5 -114l-47 -60q-86 69 -185 106.5t-190 37.5q-90 0 -167 -30.5t-128 -95.5t-51 -153q0 -55 22.5 -101t48.5 -75.5t85.5 -63t93 -48t111.5 -45.5q8 -3 12 -5q176 -70 212 -86q146 -70 197 -165q37 -68 37 -160q0 -165 -125.5 -269t-336.5 -104z
" />
    <glyph glyph-name="uni0406" unicode="&#x406;" horiz-adv-x="464" 
d="M195 0v1454h73v-1454h-73z" />
    <glyph glyph-name="uni0407" unicode="&#x407;" horiz-adv-x="464" 
d="M72 1718q-29 0 -49.5 20t-20.5 48q0 30 20 48.5t50 18.5q29 0 48 -19t19 -48t-19 -48.5t-48 -19.5zM387 1718q-30 0 -50 20t-20 48q0 30 19.5 48.5t50.5 18.5q29 0 48.5 -19t19.5 -48t-19.5 -48.5t-48.5 -19.5zM195 0v1454h73v-1454h-73z" />
    <glyph glyph-name="uni0408" unicode="&#x408;" horiz-adv-x="966" 
d="M436 -6q-94 0 -198.5 49.5t-182.5 140.5l43 56q159 -177 336 -177q144 0 222.5 89.5t78.5 291.5v1010h72v-1018q0 -442 -371 -442z" />
    <glyph glyph-name="uni0409" unicode="&#x409;" horiz-adv-x="2244" 
d="M1659 838q229 0 357 -103t128 -315q0 -215 -128.5 -317.5t-356.5 -102.5h-475v1384h-664q-36 -578 -61 -782q-40 -325 -126 -465.5t-227 -140.5q-50 0 -73 10l6 66q21 -6 59 -6q73 0 126 49t94 169.5t67 319.5q37 277 66 850h804v-616h404zM1659 70q211 0 310 93t99 255
q0 164 -99 257t-310 93h-404v-698h404z" />
    <glyph glyph-name="uni040A" unicode="&#x40a;" horiz-adv-x="2217" 
d="M1645 793q226 0 349.5 -97.5t123.5 -289.5q0 -206 -126 -306t-352 -100h-497v717h-889v-717h-72v1454h72v-668h889v668h74v-661h428zM1640 70q208 0 305 90.5t97 242.5q0 69 -21.5 125t-66.5 100.5t-124 69.5t-185 25h-428v-653h423z" />
    <glyph glyph-name="uni040B" unicode="&#x40b;" horiz-adv-x="1576" 
d="M1024 879q221 0 317.5 -113.5t96.5 -353.5v-412h-74v406q0 219 -81 310t-269 91q-232 0 -441 -117v-690h-73v1384h-469v70h1018v-70h-476v-622q116 59 235.5 88t215.5 29z" />
    <glyph glyph-name="uni040C" unicode="&#x40c;" horiz-adv-x="1267" 
d="M512 1622l231 256h86l-237 -256h-80zM182 0v1454h72v-952h4l819 952h94l-587 -684l600 -770h-94l-555 715l-281 -324v-391h-72z" />
    <glyph glyph-name="uni040D" unicode="&#x40d;" horiz-adv-x="1462" 
d="M799 1622l-236 256h86l232 -256h-82zM182 0v1454h72v-1329h4l954 1329h68v-1454h-72v1325h-4l-952 -1325h-70z" />
    <glyph glyph-name="uni040E" unicode="&#x40e;" horiz-adv-x="1308" 
d="M657 1612q-118 0 -197.5 63.5t-92.5 177.5l65 9q10 -80 67.5 -137.5t157.5 -57.5t158 57.5t66 137.5l65 -9q-13 -114 -92.5 -177.5t-196.5 -63.5zM1174 1454h77l-495 -1104q-69 -154 -95 -197q-70 -119 -168 -150q-43 -13 -94 -13q-60 0 -123 22t-102 64l27 67
q40 -41 93.5 -60.5t104.5 -19.5q49 0 87 16.5t70.5 54.5t59 86t58.5 124l-617 1110h80l572 -1024h4v2z" />
    <glyph glyph-name="uni040F" unicode="&#x40f;" horiz-adv-x="1386" 
d="M1204 1454v-1454h-477l-2 -299h-63l-3 299h-477v1454h72v-1384h876v1384h74z" />
    <glyph glyph-name="uni0410" unicode="&#x410;" horiz-adv-x="1325" 
d="M57 0l561 1454h82l568 -1454h-78l-162 418h-731l-162 -418h-78zM322 485h679l-337 881h-5z" />
    <glyph glyph-name="uni0411" unicode="&#x411;" horiz-adv-x="1232" 
d="M182 0v1454h822v-70h-750v-550h385q228 0 355.5 -102.5t127.5 -311.5q0 -215 -127.5 -317.5t-355.5 -102.5h-457zM254 70h385q210 0 309 93.5t99 254.5t-99.5 253.5t-308.5 92.5h-385v-694z" />
    <glyph glyph-name="uni0412" unicode="&#x412;" horiz-adv-x="1259" 
d="M182 0v1454h428q80 0 148 -11.5t127 -38t100 -66.5t64.5 -100t23.5 -136q0 -121 -66 -212.5t-192 -125.5v-4q66 -10 123.5 -38t104 -72.5t73.5 -112t27 -150.5q0 -178 -125.5 -282.5t-372.5 -104.5h-463zM254 791h389q52 0 100.5 9t95.5 31.5t81.5 56t55.5 86.5t21 120
q0 290 -391 290h-352v-593zM254 70h393q194 0 307 80t113 235q0 162 -110 250t-314 88h-389v-653z" />
    <glyph glyph-name="uni0413" unicode="&#x413;" horiz-adv-x="1079" 
d="M182 0v1454h854v-70h-782v-1384h-72z" />
    <glyph glyph-name="uni0414" unicode="&#x414;" horiz-adv-x="1607" 
d="M1522 70v-369h-64l-4 299h-1343l-5 -299h-61v369h178q162 228 230 626q51 283 57 758h811v-1384h201zM522 678q-70 -402 -219 -608h944v1314h-667q-6 -414 -58 -706z" />
    <glyph glyph-name="uni0415" unicode="&#x415;" horiz-adv-x="1167" 
d="M182 0v1454h852v-70h-780v-622h653v-70h-653v-622h823v-70h-895z" />
    <glyph glyph-name="uni0416" unicode="&#x416;" horiz-adv-x="1890" 
d="M70 0l536 770l-538 684h92l743 -950h2v950h72v-954l2 -2l733 956h90l-524 -684l545 -770h-88l-508 717l-250 -322v-395h-72v399l-250 318l-497 -717h-88z" />
    <glyph glyph-name="uni0417" unicode="&#x417;" horiz-adv-x="1220" 
d="M614 -8q-163 0 -296 56.5t-222 160.5l49 57q73 -95 197.5 -149t273.5 -54q185 0 300.5 89.5t115.5 244.5q0 152 -111.5 239t-316.5 87h-264v70h262q67 0 129.5 18t115 53.5t84.5 96.5t32 139q0 137 -97.5 215t-267.5 78q-232 0 -397 -131l-45 55q74 65 197 106t251 41
q196 0 315 -99t119 -259q0 -119 -67.5 -212t-196.5 -130v-2q68 -11 126 -37t105.5 -68.5t75 -108.5t27.5 -147q0 -85 -32 -158.5t-92.5 -129.5t-155.5 -88.5t-214 -32.5z" />
    <glyph glyph-name="uni0418" unicode="&#x418;" horiz-adv-x="1462" 
d="M182 0v1454h72v-1329h4l954 1329h68v-1454h-72v1325h-4l-952 -1325h-70z" />
    <glyph glyph-name="uni0419" unicode="&#x419;" horiz-adv-x="1462" 
d="M733 1612q-119 0 -198.5 63.5t-92.5 177.5l66 9q10 -80 67.5 -137.5t157.5 -57.5t157.5 57.5t65.5 137.5l66 -9q-13 -114 -92.5 -177.5t-196.5 -63.5zM182 0v1454h72v-1329h4l954 1329h68v-1454h-72v1325h-4l-952 -1325h-70z" />
    <glyph glyph-name="uni041A" unicode="&#x41a;" horiz-adv-x="1267" 
d="M182 0v1454h72v-952h4l819 952h94l-587 -684l600 -770h-94l-555 715l-281 -324v-391h-72z" />
    <glyph glyph-name="uni041B" unicode="&#x41b;" horiz-adv-x="1437" 
d="M451 1454h804v-1454h-71v1384h-664q-36 -578 -61 -782q-40 -325 -126 -465.5t-227 -140.5q-50 0 -73 10l6 66q21 -6 59 -6q73 0 126 49t94 169.5t67 319.5q37 277 66 850z" />
    <glyph glyph-name="uni041C" unicode="&#x41c;" horiz-adv-x="1755" 
d="M182 0v1454h74l621 -1048h4l618 1048h74v-1454h-74v1311h-2l-590 -998h-59l-590 998h-2v-1311h-74z" />
    <glyph glyph-name="uni041D" unicode="&#x41d;" horiz-adv-x="1429" 
d="M182 0v1454h72v-733h920v733h73v-1454h-73v651h-920v-651h-72z" />
    <glyph glyph-name="uni041E" unicode="&#x41e;" horiz-adv-x="1685" 
d="M846 -8q-200 0 -364 91.5t-260.5 261t-96.5 384.5q0 214 96.5 383t260.5 260.5t364 91.5q146 0 277 -53.5t228 -148.5t153.5 -233.5t56.5 -299.5q0 -216 -97 -385.5t-259.5 -260.5t-358.5 -91zM846 63q130 0 247 48.5t203 134.5t136.5 211.5t50.5 271.5t-50.5 271
t-136.5 210.5t-203 134t-247 48.5q-133 0 -251.5 -48.5t-205.5 -134.5t-137.5 -211t-50.5 -270q0 -146 50.5 -271t137.5 -211t205.5 -135t251.5 -49z" />
    <glyph glyph-name="uni041F" unicode="&#x41f;" horiz-adv-x="1386" 
d="M182 0v1454h1022v-1454h-74v1384h-876v-1384h-72z" />
    <glyph glyph-name="uni0420" unicode="&#x420;" horiz-adv-x="1204" 
d="M182 0v1454h484q119 0 208 -31.5t142 -89t78.5 -131.5t25.5 -166q0 -109 -35.5 -191.5t-101.5 -133.5t-155 -76t-199 -25h-375v-610h-72zM254 680h371q217 0 318 97t101 259q0 171 -100.5 259.5t-271.5 88.5h-418v-704z" />
    <glyph glyph-name="uni0421" unicode="&#x421;" horiz-adv-x="1466" 
d="M838 -6q-148 0 -276.5 48t-226.5 138t-154 229.5t-56 311.5q0 156 47 290.5t135 235.5t224 159t305 58q158 0 302 -68t257 -208l-58 -47q-202 252 -501 252q-150 0 -271.5 -51.5t-200.5 -142.5t-121 -213t-42 -265q0 -155 49.5 -281t136 -207.5t202 -125.5t249.5 -44
q300 0 499 250l58 -47q-219 -272 -557 -272z" />
    <glyph glyph-name="uni0422" unicode="&#x422;" horiz-adv-x="1122" 
d="M522 0v1384h-469v70h1016v-70h-475v-1384h-72z" />
    <glyph glyph-name="uni0423" unicode="&#x423;" horiz-adv-x="1308" 
d="M1174 1454h77l-495 -1104q-69 -154 -95 -197q-70 -119 -168 -150q-43 -13 -94 -13q-60 0 -123 22t-102 64l27 67q40 -41 93.5 -60.5t104.5 -19.5q49 0 87 16.5t70.5 54.5t59 86t58.5 124l-617 1110h80l572 -1024h4v2z" />
    <glyph glyph-name="uni0424" unicode="&#x424;" horiz-adv-x="1720" 
d="M899 1360q212 0 372.5 -76t248.5 -217.5t88 -329.5q0 -264 -194.5 -427t-512.5 -163h-4v-147h-74v147h-4q-320 1 -513 163t-193 427q0 285 192 454t514 169h4v131h74v-131h2zM188 737q0 -232 171 -375.5t462 -144.5h2v1073h-4q-295 0 -463 -151t-168 -402zM899 217
q290 0 461.5 144t171.5 376q0 165 -74.5 289t-218 193.5t-340.5 70.5h-4v-1073h4z" />
    <glyph glyph-name="uni0425" unicode="&#x425;" horiz-adv-x="1261" 
d="M70 0l514 725l-514 729h84l477 -668h2l473 668h88l-516 -729l516 -725h-90l-469 659h-4l-475 -659h-86z" />
    <glyph glyph-name="uni0426" unicode="&#x426;" horiz-adv-x="1466" 
d="M1378 70v-369h-63l-4 299h-1129v1454h72v-1384h850v1384h74v-1384h200z" />
    <glyph glyph-name="uni0427" unicode="&#x427;" horiz-adv-x="1275" 
d="M1022 1454h72v-1454h-72v637q-103 -58 -234.5 -86.5t-228.5 -28.5q-224 0 -322 113.5t-98 353.5v465h72v-457q0 -220 82.5 -311.5t275.5 -91.5q99 0 226.5 27.5t226.5 89.5v743z" />
    <glyph glyph-name="uni0428" unicode="&#x428;" horiz-adv-x="1955" 
d="M1702 1454h72v-1454h-1592v1454h72v-1384h688v1384h74v-1384h686v1384z" />
    <glyph glyph-name="uni0429" unicode="&#x429;" horiz-adv-x="2062" 
d="M1974 70v-369h-61l-6 299h-1725v1454h72v-1384h688v1384h74v-1384h686v1384h72v-1384h200z" />
    <glyph glyph-name="uni042A" unicode="&#x42a;" horiz-adv-x="1486" 
d="M901 838q228 0 355.5 -103t127.5 -315q0 -215 -127.5 -317.5t-355.5 -102.5h-477v1384h-414v70h488v-616h403zM901 70q210 0 309 93.5t99 254.5q0 164 -99.5 257t-308.5 93h-403v-698h403z" />
    <glyph glyph-name="uni042B" unicode="&#x42b;" horiz-adv-x="1626" 
d="M182 0v1454h72v-616h362q230 0 358 -103t128 -315q0 -215 -129 -317.5t-357 -102.5h-434zM1372 0v1454h72v-1454h-72zM254 70h362q211 0 310.5 93t99.5 255q0 164 -99.5 257t-310.5 93h-362v-698z" />
    <glyph glyph-name="uni042C" unicode="&#x42c;" horiz-adv-x="1243" 
d="M182 0v1454h72v-616h403q230 0 358 -103t128 -315q0 -215 -129 -317.5t-357 -102.5h-475zM254 70h403q211 0 310.5 93t99.5 255q0 164 -99.5 257t-310.5 93h-403v-698z" />
    <glyph glyph-name="uni042D" unicode="&#x42d;" horiz-adv-x="1484" 
d="M651 1464q217 0 380 -99t247 -266.5t84 -377.5q0 -218 -91.5 -384t-252.5 -254.5t-367 -88.5q-180 0 -319.5 66.5t-235.5 175.5l49 53q80 -99 211 -162.5t297 -63.5q182 0 324 78t223 222t86 331h-903v70h903q-8 181 -86 323t-220.5 224t-328.5 82q-264 0 -479 -189
l-49 56q236 204 528 204z" />
    <glyph glyph-name="uni042E" unicode="&#x42e;" horiz-adv-x="2088" 
d="M1278 1464q204 0 363 -94t246 -261.5t87 -379.5t-87 -380t-246 -262.5t-363 -94.5q-188 0 -339 84t-241.5 234t-105.5 341h-338v-651h-74v1454h74v-733h334v6q0 159 51 295.5t141.5 233.5t219 152.5t278.5 55.5zM1278 63q182 0 323.5 85.5t219 237t77.5 343.5
q0 191 -77.5 342t-219 236.5t-323.5 85.5q-178 0 -318.5 -85.5t-218 -237t-77.5 -343.5q0 -189 77.5 -340.5t218 -237.5t318.5 -86z" />
    <glyph glyph-name="uni042F" unicode="&#x42f;" horiz-adv-x="1288" 
d="M113 0l401 610q-175 28 -275 133t-100 291q0 191 118 305.5t347 114.5h502v-1454h-74v600h-438l-393 -600h-88zM643 670h389v714h-426q-183 0 -287 -87.5t-104 -262.5q0 -167 103.5 -265.5t324.5 -98.5z" />
    <glyph glyph-name="uni0430" unicode="&#x430;" horiz-adv-x="1216" 
d="M582 -8q-135 0 -246.5 61t-177.5 175t-66 259q0 142 61 259t174.5 186t256.5 69q135 0 245.5 -72t165.5 -198l2 2v260h68v-993h-68v254h-2q-56 -121 -163.5 -191.5t-249.5 -70.5zM588 59q173 0 291 119t118 309q0 123 -50 225t-144.5 163t-214.5 61q-178 0 -301 -126
t-123 -323q0 -182 118 -305t306 -123z" />
    <glyph glyph-name="uni0431" unicode="&#x431;" horiz-adv-x="1216" 
d="M639 -8q-246 0 -380 167t-132 464q0 77 2 134.5t8 126t16.5 119.5t29.5 107t45 97t64 82.5t86 70.5t112 52t141 36l383 68l18 -66l-387 -68q-72 -13 -130.5 -33.5t-102.5 -50.5t-77.5 -64.5t-57 -81t-39 -92.5t-24.5 -107.5t-14 -118.5t-7 -132h2q48 131 163.5 214
t276.5 83q134 0 245 -62.5t177.5 -178t66.5 -260.5q0 -146 -69.5 -263.5t-179.5 -180t-236 -62.5zM641 59q168 0 290 127.5t122 311.5q0 189 -121.5 312.5t-304.5 123.5q-178 0 -300 -120.5t-122 -299.5q0 -52 12 -109t44 -120t79 -112t125.5 -81.5t175.5 -32.5z" />
    <glyph glyph-name="uni0432" unicode="&#x432;" horiz-adv-x="1079" 
d="M164 0v993h444q155 0 238.5 -61t83.5 -180q0 -88 -44.5 -149t-121.5 -83v-2q92 -15 153.5 -79t61.5 -173q0 -128 -90 -197t-273 -69h-452zM231 545h390q112 0 175.5 51.5t63.5 146.5q0 185 -258 185h-371v-383zM231 63h379q299 0 299 205q0 104 -73 158.5t-211 54.5h-394
v-418z" />
    <glyph glyph-name="uni0433" unicode="&#x433;" horiz-adv-x="903" 
d="M164 0v993h682v-65h-613v-928h-69z" />
    <glyph glyph-name="uni0434" unicode="&#x434;" horiz-adv-x="1210" 
d="M1149 66v-355h-57l-5 289h-983l-4 -289h-59v355h143q122 169 170 436q35 193 39 491h596v-927h160zM260 66h660v862h-461q-4 -280 -35 -443q-46 -246 -164 -419z" />
    <glyph glyph-name="uni0435" unicode="&#x435;" horiz-adv-x="1097" 
d="M1010 524q0 -33 -2 -37h-842q3 -187 117.5 -307.5t289.5 -120.5q221 0 345 160l51 -41q-139 -186 -394 -186q-210 0 -344.5 142.5t-134.5 361.5q0 218 136 361.5t339 143.5q193 0 316 -135.5t123 -341.5zM569 936q-158 0 -271 -108t-130 -277h772q-14 174 -113.5 279.5
t-257.5 105.5z" />
    <glyph glyph-name="uni0436" unicode="&#x436;" horiz-adv-x="1562" 
d="M59 0l402 565l-398 428h91l585 -626h2v626h70v-628h2l571 628h89l-388 -426l418 -567h-86l-381 522l-225 -246v-276h-70v279l-231 241l-371 -520h-80z" />
    <glyph glyph-name="uni0437" unicode="&#x437;" horiz-adv-x="999" 
d="M492 -8q-230 0 -406 112l20 66q171 -113 386 -113q160 0 248.5 61t88.5 161q0 96 -74.5 149t-211.5 53h-238v64h232q114 0 178.5 50.5t64.5 141.5q0 94 -77 146.5t-209 52.5q-192 0 -338 -88l-29 59q153 94 369 94q162 0 259 -68.5t97 -184.5q0 -84 -45.5 -144
t-122.5 -84v-2q91 -17 154 -79t63 -163q0 -128 -104.5 -206t-304.5 -78z" />
    <glyph glyph-name="uni0438" unicode="&#x438;" horiz-adv-x="1181" 
d="M164 0v993h69v-887h5l714 887h66v-993h-68v881h-4l-715 -881h-67z" />
    <glyph glyph-name="uni0439" unicode="&#x439;" horiz-adv-x="1181" 
d="M596 1145q-119 0 -198.5 67.5t-92.5 192.5l66 10q10 -94 66.5 -154.5t158.5 -60.5t158.5 60.5t64.5 154.5l66 -10q-13 -125 -92 -192.5t-197 -67.5zM164 0v993h69v-887h5l714 887h66v-993h-68v881h-4l-715 -881h-67z" />
    <glyph glyph-name="uni043A" unicode="&#x43a;" horiz-adv-x="1056" 
d="M164 0v993h69v-653l5 -2l643 655h94l-420 -430l440 -563h-88l-405 516l-269 -272v-244h-69z" />
    <glyph glyph-name="uni043B" unicode="&#x43b;" horiz-adv-x="1116" 
d="M338 993h614v-993h-67v928h-479q-15 -349 -37 -535q-13 -117 -40 -197.5t-65.5 -122.5t-79.5 -59.5t-92 -17.5q-33 0 -53 8l6 66q21 -7 43 -7q81 0 137.5 82.5t77.5 262.5q20 204 35 585z" />
    <glyph glyph-name="uni043C" unicode="&#x43c;" horiz-adv-x="1349" 
d="M164 0v993h67l441 -729h4l442 729h68v-993h-68v862h-2l-414 -676h-57l-412 676h-2v-862h-67z" />
    <glyph glyph-name="uni043D" unicode="&#x43d;" horiz-adv-x="1161" 
d="M164 0v993h69v-479h695v479h69v-993h-69v451h-695v-451h-69z" />
    <glyph glyph-name="uni043E" unicode="&#x43e;" horiz-adv-x="1191" 
d="M596 -8q-146 0 -261 68.5t-177 183t-62 252.5t62 253t177 183.5t261 68.5q138 0 251.5 -62.5t181 -179t67.5 -263.5q0 -146 -67.5 -262t-181 -179t-251.5 -63zM596 59q183 0 305.5 122.5t122.5 314.5q0 96 -33.5 179t-91 140t-136 89t-167.5 32q-189 0 -309.5 -128
t-120.5 -312t120 -310.5t310 -126.5z" />
    <glyph glyph-name="uni043F" unicode="&#x43f;" horiz-adv-x="1144" 
d="M164 0v993h817v-993h-70v928h-678v-928h-69z" />
    <glyph glyph-name="uni0440" unicode="&#x440;" horiz-adv-x="1234" 
d="M164 -406v1399h69v-260h3q57 125 166.5 196.5t246.5 71.5q142 0 254.5 -69t173 -186t60.5 -259q0 -145 -65.5 -259t-176.5 -175t-246 -61q-141 0 -249.5 69.5t-163.5 188.5h-3v-656h-69zM645 59q186 0 303 123t117 305q0 198 -122 323.5t-300 125.5q-182 0 -297 -130
t-115 -319q0 -190 119.5 -309t294.5 -119z" />
    <glyph glyph-name="uni0441" unicode="&#x441;" horiz-adv-x="1030" 
d="M573 -8q-213 0 -345 140.5t-132 363.5q0 222 133 363.5t346 141.5q107 0 206.5 -41.5t170.5 -119.5l-51 -47q-54 65 -138.5 104t-184.5 39q-183 0 -297.5 -123.5t-114.5 -316.5q0 -194 113 -315.5t296 -121.5q97 0 186 37t146 103l47 -49q-66 -71 -166 -114.5t-215 -43.5
z" />
    <glyph glyph-name="uni0442" unicode="&#x442;" horiz-adv-x="888" 
d="M410 0v928h-369v65h807v-65h-369v-928h-69z" />
    <glyph glyph-name="uni0443" unicode="&#x443;" horiz-adv-x="1044" 
d="M324 -406l176 422l-447 977h80l402 -891h2l372 891h78l-588 -1399h-75z" />
    <glyph glyph-name="uni0444" unicode="&#x444;" horiz-adv-x="1374" 
d="M1294 496q0 -224 -156.5 -364t-416.5 -140v-398h-68v398q-261 0 -417 139.5t-156 364.5q0 224 154 364.5t419 140.5v506h68v-506q266 0 419.5 -140t153.5 -365zM152 496q0 -197 135 -317.5t366 -121.5v881q-236 -3 -368.5 -125t-132.5 -317zM721 57q231 1 366.5 122
t135.5 317t-133.5 318.5t-368.5 123.5v-881z" />
    <glyph glyph-name="uni0445" unicode="&#x445;" horiz-adv-x="970" 
d="M66 0l376 498l-379 495h89l331 -440h4l334 440h88l-379 -493l379 -500h-86l-336 436h-2l-333 -436h-86z" />
    <glyph glyph-name="uni0446" unicode="&#x446;" horiz-adv-x="1177" 
d="M1116 66v-355h-59l-4 289h-889v993h69v-927h652v927h69v-927h162z" />
    <glyph glyph-name="uni0447" unicode="&#x447;" horiz-adv-x="1060" 
d="M829 993h68v-993h-68v414q-182 -76 -358 -76q-197 0 -283 91t-86 304v260h70v-248q0 -134 33 -209t97.5 -104t176.5 -29q182 0 350 74v516z" />
    <glyph glyph-name="uni0448" unicode="&#x448;" horiz-adv-x="1656" 
d="M164 0v993h67v-927h564v927h67v-927h563v927h70v-993h-1331z" />
    <glyph glyph-name="uni0449" unicode="&#x449;" horiz-adv-x="1716" 
d="M1657 66v-355h-58l-4 289h-1431v993h67v-927h564v927h67v-927h563v927h70v-927h162z" />
    <glyph glyph-name="uni044A" unicode="&#x44a;" horiz-adv-x="1169" 
d="M762 621q340 0 340 -310q0 -150 -89.5 -230.5t-271.5 -80.5h-385v928h-325v65h395v-372h336zM741 63q291 0 291 246q0 248 -272 248h-334v-494h315z" />
    <glyph glyph-name="uni044B" unicode="&#x44b;" horiz-adv-x="1345" 
d="M164 0v993h69v-370h320q171 0 255.5 -80.5t84.5 -231.5q0 -149 -90 -230t-271 -81h-368zM1112 0v993h70v-993h-70zM233 63h299q289 0 289 246q0 250 -270 250h-318v-496z" />
    <glyph glyph-name="uni044C" unicode="&#x44c;" horiz-adv-x="976" 
d="M164 0v993h69v-372h336q340 0 340 -310q0 -150 -89 -230.5t-271 -80.5h-385zM233 63h316q291 0 291 246q0 248 -273 248h-334v-494z" />
    <glyph glyph-name="uni044D" unicode="&#x44d;" horiz-adv-x="1060" 
d="M471 1001q217 0 356.5 -140.5t139.5 -364.5q0 -143 -57.5 -256t-171.5 -180.5t-267 -67.5q-244 0 -387 125l37 53q140 -113 354 -113q125 1 219.5 55t145.5 146t57 211h-631v63h629q-10 182 -128.5 293t-297.5 111q-172 0 -322 -88l-28 59q66 40 159.5 67t192.5 27z" />
    <glyph glyph-name="uni044E" unicode="&#x44e;" horiz-adv-x="1576" 
d="M995 1001q131 0 242 -62.5t178.5 -179.5t67.5 -263q0 -145 -67.5 -262t-178.5 -179.5t-242 -62.5q-209 0 -341 130.5t-146 328.5h-277v-451h-67v993h67v-479h275q4 135 63 245t170.5 176t255.5 66zM995 59q173 0 294.5 123t121.5 314q0 96 -33.5 179t-90.5 139.5t-133 89
t-159 32.5q-192 0 -306 -126t-114 -314q0 -186 114 -311.5t306 -125.5z" />
    <glyph glyph-name="uni044F" unicode="&#x44f;" horiz-adv-x="1073" 
d="M475 993h434v-993h-67v387h-387h-4l-281 -387h-80l287 391q-128 18 -194 94t-66 197q0 149 90 230t268 81zM842 453v475h-367q-289 0 -289 -246q0 -108 68 -168.5t203 -60.5h385z" />
    <glyph glyph-name="uni0450" unicode="&#x450;" horiz-adv-x="1097" 
d="M666 1155h-82l-236 264h86zM1010 524q0 -33 -2 -37h-842q3 -187 117.5 -307.5t289.5 -120.5q221 0 345 160l51 -41q-139 -186 -394 -186q-210 0 -344.5 142.5t-134.5 361.5q0 218 136 361.5t339 143.5q193 0 316 -135.5t123 -341.5zM569 936q-158 0 -271 -108t-130 -277
h772q-14 174 -113.5 279.5t-257.5 105.5z" />
    <glyph glyph-name="uni0451" unicode="&#x451;" horiz-adv-x="1097" 
d="M414 1229q-29 0 -49.5 19.5t-20.5 47.5q0 30 20 49t50 19q29 0 48 -19.5t19 -48.5t-19 -48t-48 -19zM729 1229q-30 0 -50 19.5t-20 47.5q0 31 19.5 49.5t50.5 18.5q29 0 48.5 -19.5t19.5 -48.5t-19.5 -48t-48.5 -19zM1010 524q0 -33 -2 -37h-842q3 -187 117.5 -307.5
t289.5 -120.5q221 0 345 160l51 -41q-139 -186 -394 -186q-210 0 -344.5 142.5t-134.5 361.5q0 218 136 361.5t339 143.5q193 0 316 -135.5t123 -341.5zM569 936q-158 0 -271 -108t-130 -277h772q-14 174 -113.5 279.5t-257.5 105.5z" />
    <glyph glyph-name="uni0452" unicode="&#x452;" horiz-adv-x="1118" 
d="M649 934q157 0 248.5 -105.5t91.5 -298.5v-610q0 -172 -65 -253t-224 -81q-68 0 -137 29l8 63q53 -26 125 -26q59 0 98.5 11t69 40.5t43 81.5t13.5 133v586q0 188 -77.5 276t-203.5 88q-187 0 -297.5 -121t-110.5 -323v-424h-69v1167h-156v64h156v276h69v-276h451v-64
h-451v-489h2q53 121 161.5 188.5t254.5 67.5z" />
    <glyph glyph-name="uni0453" unicode="&#x453;" horiz-adv-x="903" 
d="M354 1147l250 278h88l-254 -278h-84zM164 0v993h682v-65h-613v-928h-69z" />
    <glyph glyph-name="uni0454" unicode="&#x454;" horiz-adv-x="1054" 
d="M936 184l43 -47q-132 -145 -389 -145q-229 0 -361.5 143t-132.5 361q0 223 139 364t355 141q103 0 196.5 -30.5t159.5 -85.5l-45 -49q-124 100 -307 100q-179 0 -297.5 -111t-128.5 -293h629v-63h-631q9 -180 122.5 -295t303.5 -115q225 0 344 125z" />
    <glyph glyph-name="uni0455" unicode="&#x455;" horiz-adv-x="858" 
d="M436 -8q-212 0 -366 139l36 53q70 -61 144.5 -94t185.5 -33q123 0 196 57.5t73 139.5q0 26 -7 48t-15 38t-29 32.5t-34 25.5t-45.5 23t-49 20t-59 20.5t-60.5 21.5q-57 20 -92.5 35t-77.5 39.5t-65.5 50.5t-39.5 64.5t-16 85.5q0 104 85 173.5t210 69.5q186 0 325 -118
l-41 -54q-120 105 -284 105q-93 0 -158.5 -50.5t-65.5 -121.5q0 -36 14 -65.5t32 -48.5t54.5 -39.5t62 -31t73.5 -28.5q163 -58 202 -76q106 -51 136 -127q17 -41 16 -94q-2 -110 -91.5 -185t-248.5 -75z" />
    <glyph glyph-name="uni0456" unicode="&#x456;" horiz-adv-x="419" 
d="M213 1227q-29 0 -49.5 20t-20.5 49q0 30 20 49t50 19q31 0 50.5 -18.5t19.5 -49.5q0 -30 -19.5 -49.5t-50.5 -19.5zM174 0v993h70v-993h-70z" />
    <glyph glyph-name="uni0457" unicode="&#x457;" horiz-adv-x="419" 
d="M51 1229q-29 0 -49 19.5t-20 47.5q0 30 19.5 49t49.5 19q29 0 48.5 -19.5t19.5 -48.5t-19.5 -48t-48.5 -19zM367 1229q-30 0 -50 19.5t-20 47.5q0 31 19.5 49.5t50.5 18.5q29 0 48 -19.5t19 -48.5t-19 -48t-48 -19zM174 0v993h70v-993h-70z" />
    <glyph glyph-name="uni0458" unicode="&#x458;" horiz-adv-x="378" 
d="M203 1227q-29 0 -49.5 20t-20.5 49q0 30 20 49t50 19q31 0 50 -18.5t19 -49.5q0 -30 -19.5 -49.5t-49.5 -19.5zM18 -414q-76 0 -137 31l10 68q55 -31 125 -31q150 0 150 186v1153h70v-1153q0 -114 -51.5 -184t-166.5 -70z" />
    <glyph glyph-name="uni0459" unicode="&#x459;" horiz-adv-x="1683" 
d="M1278 621q340 0 340 -310q0 -150 -89.5 -230.5t-271.5 -80.5h-385v928h-469q-16 -363 -36 -535q-13 -116 -39.5 -197t-65 -123t-80 -59.5t-92.5 -17.5q-31 0 -51 8l6 66q21 -7 43 -7q80 0 137.5 83t75.5 262q23 237 37 585h604v-372h336zM1257 63q291 0 291 246
q0 248 -272 248h-334v-494h315z" />
    <glyph glyph-name="uni045A" unicode="&#x45a;" horiz-adv-x="1748" 
d="M1368 582q160 0 237.5 -75.5t77.5 -215.5t-83.5 -215.5t-253.5 -75.5h-439v504h-676v-504h-67v993h67v-424h676v424h68v-411h393zM1346 63q268 0 268 226q0 112 -63 170.5t-189 58.5h-387v-455h371z" />
    <glyph glyph-name="uni045B" unicode="&#x45b;" horiz-adv-x="1118" 
d="M649 934q157 0 248.5 -105.5t91.5 -298.5v-530h-69v504q0 188 -77.5 276t-203.5 88q-187 0 -297.5 -121t-110.5 -323v-424h-69v1167h-156v64h156v276h69v-276h451v-64h-451v-489h2q53 121 161.5 188.5t254.5 67.5z" />
    <glyph glyph-name="uni045C" unicode="&#x45c;" horiz-adv-x="1056" 
d="M387 1147l250 278h88l-254 -278h-84zM164 0v993h69v-653l5 -2l643 655h94l-420 -430l440 -563h-88l-405 516l-269 -272v-244h-69z" />
    <glyph glyph-name="uni045D" unicode="&#x45d;" horiz-adv-x="1181" 
d="M621 1155l-236 264h86l231 -264h-81zM164 0v993h69v-887h5l714 887h66v-993h-68v881h-4l-715 -881h-67z" />
    <glyph glyph-name="uni045E" unicode="&#x45e;" horiz-adv-x="1044" 
d="M526 1145q-119 0 -198 67t-92 193l65 10q10 -94 66.5 -154.5t158.5 -60.5t159 60.5t65 154.5l65 -10q-13 -125 -92 -192.5t-197 -67.5zM324 -406l176 422l-447 977h80l402 -891h2l372 891h78l-588 -1399h-75z" />
    <glyph glyph-name="uni045F" unicode="&#x45f;" horiz-adv-x="1120" 
d="M956 993v-993h-360l-4 -289h-60l-2 289h-366v993h69v-927h654v927h69z" />
    <glyph glyph-name="uni0462" unicode="&#x462;" horiz-adv-x="1466" 
d="M881 834q230 0 357.5 -102.5t127.5 -313.5q0 -213 -128.5 -315.5t-356.5 -102.5h-478v1171h-383v66h383v217h74v-217h547v-66h-547v-337h404zM881 70q211 0 310 93t99 253q0 163 -99 255.5t-310 92.5h-404v-694h404z" />
    <glyph glyph-name="uni0463" unicode="&#x463;" horiz-adv-x="1146" 
d="M743 616q170 0 253 -79.5t83 -229.5q0 -146 -89 -226.5t-269 -80.5h-391v928h-326v65h326v514h67v-514h394v-65h-394v-312h346zM721 63q287 0 287 244t-269 244h-342v-488h324z" />
    <glyph glyph-name="uni0472" unicode="&#x472;" horiz-adv-x="1685" 
d="M844 1464q197 0 360 -91t260 -260t97 -384q0 -216 -97 -385.5t-260 -260.5t-360 -91q-158 0 -293 57.5t-228 157t-145.5 234.5t-52.5 288q0 151 52.5 286t145 234t228 157t293.5 58zM844 1395q-182 0 -327 -85t-226.5 -228.5t-89.5 -319.5h1284q-8 185 -96 330.5
t-231 224t-314 78.5zM844 61q172 0 314.5 78t230.5 223.5t96 331.5h-1284q8 -177 89 -320.5t226 -228t328 -84.5z" />
    <glyph glyph-name="uni0473" unicode="&#x473;" horiz-adv-x="1191" 
d="M596 1001q213 0 356.5 -141.5t143.5 -363.5q0 -221 -144 -362.5t-356 -141.5q-146 0 -261 68.5t-177 183t-62 252.5t62 253t177 183.5t261 68.5zM596 936q-183 0 -301 -118t-129 -294h860q-10 182 -132.5 297t-297.5 115zM596 57q174 0 296 113.5t132 292.5h-856
q11 -174 128.5 -290t299.5 -116z" />
    <glyph glyph-name="uni0474" unicode="&#x474;" horiz-adv-x="1433" 
d="M618 0l-557 1454h78l514 -1345h4l375 1101q47 140 102 196t158 56q50 0 95.5 -16t64.5 -35l-18 -68q-16 19 -57 35.5t-83 16.5q-77 0 -117.5 -48t-76.5 -155l-410 -1192h-72z" />
    <glyph glyph-name="uni0475" unicode="&#x475;" horiz-adv-x="1101" 
d="M479 0l-422 993h78l377 -895h2l272 707q40 105 78 148.5t107 43.5q79 0 135 -36l-16 -64q-64 33 -103 33q-48 0 -74 -32t-61 -120l-305 -778h-68z" />
    <glyph glyph-name="uni048A" unicode="&#x48a;" horiz-adv-x="1484" 
d="M733 1612q-119 0 -198.5 63.5t-92.5 177.5l66 9q10 -80 67.5 -137.5t157.5 -57.5t157.5 57.5t65.5 137.5l66 -9q-13 -114 -92.5 -177.5t-196.5 -63.5zM1280 70h96v-21l-127 -348h-59l96 299h-78v1325h-4l-952 -1325h-70v1454h72v-1329h4l954 1329h68v-1384z" />
    <glyph glyph-name="uni048B" unicode="&#x48b;" horiz-adv-x="1193" 
d="M596 1145q-119 0 -198.5 67.5t-92.5 192.5l66 10q10 -94 66.5 -154.5t158.5 -60.5t158.5 60.5t64.5 154.5l66 -10q-13 -125 -92 -192.5t-197 -67.5zM1018 66h88v-15l-119 -340h-53l94 289h-78v881h-4l-715 -881h-67v993h69v-887h5l714 887h66v-927z" />
    <glyph glyph-name="uni048C" unicode="&#x48c;" horiz-adv-x="1288" 
d="M702 834q230 0 358 -102.5t128 -313.5q0 -213 -129 -315.5t-357 -102.5h-477v1165h-213v68h213v221h74v-221h367v-68h-367v-331h403zM702 70q211 0 310.5 93t99.5 253q0 163 -99.5 255.5t-310.5 92.5h-403v-694h403z" />
    <glyph glyph-name="uni048D" unicode="&#x48d;" horiz-adv-x="983" 
d="M578 616q170 0 253.5 -80t83.5 -229q0 -146 -89.5 -226.5t-268.5 -80.5h-393v858h-154v60h154v124h69v-124h412v-60h-412v-242h345zM557 63q287 0 287 244t-269 244h-342v-488h324z" />
    <glyph glyph-name="uni048E" unicode="&#x48e;" horiz-adv-x="1206" 
d="M1120 1036q0 -313 -282 -399l163 -307l-59 -29l-176 320q-75 -11 -135 -11h-377v-610h-72v1454h484q119 0 208 -31.5t142 -89t78.5 -131.5t25.5 -166zM801 700q243 68 243 336q0 171 -100.5 259.5t-271.5 88.5h-418v-704h371q59 0 108 6l-160 295l60 27z" />
    <glyph glyph-name="uni048F" unicode="&#x48f;" horiz-adv-x="1234" 
d="M1137 487q0 -147 -67 -261.5t-181 -176.5l141 -250l-53 -30l-146 256q-94 -33 -182 -33q-141 0 -249.5 69.5t-163.5 188.5h-3v-656h-69v1399h69v-260h3q57 125 166.5 196.5t246.5 71.5q142 0 254.5 -69t173 -186t60.5 -259zM645 59q85 0 152 27l-154 272l51 31l160 -278
q99 54 155 153.5t56 222.5q0 198 -122 323.5t-300 125.5q-182 0 -297 -130t-115 -319q0 -190 119.5 -309t294.5 -119z" />
    <glyph glyph-name="uni0490" unicode="&#x490;" horiz-adv-x="1079" 
d="M973 1753h63v-369h-782v-1384h-72v1454h787z" />
    <glyph glyph-name="uni0491" unicode="&#x491;" horiz-adv-x="903" 
d="M786 1282h60v-354h-613v-928h-69v993h618z" />
    <glyph glyph-name="uni0492" unicode="&#x492;" horiz-adv-x="1132" 
d="M1090 1384h-781v-647h426v-65h-426v-672h-73v672h-216v65h216v717h854v-70z" />
    <glyph glyph-name="uni0493" unicode="&#x493;" horiz-adv-x="903" 
d="M846 928h-613v-412h451v-59h-451v-457h-69v457h-156v59h156v477h682v-65z" />
    <glyph glyph-name="uni0494" unicode="&#x494;" horiz-adv-x="1296" 
d="M635 788q123 0 222.5 -35t173.5 -105t114.5 -183t40.5 -262q0 -154 -43.5 -274t-120 -193.5t-175.5 -110.5t-216 -37q-95 0 -189 21l7 67q97 -20 180 -20q215 0 348 140t133 403q0 136 -36 237.5t-102 162.5t-151.5 90.5t-191.5 29.5q-187 0 -375 -70v-649h-72v1454h854
v-70h-782v-663q191 67 381 67z" />
    <glyph glyph-name="uni0495" unicode="&#x495;" horiz-adv-x="1044" 
d="M549 512q209 0 335 -116.5t126 -336.5q0 -112 -37 -202.5t-102 -149t-152 -90t-189 -31.5q-76 0 -157 19l6 63q76 -16 149 -16q185 0 297.5 110t112.5 295q0 188 -103.5 290t-289.5 102q-67 0 -128 -9t-96.5 -18.5t-87.5 -26.5v-395h-69v993h682v-65h-613v-469
q161 53 316 53z" />
    <glyph glyph-name="uni0496" unicode="&#x496;" horiz-adv-x="1945" 
d="M1853 70v-369h-63l-4 299h-51l-508 717l-250 -322v-395h-72v399l-250 318l-497 -717h-88l536 770l-538 684h92l743 -950h2v950h72v-954l2 -2l733 956h90l-524 -684l496 -700h79z" />
    <glyph glyph-name="uni0497" unicode="&#x497;" horiz-adv-x="1589" 
d="M1526 66v-355h-58l-4 289h-47l-381 522l-225 -246v-276h-70v279l-231 241l-371 -520h-80l402 565l-398 428h91l585 -626h2v626h70v-628h2l571 628h89l-388 -426l369 -501h72z" />
    <glyph glyph-name="uni0498" unicode="&#x498;" horiz-adv-x="1220" 
d="M1108 401q0 -83 -31 -155.5t-90 -128.5t-151 -89.5t-207 -35.5l-19 -78q174 -21 174 -143q0 -68 -48 -105.5t-122 -40.5q-81 -3 -147 21v61q53 -24 125 -24q132 0 129 96q-1 45 -51 68.5t-131 25.5l30 121q-148 7 -269 63t-204 152l49 57q73 -95 197.5 -149t273.5 -54
q185 0 300.5 89.5t115.5 244.5q0 152 -111.5 239t-316.5 87h-264v70h262q67 0 129.5 18t115 53.5t84.5 96.5t32 139q0 137 -97.5 215t-267.5 78q-232 0 -397 -131l-45 55q74 65 197 106t251 41q196 0 315 -99t119 -259q0 -119 -67.5 -212t-196.5 -130v-2q68 -11 126 -37
t105.5 -68.5t75 -108.5t27.5 -147z" />
    <glyph glyph-name="uni0499" unicode="&#x499;" horiz-adv-x="999" 
d="M901 276q0 -122 -95 -199.5t-278 -84.5l-18 -78q174 -21 174 -143q0 -68 -48 -105.5t-122 -40.5q-81 -3 -147 21v61q53 -24 125 -24q132 0 129 96q-1 45 -51.5 68.5t-131.5 25.5l31 119q-212 4 -383 112l20 66q171 -113 386 -113q160 0 248.5 61t88.5 161q0 96 -74.5 149
t-211.5 53h-238v64h232q114 0 178.5 50.5t64.5 141.5q0 94 -77 146.5t-209 52.5q-192 0 -338 -88l-29 59q153 94 369 94q162 0 259 -68.5t97 -184.5q0 -84 -45.5 -144t-122.5 -84v-2q91 -17 154 -79t63 -163z" />
    <glyph glyph-name="uni049A" unicode="&#x49a;" horiz-adv-x="1323" 
d="M1210 70v-369h-63l-4 299h-53l-555 715l-281 -324v-391h-72v1454h72v-952h4l819 952h94l-587 -684l546 -700h80z" />
    <glyph glyph-name="uni049B" unicode="&#x49b;" horiz-adv-x="1083" 
d="M1018 66v-355h-57l-5 289h-49l-405 516l-269 -272v-244h-69v993h69v-653l5 -2l643 655h94l-420 -430l389 -497h74z" />
    <glyph glyph-name="uni049C" unicode="&#x49c;" horiz-adv-x="1341" 
d="M1167 0l-530 676h-78v-434h-67v434l-238 2v-678h-72v1454h72v-709l238 3v436h67v-436h80l518 706h90l-547 -739l557 -715h-90z" />
    <glyph glyph-name="uni049D" unicode="&#x49d;" horiz-adv-x="1087" 
d="M942 0l-342 465h-90v-289h-59v289l-218 2v-467h-69v993h69v-467h218v283h59v-283h88l317 467h82l-338 -491l367 -502h-84z" />
    <glyph glyph-name="uni049E" unicode="&#x49e;" horiz-adv-x="1288" 
d="M604 770l600 -770h-94l-553 715l-283 -328v-387h-71v1176h-199v65h199v213h71v-213h342v-65h-342v-676h5l819 954h94z" />
    <glyph glyph-name="uni049F" unicode="&#x49f;" horiz-adv-x="1056" 
d="M555 563l440 -563h-88l-405 516l-269 -272v-244h-69v1221h-156v59h156v227h69v-227h429v-59h-429v-881l5 -2l643 655h94z" />
    <glyph glyph-name="uni04A0" unicode="&#x4a0;" horiz-adv-x="1509" 
d="M825 770l600 -770h-92l-557 715l-278 -324v-391h-74v1384h-414v70h488v-952h4l817 952h96z" />
    <glyph glyph-name="uni04A1" unicode="&#x4a1;" horiz-adv-x="1245" 
d="M743 563l441 -563h-88l-406 516l-268 -272v-244h-70v928h-332v65h402v-653l4 -2l643 655h94z" />
    <glyph glyph-name="uni04A2" unicode="&#x4a2;" horiz-adv-x="1536" 
d="M1448 70v-369h-62l-6 299h-206v651h-920v-651h-72v1454h72v-733h920v733h73v-1384h201z" />
    <glyph glyph-name="uni04A3" unicode="&#x4a3;" horiz-adv-x="1220" 
d="M1159 66v-355h-57l-4 289h-170v451h-695v-451h-69v993h69v-479h695v479h69v-927h162z" />
    <glyph glyph-name="uni04A4" unicode="&#x4a4;" horiz-adv-x="1712" 
d="M1669 1454v-70h-432v-1384h-74v651h-909v-651h-72v1454h72v-733h909v733h506z" />
    <glyph glyph-name="uni04A5" unicode="&#x4a5;" horiz-adv-x="1363" 
d="M1315 993v-65h-334v-928h-70v451h-678v-451h-69v993h69v-479h678v479h404z" />
    <glyph glyph-name="uni04A6" unicode="&#x4a6;" horiz-adv-x="2230" 
d="M1569 788q123 0 222.5 -35t173.5 -105t114.5 -183t40.5 -262q0 -154 -43.5 -274t-120 -193.5t-175.5 -110.5t-216 -37q-95 0 -189 21l6 67q97 -20 181 -20q215 0 348 140t133 403q0 136 -36 237.5t-102 162.5t-151.5 90.5t-191.5 29.5q-185 0 -373 -70v-649h-74v1384
h-862v-1384h-72v1454h1008v-731q197 65 379 65z" />
    <glyph glyph-name="uni04A7" unicode="&#x4a7;" horiz-adv-x="1781" 
d="M1747 59q1 -222 -133.5 -347.5t-343.5 -125.5q-77 0 -158 19l6 63q73 -16 148 -16q186 0 298.5 110t112.5 295q0 188 -104 290t-291 102q-68 0 -129.5 -9t-94.5 -18t-87 -27v-395h-68v928h-670v-928h-69v993h807v-534q51 17 87.5 26.5t98.5 18t131 8.5q207 0 333 -116.5
t126 -336.5z" />
    <glyph glyph-name="uni04A8" unicode="&#x4a8;" horiz-adv-x="1751" 
d="M1747 43q-75 -53 -215 -53q-171 0 -320 78q-150 -78 -356 -78q-175 0 -318.5 58t-237.5 158.5t-145 235.5t-51 291q0 210 91.5 376.5t258.5 260.5t382 94q130 0 245 -41l-34 -65q-92 35 -211 35q-186 0 -334.5 -80.5t-234.5 -232.5t-87 -351q0 -194 81 -345t236 -238
t361 -87q162 0 281 50v4q-141 99 -220.5 261.5t-80.5 360.5q-1 235 112.5 385t284.5 150q166 0 271.5 -149t105.5 -384q0 -206 -90.5 -370t-241.5 -258l2 -3q117 -49 242 -49q121 0 209 56zM913 733q2 -191 80 -345.5t217 -242.5h4q147 84 234.5 238.5t87.5 349.5
q0 204 -84.5 334.5t-218.5 130.5q-140 0 -230.5 -132t-89.5 -333z" />
    <glyph glyph-name="uni04A9" unicode="&#x4a9;" horiz-adv-x="1220" 
d="M1194 6q-46 -16 -127 -16q-116 0 -215 63q-116 -63 -258 -63q-153 0 -273 68t-185 184t-66 258q-1 141 57.5 255.5t164.5 180t238 65.5q42 0 86 -6l-22 -63q-32 4 -64 4q-170 -1 -280.5 -126.5t-108.5 -309.5q2 -194 131 -320.5t328 -126.5q97 0 184 35v6
q-105 73 -166 189t-61 249q0 158 82.5 270.5t212.5 112.5q126 0 205.5 -111t79.5 -278q0 -130 -61.5 -246.5t-160.5 -187.5l3 -8q70 -31 143 -31q75 0 117 17zM629 535q0 -128 62 -239.5t163 -174.5q95 66 152 173t57 236q0 134 -61 227t-150 93q-95 0 -159 -92t-64 -223z
" />
    <glyph glyph-name="uni04AA" unicode="&#x4aa;" horiz-adv-x="1466" 
d="M838 63q300 0 499 250l58 -47q-219 -272 -557 -272h-15l-18 -80q174 -21 174 -143q0 -68 -48 -105.5t-122 -40.5q-81 -3 -147 21v61q52 -24 124 -24q132 0 129 96q-1 45 -51 68.5t-131 25.5l33 123q-136 12 -251.5 65t-203 142.5t-137 222.5t-49.5 295q0 156 47 290.5
t135 235.5t224 159t305 58q158 0 302 -68t257 -208l-58 -47q-202 252 -501 252q-150 0 -271.5 -51.5t-200.5 -142.5t-121 -213t-42 -265q0 -155 49.5 -281t136 -207.5t202 -125.5t249.5 -44z" />
    <glyph glyph-name="uni04AB" unicode="&#x4ab;" horiz-adv-x="1030" 
d="M954 150q-64 -69 -160.5 -112t-207.5 -46l-19 -78q174 -21 174 -143q0 -68 -48 -105.5t-122 -40.5q-81 -3 -147 21v61q52 -24 125 -24q132 0 129 96q-1 45 -51 68.5t-131 25.5l30 121q-193 15 -311.5 153t-118.5 349q0 222 133 363.5t346 141.5q107 0 206.5 -41.5
t170.5 -119.5l-51 -47q-54 65 -138.5 104t-184.5 39q-183 0 -297.5 -123.5t-114.5 -316.5q0 -194 113 -315.5t296 -121.5q97 0 186 37t146 103z" />
    <glyph glyph-name="uni04AC" unicode="&#x4ac;" horiz-adv-x="1122" 
d="M1069 1384h-475v-1314h201v-369h-62l-6 299h-205v1384h-469v70h1016v-70z" />
    <glyph glyph-name="uni04AD" unicode="&#x4ad;" horiz-adv-x="888" 
d="M848 928h-369v-862h162v-355h-59l-4 289h-168v928h-369v65h807v-65z" />
    <glyph glyph-name="uni04AE" unicode="&#x4ae;" horiz-adv-x="1157" 
d="M541 0v659l-506 795h88l452 -717h5l454 717h86l-506 -795v-659h-73z" />
    <glyph glyph-name="uni04AF" unicode="&#x4af;" horiz-adv-x="1021" 
d="M887 993h76l-416 -1016v-383h-68v383l-422 1016h78l377 -919h2z" />
    <glyph glyph-name="uni04B0" unicode="&#x4b0;" horiz-adv-x="1157" 
d="M1120 1454l-483 -758h307v-63h-330v-633h-73v633h-336v63h313l-483 758h88l452 -717h5l454 717h86z" />
    <glyph glyph-name="uni04B1" unicode="&#x4b1;" horiz-adv-x="1021" 
d="M963 993l-385 -934h258v-59h-281l-8 -18v-388h-68v388l-8 18h-285v59h260l-389 934h78l377 -919h2l373 919h76z" />
    <glyph glyph-name="uni04B2" unicode="&#x4b2;" horiz-adv-x="1316" 
d="M1223 70v-369h-64l-4 299h-51l-469 659h-4l-475 -659h-86l514 725l-514 729h84l477 -668h2l473 668h88l-516 -729l467 -655h78z" />
    <glyph glyph-name="uni04B3" unicode="&#x4b3;" horiz-adv-x="997" 
d="M934 66v-355h-57l-5 289h-49l-336 436h-2l-333 -436h-86l376 498l-379 495h89l331 -440h4l334 440h88l-379 -493l330 -434h74z" />
    <glyph glyph-name="uni04B4" unicode="&#x4b4;" horiz-adv-x="1783" 
d="M1696 70v-369h-64l-4 299h-1128v1389h-469v65h1007v-65h-467v-1319h850v1384h74v-1384h201z" />
    <glyph glyph-name="uni04B5" unicode="&#x4b5;" horiz-adv-x="1404" 
d="M1346 66v-355h-60l-4 289h-889v928h-368v65h798v-65h-362v-862h653v927h68v-927h164z" />
    <glyph glyph-name="uni04B6" unicode="&#x4b6;" horiz-adv-x="1382" 
d="M1294 70v-369h-61l-6 299h-205v637q-103 -58 -234.5 -86.5t-228.5 -28.5q-224 0 -322 113.5t-98 353.5v465h72v-457q0 -220 82.5 -311.5t275.5 -91.5q99 0 226.5 27.5t226.5 89.5v743h72v-1384h200z" />
    <glyph glyph-name="uni04B7" unicode="&#x4b7;" horiz-adv-x="1120" 
d="M1059 66v-355h-58l-4 289h-168v414q-182 -76 -358 -76q-197 0 -283 91t-86 304v260h70v-248q0 -134 33 -209t97.5 -104t176.5 -29q182 0 350 74v516h68v-927h162z" />
    <glyph glyph-name="uni04B8" unicode="&#x4b8;" horiz-adv-x="1280" 
d="M1024 1454h74v-1454h-74v635q-154 -83 -352 -105v-313h-64v307q-18 -2 -49 -2q-224 0 -322 113.5t-98 353.5v465h72v-457q0 -220 82.5 -311.5t275.5 -91.5h39v360h64v-354q213 24 352 111v743z" />
    <glyph glyph-name="uni04B9" unicode="&#x4b9;" horiz-adv-x="1064" 
d="M831 993h70v-993h-70v414q-124 -53 -270 -70v-219h-59v215h-31q-198 0 -283.5 90t-85.5 303v260h70v-248q0 -134 33 -209t97.5 -104t176.5 -29h23v320h59v-315q146 14 270 69v516z" />
    <glyph glyph-name="uni04BA" unicode="&#x4ba;" horiz-adv-x="1282" 
d="M721 938q226 0 324 -113.5t98 -353.5v-471h-72v467q0 218 -83 308.5t-277 90.5q-95 0 -226 -29.5t-231 -86.5v-750h-72v1454h72v-631q107 55 239.5 85t227.5 30z" />
    <glyph glyph-name="uni04BB" unicode="&#x4bb;" horiz-adv-x="1134" 
d="M164 0v1507h69v-762h3q53 121 160 188.5t251 67.5q161 0 253.5 -104.5t92.5 -298.5v-598h-67v571q0 188 -79 276.5t-208 88.5q-185 0 -295.5 -121t-110.5 -323v-492h-69z" />
    <glyph glyph-name="uni04BC" unicode="&#x4bc;" horiz-adv-x="1779" 
d="M1675 752h-1276v-31q2 -194 75.5 -342t215.5 -232t336 -84q166 0 314.5 62t224.5 178l57 -45q-87 -127 -249 -195.5t-347 -68.5q-165 0 -299 54.5t-222 152t-135.5 230t-47.5 288.5v31h-25q-299 0 -299 223q0 65 29 139l67 -12q-26 -68 -26 -123q0 -81 53.5 -120.5
t175.5 -39.5h31q15 139 72 257.5t147 205t215 135.5t270 49q99 0 192 -26.5t175 -82.5t143.5 -134.5t97 -190t35.5 -242.5v-36zM1034 1393q-260 0 -430 -160.5t-198 -413.5h1196q-5 169 -82 301t-204.5 202.5t-281.5 70.5z" />
    <glyph glyph-name="uni04BD" unicode="&#x4bd;" horiz-adv-x="1286" 
d="M1198 524q0 -6 -1 -20t-1 -17h-842q3 -188 117 -308t291 -120q217 0 344 160l49 -41q-136 -186 -391 -186q-209 0 -343.5 139.5t-137.5 355.5h-7q-284 0 -284 213q0 65 28 131l62 -12q-27 -65 -27 -114q0 -79 51.5 -116.5t169.5 -37.5h9q19 197 151.5 323.5t321.5 126.5
q195 0 317.5 -135.5t122.5 -341.5zM758 936q-160 0 -272.5 -108t-129.5 -277h772q-14 174 -113 279.5t-257 105.5z" />
    <glyph glyph-name="uni04BE" unicode="&#x4be;" horiz-adv-x="1779" 
d="M1675 752h-1276v-31q2 -194 75.5 -342t215.5 -232t336 -84q166 0 314.5 62t224.5 178l57 -45q-83 -123 -238.5 -191t-336.5 -73l-3 -293h-61l-4 295q-308 15 -482.5 215t-174.5 508v31h-25q-299 0 -299 223q0 65 29 139l67 -12q-26 -68 -26 -123q0 -81 53.5 -120.5
t175.5 -39.5h31q15 139 72 257.5t147 205t215 135.5t270 49q99 0 192 -26.5t175 -82.5t143.5 -134.5t97 -190t35.5 -242.5v-36zM1034 1393q-260 0 -430 -160.5t-198 -413.5h1196q-5 169 -82 301t-204.5 202.5t-281.5 70.5z" />
    <glyph glyph-name="uni04BF" unicode="&#x4bf;" horiz-adv-x="1286" 
d="M1198 524q0 -6 -1 -20t-1 -17h-842q3 -188 117 -308t291 -120q217 0 344 160l49 -41q-125 -174 -358 -186l-4 -281h-58l-4 281q-195 12 -320 150.5t-128 344.5h-7q-284 0 -284 213q0 65 28 131l62 -12q-27 -65 -27 -114q0 -79 51.5 -116.5t169.5 -37.5h9
q19 197 151.5 323.5t321.5 126.5q195 0 317.5 -135.5t122.5 -341.5zM758 936q-160 0 -272.5 -108t-129.5 -277h772q-14 174 -113 279.5t-257 105.5z" />
    <glyph glyph-name="uni04C0" unicode="&#x4c0;" horiz-adv-x="464" 
d="M195 0v1454h73v-1454h-73z" />
    <glyph glyph-name="uni04C1" unicode="&#x4c1;" horiz-adv-x="1890" 
d="M942 1612q-119 0 -198.5 63.5t-92.5 177.5l66 9q10 -80 67.5 -137.5t157.5 -57.5t157.5 57.5t65.5 137.5l66 -9q-13 -114 -92.5 -177.5t-196.5 -63.5zM70 0l536 770l-538 684h92l743 -950h2v950h72v-954l2 -2l733 956h90l-524 -684l545 -770h-88l-508 717l-250 -322v-395
h-72v399l-250 318l-497 -717h-88z" />
    <glyph glyph-name="uni04C2" unicode="&#x4c2;" horiz-adv-x="1562" 
d="M776 1145q-119 0 -198.5 67.5t-92.5 192.5l66 10q10 -94 66.5 -154.5t158.5 -60.5t158.5 60.5t64.5 154.5l66 -10q-13 -125 -92 -192.5t-197 -67.5zM59 0l402 565l-398 428h91l585 -626h2v626h70v-628h2l571 628h89l-388 -426l418 -567h-86l-381 522l-225 -246v-276h-70
v279l-231 241l-371 -520h-80z" />
    <glyph glyph-name="uni04C3" unicode="&#x4c3;" horiz-adv-x="1323" 
d="M635 780q115 0 213.5 -35t175.5 -104t120.5 -181t43.5 -257q0 -154 -43.5 -274t-120 -193.5t-175.5 -110.5t-216 -37q-97 0 -189 21l5 67q100 -20 182 -20q214 0 347.5 140.5t133.5 402.5q0 132 -39.5 233.5t-108 161.5t-153.5 89.5t-184 29.5q-49 0 -99 -6l-274 -316
v-391h-72v1454h72v-952h4l819 952h94l-583 -676q16 2 47 2z" />
    <glyph glyph-name="uni04C4" unicode="&#x4c4;" horiz-adv-x="1071" 
d="M549 512q94 0 176 -28.5t145 -83.5t99.5 -143t36.5 -198q0 -148 -64 -257t-170.5 -162.5t-241.5 -53.5q-76 0 -157 19l6 63q76 -16 149 -16q183 0 294.5 110t111.5 295t-107 288.5t-282 103.5q-67 0 -119 -9l-193 -184v-256h-69v993h69v-653l5 -2l643 655h94l-473 -483
q16 2 47 2z" />
    <glyph glyph-name="uni04C5" unicode="&#x4c5;" horiz-adv-x="1460" 
d="M1255 70h97v-21l-127 -348h-60l97 299h-78v1384h-664q-36 -578 -61 -782q-40 -325 -126 -465.5t-227 -140.5q-50 0 -73 10l6 66q21 -6 59 -6q73 0 126 49t94 169.5t67 319.5q37 277 66 850h804v-1384z" />
    <glyph glyph-name="uni04C6" unicode="&#x4c6;" horiz-adv-x="1128" 
d="M952 66h88v-15l-118 -340h-54l95 289h-78v928h-479q-15 -349 -37 -535q-13 -117 -40 -197.5t-65.5 -122.5t-79.5 -59.5t-92 -17.5q-33 0 -53 8l6 66q21 -7 43 -7q81 0 137.5 82.5t77.5 262.5q20 204 35 585h614v-927z" />
    <glyph glyph-name="uni04C7" unicode="&#x4c7;" horiz-adv-x="1429" 
d="M1174 1454h73v-1499q0 -193 -77.5 -281t-245.5 -88q-83 0 -152 29l6 68q57 -29 142 -29q59 0 102.5 13t79 44.5t54 92t18.5 149.5v698h-920v-651h-72v1454h72v-733h920v733z" />
    <glyph glyph-name="uni04C8" unicode="&#x4c8;" horiz-adv-x="1161" 
d="M928 993h69v-1073q0 -172 -65.5 -253t-224.5 -81q-67 0 -136 29l9 63q53 -26 122 -26q60 0 99.5 11t69.5 40t43.5 82t13.5 133v533h-695v-451h-69v993h69v-479h695v479z" />
    <glyph glyph-name="uni04C9" unicode="&#x4c9;" horiz-adv-x="1452" 
d="M1247 70h96v-21l-126 -348h-60l96 299h-79v651h-920v-651h-72v1454h72v-733h920v733h73v-1384z" />
    <glyph glyph-name="uni04CA" unicode="&#x4ca;" horiz-adv-x="1173" 
d="M997 66h88v-15l-118 -340h-54l95 289h-80v451h-695v-451h-69v993h69v-479h695v479h69v-927z" />
    <glyph glyph-name="uni04CB" unicode="&#x4cb;" horiz-adv-x="1275" 
d="M1022 1454h72v-1454h-207l-4 -299h-62v369h201v567q-103 -58 -234.5 -86.5t-228.5 -28.5q-224 0 -322 113.5t-98 353.5v465h72v-457q0 -220 82.5 -311.5t275.5 -91.5q99 0 226.5 27.5t226.5 89.5v743z" />
    <glyph glyph-name="uni04CC" unicode="&#x4cc;" horiz-adv-x="1060" 
d="M829 993h68v-993h-166l-4 -289h-59v348h161v355q-182 -76 -358 -76q-197 0 -283 91t-86 304v260h70v-248q0 -134 33 -209t97.5 -104t176.5 -29q182 0 350 74v516z" />
    <glyph glyph-name="uni04CD" unicode="&#x4cd;" horiz-adv-x="1777" 
d="M1573 70h96v-21l-127 -348h-59l96 299h-80v1311h-2l-590 -998h-59l-590 998h-2v-1311h-74v1454h74l621 -1048h4l618 1048h74v-1384z" />
    <glyph glyph-name="uni04CE" unicode="&#x4ce;" horiz-adv-x="1361" 
d="M1186 66h88v-15l-119 -340h-53l94 289h-78v862h-2l-414 -676h-57l-412 676h-2v-862h-67v993h67l441 -729h4l442 729h68v-927z" />
    <glyph glyph-name="uni04CF" unicode="&#x4cf;" horiz-adv-x="417" 
d="M174 0v1507h70v-1507h-70z" />
    <glyph glyph-name="uni04D0" unicode="&#x4d0;" horiz-adv-x="1325" 
d="M662 1612q-119 0 -198.5 63.5t-92.5 177.5l65 9q10 -80 68 -137.5t158 -57.5t157.5 57.5t65.5 137.5l65 -9q-13 -114 -92 -177.5t-196 -63.5zM57 0l561 1454h82l568 -1454h-78l-162 418h-731l-162 -418h-78zM322 485h679l-337 881h-5z" />
    <glyph glyph-name="uni04D1" unicode="&#x4d1;" horiz-adv-x="1216" 
d="M592 1145q-119 0 -198.5 67.5t-92.5 192.5l66 10q10 -94 66.5 -154.5t158.5 -60.5t158.5 60.5t64.5 154.5l66 -10q-13 -125 -92 -192.5t-197 -67.5zM582 -8q-135 0 -246.5 61t-177.5 175t-66 259q0 142 61 259t174.5 186t256.5 69q135 0 245.5 -72t165.5 -198l2 2v260h68
v-993h-68v254h-2q-56 -121 -163.5 -191.5t-249.5 -70.5zM588 59q173 0 291 119t118 309q0 123 -50 225t-144.5 163t-214.5 61q-178 0 -301 -126t-123 -323q0 -182 118 -305t306 -123z" />
    <glyph glyph-name="uni04D2" unicode="&#x4d2;" horiz-adv-x="1325" 
d="M502 1718q-29 0 -49.5 20t-20.5 48q0 30 20 48.5t50 18.5q29 0 48 -19t19 -48t-19 -48.5t-48 -19.5zM817 1718q-30 0 -49.5 20t-19.5 48q0 31 19 49t50 18q29 0 48.5 -19t19.5 -48t-19.5 -48.5t-48.5 -19.5zM57 0l561 1454h82l568 -1454h-78l-162 418h-731l-162 -418h-78
zM322 485h679l-337 881h-5z" />
    <glyph glyph-name="uni04D3" unicode="&#x4d3;" horiz-adv-x="1216" 
d="M432 1229q-29 0 -49.5 19.5t-20.5 47.5q0 30 20 49t50 19q29 0 48.5 -19.5t19.5 -48.5t-19.5 -48t-48.5 -19zM748 1229q-30 0 -50 19.5t-20 47.5q0 31 19.5 49.5t50.5 18.5q29 0 48 -19.5t19 -48.5t-19 -48t-48 -19zM582 -8q-135 0 -246.5 61t-177.5 175t-66 259
q0 142 61 259t174.5 186t256.5 69q135 0 245.5 -72t165.5 -198l2 2v260h68v-993h-68v254h-2q-56 -121 -163.5 -191.5t-249.5 -70.5zM588 59q173 0 291 119t118 309q0 123 -50 225t-144.5 163t-214.5 61q-178 0 -301 -126t-123 -323q0 -182 118 -305t306 -123z" />
    <glyph glyph-name="uni04D4" unicode="&#x4d4;" horiz-adv-x="1855" 
d="M12 0l828 1454h901v-70h-780v-624h659v-70h-659v-620h821v-70h-895v418h-553l-240 -418h-82zM371 485h516v899h-2z" />
    <glyph glyph-name="uni04D5" unicode="&#x4d5;" horiz-adv-x="1593" 
d="M1518 520v-33h-736q9 -201 105 -314.5t254 -113.5q72 0 126.5 20.5t89.5 52.5t75 87l51 -41q-66 -94 -144 -140t-198 -46q-149 0 -242.5 77.5t-134.5 198.5h-2q-33 -128 -139 -202t-248 -74q-149 0 -230.5 82.5t-81.5 204.5q0 121 90.5 196.5t268.5 75.5h295v45
q0 187 -51.5 262.5t-180.5 75.5q-161 0 -307 -84l-31 57q157 94 340 94q132 0 198 -64t85 -198h2q45 121 138 191.5t218 70.5q169 0 279.5 -137t110.5 -344zM786 551h660q-9 173 -94.5 279t-223.5 106q-147 0 -237.5 -106.5t-104.5 -278.5zM379 57q142 0 240 88.5t98 247.5
v96l-293 -2q-128 0 -209.5 -53.5t-81.5 -154.5q0 -93 63.5 -157.5t182.5 -64.5z" />
    <glyph glyph-name="uni04D6" unicode="&#x4d6;" horiz-adv-x="1167" 
d="M594 1612q-119 0 -198.5 63.5t-92.5 177.5l66 9q10 -80 67.5 -137.5t157.5 -57.5t157.5 57.5t65.5 137.5l66 -9q-13 -114 -92.5 -177.5t-196.5 -63.5zM182 0v1454h852v-70h-780v-622h653v-70h-653v-622h823v-70h-895z" />
    <glyph glyph-name="uni04D7" unicode="&#x4d7;" horiz-adv-x="1097" 
d="M573 1145q-119 0 -198 67t-92 193l65 10q10 -94 66.5 -154.5t158.5 -60.5t159 60.5t65 154.5l65 -10q-13 -125 -92 -192.5t-197 -67.5zM1010 524q0 -33 -2 -37h-842q3 -187 117.5 -307.5t289.5 -120.5q221 0 345 160l51 -41q-139 -186 -394 -186q-210 0 -344.5 142.5
t-134.5 361.5q0 218 136 361.5t339 143.5q193 0 316 -135.5t123 -341.5zM569 936q-158 0 -271 -108t-130 -277h772q-14 174 -113.5 279.5t-257.5 105.5z" />
    <glyph glyph-name="uni04D8" unicode="&#x4d8;" horiz-adv-x="1570" 
d="M737 1464q163 0 298.5 -57.5t225 -157.5t138.5 -234t49 -288q0 -210 -87 -378t-243 -262.5t-352 -94.5q-136 0 -256 43t-213.5 125t-148 212.5t-54.5 293.5v39h1276v22q-1 192 -77 342t-221.5 237t-338.5 87q-140 0 -258 -44t-233 -135l-49 54q237 196 544 196zM764 63
q245 0 410.5 158t191.5 414h-1198q2 -128 48 -235.5t125 -181t188 -114.5t235 -41z" />
    <glyph glyph-name="uni04D9" unicode="&#x4d9;" horiz-adv-x="1105" 
d="M524 1001q212 0 349 -141.5t137 -361.5q0 -226 -123 -366t-342 -140q-205 0 -329 133t-126 338q0 27 4 43h846q-3 191 -120 310.5t-298 119.5q-167 0 -321 -88l-31 55q165 98 354 98zM545 59q174 0 276.5 104t116.5 279h-776q6 -173 111.5 -278t271.5 -105z" />
    <glyph glyph-name="uni04DA" unicode="&#x4da;" horiz-adv-x="1570" 
d="M618 1718q-29 0 -49 20t-20 48q0 30 19.5 48.5t49.5 18.5q29 0 48.5 -19t19.5 -48t-19.5 -48.5t-48.5 -19.5zM934 1718q-30 0 -50 20t-20 48q0 30 19.5 48.5t50.5 18.5q29 0 48 -19t19 -48t-19 -48.5t-48 -19.5zM737 1464q163 0 298.5 -57.5t225 -157.5t138.5 -234
t49 -288q0 -210 -87 -378t-243 -262.5t-352 -94.5q-136 0 -256 43t-213.5 125t-148 212.5t-54.5 293.5v39h1276v22q-1 192 -77 342t-221.5 237t-338.5 87q-140 0 -258 -44t-233 -135l-49 54q237 196 544 196zM764 63q245 0 410.5 158t191.5 414h-1198q2 -128 48 -235.5
t125 -181t188 -114.5t235 -41z" />
    <glyph glyph-name="uni04DB" unicode="&#x4db;" horiz-adv-x="1105" 
d="M414 1229q-29 0 -49.5 19.5t-20.5 47.5q0 30 20 49t50 19q29 0 48 -19.5t19 -48.5t-19 -48t-48 -19zM729 1229q-30 0 -50 19.5t-20 47.5q0 31 19.5 49.5t50.5 18.5q29 0 48.5 -19.5t19.5 -48.5t-19.5 -48t-48.5 -19zM524 1001q212 0 349 -141.5t137 -361.5
q0 -226 -123 -366t-342 -140q-205 0 -329 133t-126 338q0 27 4 43h846q-3 191 -120 310.5t-298 119.5q-167 0 -321 -88l-31 55q165 98 354 98zM545 59q174 0 276.5 104t116.5 279h-776q6 -173 111.5 -278t271.5 -105z" />
    <glyph glyph-name="uni04DC" unicode="&#x4dc;" horiz-adv-x="1890" 
d="M782 1718q-29 0 -49 20t-20 48q0 30 19.5 48.5t49.5 18.5q29 0 48.5 -19t19.5 -48t-19.5 -48.5t-48.5 -19.5zM1098 1718q-30 0 -50 20t-20 48q0 30 19.5 48.5t50.5 18.5q29 0 48 -19t19 -48t-19 -48.5t-48 -19.5zM70 0l536 770l-538 684h92l743 -950h2v950h72v-954l2 -2
l733 956h90l-524 -684l545 -770h-88l-508 717l-250 -322v-395h-72v399l-250 318l-497 -717h-88z" />
    <glyph glyph-name="uni04DD" unicode="&#x4dd;" horiz-adv-x="1562" 
d="M616 1229q-29 0 -49 19.5t-20 47.5q0 30 19.5 49t49.5 19q29 0 48.5 -19.5t19.5 -48.5t-19.5 -48t-48.5 -19zM932 1229q-30 0 -50 19.5t-20 47.5q0 31 19.5 49.5t50.5 18.5q29 0 48 -19.5t19 -48.5t-19 -48t-48 -19zM59 0l402 565l-398 428h91l585 -626h2v626h70v-628h2
l571 628h89l-388 -426l418 -567h-86l-381 522l-225 -246v-276h-70v279l-231 241l-371 -520h-80z" />
    <glyph glyph-name="uni04DE" unicode="&#x4de;" horiz-adv-x="1220" 
d="M436 1718q-29 0 -49 20t-20 48q0 30 19.5 48.5t49.5 18.5q29 0 48.5 -19t19.5 -48t-19.5 -48.5t-48.5 -19.5zM752 1718q-30 0 -50 20t-20 48q0 30 19.5 48.5t50.5 18.5q29 0 48 -19t19 -48t-19 -48.5t-48 -19.5zM614 -8q-163 0 -296 56.5t-222 160.5l49 57
q73 -95 197.5 -149t273.5 -54q185 0 300.5 89.5t115.5 244.5q0 152 -111.5 239t-316.5 87h-264v70h262q67 0 129.5 18t115 53.5t84.5 96.5t32 139q0 137 -97.5 215t-267.5 78q-232 0 -397 -131l-45 55q74 65 197 106t251 41q196 0 315 -99t119 -259q0 -119 -67.5 -212
t-196.5 -130v-2q68 -11 126 -37t105.5 -68.5t75 -108.5t27.5 -147q0 -85 -32 -158.5t-92.5 -129.5t-155.5 -88.5t-214 -32.5z" />
    <glyph glyph-name="uni04DF" unicode="&#x4df;" horiz-adv-x="999" 
d="M360 1229q-29 0 -49 19.5t-20 47.5q0 30 19.5 49t49.5 19q29 0 48.5 -19.5t19.5 -48.5t-19.5 -48t-48.5 -19zM676 1229q-30 0 -50 19.5t-20 47.5q0 31 19.5 49.5t50.5 18.5q29 0 48 -19.5t19 -48.5t-19 -48t-48 -19zM492 -8q-230 0 -406 112l20 66q171 -113 386 -113
q160 0 248.5 61t88.5 161q0 96 -74.5 149t-211.5 53h-238v64h232q114 0 178.5 50.5t64.5 141.5q0 94 -77 146.5t-209 52.5q-192 0 -338 -88l-29 59q153 94 369 94q162 0 259 -68.5t97 -184.5q0 -84 -45.5 -144t-122.5 -84v-2q91 -17 154 -79t63 -163q0 -128 -104.5 -206
t-304.5 -78z" />
    <glyph glyph-name="uni04E0" unicode="&#x4e0;" horiz-adv-x="1200" 
d="M477 829q321 0 475 -107t154 -325q0 -178 -128.5 -291.5t-356.5 -113.5q-169 0 -303.5 56.5t-223.5 160.5l49 57q73 -94 200 -148.5t280 -54.5q178 0 292.5 88t114.5 246q0 191 -136.5 278t-442.5 87h-84v51l585 569l-2 2h-815v70h918v-63z" />
    <glyph glyph-name="uni04E1" unicode="&#x4e1;" horiz-adv-x="933" 
d="M414 -414q-112 0 -201.5 26.5t-183.5 88.5l18 68q92 -63 175.5 -89t189.5 -26q186 0 281 95.5t95 246.5q0 120 -69.5 201t-186.5 118t-276 37h-43l-2 47l506 527v2h-654v65h750v-51l-506 -526v-2q88 -3 166 -18.5t149.5 -48t123 -79.5t82 -116.5t30.5 -155.5
q0 -185 -115 -297.5t-329 -112.5z" />
    <glyph glyph-name="uni04E2" unicode="&#x4e2;" horiz-adv-x="1462" 
d="M457 1698v65h555v-65h-555zM182 0v1454h72v-1329h4l954 1329h68v-1454h-72v1325h-4l-952 -1325h-70z" />
    <glyph glyph-name="uni04E3" unicode="&#x4e3;" horiz-adv-x="1181" 
d="M319 1257v66h555v-66h-555zM164 0v993h69v-887h5l714 887h66v-993h-68v881h-4l-715 -881h-67z" />
    <glyph glyph-name="uni04E4" unicode="&#x4e4;" horiz-adv-x="1462" 
d="M573 1718q-29 0 -49 20t-20 48q0 30 19.5 48.5t49.5 18.5q29 0 48.5 -19t19.5 -48t-19.5 -48.5t-48.5 -19.5zM889 1718q-30 0 -50 20t-20 48q0 30 19.5 48.5t50.5 18.5q29 0 48 -19t19 -48t-19 -48.5t-48 -19.5zM182 0v1454h72v-1329h4l954 1329h68v-1454h-72v1325h-4
l-952 -1325h-70z" />
    <glyph glyph-name="uni04E5" unicode="&#x4e5;" horiz-adv-x="1181" 
d="M436 1229q-29 0 -49 19.5t-20 47.5q0 30 19.5 49t49.5 19q29 0 48.5 -19.5t19.5 -48.5t-19.5 -48t-48.5 -19zM752 1229q-30 0 -50 19.5t-20 47.5q0 31 19.5 49.5t50.5 18.5q29 0 48 -19.5t19 -48.5t-19 -48t-48 -19zM164 0v993h69v-887h5l714 887h66v-993h-68v881h-4
l-715 -881h-67z" />
    <glyph glyph-name="uni04E6" unicode="&#x4e6;" horiz-adv-x="1685" 
d="M684 1718q-29 0 -49.5 20t-20.5 48q0 30 20 48.5t50 18.5q29 0 48.5 -19t19.5 -48t-19.5 -48.5t-48.5 -19.5zM999 1718q-30 0 -49.5 20t-19.5 48q0 31 19 49t50 18q29 0 48.5 -19t19.5 -48t-19.5 -48.5t-48.5 -19.5zM846 -8q-200 0 -364 91.5t-260.5 261t-96.5 384.5
q0 214 96.5 383t260.5 260.5t364 91.5q146 0 277 -53.5t228 -148.5t153.5 -233.5t56.5 -299.5q0 -216 -97 -385.5t-259.5 -260.5t-358.5 -91zM846 63q130 0 247 48.5t203 134.5t136.5 211.5t50.5 271.5t-50.5 271t-136.5 210.5t-203 134t-247 48.5q-133 0 -251.5 -48.5
t-205.5 -134.5t-137.5 -211t-50.5 -270q0 -146 50.5 -271t137.5 -211t205.5 -135t251.5 -49z" />
    <glyph glyph-name="uni04E7" unicode="&#x4e7;" horiz-adv-x="1191" 
d="M438 1229q-29 0 -49 19.5t-20 47.5q0 30 19.5 49t49.5 19q29 0 48.5 -19.5t19.5 -48.5t-19.5 -48t-48.5 -19zM754 1229q-30 0 -50 19.5t-20 47.5q0 31 19.5 49.5t50.5 18.5q29 0 48 -19.5t19 -48.5t-19 -48t-48 -19zM596 -8q-146 0 -261 68.5t-177 183t-62 252.5t62 253
t177 183.5t261 68.5q138 0 251.5 -62.5t181 -179t67.5 -263.5q0 -146 -67.5 -262t-181 -179t-251.5 -63zM596 59q183 0 305.5 122.5t122.5 314.5q0 96 -33.5 179t-91 140t-136 89t-167.5 32q-189 0 -309.5 -128t-120.5 -312t120 -310.5t310 -126.5z" />
    <glyph glyph-name="uni04E8" unicode="&#x4e8;" horiz-adv-x="1685" 
d="M844 1464q197 0 360 -91t260 -260t97 -384q0 -216 -97 -385.5t-260 -260.5t-360 -91q-158 0 -293 57.5t-228 157t-145.5 234.5t-52.5 288q0 151 52.5 286t145 234t228 157t293.5 58zM844 1395q-182 0 -327 -85t-226.5 -228.5t-89.5 -319.5h1284q-8 185 -96 330.5
t-231 224t-314 78.5zM844 61q172 0 314.5 78t230.5 223.5t96 331.5h-1284q8 -177 89 -320.5t226 -228t328 -84.5z" />
    <glyph glyph-name="uni04E9" unicode="&#x4e9;" horiz-adv-x="1191" 
d="M596 1001q213 0 356.5 -141.5t143.5 -363.5q0 -221 -144 -362.5t-356 -141.5q-146 0 -261 68.5t-177 183t-62 252.5t62 253t177 183.5t261 68.5zM596 936q-183 0 -301 -118t-129 -294h860q-10 182 -132.5 297t-297.5 115zM596 57q174 0 296 113.5t132 292.5h-856
q11 -174 128.5 -290t299.5 -116z" />
    <glyph glyph-name="uni04EA" unicode="&#x4ea;" horiz-adv-x="1685" 
d="M688 1718q-29 0 -49.5 20t-20.5 48q0 30 20 48.5t50 18.5q29 0 48.5 -19t19.5 -48t-19.5 -48.5t-48.5 -19.5zM1004 1718q-30 0 -50 20t-20 48q0 30 19.5 48.5t50.5 18.5q29 0 48 -19t19 -48t-19 -48.5t-48 -19.5zM844 1464q197 0 360 -91t260 -260t97 -384
q0 -216 -97 -385.5t-260 -260.5t-360 -91q-158 0 -293 57.5t-228 157t-145.5 234.5t-52.5 288q0 151 52.5 286t145 234t228 157t293.5 58zM844 1395q-182 0 -327 -85t-226.5 -228.5t-89.5 -319.5h1284q-8 185 -96 330.5t-231 224t-314 78.5zM844 61q172 0 314.5 78
t230.5 223.5t96 331.5h-1284q8 -177 89 -320.5t226 -228t328 -84.5z" />
    <glyph glyph-name="uni04EB" unicode="&#x4eb;" horiz-adv-x="1191" 
d="M438 1229q-29 0 -49 19.5t-20 47.5q0 30 19.5 49t49.5 19q29 0 48.5 -19.5t19.5 -48.5t-19.5 -48t-48.5 -19zM754 1229q-30 0 -50 19.5t-20 47.5q0 31 19.5 49.5t50.5 18.5q29 0 48 -19.5t19 -48.5t-19 -48t-48 -19zM596 1001q213 0 356.5 -141.5t143.5 -363.5
q0 -221 -144 -362.5t-356 -141.5q-146 0 -261 68.5t-177 183t-62 252.5t62 253t177 183.5t261 68.5zM596 936q-183 0 -301 -118t-129 -294h860q-10 182 -132.5 297t-297.5 115zM596 57q174 0 296 113.5t132 292.5h-856q11 -174 128.5 -290t299.5 -116z" />
    <glyph glyph-name="uni04EC" unicode="&#x4ec;" horiz-adv-x="1484" 
d="M537 1718q-29 0 -49.5 20t-20.5 48q0 30 20 48.5t50 18.5q29 0 48 -19t19 -48t-19 -48.5t-48 -19.5zM852 1718q-30 0 -50 20t-20 48q0 30 19.5 48.5t50.5 18.5q29 0 48.5 -19t19.5 -48t-19.5 -48.5t-48.5 -19.5zM651 1464q217 0 380 -99t247 -266.5t84 -377.5
q0 -218 -91.5 -384t-252.5 -254.5t-367 -88.5q-180 0 -319.5 66.5t-235.5 175.5l49 53q80 -99 211 -162.5t297 -63.5q182 0 324 78t223 222t86 331h-903v70h903q-8 181 -86 323t-220.5 224t-328.5 82q-264 0 -479 -189l-49 56q236 204 528 204z" />
    <glyph glyph-name="uni04ED" unicode="&#x4ed;" horiz-adv-x="1060" 
d="M358 1229q-29 0 -49 19.5t-20 47.5q0 30 19.5 49t49.5 19q29 0 48.5 -19.5t19.5 -48.5t-19.5 -48t-48.5 -19zM674 1229q-30 0 -50 19.5t-20 47.5q0 31 19.5 49.5t50.5 18.5q29 0 48 -19.5t19 -48.5t-19 -48t-48 -19zM471 1001q217 0 356.5 -140.5t139.5 -364.5
q0 -143 -57.5 -256t-171.5 -180.5t-267 -67.5q-244 0 -387 125l37 53q140 -113 354 -113q125 1 219.5 55t145.5 146t57 211h-631v63h629q-10 182 -128.5 293t-297.5 111q-172 0 -322 -88l-28 59q66 40 159.5 67t192.5 27z" />
    <glyph glyph-name="uni04EE" unicode="&#x4ee;" horiz-adv-x="1308" 
d="M936 1763v-65h-555v65h555zM1174 1454h77l-495 -1104q-69 -154 -95 -197q-70 -119 -168 -150q-43 -13 -94 -13q-60 0 -123 22t-102 64l27 67q40 -41 93.5 -60.5t104.5 -19.5q49 0 87 16.5t70.5 54.5t59 86t58.5 124l-617 1110h80l572 -1024h4v2z" />
    <glyph glyph-name="uni04EF" unicode="&#x4ef;" horiz-adv-x="1044" 
d="M250 1257v66h555v-66h-555zM324 -406l176 422l-447 977h80l402 -891h2l372 891h78l-588 -1399h-75z" />
    <glyph glyph-name="uni04F0" unicode="&#x4f0;" horiz-adv-x="1308" 
d="M498 1718q-29 0 -49.5 20t-20.5 48q0 30 20 48.5t50 18.5q29 0 48 -19t19 -48t-19 -48.5t-48 -19.5zM813 1718q-30 0 -50 20t-20 48q0 30 19.5 48.5t50.5 18.5q29 0 48.5 -19t19.5 -48t-19.5 -48.5t-48.5 -19.5zM1174 1454h77l-495 -1104q-69 -154 -95 -197
q-70 -119 -168 -150q-43 -13 -94 -13q-60 0 -123 22t-102 64l27 67q40 -41 93.5 -60.5t104.5 -19.5q49 0 87 16.5t70.5 54.5t59 86t58.5 124l-617 1110h80l572 -1024h4v2z" />
    <glyph glyph-name="uni04F1" unicode="&#x4f1;" horiz-adv-x="1044" 
d="M367 1229q-29 0 -49.5 19.5t-20.5 47.5q0 30 20 49t50 19q29 0 48 -19.5t19 -48.5t-19 -48t-48 -19zM682 1229q-30 0 -50 19.5t-20 47.5q0 31 19.5 49.5t50.5 18.5q29 0 48.5 -19.5t19.5 -48.5t-19.5 -48t-48.5 -19zM324 -406l176 422l-447 977h80l402 -891h2l372 891h78
l-588 -1399h-75z" />
    <glyph glyph-name="uni04F2" unicode="&#x4f2;" horiz-adv-x="1308" 
d="M815 1915l-254 -279h-80l248 279h86zM831 1636h-77l247 279h86zM1174 1454h77l-495 -1104q-69 -154 -95 -197q-70 -119 -168 -150q-43 -13 -94 -13q-60 0 -123 22t-102 64l27 67q40 -41 93.5 -60.5t104.5 -19.5q49 0 87 16.5t70.5 54.5t59 86t58.5 124l-617 1110h80
l572 -1024h4v2z" />
    <glyph glyph-name="uni04F3" unicode="&#x4f3;" horiz-adv-x="1044" 
d="M307 1149l248 278h86l-254 -278h-80zM580 1149l247 278h86l-256 -278h-77zM324 -406l176 422l-447 977h80l402 -891h2l372 891h78l-588 -1399h-75z" />
    <glyph glyph-name="uni04F4" unicode="&#x4f4;" horiz-adv-x="1275" 
d="M479 1718q-29 0 -49 20t-20 48q0 30 19.5 48.5t49.5 18.5q29 0 48.5 -19t19.5 -48t-19.5 -48.5t-48.5 -19.5zM795 1718q-30 0 -50 20t-20 48q0 30 19.5 48.5t50.5 18.5q29 0 48 -19t19 -48t-19 -48.5t-48 -19.5zM1022 1454h72v-1454h-72v637q-103 -58 -234.5 -86.5
t-228.5 -28.5q-224 0 -322 113.5t-98 353.5v465h72v-457q0 -220 82.5 -311.5t275.5 -91.5q99 0 226.5 27.5t226.5 89.5v743z" />
    <glyph glyph-name="uni04F5" unicode="&#x4f5;" horiz-adv-x="1060" 
d="M346 1229q-29 0 -49.5 19.5t-20.5 47.5q0 30 20 49t50 19q29 0 48.5 -19.5t19.5 -48.5t-19.5 -48t-48.5 -19zM662 1229q-30 0 -50 19.5t-20 47.5q0 31 19.5 49.5t50.5 18.5q29 0 48 -19.5t19 -48.5t-19 -48t-48 -19zM829 993h68v-993h-68v414q-182 -76 -358 -76
q-197 0 -283 91t-86 304v260h70v-248q0 -134 33 -209t97.5 -104t176.5 -29q182 0 350 74v516z" />
    <glyph glyph-name="uni04F6" unicode="&#x4f6;" horiz-adv-x="1079" 
d="M1036 1384h-782v-1314h201v-369h-62l-6 299h-205v1454h854v-70z" />
    <glyph glyph-name="uni04F7" unicode="&#x4f7;" horiz-adv-x="903" 
d="M846 928h-613v-862h162v-355h-59l-4 289h-168v993h682v-65z" />
    <glyph glyph-name="uni04F8" unicode="&#x4f8;" horiz-adv-x="1626" 
d="M655 1718q-29 0 -49 20t-20 48q0 30 19.5 48.5t49.5 18.5q29 0 48.5 -19t19.5 -48t-19.5 -48.5t-48.5 -19.5zM971 1718q-30 0 -50 20t-20 48q0 30 19.5 48.5t50.5 18.5q29 0 48 -19t19 -48t-19 -48.5t-48 -19.5zM182 0v1454h72v-616h362q230 0 358 -103t128 -315
q0 -215 -129 -317.5t-357 -102.5h-434zM1372 0v1454h72v-1454h-72zM254 70h362q211 0 310.5 93t99.5 255q0 164 -99.5 257t-310.5 93h-362v-698z" />
    <glyph glyph-name="uni04F9" unicode="&#x4f9;" horiz-adv-x="1345" 
d="M508 1229q-29 0 -49.5 19.5t-20.5 47.5q0 30 20 49t50 19q29 0 48 -19.5t19 -48.5t-19 -48t-48 -19zM823 1229q-30 0 -49.5 19.5t-19.5 47.5q0 31 19 49.5t50 18.5q29 0 48.5 -19.5t19.5 -48.5t-19.5 -48t-48.5 -19zM164 0v993h69v-370h320q171 0 255.5 -80.5
t84.5 -231.5q0 -149 -90 -230t-271 -81h-368zM1112 0v993h70v-993h-70zM233 63h299q289 0 289 246q0 250 -270 250h-318v-496z" />
    <glyph glyph-name="uni04FA" unicode="&#x4fa;" horiz-adv-x="1132" 
d="M1090 1384h-781v-647h426v-65h-426v-826q0 -260 -221 -260q-68 0 -133 29l6 68q52 -29 123 -29q152 0 152 184v834h-216v65h216v717h854v-70z" />
    <glyph glyph-name="uni04FB" unicode="&#x4fb;" horiz-adv-x="903" 
d="M233 928v-412h451v-59h-451v-613q0 -258 -219 -258q-71 0 -133 29l8 63q51 -26 123 -26q152 0 152 188v617h-156v59h156v477h682v-65h-613z" />
    <glyph glyph-name="uni04FC" unicode="&#x4fc;" horiz-adv-x="1259" 
d="M856 -414q-88 0 -154 29l7 68q57 -29 141 -29q252 0 252 244q0 46 -14 93.5t-43.5 99.5t-54 88t-66.5 93l-289 387h-4l-475 -659h-86l514 725l-514 729h84l477 -668h2l473 668h88l-516 -729l303 -410q46 -62 72 -100.5t59 -96.5t48.5 -112.5t15.5 -107.5q0 -144 -80 -228
t-240 -84z" />
    <glyph glyph-name="uni04FD" unicode="&#x4fd;" horiz-adv-x="970" 
d="M623 -414q-79 0 -148 29l8 63q53 -26 138 -26q223 3 223 219q0 56 -27 119t-55 102t-74 96l-201 248h-2l-333 -436h-86l376 498l-379 495h89l331 -440h4l334 440h88l-379 -493l213 -271q35 -44 58.5 -76.5t52.5 -82t44 -100.5t15 -101q0 -130 -72 -206.5t-218 -76.5z" />
    <glyph glyph-name="uni04FE" unicode="&#x4fe;" horiz-adv-x="1261" 
d="M1073 688h-371l492 -688h-90l-469 659h-4l-475 -659h-86l491 688h-368v68h372l-495 698h84l477 -670h2l473 670h88l-496 -698h375v-68z" />
    <glyph glyph-name="uni04FF" unicode="&#x4ff;" horiz-adv-x="970" 
d="M827 461h-270l352 -461h-86l-336 436h-2l-333 -436h-86l352 461h-273v59h281l-363 473h89l331 -442h4l334 442h88l-364 -473h282v-59z" />
    <glyph glyph-name="uni0510" unicode="&#x510;" horiz-adv-x="1216" 
d="M608 -8q-243 0 -369 109t-126 282q0 82 29.5 150.5t78 113.5t104.5 72.5t115 38.5v2q-131 38 -195.5 132.5t-64.5 213.5q0 164 118 261t312 97q128 0 248 -44.5t193 -119.5l-47 -53q-152 146 -390 146q-166 0 -262 -78.5t-96 -216.5q0 -77 31.5 -137.5t83 -96
t112.5 -53.5t127 -18h264v-70h-264q-191 0 -305.5 -91.5t-114.5 -244.5t112.5 -238.5t305.5 -85.5q154 0 276.5 58t190.5 166l58 -51q-85 -120 -220 -182t-305 -62z" />
    <glyph glyph-name="uni0511" unicode="&#x511;" horiz-adv-x="985" 
d="M504 -8q-203 0 -304.5 75.5t-101.5 204.5q0 94 67 160t144 82v2q-78 26 -126 84t-48 139q0 122 97 192t260 70q195 0 366 -98l-33 -59q-71 42 -147.5 67t-183.5 25q-133 0 -211 -53.5t-78 -151.5q0 -85 69 -135.5t181 -50.5h231v-64h-233q-126 0 -204.5 -59t-78.5 -148
q0 -101 86 -159t248 -58q123 0 209 32t161 85l27 -65q-76 -52 -168 -84.5t-229 -32.5z" />
    <glyph glyph-name="uni0512" unicode="&#x512;" horiz-adv-x="1437" 
d="M1255 1454v-1499q0 -193 -77.5 -281t-245.5 -88q-83 0 -152 29l6 68q57 -29 142 -29q59 0 102.5 13t79 44.5t54 92t18.5 149.5v1431h-662q-36 -578 -61 -782q-40 -325 -126 -465.5t-227 -140.5q-50 0 -73 10l6 66q21 -6 59 -6q73 0 126 49t94 169.5t67 319.5
q37 277 66 850h804z" />
    <glyph glyph-name="uni0513" unicode="&#x513;" horiz-adv-x="1116" 
d="M338 993h614v-1073q0 -172 -65.5 -253t-224.5 -81q-67 0 -136 29l9 63q53 -26 122 -26q60 0 99.5 11t69.5 40t43.5 82t13.5 133v1010h-477q-15 -349 -37 -535q-13 -117 -40 -197.5t-65.5 -122.5t-79.5 -59.5t-92 -17.5q-33 0 -53 8l6 66q21 -7 43 -7q81 0 137.5 82.5
t77.5 262.5q20 204 35 585z" />
    <glyph glyph-name="uni051A" unicode="&#x51a;" horiz-adv-x="1703" 
d="M1585 43l-45 -53l-209 186q-96 -88 -221.5 -136t-265.5 -48q-158 0 -293 57.5t-228 157t-145.5 234.5t-52.5 288q0 151 52.5 286t145 234t228 157t293.5 58q197 0 360 -91t260 -260t97 -384q0 -301 -181 -504zM201 729q0 -185 80 -336.5t228 -240.5t335 -89
q251 0 432 164l-203 183l43 53l207 -187q160 184 160 453q0 145 -50 270t-136.5 211t-203.5 134.5t-249 48.5q-187 0 -335 -89t-228 -240t-80 -335z" />
    <glyph glyph-name="uni051B" unicode="&#x51b;" horiz-adv-x="1234" 
d="M1006 -406v656h-2q-57 -118 -166 -188t-248 -70q-136 0 -247.5 61t-178 175t-66.5 259q0 142 61 259t175 186t258 69q134 0 244.5 -72t167.5 -198h2v262h67v-1399h-67zM594 59q174 0 293 119t119 309q0 123 -50.5 225t-145 163t-214.5 61q-180 0 -303 -125.5t-123 -323.5
q0 -182 118 -305t306 -123z" />
    <glyph glyph-name="uni051C" unicode="&#x51c;" horiz-adv-x="2041" 
d="M539 0l-469 1454h77l433 -1341h2l395 1341h88l393 -1341h2l434 1341h78l-469 -1454h-84l-397 1350h-2l-399 -1350h-82z" />
    <glyph glyph-name="uni051D" unicode="&#x51d;" horiz-adv-x="1544" 
d="M418 0l-350 993h71l312 -880h4l280 880h72l285 -880h4l309 880h74l-351 -993h-71l-283 885h-2l-287 -885h-67z" />
    <glyph glyph-name="uni0524" unicode="&#x524;" horiz-adv-x="1492" 
d="M1405 70v-369h-62l-6 299h-207v1384h-876v-1384h-72v1454h1022v-1384h201z" />
    <glyph glyph-name="uni0525" unicode="&#x525;" horiz-adv-x="1204" 
d="M1143 66v-355h-58l-4 289h-170v928h-678v-928h-69v993h817v-927h162z" />
    <glyph glyph-name="uni0528" unicode="&#x528;" horiz-adv-x="1429" 
d="M1174 1454h73v-1454h-73v651h-918v-805q0 -260 -221 -260q-68 0 -133 29l6 68q52 -29 123 -29q151 0 151 184v1616h74v-733h918v733z" />
    <glyph glyph-name="uni0529" unicode="&#x529;" horiz-adv-x="1161" 
d="M928 993h69v-993h-69v451h-695v-607q0 -258 -219 -258q-71 0 -133 29l8 63q51 -26 123 -26q152 0 152 188v1153h69v-479h695v479z" />
    <glyph glyph-name="uni052E" unicode="&#x52e;" horiz-adv-x="1544" 
d="M1456 70v-369h-61l-6 299h-205v1384h-664q-36 -578 -61 -782q-40 -325 -126 -465.5t-227 -140.5q-50 0 -73 10l6 66q21 -6 59 -6q73 0 126 49t94 169.5t67 319.5q37 277 66 850h804v-1384h201z" />
    <glyph glyph-name="uni052F" unicode="&#x52f;" horiz-adv-x="1175" 
d="M1114 66v-355h-57l-4 289h-168v928h-479q-15 -349 -37 -535q-13 -117 -40 -197.5t-65.5 -122.5t-79.5 -59.5t-92 -17.5q-33 0 -53 8l6 66q21 -7 43 -7q81 0 137.5 82.5t77.5 262.5q20 204 35 585h614v-927h162z" />
    <glyph glyph-name="uni1E0C" unicode="&#x1e0c;" horiz-adv-x="1454" 
d="M182 0v1454h393q170 0 311.5 -53.5t239 -149.5t151.5 -231t54 -295q0 -325 -204.5 -525t-544.5 -200h-400zM254 70h324q313 0 495 181t182 474q0 294 -187 476.5t-495 182.5h-319v-1314zM668 -242q29 0 49 -20t20 -49q0 -30 -19.5 -49t-49.5 -19q-31 0 -50.5 18.5
t-19.5 49.5q0 29 20 49t50 20z" />
    <glyph glyph-name="uni1E0D" unicode="&#x1e0d;" horiz-adv-x="1234" 
d="M588 -8q-136 0 -248 61t-179 175t-67 259q0 217 139 365.5t355 148.5q135 0 245.5 -72t165.5 -198h5v776h67v-1507h-65v258h-5q-52 -121 -161.5 -193.5t-251.5 -72.5zM592 59q174 0 294 119.5t120 308.5q0 188 -116.5 318.5t-297.5 130.5q-180 0 -303 -125.5t-123 -323.5
q0 -182 118.5 -305t307.5 -123zM616 -242q29 0 49.5 -20t20.5 -49q0 -30 -20 -49t-50 -19q-31 0 -50 18.5t-19 49.5q0 30 19.5 49.5t49.5 19.5z" />
    <glyph glyph-name="uni1E0E" unicode="&#x1e0e;" horiz-adv-x="1454" 
d="M182 0v1454h393q170 0 311.5 -53.5t239 -149.5t151.5 -231t54 -295q0 -325 -204.5 -525t-544.5 -200h-400zM254 70h324q313 0 495 181t182 474q0 294 -187 476.5t-495 182.5h-319v-1314zM946 -358h-555v65h555v-65z" />
    <glyph glyph-name="uni1E0F" unicode="&#x1e0f;" horiz-adv-x="1234" 
d="M588 -8q-136 0 -248 61t-179 175t-67 259q0 217 139 365.5t355 148.5q135 0 245.5 -72t165.5 -198h5v776h67v-1507h-65v258h-5q-52 -121 -161.5 -193.5t-251.5 -72.5zM592 59q174 0 294 119.5t120 308.5q0 188 -116.5 318.5t-297.5 130.5q-180 0 -303 -125.5t-123 -323.5
q0 -182 118.5 -305t307.5 -123zM895 -358h-555v65h555v-65z" />
    <glyph glyph-name="uni1E20" unicode="&#x1e20;" horiz-adv-x="1556" 
d="M551 1698v65h555v-65h-555zM840 -6q-155 0 -287.5 53.5t-227 148.5t-147.5 231.5t-53 297.5q0 216 89.5 384t252 261.5t371.5 93.5q323 0 532 -209l-49 -47q-193 185 -483 185q-282 0 -459.5 -185t-177.5 -483q0 -193 80 -344t226 -234.5t333 -83.5q299 0 487 156v420
h-526v70h598v-527q-209 -188 -559 -188z" />
    <glyph glyph-name="uni1E21" unicode="&#x1e21;" horiz-adv-x="1206" 
d="M303 1257v66h555v-66h-555zM598 -414q-215 0 -405 115l18 68q183 -115 387 -115q194 0 292.5 102.5t98.5 274.5v248h-2q-54 -119 -161 -187.5t-251 -68.5q-133 0 -242 60t-174 173.5t-65 259.5q0 134 59.5 244t170.5 175.5t251 65.5q136 0 245.5 -65.5t166.5 -181.5h2
v239h68v-962q0 -204 -117 -324.5t-342 -120.5zM580 90q186 0 298.5 121t112.5 307q0 184 -117 301t-292 117q-122 0 -218 -57t-147 -152t-51 -209q0 -191 119 -309.5t295 -118.5z" />
    <glyph glyph-name="uni1E24" unicode="&#x1e24;" horiz-adv-x="1429" 
d="M182 0v1454h72v-733h920v733h73v-1454h-73v651h-920v-651h-72zM713 -242q29 0 49 -20t20 -49q0 -30 -19.5 -49t-49.5 -19q-31 0 -50.5 18.5t-19.5 49.5q0 29 19.5 49t50.5 20z" />
    <glyph glyph-name="uni1E25" unicode="&#x1e25;" horiz-adv-x="1134" 
d="M164 0v1507h69v-762h3q53 121 160 188.5t251 67.5q161 0 253.5 -104.5t92.5 -298.5v-598h-67v571q0 188 -79 276.5t-208 88.5q-185 0 -295.5 -121t-110.5 -323v-492h-69zM578 -242q29 0 49 -20t20 -49q0 -30 -19.5 -49t-49.5 -19q-31 0 -50.5 18.5t-19.5 49.5q0 29 20 49
t50 20z" />
    <glyph glyph-name="uni1E2A" unicode="&#x1e2a;" horiz-adv-x="1429" 
d="M182 0v1454h72v-733h920v733h73v-1454h-73v651h-920v-651h-72zM713 -428q-105 0 -177 70t-81 196h61q5 -89 57.5 -147t139.5 -58q88 0 140 57.5t58 147.5h62q-9 -126 -81 -196t-179 -70z" />
    <glyph glyph-name="uni1E2B" unicode="&#x1e2b;" horiz-adv-x="1134" 
d="M164 0v1507h69v-762h3q53 121 160 188.5t251 67.5q161 0 253.5 -104.5t92.5 -298.5v-598h-67v571q0 188 -79 276.5t-208 88.5q-185 0 -295.5 -121t-110.5 -323v-492h-69zM578 -428q-105 0 -177.5 70t-81.5 196h62q5 -89 57.5 -147t139.5 -58q88 0 140 57.5t58 147.5h62
q-9 -126 -81 -196t-179 -70z" />
    <glyph glyph-name="uni1E30" unicode="&#x1e30;" horiz-adv-x="1267" 
d="M512 1622l231 256h86l-237 -256h-80zM182 0v1454h72v-952h4l819 952h94l-587 -684l600 -770h-94l-555 715l-281 -324v-391h-72z" />
    <glyph glyph-name="uni1E31" unicode="&#x1e31;" horiz-adv-x="1003" 
d="M164 0v1507h69v-1188l3 -2l616 676h92l-391 -428l387 -565h-82l-354 514l-271 -293v-221h-69zM424 1147l250 278h88l-254 -278h-84z" />
    <glyph glyph-name="uni1E36" unicode="&#x1e36;" horiz-adv-x="1093" 
d="M182 0v1454h72v-1384h790v-70h-862zM612 -242q29 0 49.5 -20t20.5 -49q0 -30 -20 -49t-50 -19q-31 0 -50 18.5t-19 49.5q0 30 19.5 49.5t49.5 19.5z" />
    <glyph glyph-name="uni1E37" unicode="&#x1e37;" horiz-adv-x="417" 
d="M174 0v1507h70v-1507h-70zM233 -242q29 0 49.5 -20t20.5 -49q0 -30 -20 -49t-50 -19q-31 0 -50 18.5t-19 49.5q0 30 19.5 49.5t49.5 19.5z" />
    <glyph glyph-name="uni1E38" unicode="&#x1e38;" horiz-adv-x="1093" 
d="M256 1698v65h555v-65h-555zM182 0v1454h72v-1384h790v-70h-862zM612 -242q29 0 49.5 -20t20.5 -49q0 -30 -20 -49t-50 -19q-31 0 -50 18.5t-19 49.5q0 30 19.5 49.5t49.5 19.5z" />
    <glyph glyph-name="uni1E39" unicode="&#x1e39;" horiz-adv-x="417" 
d="M-66 1724v66h555v-66h-555zM174 0v1507h70v-1507h-70zM233 -242q29 0 49.5 -20t20.5 -49q0 -30 -20 -49t-50 -19q-31 0 -50 18.5t-19 49.5q0 30 19.5 49.5t49.5 19.5z" />
    <glyph glyph-name="uni1E3A" unicode="&#x1e3a;" horiz-adv-x="1093" 
d="M182 0v1454h72v-1384h790v-70h-862zM891 -358h-555v65h555v-65z" />
    <glyph glyph-name="uni1E3B" unicode="&#x1e3b;" horiz-adv-x="417" 
d="M174 0v1507h70v-1507h-70zM512 -358h-555v65h555v-65z" />
    <glyph glyph-name="uni1E42" unicode="&#x1e42;" horiz-adv-x="1755" 
d="M182 0v1454h74l621 -1048h4l618 1048h74v-1454h-74v1311h-2l-590 -998h-59l-590 998h-2v-1311h-74zM874 -242q29 0 49.5 -20t20.5 -49q0 -30 -20 -49t-50 -19q-31 0 -50 18.5t-19 49.5q0 30 19.5 49.5t49.5 19.5z" />
    <glyph glyph-name="uni1E43" unicode="&#x1e43;" horiz-adv-x="1775" 
d="M164 0v993h69v-245h3q52 118 149.5 185.5t216.5 67.5q130 0 213 -74.5t113 -209.5h2q47 132 148 208t227 76q166 0 250.5 -115t84.5 -317v-569h-69v541q0 195 -71.5 295t-203.5 100q-149 0 -250.5 -124t-101.5 -320v-492h-70v541q0 194 -74 294.5t-206 100.5
q-155 0 -258 -123.5t-103 -320.5v-492h-69zM911 -242q29 0 49.5 -20t20.5 -49q0 -30 -20 -49t-50 -19q-31 0 -50 18.5t-19 49.5q0 30 19.5 49.5t49.5 19.5z" />
    <glyph glyph-name="uni1E44" unicode="&#x1e44;" horiz-adv-x="1501" 
d="M750 1679q-29 0 -49.5 20.5t-20.5 49.5q0 30 20 49t50 19q31 0 50 -18.5t19 -49.5q0 -30 -19.5 -50t-49.5 -20zM182 0v1454h70l989 -1329h2v1329h74v-1454h-74l-985 1325h-4v-1325h-72z" />
    <glyph glyph-name="uni1E45" unicode="&#x1e45;" horiz-adv-x="1124" 
d="M584 1227q-29 0 -49.5 20t-20.5 49q0 30 20 49t50 19q31 0 50 -18.5t19 -49.5q0 -30 -19.5 -49.5t-49.5 -19.5zM164 0v993h69v-248h3q54 121 160 188.5t243 67.5q159 0 251.5 -105.5t92.5 -299.5v-596h-68v569q0 97 -22 169.5t-62 115t-90.5 62.5t-111.5 20
q-179 0 -287.5 -121.5t-108.5 -322.5v-492h-69z" />
    <glyph glyph-name="uni1E46" unicode="&#x1e46;" horiz-adv-x="1501" 
d="M182 0v1454h70l989 -1329h2v1329h74v-1454h-74l-985 1325h-4v-1325h-72zM774 -242q29 0 49.5 -20t20.5 -49q0 -30 -20 -49t-50 -19q-31 0 -50 18.5t-19 49.5q0 30 19.5 49.5t49.5 19.5z" />
    <glyph glyph-name="uni1E47" unicode="&#x1e47;" horiz-adv-x="1124" 
d="M164 0v993h69v-248h3q54 121 160 188.5t243 67.5q159 0 251.5 -105.5t92.5 -299.5v-596h-68v569q0 97 -22 169.5t-62 115t-90.5 62.5t-111.5 20q-179 0 -287.5 -121.5t-108.5 -322.5v-492h-69zM594 -242q29 0 49.5 -20t20.5 -49q0 -30 -20 -49t-50 -19q-31 0 -50.5 18.5
t-19.5 49.5q0 29 20 49t50 20z" />
    <glyph glyph-name="uni1E48" unicode="&#x1e48;" horiz-adv-x="1501" 
d="M182 0v1454h70l989 -1329h2v1329h74v-1454h-74l-985 1325h-4v-1325h-72zM1053 -358h-555v65h555v-65z" />
    <glyph glyph-name="uni1E49" unicode="&#x1e49;" horiz-adv-x="1124" 
d="M164 0v993h69v-248h3q54 121 160 188.5t243 67.5q159 0 251.5 -105.5t92.5 -299.5v-596h-68v569q0 97 -22 169.5t-62 115t-90.5 62.5t-111.5 20q-179 0 -287.5 -121.5t-108.5 -322.5v-492h-69zM872 -358h-555v65h555v-65z" />
    <glyph glyph-name="uni1E5A" unicode="&#x1e5a;" horiz-adv-x="1263" 
d="M182 0v1454h484q117 0 205.5 -31.5t142.5 -88.5t81 -132t27 -166q0 -196 -110.5 -299t-309.5 -121l441 -616h-88l-439 610h-362v-610h-72zM254 680h373q218 0 319 97t101 259q0 173 -101.5 260.5t-281.5 87.5h-410v-704zM635 -242q29 0 49.5 -20t20.5 -49q0 -30 -20 -49
t-50 -19q-31 0 -50.5 18.5t-19.5 49.5q0 29 19.5 49t50.5 20z" />
    <glyph glyph-name="uni1E5B" unicode="&#x1e5b;" horiz-adv-x="663" 
d="M164 0v993h69v-233h5q47 113 136.5 177t209.5 64q41 0 61 -2v-75q-46 4 -61 4q-159 0 -255 -120t-96 -314v-494h-69zM225 -242q29 0 49.5 -20t20.5 -49q0 -30 -20 -49t-50 -19q-31 0 -50 18.5t-19 49.5q0 30 19.5 49.5t49.5 19.5z" />
    <glyph glyph-name="uni1E5C" unicode="&#x1e5c;" horiz-adv-x="1263" 
d="M342 1698v65h555v-65h-555zM182 0v1454h484q117 0 205.5 -31.5t142.5 -88.5t81 -132t27 -166q0 -196 -110.5 -299t-309.5 -121l441 -616h-88l-439 610h-362v-610h-72zM254 680h373q218 0 319 97t101 259q0 173 -101.5 260.5t-281.5 87.5h-410v-704zM635 -242
q29 0 49.5 -20t20.5 -49q0 -30 -20 -49t-50 -19q-31 0 -50.5 18.5t-19.5 49.5q0 29 19.5 49t50.5 20z" />
    </font>
</defs>
</svg>
