<?xml version="1.0" standalone="no"?>
<!DOCTYPE svg PUBLIC "-//W3C//DTD SVG 1.1//EN" "http://www.w3.org/Graphics/SVG/1.1/DTD/svg11.dtd" >
<svg xmlns="http://www.w3.org/2000/svg" xmlns:xlink="http://www.w3.org/1999/xlink" version="1.1">
<metadata>
Created by FontForge 20201107 at Tue Aug  6 05:21:18 2024
 By 
Copyright (c) 2015 by Kostas Bartsokas. All rights reserved.
</metadata>
<defs>
<font id="AvertaStdCY-BoldItalic" horiz-adv-x="0" >
  <font-face 
    font-family="Averta Std CY Bold"
    font-weight="700"
    font-style="italic"
    font-stretch="normal"
    units-per-em="2048"
    panose-1="0 0 8 0 0 0 0 0 0 0"
    ascent="1638"
    descent="-410"
    x-height="1001"
    cap-height="1454"
    bbox="-1493 -774 2841 2163"
    underline-thickness="108"
    underline-position="-184"
    slope="-7"
    unicode-range="U+000D-2E18"
  />
<missing-glyph horiz-adv-x="821" 
 />
    <glyph glyph-name=".notdef" horiz-adv-x="821" 
 />
    <glyph glyph-name=".null" 
 />
    <glyph glyph-name="nonmarkingreturn" horiz-adv-x="682" 
 />
    <glyph glyph-name="CR" unicode="&#xd;" 
 />
    <glyph glyph-name="space" unicode=" " horiz-adv-x="393" 
 />
    <glyph glyph-name="exclam" unicode="!" horiz-adv-x="577" 
d="M207 473l80 1034h280l-172 -1034h-188zM266 -18q-71 0 -115.5 44.5t-44.5 112.5q0 72 46.5 119t119.5 47q70 0 115 -45.5t45 -114.5q0 -71 -46.5 -117t-119.5 -46z" />
    <glyph glyph-name="quotedbl" unicode="&#x22;" horiz-adv-x="813" 
d="M117 924l121 530h268l-189 -530h-200zM483 924l121 530h268l-188 -530h-201z" />
    <glyph glyph-name="numbersign" unicode="#" horiz-adv-x="1210" 
d="M133 -88l103 387h-189l23 193h219l73 288h-208l20 193h242l94 370h180l-96 -370h242l94 370h180l-94 -370h196l-24 -193h-227l-72 -288h215l-25 -193h-245l-101 -387h-178l100 387h-241l-101 -387h-180zM467 492h244l69 288h-239z" />
    <glyph glyph-name="dollar" unicode="$" horiz-adv-x="1089" 
d="M627 821q28 -17 78 -45.5t77.5 -45t67 -43.5t61.5 -51t44.5 -56.5t32 -71t9.5 -84.5q0 -192 -115.5 -306t-301.5 -130l-29 -234h-184l30 244q-107 23 -196 80t-144 145l197 176q40 -81 110.5 -123.5t149.5 -42.5q88 0 144.5 44t56.5 108q0 16 -4 29.5t-15 26.5t-20 22
t-30.5 23t-36 22.5t-47 26.5t-52.5 30q-134 78 -175 109q-138 102 -157 237q-4 25 -4 52q0 163 106.5 271t272.5 132l31 246h182l-31 -254q185 -39 299 -193l-192 -166q-90 127 -228 127q-68 0 -112 -38t-43 -95q1 -46 37 -80t131 -92z" />
    <glyph glyph-name="percent" unicode="%" horiz-adv-x="2048" 
d="M766 -47l-195 90l758 1448l197 -92zM526 653q-162 0 -268 106.5t-106 274.5q0 184 121 308t298 124q163 0 270 -103.5t107 -270.5q0 -189 -123 -314t-299 -125zM532 846q87 0 147 66t60 173q0 85 -50 138t-126 53q-85 0 -144 -68t-59 -172q0 -86 48.5 -138t123.5 -52z
M1528 -18q-161 0 -267 106.5t-106 273.5q0 184 121 308.5t297 124.5q164 0 272.5 -104.5t108.5 -270.5q0 -190 -124 -314t-302 -124zM1536 174q87 0 147 66t60 174q0 85 -50 137.5t-126 52.5q-83 0 -143 -68.5t-60 -170.5q0 -86 48.5 -138.5t123.5 -52.5z" />
    <glyph glyph-name="ampersand" unicode="&#x26;" horiz-adv-x="1499" 
d="M465 -18q-172 0 -281.5 106t-109.5 281q0 141 75.5 264t212.5 186q-96 89 -96 219q0 190 128.5 312.5t314.5 122.5q316 0 395 -302l-227 -73q-10 64 -47.5 105.5t-108.5 41.5q-87 0 -139 -53t-52 -145q0 -54 35 -90.5t99 -36.5h837l-28 -234h-302q-22 -156 -76.5 -283.5
t-140.5 -222t-211 -146.5t-278 -52zM506 223q69 0 130.5 26t108.5 71t84.5 104.5t61.5 125.5t35 136h-283q-66 0 -123.5 -26.5t-95 -69t-59 -94t-21.5 -101.5q0 -79 44.5 -125.5t117.5 -46.5z" />
    <glyph glyph-name="quotesingle" unicode="'" horiz-adv-x="446" 
d="M117 924l121 530h268l-189 -530h-200z" />
    <glyph glyph-name="parenleft" unicode="(" horiz-adv-x="612" 
d="M231 -326q-127 278 -127 652q0 327 94 645t269 555l176 -78q-144 -231 -222.5 -518.5t-78.5 -569.5q0 -315 98 -589z" />
    <glyph glyph-name="parenright" unicode=")" horiz-adv-x="612" 
d="M174 -317l-178 77q145 239 222 524.5t77 567.5q0 318 -96 586l204 96q132 -264 132 -651q0 -328 -92 -638.5t-269 -561.5z" />
    <glyph glyph-name="asterisk" unicode="*" horiz-adv-x="774" 
d="M342 786l35 213l-162 -112l-65 137l169 94l-149 101l98 137l138 -113l18 211h160l-37 -211l164 111l65 -135l-170 -99l150 -96l-97 -139l-137 114l-20 -213h-160z" />
    <glyph glyph-name="plus" unicode="+" horiz-adv-x="1093" 
d="M381 84l43 369h-322l29 229h324l43 371h233l-47 -371h324l-29 -229h-324l-45 -369h-229z" />
    <glyph glyph-name="comma" unicode="," horiz-adv-x="483" 
d="M-43 -272l121 530h264l-197 -530h-188z" />
    <glyph glyph-name="hyphen" unicode="-" horiz-adv-x="763" 
d="M102 510l29 246h563l-28 -246h-564z" />
    <glyph glyph-name="period" unicode="." horiz-adv-x="550" 
d="M229 -18q-71 0 -115 44.5t-44 112.5q0 72 46.5 119t119.5 47q70 0 114.5 -45.5t44.5 -114.5q0 -71 -46.5 -117t-119.5 -46z" />
    <glyph glyph-name="slash" unicode="/" horiz-adv-x="790" 
d="M27 -229l-179 92l916 1747l176 -90z" />
    <glyph glyph-name="zero" unicode="0" horiz-adv-x="1198" 
d="M545 -18q-204 0 -317 141t-113 409q0 137 23.5 266t73 242.5t119 198.5t167.5 134.5t213 49.5q202 0 312 -141t110 -408q0 -174 -38.5 -332.5t-110 -284.5t-185.5 -200.5t-254 -74.5zM553 236q63 0 115.5 40.5t87 107t58 153t34 175t10.5 177.5q0 282 -166 282
q-78 0 -139 -62.5t-95.5 -162.5t-51.5 -210.5t-17 -221.5q0 -135 42.5 -206.5t121.5 -71.5z" />
    <glyph glyph-name="one" unicode="1" horiz-adv-x="802" 
d="M528 1407h215l-172 -1407h-272l131 1053l-209 -156l-121 207z" />
    <glyph glyph-name="two" unicode="2" horiz-adv-x="1011" 
d="M20 0l17 178l436 467q51 55 81 91t68.5 90.5t57 106t18.5 101.5q0 62 -32.5 101t-90.5 39q-62 0 -127.5 -42t-109.5 -118l-188 145q66 117 189 190.5t269 73.5q155 0 260 -98t105 -262q0 -144 -71 -271.5t-206 -267.5l-266 -274v-4h457l-31 -246h-836z" />
    <glyph glyph-name="three" unicode="3" horiz-adv-x="1032" 
d="M440 -18q-169 0 -279.5 88.5t-142.5 230.5l256 90q21 -164 160 -164q98 0 157.5 68t59.5 174q0 143 -162 143h-100l29 222h84q94 0 148.5 68.5t54.5 150.5q0 57 -34.5 91t-90.5 34q-127 0 -197 -129l-215 125q59 113 176 181t258 68q164 0 265.5 -83.5t101.5 -237.5
q0 -121 -54 -218t-151 -155v-2q78 -39 120 -112.5t42 -176.5q0 -204 -138.5 -330t-347.5 -126z" />
    <glyph glyph-name="four" unicode="4" horiz-adv-x="1079" 
d="M834 463h176l-31 -232h-174l-29 -231h-264l29 231h-523l21 175l694 1001h215zM344 446h244l61 482z" />
    <glyph glyph-name="five" unicode="5" horiz-adv-x="1052" 
d="M973 1161h-463l-49 -280q92 24 160 24q154 0 244.5 -100t90.5 -275q0 -241 -146.5 -394.5t-373.5 -153.5q-281 0 -416 237l218 148q29 -66 78 -102t112 -36q114 0 185 81.5t71 201.5q0 84 -42.5 128t-119.5 44q-105 0 -205 -76l-147 56l133 743h701z" />
    <glyph glyph-name="six" unicode="6" horiz-adv-x="1114" 
d="M504 -18q-179 0 -293.5 118.5t-114.5 329.5q0 235 95.5 446t276.5 363.5t417 208.5l47 -223q-377 -139 -504 -416l2 -2q127 94 281 94q128 0 218.5 -95t90.5 -269q0 -118 -36 -219.5t-102 -176t-163.5 -117t-214.5 -42.5zM518 227q99 0 167.5 82t68.5 205
q0 75 -40.5 116.5t-117.5 41.5q-59 0 -126.5 -36.5t-111.5 -92.5q-4 -54 -4 -82q0 -106 45 -170t119 -64z" />
    <glyph glyph-name="seven" unicode="7" horiz-adv-x="915" 
d="M156 1407h788l-20 -178l-574 -1260l-272 51l532 1143h-485z" />
    <glyph glyph-name="eight" unicode="8" horiz-adv-x="1081" 
d="M463 -16q-182 0 -292 90.5t-110 247.5q0 143 72.5 260.5t200.5 173.5v4q-52 27 -88.5 88.5t-36.5 146.5q0 186 129.5 307t327.5 121q146 0 245 -80.5t99 -224.5q0 -115 -53 -209.5t-142 -140.5v-4q82 -29 132 -105.5t50 -189.5q0 -226 -147.5 -355.5t-386.5 -129.5z
M588 870q71 0 120.5 56t49.5 139q0 60 -33.5 96.5t-95.5 36.5q-73 0 -121.5 -55.5t-48.5 -134.5q0 -61 35.5 -99.5t93.5 -38.5zM498 215q94 0 159.5 70t65.5 174q0 79 -44 126.5t-122 47.5q-95 0 -158 -73t-63 -169q0 -80 43.5 -128t118.5 -48z" />
    <glyph glyph-name="nine" unicode="9" horiz-adv-x="1103" 
d="M262 -49l-45 217q179 53 305 159t193 253l-2 2q-116 -78 -254 -78q-143 0 -234.5 92.5t-91.5 261.5q0 247 150 406t376 159q181 0 289.5 -120.5t108.5 -331.5q0 -248 -100 -466.5t-282.5 -366t-412.5 -187.5zM559 733q64 0 125.5 35.5t106.5 91.5q4 58 4 90
q0 110 -43.5 170t-120.5 60q-101 0 -166.5 -78t-65.5 -199q0 -170 160 -170z" />
    <glyph glyph-name="colon" unicode=":" horiz-adv-x="563" 
d="M328 692q-71 0 -115.5 45t-44.5 113q0 72 46.5 119t119.5 47q70 0 115 -45.5t45 -114.5q0 -71 -46.5 -117.5t-119.5 -46.5zM238 -18q-71 0 -115.5 44.5t-44.5 112.5q0 72 46.5 119t119.5 47q70 0 114.5 -45.5t44.5 -114.5q0 -71 -46 -117t-119 -46z" />
    <glyph glyph-name="semicolon" unicode=";" horiz-adv-x="512" 
d="M293 692q-71 0 -115.5 45t-44.5 113q0 72 46.5 119t119.5 47q70 0 115 -45.5t45 -114.5q0 -71 -46.5 -117.5t-119.5 -46.5zM-31 -272l121 530h264l-196 -530h-189z" />
    <glyph glyph-name="less" unicode="&#x3c;" horiz-adv-x="1103" 
d="M922 55l-813 410l20 188l915 418l-28 -252l-555 -258l489 -260z" />
    <glyph glyph-name="equal" unicode="=" horiz-adv-x="1132" 
d="M184 688l29 230h877l-27 -230h-879zM119 217l28 229h877l-27 -229h-878z" />
    <glyph glyph-name="greater" unicode="&#x3e;" horiz-adv-x="1105" 
d="M78 55l26 246l558 260l-492 258l31 252l813 -418l-23 -188z" />
    <glyph glyph-name="question" unicode="?" horiz-adv-x="890" 
d="M254 471l10 94q5 51 33.5 103t52 80t88.5 97q12 14 19 21q72 76 108.5 136t36.5 135q0 66 -33 102.5t-92 36.5q-99 0 -184 -109l-166 166q69 89 181.5 141t236.5 52q148 0 248 -86t100 -244q0 -214 -219 -416q-52 -49 -79.5 -76.5t-53.5 -66.5t-33 -74l-21 -92h-233z
M346 -18q-71 0 -115.5 44.5t-44.5 112.5q0 72 46.5 119t119.5 47q70 0 115 -45.5t45 -114.5q0 -71 -46.5 -117t-119.5 -46z" />
    <glyph glyph-name="at" unicode="@" horiz-adv-x="1835" 
d="M850 -301q-220 0 -390.5 90.5t-268 264t-97.5 405.5q0 80 15 163.5t48.5 171.5t83 168.5t124 152t165.5 124t213 83t261 30.5q231 0 403 -96.5t261 -263.5t89 -382q0 -63 -11.5 -128t-43 -138.5t-80.5 -130t-131.5 -94t-187.5 -37.5q-121 0 -193 72q-42 42 -57 102h-4
q-112 -152 -291 -152q-123 0 -204 91t-81 254q0 223 123 372.5t301 149.5q137 0 213 -76l6 2l8 59h246l-57 -469q-13 -117 -13 -118q0 -45 19 -67.5t63 -22.5q41 0 77 34.5t58 86.5t34 107t12 101q0 117 -39 220.5t-109.5 181t-177 122t-233.5 44.5q-148 0 -270.5 -44.5
t-203.5 -117t-137.5 -167.5t-81 -192.5t-24.5 -195.5q0 -130 44.5 -240t120.5 -183t179 -114t219 -41q209 0 424 105l82 -136q-108 -72 -239 -111.5t-267 -39.5zM840 330q84 0 157 88t90 219l9 51q-72 57 -160 57q-89 0 -149 -84.5t-60 -187.5q0 -72 33 -107.5t80 -35.5z
" />
    <glyph glyph-name="A" unicode="A" horiz-adv-x="1314" 
d="M-25 0l660 1454h278l306 -1454h-291l-54 295h-485l-125 -295h-289zM485 535h349l-105 575h-4z" />
    <glyph glyph-name="B" unicode="B" horiz-adv-x="1234" 
d="M106 0l179 1454h487q387 0 387 -305q0 -110 -60.5 -214.5t-166.5 -156.5v-4q97 -34 153 -109.5t56 -189.5q0 -229 -140 -352t-413 -123h-482zM487 858h170q97 0 158.5 59.5t61.5 165.5q0 66 -42.5 94.5t-132.5 28.5h-172zM412 246h186q125 0 191.5 64t66.5 182
q0 137 -192 137h-205z" />
    <glyph glyph-name="C" unicode="C" horiz-adv-x="1370" 
d="M713 -18q-127 0 -234 39t-187 113.5t-124.5 192.5t-44.5 267q0 143 35 275t101.5 241.5t158.5 191t212 126.5t255 45q146 0 276.5 -72.5t227.5 -233.5l-228 -166q-109 205 -291 205q-101 0 -188 -52t-145 -137t-90.5 -194.5t-32.5 -224.5q0 -165 82 -257.5t231 -92.5
q88 0 175 45t149 121l202 -183q-102 -117 -241.5 -183t-298.5 -66z" />
    <glyph glyph-name="D" unicode="D" horiz-adv-x="1396" 
d="M106 0l179 1454h444q292 0 445 -160t153 -442q0 -254 -93 -446.5t-269.5 -299t-413.5 -106.5h-445zM412 250h168q141 0 245.5 79t157.5 214t53 307q0 166 -85.5 260t-248.5 94h-174z" />
    <glyph glyph-name="E" unicode="E" horiz-adv-x="1153" 
d="M104 0l179 1454h850l-33 -250h-574l-43 -360h459l-31 -246h-458l-43 -348h612l-31 -250h-887z" />
    <glyph glyph-name="F" unicode="F" horiz-adv-x="1128" 
d="M106 0l179 1454h878l-30 -250h-603l-51 -397h502l-29 -248h-503l-66 -559h-277z" />
    <glyph glyph-name="G" unicode="G" horiz-adv-x="1423" 
d="M717 -18q-128 0 -235.5 38.5t-188 112.5t-125.5 191.5t-45 267.5q0 179 56 340.5t154 280.5t239.5 189.5t304.5 70.5q159 0 288 -64.5t209 -191.5l-223 -168q-101 159 -289 159q-128 0 -231 -83.5t-159 -221.5t-56 -301q0 -173 82 -267.5t233 -94.5q137 0 264 86l31 221
h-276l30 241h549l-74 -626q-99 -82 -243.5 -131t-294.5 -49z" />
    <glyph glyph-name="H" unicode="H" horiz-adv-x="1404" 
d="M106 0l179 1454h278l-78 -633h514l78 633h279l-178 -1454h-281l72 571h-514l-70 -571h-279z" />
    <glyph glyph-name="I" unicode="I" horiz-adv-x="634" 
d="M115 0l178 1454h282l-178 -1454h-282z" />
    <glyph glyph-name="J" unicode="J" horiz-adv-x="974" 
d="M356 -18q-104 0 -197 50.5t-149 143.5l189 191q64 -119 155 -119q161 0 199 295l113 911h280l-115 -926q-33 -275 -146 -410.5t-329 -135.5z" />
    <glyph glyph-name="K" unicode="K" horiz-adv-x="1271" 
d="M1356 1454l-539 -649l371 -805h-318l-264 604l-174 -205l-49 -399h-277l179 1454h276l-80 -653l6 -2l527 655h342z" />
    <glyph glyph-name="L" unicode="L" horiz-adv-x="1095" 
d="M106 0l179 1454h278l-147 -1204h573l-31 -250h-852z" />
    <glyph glyph-name="M" unicode="M" horiz-adv-x="1673" 
d="M106 0l179 1454h276l295 -836h6l486 836h276l-178 -1454h-277l107 885l-6 2l-365 -611h-180l-227 639l-4 -2l-111 -913h-277z" />
    <glyph glyph-name="N" unicode="N" horiz-adv-x="1447" 
d="M106 0l179 1454h270l442 -985l7 4l120 981h275l-180 -1454h-277l-436 967h-6l-119 -967h-275z" />
    <glyph glyph-name="O" unicode="O" horiz-adv-x="1544" 
d="M709 -18q-268 0 -427 163t-159 453q0 137 34.5 267t101.5 239.5t159 192.5t213.5 129.5t257.5 46.5q266 0 427 -163.5t161 -449.5q0 -142 -33 -273t-98.5 -240.5t-157 -191.5t-214.5 -127.5t-265 -45.5zM731 244q130 0 235.5 84.5t162.5 222.5t57 297q0 181 -86.5 272.5
t-239.5 91.5q-127 0 -231 -87t-160.5 -225t-56.5 -292q0 -179 86 -271.5t233 -92.5z" />
    <glyph glyph-name="P" unicode="P" horiz-adv-x="1198" 
d="M106 0l179 1454h495q404 0 404 -395q0 -259 -150 -408t-428 -149h-164l-59 -502h-277zM473 750h160q122 0 192 76.5t70 215.5q0 78 -50 121t-130 43h-185z" />
    <glyph glyph-name="Q" unicode="Q" horiz-adv-x="1572" 
d="M1477 860q0 -336 -170 -575l127 -140l-170 -188l-136 149q-183 -124 -419 -124q-268 0 -427 163t-159 453q0 172 55.5 330t153 278t243 192t314.5 72q267 0 427.5 -162t160.5 -448zM731 244q118 0 213 67l-110 123l167 180l105 -112q80 157 80 346q0 181 -86.5 271.5
t-239.5 90.5q-127 0 -231 -86.5t-160.5 -224t-56.5 -291.5q0 -179 86 -271.5t233 -92.5z" />
    <glyph glyph-name="R" unicode="R" horiz-adv-x="1263" 
d="M106 0l179 1454h508q403 0 403 -395q0 -185 -81 -317.5t-236 -194.5l254 -547h-308l-217 502h-166l-59 -502h-277zM473 750h170q121 0 191.5 78t70.5 214q0 78 -50 121t-130 43h-195z" />
    <glyph glyph-name="S" unicode="S" horiz-adv-x="1138" 
d="M535 -18q-155 0 -288 66.5t-208 187.5l201 180q46 -86 123.5 -133t160.5 -47q101 0 164.5 51t63.5 125q0 19 -5 35t-17 30.5t-23 25.5t-34.5 26t-40.5 25t-51.5 29.5t-56.5 32.5q-142 82 -187 115q-144 105 -168 241q-5 31 -5 64q0 196 139.5 316.5t345.5 120.5
q128 0 244 -57.5t190 -160.5l-200 -172q-97 140 -248 140q-81 0 -131.5 -44.5t-48.5 -109.5q1 -53 41.5 -91.5t148.5 -103.5q29 -17 74.5 -42.5t73 -41t65.5 -40t61.5 -44.5t49.5 -48.5t40 -57.5t23.5 -67.5t9.5 -81.5q0 -112 -39 -202t-108 -148t-160.5 -88.5t-199.5 -30.5
z" />
    <glyph glyph-name="T" unicode="T" horiz-adv-x="1112" 
d="M354 0l148 1204h-355l29 250h993l-30 -250h-359l-147 -1204h-279z" />
    <glyph glyph-name="U" unicode="U" horiz-adv-x="1370" 
d="M627 -18q-137 0 -236 46.5t-154.5 133t-74 204.5t-0.5 267l102 821h279l-103 -829q-12 -78 -5.5 -147t27.5 -120.5t68 -81.5t115 -30q129 0 208 83.5t103 274.5l105 850h278l-104 -852q-39 -324 -188.5 -472t-419.5 -148z" />
    <glyph glyph-name="V" unicode="V" horiz-adv-x="1304" 
d="M469 0l-305 1454h297l180 -1057h4l432 1057h307l-659 -1454h-256z" />
    <glyph glyph-name="W" unicode="W" horiz-adv-x="1929" 
d="M403 0l-231 1454h289l131 -995h6l336 995h297l98 -969h6l359 969h301l-590 -1454h-266l-115 1010h-4l-354 -1010h-263z" />
    <glyph glyph-name="X" unicode="X" horiz-adv-x="1277" 
d="M-39 0l516 737l-317 717h305l221 -514h8l334 514h330l-504 -725l336 -729h-316l-231 520h-8l-356 -520h-318z" />
    <glyph glyph-name="Y" unicode="Y" horiz-adv-x="1189" 
d="M391 0l80 639l-334 815h307l193 -551h6l328 551h321l-540 -815l-80 -639h-281z" />
    <glyph glyph-name="Z" unicode="Z" horiz-adv-x="1189" 
d="M47 0l25 219l735 979l-2 6h-588l29 250h948l-25 -213l-749 -983l4 -8h623l-31 -250h-969z" />
    <glyph glyph-name="bracketleft" unicode="[" horiz-adv-x="679" 
d="M29 -303l221 1804h457l-25 -194h-231l-175 -1413h232l-23 -197h-456z" />
    <glyph glyph-name="backslash" unicode="\" horiz-adv-x="813" 
d="M590 -229l-486 1749l203 90l488 -1749z" />
    <glyph glyph-name="bracketright" unicode="]" horiz-adv-x="686" 
d="M-2 -303l25 197h237l172 1413h-235l24 194h461l-221 -1804h-463z" />
    <glyph glyph-name="asciicircum" unicode="^" horiz-adv-x="894" 
d="M168 1024l299 430h186l199 -430h-211l-94 264l-170 -264h-209z" />
    <glyph glyph-name="underscore" unicode="_" horiz-adv-x="976" 
d="M-98 -231l20 176h996l-21 -176h-995z" />
    <glyph glyph-name="grave" unicode="`" horiz-adv-x="921" 
d="M485 1098l-190 301l274 -2l168 -299h-252z" />
    <glyph glyph-name="a" unicode="a" horiz-adv-x="1142" 
d="M406 -18q-163 0 -249.5 114.5t-86.5 292.5q0 167 61 310t172.5 230t249.5 87q164 0 250 -92l6 2l10 73h260l-123 -999h-260l21 168l-6 2q-64 -91 -143 -139.5t-162 -48.5zM473 213q64 0 127 52.5t113.5 158t68.5 242.5l4 32q-84 84 -200 84q-76 0 -136 -59.5t-89 -146
t-29 -179.5q0 -86 37 -135t104 -49z" />
    <glyph glyph-name="b" unicode="b" horiz-adv-x="1161" 
d="M510 -18q-242 0 -426 110l174 1415h260l-80 -663l4 -2q130 174 314 174q160 0 245.5 -118.5t85.5 -301.5q0 -124 -36 -233t-105 -195t-181.5 -136t-254.5 -50zM494 215q104 0 180.5 54.5t113.5 141t37 191.5q0 75 -38 127.5t-103 52.5q-109 0 -198.5 -123t-116.5 -333
l-13 -93q68 -18 138 -18z" />
    <glyph glyph-name="c" unicode="c" horiz-adv-x="997" 
d="M492 -16q-196 0 -307 110t-111 320q0 119 35.5 227t101 192t167 133.5t224.5 49.5q125 0 220.5 -44.5t152.5 -129.5l-201 -152q-57 92 -172 92q-116 0 -191 -103t-75 -251q0 -103 47.5 -156t122.5 -53q111 0 203 103l202 -138q-167 -200 -419 -200z" />
    <glyph glyph-name="d" unicode="d" horiz-adv-x="1150" 
d="M408 -18q-164 0 -250 114t-86 293q0 166 60.5 309t172.5 230.5t250 87.5q161 0 256 -92l6 2l72 581h260l-186 -1507h-261l23 170l-6 2q-131 -190 -311 -190zM473 213q103 0 195 123t120 326l7 38q-76 82 -209 82q-75 0 -134.5 -60t-88.5 -146.5t-29 -178.5q0 -86 36 -135
t103 -49z" />
    <glyph glyph-name="e" unicode="e" horiz-adv-x="978" 
d="M500 209q60 0 109 24.5t98 79.5l198 -129q-88 -102 -185.5 -151t-236.5 -49q-189 0 -300 111.5t-111 305.5q0 125 37 236.5t104 195.5t169 133.5t224 49.5q86 0 160 -29.5t123 -93t49 -150.5q-1 -91 -52 -161.5t-141 -114.5t-191.5 -70t-225.5 -39q13 -73 61 -111
t111 -38zM590 791q-80 0 -151.5 -65t-100.5 -185q341 38 344 178q0 34 -24 53t-68 19z" />
    <glyph glyph-name="f" unicode="f" horiz-adv-x="649" 
d="M84 0l94 784h-90l27 217h92l22 189q20 166 101 251t215 85q131 0 233 -72l-67 -203q-64 43 -119 43q-45 0 -71.5 -32t-37.5 -123l-16 -138h182l-26 -217h-185l-96 -784h-258z" />
    <glyph glyph-name="g" unicode="g" horiz-adv-x="1144" 
d="M399 -422q-194 0 -348 96l84 215q130 -82 266 -82q55 0 95.5 8.5t80 32.5t66 65.5t46.5 109.5t30 163l33 9l-35 12q-64 -93 -144.5 -143t-164.5 -50q-83 0 -148.5 31.5t-106 87t-61 127t-20.5 154.5q0 115 36 224t98 193t153.5 134.5t195.5 50.5q162 0 252 -90l4 2l8 73
h260l-106 -874q-16 -130 -55 -228t-91.5 -158.5t-123.5 -97.5t-143.5 -51t-160.5 -14zM473 246q97 0 187.5 112.5t117.5 288.5l8 51q-39 39 -92 61.5t-106 22.5q-76 0 -136 -58t-89 -139t-29 -161q0 -84 36.5 -131t102.5 -47z" />
    <glyph glyph-name="h" unicode="h" horiz-adv-x="1130" 
d="M72 0l186 1507h258l-82 -665l4 -2q142 176 348 176q153 0 211.5 -101t30.5 -309l-82 -606h-260l78 565q14 113 -3 165t-79 52q-91 0 -188 -119t-119 -298l-43 -365h-260z" />
    <glyph glyph-name="i" unicode="i" horiz-adv-x="536" 
d="M371 1141q-70 0 -116 45.5t-46 113.5q0 71 47.5 117.5t120.5 46.5q71 0 117.5 -45t46.5 -112q0 -71 -48.5 -118.5t-121.5 -47.5zM76 0l125 1001h260l-123 -1001h-262z" />
    <glyph glyph-name="j" unicode="j" horiz-adv-x="501" 
d="M342 1141q-70 0 -116 45.5t-46 113.5q0 71 47.5 117.5t120.5 46.5q71 0 117.5 -45t46.5 -112q0 -71 -48.5 -118.5t-121.5 -47.5zM-16 -422q-109 0 -195 47l66 203q39 -29 84 -29q47 0 71 42t35 139l127 1021h260l-129 -1058q-47 -365 -319 -365z" />
    <glyph glyph-name="k" unicode="k" horiz-adv-x="1056" 
d="M891 -14q-36 -4 -66 -4q-46 1 -83.5 16t-63.5 37.5t-51 64.5t-41.5 80t-40.5 101l-21 55q-88 -58 -168 -92l-28 -244h-256l186 1507h258l-121 -993l4 -2q268 174 357 489h266q-56 -282 -293 -512l43 -112q38 -103 77 -138.5t109 -45.5z" />
    <glyph glyph-name="l" unicode="l" horiz-adv-x="536" 
d="M82 0l184 1507h260l-186 -1507h-258z" />
    <glyph glyph-name="m" unicode="m" horiz-adv-x="1687" 
d="M74 0l123 1001h260l-19 -149l6 -2q141 166 322 166q183 0 225 -168h10q137 168 342 168q153 0 210.5 -101t29.5 -313l-82 -602h-260l78 565q14 111 -1.5 164t-68.5 53q-33 0 -76 -28t-85 -77.5t-76.5 -128.5t-46.5 -169l-50 -379h-258l74 565q16 107 1 162t-68 55
q-34 0 -77.5 -29.5t-86 -79.5t-76.5 -128t-45 -164l-45 -381h-260z" />
    <glyph glyph-name="n" unicode="n" horiz-adv-x="1130" 
d="M72 0l125 1001h258l-19 -159l4 -2q145 176 346 176q153 0 211.5 -101t30.5 -309l-82 -606h-258l76 565q14 113 -3 165t-79 52q-41 0 -89 -29.5t-92 -81.5t-78 -131t-46 -169l-45 -371h-260z" />
    <glyph glyph-name="o" unicode="o" horiz-adv-x="1112" 
d="M494 -18q-193 0 -306.5 113t-113.5 313q0 121 37 231t104 194t170 133.5t227 49.5q195 0 310.5 -110t115.5 -308q0 -128 -34.5 -238.5t-101 -195.5t-171.5 -133.5t-237 -48.5zM508 217q117 0 192.5 105.5t75.5 255.5q0 60 -17.5 102.5t-46.5 63t-58 29.5t-60 9
q-77 0 -137.5 -52t-91.5 -131.5t-31 -168.5q0 -97 48.5 -155t125.5 -58z" />
    <glyph glyph-name="p" unicode="p" horiz-adv-x="1157" 
d="M23 -406l174 1407h258l-21 -172l4 -4q127 191 328 191q104 0 178 -56.5t108.5 -147.5t34.5 -204q0 -166 -61 -308.5t-174.5 -230t-253.5 -87.5q-157 0 -252 79l-6 -2l-57 -465h-260zM530 215q90 0 159 54t102.5 137.5t33.5 179.5q0 86 -35 142t-98 56q-106 0 -201 -123.5
t-122 -322.5l-4 -39q26 -41 69.5 -62.5t95.5 -21.5z" />
    <glyph glyph-name="q" unicode="q" horiz-adv-x="1142" 
d="M647 -406l72 576l-6 2q-64 -92 -144.5 -141t-162.5 -49q-163 0 -249.5 114.5t-86.5 292.5q0 167 61 310t172.5 230t249.5 87q162 0 252 -90l4 2l10 73h260l-172 -1407h-260zM473 213q98 0 190 124.5t117 317.5l6 43q-83 86 -200 86q-76 0 -136 -60t-89 -147t-29 -180
q0 -86 37 -135t104 -49z" />
    <glyph glyph-name="r" unicode="r" horiz-adv-x="727" 
d="M74 0l123 1001h260l-21 -163h4q129 178 312 178l-37 -291q-131 32 -220 -63.5t-116 -282.5l-45 -379h-260z" />
    <glyph glyph-name="s" unicode="s" horiz-adv-x="868" 
d="M389 -18q-110 0 -214.5 47t-162.5 125l158 161q44 -57 103.5 -88.5t119.5 -31.5q56 0 92.5 21t36.5 58q0 30 -30.5 51.5t-118.5 63.5q-14 6 -21 10q-120 56 -183 126t-63 173q0 142 103 230t254 88q102 0 194.5 -37.5t157.5 -112.5l-164 -161q-73 98 -188 102
q-44 0 -72.5 -22.5t-28.5 -59.5q0 -31 38.5 -61t115.5 -68q42 -21 66 -34t59.5 -35.5t56 -43t41.5 -48t31 -60t10 -70.5q1 -152 -105 -237.5t-286 -85.5z" />
    <glyph glyph-name="t" unicode="t" horiz-adv-x="696" 
d="M346 -18q-124 0 -184 78.5t-43 226.5l61 497h-104l26 217h103l41 304l264 51l-43 -355h227l-26 -217h-228l-55 -456q-14 -103 57 -103q52 0 125 43l39 -215q-121 -71 -260 -71z" />
    <glyph glyph-name="u" unicode="u" horiz-adv-x="1110" 
d="M365 -18q-155 0 -223 95t-40 306l88 618h259l-78 -567q-18 -120 2.5 -168.5t83.5 -48.5q79 0 168.5 103.5t107.5 238.5l53 442h261l-123 -1001h-258l18 164h-4q-130 -182 -315 -182z" />
    <glyph glyph-name="v" unicode="v" horiz-adv-x="1034" 
d="M403 -18q-181 0 -254.5 114.5t-46.5 327.5l72 577h258l-65 -540q-18 -121 -2 -182.5t75 -61.5q35 0 72.5 21.5t76.5 66t72 125t50 184.5q29 186 0 387h262q40 -218 -2 -448q-27 -151 -84 -264t-134 -178.5t-164.5 -97t-185.5 -31.5z" />
    <glyph glyph-name="w" unicode="w" horiz-adv-x="1583" 
d="M354 -18q-152 0 -218 108.5t-38 312.5l82 598h258l-73 -557q-15 -120 6 -173.5t78 -53.5q28 0 60.5 17t68.5 54t65 111t41 172l53 430h256l-69 -575q-15 -114 3.5 -161.5t71.5 -47.5q26 0 54 13t59 43t58 74.5t50.5 113.5t36.5 153q31 172 3 387h264q38 -221 -4 -448
q-26 -151 -82.5 -264t-132 -178.5t-161 -97t-179.5 -31.5q-116 0 -188.5 54.5t-90.5 137.5h-4q-50 -87 -146.5 -139.5t-181.5 -52.5z" />
    <glyph glyph-name="x" unicode="x" horiz-adv-x="980" 
d="M-27 0l371 514l-240 487h291l119 -288h4l187 288h305l-369 -499l248 -502h-289l-129 295h-4l-205 -295h-289z" />
    <glyph glyph-name="y" unicode="y" horiz-adv-x="1105" 
d="M788 1001h256l-106 -872q-15 -130 -54 -229t-91 -159t-121.5 -97.5t-138 -51.5t-148.5 -14q-198 0 -352 96l82 211q131 -84 262 -84q63 0 108.5 13.5t87 49t69 104.5t40.5 173l2 21l-4 2q-130 -182 -322 -182q-155 0 -222.5 95t-37.5 306l84 618h258l-75 -567
q-15 -122 4.5 -168.5t83.5 -48.5q84 0 174.5 108t107.5 248z" />
    <glyph glyph-name="z" unicode="z" horiz-adv-x="937" 
d="M762 -57q-100 27 -240 40t-236 15t-272 2l21 178l493 606v2h-383l25 215h735l-18 -178l-502 -606v-4q268 -7 442 -63z" />
    <glyph glyph-name="braceleft" unicode="{" horiz-adv-x="698" 
d="M375 -301q-95 0 -152.5 74t-42.5 188l49 383q6 31 5 59t-10.5 48.5t-40.5 33.5t-85 15l15 194q54 1 90 16t53.5 42.5t24 50t10.5 55.5l49 391q12 108 80 180t166 72h151l-20 -174h-43q-56 0 -85.5 -43.5t-35.5 -93.5l-49 -379q-10 -90 -38.5 -140t-82.5 -75v-4
q24 -12 37.5 -24.5t25.5 -37.5t10.5 -61.5t-7.5 -97.5l-43 -359q-7 -76 8 -107.5t73 -31.5h52l-23 -174h-141z" />
    <glyph glyph-name="bar" unicode="|" horiz-adv-x="661" 
d="M133 -236l213 1745h217l-213 -1745h-217z" />
    <glyph glyph-name="braceright" unicode="}" horiz-adv-x="700" 
d="M-14 -301l22 174h43q60 0 87.5 38t37.5 112l43 360q9 78 24.5 120.5t37 60.5t63.5 34v4q-93 49 -70 219l45 377q14 129 -81 129h-50l21 174h139q100 0 154.5 -77t42.5 -187l-49 -389q-4 -28 -5 -43.5t3.5 -39t17.5 -36.5t42 -23.5t73 -11.5l-17 -194q-55 -2 -90 -15.5
t-52.5 -39.5t-24 -49t-11.5 -62l-45 -381q-15 -117 -85.5 -185.5t-164.5 -68.5h-151z" />
    <glyph glyph-name="asciitilde" unicode="~" horiz-adv-x="1089" 
d="M715 403q-20 0 -39.5 2.5t-31.5 5t-31 9.5t-23.5 9t-24.5 12l-20 10q-86 47 -123 47q-79 0 -141 -101l-177 84q50 115 125 184.5t166 69.5q24 0 46 -3.5t42.5 -11t31 -12t30.5 -15.5t24 -13q71 -39 117 -39q80 0 141 98l177 -69q-47 -120 -124 -193.5t-165 -73.5z" />
    <glyph glyph-name="uni00A0" unicode="&#xa0;" horiz-adv-x="393" 
 />
    <glyph glyph-name="exclamdown" unicode="&#xa1;" horiz-adv-x="565" 
d="M307 1018q71 0 115.5 -45t44.5 -113q0 -72 -46.5 -119t-119.5 -47q-70 0 -115 45.5t-45 114.5q0 71 46.5 117.5t119.5 46.5zM367 526l-80 -1034h-281l172 1034h189z" />
    <glyph glyph-name="cent" unicode="&#xa2;" horiz-adv-x="1019" 
d="M516 328q118 0 211 102l203 -135q-71 -82 -149 -130.5t-177 -62.5l-24 -200h-174l24 196q-159 22 -248.5 131.5t-89.5 288.5q0 227 125 398t332 204l22 197h174l-22 -197q184 -29 270 -162l-200 -149q-59 86 -164 86q-119 -1 -197 -107t-78 -258q0 -99 49.5 -150.5
t112.5 -51.5z" />
    <glyph glyph-name="sterling" unicode="&#xa3;" horiz-adv-x="1056" 
d="M31 0l30 248h115l49 403h-96l23 189h96l14 110q16 128 58 223t102 148t126.5 77.5t141.5 24.5q112 0 207.5 -55t151.5 -151l-158 -173q-33 59 -79.5 92t-90.5 33q-155 0 -186 -249l-11 -80h273l-23 -189h-270l-49 -403h514l-31 -248h-907z" />
    <glyph glyph-name="currency" unicode="&#xa4;" horiz-adv-x="962" 
d="M862 842q0 -135 -78 -250l125 -162l-131 -119l-127 160q-83 -47 -184 -47q-99 0 -172 45l-156 -156l-110 119l161 160q-26 56 -26 135q0 154 80 270l-127 158l135 119l123 -154q83 47 182 47q101 0 174 -51l158 160l110 -119l-165 -166q28 -67 28 -149zM489 602
q84 0 139.5 64t55.5 153q0 77 -41.5 124.5t-105.5 47.5q-83 0 -139 -68t-56 -163q0 -71 40 -114.5t107 -43.5z" />
    <glyph glyph-name="yen" unicode="&#xa5;" horiz-adv-x="1128" 
d="M1227 1407l-416 -664h188l-18 -155h-266l-15 -121h267l-21 -156h-266l-39 -311h-283l39 311h-274l18 156h277l14 121h-274l18 155h199l-248 664h315l162 -545h6l289 545h328z" />
    <glyph glyph-name="brokenbar" unicode="&#xa6;" horiz-adv-x="661" 
d="M258 788l88 721h217l-88 -721h-217zM133 -233l88 720h217l-88 -720h-217z" />
    <glyph glyph-name="section" unicode="&#xa7;" horiz-adv-x="1052" 
d="M657 893q8 -4 25 -12l64.5 -31.5t56 -30.5t52 -34.5t40 -37.5t33 -46.5t18.5 -55t8 -67.5q0 -101 -47 -177t-129 -120q80 -74 80 -197q0 -177 -119.5 -287t-306.5 -110q-121 0 -224.5 50.5t-176.5 147.5l164 174q50 -69 116.5 -103t126.5 -34q64 0 104 38t40 93
q0 48 -39.5 79.5t-155.5 86.5q-63 31 -103 55t-82 62.5t-62.5 89t-20.5 115.5q0 97 46 170.5t128 115.5q-84 81 -84 207q0 167 115.5 271t291.5 104q114 0 218 -46.5t165 -117.5l-159 -176q-103 98 -215 98q-67 0 -102.5 -31t-35.5 -85q0 -42 35 -74.5t135 -83.5zM532 420
q9 -4 28 -13.5t28 -13.5q52 16 79 56t27 88t-32 76t-138 77l-47 23q-48 -13 -73 -52.5t-25 -87.5q0 -46 32.5 -77.5t120.5 -75.5z" />
    <glyph glyph-name="dieresis" unicode="&#xa8;" horiz-adv-x="980" 
d="M375 1100q-70 0 -116 46t-46 114q0 71 47.5 117t120.5 46q70 0 116 -44.5t46 -112.5q0 -71 -47.5 -118.5t-120.5 -47.5zM788 1100q-71 0 -117 46t-46 114q0 70 48 116.5t122 46.5q70 0 115.5 -44.5t45.5 -112.5q0 -71 -47.5 -118.5t-120.5 -47.5z" />
    <glyph glyph-name="copyright" unicode="&#xa9;" horiz-adv-x="1478" 
d="M735 -2q-133 0 -253.5 52.5t-207 140.5t-137.5 209t-51 253q0 131 51 251.5t137.5 209.5t207.5 142t255 53q180 0 329.5 -89.5t234.5 -240t85 -326.5t-85.5 -326.5t-235.5 -239.5t-330 -89zM735 170q132 0 242 65.5t172.5 176t62.5 241.5q0 201 -137 341.5t-338 140.5
q-202 0 -339.5 -142.5t-137.5 -343.5q0 -199 137 -339t338 -140zM750 313q-144 0 -241 88t-97 246q0 144 90.5 240t247.5 96q159 0 266 -127l-113 -96q-27 32 -68 54t-85 22q-76 0 -126.5 -51t-50.5 -138q0 -80 49 -132t128 -52q95 0 153 74l113 -99q-102 -125 -266 -125z
" />
    <glyph glyph-name="ordfeminine" unicode="&#xaa;" horiz-adv-x="745" 
d="M324 795q-86 0 -145.5 64t-59.5 185q0 156 92.5 264.5t218.5 108.5q85 0 133 -51h4l6 41h179l-74 -602h-180l12 88h-6q-81 -98 -180 -98zM373 961q56 0 109 62.5t67 166.5l2 18q-29 41 -98 41q-63 0 -105.5 -61t-42.5 -137q0 -43 18 -66.5t50 -23.5z" />
    <glyph glyph-name="guillemotleft" unicode="&#xab;" horiz-adv-x="1001" 
d="M250 80l-166 426l274 432h244l-272 -432l166 -426h-246zM653 80l-168 426l277 432h242l-273 -432l164 -426h-242z" />
    <glyph glyph-name="logicalnot" unicode="&#xac;" horiz-adv-x="1042" 
d="M690 303l41 330h-614l26 225h842l-67 -555h-228z" />
    <glyph glyph-name="registered" unicode="&#xae;" horiz-adv-x="1478" 
d="M737 1309q180 0 329.5 -89.5t234.5 -240t85 -326.5t-85.5 -326.5t-235.5 -239.5t-330 -89q-133 0 -253.5 52.5t-207 140.5t-137.5 209t-51 253q0 131 51 251.5t137.5 209.5t207.5 142t255 53zM735 170q132 0 242 65.5t172.5 176t62.5 241.5q0 201 -137 341.5t-338 140.5
q-202 0 -339.5 -142.5t-137.5 -343.5q0 -199 137 -339t338 -140zM993 762q0 -149 -123 -201l156 -235h-176l-137 215h-62v-215h-147v663h256q116 0 174.5 -62.5t58.5 -164.5zM653 852v-176h72q53 0 82 23.5t29 64.5q0 38 -28 63t-79 25h-76z" />
    <glyph glyph-name="macron" unicode="&#xaf;" horiz-adv-x="817" 
d="M205 1153l24 209h572l-27 -209h-569z" />
    <glyph glyph-name="degree" unicode="&#xb0;" horiz-adv-x="759" 
d="M428 903q-113 0 -176.5 64t-63.5 170q0 139 88 236t222 97q107 0 174 -67t67 -180q0 -131 -87 -225.5t-224 -94.5zM446 1065q55 0 92 41t37 100q0 46 -26 75.5t-70 29.5q-55 0 -91 -43t-36 -109q0 -43 24.5 -68.5t69.5 -25.5z" />
    <glyph glyph-name="plusminus" unicode="&#xb1;" horiz-adv-x="1124" 
d="M434 360l43 369h-321l28 229h324l43 371h233l-47 -371h324l-29 -229h-323l-45 -369h-230zM66 -4l28 229h877l-27 -229h-878z" />
    <glyph glyph-name="uni00B2" unicode="&#xb2;" horiz-adv-x="641" 
d="M98 893l13 137l262 266q43 47 62.5 69.5t40 60.5t20.5 71q0 29 -15.5 45.5t-42.5 16.5q-63 0 -121 -82l-145 118q47 69 124 112.5t169 43.5q108 0 175 -61t67 -162q0 -93 -39 -164t-123 -156l-127 -125l2 -4h242l-23 -186h-541z" />
    <glyph glyph-name="uni00B3" unicode="&#xb3;" horiz-adv-x="653" 
d="M381 879q-111 0 -186 58t-95 146l191 64q11 -88 78 -88q46 0 74 36t28 85q0 67 -80 67h-53l18 152h58q39 0 66.5 34t27.5 76q0 27 -15.5 42.5t-39.5 15.5q-31 0 -58 -19.5t-41 -56.5l-161 100q33 70 107.5 115t162.5 45q107 0 174.5 -55t67.5 -154q0 -67 -31.5 -123
t-87.5 -90v-4q98 -53 98 -170q0 -126 -86 -201t-217 -75z" />
    <glyph glyph-name="acute" unicode="&#xb4;" horiz-adv-x="915" 
d="M326 1098l243 299l275 2l-264 -301h-254z" />
    <glyph glyph-name="uni00B5" unicode="&#xb5;" horiz-adv-x="1153" 
d="M1053 213l37 -178q-73 -53 -189 -53q-87 0 -138 44t-63 124h-2q-101 -168 -247 -168q-96 0 -142 65l-4 -2q14 -137 0 -244l-26 -207h-256l172 1407h258l-72 -575q-13 -109 16 -159t86 -50q80 0 146.5 72.5t85.5 214.5l59 497h260l-84 -686q-9 -62 1 -84t48 -22q18 0 54 4
z" />
    <glyph glyph-name="paragraph" unicode="&#xb6;" horiz-adv-x="1077" 
d="M645 -311l186 1515h-116l-148 -1204h-161l79 621q-155 2 -251.5 83.5t-96.5 225.5q0 119 54 218t163.5 161.5t255.5 62.5h398l-207 -1683h-156z" />
    <glyph glyph-name="periodcentered" unicode="&#xb7;" horiz-adv-x="569" 
d="M301 338q-71 0 -115.5 45t-44.5 113q0 72 46.5 119t119.5 47q70 0 115 -45.5t45 -114.5q0 -71 -46.5 -117.5t-119.5 -46.5z" />
    <glyph glyph-name="cedilla" unicode="&#xb8;" horiz-adv-x="602" 
d="M127 -393q-42 0 -104 12l6 119q30 -12 75 -12q52 0 83.5 18.5t31.5 54.5q0 27 -32.5 39t-104.5 12l4 76l51 86h144l-52 -73l2 -2q154 -6 154 -138q0 -93 -69.5 -142.5t-188.5 -49.5z" />
    <glyph glyph-name="uni00B9" unicode="&#xb9;" horiz-adv-x="557" 
d="M434 1737h160l-105 -844h-204l73 577l-116 -79l-84 157z" />
    <glyph glyph-name="ordmasculine" unicode="&#xba;" horiz-adv-x="679" 
d="M377 797q-116 0 -185 67t-69 189q0 97 36.5 178t113.5 133.5t182 52.5q113 0 182.5 -64t69.5 -188q0 -97 -34.5 -178.5t-111.5 -135.5t-184 -54zM389 963q53 0 92 55t39 131q0 56 -25 79t-55 23q-55 0 -93 -55t-38 -125q0 -50 22.5 -79t57.5 -29z" />
    <glyph glyph-name="guillemotright" unicode="&#xbb;" horiz-adv-x="999" 
d="M-2 80l272 426l-168 432h244l170 -432l-270 -426h-248zM406 80l270 426l-166 432h244l170 -432l-273 -426h-245z" />
    <glyph glyph-name="onequarter" unicode="&#xbc;" horiz-adv-x="1531" 
d="M1065 1491l197 -92l-760 -1446l-195 90zM467 612h-205l74 578l-117 -80l-84 158l277 188h159zM1378 305h99l-21 -176h-100l-15 -129h-206l16 129h-297l12 125l416 590h162zM1073 289h129l33 248z" />
    <glyph glyph-name="onehalf" unicode="&#xbd;" horiz-adv-x="1605" 
d="M1065 1491l197 -92l-760 -1446l-195 90zM467 612h-205l74 578l-117 -80l-84 158l277 188h159zM1282 190l2 -4h242l-23 -186h-540l12 137l262 266q43 47 62.5 69.5t40 60.5t20.5 71q0 29 -15.5 45.5t-41.5 16.5q-63 0 -121 -82l-146 118q47 69 124 112.5t169 43.5
q108 0 175 -61t67 -162q0 -93 -39 -164t-123 -156z" />
    <glyph glyph-name="threequarters" unicode="&#xbe;" horiz-adv-x="1595" 
d="M1124 1491l197 -92l-760 -1446l-194 90zM662 874q0 -126 -86.5 -201t-217.5 -75q-111 0 -185.5 58t-94.5 147l190 63q11 -88 78 -88q46 0 74.5 36t28.5 85q0 68 -80 68h-54l19 151h57q39 0 66.5 34t27.5 77q0 27 -15.5 42t-39.5 15q-31 0 -57.5 -19.5t-40.5 -56.5
l-162 101q33 70 107.5 114.5t162.5 44.5q108 0 175 -54.5t67 -153.5q0 -67 -31.5 -123t-87.5 -90v-5q99 -54 99 -170zM1444 305h98l-20 -176h-101l-14 -129h-207l17 129h-297l12 125l416 590h161zM1139 289h129l32 248z" />
    <glyph glyph-name="questiondown" unicode="&#xbf;" horiz-adv-x="856" 
d="M547 1018q71 0 115.5 -45t44.5 -113q0 -72 -46.5 -119t-119.5 -47q-70 0 -115 45.5t-45 114.5q0 71 46.5 117.5t119.5 46.5zM639 528l-10 -94q-5 -51 -33.5 -103t-52 -80t-88.5 -97q-12 -14 -19 -21q-72 -76 -108.5 -135.5t-36.5 -134.5q0 -66 33 -102.5t92 -36.5
q100 0 184 108l166 -166q-69 -89 -181 -140.5t-237 -51.5q-148 0 -248 85.5t-100 243.5q0 214 219 416q52 49 79.5 76.5t53.5 66.5t33 74l21 92h233z" />
    <glyph glyph-name="Agrave" unicode="&#xc0;" horiz-adv-x="1314" 
d="M676 1575l-197 276l275 -2l170 -274h-248zM-25 0l660 1454h278l306 -1454h-291l-54 295h-485l-125 -295h-289zM485 535h349l-105 575h-4z" />
    <glyph glyph-name="Aacute" unicode="&#xc1;" horiz-adv-x="1314" 
d="M676 1575l235 274l279 2l-266 -276h-248zM-25 0l660 1454h278l306 -1454h-291l-54 295h-485l-125 -295h-289zM485 535h349l-105 575h-4z" />
    <glyph glyph-name="Acircumflex" unicode="&#xc2;" horiz-adv-x="1314" 
d="M473 1575l236 276h256l161 -276h-231l-76 135h-6l-111 -135h-229zM-25 0l660 1454h278l306 -1454h-291l-54 295h-485l-125 -295h-289zM485 535h349l-105 575h-4z" />
    <glyph glyph-name="Atilde" unicode="&#xc3;" horiz-adv-x="1314" 
d="M967 1573q-34 0 -68 12t-49.5 22t-42.5 29q-57 43 -92 43q-33 0 -63.5 -29.5t-53.5 -78.5l-154 78q103 211 248 211q17 0 32 -1.5t29.5 -6t23 -7t22.5 -10.5t17 -10t18 -13l16 -10q22 -16 31.5 -23t27.5 -14.5t33 -7.5q34 0 66.5 29t54.5 76l151 -60
q-43 -103 -107.5 -166t-139.5 -63zM-25 0l660 1454h278l306 -1454h-291l-54 295h-485l-125 -295h-289zM485 535h349l-105 575h-4z" />
    <glyph glyph-name="Adieresis" unicode="&#xc4;" horiz-adv-x="1314" 
d="M606 1571q-70 0 -116 46t-46 114q0 71 47.5 117t120.5 46q70 0 116 -44.5t46 -112.5q0 -71 -47.5 -118.5t-120.5 -47.5zM1020 1571q-71 0 -117.5 46t-46.5 114q0 70 48 116.5t122 46.5q70 0 116 -44.5t46 -112.5q0 -71 -47.5 -118.5t-120.5 -47.5zM-25 0l660 1454h278
l306 -1454h-291l-54 295h-485l-125 -295h-289zM485 535h349l-105 575h-4z" />
    <glyph glyph-name="Aring" unicode="&#xc5;" horiz-adv-x="1314" 
d="M813 1548q-90 0 -150.5 60.5t-60.5 150.5q0 94 62.5 155.5t156.5 61.5q91 0 151 -60t60 -149q0 -95 -62.5 -157t-156.5 -62zM817 1686q33 0 55.5 22t22.5 55q0 32 -22 54t-54 22q-33 0 -55.5 -22.5t-22.5 -55.5t21.5 -54t54.5 -21zM-25 0l660 1454h278l306 -1454h-291
l-54 295h-485l-125 -295h-289zM485 535h349l-105 575h-4z" />
    <glyph glyph-name="AE" unicode="&#xc6;" horiz-adv-x="1785" 
d="M-53 0l819 1454h999l-30 -250h-580l-47 -358h473l-31 -246h-471l-43 -350h619l-31 -250h-889l37 295h-362l-162 -295h-301zM537 535h266l74 616h-5z" />
    <glyph glyph-name="Ccedilla" unicode="&#xc7;" horiz-adv-x="1370" 
d="M727 248q88 0 175 45t149 121l202 -183q-99 -113 -232.5 -179t-285.5 -70l-30 -43l2 -2q153 -6 153 -138q0 -93 -69.5 -142.5t-188.5 -49.5q-42 0 -104 12l6 119q30 -12 76 -12q51 0 82.5 18.5t31.5 54.5q0 27 -32.5 39t-104.5 12l4 76l37 64q-216 34 -345.5 188.5
t-129.5 415.5q0 143 35 275t101.5 241.5t158.5 191t212 126.5t255 45q146 0 276.5 -72.5t227.5 -233.5l-228 -166q-109 205 -291 205q-101 0 -188 -52t-145 -137t-90.5 -194.5t-32.5 -224.5q0 -165 82 -257.5t231 -92.5z" />
    <glyph glyph-name="Egrave" unicode="&#xc8;" horiz-adv-x="1153" 
d="M686 1573l-197 276l275 -2l170 -274h-248zM104 0l179 1454h850l-33 -250h-574l-43 -360h459l-31 -246h-458l-43 -348h612l-31 -250h-887z" />
    <glyph glyph-name="Eacute" unicode="&#xc9;" horiz-adv-x="1153" 
d="M524 1573l236 274l278 2l-266 -276h-248zM104 0l179 1454h850l-33 -250h-574l-43 -360h459l-31 -246h-458l-43 -348h612l-31 -250h-887z" />
    <glyph glyph-name="Ecircumflex" unicode="&#xca;" horiz-adv-x="1153" 
d="M406 1573l235 276h256l162 -276h-232l-75 135h-7l-110 -135h-229zM104 0l179 1454h850l-33 -250h-574l-43 -360h459l-31 -246h-458l-43 -348h612l-31 -250h-887z" />
    <glyph glyph-name="Edieresis" unicode="&#xcb;" horiz-adv-x="1153" 
d="M539 1569q-70 0 -116 46t-46 114q0 71 47.5 117t120.5 46q70 0 116 -44.5t46 -112.5q0 -71 -47.5 -118.5t-120.5 -47.5zM952 1569q-71 0 -117.5 46t-46.5 114q0 70 48 116.5t122 46.5q70 0 116 -44.5t46 -112.5q0 -71 -47.5 -118.5t-120.5 -47.5zM104 0l179 1454h850
l-33 -250h-574l-43 -360h459l-31 -246h-458l-43 -348h612l-31 -250h-887z" />
    <glyph glyph-name="Igrave" unicode="&#xcc;" horiz-adv-x="634" 
d="M334 1575l-197 276l275 -2l170 -274h-248zM115 0l178 1454h282l-178 -1454h-282z" />
    <glyph glyph-name="Iacute" unicode="&#xcd;" horiz-adv-x="634" 
d="M330 1575l235 274l279 2l-266 -276h-248zM115 0l178 1454h282l-178 -1454h-282z" />
    <glyph glyph-name="Icircumflex" unicode="&#xce;" horiz-adv-x="634" 
d="M121 1573l235 276h256l162 -276h-231l-76 135h-6l-111 -135h-229zM115 0l178 1454h282l-178 -1454h-282z" />
    <glyph glyph-name="Idieresis" unicode="&#xcf;" horiz-adv-x="634" 
d="M254 1569q-70 0 -116 46t-46 114q0 71 47.5 117t120.5 46q70 0 116 -44.5t46 -112.5q0 -71 -47.5 -118.5t-120.5 -47.5zM668 1569q-71 0 -117.5 46t-46.5 114q0 70 48 116.5t122 46.5q70 0 116 -44.5t46 -112.5q0 -71 -47.5 -118.5t-120.5 -47.5zM115 0l178 1454h282
l-178 -1454h-282z" />
    <glyph glyph-name="Eth" unicode="&#xd0;" horiz-adv-x="1398" 
d="M733 1454q292 0 445 -160t153 -442q0 -254 -93 -446.5t-269.5 -299t-413.5 -106.5h-444l73 602h-108l33 236h104l76 616h444zM584 250q141 0 245.5 79t157.5 214t53 307q0 166 -85 260t-248 94h-175l-45 -366h265l-33 -236h-260l-43 -352h168z" />
    <glyph glyph-name="Ntilde" unicode="&#xd1;" horiz-adv-x="1447" 
d="M1038 1573q-34 0 -68 12.5t-49 21.5t-42 29q-57 43 -93 43q-66 0 -116 -108l-154 78q103 211 248 211q17 0 32 -1.5t29.5 -6t23 -7t22.5 -10.5t17 -10t18 -13l16 -10q22 -16 31.5 -23t27.5 -14.5t33 -7.5q34 0 66.5 29t54.5 76l151 -60q-43 -103 -108 -166t-140 -63z
M106 0l179 1454h270l442 -985l7 4l120 981h275l-180 -1454h-277l-436 967h-6l-119 -967h-275z" />
    <glyph glyph-name="Ograve" unicode="&#xd2;" horiz-adv-x="1544" 
d="M819 1575l-196 276l274 -2l170 -274h-248zM709 -18q-268 0 -427 163t-159 453q0 137 34.5 267t101.5 239.5t159 192.5t213.5 129.5t257.5 46.5q266 0 427 -163.5t161 -449.5q0 -142 -33 -273t-98.5 -240.5t-157 -191.5t-214.5 -127.5t-265 -45.5zM731 244
q130 0 235.5 84.5t162.5 222.5t57 297q0 181 -86.5 272.5t-239.5 91.5q-127 0 -231 -87t-160.5 -225t-56.5 -292q0 -179 86 -271.5t233 -92.5z" />
    <glyph glyph-name="Oacute" unicode="&#xd3;" horiz-adv-x="1544" 
d="M795 1575l235 274l279 2l-267 -276h-247zM709 -18q-268 0 -427 163t-159 453q0 137 34.5 267t101.5 239.5t159 192.5t213.5 129.5t257.5 46.5q266 0 427 -163.5t161 -449.5q0 -142 -33 -273t-98.5 -240.5t-157 -191.5t-214.5 -127.5t-265 -45.5zM731 244
q130 0 235.5 84.5t162.5 222.5t57 297q0 181 -86.5 272.5t-239.5 91.5q-127 0 -231 -87t-160.5 -225t-56.5 -292q0 -179 86 -271.5t233 -92.5z" />
    <glyph glyph-name="Ocircumflex" unicode="&#xd4;" horiz-adv-x="1544" 
d="M629 1575l235 276h256l162 -276h-231l-76 135h-6l-111 -135h-229zM709 -18q-268 0 -427 163t-159 453q0 137 34.5 267t101.5 239.5t159 192.5t213.5 129.5t257.5 46.5q266 0 427 -163.5t161 -449.5q0 -142 -33 -273t-98.5 -240.5t-157 -191.5t-214.5 -127.5t-265 -45.5z
M731 244q130 0 235.5 84.5t162.5 222.5t57 297q0 181 -86.5 272.5t-239.5 91.5q-127 0 -231 -87t-160.5 -225t-56.5 -292q0 -179 86 -271.5t233 -92.5z" />
    <glyph glyph-name="Otilde" unicode="&#xd5;" horiz-adv-x="1544" 
d="M1122 1573q-34 0 -68 12.5t-49 21.5t-42 29q-57 43 -93 43q-66 0 -116 -108l-154 78q103 211 248 211q17 0 32 -1.5t29.5 -6t23 -7t22.5 -10.5t17 -10t18 -13l16 -10q22 -16 31.5 -23t27.5 -14.5t33 -7.5q34 0 66.5 29t54.5 76l151 -60q-43 -103 -108 -166t-140 -63z
M709 -18q-268 0 -427 163t-159 453q0 137 34.5 267t101.5 239.5t159 192.5t213.5 129.5t257.5 46.5q266 0 427 -163.5t161 -449.5q0 -142 -33 -273t-98.5 -240.5t-157 -191.5t-214.5 -127.5t-265 -45.5zM731 244q130 0 235.5 84.5t162.5 222.5t57 297q0 181 -86.5 272.5
t-239.5 91.5q-127 0 -231 -87t-160.5 -225t-56.5 -292q0 -179 86 -271.5t233 -92.5z" />
    <glyph glyph-name="Odieresis" unicode="&#xd6;" horiz-adv-x="1544" 
d="M762 1571q-70 0 -116 46t-46 114q0 71 47.5 117t120.5 46q70 0 116 -44.5t46 -112.5q0 -71 -47.5 -118.5t-120.5 -47.5zM1176 1571q-71 0 -117.5 46t-46.5 114q0 70 48 116.5t122 46.5q70 0 115.5 -44.5t45.5 -112.5q0 -71 -47 -118.5t-120 -47.5zM709 -18
q-268 0 -427 163t-159 453q0 137 34.5 267t101.5 239.5t159 192.5t213.5 129.5t257.5 46.5q266 0 427 -163.5t161 -449.5q0 -142 -33 -273t-98.5 -240.5t-157 -191.5t-214.5 -127.5t-265 -45.5zM731 244q130 0 235.5 84.5t162.5 222.5t57 297q0 181 -86.5 272.5t-239.5 91.5
q-127 0 -231 -87t-160.5 -225t-56.5 -292q0 -179 86 -271.5t233 -92.5z" />
    <glyph glyph-name="multiply" unicode="&#xd7;" horiz-adv-x="1011" 
d="M219 127l-147 160l280 280l-213 283l183 160l208 -281l279 281l149 -160l-282 -285l211 -280l-178 -158l-211 281z" />
    <glyph glyph-name="Oslash" unicode="&#xd8;" horiz-adv-x="1548" 
d="M1540 1395l-156 -166q97 -153 97 -369q0 -142 -33 -273t-98.5 -240.5t-157 -191.5t-214.5 -127.5t-265 -45.5q-236 0 -387 127l-162 -172l-123 124l172 181q-86 150 -86 356q0 137 34.5 267t101.5 239.5t159 192.5t213.5 129.5t257.5 46.5q224 0 375 -117l149 160z
M416 608q0 -69 16 -135l639 676q-78 63 -207 63q-127 0 -231 -87t-160.5 -225t-56.5 -292zM1190 848q0 78 -21 153l-647 -686q83 -71 213 -71t235.5 84.5t162.5 222.5t57 297z" />
    <glyph glyph-name="Ugrave" unicode="&#xd9;" horiz-adv-x="1370" 
d="M705 1575l-197 276l274 -2l170 -274h-247zM627 -18q-137 0 -236 46.5t-154.5 133t-74 204.5t-0.5 267l102 821h279l-103 -829q-12 -78 -5.5 -147t27.5 -120.5t68 -81.5t115 -30q129 0 208 83.5t103 274.5l105 850h278l-104 -852q-39 -324 -188.5 -472t-419.5 -148z" />
    <glyph glyph-name="Uacute" unicode="&#xda;" horiz-adv-x="1370" 
d="M678 1575l235 274l279 2l-266 -276h-248zM627 -18q-137 0 -236 46.5t-154.5 133t-74 204.5t-0.5 267l102 821h279l-103 -829q-12 -78 -5.5 -147t27.5 -120.5t68 -81.5t115 -30q129 0 208 83.5t103 274.5l105 850h278l-104 -852q-39 -324 -188.5 -472t-419.5 -148z" />
    <glyph glyph-name="Ucircumflex" unicode="&#xdb;" horiz-adv-x="1370" 
d="M500 1575l235 276h256l162 -276h-231l-76 135h-6l-111 -135h-229zM627 -18q-137 0 -236 46.5t-154.5 133t-74 204.5t-0.5 267l102 821h279l-103 -829q-12 -78 -5.5 -147t27.5 -120.5t68 -81.5t115 -30q129 0 208 83.5t103 274.5l105 850h278l-104 -852
q-39 -324 -188.5 -472t-419.5 -148z" />
    <glyph glyph-name="Udieresis" unicode="&#xdc;" horiz-adv-x="1370" 
d="M633 1571q-70 0 -116 46t-46 114q0 71 47.5 117t120.5 46q70 0 116 -44.5t46 -112.5q0 -71 -47.5 -118.5t-120.5 -47.5zM1047 1571q-71 0 -117.5 46t-46.5 114q0 70 48 116.5t122 46.5q70 0 115.5 -44.5t45.5 -112.5q0 -71 -47 -118.5t-120 -47.5zM627 -18
q-137 0 -236 46.5t-154.5 133t-74 204.5t-0.5 267l102 821h279l-103 -829q-12 -78 -5.5 -147t27.5 -120.5t68 -81.5t115 -30q129 0 208 83.5t103 274.5l105 850h278l-104 -852q-39 -324 -188.5 -472t-419.5 -148z" />
    <glyph glyph-name="Yacute" unicode="&#xdd;" horiz-adv-x="1189" 
d="M590 1575l235 274l279 2l-266 -276h-248zM391 0l80 639l-334 815h307l193 -551h6l328 551h321l-540 -815l-80 -639h-281z" />
    <glyph glyph-name="Thorn" unicode="&#xde;" horiz-adv-x="1239" 
d="M106 0l179 1454h276l-33 -256h254q208 0 308 -103t100 -292q0 -255 -150.5 -405t-425.5 -150h-202l-29 -248h-277zM442 496h199q119 0 189.5 77.5t70.5 212.5q0 78 -50 121t-130 43h-223z" />
    <glyph glyph-name="germandbls" unicode="&#xdf;" horiz-adv-x="1280" 
d="M848 -18q-111 0 -214 46.5t-163 125.5l162 159q89 -118 211 -118q53 0 89 25.5t36 64.5q0 31 -27 53t-105 66q-12 6 -18 10q-116 65 -176.5 130.5t-60.5 160.5q0 39 11 72.5t34 64t43 52t53.5 52.5t50.5 49q90 90 90 181q2 56 -42 88t-120 32q-208 0 -239 -237
l-129 -1059h-260l133 1085q27 221 157 331t326 110q209 0 323 -91t111 -251q0 -91 -40.5 -157.5t-116.5 -133.5q-80 -69 -98 -92q-27 -32 -27 -60q0 -26 25.5 -54.5t99.5 -74.5q122 -70 159 -101q91 -74 98 -183q1 -11 1 -23q0 -155 -103.5 -239t-273.5 -84z" />
    <glyph glyph-name="agrave" unicode="&#xe0;" horiz-adv-x="1142" 
d="M573 1141l-190 301l274 -2l168 -299h-252zM406 -18q-163 0 -249.5 114.5t-86.5 292.5q0 167 61 310t172.5 230t249.5 87q164 0 250 -92l6 2l10 73h260l-123 -999h-260l21 168l-6 2q-64 -91 -143 -139.5t-162 -48.5zM473 213q64 0 127 52.5t113.5 158t68.5 242.5l4 32
q-84 84 -200 84q-76 0 -136 -59.5t-89 -146t-29 -179.5q0 -86 37 -135t104 -49z" />
    <glyph glyph-name="aacute" unicode="&#xe1;" horiz-adv-x="1142" 
d="M510 1139l244 299l274 2l-264 -301h-254zM406 -18q-163 0 -249.5 114.5t-86.5 292.5q0 167 61 310t172.5 230t249.5 87q164 0 250 -92l6 2l10 73h260l-123 -999h-260l21 168l-6 2q-64 -91 -143 -139.5t-162 -48.5zM473 213q64 0 127 52.5t113.5 158t68.5 242.5l4 32
q-84 84 -200 84q-76 0 -136 -59.5t-89 -146t-29 -179.5q0 -86 37 -135t104 -49z" />
    <glyph glyph-name="acircumflex" unicode="&#xe2;" horiz-adv-x="1142" 
d="M340 1135l238 305h237l174 -305h-237l-62 153h-4l-100 -153h-246zM406 -18q-163 0 -249.5 114.5t-86.5 292.5q0 167 61 310t172.5 230t249.5 87q164 0 250 -92l6 2l10 73h260l-123 -999h-260l21 168l-6 2q-64 -91 -143 -139.5t-162 -48.5zM473 213q64 0 127 52.5
t113.5 158t68.5 242.5l4 32q-84 84 -200 84q-76 0 -136 -59.5t-89 -146t-29 -179.5q0 -86 37 -135t104 -49z" />
    <glyph glyph-name="atilde" unicode="&#xe3;" horiz-adv-x="1142" 
d="M834 1130q-22 0 -41 4t-37.5 12.5t-28.5 14t-28 18.5t-21 15q-54 41 -92 41q-72 0 -123 -107l-154 78q45 106 109 168t143 62q23 0 42.5 -3t37 -11t26.5 -13t26 -17t20 -14q25 -18 34 -24t26 -13.5t32 -7.5q35 0 67.5 29.5t55.5 77.5l153 -62q-44 -116 -108 -182
t-139 -66zM406 -18q-163 0 -249.5 114.5t-86.5 292.5q0 167 61 310t172.5 230t249.5 87q164 0 250 -92l6 2l10 73h260l-123 -999h-260l21 168l-6 2q-64 -91 -143 -139.5t-162 -48.5zM473 213q64 0 127 52.5t113.5 158t68.5 242.5l4 32q-84 84 -200 84q-76 0 -136 -59.5
t-89 -146t-29 -179.5q0 -86 37 -135t104 -49z" />
    <glyph glyph-name="adieresis" unicode="&#xe4;" horiz-adv-x="1142" 
d="M477 1141q-70 0 -116 45.5t-46 113.5q0 71 47.5 117.5t120.5 46.5q70 0 116 -44.5t46 -112.5q0 -71 -47.5 -118.5t-120.5 -47.5zM891 1141q-71 0 -117.5 45.5t-46.5 113.5q0 71 48.5 117.5t121.5 46.5q70 0 116 -44.5t46 -112.5q0 -71 -47.5 -118.5t-120.5 -47.5z
M406 -18q-163 0 -249.5 114.5t-86.5 292.5q0 167 61 310t172.5 230t249.5 87q164 0 250 -92l6 2l10 73h260l-123 -999h-260l21 168l-6 2q-64 -91 -143 -139.5t-162 -48.5zM473 213q64 0 127 52.5t113.5 158t68.5 242.5l4 32q-84 84 -200 84q-76 0 -136 -59.5t-89 -146
t-29 -179.5q0 -86 37 -135t104 -49z" />
    <glyph glyph-name="aring" unicode="&#xe5;" horiz-adv-x="1142" 
d="M688 1104q-90 0 -150.5 60.5t-60.5 150.5q0 94 62.5 155.5t156.5 61.5q91 0 151 -60t60 -149q0 -95 -62.5 -157t-156.5 -62zM692 1241q33 0 55.5 22.5t22.5 55.5q0 32 -22 54t-54 22q-33 0 -55.5 -22.5t-22.5 -55.5t21.5 -54.5t54.5 -21.5zM406 -18q-163 0 -249.5 114.5
t-86.5 292.5q0 167 61 310t172.5 230t249.5 87q164 0 250 -92l6 2l10 73h260l-123 -999h-260l21 168l-6 2q-64 -91 -143 -139.5t-162 -48.5zM473 213q64 0 127 52.5t113.5 158t68.5 242.5l4 32q-84 84 -200 84q-76 0 -136 -59.5t-89 -146t-29 -179.5q0 -86 37 -135t104 -49z
" />
    <glyph glyph-name="ae" unicode="&#xe6;" horiz-adv-x="1419" 
d="M985 211q101 0 182 102l197 -131q-150 -196 -389 -196q-128 0 -215 51.5t-125 150.5q-47 -97 -122.5 -151.5t-170.5 -54.5q-140 0 -222 104.5t-79 271.5q2 129 40 245.5t105 205t167.5 140.5t219.5 52q148 0 248 -61q115 76 264 76q132 0 223 -71.5t91 -194.5
q0 -166 -163 -268t-433 -126q14 -71 64.5 -108t117.5 -37zM1059 791q-72 0 -144.5 -71t-101.5 -188q155 22 242.5 72.5t87.5 124.5q0 25 -22 43.5t-62 18.5zM385 207q19 0 37 9t34 28t29.5 38t26.5 51t22.5 55.5t20.5 61.5t17 59t16 58q28 114 80 205q-34 6 -62 6
q-91 0 -161.5 -62t-106 -159t-35.5 -209q0 -66 23.5 -103.5t58.5 -37.5z" />
    <glyph glyph-name="ccedilla" unicode="&#xe7;" horiz-adv-x="997" 
d="M506 219q111 0 203 103l202 -138q-159 -189 -387 -200l-32 -45l2 -2q153 -6 153 -138q0 -93 -69.5 -142.5t-188.5 -49.5q-42 0 -104 12l6 119q30 -12 76 -12q51 0 82.5 18.5t31.5 54.5q0 27 -32.5 39t-104.5 12l4 76l39 66q-149 28 -231 135t-82 287q0 119 35.5 227
t101 192t167 133.5t224.5 49.5q125 0 220.5 -44.5t152.5 -129.5l-201 -152q-57 92 -172 92q-116 0 -191 -103t-75 -251q0 -103 47.5 -156t122.5 -53z" />
    <glyph glyph-name="egrave" unicode="&#xe8;" horiz-adv-x="978" 
d="M778 1141h-252l-190 301l274 -2zM500 209q60 0 109 24.5t98 79.5l198 -129q-88 -102 -185.5 -151t-236.5 -49q-189 0 -300 111.5t-111 305.5q0 125 37 236.5t104 195.5t169 133.5t224 49.5q86 0 160 -29.5t123 -93t49 -150.5q-1 -91 -52 -161.5t-141 -114.5t-191.5 -70
t-225.5 -39q13 -73 61 -111t111 -38zM590 791q-80 0 -151.5 -65t-100.5 -185q341 38 344 178q0 34 -24 53t-68 19z" />
    <glyph glyph-name="eacute" unicode="&#xe9;" horiz-adv-x="978" 
d="M995 1440l-264 -301h-254l244 299zM938 743q-1 -91 -52 -161.5t-141 -114.5t-191.5 -70t-225.5 -39q13 -73 61 -111t111 -38q60 0 109 24.5t98 79.5l198 -129q-88 -102 -185.5 -151t-236.5 -49q-189 0 -300 111.5t-111 305.5q0 125 37 236.5t104 195.5t169 133.5
t224 49.5q86 0 160 -29.5t123 -93t49 -150.5zM338 541q341 38 344 178q0 34 -24 53t-68 19q-80 0 -151.5 -65t-100.5 -185z" />
    <glyph glyph-name="ecircumflex" unicode="&#xea;" horiz-adv-x="978" 
d="M614 1288l-100 -153h-246l238 305h237l175 -305h-238l-62 153h-4zM500 209q60 0 109 24.5t98 79.5l198 -129q-88 -102 -185.5 -151t-236.5 -49q-189 0 -300 111.5t-111 305.5q0 125 37 236.5t104 195.5t169 133.5t224 49.5q86 0 160 -29.5t123 -93t49 -150.5
q-1 -91 -52 -161.5t-141 -114.5t-191.5 -70t-225.5 -39q13 -73 61 -111t111 -38zM590 791q-80 0 -151.5 -65t-100.5 -185q341 38 344 178q0 34 -24 53t-68 19z" />
    <glyph glyph-name="edieresis" unicode="&#xeb;" horiz-adv-x="978" 
d="M406 1141q-70 0 -116 45.5t-46 113.5q0 71 47.5 117.5t120.5 46.5q70 0 115.5 -44.5t45.5 -112.5q0 -71 -47 -118.5t-120 -47.5zM825 1464q70 0 116 -44.5t46 -112.5q0 -71 -47.5 -118.5t-120.5 -47.5q-71 0 -117.5 45.5t-46.5 113.5q0 71 48.5 117.5t121.5 46.5z
M938 743q-1 -91 -52 -161.5t-141 -114.5t-191.5 -70t-225.5 -39q13 -73 61 -111t111 -38q60 0 109 24.5t98 79.5l198 -129q-88 -102 -185.5 -151t-236.5 -49q-189 0 -300 111.5t-111 305.5q0 125 37 236.5t104 195.5t169 133.5t224 49.5q86 0 160 -29.5t123 -93t49 -150.5z
M338 541q341 38 344 178q0 34 -24 53t-68 19q-80 0 -151.5 -65t-100.5 -185z" />
    <glyph glyph-name="igrave" unicode="&#xec;" horiz-adv-x="538" 
d="M217 1153l-117 301l275 -2l96 -299h-254zM76 0l125 1001h260l-123 -1001h-262z" />
    <glyph glyph-name="iacute" unicode="&#xed;" horiz-adv-x="536" 
d="M227 1139l244 299l274 2l-264 -301h-254zM76 0l125 1001h260l-123 -1001h-262z" />
    <glyph glyph-name="icircumflex" unicode="&#xee;" horiz-adv-x="536" 
d="M27 1135l237 305h238l174 -305h-238l-61 153h-4l-101 -153h-245zM76 0l125 1001h260l-123 -1001h-262z" />
    <glyph glyph-name="idieresis" unicode="&#xef;" horiz-adv-x="536" 
d="M455 1462q62 0 105.5 -44t43.5 -111q0 -70 -45 -118t-110 -48q-39 0 -74 18q-34 -18 -74 -18q-65 0 -109.5 46t-44.5 113q0 70 46 116t114 46q37 0 72 -18q34 18 76 18zM76 0l125 1001h260l-123 -1001h-262z" />
    <glyph glyph-name="eth" unicode="&#xf0;" horiz-adv-x="1105" 
d="M924 1120q117 -205 114 -475q-1 -107 -20 -202.5t-61.5 -180t-104 -146t-151.5 -97t-201 -35.5q-195 0 -310.5 114t-115.5 303q0 117 38.5 223t103.5 182.5t153.5 121.5t185.5 45q113 0 193 -53q-11 37 -39 96q-14 28 -30.5 53t-37.5 48t-37 40.5t-43.5 38.5t-42 32.5
t-47 32t-44 27.5t-47.5 27.5t-44 25.5l115 179q145 -60 258 -148l151 184l139 -129l-157 -186q43 -55 82 -121zM506 217q73 0 128.5 39t87 106.5t46.5 147.5t14 170v8q-67 57 -168 57q-118 0 -199 -95t-81 -226q0 -98 51 -152.5t121 -54.5z" />
    <glyph glyph-name="ntilde" unicode="&#xf1;" horiz-adv-x="1130" 
d="M838 1130q-22 0 -41 4t-37.5 12.5t-28.5 14t-28 18.5t-21 15q-54 41 -92 41q-72 0 -123 -107l-154 78q45 106 109 168t143 62q23 0 42.5 -3t37 -11t26.5 -13t26 -17t20 -14q25 -18 34 -24t26 -13.5t32 -7.5q35 0 67.5 29.5t55.5 77.5l153 -62q-44 -116 -108 -182
t-139 -66zM72 0l125 1001h258l-19 -159l4 -2q145 176 346 176q153 0 211.5 -101t30.5 -309l-82 -606h-258l76 565q14 113 -3 165t-79 52q-41 0 -89 -29.5t-92 -81.5t-78 -131t-46 -169l-45 -371h-260z" />
    <glyph glyph-name="ograve" unicode="&#xf2;" horiz-adv-x="1112" 
d="M526 1141l-190 301l274 -2l168 -299h-252zM494 -18q-193 0 -306.5 113t-113.5 313q0 121 37 231t104 194t170 133.5t227 49.5q195 0 310.5 -110t115.5 -308q0 -128 -34.5 -238.5t-101 -195.5t-171.5 -133.5t-237 -48.5zM508 217q117 0 192.5 105.5t75.5 255.5
q0 60 -17.5 102.5t-46.5 63t-58 29.5t-60 9q-77 0 -137.5 -52t-91.5 -131.5t-31 -168.5q0 -97 48.5 -155t125.5 -58z" />
    <glyph glyph-name="oacute" unicode="&#xf3;" horiz-adv-x="1112" 
d="M516 1139l244 299l274 2l-264 -301h-254zM494 -18q-193 0 -306.5 113t-113.5 313q0 121 37 231t104 194t170 133.5t227 49.5q195 0 310.5 -110t115.5 -308q0 -128 -34.5 -238.5t-101 -195.5t-171.5 -133.5t-237 -48.5zM508 217q117 0 192.5 105.5t75.5 255.5
q0 60 -17.5 102.5t-46.5 63t-58 29.5t-60 9q-77 0 -137.5 -52t-91.5 -131.5t-31 -168.5q0 -97 48.5 -155t125.5 -58z" />
    <glyph glyph-name="ocircumflex" unicode="&#xf4;" horiz-adv-x="1112" 
d="M322 1135l237 305h238l174 -305h-238l-61 153h-4l-101 -153h-245zM494 -18q-193 0 -306.5 113t-113.5 313q0 121 37 231t104 194t170 133.5t227 49.5q195 0 310.5 -110t115.5 -308q0 -128 -34.5 -238.5t-101 -195.5t-171.5 -133.5t-237 -48.5zM508 217q117 0 192.5 105.5
t75.5 255.5q0 60 -17.5 102.5t-46.5 63t-58 29.5t-60 9q-77 0 -137.5 -52t-91.5 -131.5t-31 -168.5q0 -97 48.5 -155t125.5 -58z" />
    <glyph glyph-name="otilde" unicode="&#xf5;" horiz-adv-x="1112" 
d="M815 1130q-22 0 -41 4t-37.5 12.5t-28.5 14t-28 18.5t-21 15q-54 41 -92 41q-72 0 -123 -107l-153 78q45 106 109 168t143 62q23 0 42.5 -3.5t36.5 -11t26 -12.5t25.5 -16.5t20.5 -14.5q25 -18 34 -24t26 -13.5t32 -7.5q35 0 67.5 29.5t55.5 77.5l154 -62
q-44 -116 -108.5 -182t-139.5 -66zM494 -18q-193 0 -306.5 113t-113.5 313q0 121 37 231t104 194t170 133.5t227 49.5q195 0 310.5 -110t115.5 -308q0 -128 -34.5 -238.5t-101 -195.5t-171.5 -133.5t-237 -48.5zM508 217q117 0 192.5 105.5t75.5 255.5q0 60 -17.5 102.5
t-46.5 63t-58 29.5t-60 9q-77 0 -137.5 -52t-91.5 -131.5t-31 -168.5q0 -97 48.5 -155t125.5 -58z" />
    <glyph glyph-name="odieresis" unicode="&#xf6;" horiz-adv-x="1112" 
d="M459 1141q-70 0 -116 45.5t-46 113.5q0 71 47.5 117.5t120.5 46.5q70 0 116 -44.5t46 -112.5q0 -71 -47.5 -118.5t-120.5 -47.5zM872 1141q-71 0 -117 45.5t-46 113.5q0 71 48.5 117.5t121.5 46.5q70 0 115.5 -44.5t45.5 -112.5q0 -71 -47.5 -118.5t-120.5 -47.5z
M494 -18q-193 0 -306.5 113t-113.5 313q0 121 37 231t104 194t170 133.5t227 49.5q195 0 310.5 -110t115.5 -308q0 -128 -34.5 -238.5t-101 -195.5t-171.5 -133.5t-237 -48.5zM508 217q117 0 192.5 105.5t75.5 255.5q0 60 -17.5 102.5t-46.5 63t-58 29.5t-60 9
q-77 0 -137.5 -52t-91.5 -131.5t-31 -168.5q0 -97 48.5 -155t125.5 -58z" />
    <glyph glyph-name="divide" unicode="&#xf7;" horiz-adv-x="1083" 
d="M621 811q-68 0 -113 45.5t-45 110.5q0 69 46 114t116 45q69 0 114 -43.5t45 -109.5q0 -69 -46.5 -115.5t-116.5 -46.5zM127 453l29 229h876l-26 -229h-879zM524 -10q-68 0 -112.5 45t-44.5 110q0 69 45.5 114.5t115.5 45.5q69 0 114.5 -43.5t45.5 -109.5
q0 -69 -47 -115.5t-117 -46.5z" />
    <glyph glyph-name="oslash" unicode="&#xf8;" horiz-adv-x="1116" 
d="M1083 946l-104 -110q59 -95 59 -238q0 -128 -34.5 -238.5t-101 -195.5t-171.5 -133.5t-237 -48.5q-155 0 -261 73l-100 -104l-98 98l102 109q-63 101 -63 250q0 121 37 231t104 194t170 133.5t227 49.5q163 0 273 -78l100 104zM334 430q0 -34 6 -61l365 381
q-45 32 -111 32q-77 0 -137.5 -52t-91.5 -131.5t-31 -168.5zM776 578q0 31 -2 43l-360 -375q44 -29 94 -29q117 0 192.5 105.5t75.5 255.5z" />
    <glyph glyph-name="ugrave" unicode="&#xf9;" horiz-adv-x="1110" 
d="M518 1141l-190 301l274 -2l168 -299h-252zM365 -18q-155 0 -223 95t-40 306l88 618h259l-78 -567q-18 -120 2.5 -168.5t83.5 -48.5q79 0 168.5 103.5t107.5 238.5l53 442h261l-123 -1001h-258l18 164h-4q-130 -182 -315 -182z" />
    <glyph glyph-name="uacute" unicode="&#xfa;" horiz-adv-x="1110" 
d="M504 1139l244 299l274 2l-264 -301h-254zM365 -18q-155 0 -223 95t-40 306l88 618h259l-78 -567q-18 -120 2.5 -168.5t83.5 -48.5q79 0 168.5 103.5t107.5 238.5l53 442h261l-123 -1001h-258l18 164h-4q-130 -182 -315 -182z" />
    <glyph glyph-name="ucircumflex" unicode="&#xfb;" horiz-adv-x="1110" 
d="M311 1135l238 305h237l175 -305h-238l-61 153h-5l-100 -153h-246zM365 -18q-155 0 -223 95t-40 306l88 618h259l-78 -567q-18 -120 2.5 -168.5t83.5 -48.5q79 0 168.5 103.5t107.5 238.5l53 442h261l-123 -1001h-258l18 164h-4q-130 -182 -315 -182z" />
    <glyph glyph-name="udieresis" unicode="&#xfc;" horiz-adv-x="1110" 
d="M449 1141q-70 0 -116 45.5t-46 113.5q0 71 47.5 117.5t120.5 46.5q70 0 115.5 -44.5t45.5 -112.5q0 -71 -47 -118.5t-120 -47.5zM862 1141q-71 0 -117.5 45.5t-46.5 113.5q0 71 48.5 117.5t121.5 46.5q70 0 116 -44.5t46 -112.5q0 -71 -47.5 -118.5t-120.5 -47.5z
M365 -18q-155 0 -223 95t-40 306l88 618h259l-78 -567q-18 -120 2.5 -168.5t83.5 -48.5q79 0 168.5 103.5t107.5 238.5l53 442h261l-123 -1001h-258l18 164h-4q-130 -182 -315 -182z" />
    <glyph glyph-name="yacute" unicode="&#xfd;" horiz-adv-x="1105" 
d="M1001 1440l-264 -301h-254l244 299zM788 1001h256l-106 -872q-15 -130 -54 -229t-91 -159t-121.5 -97.5t-138 -51.5t-148.5 -14q-198 0 -352 96l82 211q131 -84 262 -84q63 0 108.5 13.5t87 49t69 104.5t40.5 173l2 21l-4 2q-130 -182 -322 -182q-155 0 -222.5 95
t-37.5 306l84 618h258l-75 -567q-15 -122 4.5 -168.5t83.5 -48.5q84 0 174.5 108t107.5 248z" />
    <glyph glyph-name="thorn" unicode="&#xfe;" horiz-adv-x="1157" 
d="M23 -406l235 1913h258l-84 -678l6 -4q127 191 328 191q104 0 178 -56.5t108.5 -147.5t34.5 -204q0 -166 -61 -308.5t-174.5 -230t-253.5 -87.5q-157 0 -252 79l-6 -2l-57 -465h-260zM530 215q90 0 159 54t102.5 137.5t33.5 179.5q0 86 -35 142t-98 56q-106 0 -201 -123.5
t-122 -322.5l-4 -39q26 -41 69.5 -62.5t95.5 -21.5z" />
    <glyph glyph-name="ydieresis" unicode="&#xff;" horiz-adv-x="1105" 
d="M442 1141q-70 0 -115.5 45.5t-45.5 113.5q0 71 47.5 117.5t120.5 46.5q70 0 115.5 -44.5t45.5 -112.5q0 -71 -47.5 -118.5t-120.5 -47.5zM856 1141q-71 0 -117.5 45.5t-46.5 113.5q0 71 48.5 117.5t121.5 46.5q70 0 116 -44.5t46 -112.5q0 -71 -47.5 -118.5t-120.5 -47.5
zM788 1001h256l-106 -872q-15 -130 -54 -229t-91 -159t-121.5 -97.5t-138 -51.5t-148.5 -14q-198 0 -352 96l82 211q131 -84 262 -84q63 0 108.5 13.5t87 49t69 104.5t40.5 173l2 21l-4 2q-130 -182 -322 -182q-155 0 -222.5 95t-37.5 306l84 618h258l-75 -567
q-15 -122 4.5 -168.5t83.5 -48.5q84 0 174.5 108t107.5 248z" />
    <glyph glyph-name="Amacron" unicode="&#x100;" horiz-adv-x="1314" 
d="M520 1618l25 201h571l-26 -201h-570zM-25 0l660 1454h278l306 -1454h-291l-54 295h-485l-125 -295h-289zM485 535h349l-105 575h-4z" />
    <glyph glyph-name="amacron" unicode="&#x101;" horiz-adv-x="1142" 
d="M389 1194l25 209h571l-27 -209h-569zM406 -18q-163 0 -249.5 114.5t-86.5 292.5q0 167 61 310t172.5 230t249.5 87q164 0 250 -92l6 2l10 73h260l-123 -999h-260l21 168l-6 2q-64 -91 -143 -139.5t-162 -48.5zM473 213q64 0 127 52.5t113.5 158t68.5 242.5l4 32
q-84 84 -200 84q-76 0 -136 -59.5t-89 -146t-29 -179.5q0 -86 37 -135t104 -49z" />
    <glyph glyph-name="Abreve" unicode="&#x102;" horiz-adv-x="1314" 
d="M803 1561q-144 0 -215 76.5t-60 213.5h195q-7 -43 16.5 -73.5t75.5 -30.5q51 0 89 32t50 72h195q-27 -131 -116.5 -210.5t-229.5 -79.5zM-25 0l660 1454h278l306 -1454h-291l-54 295h-485l-125 -295h-289zM485 535h349l-105 575h-4z" />
    <glyph glyph-name="abreve" unicode="&#x103;" horiz-adv-x="1142" 
d="M668 1114q-141 0 -213 81t-60 230h195q-6 -52 16 -84t74 -32t90 34t51 82h195q-27 -142 -118.5 -226.5t-229.5 -84.5zM406 -18q-163 0 -249.5 114.5t-86.5 292.5q0 167 61 310t172.5 230t249.5 87q164 0 250 -92l6 2l10 73h260l-123 -999h-260l21 168l-6 2
q-64 -91 -143 -139.5t-162 -48.5zM473 213q64 0 127 52.5t113.5 158t68.5 242.5l4 32q-84 84 -200 84q-76 0 -136 -59.5t-89 -146t-29 -179.5q0 -86 37 -135t104 -49z" />
    <glyph glyph-name="Aogonek" unicode="&#x104;" horiz-adv-x="1314" 
d="M1192 0q-81 -12 -138 -65t-57 -111q0 -57 56 -57q46 0 75 16l5 -148q-50 -22 -148 -22q-95 0 -143.5 40t-48.5 116q0 64 37.5 126.5t97.5 106.5l-54 293h-485l-125 -295h-289l660 1454h278l306 -1454h-27zM485 535h349l-105 575h-4z" />
    <glyph glyph-name="aogonek" unicode="&#x105;" horiz-adv-x="1142" 
d="M819 999h260l-123 -999h-12q-81 -12 -137.5 -64.5t-56.5 -111.5q0 -57 55 -57q47 0 76 16l4 -148q-50 -22 -148 -22q-95 0 -143.5 40t-48.5 116q0 70 43 136t110 109l19 154l-6 2q-64 -91 -143 -139.5t-162 -48.5q-163 0 -249.5 114.5t-86.5 292.5q0 167 61 310
t172.5 230t249.5 87q164 0 250 -92l6 2zM473 213q64 0 127 52.5t113.5 158t68.5 242.5l4 32q-84 84 -200 84q-76 0 -136 -59.5t-89 -146t-29 -179.5q0 -86 37 -135t104 -49z" />
    <glyph glyph-name="Cacute" unicode="&#x106;" horiz-adv-x="1370" 
d="M758 1575l235 274l279 2l-266 -276h-248zM713 -18q-127 0 -234 39t-187 113.5t-124.5 192.5t-44.5 267q0 143 35 275t101.5 241.5t158.5 191t212 126.5t255 45q146 0 276.5 -72.5t227.5 -233.5l-228 -166q-109 205 -291 205q-101 0 -188 -52t-145 -137t-90.5 -194.5
t-32.5 -224.5q0 -165 82 -257.5t231 -92.5q88 0 175 45t149 121l202 -183q-102 -117 -241.5 -183t-298.5 -66z" />
    <glyph glyph-name="cacute" unicode="&#x107;" horiz-adv-x="997" 
d="M489 1139l244 299l275 2l-265 -301h-254zM492 -16q-196 0 -307 110t-111 320q0 119 35.5 227t101 192t167 133.5t224.5 49.5q125 0 220.5 -44.5t152.5 -129.5l-201 -152q-57 92 -172 92q-116 0 -191 -103t-75 -251q0 -103 47.5 -156t122.5 -53q111 0 203 103l202 -138
q-167 -200 -419 -200z" />
    <glyph glyph-name="Ccircumflex" unicode="&#x108;" horiz-adv-x="1370" 
d="M608 1575l236 276h256l162 -276h-232l-76 135h-6l-110 -135h-230zM713 -18q-127 0 -234 39t-187 113.5t-124.5 192.5t-44.5 267q0 143 35 275t101.5 241.5t158.5 191t212 126.5t255 45q146 0 276.5 -72.5t227.5 -233.5l-228 -166q-109 205 -291 205q-101 0 -188 -52
t-145 -137t-90.5 -194.5t-32.5 -224.5q0 -165 82 -257.5t231 -92.5q88 0 175 45t149 121l202 -183q-102 -117 -241.5 -183t-298.5 -66z" />
    <glyph glyph-name="ccircumflex" unicode="&#x109;" horiz-adv-x="997" 
d="M324 1135l237 305h238l174 -305h-238l-61 153h-4l-101 -153h-245zM492 -16q-196 0 -307 110t-111 320q0 119 35.5 227t101 192t167 133.5t224.5 49.5q125 0 220.5 -44.5t152.5 -129.5l-201 -152q-57 92 -172 92q-116 0 -191 -103t-75 -251q0 -103 47.5 -156t122.5 -53
q111 0 203 103l202 -138q-167 -200 -419 -200z" />
    <glyph glyph-name="Cdotaccent" unicode="&#x10a;" horiz-adv-x="1370" 
d="M946 1571q-70 0 -116 46t-46 114q0 71 47.5 117t120.5 46q71 0 117.5 -45t46.5 -112q0 -71 -48.5 -118.5t-121.5 -47.5zM713 -18q-127 0 -234 39t-187 113.5t-124.5 192.5t-44.5 267q0 143 35 275t101.5 241.5t158.5 191t212 126.5t255 45q146 0 276.5 -72.5
t227.5 -233.5l-228 -166q-109 205 -291 205q-101 0 -188 -52t-145 -137t-90.5 -194.5t-32.5 -224.5q0 -165 82 -257.5t231 -92.5q88 0 175 45t149 121l202 -183q-102 -117 -241.5 -183t-298.5 -66z" />
    <glyph glyph-name="cdotaccent" unicode="&#x10b;" horiz-adv-x="997" 
d="M668 1141q-70 0 -116 45.5t-46 113.5q0 71 47.5 117.5t120.5 46.5q71 0 117.5 -45t46.5 -112q0 -71 -48.5 -118.5t-121.5 -47.5zM492 -16q-196 0 -307 110t-111 320q0 119 35.5 227t101 192t167 133.5t224.5 49.5q125 0 220.5 -44.5t152.5 -129.5l-201 -152
q-57 92 -172 92q-116 0 -191 -103t-75 -251q0 -103 47.5 -156t122.5 -53q111 0 203 103l202 -138q-167 -200 -419 -200z" />
    <glyph glyph-name="Ccaron" unicode="&#x10c;" horiz-adv-x="1370" 
d="M805 1575l-164 276h231l78 -135h4l111 135h229l-233 -276h-256zM713 -18q-127 0 -234 39t-187 113.5t-124.5 192.5t-44.5 267q0 143 35 275t101.5 241.5t158.5 191t212 126.5t255 45q146 0 276.5 -72.5t227.5 -233.5l-228 -166q-109 205 -291 205q-101 0 -188 -52
t-145 -137t-90.5 -194.5t-32.5 -224.5q0 -165 82 -257.5t231 -92.5q88 0 175 45t149 121l202 -183q-102 -117 -241.5 -183t-298.5 -66z" />
    <glyph glyph-name="ccaron" unicode="&#x10d;" horiz-adv-x="997" 
d="M520 1124l-153 301h229l70 -149h6l106 149h230l-232 -301h-256zM492 -16q-196 0 -307 110t-111 320q0 119 35.5 227t101 192t167 133.5t224.5 49.5q125 0 220.5 -44.5t152.5 -129.5l-201 -152q-57 92 -172 92q-116 0 -191 -103t-75 -251q0 -103 47.5 -156t122.5 -53
q111 0 203 103l202 -138q-167 -200 -419 -200z" />
    <glyph glyph-name="Dcaron" unicode="&#x10e;" horiz-adv-x="1396" 
d="M692 1573l-164 276h232l78 -135h4l110 135h230l-234 -276h-256zM106 0l179 1454h444q292 0 445 -160t153 -442q0 -254 -93 -446.5t-269.5 -299t-413.5 -106.5h-445zM412 250h168q141 0 245.5 79t157.5 214t53 307q0 166 -85.5 260t-248.5 94h-174z" />
    <glyph glyph-name="dcaron" unicode="&#x10f;" horiz-adv-x="1263" 
d="M1219 1188l110 422h258l-178 -422h-190zM408 -18q-164 0 -250 114t-86 293q0 166 60.5 309t172.5 230.5t250 87.5q161 0 256 -92l6 2l72 581h260l-186 -1507h-261l23 170l-6 2q-131 -190 -311 -190zM473 213q103 0 195 123t120 326l7 38q-76 82 -209 82q-75 0 -134.5 -60
t-88.5 -146.5t-29 -178.5q0 -86 36 -135t103 -49z" />
    <glyph glyph-name="Dcroat" unicode="&#x110;" horiz-adv-x="1398" 
d="M733 1454q292 0 445 -160t153 -442q0 -254 -93 -446.5t-269.5 -299t-413.5 -106.5h-444l73 602h-108l33 236h104l76 616h444zM584 250q141 0 245.5 79t157.5 214t53 307q0 166 -85 260t-248 94h-175l-45 -366h265l-33 -236h-260l-43 -352h168z" />
    <glyph glyph-name="dcroat" unicode="&#x111;" horiz-adv-x="1118" 
d="M1223 1305l-21 -168h-98l-141 -1137h-261l23 170l-6 2q-131 -190 -311 -190q-164 0 -250 114t-86 293q0 166 60.5 309t172.5 230.5t250 87.5q161 0 256 -92l6 2l27 211h-340l20 168h340l25 202h260l-25 -202h99zM788 662l7 38q-76 82 -209 82q-75 0 -134.5 -60
t-88.5 -146.5t-29 -178.5q0 -86 36 -135t103 -49q103 0 195 123t120 326z" />
    <glyph glyph-name="Emacron" unicode="&#x112;" horiz-adv-x="1153" 
d="M453 1616l24 201h572l-27 -201h-569zM104 0l179 1454h850l-33 -250h-574l-43 -360h459l-31 -246h-458l-43 -348h612l-31 -250h-887z" />
    <glyph glyph-name="emacron" unicode="&#x113;" horiz-adv-x="978" 
d="M913 1403l-26 -209h-570l25 209h571zM500 209q60 0 109 24.5t98 79.5l198 -129q-88 -102 -185.5 -151t-236.5 -49q-189 0 -300 111.5t-111 305.5q0 125 37 236.5t104 195.5t169 133.5t224 49.5q86 0 160 -29.5t123 -93t49 -150.5q-1 -91 -52 -161.5t-141 -114.5
t-191.5 -70t-225.5 -39q13 -73 61 -111t111 -38zM590 791q-80 0 -151.5 -65t-100.5 -185q341 38 344 178q0 34 -24 53t-68 19z" />
    <glyph glyph-name="Ebreve" unicode="&#x114;" horiz-adv-x="1153" 
d="M735 1559q-144 0 -214.5 76.5t-59.5 213.5h194q-7 -43 17 -73.5t76 -30.5q51 0 89 32t50 72h194q-27 -131 -116.5 -210.5t-229.5 -79.5zM104 0l179 1454h850l-33 -250h-574l-43 -360h459l-31 -246h-458l-43 -348h612l-31 -250h-887z" />
    <glyph glyph-name="ebreve" unicode="&#x115;" horiz-adv-x="978" 
d="M596 1114q-141 0 -212.5 81t-59.5 230h194q-6 -52 16 -84t74 -32t90.5 34t51.5 82h194q-27 -142 -118.5 -226.5t-229.5 -84.5zM938 743q-1 -91 -52 -161.5t-141 -114.5t-191.5 -70t-225.5 -39q13 -73 61 -111t111 -38q60 0 109 24.5t98 79.5l198 -129
q-88 -102 -185.5 -151t-236.5 -49q-189 0 -300 111.5t-111 305.5q0 125 37 236.5t104 195.5t169 133.5t224 49.5q86 0 160 -29.5t123 -93t49 -150.5zM338 541q341 38 344 178q0 34 -24 53t-68 19q-80 0 -151.5 -65t-100.5 -185z" />
    <glyph glyph-name="Edotaccent" unicode="&#x116;" horiz-adv-x="1153" 
d="M743 1569q-70 0 -115.5 46t-45.5 114q0 71 47.5 117t120.5 46q70 0 116.5 -44.5t46.5 -112.5q0 -71 -48.5 -118.5t-121.5 -47.5zM104 0l179 1454h850l-33 -250h-574l-43 -360h459l-31 -246h-458l-43 -348h612l-31 -250h-887z" />
    <glyph glyph-name="edotaccent" unicode="&#x117;" horiz-adv-x="978" 
d="M612 1141q-70 0 -115.5 45.5t-45.5 113.5q0 71 47 117.5t120 46.5q71 0 117.5 -45t46.5 -112q0 -71 -48.5 -118.5t-121.5 -47.5zM500 209q60 0 109 24.5t98 79.5l198 -129q-88 -102 -185.5 -151t-236.5 -49q-189 0 -300 111.5t-111 305.5q0 125 37 236.5t104 195.5
t169 133.5t224 49.5q86 0 160 -29.5t123 -93t49 -150.5q-1 -91 -52 -161.5t-141 -114.5t-191.5 -70t-225.5 -39q13 -73 61 -111t111 -38zM590 791q-80 0 -151.5 -65t-100.5 -185q341 38 344 178q0 34 -24 53t-68 19z" />
    <glyph glyph-name="Eogonek" unicode="&#x118;" horiz-adv-x="1153" 
d="M1100 1204h-574l-43 -360h459l-31 -246h-458l-43 -348h612l-31 -250h-4q-81 -12 -137.5 -64.5t-56.5 -111.5q0 -57 55 -57q47 0 76 16l4 -148q-50 -22 -148 -22q-95 0 -143.5 40t-48.5 116q0 65 36.5 127t96.5 104h-617l179 1454h850z" />
    <glyph glyph-name="eogonek" unicode="&#x119;" horiz-adv-x="978" 
d="M500 209q60 0 109 24.5t98 79.5l198 -129q-125 -144 -268 -182q-78 -30 -127 -78.5t-49 -99.5q0 -57 59 -57q41 0 70 16l4 -148q-50 -22 -145 -22t-144 40.5t-49 115.5q0 60 32.5 118.5t86.5 102.5l-2 6q-141 30 -221 136t-80 269q0 125 37 236.5t104 195.5t169 133.5
t224 49.5q86 0 160 -29.5t123 -93t49 -150.5q-1 -91 -52 -161.5t-141 -114.5t-191.5 -70t-225.5 -39q13 -73 61 -111t111 -38zM590 791q-80 0 -151.5 -65t-100.5 -185q341 38 344 178q0 34 -24 53t-68 19z" />
    <glyph glyph-name="Ecaron" unicode="&#x11a;" horiz-adv-x="1153" 
d="M602 1573l-164 276h232l78 -135h4l110 135h230l-234 -276h-256zM104 0l179 1454h850l-33 -250h-574l-43 -360h459l-31 -246h-458l-43 -348h612l-31 -250h-887z" />
    <glyph glyph-name="ecaron" unicode="&#x11b;" horiz-adv-x="978" 
d="M721 1124h-256l-154 301h230l69 -149h6l107 149h229zM938 743q-1 -91 -52 -161.5t-141 -114.5t-191.5 -70t-225.5 -39q13 -73 61 -111t111 -38q60 0 109 24.5t98 79.5l198 -129q-88 -102 -185.5 -151t-236.5 -49q-189 0 -300 111.5t-111 305.5q0 125 37 236.5t104 195.5
t169 133.5t224 49.5q86 0 160 -29.5t123 -93t49 -150.5zM338 541q341 38 344 178q0 34 -24 53t-68 19q-80 0 -151.5 -65t-100.5 -185z" />
    <glyph glyph-name="Gcircumflex" unicode="&#x11c;" horiz-adv-x="1423" 
d="M580 1573l235 276h256l162 -276h-232l-75 135h-6l-111 -135h-229zM717 -18q-128 0 -235.5 38.5t-188 112.5t-125.5 191.5t-45 267.5q0 179 56 340.5t154 280.5t239.5 189.5t304.5 70.5q159 0 288 -64.5t209 -191.5l-223 -168q-101 159 -289 159q-128 0 -231 -83.5
t-159 -221.5t-56 -301q0 -173 82 -267.5t233 -94.5q137 0 264 86l31 221h-276l30 241h549l-74 -626q-99 -82 -243.5 -131t-294.5 -49z" />
    <glyph glyph-name="gcircumflex" unicode="&#x11d;" horiz-adv-x="1144" 
d="M340 1135l238 305h237l174 -305h-237l-62 153h-4l-100 -153h-246zM399 -422q-194 0 -348 96l84 215q130 -82 266 -82q55 0 95.5 8.5t80 32.5t66 65.5t46.5 109.5t30 163l33 9l-35 12q-64 -93 -144.5 -143t-164.5 -50q-83 0 -148.5 31.5t-106 87t-61 127t-20.5 154.5
q0 115 36 224t98 193t153.5 134.5t195.5 50.5q162 0 252 -90l4 2l8 73h260l-106 -874q-16 -130 -55 -228t-91.5 -158.5t-123.5 -97.5t-143.5 -51t-160.5 -14zM473 246q97 0 187.5 112.5t117.5 288.5l8 51q-39 39 -92 61.5t-106 22.5q-76 0 -136 -58t-89 -139t-29 -161
q0 -84 36.5 -131t102.5 -47z" />
    <glyph glyph-name="Gbreve" unicode="&#x11e;" horiz-adv-x="1423" 
d="M909 1559q-144 0 -214.5 76.5t-59.5 213.5h194q-7 -43 17 -73.5t76 -30.5q51 0 89 32t50 72h194q-27 -131 -116.5 -210.5t-229.5 -79.5zM717 -18q-128 0 -235.5 38.5t-188 112.5t-125.5 191.5t-45 267.5q0 179 56 340.5t154 280.5t239.5 189.5t304.5 70.5
q159 0 288 -64.5t209 -191.5l-223 -168q-101 159 -289 159q-128 0 -231 -83.5t-159 -221.5t-56 -301q0 -173 82 -267.5t233 -94.5q137 0 264 86l31 221h-276l30 241h549l-74 -626q-99 -82 -243.5 -131t-294.5 -49z" />
    <glyph glyph-name="gbreve" unicode="&#x11f;" horiz-adv-x="1144" 
d="M668 1114q-141 0 -213 81t-60 230h195q-6 -52 16 -84t74 -32t90 34t51 82h195q-27 -142 -118.5 -226.5t-229.5 -84.5zM399 -422q-194 0 -348 96l84 215q130 -82 266 -82q55 0 95.5 8.5t80 32.5t66 65.5t46.5 109.5t30 163l33 9l-35 12q-64 -93 -144.5 -143t-164.5 -50
q-83 0 -148.5 31.5t-106 87t-61 127t-20.5 154.5q0 115 36 224t98 193t153.5 134.5t195.5 50.5q162 0 252 -90l4 2l8 73h260l-106 -874q-16 -130 -55 -228t-91.5 -158.5t-123.5 -97.5t-143.5 -51t-160.5 -14zM473 246q97 0 187.5 112.5t117.5 288.5l8 51q-39 39 -92 61.5
t-106 22.5q-76 0 -136 -58t-89 -139t-29 -161q0 -84 36.5 -131t102.5 -47z" />
    <glyph glyph-name="Gdotaccent" unicode="&#x120;" horiz-adv-x="1423" 
d="M918 1569q-70 0 -116 46t-46 114q0 71 47.5 117t120.5 46q70 0 116.5 -44.5t46.5 -112.5q0 -71 -48 -118.5t-121 -47.5zM717 -18q-128 0 -235.5 38.5t-188 112.5t-125.5 191.5t-45 267.5q0 179 56 340.5t154 280.5t239.5 189.5t304.5 70.5q159 0 288 -64.5t209 -191.5
l-223 -168q-101 159 -289 159q-128 0 -231 -83.5t-159 -221.5t-56 -301q0 -173 82 -267.5t233 -94.5q137 0 264 86l31 221h-276l30 241h549l-74 -626q-99 -82 -243.5 -131t-294.5 -49z" />
    <glyph glyph-name="gdotaccent" unicode="&#x121;" horiz-adv-x="1144" 
d="M684 1141q-70 0 -116 45.5t-46 113.5q0 71 47.5 117.5t120.5 46.5q71 0 117.5 -45t46.5 -112q0 -71 -48.5 -118.5t-121.5 -47.5zM399 -422q-194 0 -348 96l84 215q130 -82 266 -82q55 0 95.5 8.5t80 32.5t66 65.5t46.5 109.5t30 163l33 9l-35 12q-64 -93 -144.5 -143
t-164.5 -50q-83 0 -148.5 31.5t-106 87t-61 127t-20.5 154.5q0 115 36 224t98 193t153.5 134.5t195.5 50.5q162 0 252 -90l4 2l8 73h260l-106 -874q-16 -130 -55 -228t-91.5 -158.5t-123.5 -97.5t-143.5 -51t-160.5 -14zM473 246q97 0 187.5 112.5t117.5 288.5l8 51
q-39 39 -92 61.5t-106 22.5q-76 0 -136 -58t-89 -139t-29 -161q0 -84 36.5 -131t102.5 -47z" />
    <glyph glyph-name="Gcommaaccent" unicode="&#x122;" horiz-adv-x="1423" 
d="M717 -18q-128 0 -235.5 38.5t-188 112.5t-125.5 191.5t-45 267.5q0 179 56 340.5t154 280.5t239.5 189.5t304.5 70.5q159 0 288 -64.5t209 -191.5l-223 -168q-101 159 -289 159q-128 0 -231 -83.5t-159 -221.5t-56 -301q0 -173 82 -267.5t233 -94.5q137 0 264 86l31 221
h-276l30 241h549l-74 -626q-99 -82 -243.5 -131t-294.5 -49zM500 -451l-31 152q65 21 91 51t26 90q0 9 -4 49h221v-47q0 -131 -78.5 -208t-224.5 -87z" />
    <glyph glyph-name="gcommaaccent" unicode="&#x123;" horiz-adv-x="1144" 
d="M872 1493l31 -152q-65 -21 -91 -51t-26 -90q0 -6 1 -13.5t2 -18t2 -17.5h-222v47q0 131 78.5 208t224.5 87zM399 -422q-194 0 -348 96l84 215q130 -82 266 -82q55 0 95.5 8.5t80 32.5t66 65.5t46.5 109.5t30 163l33 9l-35 12q-64 -93 -144.5 -143t-164.5 -50
q-83 0 -148.5 31.5t-106 87t-61 127t-20.5 154.5q0 115 36 224t98 193t153.5 134.5t195.5 50.5q162 0 252 -90l4 2l8 73h260l-106 -874q-16 -130 -55 -228t-91.5 -158.5t-123.5 -97.5t-143.5 -51t-160.5 -14zM473 246q97 0 187.5 112.5t117.5 288.5l8 51q-39 39 -92 61.5
t-106 22.5q-76 0 -136 -58t-89 -139t-29 -161q0 -84 36.5 -131t102.5 -47z" />
    <glyph glyph-name="Hcircumflex" unicode="&#x124;" horiz-adv-x="1404" 
d="M512 1575l236 276h256l161 -276h-231l-76 135h-6l-111 -135h-229zM106 0l179 1454h278l-78 -633h514l78 633h279l-178 -1454h-281l72 571h-514l-70 -571h-279z" />
    <glyph glyph-name="hcircumflex" unicode="&#x125;" horiz-adv-x="1130" 
d="M369 1597l235 277h256l162 -277h-231l-76 136h-6l-111 -136h-229zM72 0l186 1507h258l-82 -665l4 -2q142 176 348 176q153 0 211.5 -101t30.5 -309l-82 -606h-260l78 565q14 113 -3 165t-79 52q-91 0 -188 -119t-119 -298l-43 -365h-260z" />
    <glyph glyph-name="Hbar" unicode="&#x126;" horiz-adv-x="1415" 
d="M1421 1241l-20 -184h-90l-129 -1057h-281l72 571h-514l-70 -571h-278l129 1057h-90l22 184h90l27 213h278l-26 -213h514l26 213h279l-27 -213h88zM1004 821l28 236h-514l-29 -236h515z" />
    <glyph glyph-name="hbar" unicode="&#x127;" horiz-adv-x="1130" 
d="M786 1016q153 0 211.5 -101t30.5 -309l-82 -606h-260l78 565q14 113 -3 165t-79 52q-91 0 -188 -119t-119 -298l-43 -365h-260l141 1137h-109l19 168h110l25 202h258l-24 -202h329l-18 -168h-332l-37 -295l4 -2q142 176 348 176z" />
    <glyph glyph-name="Itilde" unicode="&#x128;" horiz-adv-x="634" 
d="M614 1571q-34 0 -68 12.5t-49 21.5t-42 29q-57 43 -93 43q-66 0 -116 -108l-154 78q103 211 248 211q17 0 32 -1.5t29.5 -6t23 -7t22.5 -10.5t17 -10t18 -13l16 -10q22 -16 31.5 -23t27.5 -14.5t33 -7.5q34 0 66.5 29t54.5 76l151 -60q-43 -103 -108 -166t-140 -63z
M115 0l178 1454h282l-178 -1454h-282z" />
    <glyph glyph-name="itilde" unicode="&#x129;" horiz-adv-x="536" 
d="M504 1126q-19 0 -36 3.5t-32 12t-24 14.5t-23.5 18t-19.5 16q-52 41 -84 41q-65 0 -115 -105l-141 74q41 95 101.5 154t133.5 59q12 0 23.5 -1t22 -3.5t18 -4t17.5 -6.5t14.5 -6.5t14.5 -8t12 -8t12.5 -9t11.5 -8.5q7 -5 22.5 -16.5t23.5 -17t20 -10.5t22 -5
q60 0 110 108l144 -61q-43 -104 -108.5 -167t-139.5 -63zM76 0l125 1001h260l-123 -1001h-262z" />
    <glyph glyph-name="Imacron" unicode="&#x12a;" horiz-adv-x="634" 
d="M168 1616l25 201h571l-27 -201h-569zM115 0l178 1454h282l-178 -1454h-282z" />
    <glyph glyph-name="imacron" unicode="&#x12b;" horiz-adv-x="536" 
d="M76 1194l24 209h572l-27 -209h-569zM76 0l125 1001h260l-123 -1001h-262z" />
    <glyph glyph-name="Ibreve" unicode="&#x12c;" horiz-adv-x="634" 
d="M451 1559q-144 0 -215 76.5t-60 213.5h195q-7 -43 16.5 -73.5t75.5 -30.5q51 0 89 32t50 72h195q-27 -131 -116.5 -210.5t-229.5 -79.5zM115 0l178 1454h282l-178 -1454h-282z" />
    <glyph glyph-name="ibreve" unicode="&#x12d;" horiz-adv-x="536" 
d="M367 1126q-117 0 -187 82.5t-61 225.5h182q-8 -60 12 -95.5t62 -35.5q45 0 74 36.5t32 94.5h187q-24 -140 -103 -224t-198 -84zM76 0l125 1001h260l-123 -1001h-262z" />
    <glyph glyph-name="Iogonek" unicode="&#x12e;" horiz-adv-x="634" 
d="M293 1454h282l-178 -1454h-18q-81 -12 -138 -65t-57 -111q0 -57 56 -57q46 0 75 16l4 -148q-50 -22 -147 -22q-95 0 -143.5 40t-48.5 116q0 65 37.5 128t97.5 105z" />
    <glyph glyph-name="iogonek" unicode="&#x12f;" horiz-adv-x="536" 
d="M377 1464q71 0 117.5 -45t46.5 -112q0 -71 -48.5 -118.5t-121.5 -47.5q-70 0 -116 45.5t-46 113.5q0 71 47.5 117.5t120.5 46.5zM78 12l123 989h260l-123 -1001h-12q-81 -12 -138 -65t-57 -111q0 -57 55 -57q47 0 76 16l4 -148q-50 -22 -147 -22q-95 0 -144 40.5
t-49 115.5q0 68 42.5 134t109.5 109z" />
    <glyph glyph-name="Idotaccent" unicode="&#x130;" horiz-adv-x="634" 
d="M459 1569q-70 0 -116 46t-46 114q0 71 47.5 117t120.5 46q71 0 117.5 -45t46.5 -112q0 -71 -48.5 -118.5t-121.5 -47.5zM115 0l178 1454h282l-178 -1454h-282z" />
    <glyph glyph-name="dotlessi" unicode="&#x131;" horiz-adv-x="536" 
d="M76 0l125 1001h260l-123 -1001h-262z" />
    <glyph glyph-name="IJ" unicode="&#x132;" horiz-adv-x="1609" 
d="M115 0l178 1454h282l-178 -1454h-282zM991 -18q-104 0 -197 50.5t-149 143.5l189 191q64 -119 155 -119q161 0 199 295l112 911h281l-115 -926q-33 -275 -146 -410.5t-329 -135.5z" />
    <glyph glyph-name="ij" unicode="&#x133;" horiz-adv-x="1038" 
d="M371 1141q-70 0 -116 45.5t-46 113.5q0 71 47.5 117.5t120.5 46.5q71 0 117.5 -45t46.5 -112q0 -71 -48.5 -118.5t-121.5 -47.5zM879 1141q-70 0 -116 45.5t-46 113.5q0 71 47.5 117.5t120.5 46.5q71 0 117.5 -45t46.5 -112q0 -71 -48.5 -118.5t-121.5 -47.5zM76 0
l125 1001h260l-123 -1001h-262zM520 -422q-108 0 -194 47l65 203q39 -29 84 -29q47 0 71.5 42t35.5 139l127 1021h260l-129 -1058q-47 -365 -320 -365z" />
    <glyph glyph-name="Jcircumflex" unicode="&#x134;" horiz-adv-x="974" 
d="M492 1575l235 276h256l162 -276h-232l-75 135h-7l-110 -135h-229zM356 -18q-104 0 -197 50.5t-149 143.5l189 191q64 -119 155 -119q161 0 199 295l113 911h280l-115 -926q-33 -275 -146 -410.5t-329 -135.5z" />
    <glyph glyph-name="jcircumflex" unicode="&#x135;" horiz-adv-x="501" 
d="M-2 1135l238 305h237l174 -305h-237l-62 153h-4l-100 -153h-246zM-16 -422q-109 0 -195 47l66 203q39 -29 84 -29q47 0 71 42t35 139l127 1021h260l-129 -1058q-47 -365 -319 -365z" />
    <glyph glyph-name="Kcommaaccent" unicode="&#x136;" horiz-adv-x="1271" 
d="M1356 1454l-539 -649l371 -805h-318l-264 604l-174 -205l-49 -399h-277l179 1454h276l-80 -653l6 -2l527 655h342zM475 -158q0 9 -4 49h221v-47q0 -131 -78.5 -208t-224.5 -87l-31 152q65 21 91 51t26 90z" />
    <glyph glyph-name="kcommaaccent" unicode="&#x137;" horiz-adv-x="1056" 
d="M891 -14q-36 -4 -66 -4q-46 1 -83.5 16t-63.5 37.5t-51 64.5t-41.5 80t-40.5 101l-21 55q-88 -58 -168 -92l-28 -244h-256l186 1507h258l-121 -993l4 -2q268 174 357 489h266q-56 -282 -293 -512l43 -112q38 -103 77 -138.5t109 -45.5zM274 -451l-30 152q65 21 90.5 51
t25.5 90q0 9 -4 49h222v-47q0 -131 -79 -208t-225 -87z" />
    <glyph glyph-name="kgreenlandic" unicode="&#x138;" horiz-adv-x="1054" 
d="M889 -14q-36 -4 -66 -4q-46 1 -83 16t-63 37.5t-51 64t-42 80.5t-41 101l-19 51q-63 -43 -166 -92l-28 -240h-258l125 1001h256l-58 -473l8 -4q267 171 351 477h266q-56 -280 -291 -512l41 -112q38 -103 77 -138.5t109 -45.5z" />
    <glyph glyph-name="Lacute" unicode="&#x139;" horiz-adv-x="1095" 
d="M543 1575l235 274l279 2l-266 -276h-248zM106 0l179 1454h278l-147 -1204h573l-31 -250h-852z" />
    <glyph glyph-name="lacute" unicode="&#x13a;" horiz-adv-x="536" 
d="M293 1602l235 274l279 2l-266 -276h-248zM82 0l184 1507h260l-186 -1507h-258z" />
    <glyph glyph-name="Lcommaaccent" unicode="&#x13b;" horiz-adv-x="1095" 
d="M106 0l179 1454h278l-147 -1204h573l-31 -250h-852zM319 -451l-30 152q65 21 91 51t26 90q0 6 -1 13.5t-2 18t-2 17.5h222v-47q0 -131 -79 -208t-225 -87z" />
    <glyph glyph-name="lcommaaccent" unicode="&#x13c;" horiz-adv-x="536" 
d="M82 0l184 1507h260l-186 -1507h-258zM2 -451l-31 152q65 21 91 51t26 90q0 9 -4 49h221v-47q0 -131 -78.5 -208t-224.5 -87z" />
    <glyph glyph-name="Lcaron" unicode="&#x13d;" horiz-adv-x="1103" 
d="M721 1188l110 422h259l-179 -422h-190zM106 0l179 1454h278l-147 -1204h573l-31 -250h-852z" />
    <glyph glyph-name="lcaron" unicode="&#x13e;" horiz-adv-x="655" 
d="M616 1188l111 422h256l-176 -422h-191zM82 0l184 1507h260l-186 -1507h-258z" />
    <glyph glyph-name="Ldot" unicode="&#x13f;" horiz-adv-x="1097" 
d="M106 0l179 1454h278l-147 -1204h573l-31 -250h-852zM868 535q-71 0 -115 44.5t-44 112.5q0 72 46 119t119 47q70 0 115 -45.5t45 -114.5q0 -71 -46.5 -117t-119.5 -46z" />
    <glyph glyph-name="ldot" unicode="&#x140;" horiz-adv-x="907" 
d="M82 0l184 1507h260l-186 -1507h-258zM721 358q-71 0 -115.5 45t-44.5 113q0 72 46.5 119t119.5 47q70 0 115 -45.5t45 -114.5q0 -71 -46.5 -117.5t-119.5 -46.5z" />
    <glyph glyph-name="Lslash" unicode="&#x141;" horiz-adv-x="1097" 
d="M418 250h573l-30 -250h-852l67 543l-149 -64l28 219l148 64l84 692h278l-69 -563l209 90l-29 -221l-207 -90z" />
    <glyph glyph-name="lslash" unicode="&#x142;" horiz-adv-x="628" 
d="M625 879l-25 -197l-141 -61l-76 -621h-258l61 500l-135 -60l25 195l133 59l100 813h260l-86 -692z" />
    <glyph glyph-name="Nacute" unicode="&#x143;" horiz-adv-x="1447" 
d="M664 1575l235 274l279 2l-267 -276h-247zM106 0l179 1454h270l442 -985l7 4l120 981h275l-180 -1454h-277l-436 967h-6l-119 -967h-275z" />
    <glyph glyph-name="nacute" unicode="&#x144;" horiz-adv-x="1130" 
d="M463 1139l244 299l274 2l-264 -301h-254zM72 0l125 1001h258l-19 -159l4 -2q145 176 346 176q153 0 211.5 -101t30.5 -309l-82 -606h-258l76 565q14 113 -3 165t-79 52q-41 0 -89 -29.5t-92 -81.5t-78 -131t-46 -169l-45 -371h-260z" />
    <glyph glyph-name="Ncommaaccent" unicode="&#x145;" horiz-adv-x="1447" 
d="M106 0l179 1454h270l442 -985l7 4l120 981h275l-180 -1454h-277l-436 967h-6l-119 -967h-275zM467 -451l-31 152q65 21 91 51t26 90q0 9 -4 49h221v-47q0 -131 -78.5 -208t-224.5 -87z" />
    <glyph glyph-name="ncommaaccent" unicode="&#x146;" horiz-adv-x="1130" 
d="M72 0l125 1001h258l-19 -159l4 -2q145 176 346 176q153 0 211.5 -101t30.5 -309l-82 -606h-258l76 565q14 113 -3 165t-79 52q-41 0 -89 -29.5t-92 -81.5t-78 -131t-46 -169l-45 -371h-260zM305 -451l-31 152q65 21 91 51t26 90q0 9 -4 49h221v-47q0 -131 -78.5 -208
t-224.5 -87z" />
    <glyph glyph-name="Ncaron" unicode="&#x147;" horiz-adv-x="1447" 
d="M741 1575l-163 276h231l78 -135h4l110 135h230l-234 -276h-256zM106 0l179 1454h270l442 -985l7 4l120 981h275l-180 -1454h-277l-436 967h-6l-119 -967h-275z" />
    <glyph glyph-name="ncaron" unicode="&#x148;" horiz-adv-x="1130" 
d="M541 1124l-154 301h229l70 -149h6l107 149h229l-231 -301h-256zM72 0l125 1001h258l-19 -159l4 -2q145 176 346 176q153 0 211.5 -101t30.5 -309l-82 -606h-258l76 565q14 113 -3 165t-79 52q-41 0 -89 -29.5t-92 -81.5t-78 -131t-46 -169l-45 -371h-260z" />
    <glyph glyph-name="napostrophe" unicode="&#x149;" horiz-adv-x="1370" 
d="M27 1016l110 438h256l-178 -438h-188zM311 0l125 1001h258l-18 -159l4 -2q145 176 346 176q153 0 211.5 -101t30.5 -309l-82 -606h-258l76 565q14 113 -3 165t-79 52q-41 0 -89 -29.5t-92 -81.5t-78.5 -131t-46.5 -169l-45 -371h-260z" />
    <glyph glyph-name="Eng" unicode="&#x14a;" horiz-adv-x="1447" 
d="M1124 1454h275l-180 -1454q-14 -118 -53.5 -201t-101.5 -129.5t-136.5 -67t-169.5 -20.5q-63 0 -127 15l37 219q50 -11 73 -11q93 0 140 48.5t59 146.5v4l-434 963h-6l-119 -967h-275l179 1454h270l442 -985l7 4z" />
    <glyph glyph-name="eng" unicode="&#x14b;" horiz-adv-x="1120" 
d="M520 -420q-64 0 -125 17l45 198q24 -6 47 -6q160 0 197 258l70 518q14 113 -3 165t-79 52q-88 0 -180 -117t-115 -294l-45 -371h-260l125 1001h258l-19 -159l4 -2q130 176 336 176q153 0 211.5 -101t30.5 -309l-80 -606q-27 -210 -137 -315t-281 -105z" />
    <glyph glyph-name="Omacron" unicode="&#x14c;" horiz-adv-x="1544" 
d="M676 1618l24 201h572l-27 -201h-569zM709 -18q-268 0 -427 163t-159 453q0 137 34.5 267t101.5 239.5t159 192.5t213.5 129.5t257.5 46.5q266 0 427 -163.5t161 -449.5q0 -142 -33 -273t-98.5 -240.5t-157 -191.5t-214.5 -127.5t-265 -45.5zM731 244q130 0 235.5 84.5
t162.5 222.5t57 297q0 181 -86.5 272.5t-239.5 91.5q-127 0 -231 -87t-160.5 -225t-56.5 -292q0 -179 86 -271.5t233 -92.5z" />
    <glyph glyph-name="omacron" unicode="&#x14d;" horiz-adv-x="1112" 
d="M371 1194l24 209h572l-27 -209h-569zM494 -18q-193 0 -306.5 113t-113.5 313q0 121 37 231t104 194t170 133.5t227 49.5q195 0 310.5 -110t115.5 -308q0 -128 -34.5 -238.5t-101 -195.5t-171.5 -133.5t-237 -48.5zM508 217q117 0 192.5 105.5t75.5 255.5
q0 60 -17.5 102.5t-46.5 63t-58 29.5t-60 9q-77 0 -137.5 -52t-91.5 -131.5t-31 -168.5q0 -97 48.5 -155t125.5 -58z" />
    <glyph glyph-name="Obreve" unicode="&#x14e;" horiz-adv-x="1544" 
d="M958 1561q-144 0 -214.5 76.5t-59.5 213.5h195q-7 -43 16.5 -73.5t75.5 -30.5q51 0 89 32t50 72h195q-27 -131 -117 -210.5t-230 -79.5zM709 -18q-268 0 -427 163t-159 453q0 137 34.5 267t101.5 239.5t159 192.5t213.5 129.5t257.5 46.5q266 0 427 -163.5t161 -449.5
q0 -142 -33 -273t-98.5 -240.5t-157 -191.5t-214.5 -127.5t-265 -45.5zM731 244q130 0 235.5 84.5t162.5 222.5t57 297q0 181 -86.5 272.5t-239.5 91.5q-127 0 -231 -87t-160.5 -225t-56.5 -292q0 -179 86 -271.5t233 -92.5z" />
    <glyph glyph-name="obreve" unicode="&#x14f;" horiz-adv-x="1112" 
d="M649 1114q-141 0 -212.5 81t-59.5 230h194q-6 -52 16.5 -84t74.5 -32t90 34t51 82h194q-27 -142 -118.5 -226.5t-229.5 -84.5zM494 -18q-193 0 -306.5 113t-113.5 313q0 121 37 231t104 194t170 133.5t227 49.5q195 0 310.5 -110t115.5 -308q0 -128 -34.5 -238.5
t-101 -195.5t-171.5 -133.5t-237 -48.5zM508 217q117 0 192.5 105.5t75.5 255.5q0 60 -17.5 102.5t-46.5 63t-58 29.5t-60 9q-77 0 -137.5 -52t-91.5 -131.5t-31 -168.5q0 -97 48.5 -155t125.5 -58z" />
    <glyph glyph-name="Ohungarumlaut" unicode="&#x150;" horiz-adv-x="1544" 
d="M618 1569l242 299l264 2l-264 -301h-242zM1016 1569l239 299l265 2l-265 -301h-239zM709 -18q-268 0 -427 163t-159 453q0 137 34.5 267t101.5 239.5t159 192.5t213.5 129.5t257.5 46.5q266 0 427 -163.5t161 -449.5q0 -142 -33 -273t-98.5 -240.5t-157 -191.5
t-214.5 -127.5t-265 -45.5zM731 244q130 0 235.5 84.5t162.5 222.5t57 297q0 181 -86.5 272.5t-239.5 91.5q-127 0 -231 -87t-160.5 -225t-56.5 -292q0 -179 86 -271.5t233 -92.5z" />
    <glyph glyph-name="ohungarumlaut" unicode="&#x151;" horiz-adv-x="1112" 
d="M334 1139l241 299l265 2l-265 -301h-241zM731 1139l240 299l264 2l-264 -301h-240zM494 -18q-193 0 -306.5 113t-113.5 313q0 121 37 231t104 194t170 133.5t227 49.5q195 0 310.5 -110t115.5 -308q0 -128 -34.5 -238.5t-101 -195.5t-171.5 -133.5t-237 -48.5zM508 217
q117 0 192.5 105.5t75.5 255.5q0 60 -17.5 102.5t-46.5 63t-58 29.5t-60 9q-77 0 -137.5 -52t-91.5 -131.5t-31 -168.5q0 -97 48.5 -155t125.5 -58z" />
    <glyph glyph-name="OE" unicode="&#x152;" horiz-adv-x="1806" 
d="M1755 1204h-565l-45 -360h450l-30 -246h-449l-43 -348h602l-30 -250h-936q-267 0 -426.5 159.5t-159.5 436.5q0 175 55.5 331.5t154 273.5t244.5 185t318 68h891zM731 260h68l114 936h-47q-129 1 -234.5 -81t-162.5 -216.5t-57 -288.5q0 -169 86.5 -259.5t232.5 -90.5z
" />
    <glyph glyph-name="oe" unicode="&#x153;" horiz-adv-x="1499" 
d="M1073 209q108 0 182 104l197 -131q-147 -198 -393 -198q-212 0 -318 149h-6q-130 -149 -323 -149q-169 0 -267 112t-98 301q0 167 59.5 307t175.5 226t267 86q192 0 278 -150h9q140 150 338 150q134 0 223.5 -65.5t89.5 -188.5q0 -85 -42 -156.5t-119.5 -124t-179 -90
t-228.5 -61.5q19 -60 62 -90.5t93 -30.5zM1149 791q-69 0 -138.5 -76.5t-92.5 -200.5q146 37 229.5 91.5t83.5 123.5q0 25 -21.5 43.5t-60.5 18.5zM440 219q91 0 159.5 106.5t68.5 264.5q0 93 -36 143.5t-91 50.5q-65 0 -119 -53t-84.5 -137.5t-30.5 -179.5
q0 -100 39.5 -147.5t93.5 -47.5z" />
    <glyph glyph-name="Racute" unicode="&#x154;" horiz-adv-x="1263" 
d="M555 1575l236 274l278 2l-266 -276h-248zM106 0l179 1454h508q403 0 403 -395q0 -185 -81 -317.5t-236 -194.5l254 -547h-308l-217 502h-166l-59 -502h-277zM473 750h170q121 0 191.5 78t70.5 214q0 78 -50 121t-130 43h-195z" />
    <glyph glyph-name="racute" unicode="&#x155;" horiz-adv-x="727" 
d="M279 1139l243 299l275 2l-265 -301h-253zM74 0l123 1001h260l-21 -163h4q129 178 312 178l-37 -291q-131 32 -220 -63.5t-116 -282.5l-45 -379h-260z" />
    <glyph glyph-name="Rcommaaccent" unicode="&#x156;" horiz-adv-x="1263" 
d="M106 0l179 1454h508q403 0 403 -395q0 -185 -81 -317.5t-236 -194.5l254 -547h-308l-217 502h-166l-59 -502h-277zM473 750h170q121 0 191.5 78t70.5 214q0 78 -50 121t-130 43h-195zM379 -451l-31 152q65 21 91 51t26 90q0 9 -4 49h221v-47q0 -131 -78.5 -208
t-224.5 -87z" />
    <glyph glyph-name="rcommaaccent" unicode="&#x157;" horiz-adv-x="727" 
d="M74 0l123 1001h260l-21 -163h4q129 178 312 178l-37 -291q-131 32 -220 -63.5t-116 -282.5l-45 -379h-260zM-8 -451l-31 152q65 21 91 51t26 90q0 9 -4 49h221v-47q0 -131 -78.5 -208t-224.5 -87z" />
    <glyph glyph-name="Rcaron" unicode="&#x158;" horiz-adv-x="1263" 
d="M633 1575l-164 276h231l78 -135h4l111 135h229l-233 -276h-256zM106 0l179 1454h508q403 0 403 -395q0 -185 -81 -317.5t-236 -194.5l254 -547h-308l-217 502h-166l-59 -502h-277zM473 750h170q121 0 191.5 78t70.5 214q0 78 -50 121t-130 43h-195z" />
    <glyph glyph-name="rcaron" unicode="&#x159;" horiz-adv-x="727" 
d="M393 1124l-153 301h229l70 -149h6l106 149h230l-232 -301h-256zM74 0l123 1001h260l-21 -163h4q129 178 312 178l-37 -291q-131 32 -220 -63.5t-116 -282.5l-45 -379h-260z" />
    <glyph glyph-name="Sacute" unicode="&#x15a;" horiz-adv-x="1138" 
d="M555 1575l236 274l278 2l-266 -276h-248zM535 -18q-155 0 -288 66.5t-208 187.5l201 180q46 -86 123.5 -133t160.5 -47q101 0 164.5 51t63.5 125q0 19 -5 35t-17 30.5t-23 25.5t-34.5 26t-40.5 25t-51.5 29.5t-56.5 32.5q-142 82 -187 115q-144 105 -168 241q-5 31 -5 64
q0 196 139.5 316.5t345.5 120.5q128 0 244 -57.5t190 -160.5l-200 -172q-97 140 -248 140q-81 0 -131.5 -44.5t-48.5 -109.5q1 -53 41.5 -91.5t148.5 -103.5q29 -17 74.5 -42.5t73 -41t65.5 -40t61.5 -44.5t49.5 -48.5t40 -57.5t23.5 -67.5t9.5 -81.5q0 -112 -39 -202
t-108 -148t-160.5 -88.5t-199.5 -30.5z" />
    <glyph glyph-name="sacute" unicode="&#x15b;" horiz-adv-x="868" 
d="M344 1139l244 299l274 2l-264 -301h-254zM389 -18q-110 0 -214.5 47t-162.5 125l158 161q44 -57 103.5 -88.5t119.5 -31.5q56 0 92.5 21t36.5 58q0 30 -30.5 51.5t-118.5 63.5q-14 6 -21 10q-120 56 -183 126t-63 173q0 142 103 230t254 88q102 0 194.5 -37.5
t157.5 -112.5l-164 -161q-73 98 -188 102q-44 0 -72.5 -22.5t-28.5 -59.5q0 -31 38.5 -61t115.5 -68q42 -21 66 -34t59.5 -35.5t56 -43t41.5 -48t31 -60t10 -70.5q1 -152 -105 -237.5t-286 -85.5z" />
    <glyph glyph-name="Scircumflex" unicode="&#x15c;" horiz-adv-x="1138" 
d="M358 1575l236 276h256l162 -276h-232l-75 135h-7l-110 -135h-230zM535 -18q-155 0 -288 66.5t-208 187.5l201 180q46 -86 123.5 -133t160.5 -47q101 0 164.5 51t63.5 125q0 19 -5 35t-17 30.5t-23 25.5t-34.5 26t-40.5 25t-51.5 29.5t-56.5 32.5q-142 82 -187 115
q-144 105 -168 241q-5 31 -5 64q0 196 139.5 316.5t345.5 120.5q128 0 244 -57.5t190 -160.5l-200 -172q-97 140 -248 140q-81 0 -131.5 -44.5t-48.5 -109.5q1 -53 41.5 -91.5t148.5 -103.5q29 -17 74.5 -42.5t73 -41t65.5 -40t61.5 -44.5t49.5 -48.5t40 -57.5t23.5 -67.5
t9.5 -81.5q0 -112 -39 -202t-108 -148t-160.5 -88.5t-199.5 -30.5z" />
    <glyph glyph-name="scircumflex" unicode="&#x15d;" horiz-adv-x="868" 
d="M186 1135l238 305h238l174 -305h-238l-61 153h-5l-100 -153h-246zM389 -18q-110 0 -214.5 47t-162.5 125l158 161q44 -57 103.5 -88.5t119.5 -31.5q56 0 92.5 21t36.5 58q0 30 -30.5 51.5t-118.5 63.5q-14 6 -21 10q-120 56 -183 126t-63 173q0 142 103 230t254 88
q102 0 194.5 -37.5t157.5 -112.5l-164 -161q-73 98 -188 102q-44 0 -72.5 -22.5t-28.5 -59.5q0 -31 38.5 -61t115.5 -68q42 -21 66 -34t59.5 -35.5t56 -43t41.5 -48t31 -60t10 -70.5q1 -152 -105 -237.5t-286 -85.5z" />
    <glyph glyph-name="Scedilla" unicode="&#x15e;" horiz-adv-x="1138" 
d="M645 874q29 -17 74.5 -42.5t73 -41t65.5 -40t61.5 -44.5t49.5 -48.5t40 -57.5t23.5 -67.5t9.5 -81.5q0 -221 -141 -344t-362 -125l-31 -43l2 -2q154 -6 154 -138q0 -93 -69.5 -142.5t-188.5 -49.5q-43 0 -105 12l6 119q30 -12 76 -12q52 0 83.5 18.5t31.5 54.5
q0 27 -33 39t-105 12l5 76l41 68q-117 24 -212.5 85.5t-154.5 156.5l201 180q46 -86 123.5 -133t160.5 -47q101 0 164.5 51t63.5 125q0 19 -5 35t-17 30.5t-23 25.5t-34.5 26t-40.5 25t-51.5 29.5t-56.5 32.5q-142 82 -187 115q-144 105 -168 241q-5 31 -5 64
q0 196 139.5 316.5t345.5 120.5q128 0 244 -57.5t190 -160.5l-200 -172q-97 140 -248 140q-81 0 -131.5 -44.5t-48.5 -109.5q1 -53 41.5 -91.5t148.5 -103.5z" />
    <glyph glyph-name="scedilla" unicode="&#x15f;" horiz-adv-x="868" 
d="M516 596q42 -21 66 -34t59.5 -35.5t56 -43t41.5 -48t31 -60t10 -70.5q1 -152 -105 -237.5t-286 -85.5h-4l-31 -43l2 -2q154 -6 154 -138q0 -93 -69.5 -142.5t-188.5 -49.5q-43 0 -105 12l7 119q30 -12 75 -12q52 0 83.5 18.5t31.5 54.5q0 27 -32.5 39t-104.5 12l4 76
l43 74q-164 45 -242 154l158 161q44 -57 103.5 -88.5t119.5 -31.5q56 0 92.5 21t36.5 58q0 30 -30.5 51.5t-118.5 63.5q-14 6 -21 10q-120 56 -183 126t-63 173q0 142 103 230t254 88q102 0 194.5 -37.5t157.5 -112.5l-164 -161q-73 98 -188 102q-44 0 -72.5 -22.5
t-28.5 -59.5q0 -31 38.5 -61t115.5 -68z" />
    <glyph glyph-name="Scaron" unicode="&#x160;" horiz-adv-x="1138" 
d="M555 1575l-164 276h232l77 -135h5l110 135h229l-233 -276h-256zM535 -18q-155 0 -288 66.5t-208 187.5l201 180q46 -86 123.5 -133t160.5 -47q101 0 164.5 51t63.5 125q0 19 -5 35t-17 30.5t-23 25.5t-34.5 26t-40.5 25t-51.5 29.5t-56.5 32.5q-142 82 -187 115
q-144 105 -168 241q-5 31 -5 64q0 196 139.5 316.5t345.5 120.5q128 0 244 -57.5t190 -160.5l-200 -172q-97 140 -248 140q-81 0 -131.5 -44.5t-48.5 -109.5q1 -53 41.5 -91.5t148.5 -103.5q29 -17 74.5 -42.5t73 -41t65.5 -40t61.5 -44.5t49.5 -48.5t40 -57.5t23.5 -67.5
t9.5 -81.5q0 -112 -39 -202t-108 -148t-160.5 -88.5t-199.5 -30.5z" />
    <glyph glyph-name="scaron" unicode="&#x161;" horiz-adv-x="868" 
d="M383 1124l-154 301h230l69 -149h7l106 149h229l-231 -301h-256zM389 -18q-110 0 -214.5 47t-162.5 125l158 161q44 -57 103.5 -88.5t119.5 -31.5q56 0 92.5 21t36.5 58q0 30 -30.5 51.5t-118.5 63.5q-14 6 -21 10q-120 56 -183 126t-63 173q0 142 103 230t254 88
q102 0 194.5 -37.5t157.5 -112.5l-164 -161q-73 98 -188 102q-44 0 -72.5 -22.5t-28.5 -59.5q0 -31 38.5 -61t115.5 -68q42 -21 66 -34t59.5 -35.5t56 -43t41.5 -48t31 -60t10 -70.5q1 -152 -105 -237.5t-286 -85.5z" />
    <glyph glyph-name="uni0162" unicode="&#x162;" horiz-adv-x="1112" 
d="M176 1454h993l-30 -250h-359l-147 -1204h-111l-43 -61l2 -2q154 -6 154 -138q0 -93 -69.5 -142.5t-188.5 -49.5q-43 0 -105 12l7 119q30 -12 75 -12q52 0 83.5 18.5t31.5 54.5q0 27 -32.5 39t-104.5 12l4 76l43 74h-25l148 1204h-355z" />
    <glyph glyph-name="uni0163" unicode="&#x163;" horiz-adv-x="696" 
d="M440 784l-55 -456q-14 -103 57 -103q52 0 125 43l39 -215q-117 -68 -250 -71l-30 -43l2 -2q153 -6 153 -138q0 -93 -69.5 -142.5t-188.5 -49.5q-42 0 -104 12l6 119q30 -12 76 -12q51 0 82.5 18.5t31.5 54.5q0 27 -32.5 39t-104.5 12l4 76l47 80q-134 64 -110 281l61 497
h-104l26 217h103l41 304l264 51l-43 -355h227l-26 -217h-228z" />
    <glyph glyph-name="Tcaron" unicode="&#x164;" horiz-adv-x="1112" 
d="M555 1575l-164 276h232l77 -135h5l110 135h229l-233 -276h-256zM354 0l148 1204h-355l29 250h993l-30 -250h-359l-147 -1204h-279z" />
    <glyph glyph-name="tcaron" unicode="&#x165;" horiz-adv-x="731" 
d="M596 1188l111 422h254l-177 -422h-188zM346 -18q-124 0 -184 78.5t-43 226.5l61 497h-104l26 217h103l41 304l264 51l-43 -355h227l-26 -217h-228l-55 -456q-14 -103 57 -103q52 0 125 43l39 -215q-121 -71 -260 -71z" />
    <glyph glyph-name="Tbar" unicode="&#x166;" horiz-adv-x="1112" 
d="M1139 1204h-359l-51 -422h213l-27 -202h-210l-72 -580h-279l72 580h-205l25 202h205l51 422h-355l29 250h993z" />
    <glyph glyph-name="tbar" unicode="&#x167;" horiz-adv-x="696" 
d="M668 784h-228l-20 -161h186l-22 -168h-183l-16 -127q-14 -103 57 -103q52 0 125 43l39 -215q-121 -71 -260 -71q-124 0 -184 78.5t-43 226.5l20 168h-90l21 168h90l20 161h-104l26 217h103l41 304l264 51l-43 -355h227z" />
    <glyph glyph-name="Utilde" unicode="&#x168;" horiz-adv-x="1370" 
d="M993 1573q-34 0 -68 12.5t-49 21.5t-42 29q-57 43 -93 43q-66 0 -116 -108l-154 78q103 211 248 211q17 0 32 -1.5t29.5 -6t23 -7t22.5 -10.5t17 -10t19 -13l15 -10q22 -16 31.5 -23t27.5 -14.5t33 -7.5q34 0 66.5 29t54.5 76l151 -60q-43 -103 -108 -166t-140 -63z
M627 -18q-137 0 -236 46.5t-154.5 133t-74 204.5t-0.5 267l102 821h279l-103 -829q-12 -78 -5.5 -147t27.5 -120.5t68 -81.5t115 -30q129 0 208 83.5t103 274.5l105 850h278l-104 -852q-39 -324 -188.5 -472t-419.5 -148z" />
    <glyph glyph-name="utilde" unicode="&#x169;" horiz-adv-x="1110" 
d="M805 1130q-22 0 -41 4t-37.5 12.5t-28.5 14t-28 18.5t-21 15q-54 41 -92 41q-72 0 -123 -107l-153 78q45 107 109 168.5t142 61.5q23 0 42.5 -3t37 -11t26.5 -13t26 -17t20 -14q25 -18 34 -24t26 -13.5t32 -7.5q35 0 67.5 29.5t55.5 77.5l154 -62q-44 -116 -108.5 -182
t-139.5 -66zM365 -18q-155 0 -223 95t-40 306l88 618h259l-78 -567q-18 -120 2.5 -168.5t83.5 -48.5q79 0 168.5 103.5t107.5 238.5l53 442h261l-123 -1001h-258l18 164h-4q-130 -182 -315 -182z" />
    <glyph glyph-name="Umacron" unicode="&#x16a;" horiz-adv-x="1370" 
d="M547 1618l24 201h572l-27 -201h-569zM627 -18q-137 0 -236 46.5t-154.5 133t-74 204.5t-0.5 267l102 821h279l-103 -829q-12 -78 -5.5 -147t27.5 -120.5t68 -81.5t115 -30q129 0 208 83.5t103 274.5l105 850h278l-104 -852q-39 -324 -188.5 -472t-419.5 -148z" />
    <glyph glyph-name="umacron" unicode="&#x16b;" horiz-adv-x="1110" 
d="M360 1194l25 209h571l-26 -209h-570zM365 -18q-155 0 -223 95t-40 306l88 618h259l-78 -567q-18 -120 2.5 -168.5t83.5 -48.5q79 0 168.5 103.5t107.5 238.5l53 442h261l-123 -1001h-258l18 164h-4q-130 -182 -315 -182z" />
    <glyph glyph-name="Ubreve" unicode="&#x16c;" horiz-adv-x="1370" 
d="M829 1561q-144 0 -214.5 76.5t-59.5 213.5h195q-7 -43 16.5 -73.5t75.5 -30.5q51 0 89 32t50 72h195q-27 -131 -117 -210.5t-230 -79.5zM627 -18q-137 0 -236 46.5t-154.5 133t-74 204.5t-0.5 267l102 821h279l-103 -829q-12 -78 -5.5 -147t27.5 -120.5t68 -81.5t115 -30
q129 0 208 83.5t103 274.5l105 850h278l-104 -852q-39 -324 -188.5 -472t-419.5 -148z" />
    <glyph glyph-name="ubreve" unicode="&#x16d;" horiz-adv-x="1110" 
d="M639 1114q-141 0 -212.5 81t-59.5 230h194q-6 -52 16 -84t74 -32t90.5 34t51.5 82h194q-27 -142 -118.5 -226.5t-229.5 -84.5zM365 -18q-155 0 -223 95t-40 306l88 618h259l-78 -567q-18 -120 2.5 -168.5t83.5 -48.5q79 0 168.5 103.5t107.5 238.5l53 442h261l-123 -1001
h-258l18 164h-4q-130 -182 -315 -182z" />
    <glyph glyph-name="Uring" unicode="&#x16e;" horiz-adv-x="1370" 
d="M840 1548q-90 0 -150.5 60.5t-60.5 150.5q0 94 62.5 155.5t156.5 61.5q91 0 151 -60t60 -149q0 -95 -62.5 -157t-156.5 -62zM844 1686q34 0 56 22t22 55q0 32 -22 54t-54 22q-33 0 -55.5 -22.5t-22.5 -55.5t21 -54t55 -21zM627 -18q-137 0 -236 46.5t-154.5 133
t-74 204.5t-0.5 267l102 821h279l-103 -829q-12 -78 -5.5 -147t27.5 -120.5t68 -81.5t115 -30q129 0 208 83.5t103 274.5l105 850h278l-104 -852q-39 -324 -188.5 -472t-419.5 -148z" />
    <glyph glyph-name="uring" unicode="&#x16f;" horiz-adv-x="1110" 
d="M659 1104q-89 0 -149.5 60t-60.5 151q0 94 62.5 155.5t156.5 61.5q91 0 151 -60t60 -149q0 -95 -63 -157t-157 -62zM664 1241q33 0 55 22.5t22 55.5q0 32 -21.5 54t-53.5 22q-33 0 -55.5 -22.5t-22.5 -55.5t21.5 -54.5t54.5 -21.5zM365 -18q-155 0 -223 95t-40 306
l88 618h259l-78 -567q-18 -120 2.5 -168.5t83.5 -48.5q79 0 168.5 103.5t107.5 238.5l53 442h261l-123 -1001h-258l18 164h-4q-130 -182 -315 -182z" />
    <glyph glyph-name="Uhungarumlaut" unicode="&#x170;" horiz-adv-x="1370" 
d="M489 1569l242 299l264 2l-264 -301h-242zM887 1569l239 299l265 2l-265 -301h-239zM627 -18q-137 0 -236 46.5t-154.5 133t-74 204.5t-0.5 267l102 821h279l-103 -829q-12 -78 -5.5 -147t27.5 -120.5t68 -81.5t115 -30q129 0 208 83.5t103 274.5l105 850h278l-104 -852
q-39 -324 -188.5 -472t-419.5 -148z" />
    <glyph glyph-name="uhungarumlaut" unicode="&#x171;" horiz-adv-x="1110" 
d="M324 1139l241 299l264 2l-264 -301h-241zM721 1139l240 299l264 2l-264 -301h-240zM365 -18q-155 0 -223 95t-40 306l88 618h259l-78 -567q-18 -120 2.5 -168.5t83.5 -48.5q79 0 168.5 103.5t107.5 238.5l53 442h261l-123 -1001h-258l18 164h-4q-130 -182 -315 -182z" />
    <glyph glyph-name="Uogonek" unicode="&#x172;" horiz-adv-x="1370" 
d="M1061 1454h278l-104 -852q-32 -263 -136 -409t-284 -191q-79 -29 -131.5 -78t-52.5 -100q0 -26 14.5 -41.5t38.5 -15.5q39 0 78 16l2 -148q-50 -22 -146 -22q-192 0 -192 156q0 57 31 113t82 100l-2 6q-149 19 -241.5 105t-124 222t-9.5 318l102 821h279l-103 -829
q-12 -78 -5.5 -147t27.5 -120.5t68 -81.5t115 -30q129 0 208 83.5t103 274.5z" />
    <glyph glyph-name="uogonek" unicode="&#x173;" horiz-adv-x="1110" 
d="M786 1001h261l-123 -1001h-11q-81 -12 -137.5 -64.5t-56.5 -111.5q0 -57 55 -57q47 0 76 16l4 -148q-50 -22 -147 -22q-95 0 -144 40.5t-49 115.5q0 70 43.5 136t110.5 109l16 150h-4q-130 -182 -315 -182q-155 0 -223 95t-40 306l88 618h259l-78 -567
q-18 -120 2.5 -168.5t83.5 -48.5q79 0 168.5 103.5t107.5 238.5z" />
    <glyph glyph-name="Wcircumflex" unicode="&#x174;" horiz-adv-x="1929" 
d="M768 1575l236 276h256l161 -276h-231l-76 135h-6l-111 -135h-229zM403 0l-231 1454h289l131 -995h6l336 995h297l98 -969h6l359 969h301l-590 -1454h-266l-115 1010h-4l-354 -1010h-263z" />
    <glyph glyph-name="wcircumflex" unicode="&#x175;" horiz-adv-x="1583" 
d="M557 1135l238 305h237l174 -305h-237l-62 153h-4l-100 -153h-246zM354 -18q-152 0 -218 108.5t-38 312.5l82 598h258l-73 -557q-15 -120 6 -173.5t78 -53.5q28 0 60.5 17t68.5 54t65 111t41 172l53 430h256l-69 -575q-15 -114 3.5 -161.5t71.5 -47.5q26 0 54 13t59 43
t58 74.5t50.5 113.5t36.5 153q31 172 3 387h264q38 -221 -4 -448q-26 -151 -82.5 -264t-132 -178.5t-161 -97t-179.5 -31.5q-116 0 -188.5 54.5t-90.5 137.5h-4q-50 -87 -146.5 -139.5t-181.5 -52.5z" />
    <glyph glyph-name="Ycircumflex" unicode="&#x176;" horiz-adv-x="1189" 
d="M395 1575l236 276h256l162 -276h-232l-76 135h-6l-110 -135h-230zM391 0l80 639l-334 815h307l193 -551h6l328 551h321l-540 -815l-80 -639h-281z" />
    <glyph glyph-name="ycircumflex" unicode="&#x177;" horiz-adv-x="1105" 
d="M651 1288l-100 -153h-246l238 305h237l174 -305h-237l-62 153h-4zM788 1001h256l-106 -872q-15 -130 -54 -229t-91 -159t-121.5 -97.5t-138 -51.5t-148.5 -14q-198 0 -352 96l82 211q131 -84 262 -84q63 0 108.5 13.5t87 49t69 104.5t40.5 173l2 21l-4 2
q-130 -182 -322 -182q-155 0 -222.5 95t-37.5 306l84 618h258l-75 -567q-15 -122 4.5 -168.5t83.5 -48.5q84 0 174.5 108t107.5 248z" />
    <glyph glyph-name="Ydieresis" unicode="&#x178;" horiz-adv-x="1189" 
d="M528 1571q-70 0 -115.5 46t-45.5 114q0 71 47.5 117t120.5 46q70 0 115.5 -44.5t45.5 -112.5q0 -71 -47.5 -118.5t-120.5 -47.5zM942 1571q-71 0 -117.5 46t-46.5 114q0 70 48 116.5t122 46.5q70 0 116 -44.5t46 -112.5q0 -71 -47.5 -118.5t-120.5 -47.5zM391 0l80 639
l-334 815h307l193 -551h6l328 551h321l-540 -815l-80 -639h-281z" />
    <glyph glyph-name="Zacute" unicode="&#x179;" horiz-adv-x="1189" 
d="M522 1575l236 274l278 2l-266 -276h-248zM47 0l25 219l735 979l-2 6h-588l29 250h948l-25 -213l-749 -983l4 -8h623l-31 -250h-969z" />
    <glyph glyph-name="zacute" unicode="&#x17a;" horiz-adv-x="937" 
d="M346 1139l244 299l274 2l-264 -301h-254zM762 -57q-100 27 -240 40t-236 15t-272 2l21 178l493 606v2h-383l25 215h735l-18 -178l-502 -606v-4q268 -7 442 -63z" />
    <glyph glyph-name="Zdotaccent" unicode="&#x17b;" horiz-adv-x="1189" 
d="M741 1571q-70 0 -115.5 46t-45.5 114q0 71 47.5 117t120.5 46q70 0 116.5 -44.5t46.5 -112.5q0 -71 -48.5 -118.5t-121.5 -47.5zM47 0l25 219l735 979l-2 6h-588l29 250h948l-25 -213l-749 -983l4 -8h623l-31 -250h-969z" />
    <glyph glyph-name="zdotaccent" unicode="&#x17c;" horiz-adv-x="937" 
d="M569 1141q-70 0 -115.5 45.5t-45.5 113.5q0 71 47 117.5t120 46.5q71 0 117.5 -45t46.5 -112q0 -71 -48.5 -118.5t-121.5 -47.5zM762 -57q-100 27 -240 40t-236 15t-272 2l21 178l493 606v2h-383l25 215h735l-18 -178l-502 -606v-4q268 -7 442 -63z" />
    <glyph glyph-name="Zcaron" unicode="&#x17d;" horiz-adv-x="1189" 
d="M600 1575l-164 276h232l77 -135h5l110 135h230l-234 -276h-256zM47 0l25 219l735 979l-2 6h-588l29 250h948l-25 -213l-749 -983l4 -8h623l-31 -250h-969z" />
    <glyph glyph-name="zcaron" unicode="&#x17e;" horiz-adv-x="937" 
d="M422 1124l-154 301h230l69 -149h6l107 149h229l-231 -301h-256zM762 -57q-100 27 -240 40t-236 15t-272 2l21 178l493 606v2h-383l25 215h735l-18 -178l-502 -606v-4q268 -7 442 -63z" />
    <glyph glyph-name="longs" unicode="&#x17f;" horiz-adv-x="645" 
d="M84 0l94 784h-90l27 217h92l22 189q20 166 101 251t215 85q131 0 233 -72l-67 -203q-64 43 -119 43q-45 0 -71.5 -32t-37.5 -123l-141 -1139h-258z" />
    <glyph glyph-name="uni018F" unicode="&#x18f;" horiz-adv-x="1460" 
d="M821 1473q264 0 421 -163t157 -450q0 -142 -31.5 -273t-94.5 -240.5t-150 -191.5t-204.5 -127.5t-252.5 -45.5q-260 0 -417 161.5t-157 440.5q0 82 29 213h989q2 16 2 51q0 176 -89 270t-232 94q-174 0 -324 -127l-164 207q234 181 518 181zM682 244q124 0 223.5 85.5
t155.5 227.5h-692q9 -152 93.5 -232.5t219.5 -80.5z" />
    <glyph glyph-name="florin" unicode="&#x192;" horiz-adv-x="1007" 
d="M102 -311q-112 0 -181 28.5t-95 63.5l108 172q62 -33 125 -33q71 0 113.5 42.5t65.5 141.5l149 639h-143l57 220h145l52 219q82 344 368 344q109 0 179 -29t100 -63l-111 -172q-69 32 -125 32q-60 0 -100 -43.5t-61 -142.5l-33 -145h239l-57 -220h-242l-168 -710
q-41 -175 -135 -259.5t-250 -84.5z" />
    <glyph glyph-name="uni019D" unicode="&#x19d;" horiz-adv-x="1443" 
d="M16 -418q-73 0 -141 15l37 219q50 -11 70 -11q63 0 87 45t37 156l179 1448h270l430 -985l6 4l129 981h275l-189 -1454h-276l-424 967h-6l-125 -1010q-14 -112 -45 -187t-79 -115.5t-103.5 -56.5t-131.5 -16z" />
    <glyph glyph-name="Ohorn" unicode="&#x1a0;" horiz-adv-x="1646" 
d="M1495 1585h227l-22 -182q-20 -152 -84 -240t-162 -112q23 -94 23 -191q0 -142 -33 -273t-98.5 -240.5t-157 -191.5t-214.5 -127.5t-265 -45.5q-268 0 -427 163t-159 453q0 137 34.5 267t101.5 239.5t159 192.5t213.5 129.5t257.5 46.5q173 0 306 -72t206 -207
q32 22 46.5 77.5t27.5 160.5zM731 244q130 0 235.5 84.5t162.5 222.5t57 297q0 181 -86.5 272.5t-239.5 91.5q-127 0 -231 -87t-160.5 -225t-56.5 -292q0 -179 86 -271.5t233 -92.5z" />
    <glyph glyph-name="ohorn" unicode="&#x1a1;" horiz-adv-x="1300" 
d="M1120 1157h228l-23 -182q-23 -169 -97 -258.5t-190 -100.5v-18q0 -128 -34.5 -238.5t-101 -195.5t-171.5 -133.5t-237 -48.5q-193 0 -306.5 113t-113.5 313q0 121 37 231t104 194t170 133.5t227 49.5q150 0 255.5 -66t146.5 -190q38 17 54.5 73t31.5 171zM508 217
q117 0 192.5 105.5t75.5 255.5q0 60 -17.5 102.5t-46.5 63t-58 29.5t-60 9q-77 0 -137.5 -52t-91.5 -131.5t-31 -168.5q0 -97 48.5 -155t125.5 -58z" />
    <glyph glyph-name="Uhorn" unicode="&#x1af;" horiz-adv-x="1572" 
d="M1473 1585h227l-23 -182q-24 -181 -107.5 -271t-211.5 -90q-28 0 -68 7l-55 -447q-39 -324 -188.5 -472t-419.5 -148q-137 0 -236 46.5t-154.5 133t-74 204.5t-0.5 267l102 821h279l-103 -829q-12 -78 -5.5 -147t27.5 -120.5t68 -81.5t115 -30q129 0 208 83.5t103 274.5
l105 850h278l-32 -268q20 -4 28 -4q20 0 36 8t27.5 27t19.5 37t14.5 52.5t10 57.5t9.5 68z" />
    <glyph glyph-name="uhorn" unicode="&#x1b0;" horiz-adv-x="1339" 
d="M1174 1157h227l-23 -182q-24 -181 -107.5 -271t-211.5 -90q-20 0 -60 4l-75 -618h-258l18 164h-4q-130 -182 -315 -182q-155 0 -223 95t-40 306l88 618h259l-78 -567q-18 -120 2.5 -168.5t83.5 -48.5q79 0 168.5 103.5t107.5 238.5l53 442h261l-31 -245q8 -2 20 -2
q20 0 36 8t27.5 27t19.5 37t14.5 52.5t10 57.5t9.5 68z" />
    <glyph glyph-name="uni01CD" unicode="&#x1cd;" horiz-adv-x="1314" 
d="M670 1575l-164 276h231l78 -135h4l111 135h229l-233 -276h-256zM-25 0l660 1454h278l306 -1454h-291l-54 295h-485l-125 -295h-289zM485 535h349l-105 575h-4z" />
    <glyph glyph-name="uni01CE" unicode="&#x1ce;" horiz-adv-x="1142" 
d="M537 1124l-154 301h229l70 -149h6l107 149h229l-231 -301h-256zM406 -18q-163 0 -249.5 114.5t-86.5 292.5q0 167 61 310t172.5 230t249.5 87q164 0 250 -92l6 2l10 73h260l-123 -999h-260l21 168l-6 2q-64 -91 -143 -139.5t-162 -48.5zM473 213q64 0 127 52.5t113.5 158
t68.5 242.5l4 32q-84 84 -200 84q-76 0 -136 -59.5t-89 -146t-29 -179.5q0 -86 37 -135t104 -49z" />
    <glyph glyph-name="uni01CF" unicode="&#x1cf;" horiz-adv-x="634" 
d="M317 1573l-163 276h231l78 -135h4l111 135h229l-234 -276h-256zM115 0l178 1454h282l-178 -1454h-282z" />
    <glyph glyph-name="uni01D0" unicode="&#x1d0;" horiz-adv-x="536" 
d="M223 1124l-153 301h229l70 -149h6l106 149h230l-232 -301h-256zM76 0l125 1001h260l-123 -1001h-262z" />
    <glyph glyph-name="uni01D1" unicode="&#x1d1;" horiz-adv-x="1544" 
d="M825 1575l-163 276h231l78 -135h4l110 135h230l-234 -276h-256zM709 -18q-268 0 -427 163t-159 453q0 137 34.5 267t101.5 239.5t159 192.5t213.5 129.5t257.5 46.5q266 0 427 -163.5t161 -449.5q0 -142 -33 -273t-98.5 -240.5t-157 -191.5t-214.5 -127.5t-265 -45.5z
M731 244q130 0 235.5 84.5t162.5 222.5t57 297q0 181 -86.5 272.5t-239.5 91.5q-127 0 -231 -87t-160.5 -225t-56.5 -292q0 -179 86 -271.5t233 -92.5z" />
    <glyph glyph-name="uni01D2" unicode="&#x1d2;" horiz-adv-x="1112" 
d="M518 1124l-153 301h229l70 -149h6l106 149h230l-232 -301h-256zM494 -18q-193 0 -306.5 113t-113.5 313q0 121 37 231t104 194t170 133.5t227 49.5q195 0 310.5 -110t115.5 -308q0 -128 -34.5 -238.5t-101 -195.5t-171.5 -133.5t-237 -48.5zM508 217q117 0 192.5 105.5
t75.5 255.5q0 60 -17.5 102.5t-46.5 63t-58 29.5t-60 9q-77 0 -137.5 -52t-91.5 -131.5t-31 -168.5q0 -97 48.5 -155t125.5 -58z" />
    <glyph glyph-name="uni01D3" unicode="&#x1d3;" horiz-adv-x="1370" 
d="M696 1575l-164 276h232l78 -135h4l110 135h230l-234 -276h-256zM627 -18q-137 0 -236 46.5t-154.5 133t-74 204.5t-0.5 267l102 821h279l-103 -829q-12 -78 -5.5 -147t27.5 -120.5t68 -81.5t115 -30q129 0 208 83.5t103 274.5l105 850h278l-104 -852
q-39 -324 -188.5 -472t-419.5 -148z" />
    <glyph glyph-name="uni01D4" unicode="&#x1d4;" horiz-adv-x="1110" 
d="M508 1124l-154 301h230l69 -149h6l107 149h229l-231 -301h-256zM365 -18q-155 0 -223 95t-40 306l88 618h259l-78 -567q-18 -120 2.5 -168.5t83.5 -48.5q79 0 168.5 103.5t107.5 238.5l53 442h261l-123 -1001h-258l18 164h-4q-130 -182 -315 -182z" />
    <glyph glyph-name="uni01D5" unicode="&#x1d5;" horiz-adv-x="1370" 
d="M567 1921l21 158h571l-20 -158h-572zM631 1571q-61 0 -101.5 38t-40.5 95q0 60 42 99.5t106 39.5q61 0 102 -38t41 -95q0 -60 -42.5 -99.5t-106.5 -39.5zM1026 1571q-61 0 -101 38t-40 95q0 60 41.5 99.5t105.5 39.5q62 0 103 -38t41 -95q0 -60 -42.5 -99.5t-107.5 -39.5
zM627 -18q-137 0 -236 46.5t-154.5 133t-74 204.5t-0.5 267l102 821h279l-103 -829q-12 -78 -5.5 -147t27.5 -120.5t68 -81.5t115 -30q129 0 208 83.5t103 274.5l105 850h278l-104 -852q-39 -324 -188.5 -472t-419.5 -148z" />
    <glyph glyph-name="uni01D6" unicode="&#x1d6;" horiz-adv-x="1110" 
d="M387 1540l23 172h571l-23 -172h-571zM446 1141q-66 0 -109.5 43t-43.5 106q0 67 45.5 111.5t114.5 44.5q65 0 109 -43t44 -107q0 -67 -45.5 -111t-114.5 -44zM840 1141q-67 0 -110.5 42.5t-43.5 106.5q0 68 44.5 112t113.5 44q66 0 109.5 -42.5t43.5 -107.5
q0 -67 -44.5 -111t-112.5 -44zM365 -18q-155 0 -223 95t-40 306l88 618h259l-78 -567q-18 -120 2.5 -168.5t83.5 -48.5q79 0 168.5 103.5t107.5 238.5l53 442h261l-123 -1001h-258l18 164h-4q-130 -182 -315 -182z" />
    <glyph glyph-name="uni01D7" unicode="&#x1d7;" horiz-adv-x="1370" 
d="M750 1870l215 268l266 2l-305 -270h-176zM631 1571q-61 0 -101.5 38t-40.5 95q0 60 42 99.5t106 39.5q61 0 102 -38t41 -95q0 -60 -42.5 -99.5t-106.5 -39.5zM1026 1571q-61 0 -101 38t-40 95q0 60 41.5 99.5t105.5 39.5q62 0 103 -38t41 -95q0 -60 -42.5 -99.5
t-107.5 -39.5zM627 -18q-137 0 -236 46.5t-154.5 133t-74 204.5t-0.5 267l102 821h279l-103 -829q-12 -78 -5.5 -147t27.5 -120.5t68 -81.5t115 -30q129 0 208 83.5t103 274.5l105 850h278l-104 -852q-39 -324 -188.5 -472t-419.5 -148z" />
    <glyph glyph-name="uni01D8" unicode="&#x1d8;" horiz-adv-x="1110" 
d="M565 1481l232 288h266l-305 -288h-193zM446 1141q-66 0 -109.5 43t-43.5 106q0 67 45.5 111.5t114.5 44.5q65 0 109 -43t44 -107q0 -67 -45.5 -111t-114.5 -44zM840 1141q-67 0 -110.5 42.5t-43.5 106.5q0 68 44.5 112t113.5 44q66 0 109.5 -42.5t43.5 -107.5
q0 -67 -44.5 -111t-112.5 -44zM365 -18q-155 0 -223 95t-40 306l88 618h259l-78 -567q-18 -120 2.5 -168.5t83.5 -48.5q79 0 168.5 103.5t107.5 238.5l53 442h261l-123 -1001h-258l18 164h-4q-130 -182 -315 -182z" />
    <glyph glyph-name="uni01D9" unicode="&#x1d9;" horiz-adv-x="1370" 
d="M711 1882l-164 248h231l78 -121h4l111 121h229l-233 -248h-256zM631 1571q-61 0 -101.5 38t-40.5 95q0 60 42 99.5t106 39.5q61 0 102 -38t41 -95q0 -60 -42.5 -99.5t-106.5 -39.5zM1026 1571q-61 0 -101 38t-40 95q0 60 41.5 99.5t105.5 39.5q62 0 103 -38t41 -95
q0 -60 -42.5 -99.5t-107.5 -39.5zM627 -18q-137 0 -236 46.5t-154.5 133t-74 204.5t-0.5 267l102 821h279l-103 -829q-12 -78 -5.5 -147t27.5 -120.5t68 -81.5t115 -30q129 0 208 83.5t103 274.5l105 850h278l-104 -852q-39 -324 -188.5 -472t-419.5 -148z" />
    <glyph glyph-name="uni01DA" unicode="&#x1da;" horiz-adv-x="1110" 
d="M543 1475l-154 292h229l70 -145h6l107 145h229l-231 -292h-256zM446 1141q-66 0 -109.5 43t-43.5 106q0 67 45.5 111.5t114.5 44.5q65 0 109 -43t44 -107q0 -67 -45.5 -111t-114.5 -44zM840 1141q-67 0 -110.5 42.5t-43.5 106.5q0 68 44.5 112t113.5 44q66 0 109.5 -42.5
t43.5 -107.5q0 -67 -44.5 -111t-112.5 -44zM365 -18q-155 0 -223 95t-40 306l88 618h259l-78 -567q-18 -120 2.5 -168.5t83.5 -48.5q79 0 168.5 103.5t107.5 238.5l53 442h261l-123 -1001h-258l18 164h-4q-130 -182 -315 -182z" />
    <glyph glyph-name="uni01DB" unicode="&#x1db;" horiz-adv-x="1370" 
d="M768 1870l-211 264h234l135 -264h-158zM631 1571q-61 0 -101.5 38t-40.5 95q0 60 42 99.5t106 39.5q61 0 102 -38t41 -95q0 -60 -42.5 -99.5t-106.5 -39.5zM1026 1571q-61 0 -101 38t-40 95q0 60 41.5 99.5t105.5 39.5q62 0 103 -38t41 -95q0 -60 -42.5 -99.5
t-107.5 -39.5zM627 -18q-137 0 -236 46.5t-154.5 133t-74 204.5t-0.5 267l102 821h279l-103 -829q-12 -78 -5.5 -147t27.5 -120.5t68 -81.5t115 -30q129 0 208 83.5t103 274.5l105 850h278l-104 -852q-39 -324 -188.5 -472t-419.5 -148z" />
    <glyph glyph-name="uni01DC" unicode="&#x1dc;" horiz-adv-x="1110" 
d="M561 1481l-211 288h262l138 -288h-189zM446 1141q-66 0 -109.5 43t-43.5 106q0 67 45.5 111.5t114.5 44.5q65 0 109 -43t44 -107q0 -67 -45.5 -111t-114.5 -44zM840 1141q-67 0 -110.5 42.5t-43.5 106.5q0 68 44.5 112t113.5 44q66 0 109.5 -42.5t43.5 -107.5
q0 -67 -44.5 -111t-112.5 -44zM365 -18q-155 0 -223 95t-40 306l88 618h259l-78 -567q-18 -120 2.5 -168.5t83.5 -48.5q79 0 168.5 103.5t107.5 238.5l53 442h261l-123 -1001h-258l18 164h-4q-130 -182 -315 -182z" />
    <glyph glyph-name="Gcaron" unicode="&#x1e6;" horiz-adv-x="1423" 
d="M776 1573l-164 276h232l78 -135h4l110 135h230l-234 -276h-256zM717 -18q-128 0 -235.5 38.5t-188 112.5t-125.5 191.5t-45 267.5q0 179 56 340.5t154 280.5t239.5 189.5t304.5 70.5q159 0 288 -64.5t209 -191.5l-223 -168q-101 159 -289 159q-128 0 -231 -83.5
t-159 -221.5t-56 -301q0 -173 82 -267.5t233 -94.5q137 0 264 86l31 221h-276l30 241h549l-74 -626q-99 -82 -243.5 -131t-294.5 -49z" />
    <glyph glyph-name="gcaron" unicode="&#x1e7;" horiz-adv-x="1144" 
d="M537 1124l-154 301h229l70 -149h6l107 149h229l-231 -301h-256zM399 -422q-194 0 -348 96l84 215q130 -82 266 -82q55 0 95.5 8.5t80 32.5t66 65.5t46.5 109.5t30 163l33 9l-35 12q-64 -93 -144.5 -143t-164.5 -50q-83 0 -148.5 31.5t-106 87t-61 127t-20.5 154.5
q0 115 36 224t98 193t153.5 134.5t195.5 50.5q162 0 252 -90l4 2l8 73h260l-106 -874q-16 -130 -55 -228t-91.5 -158.5t-123.5 -97.5t-143.5 -51t-160.5 -14zM473 246q97 0 187.5 112.5t117.5 288.5l8 51q-39 39 -92 61.5t-106 22.5q-76 0 -136 -58t-89 -139t-29 -161
q0 -84 36.5 -131t102.5 -47z" />
    <glyph glyph-name="uni01EA" unicode="&#x1ea;" horiz-adv-x="1544" 
d="M829 -10q-67 -22 -110 -69t-43 -97q0 -57 55 -57q47 0 76 16l4 -148q-50 -22 -147 -22q-95 0 -144 40.5t-49 115.5q0 60 32.5 118.5t86.5 102.5v2q-217 34 -342 192.5t-125 413.5q0 137 34.5 267t101.5 239.5t159 192.5t213.5 129.5t257.5 46.5q266 0 427 -163.5
t161 -449.5q0 -162 -44 -309.5t-125.5 -264.5t-205 -195.5t-273.5 -100.5zM412 608q0 -179 86 -271.5t233 -92.5q130 0 235.5 84.5t162.5 222.5t57 297q0 181 -86.5 272.5t-239.5 91.5q-127 0 -231 -87t-160.5 -225t-56.5 -292z" />
    <glyph glyph-name="uni01EB" unicode="&#x1eb;" horiz-adv-x="1112" 
d="M578 -12q-63 -23 -103.5 -69.5t-40.5 -94.5q0 -57 55 -57q47 0 76 16l4 -148q-50 -22 -147 -22q-95 0 -144 40.5t-49 115.5q0 63 35 123t92 104l-2 4q-132 36 -206 141.5t-74 266.5q0 121 37 231t104 194t170 133.5t227 49.5q195 0 310.5 -110t115.5 -308
q0 -158 -50 -287t-155.5 -216.5t-254.5 -106.5zM594 782q-77 0 -137.5 -52t-91.5 -131.5t-31 -168.5q0 -97 48.5 -155t125.5 -58q117 0 192.5 105.5t75.5 255.5q0 60 -17.5 102.5t-46.5 63t-58 29.5t-60 9z" />
    <glyph glyph-name="Aringacute" unicode="&#x1fa;" horiz-adv-x="1314" 
d="M813 1548q-90 0 -150.5 60.5t-60.5 150.5q0 94 62.5 155.5t156.5 61.5q86 0 150 -57l119 92h272l-330 -248q-1 -93 -63.5 -154t-155.5 -61zM819 1839q-33 0 -55.5 -22.5t-22.5 -55.5t21.5 -54t54.5 -21t55.5 22t22.5 55q0 32 -22 54t-54 22zM635 1454h278l306 -1454h-291
l-54 295h-485l-125 -295h-289zM485 535h349l-105 575h-4z" />
    <glyph glyph-name="aringacute" unicode="&#x1fb;" horiz-adv-x="1142" 
d="M688 1104q-90 0 -150.5 60.5t-60.5 150.5q0 94 62.5 155.5t156.5 61.5q88 0 146 -55l116 88h279l-330 -246q-1 -93 -63.5 -154t-155.5 -61zM694 1395q-33 0 -55.5 -22.5t-22.5 -55.5t21.5 -54.5t54.5 -21.5t55.5 22.5t22.5 55.5q0 32 -22 54t-54 22zM809 926l10 73h260
l-123 -999h-260l21 168l-6 2q-64 -91 -143 -139.5t-162 -48.5q-163 0 -249.5 114.5t-86.5 292.5q0 167 61 310t172.5 230t249.5 87q164 0 250 -92zM782 666l4 32q-84 84 -200 84q-76 0 -136 -59.5t-89 -146t-29 -179.5q0 -86 37 -135t104 -49q64 0 127 52.5t113.5 158
t68.5 242.5z" />
    <glyph glyph-name="AEacute" unicode="&#x1fc;" horiz-adv-x="1785" 
d="M846 1575l235 274l279 2l-266 -276h-248zM-53 0l819 1454h999l-30 -250h-580l-47 -358h473l-31 -246h-471l-43 -350h619l-31 -250h-889l37 295h-362l-162 -295h-301zM537 535h266l74 616h-5z" />
    <glyph glyph-name="aeacute" unicode="&#x1fd;" horiz-adv-x="1419" 
d="M1227 1440l-264 -301h-254l243 299zM985 211q101 0 182 102l197 -131q-150 -196 -389 -196q-128 0 -215 51.5t-125 150.5q-47 -97 -122.5 -151.5t-170.5 -54.5q-140 0 -222 104.5t-79 271.5q2 129 40 245.5t105 205t167.5 140.5t219.5 52q148 0 248 -61q115 76 264 76
q132 0 223 -71.5t91 -194.5q0 -166 -163 -268t-433 -126q14 -71 64.5 -108t117.5 -37zM1059 791q-72 0 -144.5 -71t-101.5 -188q155 22 242.5 72.5t87.5 124.5q0 25 -22 43.5t-62 18.5zM385 207q19 0 37 9t34 28t29.5 38t26.5 51t22.5 55.5t20.5 61.5t17 59t16 58
q28 114 80 205q-34 6 -62 6q-91 0 -161.5 -62t-106 -159t-35.5 -209q0 -66 23.5 -103.5t58.5 -37.5z" />
    <glyph glyph-name="Oslashacute" unicode="&#x1fe;" horiz-adv-x="1548" 
d="M1298 1849l-266 -276h-248l236 274zM1540 1395l-156 -166q97 -153 97 -369q0 -142 -33 -273t-98.5 -240.5t-157 -191.5t-214.5 -127.5t-265 -45.5q-236 0 -387 127l-162 -172l-123 124l172 181q-86 150 -86 356q0 137 34.5 267t101.5 239.5t159 192.5t213.5 129.5
t257.5 46.5q224 0 375 -117l149 160zM416 608q0 -69 16 -135l639 676q-78 63 -207 63q-127 0 -231 -87t-160.5 -225t-56.5 -292zM1190 848q0 78 -21 153l-647 -686q83 -71 213 -71t235.5 84.5t162.5 222.5t57 297z" />
    <glyph glyph-name="oslashacute" unicode="&#x1ff;" horiz-adv-x="1116" 
d="M1034 1440l-264 -301h-254l244 299zM1083 946l-104 -110q59 -95 59 -238q0 -128 -34.5 -238.5t-101 -195.5t-171.5 -133.5t-237 -48.5q-155 0 -261 73l-100 -104l-98 98l102 109q-63 101 -63 250q0 121 37 231t104 194t170 133.5t227 49.5q163 0 273 -78l100 104z
M334 430q0 -34 6 -61l365 381q-45 32 -111 32q-77 0 -137.5 -52t-91.5 -131.5t-31 -168.5zM776 578q0 31 -2 43l-360 -375q44 -29 94 -29q117 0 192.5 105.5t75.5 255.5z" />
    <glyph glyph-name="Scommaaccent" unicode="&#x218;" horiz-adv-x="1138" 
d="M535 -18q-155 0 -288 66.5t-208 187.5l201 180q46 -86 123.5 -133t160.5 -47q101 0 164.5 51t63.5 125q0 19 -5 35t-17 30.5t-23 25.5t-34.5 26t-40.5 25t-51.5 29.5t-56.5 32.5q-142 82 -187 115q-144 105 -168 241q-5 31 -5 64q0 196 139.5 316.5t345.5 120.5
q128 0 244 -57.5t190 -160.5l-200 -172q-97 140 -248 140q-81 0 -131.5 -44.5t-48.5 -109.5q1 -53 41.5 -91.5t148.5 -103.5q29 -17 74.5 -42.5t73 -41t65.5 -40t61.5 -44.5t49.5 -48.5t40 -57.5t23.5 -67.5t9.5 -81.5q0 -112 -39 -202t-108 -148t-160.5 -88.5t-199.5 -30.5
zM311 -451l-30 152q65 21 90.5 51t25.5 90q0 9 -4 49h221v-47q0 -131 -78.5 -208t-224.5 -87z" />
    <glyph glyph-name="scommaaccent" unicode="&#x219;" horiz-adv-x="868" 
d="M389 -18q-110 0 -214.5 47t-162.5 125l158 161q44 -57 103.5 -88.5t119.5 -31.5q56 0 92.5 21t36.5 58q0 30 -30.5 51.5t-118.5 63.5q-14 6 -21 10q-120 56 -183 126t-63 173q0 142 103 230t254 88q102 0 194.5 -37.5t157.5 -112.5l-164 -161q-73 98 -188 102
q-44 0 -72.5 -22.5t-28.5 -59.5q0 -31 38.5 -61t115.5 -68q42 -21 66 -34t59.5 -35.5t56 -43t41.5 -48t31 -60t10 -70.5q1 -152 -105 -237.5t-286 -85.5zM158 -451l-31 152q65 21 91 51t26 90q0 9 -4 49h221v-47q0 -131 -78.5 -208t-224.5 -87z" />
    <glyph glyph-name="uni021A" unicode="&#x21a;" horiz-adv-x="1112" 
d="M354 0l148 1204h-355l29 250h993l-30 -250h-359l-147 -1204h-279zM283 -451l-31 152q65 21 91 51t26 90q0 9 -4 49h221v-47q0 -131 -78.5 -208t-224.5 -87z" />
    <glyph glyph-name="uni021B" unicode="&#x21b;" horiz-adv-x="696" 
d="M346 -18q-124 0 -184 78.5t-43 226.5l61 497h-104l26 217h103l41 304l264 51l-43 -355h227l-26 -217h-228l-55 -456q-14 -103 57 -103q52 0 125 43l39 -215q-121 -71 -260 -71zM129 -451l-31 152q65 21 91 51t26 90q0 9 -4 49h221v-47q0 -131 -78.5 -208t-224.5 -87z" />
    <glyph glyph-name="uni0232" unicode="&#x232;" horiz-adv-x="1189" 
d="M442 1618l25 201h571l-26 -201h-570zM391 0l80 639l-334 815h307l193 -551h6l328 551h321l-540 -815l-80 -639h-281z" />
    <glyph glyph-name="uni0233" unicode="&#x233;" horiz-adv-x="1105" 
d="M950 1403l-26 -209h-570l25 209h571zM788 1001h256l-106 -872q-15 -130 -54 -229t-91 -159t-121.5 -97.5t-138 -51.5t-148.5 -14q-198 0 -352 96l82 211q131 -84 262 -84q63 0 108.5 13.5t87 49t69 104.5t40.5 173l2 21l-4 2q-130 -182 -322 -182q-155 0 -222.5 95
t-37.5 306l84 618h258l-75 -567q-15 -122 4.5 -168.5t83.5 -48.5q84 0 174.5 108t107.5 248z" />
    <glyph glyph-name="uni0237" unicode="&#x237;" horiz-adv-x="501" 
d="M-16 -422q-109 0 -195 47l66 203q39 -29 84 -29q47 0 71 42t35 139l127 1021h260l-129 -1058q-47 -365 -319 -365z" />
    <glyph glyph-name="uni0251" unicode="&#x251;" horiz-adv-x="1142" 
d="M406 -18q-163 0 -249.5 114.5t-86.5 292.5q0 167 61 310t172.5 230t249.5 87q164 0 250 -92l6 2l10 73h260l-123 -999h-260l21 168l-6 2q-64 -91 -143 -139.5t-162 -48.5zM473 213q64 0 127 52.5t113.5 158t68.5 242.5l4 32q-84 84 -200 84q-76 0 -136 -59.5t-89 -146
t-29 -179.5q0 -86 37 -135t104 -49z" />
    <glyph glyph-name="uni0259" unicode="&#x259;" horiz-adv-x="954" 
d="M483 1016q190 0 303 -115.5t113 -314.5q0 -127 -35 -236t-101.5 -191t-170.5 -128.5t-234 -46.5q-144 0 -235.5 75t-91.5 205q0 94 50 166.5t138.5 117.5t192.5 72t231 39q-13 63 -59 97.5t-115 34.5q-41 0 -97.5 -19.5t-109.5 -62.5l-141 174q70 61 168 97t194 36z
M383 211q101 0 165.5 69.5t88.5 188.5q-350 -41 -350 -184q0 -37 26 -55.5t70 -18.5z" />
    <glyph glyph-name="uni0261" unicode="&#x261;" horiz-adv-x="1144" 
d="M399 -422q-194 0 -348 96l84 215q130 -82 266 -82q55 0 95.5 8.5t80 32.5t66 65.5t46.5 109.5t30 163l33 9l-35 12q-64 -93 -144.5 -143t-164.5 -50q-83 0 -148.5 31.5t-106 87t-61 127t-20.5 154.5q0 115 36 224t98 193t153.5 134.5t195.5 50.5q162 0 252 -90l4 2l8 73
h260l-106 -874q-16 -130 -55 -228t-91.5 -158.5t-123.5 -97.5t-143.5 -51t-160.5 -14zM473 246q97 0 187.5 112.5t117.5 288.5l8 51q-39 39 -92 61.5t-106 22.5q-76 0 -136 -58t-89 -139t-29 -161q0 -84 36.5 -131t102.5 -47z" />
    <glyph glyph-name="uni0272" unicode="&#x272;" horiz-adv-x="1130" 
d="M786 1016q153 0 211.5 -101t30.5 -309l-82 -606h-258l76 565q14 113 -3 165t-79 52q-87 0 -181 -112t-122 -281l-47 -389q-29 -225 -120.5 -322.5t-264.5 -97.5q-65 0 -123 17l43 198q6 -1 21.5 -3.5t23.5 -2.5q73 0 108 52t54 182l18 135l103 843h260l-19 -159l4 -2
q145 176 346 176z" />
    <glyph glyph-name="uni02BB" unicode="&#x2bb;" horiz-adv-x="460" 
d="M166 840l96 534h189l-35 -534h-250z" />
    <glyph glyph-name="uni02BC" unicode="&#x2bc;" horiz-adv-x="425" 
d="M127 1012l111 438h256l-179 -438h-188z" />
    <glyph glyph-name="uni02BE" unicode="&#x2be;" horiz-adv-x="483" 
d="M207 1554q138 0 222.5 -80t84.5 -212q0 -166 -104.5 -270.5t-268.5 -104.5l-8 182q76 3 121 55t45 127q0 114 -125 119z" />
    <glyph glyph-name="uni02BF" unicode="&#x2bf;" horiz-adv-x="514" 
d="M485 887q-138 0 -222.5 80.5t-84.5 212.5q0 166 104.5 270t268.5 104l8 -182q-76 -3 -121 -55t-45 -127q0 -114 125 -119z" />
    <glyph glyph-name="circumflex" unicode="&#x2c6;" horiz-adv-x="858" 
d="M174 1094l238 305h237l174 -305h-237l-62 153h-4l-100 -153h-246z" />
    <glyph glyph-name="caron" unicode="&#x2c7;" horiz-adv-x="858" 
d="M371 1083l-154 301h229l70 -149h6l107 149h229l-231 -301h-256z" />
    <glyph glyph-name="uni02C8" unicode="&#x2c8;" horiz-adv-x="393" 
d="M135 762l64 571h194l-67 -569z" />
    <glyph glyph-name="uni02C9" unicode="&#x2c9;" horiz-adv-x="690" 
d="M145 1196l25 209h571l-26 -209h-570z" />
    <glyph glyph-name="uni02CA" unicode="&#x2ca;" horiz-adv-x="628" 
d="M178 1141l244 299l274 2l-264 -301h-254z" />
    <glyph glyph-name="uni02CB" unicode="&#x2cb;" horiz-adv-x="622" 
d="M362 1141l-190 301l274 -2l168 -299h-252z" />
    <glyph glyph-name="uni02CC" unicode="&#x2cc;" horiz-adv-x="393" 
d="M0 -381l63 571h195l-68 -569z" />
    <glyph glyph-name="breve" unicode="&#x2d8;" horiz-adv-x="847" 
d="M496 1073q-141 0 -213 81t-60 230h195q-6 -52 16 -84t74 -32t90 34t51 82h195q-27 -142 -118.5 -226.5t-229.5 -84.5z" />
    <glyph glyph-name="dotaccent" unicode="&#x2d9;" horiz-adv-x="950" 
d="M563 1100q-70 0 -116 46t-46 114q0 71 47.5 117t120.5 46q71 0 117.5 -45t46.5 -112q0 -71 -48.5 -118.5t-121.5 -47.5z" />
    <glyph glyph-name="ring" unicode="&#x2da;" horiz-adv-x="880" 
d="M530 1051q-90 0 -150.5 60.5t-60.5 150.5q0 93 63 155t157 62q91 0 151 -60t60 -149q0 -95 -63 -157t-157 -62zM535 1188q33 0 55 22.5t22 55.5q0 32 -21.5 53.5t-53.5 21.5q-33 0 -55.5 -22.5t-22.5 -54.5q0 -33 21.5 -54.5t54.5 -21.5z" />
    <glyph glyph-name="ogonek" unicode="&#x2db;" horiz-adv-x="892" 
d="M401 -387q-95 0 -143.5 40t-48.5 116t51 148.5t127 111.5l221 -29q-81 -12 -137.5 -64.5t-56.5 -111.5q0 -57 55 -57q47 0 76 16l4 -148q-50 -22 -148 -22z" />
    <glyph glyph-name="tilde" unicode="&#x2dc;" horiz-adv-x="915" 
d="M688 1090q-22 0 -41 3.5t-38 12.5t-28 14t-28 18.5t-21 14.5q-54 41 -92 41q-72 0 -123 -107l-153 78q45 106 109 168t143 62q23 0 42.5 -3.5t36.5 -11t26 -12.5t25.5 -16.5t20.5 -14.5q25 -18 34 -24t26 -13.5t32 -7.5q35 0 67.5 29.5t55.5 77.5l154 -62
q-43 -116 -108 -181.5t-140 -65.5z" />
    <glyph glyph-name="hungarumlaut" unicode="&#x2dd;" horiz-adv-x="987" 
d="M143 1098l242 299l264 2l-264 -301h-242zM541 1098l239 299l264 2l-264 -301h-239z" />
    <glyph glyph-name="gravecomb" unicode="&#x300;" 
d="M-995 1098l-191 301l275 -2l168 -299h-252z" />
    <glyph glyph-name="acutecomb" unicode="&#x301;" 
d="M-1157 1098l244 299l274 2l-264 -301h-254z" />
    <glyph glyph-name="uni0302" unicode="&#x302;" 
d="M-1278 1094l238 305h237l174 -305h-237l-62 153h-4l-100 -153h-246z" />
    <glyph glyph-name="tildecomb" unicode="&#x303;" 
d="M-786 1090q-22 0 -41 3.5t-38 12.5t-28 14t-28 18.5t-21 14.5q-54 41 -92 41q-72 0 -123 -107l-154 78q45 106 109 168t143 62q23 0 42.5 -3t37 -11t26.5 -13t26 -17t20 -14q25 -18 34 -24t26 -13.5t32 -7.5q35 0 67.5 29.5t55.5 77.5l153 -62q-44 -116 -108 -181.5
t-139 -65.5z" />
    <glyph glyph-name="uni0304" unicode="&#x304;" 
d="M-1229 1153l25 209h571l-26 -209h-570z" />
    <glyph glyph-name="uni0306" unicode="&#x306;" 
d="M-952 1073q-141 0 -213 81t-60 230h195q-6 -52 16 -84t74 -32t90 34t51 82h195q-27 -142 -118.5 -226.5t-229.5 -84.5z" />
    <glyph glyph-name="uni0307" unicode="&#x307;" 
d="M-932 1100q-70 0 -116 46t-46 114q0 71 47.5 117t120.5 46q71 0 117.5 -45t46.5 -112q0 -71 -48.5 -118.5t-121.5 -47.5z" />
    <glyph glyph-name="uni0308" unicode="&#x308;" 
d="M-1141 1100q-70 0 -116 46t-46 114q0 71 47.5 117t120.5 46q70 0 116 -44.5t46 -112.5q0 -71 -47.5 -118.5t-120.5 -47.5zM-727 1100q-71 0 -117.5 46t-46.5 114q0 70 48 116.5t122 46.5q70 0 116 -44.5t46 -112.5q0 -71 -47.5 -118.5t-120.5 -47.5z" />
    <glyph glyph-name="hookabovecomb" unicode="&#x309;" 
d="M-895 1083l-156 2q55 41 96 89.5t42 87.5q3 38 -48 38q-69 0 -155 -59l-37 121q47 42 122 74t159 32q73 0 117 -34.5t44 -100.5q0 -80 -56 -148.5t-128 -101.5z" />
    <glyph glyph-name="uni030A" unicode="&#x30a;" 
d="M-930 1063q-90 0 -150.5 60.5t-60.5 150.5q0 94 62.5 155.5t156.5 61.5q91 0 151 -60t60 -149q0 -95 -62.5 -157t-156.5 -62zM-926 1200q33 0 55.5 22.5t22.5 55.5q0 32 -22 54t-54 22q-33 0 -55 -22.5t-22 -55.5t21 -54.5t54 -21.5z" />
    <glyph glyph-name="uni030B" unicode="&#x30b;" 
d="M-1266 1098l242 299l264 2l-264 -301h-242zM-868 1098l239 299l264 2l-264 -301h-239z" />
    <glyph glyph-name="uni030C" unicode="&#x30c;" 
d="M-1081 1083l-154 301h229l70 -149h6l107 149h229l-231 -301h-256z" />
    <glyph glyph-name="uni0312" unicode="&#x312;" 
d="M-1049 1110q-2 10 -2 45q0 131 79.5 208.5t223.5 86.5l33 -150q-64 -21 -90 -52t-26 -91q0 -29 2 -47h-220z" />
    <glyph glyph-name="uni0313" unicode="&#x313;" 
d="M-979 1430q2 -10 2 -46q0 -131 -79.5 -208t-223.5 -86l-33 149q64 21 90.5 52t26.5 91q0 30 -2 48h219z" />
    <glyph glyph-name="uni031B" unicode="&#x31b;" 
d="M-918 911q-54 0 -116 21l33 133q35 -14 61 -14q15 0 28 4.5t23 15.5t18 21.5t14.5 31t10.5 36t9 43.5t7.5 46t6.5 51l20 154h228l-23 -182q-24 -181 -108 -271t-212 -90z" />
    <glyph glyph-name="dotbelowcomb" unicode="&#x323;" 
d="M-1120 -145q70 0 116 -46t46 -114q0 -71 -47.5 -117.5t-120.5 -46.5q-70 0 -117 45t-47 113q0 71 48.5 118.5t121.5 47.5z" />
    <glyph glyph-name="uni0324" unicode="&#x324;" 
d="M-1325 -145q71 0 117.5 -46t46.5 -114q0 -71 -48.5 -117.5t-121.5 -46.5q-70 0 -116 45t-46 113q0 71 47.5 118.5t120.5 47.5zM-911 -145q70 0 115.5 -46t45.5 -114q0 -71 -47.5 -117.5t-120.5 -46.5q-70 0 -115.5 45t-45.5 113q0 71 47.5 118.5t120.5 47.5z" />
    <glyph glyph-name="uni0326" unicode="&#x326;" 
d="M-1303 -451l-30 152q65 21 90.5 51t25.5 90q0 9 -4 49h222v-47q0 -131 -79 -208t-225 -87z" />
    <glyph glyph-name="uni0327" unicode="&#x327;" 
d="M-1208 -393q-43 0 -105 12l6 119q30 -12 76 -12q52 0 83.5 18.5t31.5 54.5q0 27 -32.5 39t-104.5 12l4 76l51 86h143l-51 -73l2 -2q154 -6 154 -138q0 -93 -69.5 -142.5t-188.5 -49.5z" />
    <glyph glyph-name="uni0328" unicode="&#x328;" 
d="M-1294 -387q-95 0 -144 40.5t-49 115.5q0 76 51 148.5t127 111.5l222 -29q-81 -12 -138 -65t-57 -111q0 -57 55 -57q47 0 76 16l4 -148q-50 -22 -147 -22z" />
    <glyph glyph-name="uni032E" unicode="&#x32e;" 
d="M-1137 -469q-141 0 -212.5 81t-59.5 230h195q-6 -52 16 -84t74 -32t90 34t51 82h195q-27 -142 -119 -226.5t-230 -84.5z" />
    <glyph glyph-name="uni0331" unicode="&#x331;" 
d="M-1419 -428l24 209h572l-27 -209h-569z" />
    <glyph glyph-name="uni0335" unicode="&#x335;" 
d="M-1290 455l18 168h537l-23 -168h-532z" />
    <glyph glyph-name="uni0400" unicode="&#x400;" horiz-adv-x="1153" 
d="M686 1573l-197 276l275 -2l170 -274h-248zM104 0l179 1454h850l-33 -250h-574l-43 -360h459l-31 -246h-458l-43 -348h612l-31 -250h-887z" />
    <glyph glyph-name="uni0401" unicode="&#x401;" horiz-adv-x="1153" 
d="M545 1606q-70 0 -116 45.5t-46 113.5q0 71 47.5 117.5t120.5 46.5q70 0 116 -44.5t46 -112.5q0 -71 -47.5 -118.5t-120.5 -47.5zM958 1606q-71 0 -117 45.5t-46 113.5q0 71 48.5 117.5t121.5 46.5q70 0 115.5 -44.5t45.5 -112.5q0 -71 -47.5 -118.5t-120.5 -47.5zM104 0
l179 1454h850l-33 -250h-574l-43 -360h459l-31 -246h-458l-43 -348h612l-31 -250h-887z" />
    <glyph glyph-name="uni0402" unicode="&#x402;" horiz-adv-x="1462" 
d="M1024 932q176 0 284.5 -105t108.5 -297q0 -259 -147.5 -401.5t-382.5 -142.5q-51 0 -119 10l37 225q28 -4 47 -4q124 0 199 76.5t75 206.5q0 178 -202 178q-130 0 -236 -60l-76 -618h-278l147 1204h-354l29 250h993l-31 -250h-358l-45 -364q147 92 309 92z" />
    <glyph glyph-name="uni0403" unicode="&#x403;" horiz-adv-x="1081" 
d="M522 1575l236 274l278 2l-266 -276h-248zM106 0l179 1454h852l-31 -250h-574l-147 -1204h-279z" />
    <glyph glyph-name="uni0404" unicode="&#x404;" horiz-adv-x="1363" 
d="M727 242q96 0 184 40.5t152 114.5l203 -182q-104 -112 -245 -172.5t-306 -60.5q-129 0 -236 37.5t-187 111t-124.5 192t-44.5 271.5q0 145 33 277.5t97.5 241.5t153.5 190t207.5 125.5t253.5 44.5q341 0 506 -236l-217 -184q-98 157 -303 157q-148 0 -256.5 -98
t-157.5 -260h572l-29 -238h-575v-16q-3 -170 81 -263t238 -93z" />
    <glyph glyph-name="uni0405" unicode="&#x405;" horiz-adv-x="1138" 
d="M535 -18q-155 0 -288 66.5t-208 187.5l201 180q46 -86 123.5 -133t160.5 -47q101 0 164.5 51t63.5 125q0 19 -5 35t-17 30.5t-23 25.5t-34.5 26t-40.5 25t-51.5 29.5t-56.5 32.5q-142 82 -187 115q-144 105 -168 241q-5 31 -5 64q0 196 139.5 316.5t345.5 120.5
q128 0 244 -57.5t190 -160.5l-200 -172q-97 140 -248 140q-81 0 -131.5 -44.5t-48.5 -109.5q1 -53 41.5 -91.5t148.5 -103.5q29 -17 74.5 -42.5t73 -41t65.5 -40t61.5 -44.5t49.5 -48.5t40 -57.5t23.5 -67.5t9.5 -81.5q0 -112 -39 -202t-108 -148t-160.5 -88.5t-199.5 -30.5
z" />
    <glyph glyph-name="uni0406" unicode="&#x406;" horiz-adv-x="634" 
d="M115 0l178 1454h282l-178 -1454h-282z" />
    <glyph glyph-name="uni0407" unicode="&#x407;" horiz-adv-x="634" 
d="M260 1606q-70 0 -116 45.5t-46 113.5q0 71 47.5 117.5t120.5 46.5q70 0 116 -44.5t46 -112.5q0 -71 -47.5 -118.5t-120.5 -47.5zM674 1606q-71 0 -117.5 45.5t-46.5 113.5q0 71 48.5 117.5t121.5 46.5q70 0 116 -44.5t46 -112.5q0 -71 -47.5 -118.5t-120.5 -47.5zM115 0
l178 1454h282l-178 -1454h-282z" />
    <glyph glyph-name="uni0408" unicode="&#x408;" horiz-adv-x="974" 
d="M356 -18q-104 0 -197 50.5t-149 143.5l189 191q64 -119 155 -119q161 0 199 295l113 911h280l-115 -926q-33 -275 -146 -410.5t-329 -135.5z" />
    <glyph glyph-name="uni0409" unicode="&#x409;" horiz-adv-x="1998" 
d="M1524 924q108 0 189 -27t126 -67.5t72.5 -98.5t35.5 -109.5t7 -111.5q-4 -255 -150.5 -382.5t-423.5 -127.5h-475l148 1204h-328q-76 -446 -127 -647q-35 -147 -75 -248t-95.5 -176.5t-130.5 -111t-174 -35.5q-91 0 -156 26l41 228q52 -9 70 -9q51 0 93 32t75 97
t57.5 142.5t50.5 187.5q77 338 140 764h868l-66 -530h228zM1401 248q130 0 197 64.5t67 183.5q0 93 -46 137.5t-144 44.5h-209l-47 -387l-7 -43h189z" />
    <glyph glyph-name="uni040A" unicode="&#x40a;" horiz-adv-x="1982" 
d="M1507 895q108 0 189 -26.5t126 -66.5t72.5 -96t35.5 -104.5t7 -103.5q-6 -247 -151.5 -372.5t-421.5 -125.5h-481l75 614h-497l-76 -614h-279l179 1454h278l-71 -592h497l72 592h278l-69 -559h237zM1384 248q129 0 197 63t68 172q0 166 -193 166h-217l-49 -401h194z" />
    <glyph glyph-name="uni040B" unicode="&#x40b;" horiz-adv-x="1484" 
d="M1100 936q183 0 252.5 -113.5t38.5 -345.5l-64 -477h-276l61 469q15 121 -13 170t-116 49q-137 0 -272 -74l-78 -614h-279l148 1204h-355l29 250h993l-30 -250h-359l-43 -366q75 39 179 68.5t184 29.5z" />
    <glyph glyph-name="uni040C" unicode="&#x40c;" horiz-adv-x="1271" 
d="M1110 1851l-266 -276h-248l235 274zM1356 1454l-539 -649l371 -805h-318l-264 604l-174 -205l-49 -399h-277l179 1454h276l-80 -653l6 -2l527 655h342z" />
    <glyph glyph-name="uni040D" unicode="&#x40d;" horiz-adv-x="1427" 
d="M809 1575l-197 276l275 -2l170 -274h-248zM106 0l179 1454h276l-123 -979h6l670 979h262l-176 -1454h-280l116 944h-4l-667 -944h-259z" />
    <glyph glyph-name="uni040E" unicode="&#x40e;" horiz-adv-x="1226" 
d="M741 1565q-138 0 -212 67t-83 221l211 19q3 -65 35 -102t78 -37q48 0 98.5 40t83.5 107l187 -55q-35 -71 -83 -123.5t-101.5 -81t-106.5 -42t-107 -13.5zM1014 1454h311l-561 -1079q-25 -48 -38 -72.5t-36.5 -65.5t-38.5 -62.5t-39 -53.5t-43.5 -48.5t-46.5 -37
t-53.5 -30t-59.5 -16.5t-69 -7q-69 0 -135.5 20.5t-102.5 50.5l86 230q71 -52 134 -52q59 0 105 52t99 157l-391 1014h307l230 -715h6z" />
    <glyph glyph-name="uni040F" unicode="&#x40f;" horiz-adv-x="1349" 
d="M1300 1454l-178 -1454h-387l-43 -281h-229l24 281h-381l179 1454h278l-147 -1204h456l150 1204h278z" />
    <glyph glyph-name="uni0410" unicode="&#x410;" horiz-adv-x="1314" 
d="M-25 0l660 1454h278l306 -1454h-291l-54 295h-485l-125 -295h-289zM485 535h349l-105 575h-4z" />
    <glyph glyph-name="uni0411" unicode="&#x411;" horiz-adv-x="1222" 
d="M106 0l179 1454h852l-31 -250h-578l-36 -301h215q109 0 190.5 -24t127 -61.5t73 -91.5t35 -103.5t6.5 -108.5q-3 -257 -149 -385.5t-419 -128.5h-465zM410 246h180q128 0 194 64t66 184q0 93 -46 131.5t-147 38.5h-194z" />
    <glyph glyph-name="uni0412" unicode="&#x412;" horiz-adv-x="1234" 
d="M106 0l179 1454h487q387 0 387 -305q0 -110 -60.5 -214.5t-166.5 -156.5v-4q97 -34 153 -109.5t56 -189.5q0 -229 -140 -352t-413 -123h-482zM487 858h170q97 0 158.5 59.5t61.5 165.5q0 66 -42.5 94.5t-132.5 28.5h-172zM412 246h186q125 0 191.5 64t66.5 182
q0 137 -192 137h-205z" />
    <glyph glyph-name="uni0413" unicode="&#x413;" horiz-adv-x="1081" 
d="M106 0l179 1454h852l-31 -250h-574l-147 -1204h-279z" />
    <glyph glyph-name="uni0414" unicode="&#x414;" horiz-adv-x="1503" 
d="M1436 250l-78 -531h-230l23 281h-930l-51 -281h-229l59 531h168q145 247 227 536q76 260 127 668h867l-150 -1204h197zM647 678q-77 -257 -176 -428h492l118 954h-323q-42 -287 -111 -526z" />
    <glyph glyph-name="uni0415" unicode="&#x415;" horiz-adv-x="1153" 
d="M104 0l179 1454h850l-33 -250h-574l-43 -360h459l-31 -246h-458l-43 -348h612l-31 -250h-887z" />
    <glyph glyph-name="uni0416" unicode="&#x416;" horiz-adv-x="1794" 
d="M1876 1454l-500 -684l348 -770h-317l-258 604l-135 -166l-51 -438h-269l54 442l-91 162l-395 -604h-315l524 776l-340 678h324l327 -692l6 2l84 690h269l-86 -688l6 -2l483 690h332z" />
    <glyph glyph-name="uni0417" unicode="&#x417;" horiz-adv-x="1159" 
d="M532 -18q-170 0 -306.5 64.5t-209.5 182.5l197 187q49 -85 134.5 -131.5t189.5 -46.5q114 0 178.5 59.5t64.5 159.5q0 176 -233 176h-189l31 231h172q114 0 182 53.5t68 145.5q0 77 -50.5 114t-133.5 37q-72 0 -146.5 -27t-130.5 -75l-164 203q97 82 223 118.5t255 36.5
q195 0 313.5 -89t118.5 -246q0 -112 -64.5 -207t-177.5 -144v-6q103 -44 159 -132.5t56 -209.5q0 -207 -143.5 -330.5t-393.5 -123.5z" />
    <glyph glyph-name="uni0418" unicode="&#x418;" horiz-adv-x="1427" 
d="M106 0l179 1454h276l-123 -979h6l670 979h262l-176 -1454h-280l116 944h-4l-667 -944h-259z" />
    <glyph glyph-name="uni0419" unicode="&#x419;" horiz-adv-x="1427" 
d="M852 1565q-138 0 -212 67t-83 221l211 19q3 -65 35 -102t78 -37q48 0 98.5 40t83.5 107l186 -55q-46 -93 -115.5 -154t-138.5 -83.5t-143 -22.5zM106 0l179 1454h276l-123 -979h6l670 979h262l-176 -1454h-280l116 944h-4l-667 -944h-259z" />
    <glyph glyph-name="uni041A" unicode="&#x41a;" horiz-adv-x="1271" 
d="M1356 1454l-539 -649l371 -805h-318l-264 604l-174 -205l-49 -399h-277l179 1454h276l-80 -653l6 -2l527 655h342z" />
    <glyph glyph-name="uni041B" unicode="&#x41b;" horiz-adv-x="1411" 
d="M494 1454h868l-180 -1454h-277l148 1204h-328q-76 -446 -127 -647q-35 -147 -75 -248t-95.5 -176.5t-130.5 -111t-174 -35.5q-91 0 -156 26l41 228q52 -9 70 -9q51 0 93 32t75 97t57.5 142.5t50.5 187.5q77 338 140 764z" />
    <glyph glyph-name="uni041C" unicode="&#x41c;" horiz-adv-x="1673" 
d="M106 0l179 1454h276l295 -836h6l486 836h276l-178 -1454h-277l107 885l-6 2l-365 -611h-180l-227 639l-4 -2l-111 -913h-277z" />
    <glyph glyph-name="uni041D" unicode="&#x41d;" horiz-adv-x="1404" 
d="M106 0l179 1454h278l-78 -633h514l78 633h279l-178 -1454h-281l72 571h-514l-70 -571h-279z" />
    <glyph glyph-name="uni041E" unicode="&#x41e;" horiz-adv-x="1544" 
d="M709 -18q-268 0 -427 163t-159 453q0 137 34.5 267t101.5 239.5t159 192.5t213.5 129.5t257.5 46.5q266 0 427 -163.5t161 -449.5q0 -142 -33 -273t-98.5 -240.5t-157 -191.5t-214.5 -127.5t-265 -45.5zM731 244q130 0 235.5 84.5t162.5 222.5t57 297q0 181 -86.5 272.5
t-239.5 91.5q-127 0 -231 -87t-160.5 -225t-56.5 -292q0 -179 86 -271.5t233 -92.5z" />
    <glyph glyph-name="uni041F" unicode="&#x41f;" horiz-adv-x="1349" 
d="M106 0l179 1454h1015l-178 -1454h-278l147 1204h-459l-147 -1204h-279z" />
    <glyph glyph-name="uni0420" unicode="&#x420;" horiz-adv-x="1198" 
d="M106 0l179 1454h495q404 0 404 -395q0 -259 -150 -408t-428 -149h-164l-59 -502h-277zM473 750h160q122 0 192 76.5t70 215.5q0 78 -50 121t-130 43h-185z" />
    <glyph glyph-name="uni0421" unicode="&#x421;" horiz-adv-x="1370" 
d="M713 -18q-127 0 -234 39t-187 113.5t-124.5 192.5t-44.5 267q0 143 35 275t101.5 241.5t158.5 191t212 126.5t255 45q146 0 276.5 -72.5t227.5 -233.5l-228 -166q-109 205 -291 205q-101 0 -188 -52t-145 -137t-90.5 -194.5t-32.5 -224.5q0 -165 82 -257.5t231 -92.5
q88 0 175 45t149 121l202 -183q-102 -117 -241.5 -183t-298.5 -66z" />
    <glyph glyph-name="uni0422" unicode="&#x422;" horiz-adv-x="1112" 
d="M354 0l148 1204h-355l29 250h993l-30 -250h-359l-147 -1204h-279z" />
    <glyph glyph-name="uni0423" unicode="&#x423;" horiz-adv-x="1226" 
d="M1014 1454h311l-561 -1079q-25 -48 -38 -72.5t-36.5 -65.5t-38.5 -62.5t-39 -53.5t-43.5 -48.5t-46.5 -37t-53.5 -30t-59.5 -16.5t-69 -7q-69 0 -135.5 20.5t-102.5 50.5l86 230q71 -52 134 -52q59 0 105 52t99 157l-391 1014h307l230 -715h6z" />
    <glyph glyph-name="uni0424" unicode="&#x424;" horiz-adv-x="1646" 
d="M1593 813q0 -139 -42.5 -257.5t-125 -208.5t-212.5 -143.5t-295 -58.5l-17 -145h-276l18 147q-243 15 -387.5 150.5t-144.5 368.5q0 133 45 254t129 217t215 156t291 67l16 129h276l-16 -133q235 -21 380.5 -165t145.5 -378zM397 686q0 -143 71.5 -216t211.5 -85l92 741
q-178 -17 -276.5 -142.5t-98.5 -297.5zM938 383q180 13 274.5 126t94.5 288q0 142 -72.5 227t-204.5 100z" />
    <glyph glyph-name="uni0425" unicode="&#x425;" horiz-adv-x="1277" 
d="M-39 0l516 737l-317 717h305l221 -514h8l334 514h330l-504 -725l336 -729h-316l-231 520h-8l-356 -520h-318z" />
    <glyph glyph-name="uni0426" unicode="&#x426;" horiz-adv-x="1404" 
d="M1337 250l-77 -531h-230l23 281h-947l179 1454h278l-147 -1204h444l150 1204h278l-147 -1204h196z" />
    <glyph glyph-name="uni0427" unicode="&#x427;" horiz-adv-x="1253" 
d="M924 1454h280l-180 -1454h-279l68 567q-66 -37 -161 -61.5t-183 -24.5q-198 0 -276 113t-48 346l70 514h274l-65 -508q-14 -123 16 -170t129 -47q137 0 275 66z" />
    <glyph glyph-name="uni0428" unicode="&#x428;" horiz-adv-x="1890" 
d="M1563 1454h278l-178 -1454h-1557l179 1454h278l-147 -1204h360l148 1204h276l-147 -1204h362z" />
    <glyph glyph-name="uni0429" unicode="&#x429;" horiz-adv-x="1957" 
d="M1890 250l-78 -531h-229l23 281h-1500l179 1454h278l-147 -1204h360l148 1204h276l-147 -1204h362l148 1204h278l-147 -1204h196z" />
    <glyph glyph-name="uni042A" unicode="&#x42a;" horiz-adv-x="1370" 
d="M895 924q108 0 189 -27t126 -67.5t72.5 -98.5t35.5 -109.5t7 -111.5q-4 -255 -150 -382.5t-423 -127.5h-476l148 1204h-328l31 250h604l-63 -530h227zM772 248q130 0 197 64.5t67 183.5q0 93 -46 137.5t-144 44.5h-209l-53 -430h188z" />
    <glyph glyph-name="uni042B" unicode="&#x42b;" horiz-adv-x="1767" 
d="M106 0l179 1454h276l-65 -530h206q108 0 189 -27t126.5 -67.5t73 -98.5t35.5 -109.5t7 -111.5q-4 -255 -150.5 -382.5t-423.5 -127.5h-453zM1257 0l179 1454h282l-178 -1454h-283zM414 248h166q130 0 197 64.5t67 183.5q0 93 -46.5 137.5t-144.5 44.5h-186z" />
    <glyph glyph-name="uni042C" unicode="&#x42c;" horiz-adv-x="1198" 
d="M106 0l179 1454h276l-65 -530h229q108 0 189 -27t126 -67.5t72.5 -98.5t35.5 -109.5t7 -111.5q-4 -255 -150 -382.5t-423 -127.5h-476zM414 248h188q130 0 197 64.5t67 183.5q0 93 -46 137.5t-144 44.5h-209z" />
    <glyph glyph-name="uni042D" unicode="&#x42d;" horiz-adv-x="1343" 
d="M694 1473q282 0 434 -165.5t152 -449.5q0 -183 -49 -341.5t-140.5 -278t-233 -188t-316.5 -68.5q-168 0 -300 60.5t-210 180.5l207 180q94 -163 307 -163q158 0 269 100t153 274h-576l29 238h577q-2 174 -89 269.5t-249 95.5q-76 0 -155 -32.5t-139 -88.5l-164 202
q101 87 230 131t263 44z" />
    <glyph glyph-name="uni042E" unicode="&#x42e;" horiz-adv-x="2025" 
d="M1403 1470q170 0 300.5 -71.5t204.5 -210t74 -326.5q0 -141 -33 -271.5t-97.5 -240.5t-154.5 -192t-211 -128t-259 -46q-251 0 -403.5 159.5t-155.5 431.5h-222l-69 -575h-281l178 1454h281l-78 -631h215q30 137 91.5 254t150.5 205t209.5 138t259.5 50zM1245 244
q130 0 233.5 87t158.5 227t55 302q0 168 -85.5 259t-217.5 91q-125 0 -227.5 -84.5t-158 -220.5t-55.5 -291q0 -180 83 -275t214 -95z" />
    <glyph glyph-name="uni042F" unicode="&#x42f;" horiz-adv-x="1263" 
d="M700 1454h514l-178 -1454h-276l61 500h-196l-324 -500h-311l381 573q-95 53 -148 144.5t-53 197.5q0 243 135.5 391t394.5 148zM850 745l57 461h-202q-118 0 -182 -70.5t-64 -191.5q0 -96 55 -147.5t152 -51.5h184z" />
    <glyph glyph-name="uni0430" unicode="&#x430;" horiz-adv-x="1142" 
d="M406 -18q-163 0 -249.5 114.5t-86.5 292.5q0 167 61 310t172.5 230t249.5 87q164 0 250 -92l6 2l10 73h260l-123 -999h-260l21 168l-6 2q-64 -91 -143 -139.5t-162 -48.5zM473 213q64 0 127 52.5t113.5 158t68.5 242.5l4 32q-84 84 -200 84q-76 0 -136 -59.5t-89 -146
t-29 -179.5q0 -86 37 -135t104 -49z" />
    <glyph glyph-name="uni0431" unicode="&#x431;" horiz-adv-x="1136" 
d="M526 -18q-201 0 -310.5 138.5t-109.5 389.5q0 141 21.5 271t67 246.5t112.5 205.5t163.5 148t213.5 75q21 3 81 10.5t85 12t68.5 13t75.5 21t61 29.5l51 -207q-25 -22 -56.5 -39t-56.5 -27t-66.5 -18t-63.5 -11t-72.5 -9t-69.5 -8q-134 -18 -215 -110.5t-125 -264.5l4 -2
q57 69 136 114.5t169 45.5q165 0 272 -110t107 -298q0 -128 -35 -238.5t-101 -195.5t-171 -133.5t-236 -48.5zM541 217q115 0 189.5 101.5t74.5 246.5q0 60 -17.5 103t-47 64t-58 29.5t-59.5 8.5q-107 0 -184 -92.5t-77 -214.5q0 -116 51.5 -181t127.5 -65z" />
    <glyph glyph-name="uni0432" unicode="&#x432;" horiz-adv-x="1042" 
d="M784 532q82 -21 126 -79.5t44 -133.5q0 -81 -37 -146.5t-100 -106.5t-143 -62.5t-170 -21.5q-215 0 -326.5 110t-111.5 316q0 95 22.5 183.5t68.5 165.5t110 135t153.5 91t193.5 33q158 0 259.5 -66t101.5 -182q0 -87 -55 -144.5t-136 -86.5v-5zM502 588q209 45 209 135
q0 39 -30 59.5t-75 20.5q-88 0 -169.5 -70t-112.5 -186zM516 201q39 0 78 11t70.5 40.5t31.5 71.5q0 52 -33 76t-86 22t-120 -12l-148 -29q22 -180 207 -180z" />
    <glyph glyph-name="uni0433" unicode="&#x433;" horiz-adv-x="882" 
d="M369 -18q-163 1 -247.5 68t-86.5 179q0 108 69 185t205 147l109 57q52 26 71 36.5t42 26.5t29 29t5 31q-3 54 -92 54q-97 0 -197 -82l-139 180q62 53 167 88t200 35q60 0 114.5 -13t103.5 -41t78 -78.5t29 -117.5q0 -53 -16.5 -97.5t-38.5 -74t-63.5 -60t-70 -46.5
t-79.5 -42l-129 -65q-77 -37 -104 -64.5t-27 -56.5q0 -30 27 -43.5t59 -13.5q129 0 221 102l195 -137q-87 -94 -191 -140t-243 -46z" />
    <glyph glyph-name="uni0434" unicode="&#x434;" horiz-adv-x="1116" 
d="M492 -16q-191 0 -305.5 116.5t-114.5 315.5q0 162 65.5 297.5t175 211.5t238.5 76q139 0 235 -81l2 2q-11 145 -61 225.5t-162 122.5q-79 30 -231 41l55 215q119 -1 217 -24.5t166.5 -61.5t120 -94t82.5 -116t49.5 -133.5t25 -141t5.5 -144.5q-3 -180 -38 -328.5
t-102 -261t-175 -175t-248 -62.5zM500 217q64 0 118 43t89 115t56.5 157.5t27.5 176.5q-67 67 -181 67q-119 0 -198.5 -99t-79.5 -241q0 -107 50 -163t118 -56z" />
    <glyph glyph-name="uni0435" unicode="&#x435;" horiz-adv-x="978" 
d="M500 209q60 0 109 24.5t98 79.5l198 -129q-88 -102 -185.5 -151t-236.5 -49q-189 0 -300 111.5t-111 305.5q0 125 37 236.5t104 195.5t169 133.5t224 49.5q86 0 160 -29.5t123 -93t49 -150.5q-1 -91 -52 -161.5t-141 -114.5t-191.5 -70t-225.5 -39q13 -73 61 -111
t111 -38zM590 791q-80 0 -151.5 -65t-100.5 -185q341 38 344 178q0 34 -24 53t-68 19z" />
    <glyph glyph-name="uni0436" unicode="&#x436;" horiz-adv-x="1474" 
d="M1210 377q32 -100 74 -137t113 -47l-66 -207q-40 -4 -67 -4q-108 0 -171 75t-104 224l-20 73q-62 -34 -138 -57l-36 -297h-250l57 459l-4 2q-134 -80 -204.5 -190t-119.5 -271h-266q31 139 111 269t190 231l-39 125q-17 53 -35.5 88t-43 54.5t-48.5 28.5t-61 15l63 201
q40 4 68 4q112 0 178 -74.5t103 -222.5l18 -76q54 32 119 51l37 307h250l-58 -466l4 -3q142 82 218.5 197.5t119.5 271.5h266q-32 -144 -109 -273.5t-188 -231.5z" />
    <glyph glyph-name="uni0437" unicode="&#x437;" horiz-adv-x="913" 
d="M387 -16q-224 0 -389 102l96 217q115 -96 291 -96q80 0 130 34t50 91q0 85 -151 82l-162 -2l24 180l130 2q92 1 138 36.5t46 84.5q0 36 -33.5 57t-89.5 21q-127 0 -252 -64l-92 201q62 32 163 59t199 27q101 0 182.5 -28t132 -87t50.5 -139q0 -82 -56.5 -142t-136.5 -90
v-4q80 -20 124 -76t44 -133q0 -161 -120.5 -247t-317.5 -86z" />
    <glyph glyph-name="uni0438" unicode="&#x438;" horiz-adv-x="1112" 
d="M362 -18q-155 0 -222.5 95t-39.5 306l88 618h258l-77 -567q-18 -120 2.5 -168.5t83.5 -48.5q79 0 168.5 103.5t107.5 238.5l53 442h260l-122 -1001h-258l18 164h-4q-130 -182 -316 -182z" />
    <glyph glyph-name="uni0439" unicode="&#x439;" horiz-adv-x="1112" 
d="M631 1126q-137 0 -211.5 67t-83.5 222l211 31q3 -75 33.5 -114.5t78.5 -39.5q49 0 100.5 43t84.5 117l184 -63q-67 -138 -174 -200.5t-223 -62.5zM362 -18q-155 0 -222.5 95t-39.5 306l88 618h258l-77 -567q-18 -120 2.5 -168.5t83.5 -48.5q79 0 168.5 103.5t107.5 238.5
l53 442h260l-122 -1001h-258l18 164h-4q-130 -182 -316 -182z" />
    <glyph glyph-name="uni043A" unicode="&#x43a;" horiz-adv-x="1052" 
d="M72 0l123 1001h258l-58 -487l4 -2q268 174 357 489h266q-56 -281 -291 -509l43 -115q36 -102 76 -138t111 -46l-68 -207q-36 -4 -66 -4q-46 1 -83.5 16t-63.5 37.5t-51 64.5t-41.5 80t-40.5 101l-21 57q-83 -56 -170 -94l-28 -244h-256z" />
    <glyph glyph-name="uni043B" unicode="&#x43b;" horiz-adv-x="1097" 
d="M621 1001h407l-123 -1001h-258l96 780h-81q-61 0 -93.5 -31t-46.5 -92q-12 -46 -33.5 -139.5t-35.5 -150.5q-46 -185 -137 -283t-222 -98q-79 0 -135 26l51 211q27 -10 51 -10q108 0 166 266q25 104 41 213q25 141 117.5 225t235.5 84z" />
    <glyph glyph-name="uni043C" unicode="&#x43c;" horiz-adv-x="1308" 
d="M63 0l125 1001h265l194 -563h4l332 563h264l-123 -1001h-252l72 575h-2l-246 -403h-168l-137 414h-2l-74 -586h-252z" />
    <glyph glyph-name="uni043D" unicode="&#x43d;" horiz-adv-x="1126" 
d="M799 1001h260l-123 -1001h-260l47 383l-344 -2l-47 -381h-260l123 1001h260l-49 -405l344 2z" />
    <glyph glyph-name="uni043E" unicode="&#x43e;" horiz-adv-x="1112" 
d="M494 -18q-193 0 -306.5 113t-113.5 313q0 121 37 231t104 194t170 133.5t227 49.5q195 0 310.5 -110t115.5 -308q0 -128 -34.5 -238.5t-101 -195.5t-171.5 -133.5t-237 -48.5zM508 217q117 0 192.5 105.5t75.5 255.5q0 60 -17.5 102.5t-46.5 63t-58 29.5t-60 9
q-77 0 -137.5 -52t-91.5 -131.5t-31 -168.5q0 -97 48.5 -155t125.5 -58z" />
    <glyph glyph-name="uni043F" unicode="&#x43f;" horiz-adv-x="1130" 
d="M72 0l125 1001h258l-19 -159l4 -2q145 176 346 176q153 0 211.5 -101t30.5 -309l-82 -606h-258l76 565q14 113 -3 165t-79 52q-41 0 -89 -29.5t-92 -81.5t-78 -131t-46 -169l-45 -371h-260z" />
    <glyph glyph-name="uni0440" unicode="&#x440;" horiz-adv-x="1157" 
d="M23 -406l174 1407h258l-21 -172l4 -4q127 191 328 191q104 0 178 -56.5t108.5 -147.5t34.5 -204q0 -166 -61 -308.5t-174.5 -230t-253.5 -87.5q-157 0 -252 79l-6 -2l-57 -465h-260zM530 215q90 0 159 54t102.5 137.5t33.5 179.5q0 86 -35 142t-98 56q-106 0 -201 -123.5
t-122 -322.5l-4 -39q26 -41 69.5 -62.5t95.5 -21.5z" />
    <glyph glyph-name="uni0441" unicode="&#x441;" horiz-adv-x="997" 
d="M492 -16q-196 0 -307 110t-111 320q0 119 35.5 227t101 192t167 133.5t224.5 49.5q125 0 220.5 -44.5t152.5 -129.5l-201 -152q-57 92 -172 92q-116 0 -191 -103t-75 -251q0 -103 47.5 -156t122.5 -53q111 0 203 103l202 -138q-167 -200 -419 -200z" />
    <glyph glyph-name="uni0442" unicode="&#x442;" horiz-adv-x="1687" 
d="M74 0l123 1001h260l-19 -149l6 -2q141 166 322 166q183 0 225 -168h10q137 168 342 168q153 0 210.5 -101t29.5 -313l-82 -602h-260l78 565q14 111 -1.5 164t-68.5 53q-33 0 -76 -28t-85 -77.5t-76.5 -128.5t-46.5 -169l-50 -379h-258l74 565q16 107 1 162t-68 55
q-34 0 -77.5 -29.5t-86 -79.5t-76.5 -128t-45 -164l-45 -381h-260z" />
    <glyph glyph-name="uni0443" unicode="&#x443;" horiz-adv-x="1105" 
d="M788 1001h256l-106 -872q-15 -130 -54 -229t-91 -159t-121.5 -97.5t-138 -51.5t-148.5 -14q-198 0 -352 96l82 211q131 -84 262 -84q63 0 108.5 13.5t87 49t69 104.5t40.5 173l2 21l-4 2q-130 -182 -322 -182q-155 0 -222.5 95t-37.5 306l84 618h258l-75 -567
q-15 -122 4.5 -168.5t83.5 -48.5q84 0 174.5 108t107.5 248z" />
    <glyph glyph-name="uni0444" unicode="&#x444;" horiz-adv-x="1484" 
d="M502 -406l67 523l-4 2q-99 -137 -225 -137q-136 0 -211.5 116.5t-73.5 307.5q2 164 49 301t141 223t218 86q60 0 115 -25.5t84 -68.5l4 2l71 583h258l-80 -630l5 -3q45 70 107 106t122 36q133 0 208.5 -116.5t72.5 -307.5q-2 -165 -48.5 -301t-140.5 -222.5t-219 -86.5
q-60 0 -114 26t-83 70l-6 -4l-59 -480h-258zM956 215q54 0 95.5 32.5t66 86t37 114.5t14.5 127q1 99 -27.5 159.5t-74.5 60.5q-50 0 -97 -61t-81.5 -164.5t-48.5 -227.5l-4 -43q53 -84 120 -84zM426 203q71 0 135 131t86 323l4 43q-52 82 -121 82q-54 0 -95.5 -32t-66 -85.5
t-38 -114.5t-15.5 -128q-1 -99 29.5 -159t81.5 -60z" />
    <glyph glyph-name="uni0445" unicode="&#x445;" horiz-adv-x="980" 
d="M-27 0l371 514l-240 487h291l119 -288h4l187 288h305l-369 -499l248 -502h-289l-129 295h-4l-205 -295h-289z" />
    <glyph glyph-name="uni0446" unicode="&#x446;" horiz-adv-x="1232" 
d="M1059 213h115l-89 -481h-208l30 260h-2q-89 0 -139.5 53.5t-58.5 138.5q0 7 -2 11h-5q-58 -94 -148.5 -153.5t-189.5 -59.5q-156 0 -224 95t-38 306l86 618h258l-77 -567q-17 -120 4 -168.5t84 -48.5q37 0 81 27t84 71.5t70.5 108.5t38.5 131l55 446h260l-79 -651
q-4 -28 -4 -49t2 -35t9.5 -24t14 -15.5t20 -8.5t24 -3.5t28.5 -1.5z" />
    <glyph glyph-name="uni0447" unicode="&#x447;" horiz-adv-x="1052" 
d="M600 0l55 444h-4q-62 -76 -150 -117.5t-169 -41.5q-287 0 -238 329l53 387h259l-52 -364q-9 -66 10 -97t78 -30q79 1 159 77t89 148l33 264h260l-123 -999h-260z" />
    <glyph glyph-name="uni0448" unicode="&#x448;" horiz-adv-x="1634" 
d="M346 -18q-306 0 -248 417l86 602h258l-77 -552q-18 -127 4 -179.5t80 -52.5q27 0 61 18.5t70 56t65.5 107t40.5 158.5l55 444h256l-71 -567q-15 -120 4.5 -168.5t75.5 -48.5q66 0 149 105.5t102 250.5l52 428h262l-123 -1001h-260l20 168h-6q-50 -83 -132.5 -134.5
t-170.5 -51.5q-85 0 -143.5 52.5t-73.5 139.5h-4q-51 -86 -150 -139t-182 -53z" />
    <glyph glyph-name="uni0449" unicode="&#x449;" horiz-adv-x="1755" 
d="M1585 213h115l-88 -481h-209l31 260h-2q-90 0 -141.5 53t-57.5 139q0 7 -2 11h-4q-58 -93 -147 -153t-181 -60q-88 0 -145 52t-72 140h-4q-51 -86 -150 -139t-182 -53q-306 0 -248 417l86 602h258l-77 -552q-18 -127 4 -179.5t80 -52.5q27 0 61 18.5t70 56t65.5 107
t40.5 158.5l55 444h256l-71 -567q-15 -120 4.5 -168.5t75.5 -48.5q66 0 149 105.5t102 250.5l52 428h262l-80 -651q-3 -28 -3 -49t2 -35.5t9.5 -24t14 -15t20 -8.5t23.5 -3.5t28 -1.5z" />
    <glyph glyph-name="uni044A" unicode="&#x44a;" horiz-adv-x="1075" 
d="M745 778q117 0 197.5 -83.5t79.5 -221.5q-2 -218 -127 -354.5t-350 -136.5q-213 0 -301 109t-58 310l54 379h-199l29 221h458l-55 -352l2 -2q37 54 109.5 92.5t160.5 38.5zM563 203q89 0 143 69.5t54 161.5q0 64 -38 93.5t-89 29.5q-76 0 -132 -54t-67 -132
q-11 -73 22 -120.5t107 -47.5z" />
    <glyph glyph-name="uni044B" unicode="&#x44b;" horiz-adv-x="1452" 
d="M449 -18q-213 0 -301 109t-58 310l84 600h258l-55 -350l2 -2q35 50 107 89.5t153 39.5q117 0 197 -83.5t79 -221.5q-3 -218 -125.5 -354.5t-340.5 -136.5zM999 0l125 1001h258l-122 -1001h-261zM467 203q83 0 134.5 70t51.5 161q0 64 -36 93.5t-80 29.5q-76 0 -132 -54
t-67 -132q-11 -73 22 -120.5t107 -47.5z" />
    <glyph glyph-name="uni044C" unicode="&#x44c;" horiz-adv-x="978" 
d="M449 -18q-213 0 -301 109t-58 310l84 600h258l-55 -352l2 -2q37 54 109.5 92.5t160.5 38.5q117 0 197.5 -83.5t79.5 -221.5q-2 -218 -127 -354.5t-350 -136.5zM467 203q89 0 143 69.5t54 161.5q0 64 -38 93.5t-89 29.5q-76 0 -132 -54t-67 -132q-11 -73 22 -120.5
t107 -47.5z" />
    <glyph glyph-name="uni044D" unicode="&#x44d;" horiz-adv-x="980" 
d="M475 1016q200 0 315.5 -111t114.5 -321q-1 -128 -38.5 -238t-107 -190.5t-174 -126t-233.5 -45.5q-110 0 -206.5 35t-157.5 106l168 174q67 -84 206 -84q92 0 161.5 53.5t101.5 147.5l-404 -4l25 186l401 4q-6 90 -56 138t-140 48q-42 0 -98 -18.5t-105 -58.5l-142 176
q69 60 168 94.5t201 34.5z" />
    <glyph glyph-name="uni044E" unicode="&#x44e;" horiz-adv-x="1525" 
d="M1049 1016q190 0 303.5 -110t113.5 -308q0 -129 -34.5 -240t-99.5 -195.5t-166.5 -132.5t-227.5 -48q-183 0 -292 106t-118 297l-157 -2l-47 -383h-261l123 1001h260l-49 -407l154 2q46 185 177.5 302.5t320.5 117.5zM950 217q106 0 180 101t74 247q0 103 -48.5 160
t-127.5 57q-105 0 -178.5 -102.5t-73.5 -247.5q0 -100 48 -157.5t126 -57.5z" />
    <glyph glyph-name="uni044F" unicode="&#x44f;" horiz-adv-x="1032" 
d="M561 999l404 2l-123 -1001h-258l41 342l-93 -2h-43l-28 -59q-77 -154 -157.5 -226.5t-197.5 -72.5q-25 0 -73 6l-17 205q75 10 123 44.5t99 127.5l22 41q-50 25 -82.5 67t-44.5 82t-12 82q0 122 57.5 205t154 120t228.5 37zM532 532l117 3l31 245h-121q-78 0 -128 -37.5
t-50 -105.5q0 -105 151 -105z" />
    <glyph glyph-name="uni0450" unicode="&#x450;" horiz-adv-x="978" 
d="M778 1141h-252l-190 301l274 -2zM500 209q60 0 109 24.5t98 79.5l198 -129q-88 -102 -185.5 -151t-236.5 -49q-189 0 -300 111.5t-111 305.5q0 125 37 236.5t104 195.5t169 133.5t224 49.5q86 0 160 -29.5t123 -93t49 -150.5q-1 -91 -52 -161.5t-141 -114.5t-191.5 -70
t-225.5 -39q13 -73 61 -111t111 -38zM590 791q-80 0 -151.5 -65t-100.5 -185q341 38 344 178q0 34 -24 53t-68 19z" />
    <glyph glyph-name="uni0451" unicode="&#x451;" horiz-adv-x="978" 
d="M406 1141q-70 0 -116 45.5t-46 113.5q0 71 47.5 117.5t120.5 46.5q70 0 115.5 -44.5t45.5 -112.5q0 -71 -47 -118.5t-120 -47.5zM825 1464q70 0 116 -44.5t46 -112.5q0 -71 -47.5 -118.5t-120.5 -47.5q-71 0 -117.5 45.5t-46.5 113.5q0 71 48.5 117.5t121.5 46.5z
M938 743q-1 -91 -52 -161.5t-141 -114.5t-191.5 -70t-225.5 -39q13 -73 61 -111t111 -38q60 0 109 24.5t98 79.5l198 -129q-88 -102 -185.5 -151t-236.5 -49q-189 0 -300 111.5t-111 305.5q0 125 37 236.5t104 195.5t169 133.5t224 49.5q86 0 160 -29.5t123 -93t49 -150.5z
M338 541q341 38 344 178q0 34 -24 53t-68 19q-80 0 -151.5 -65t-100.5 -185z" />
    <glyph glyph-name="uni0452" unicode="&#x452;" horiz-adv-x="1105" 
d="M766 938q79 0 135.5 -30.5t87.5 -82t44.5 -123t10.5 -150t-20 -167.5q-56 -287 -214.5 -503t-389.5 -308l-111 164q179 100 293 279t158 409q59 279 -92 279q-42 0 -89.5 -30t-90.5 -82.5t-76 -133.5t-43 -174l-35 -285h-260l137 1104h-127l25 196h127l24 207h256
l-27 -207h340l-24 -196h-338l-43 -340l4 -4q141 178 338 178z" />
    <glyph glyph-name="uni0453" unicode="&#x453;" horiz-adv-x="882" 
d="M350 1141l244 299l274 2l-264 -301h-254zM369 -18q-163 1 -247.5 68t-86.5 179q0 108 69 185t205 147l109 57q52 26 71 36.5t42 26.5t29 29t5 31q-3 54 -92 54q-97 0 -197 -82l-139 180q62 53 167 88t200 35q60 0 114.5 -13t103.5 -41t78 -78.5t29 -117.5
q0 -53 -16.5 -97.5t-38.5 -74t-63.5 -60t-70 -46.5t-79.5 -42l-129 -65q-77 -37 -104 -64.5t-27 -56.5q0 -30 27 -43.5t59 -13.5q129 0 221 102l195 -137q-87 -94 -191 -140t-243 -46z" />
    <glyph glyph-name="uni0454" unicode="&#x454;" horiz-adv-x="1013" 
d="M530 213q124 0 205 90l201 -141q-85 -94 -187 -136t-235 -42q-204 0 -322.5 111t-117.5 321q1 172 65 307t189.5 214t294.5 79q111 0 214 -38t164 -120l-188 -158q-35 42 -90 64t-111 22q-87 0 -153.5 -49.5t-100.5 -136.5l392 2l-21 -188l-399 -4q6 -101 62 -149
t138 -48z" />
    <glyph glyph-name="uni0455" unicode="&#x455;" horiz-adv-x="868" 
d="M389 -18q-110 0 -214.5 47t-162.5 125l158 161q44 -57 103.5 -88.5t119.5 -31.5q56 0 92.5 21t36.5 58q0 30 -30.5 51.5t-118.5 63.5q-14 6 -21 10q-120 56 -183 126t-63 173q0 142 103 230t254 88q102 0 194.5 -37.5t157.5 -112.5l-164 -161q-73 98 -188 102
q-44 0 -72.5 -22.5t-28.5 -59.5q0 -31 38.5 -61t115.5 -68q42 -21 66 -34t59.5 -35.5t56 -43t41.5 -48t31 -60t10 -70.5q1 -152 -105 -237.5t-286 -85.5z" />
    <glyph glyph-name="uni0456" unicode="&#x456;" horiz-adv-x="536" 
d="M371 1141q-70 0 -116 45.5t-46 113.5q0 71 47.5 117.5t120.5 46.5q71 0 117.5 -45t46.5 -112q0 -71 -48.5 -118.5t-121.5 -47.5zM76 0l125 1001h260l-123 -1001h-262z" />
    <glyph glyph-name="uni0457" unicode="&#x457;" horiz-adv-x="536" 
d="M455 1462q62 0 105.5 -44t43.5 -111q0 -70 -45 -118t-110 -48q-39 0 -74 18q-34 -18 -74 -18q-65 0 -109.5 46t-44.5 113q0 70 46 116t114 46q37 0 72 -18q34 18 76 18zM76 0l125 1001h260l-123 -1001h-262z" />
    <glyph glyph-name="uni0458" unicode="&#x458;" horiz-adv-x="501" 
d="M342 1141q-70 0 -116 45.5t-46 113.5q0 71 47.5 117.5t120.5 46.5q71 0 117.5 -45t46.5 -112q0 -71 -48.5 -118.5t-121.5 -47.5zM-16 -422q-109 0 -195 47l66 203q39 -29 84 -29q47 0 71 42t35 139l127 1021h260l-129 -1058q-47 -365 -319 -365z" />
    <glyph glyph-name="uni0459" unicode="&#x459;" horiz-adv-x="1572" 
d="M1247 778q113 0 193 -83.5t80 -221.5q-2 -142 -56.5 -252t-163 -174.5t-258.5 -64.5q-213 0 -301 109t-59 310l55 379h-80q-60 0 -92.5 -30.5t-46.5 -92.5q-6 -25 -26.5 -121.5t-38.5 -168.5q-46 -185 -137 -283t-222 -98q-79 0 -135 26l51 211q27 -10 51 -10
q108 0 166 266q25 104 41 213q25 141 117.5 225t235.5 84h405l-57 -368l2 -2q36 56 113.5 101.5t162.5 45.5zM1059 203q90 0 143 69t53 162q0 64 -37 93.5t-88 29.5q-78 0 -132.5 -53.5t-65.5 -132.5q-11 -72 22 -120t105 -48z" />
    <glyph glyph-name="uni045A" unicode="&#x45a;" horiz-adv-x="1538" 
d="M1227 778q115 0 194 -83.5t78 -221.5q-2 -218 -127 -354.5t-350 -136.5q-208 0 -295 104t-65 297l-297 -2l-48 -381h-260l123 1001h260l-49 -405l299 2l58 403h258l-56 -368l2 -2q36 57 113 102t162 45zM1040 203q90 0 143.5 69t53.5 162q0 64 -38 93.5t-89 29.5
q-76 0 -131.5 -53.5t-67.5 -132.5q-10 -73 23 -120.5t106 -47.5z" />
    <glyph glyph-name="uni045B" unicode="&#x45b;" horiz-adv-x="1120" 
d="M772 938q153 0 211.5 -101t30.5 -309l-68 -528h-260l64 487q14 112 -3 165t-77 53q-43 0 -91 -30t-91 -82.5t-76 -133.5t-43 -174l-35 -285h-260l137 1104h-127l25 196h127l24 207h256l-27 -207h340l-24 -196h-338l-43 -340l4 -4q141 178 344 178z" />
    <glyph glyph-name="uni045C" unicode="&#x45c;" horiz-adv-x="1052" 
d="M451 1139l243 299l275 2l-264 -301h-254zM72 0l123 1001h258l-58 -487l4 -2q268 174 357 489h266q-56 -281 -291 -509l43 -115q36 -102 76 -138t111 -46l-68 -207q-36 -4 -66 -4q-46 1 -83.5 16t-63.5 37.5t-51 64.5t-41.5 80t-40.5 101l-21 57q-83 -56 -170 -94
l-28 -244h-256z" />
    <glyph glyph-name="uni045D" unicode="&#x45d;" horiz-adv-x="1112" 
d="M518 1141l-190 301l274 -2l168 -299h-252zM362 -18q-155 0 -222.5 95t-39.5 306l88 618h258l-77 -567q-18 -120 2.5 -168.5t83.5 -48.5q79 0 168.5 103.5t107.5 238.5l53 442h260l-122 -1001h-258l18 164h-4q-130 -182 -316 -182z" />
    <glyph glyph-name="uni045E" unicode="&#x45e;" horiz-adv-x="1105" 
d="M627 1126q-137 0 -211.5 67t-83.5 222l211 31q3 -75 33.5 -114.5t78.5 -39.5q49 0 100.5 43t84.5 117l184 -63q-67 -138 -174 -200.5t-223 -62.5zM788 1001h256l-106 -872q-15 -130 -54 -229t-91 -159t-121.5 -97.5t-138 -51.5t-148.5 -14q-198 0 -352 96l82 211
q131 -84 262 -84q63 0 108.5 13.5t87 49t69 104.5t40.5 173l2 21l-4 2q-130 -182 -322 -182q-155 0 -222.5 95t-37.5 306l84 618h258l-75 -567q-15 -122 4.5 -168.5t83.5 -48.5q84 0 174.5 108t107.5 248z" />
    <glyph glyph-name="uni045F" unicode="&#x45f;" horiz-adv-x="1112" 
d="M784 1001h260l-122 -1001h-258l18 164h-4q-52 -72 -107 -111l-65 -411h-211l41 340q-288 16 -236 401l88 618h258l-77 -567q-18 -120 2.5 -168.5t83.5 -48.5q79 0 168.5 103.5t107.5 238.5z" />
    <glyph glyph-name="uni0462" unicode="&#x462;" horiz-adv-x="1341" 
d="M877 893q106 0 185 -25.5t123 -64.5t70 -94.5t34 -105t7 -107.5q-4 -247 -146.5 -371.5t-412.5 -124.5h-495l131 1067h-293l29 229h292l19 158h274l-18 -158h409l-28 -229h-410l-20 -174h250zM758 246q120 0 184 62t64 173q0 90 -44 132t-135 42h-231l-49 -409h211z" />
    <glyph glyph-name="uni0463" unicode="&#x463;" horiz-adv-x="1517" 
d="M1001 -18q-216 0 -306 115t-48 331l23 125q21 119 4 174t-66 55q-64 0 -141.5 -118.5t-99.5 -292.5l-45 -371h-263l125 1001h260l-20 -159l4 -2q130 176 295 176q130 0 186.5 -96.5t22.5 -280.5l2 -2q38 55 113.5 98t158.5 43q114 0 194 -84t79 -221q-3 -218 -128 -354.5
t-350 -136.5zM1020 203q89 0 143 69.5t54 161.5q0 64 -38 93.5t-89 29.5q-76 0 -132 -54t-67 -132q-11 -73 22 -120.5t107 -47.5z" />
    <glyph glyph-name="uni0472" unicode="&#x472;" horiz-adv-x="1542" 
d="M885 1473q267 0 428.5 -163.5t161.5 -449.5q0 -142 -33 -273t-98.5 -240.5t-156.5 -191.5t-214 -127.5t-264 -45.5q-268 0 -427 163t-159 453q0 137 34.5 267t101.5 239.5t158 192.5t212 129.5t256 46.5zM858 1221q-150 0 -261.5 -104t-160.5 -275h756v22
q0 168 -86.5 262.5t-247.5 94.5zM729 236q156 0 269 100.5t163 275.5h-755v-16q0 -168 83.5 -264t239.5 -96z" />
    <glyph glyph-name="uni0473" unicode="&#x473;" horiz-adv-x="1087" 
d="M604 1016q194 0 309 -110t115 -308q0 -102 -21 -193t-65.5 -169t-108 -134t-153 -88t-197.5 -32q-192 0 -307 114t-115 312q0 121 37 230.5t105 194t172 134t229 49.5zM586 791q-87 0 -151.5 -54t-96.5 -145l436 8q-2 62 -19 102.5t-47 58.5t-57 24t-65 6zM500 207
q94 0 162 56t96 153l-443 -8q3 -201 185 -201z" />
    <glyph glyph-name="uni0474" unicode="&#x474;" horiz-adv-x="1380" 
d="M459 0l-297 1454h295l170 -1065h4l266 762q64 183 144 251t214 68q62 0 136.5 -18t124.5 -45l-86 -217q-70 31 -115 31q-59 0 -97.5 -47t-82.5 -152l-420 -1022h-256z" />
    <glyph glyph-name="uni0475" unicode="&#x475;" horiz-adv-x="1028" 
d="M283 0l-203 1001h270l105 -708h2l161 463q49 144 120.5 202t183.5 58q114 0 188 -58l-66 -206q-52 32 -92 32q-41 0 -67.5 -37.5t-65.5 -128.5l-258 -618h-278z" />
    <glyph glyph-name="uni048A" unicode="&#x48a;" horiz-adv-x="1492" 
d="M852 1565q-138 0 -212 67t-83 221l211 19q3 -65 35 -102t78 -37q48 0 98.5 40t83.5 107l186 -55q-46 -93 -115.5 -154t-138.5 -83.5t-143 -22.5zM1231 250h223l-10 -90l-223 -441h-191l98 281h-208l116 944h-4l-667 -944h-259l179 1454h276l-123 -979h6l670 979h262z" />
    <glyph glyph-name="uni048B" unicode="&#x48b;" horiz-adv-x="1183" 
d="M631 1126q-137 0 -211.5 67t-83.5 222l211 31q3 -75 33.5 -114.5t78.5 -39.5q49 0 100.5 43t84.5 117l184 -63q-67 -138 -174 -200.5t-223 -62.5zM1059 213h90l-8 -45l-217 -432h-183l101 264q-61 18 -95 67t-40 117q0 7 -2 11h-5q-58 -94 -148.5 -153.5t-189.5 -59.5
q-156 0 -224 95t-38 306l86 618h258l-77 -567q-17 -120 4 -168.5t84 -48.5q37 0 81 27t84 71.5t70.5 108.5t38.5 131l55 446h260l-79 -651q-4 -28 -4 -49t2 -35t9.5 -24t14 -15.5t20 -8.5t24 -3.5t28.5 -1.5z" />
    <glyph glyph-name="uni048C" unicode="&#x48c;" horiz-adv-x="1230" 
d="M766 893q105 0 184 -25.5t123 -64.5t70.5 -94.5t34 -105.5t6.5 -107q-4 -247 -146 -371.5t-411 -124.5h-496l133 1092h-188l26 202h187l20 160h275l-21 -160h281l-27 -202h-278l-25 -199h252zM647 246q120 0 183 61.5t63 173.5q0 90 -43 132t-133 42h-232l-51 -409h213z
" />
    <glyph glyph-name="uni048D" unicode="&#x48d;" horiz-adv-x="1001" 
d="M674 745q120 0 195.5 -79.5t74.5 -210.5q-2 -205 -128 -339t-351 -134q-213 0 -300.5 109t-58.5 310l56 392h-123l20 170h127l13 92h254l-13 -88h275l-21 -160h-278l-31 -207l2 -2q42 58 121.5 102.5t165.5 44.5zM680 410q3 61 -31 96t-96 35q-75 0 -129.5 -49
t-67.5 -117q-13 -74 20 -123t107 -49q84 0 139 62.5t58 144.5z" />
    <glyph glyph-name="uni048E" unicode="&#x48e;" horiz-adv-x="1220" 
d="M1208 1059q0 -172 -68 -298t-198 -192l92 -245l-184 -93l-107 277q-53 -6 -112 -6h-189l-59 -502h-277l179 1454h520q403 0 403 -395zM469 745h190h13l-76 207l149 78l84 -231q95 79 95 243q0 77 -50.5 120.5t-130.5 43.5h-217z" />
    <glyph glyph-name="uni048F" unicode="&#x48f;" horiz-adv-x="1157" 
d="M1087 608q0 -162 -60 -303.5t-165 -226.5l90 -207l-170 -90l-94 211q-48 -10 -90 -10q-157 0 -252 79l-6 -2l-57 -465h-260l174 1407h258l-21 -172l4 -4q127 191 328 191q104 0 178 -56.5t108.5 -147.5t34.5 -204zM530 215q42 0 80 12l-86 199l144 78l75 -182
q82 111 82 264q0 86 -35 142t-98 56q-106 0 -201 -123.5t-122 -322.5l-4 -39q26 -41 69.5 -62.5t95.5 -21.5z" />
    <glyph glyph-name="uni0490" unicode="&#x490;" horiz-adv-x="1081" 
d="M942 1735h229l-65 -531h-574l-147 -1204h-279l179 1454h604z" />
    <glyph glyph-name="uni0491" unicode="&#x491;" horiz-adv-x="821" 
d="M678 1253h199l-58 -473h-391l-94 -780h-262l123 1001h430z" />
    <glyph glyph-name="uni0492" unicode="&#x492;" horiz-adv-x="1122" 
d="M1147 1204h-576l-51 -420h357l-25 -200h-356l-72 -584h-279l72 584h-186l26 200h185l82 670h854z" />
    <glyph glyph-name="uni0493" unicode="&#x493;" horiz-adv-x="882" 
d="M389 203q130 0 221 98l193 -137q-87 -93 -190.5 -137.5t-243.5 -44.5q-162 0 -247 66.5t-87 176.5q0 171 219 264l-16 9l-27 8v2l-61 24l51 105l161 -66l11 21l45 22q88 43 118 68t29 61q-3 54 -94 54q-94 0 -195 -80l-139 176q62 53 167 88t200 35q47 0 91.5 -7.5
t87.5 -26t75 -46t51.5 -69.5t19.5 -95q0 -48 -15 -86.5t-44 -66t-57.5 -45.5t-69.5 -37v-9h-10v4q-12 -6 -34 -15t-26 -11l-22 -10l78 -31l-47 -107l-113 45l-39 -18q-76 -38 -102.5 -66.5t-26.5 -58.5t27.5 -43.5t60.5 -13.5z" />
    <glyph glyph-name="uni0494" unicode="&#x494;" horiz-adv-x="1255" 
d="M727 819q182 0 299 -137.5t117 -374.5q0 -117 -22.5 -223t-70 -198.5t-116.5 -159.5t-167.5 -105.5t-217.5 -38.5q-70 0 -123 15l37 225q46 -8 67 -8q78 0 140.5 41.5t101.5 109.5t59.5 151t20.5 171q0 134 -57 207t-168 73q-93 0 -178 -37l-66 -530h-277l179 1454h852
l-31 -250h-576l-53 -440q113 55 250 55z" />
    <glyph glyph-name="uni0495" unicode="&#x495;" horiz-adv-x="1044" 
d="M649 551q144 0 235 -104t91 -277q0 -272 -154.5 -432t-419.5 -160q-77 0 -147 12l57 207q7 0 26.5 -1t31.5 -1q159 0 252.5 93.5t93.5 250.5q0 88 -42 132t-116 44t-134.5 -51t-68.5 -102l-24 -162h-258l123 1001h651l-27 -221h-391l-43 -358h4q106 129 260 129z" />
    <glyph glyph-name="uni0496" unicode="&#x496;" horiz-adv-x="1871" 
d="M1376 770l236 -520h203l-78 -531h-230l23 281h-123l-258 604l-135 -166l-51 -438h-269l54 442l-91 162l-395 -604h-315l524 776l-340 678h324l327 -692l6 2l84 690h269l-86 -688l6 -2l483 690h332z" />
    <glyph glyph-name="uni0497" unicode="&#x497;" horiz-adv-x="1540" 
d="M1407 213h80l-88 -481h-209l31 262q-86 13 -140 85t-92 202q-3 12 -10 36t-10 37q-62 -34 -138 -57l-36 -297h-250l57 459l-4 2q-134 -80 -204.5 -190t-119.5 -271h-266q31 139 111 269t190 231l-39 127q-32 102 -73.5 138t-114.5 46l63 203q40 4 68 4q112 0 178 -74.5
t103 -222.5l18 -78q54 32 119 51l37 307h250l-58 -466l4 -3q142 82 218.5 197.5t119.5 271.5h266q-32 -144 -109.5 -274.5t-187.5 -230.5q10 -34 39 -119q31 -100 75.5 -132t121.5 -32z" />
    <glyph glyph-name="uni0498" unicode="&#x498;" horiz-adv-x="1159" 
d="M854 778q103 -44 159 -132.5t56 -209.5q0 -201 -135 -323t-371 -131l-18 -39q62 -18 99.5 -54t37.5 -86q0 -94 -70 -142t-188 -48q-70 0 -125 12l8 125q31 -10 90 -10q99 0 99 65q0 44 -115 66l45 117q-136 19 -242.5 81t-167.5 160l197 187q49 -85 134.5 -131.5
t189.5 -46.5q114 0 178.5 59.5t64.5 159.5q0 176 -233 176h-189l31 231h172q114 0 182 53.5t68 145.5q0 77 -50.5 114t-133.5 37q-72 0 -146.5 -27t-130.5 -75l-164 203q97 82 223 118.5t255 36.5q195 0 313.5 -89t118.5 -246q0 -112 -64.5 -207t-177.5 -144v-6z" />
    <glyph glyph-name="uni0499" unicode="&#x499;" horiz-adv-x="913" 
d="M657 526q80 -20 124 -76t44 -133q0 -151 -106.5 -236.5t-282.5 -94.5l-20 -43q62 -18 99.5 -54t37.5 -86q0 -94 -70 -142t-188 -48q-69 0 -125 12l8 125q31 -10 90 -10q99 0 99 65q0 44 -115 66l45 117q-165 15 -299 98l96 217q115 -96 291 -96q80 0 130 34t50 91
q0 85 -151 82l-162 -2l24 180l130 2q92 1 138 36.5t46 84.5q0 36 -33.5 57t-89.5 21q-127 0 -252 -64l-92 201q62 32 163 59t199 27q101 0 182.5 -28t132 -87t50.5 -139q0 -82 -56.5 -142t-136.5 -90v-4z" />
    <glyph glyph-name="uni049A" unicode="&#x49a;" horiz-adv-x="1349" 
d="M817 805l256 -555h205l-78 -531h-229l22 281h-123l-264 604l-174 -205l-49 -399h-277l179 1454h276l-80 -653l6 -2l527 655h342z" />
    <glyph glyph-name="uni049B" unicode="&#x49b;" horiz-adv-x="1110" 
d="M969 213h80l-88 -481h-209l30 262q-85 14 -135.5 83t-99.5 204l-19 53q-81 -51 -172 -90l-28 -244h-256l123 1001h258l-58 -487l4 -2q268 174 357 489h266q-56 -282 -291 -507l43 -117q36 -100 79 -132t116 -32z" />
    <glyph glyph-name="uni049C" unicode="&#x49c;" horiz-adv-x="1458" 
d="M1534 1454l-475 -711l317 -743h-313l-246 614h-26l-48 -370h-190l45 366l-139 -2l-74 -608h-279l179 1454h278l-78 -637l140 4l49 391h190l-47 -385h12l375 627h330z" />
    <glyph glyph-name="uni049D" unicode="&#x49d;" horiz-adv-x="1163" 
d="M883 377q38 -103 77 -138.5t109 -45.5l-68 -207q-36 -4 -65 -4q-58 0 -100.5 18t-73.5 58.5t-52.5 89t-45.5 126.5l-33 115q-2 -1 -6.5 -2t-6.5 -2l-32 -266h-144l25 207l-102 -31l-37 -295h-256l123 1001h256l-62 -509l4 -3q52 16 99 37l34 279h146l-23 -184
q89 73 135.5 167t79.5 213h266q-56 -282 -290 -509z" />
    <glyph glyph-name="uni049E" unicode="&#x49e;" horiz-adv-x="1288" 
d="M1372 1454l-538 -649l372 -805h-319l-262 606l-176 -207l-50 -399h-276l135 1110h-178l24 203h181l16 141h279l-17 -141h125l-24 -203h-127l-37 -309l6 -2l524 655h342z" />
    <glyph glyph-name="uni049F" unicode="&#x49f;" horiz-adv-x="1052" 
d="M774 377q36 -102 76 -138t111 -46l-68 -207q-36 -4 -66 -4q-46 1 -83.5 16t-63.5 37.5t-51 64.5t-41.5 80t-40.5 101l-21 57q-83 -56 -170 -94l-28 -244h-256l141 1143h-109l19 168h110l25 196h258l-24 -196h260l-21 -168h-260l-76 -629l4 -2q268 174 357 489h266
q-56 -281 -291 -509z" />
    <glyph glyph-name="uni04A0" unicode="&#x4a0;" horiz-adv-x="1441" 
d="M1526 1454l-539 -649l371 -805h-318l-264 604l-174 -205l-49 -399h-277l148 1204h-328l31 250h604l-80 -653l6 -2l527 655h342z" />
    <glyph glyph-name="uni04A1" unicode="&#x4a1;" horiz-adv-x="1173" 
d="M895 377q36 -102 75.5 -138t108.5 -46l-65 -207q-40 -4 -68 -4q-46 0 -83 15t-63 37.5t-51 64.5t-42 80.5t-41 101.5l-19 57q-83 -56 -170 -94l-28 -244h-256l96 780h-248l29 221h503l-59 -487l4 -2q271 176 356 489h267q-57 -285 -291 -509z" />
    <glyph glyph-name="uni04A2" unicode="&#x4a2;" horiz-adv-x="1472" 
d="M1405 250l-78 -531h-229l22 281h-223l72 571h-514l-70 -571h-279l179 1454h278l-78 -633h514l78 633h279l-148 -1204h197z" />
    <glyph glyph-name="uni04A3" unicode="&#x4a3;" horiz-adv-x="1239" 
d="M1065 213h115l-88 -481h-209l30 260h-2q-243 0 -217 229l21 162l-336 -2l-47 -381h-260l123 1001h260l-49 -405l333 2l49 403h263l-82 -657q-3 -24 -3.5 -42.5t3 -32t6 -23t11 -15.5t14 -9.5t19 -5.5t21 -2t25.5 -1z" />
    <glyph glyph-name="uni04A4" unicode="&#x4a4;" horiz-adv-x="1662" 
d="M1061 1454h657l-30 -250h-379l-148 -1204h-278l69 571h-497l-70 -571h-279l179 1454h278l-78 -633h498z" />
    <glyph glyph-name="uni04A5" unicode="&#x4a5;" horiz-adv-x="1284" 
d="M1309 1001l-27 -221h-276l-95 -780h-260l47 383l-319 -2l-47 -381h-260l123 1001h260l-49 -405l319 2l49 403h535z" />
    <glyph glyph-name="uni04A6" unicode="&#x4a6;" horiz-adv-x="1992" 
d="M1464 819q182 0 299 -137.5t117 -374.5q0 -117 -22.5 -223t-70 -198.5t-116.5 -159.5t-167.5 -105.5t-217.5 -38.5q-70 0 -123 15l37 225q46 -8 68 -8q78 0 140.5 41.5t101 109.5t59 151t20.5 171q0 134 -57 207t-168 73q-93 0 -178 -37l-66 -530h-276l147 1204h-459
l-147 -1204h-279l179 1454h1013l-84 -690q113 55 250 55z" />
    <glyph glyph-name="uni04A7" unicode="&#x4a7;" horiz-adv-x="1644" 
d="M1001 -422q-77 0 -147 12l57 207q7 0 26.5 -1t31.5 -1q159 0 252.5 93.5t93.5 250.5q0 88 -42 132t-116 44t-134 -51t-67 -102l-24 -162h-260l76 565q14 113 -2.5 165t-77.5 52q-80 0 -174.5 -118.5t-116.5 -292.5l-45 -371h-260l125 1001h258l-19 -159l4 -2
q145 176 330 176q153 0 211.5 -101t30.5 -309l-25 -184h4q106 129 260 129q143 0 234.5 -104.5t91.5 -276.5q0 -272 -155.5 -432t-420.5 -160z" />
    <glyph glyph-name="uni04A8" unicode="&#x4a8;" horiz-adv-x="1646" 
d="M1606 57q-35 -32 -104.5 -52.5t-147.5 -20.5q-94 0 -173 25t-130 65q-143 -92 -340 -92q-174 0 -310.5 76.5t-214 220t-77.5 331.5q0 137 34.5 266.5t101 237t157 188.5t209.5 126t251 45q52 0 101 -9l-64 -239q-36 4 -57 4q-121 0 -224.5 -88t-161 -227t-57.5 -291
q0 -188 99.5 -298t277.5 -110q44 0 92 10h-2l2 4q-118 161 -118 394q0 122 33 238t91.5 207.5t146.5 147.5t191 56q172 0 261.5 -112.5t89.5 -301.5q0 -192 -87 -368t-231 -281l2 -2q42 -10 74 -10q98 0 192 67zM1194 1032q-57 0 -104 -73.5t-70 -171.5t-23 -187
q0 -151 58 -276l8 -2q100 97 154.5 244t54.5 298q0 168 -78 168z" />
    <glyph glyph-name="uni04A9" unicode="&#x4a9;" horiz-adv-x="1312" 
d="M1292 86q-130 -102 -325 -102q-150 0 -252 55q-93 -55 -230 -55q-187 0 -305.5 118t-118.5 324q0 166 75.5 339.5t211.5 283.5l182 -131q-99 -99 -152.5 -227t-53.5 -251q0 -107 54.5 -176t166.5 -69h22q-53 97 -53 245q0 104 27 205t75.5 184t124.5 134t166 51
q137 0 208 -83.5t71 -228.5q0 -153 -71.5 -292t-192.5 -226l2 -4h12q142 0 242 107zM883 780q-38 0 -76 -61.5t-61 -149.5t-23 -166q0 -74 20 -124l5 -3q84 70 134 186t50 228q0 90 -49 90z" />
    <glyph glyph-name="uni04AA" unicode="&#x4aa;" horiz-adv-x="1370" 
d="M727 248q88 0 175 45t149 121l202 -183q-96 -110 -226 -176t-279 -73l-19 -39q62 -18 99.5 -54t37.5 -86q0 -94 -70 -142t-188 -48q-70 0 -125 12l9 125q31 -10 90 -10q98 0 98 65q0 44 -115 66l45 117q-221 30 -354 185.5t-133 420.5q0 143 35 275t101.5 241.5
t158.5 191t212 126.5t255 45q146 0 276.5 -72.5t227.5 -233.5l-228 -166q-109 205 -291 205q-101 0 -188 -52t-145 -137t-90.5 -194.5t-32.5 -224.5q0 -165 82 -257.5t231 -92.5z" />
    <glyph glyph-name="uni04AB" unicode="&#x4ab;" horiz-adv-x="997" 
d="M506 219q111 0 203 103l202 -138q-154 -184 -374 -198l-21 -43q62 -18 99.5 -54t37.5 -86q0 -94 -70 -142t-188 -48q-69 0 -125 12l9 125q31 -10 90 -10q98 0 98 65q0 44 -115 66l47 119q-155 25 -240 133t-85 291q0 119 35.5 227t101 192t167 133.5t224.5 49.5
q125 0 220.5 -44.5t152.5 -129.5l-201 -152q-57 92 -172 92q-116 0 -191 -103t-75 -251q0 -103 47.5 -156t122.5 -53z" />
    <glyph glyph-name="uni04AC" unicode="&#x4ac;" horiz-adv-x="1112" 
d="M1139 1204h-359l-116 -954h196l-78 -531h-229l22 281h-221l148 1204h-355l29 250h993z" />
    <glyph glyph-name="uni04AD" unicode="&#x4ad;" horiz-adv-x="1781" 
d="M1612 213h114l-88 -481h-208l30 260h-2q-252 0 -213 252l49 309q36 229 -65 229q-73 0 -158 -113.5t-108 -289.5l-52 -379h-258l76 565q16 107 0.5 162t-70.5 55q-34 0 -77 -29.5t-84 -79.5t-74 -128t-43 -164l-47 -381h-260l123 1001h260l-19 -149l6 -2q135 166 318 166
q182 0 227 -168h8q113 168 326 168q302 0 236 -410l-43 -276q-4 -24 -3.5 -42.5t2.5 -30.5t10.5 -20.5t14 -13t21 -6.5t23.5 -2.5t28 -1.5z" />
    <glyph glyph-name="uni04AE" unicode="&#x4ae;" horiz-adv-x="1189" 
d="M391 0l80 639l-334 815h307l193 -551h6l328 551h321l-540 -815l-80 -639h-281z" />
    <glyph glyph-name="uni04AF" unicode="&#x4af;" horiz-adv-x="997" 
d="M242 -406l47 379l-203 1028h270l119 -733h4q202 348 273 733h266q-60 -292 -172 -535t-295 -474l-51 -398h-258z" />
    <glyph glyph-name="uni04B0" unicode="&#x4b0;" horiz-adv-x="1189" 
d="M1292 1454l-497 -752h247l-26 -202h-281l-63 -500h-281l64 500h-287l27 202h249l-307 752h307l193 -551h6l328 551h321z" />
    <glyph glyph-name="uni04B1" unicode="&#x4b1;" horiz-adv-x="997" 
d="M1018 1001q-48 -237 -133 -439t-221 -392h153l-20 -170h-244l-53 -406h-258l53 406h-207l21 170h153l-176 831h270l119 -733h4q202 348 273 733h266z" />
    <glyph glyph-name="uni04B2" unicode="&#x4b2;" horiz-adv-x="1341" 
d="M854 729l221 -479h207l-78 -531h-229l22 281h-123l-231 520h-8l-356 -520h-318l516 737l-317 717h305l221 -514h8l334 514h330z" />
    <glyph glyph-name="uni04B3" unicode="&#x4b3;" horiz-adv-x="1048" 
d="M713 362q47 -91 85.5 -120t108.5 -29h80l-88 -481h-209l31 262q-81 11 -131.5 71.5t-104.5 182.5l-18 39h-4l-201 -287h-289l371 514l-240 487h291l117 -284h4l189 284h305l-369 -499z" />
    <glyph glyph-name="uni04B4" unicode="&#x4b4;" horiz-adv-x="1642" 
d="M1575 250l-78 -531h-229l22 281h-946l148 1204h-347l31 250h893l-31 -250h-268l-117 -954h445l149 1204h279l-148 -1204h197z" />
    <glyph glyph-name="uni04B5" unicode="&#x4b5;" horiz-adv-x="1232" 
d="M991 1403l-26 -209h-637l26 209h637zM1059 213h115l-89 -481h-208l30 260h-2q-89 0 -139.5 53.5t-58.5 138.5q0 7 -2 11h-5q-58 -94 -148.5 -153.5t-189.5 -59.5q-156 0 -224 95t-38 306l86 618h258l-77 -567q-17 -120 4 -168.5t84 -48.5q37 0 81 27t84 71.5t70.5 108.5
t38.5 131l55 446h260l-79 -651q-4 -28 -4 -49t2 -35t9.5 -24t14 -15.5t20 -8.5t24 -3.5t28.5 -1.5z" />
    <glyph glyph-name="uni04B6" unicode="&#x4b6;" horiz-adv-x="1320" 
d="M1055 250h196l-77 -531h-230l23 281h-222l68 567q-66 -37 -161 -61.5t-183 -24.5q-198 0 -276 113t-48 346l70 514h274l-65 -508q-14 -123 16 -170t129 -47q137 0 275 66l80 659h280z" />
    <glyph glyph-name="uni04B7" unicode="&#x4b7;" horiz-adv-x="1163" 
d="M987 213h115l-88 -481h-209l31 260h-2q-244 0 -218 229l29 223h-4q-59 -76 -143.5 -117.5t-165.5 -41.5q-287 0 -238 329l53 387h259l-52 -364q-9 -66 10 -97t78 -30q78 1 153 76.5t85 148.5l33 264h260l-82 -655q-3 -24 -3.5 -42.5t2.5 -32t5.5 -23t11.5 -15.5
t14.5 -9.5t19 -5.5t21 -2t25.5 -1z" />
    <glyph glyph-name="uni04B8" unicode="&#x4b8;" horiz-adv-x="1294" 
d="M967 1454h278l-178 -1454h-279l72 569q-56 -29 -127 -47l-37 -297h-190l33 260q-50 -4 -70 -4q-198 0 -276 113t-48 346l70 514h272l-65 -508q-15 -126 15 -174.5t130 -48.5l37 297h191l-35 -272q61 12 125 40z" />
    <glyph glyph-name="uni04B9" unicode="&#x4b9;" horiz-adv-x="1079" 
d="M754 999h256l-123 -999h-258l57 449h-4q-46 -49 -102 -82l-29 -226h-145l20 160q-52 -14 -111 -14q-134 0 -189.5 84t-31.5 243l53 387h256l-53 -370q-9 -74 10 -105.5t80 -31.5h11l38 294h146l-29 -227q46 37 77.5 83.5t35.5 84.5z" />
    <glyph glyph-name="uni04BA" unicode="&#x4ba;" horiz-adv-x="1271" 
d="M860 987q204 0 278.5 -116.5t45.5 -344.5l-70 -526h-276l63 494q18 134 -12 189.5t-129 55.5q-146 0 -291 -63l-82 -676h-281l179 1454h280l-67 -553q71 36 172.5 61t189.5 25z" />
    <glyph glyph-name="uni04BB" unicode="&#x4bb;" horiz-adv-x="1130" 
d="M72 0l186 1507h258l-82 -665l4 -2q142 176 348 176q153 0 211.5 -101t30.5 -309l-82 -606h-260l78 565q14 113 -3 165t-79 52q-91 0 -188 -119t-119 -298l-43 -365h-260z" />
    <glyph glyph-name="uni04BC" unicode="&#x4bc;" horiz-adv-x="1677" 
d="M1624 647h-989v-41q0 -179 87 -271.5t243 -92.5q186 0 327 168l199 -179q-103 -118 -240.5 -183.5t-300.5 -65.5q-277 0 -436.5 162t-159.5 450q0 35 2 53q-149 2 -230 64t-81 182q0 64 23.5 129t62.5 106l197 -55q-52 -86 -52 -127q0 -65 109 -65h4q33 129 94.5 236
t147.5 187t201.5 124.5t248.5 44.5q259 0 415.5 -162.5t156.5 -446.5q0 -76 -29 -217zM1063 1210q-126 0 -226.5 -88t-154.5 -235h696q-7 158 -92.5 240.5t-222.5 82.5z" />
    <glyph glyph-name="uni04BD" unicode="&#x4bd;" horiz-adv-x="1165" 
d="M1124 743q-1 -90 -52 -160.5t-140.5 -115t-191.5 -71.5t-224 -40q16 -74 62.5 -110.5t107.5 -36.5q62 0 111 24.5t98 79.5l199 -129q-88 -102 -185.5 -151t-236.5 -49q-174 0 -283.5 96t-126.5 264h-6q-123 -6 -188.5 49t-65.5 154q0 88 66 192l157 -34q-38 -85 -41 -125
q0 -30 20.5 -44.5t65.5 -15.5q16 99 59.5 187.5t108.5 158t158 110t199 40.5q135 0 232.5 -72t96.5 -201zM868 719q2 34 -22 53t-68 19q-84 0 -157 -72.5t-99 -188.5q95 13 168 34.5t125 61.5t53 93z" />
    <glyph glyph-name="uni04BE" unicode="&#x4be;" horiz-adv-x="1677" 
d="M1624 647h-989v-41q0 -179 87 -271.5t243 -92.5q186 0 327 168l199 -179q-181 -207 -440 -243l-41 -269h-230l21 277q-211 40 -329 195.5t-118 402.5q0 35 2 53q-149 2 -230 64t-81 182q0 64 23.5 129t62.5 106l197 -55q-52 -86 -52 -127q0 -65 109 -65h4
q33 129 94.5 236t147.5 187t201.5 124.5t248.5 44.5q259 0 415.5 -162.5t156.5 -446.5q0 -76 -29 -217zM1063 1210q-126 0 -226.5 -88t-154.5 -235h696q-7 158 -92.5 240.5t-222.5 82.5z" />
    <glyph glyph-name="uni04BF" unicode="&#x4bf;" horiz-adv-x="1165" 
d="M1124 743q-1 -90 -52 -160.5t-140.5 -115t-191.5 -71.5t-224 -40q16 -74 62.5 -110.5t107.5 -36.5q62 0 111 24.5t98 79.5l199 -129q-70 -82 -147 -129.5t-177 -64.5l-39 -258h-209l25 266q-122 31 -197 120.5t-88 225.5h-6q-123 -6 -188.5 49t-65.5 154q0 88 66 192
l157 -34q-38 -85 -41 -125q0 -30 20.5 -44.5t65.5 -15.5q16 99 59.5 187.5t108.5 158t158 110t199 40.5q135 0 232.5 -72t96.5 -201zM868 719q2 34 -22 53t-68 19q-84 0 -157 -72.5t-99 -188.5q95 13 168 34.5t125 61.5t53 93z" />
    <glyph glyph-name="uni04C0" unicode="&#x4c0;" horiz-adv-x="634" 
d="M115 0l178 1454h282l-178 -1454h-282z" />
    <glyph glyph-name="uni04C1" unicode="&#x4c1;" horiz-adv-x="1794" 
d="M1018 1565q-138 0 -212 67t-83 221l211 19q3 -65 35 -102t78 -37q48 0 98.5 40t83.5 107l186 -55q-46 -93 -115.5 -154t-138.5 -83.5t-143 -22.5zM1876 1454l-500 -684l348 -770h-317l-258 604l-135 -166l-51 -438h-269l54 442l-91 162l-395 -604h-315l524 776l-340 678
h324l327 -692l6 2l84 690h269l-86 -688l6 -2l483 690h332z" />
    <glyph glyph-name="uni04C2" unicode="&#x4c2;" horiz-adv-x="1474" 
d="M809 1126q-137 0 -211.5 67t-83.5 222l211 31q3 -75 34 -114.5t79 -39.5q49 0 100 43t84 117l184 -63q-67 -138 -174 -200.5t-223 -62.5zM1210 377q32 -100 74 -137t113 -47l-66 -207q-40 -4 -67 -4q-108 0 -171 75t-104 224l-20 73q-62 -34 -138 -57l-36 -297h-250
l57 459l-4 2q-134 -80 -204.5 -190t-119.5 -271h-266q31 139 111 269t190 231l-39 125q-17 53 -35.5 88t-43 54.5t-48.5 28.5t-61 15l63 201q40 4 68 4q112 0 178 -74.5t103 -222.5l18 -76q54 32 119 51l37 307h250l-58 -466l4 -3q142 82 218.5 197.5t119.5 271.5h266
q-32 -144 -109 -273.5t-188 -231.5z" />
    <glyph glyph-name="uni04C3" unicode="&#x4c3;" horiz-adv-x="1310" 
d="M799 782q174 -36 277.5 -178.5t103.5 -331.5q0 -111 -22.5 -212t-70 -188.5t-116.5 -151.5t-167.5 -101t-217.5 -37q-68 0 -123 15l37 225q46 -8 67 -8q77 0 140.5 38.5t102.5 101.5t60 139t21 155q0 83 -28.5 145t-79 98.5t-112.5 54t-136 19.5q-25 2 -76 2l-76 -567
h-277l179 1454h276l-80 -653l6 -2l527 655h342z" />
    <glyph glyph-name="uni04C4" unicode="&#x4c4;" horiz-adv-x="1062" 
d="M723 483q106 -28 173 -124t67 -224q0 -248 -156 -402.5t-418 -154.5q-77 0 -147 12l57 207q7 0 26 -1t31 -1q158 0 252 89.5t94 230.5q0 96 -51.5 153t-128.5 74q-63 -43 -164 -88l-30 -254h-256l123 1001h258l-58 -487l4 -2q268 174 357 489h266q-28 -140 -108.5 -276.5
t-190.5 -241.5z" />
    <glyph glyph-name="uni04C5" unicode="&#x4c5;" horiz-adv-x="1476" 
d="M1212 250h224l-11 -90l-223 -441h-190l98 281h-205l148 1204h-328q-76 -446 -127 -647q-35 -147 -75 -248t-95.5 -176.5t-130.5 -111t-174 -35.5q-91 0 -156 26l41 228q52 -9 70 -9q51 0 93 32t75 97t57.5 142.5t50.5 187.5q77 338 140 764h868z" />
    <glyph glyph-name="uni04C6" unicode="&#x4c6;" horiz-adv-x="1159" 
d="M1032 213h90l-8 -45l-217 -432h-182l100 262q-175 28 -151 223l69 559h-69q-62 0 -95 -30.5t-49 -92.5q-12 -46 -33.5 -139.5t-35.5 -150.5q-45 -185 -135.5 -283t-221.5 -98q-79 0 -135 26l51 211q27 -10 51 -10q108 0 166 266q25 104 41 213q25 141 117.5 225t235.5 84
h397l-80 -657q-3 -24 -3.5 -42.5t3 -32t6 -23t11 -15.5t14 -9.5t18.5 -5.5t20.5 -2t24.5 -1z" />
    <glyph glyph-name="uni04C7" unicode="&#x4c7;" horiz-adv-x="1404" 
d="M1358 1454l-180 -1454q-14 -118 -54 -201t-102.5 -129.5t-137 -67t-169.5 -20.5q-63 0 -127 15l37 219q53 -11 75 -11q93 0 139 48t58 147l72 571h-514l-70 -571h-279l179 1454h278l-78 -633h514l78 633h281z" />
    <glyph glyph-name="uni04C8" unicode="&#x4c8;" horiz-adv-x="1126" 
d="M1059 1001l-123 -1001q-27 -210 -137 -315t-281 -105q-65 0 -123 17l43 198q27 -6 49 -6q163 0 193 258l41 336l-342 -2l-47 -381h-260l123 1001h260l-49 -405l342 2l49 403h262z" />
    <glyph glyph-name="uni04C9" unicode="&#x4c9;" horiz-adv-x="1470" 
d="M1208 250h224l-11 -90l-223 -441h-190l98 281h-209l72 571h-514l-70 -571h-279l179 1454h278l-78 -633h514l78 633h279z" />
    <glyph glyph-name="uni04CA" unicode="&#x4ca;" horiz-adv-x="1189" 
d="M1065 213h90l-8 -45l-217 -432h-182l100 260q-175 28 -154 225l21 162l-336 -2l-47 -381h-260l123 1001h260l-49 -405l333 2l49 403h263l-82 -657q-3 -24 -3.5 -42.5t3 -32t6 -23t11 -15.5t14 -9.5t19 -5.5t21 -2t25.5 -1z" />
    <glyph glyph-name="uni04CB" unicode="&#x4cb;" horiz-adv-x="1253" 
d="M924 1454h280l-180 -1454h-233l-52 -281h-227l57 517h205l39 331q-66 -37 -161 -61.5t-183 -24.5q-198 0 -276 113t-48 346l70 514h274l-65 -508q-14 -123 16 -170t129 -47q137 0 275 66z" />
    <glyph glyph-name="uni04CC" unicode="&#x4cc;" horiz-adv-x="1052" 
d="M723 999h260l-123 -999h-184q-54 0 -64 -47l-39 -221h-208l32 254q10 93 52 134t110 46l62 4l34 274h-4q-62 -76 -150 -117.5t-169 -41.5q-287 0 -238 329l53 387h259l-52 -364q-9 -66 10 -97t78 -30q79 1 159 77t89 148z" />
    <glyph glyph-name="uni04CD" unicode="&#x4cd;" horiz-adv-x="1738" 
d="M1477 250h223l-10 -90l-224 -441h-190l98 281h-205l107 885l-6 2l-365 -611h-180l-227 639l-4 -2l-111 -913h-277l179 1454h276l295 -836h6l486 836h276z" />
    <glyph glyph-name="uni04CE" unicode="&#x4ce;" horiz-adv-x="1388" 
d="M1262 213h90l-9 -45l-217 -432h-182l100 262q-169 28 -145 223l45 354h-2l-246 -403h-168l-137 414h-2l-74 -586h-252l125 1001h265l194 -563h4l332 563h264l-80 -657q-3 -24 -3 -42.5t3 -32t5.5 -23t11.5 -15.5t14 -9.5t18.5 -5.5t21 -2t24.5 -1z" />
    <glyph glyph-name="uni04CF" unicode="&#x4cf;" horiz-adv-x="536" 
d="M82 0l184 1507h260l-186 -1507h-258z" />
    <glyph glyph-name="uni04D0" unicode="&#x4d0;" horiz-adv-x="1314" 
d="M797 1565q-138 0 -212 67t-83 221l211 19q3 -65 34.5 -102t77.5 -37q48 0 99 40t84 107l186 -55q-46 -93 -115.5 -154t-138.5 -83.5t-143 -22.5zM-25 0l660 1454h278l306 -1454h-291l-54 295h-485l-125 -295h-289zM485 535h349l-105 575h-4z" />
    <glyph glyph-name="uni04D1" unicode="&#x4d1;" horiz-adv-x="1142" 
d="M662 1126q-137 0 -211.5 67t-83.5 222l211 31q3 -75 33.5 -114.5t78.5 -39.5q49 0 100 43t84 117l185 -63q-67 -138 -174 -200.5t-223 -62.5zM406 -18q-163 0 -249.5 114.5t-86.5 292.5q0 167 61 310t172.5 230t249.5 87q164 0 250 -92l6 2l10 73h260l-123 -999h-260
l21 168l-6 2q-64 -91 -143 -139.5t-162 -48.5zM473 213q64 0 127 52.5t113.5 158t68.5 242.5l4 32q-84 84 -200 84q-76 0 -136 -59.5t-89 -146t-29 -179.5q0 -86 37 -135t104 -49z" />
    <glyph glyph-name="uni04D2" unicode="&#x4d2;" horiz-adv-x="1314" 
d="M612 1608q-70 0 -115.5 45.5t-45.5 113.5q0 71 47 117.5t120 46.5q70 0 116 -44.5t46 -112.5q0 -71 -47.5 -118.5t-120.5 -47.5zM1026 1608q-71 0 -117.5 45.5t-46.5 113.5q0 71 48.5 117.5t121.5 46.5q70 0 116 -44.5t46 -112.5q0 -71 -47.5 -118.5t-120.5 -47.5zM-25 0
l660 1454h278l306 -1454h-291l-54 295h-485l-125 -295h-289zM485 535h349l-105 575h-4z" />
    <glyph glyph-name="uni04D3" unicode="&#x4d3;" horiz-adv-x="1142" 
d="M477 1141q-70 0 -116 45.5t-46 113.5q0 71 47.5 117.5t120.5 46.5q70 0 116 -44.5t46 -112.5q0 -71 -47.5 -118.5t-120.5 -47.5zM891 1141q-71 0 -117.5 45.5t-46.5 113.5q0 71 48.5 117.5t121.5 46.5q70 0 116 -44.5t46 -112.5q0 -71 -47.5 -118.5t-120.5 -47.5z
M406 -18q-163 0 -249.5 114.5t-86.5 292.5q0 167 61 310t172.5 230t249.5 87q164 0 250 -92l6 2l10 73h260l-123 -999h-260l21 168l-6 2q-64 -91 -143 -139.5t-162 -48.5zM473 213q64 0 127 52.5t113.5 158t68.5 242.5l4 32q-84 84 -200 84q-76 0 -136 -59.5t-89 -146
t-29 -179.5q0 -86 37 -135t104 -49z" />
    <glyph glyph-name="uni04D4" unicode="&#x4d4;" horiz-adv-x="1785" 
d="M-53 0l819 1454h999l-30 -250h-580l-47 -358h473l-31 -246h-471l-43 -350h619l-31 -250h-889l37 295h-362l-162 -295h-301zM537 535h266l74 616h-5z" />
    <glyph glyph-name="uni04D5" unicode="&#x4d5;" horiz-adv-x="1419" 
d="M985 211q101 0 182 102l197 -131q-150 -196 -389 -196q-128 0 -215 51.5t-125 150.5q-47 -97 -122.5 -151.5t-170.5 -54.5q-140 0 -222 104.5t-79 271.5q2 129 40 245.5t105 205t167.5 140.5t219.5 52q148 0 248 -61q115 76 264 76q132 0 223 -71.5t91 -194.5
q0 -166 -163 -268t-433 -126q14 -71 64.5 -108t117.5 -37zM1059 791q-72 0 -144.5 -71t-101.5 -188q155 22 242.5 72.5t87.5 124.5q0 25 -22 43.5t-62 18.5zM385 207q19 0 37 9t34 28t29.5 38t26.5 51t22.5 55.5t20.5 61.5t17 59t16 58q28 114 80 205q-34 6 -62 6
q-91 0 -161.5 -62t-106 -159t-35.5 -209q0 -66 23.5 -103.5t58.5 -37.5z" />
    <glyph glyph-name="uni04D6" unicode="&#x4d6;" horiz-adv-x="1153" 
d="M729 1563q-138 0 -212 67t-83 221l211 19q3 -65 35 -102t78 -37q48 0 98.5 40t83.5 107l186 -55q-46 -93 -115.5 -154t-138.5 -83.5t-143 -22.5zM104 0l179 1454h850l-33 -250h-574l-43 -360h459l-31 -246h-458l-43 -348h612l-31 -250h-887z" />
    <glyph glyph-name="uni04D7" unicode="&#x4d7;" horiz-adv-x="978" 
d="M590 1126q-137 0 -211.5 67t-83.5 222l211 31q3 -75 33.5 -114.5t78.5 -39.5q49 0 100.5 43t84.5 117l184 -63q-67 -138 -174 -200.5t-223 -62.5zM938 743q-1 -91 -52 -161.5t-141 -114.5t-191.5 -70t-225.5 -39q13 -73 61 -111t111 -38q60 0 109 24.5t98 79.5l198 -129
q-88 -102 -185.5 -151t-236.5 -49q-189 0 -300 111.5t-111 305.5q0 125 37 236.5t104 195.5t169 133.5t224 49.5q86 0 160 -29.5t123 -93t49 -150.5zM338 541q341 38 344 178q0 34 -24 53t-68 19q-80 0 -151.5 -65t-100.5 -185z" />
    <glyph glyph-name="uni04D8" unicode="&#x4d8;" horiz-adv-x="1460" 
d="M821 1473q264 0 421 -163t157 -450q0 -142 -31.5 -273t-94.5 -240.5t-150 -191.5t-204.5 -127.5t-252.5 -45.5q-260 0 -417 161.5t-157 440.5q0 82 29 213h989q2 16 2 51q0 176 -89 270t-232 94q-174 0 -324 -127l-164 207q234 181 518 181zM682 244q124 0 223.5 85.5
t155.5 227.5h-692q9 -152 93.5 -232.5t219.5 -80.5z" />
    <glyph glyph-name="uni04D9" unicode="&#x4d9;" horiz-adv-x="954" 
d="M483 1016q190 0 303 -115.5t113 -314.5q0 -127 -35 -236t-101.5 -191t-170.5 -128.5t-234 -46.5q-144 0 -235.5 75t-91.5 205q0 94 50 166.5t138.5 117.5t192.5 72t231 39q-13 63 -59 97.5t-115 34.5q-41 0 -97.5 -19.5t-109.5 -62.5l-141 174q70 61 168 97t194 36z
M383 211q101 0 165.5 69.5t88.5 188.5q-350 -41 -350 -184q0 -37 26 -55.5t70 -18.5z" />
    <glyph glyph-name="uni04DA" unicode="&#x4da;" horiz-adv-x="1460" 
d="M717 1608q-70 0 -116 45.5t-46 113.5q0 71 47.5 117.5t120.5 46.5q70 0 116 -44.5t46 -112.5q0 -71 -47.5 -118.5t-120.5 -47.5zM1130 1608q-71 0 -117 45.5t-46 113.5q0 71 48.5 117.5t121.5 46.5q70 0 115.5 -44.5t45.5 -112.5q0 -71 -47.5 -118.5t-120.5 -47.5z
M821 1473q264 0 421 -163t157 -450q0 -142 -31.5 -273t-94.5 -240.5t-150 -191.5t-204.5 -127.5t-252.5 -45.5q-260 0 -417 161.5t-157 440.5q0 82 29 213h989q2 16 2 51q0 176 -89 270t-232 94q-174 0 -324 -127l-164 207q234 181 518 181zM682 244q124 0 223.5 85.5
t155.5 227.5h-692q9 -152 93.5 -232.5t219.5 -80.5z" />
    <glyph glyph-name="uni04DB" unicode="&#x4db;" horiz-adv-x="954" 
d="M371 1141q-70 0 -116 45.5t-46 113.5q0 71 47.5 117.5t120.5 46.5q70 0 116 -44.5t46 -112.5q0 -71 -47.5 -118.5t-120.5 -47.5zM791 1464q70 0 115.5 -44.5t45.5 -112.5q0 -71 -47.5 -118.5t-120.5 -47.5q-71 0 -117 45.5t-46 113.5q0 71 48.5 117.5t121.5 46.5z
M483 1016q190 0 303 -115.5t113 -314.5q0 -127 -35 -236t-101.5 -191t-170.5 -128.5t-234 -46.5q-144 0 -235.5 75t-91.5 205q0 94 50 166.5t138.5 117.5t192.5 72t231 39q-13 63 -59 97.5t-115 34.5q-41 0 -97.5 -19.5t-109.5 -62.5l-141 174q70 61 168 97t194 36zM383 211
q101 0 165.5 69.5t88.5 188.5q-350 -41 -350 -184q0 -37 26 -55.5t70 -18.5z" />
    <glyph glyph-name="uni04DC" unicode="&#x4dc;" horiz-adv-x="1794" 
d="M834 1608q-70 0 -116 45.5t-46 113.5q0 71 47.5 117.5t120.5 46.5q70 0 115.5 -44.5t45.5 -112.5q0 -71 -47 -118.5t-120 -47.5zM1247 1608q-71 0 -117.5 45.5t-46.5 113.5q0 71 48.5 117.5t121.5 46.5q70 0 116 -44.5t46 -112.5q0 -71 -47.5 -118.5t-120.5 -47.5z
M1876 1454l-500 -684l348 -770h-317l-258 604l-135 -166l-51 -438h-269l54 442l-91 162l-395 -604h-315l524 776l-340 678h324l327 -692l6 2l84 690h269l-86 -688l6 -2l483 690h332z" />
    <glyph glyph-name="uni04DD" unicode="&#x4dd;" horiz-adv-x="1474" 
d="M625 1141q-70 0 -116 45.5t-46 113.5q0 71 47.5 117.5t120.5 46.5q70 0 116 -44.5t46 -112.5q0 -71 -47.5 -118.5t-120.5 -47.5zM1038 1141q-71 0 -117.5 45.5t-46.5 113.5q0 71 48.5 117.5t121.5 46.5q70 0 116 -44.5t46 -112.5q0 -71 -47.5 -118.5t-120.5 -47.5z
M1210 377q32 -100 74 -137t113 -47l-66 -207q-40 -4 -67 -4q-108 0 -171 75t-104 224l-20 73q-62 -34 -138 -57l-36 -297h-250l57 459l-4 2q-134 -80 -204.5 -190t-119.5 -271h-266q31 139 111 269t190 231l-39 125q-17 53 -35.5 88t-43 54.5t-48.5 28.5t-61 15l63 201
q40 4 68 4q112 0 178 -74.5t103 -222.5l18 -76q54 32 119 51l37 307h250l-58 -466l4 -3q142 82 218.5 197.5t119.5 271.5h266q-32 -144 -109 -273.5t-188 -231.5z" />
    <glyph glyph-name="uni04DE" unicode="&#x4de;" horiz-adv-x="1159" 
d="M516 1608q-70 0 -116 45.5t-46 113.5q0 71 47.5 117.5t120.5 46.5q70 0 116 -44.5t46 -112.5q0 -71 -47.5 -118.5t-120.5 -47.5zM930 1608q-71 0 -117.5 45.5t-46.5 113.5q0 71 48.5 117.5t121.5 46.5q70 0 116 -44.5t46 -112.5q0 -71 -47.5 -118.5t-120.5 -47.5z
M532 -18q-170 0 -306.5 64.5t-209.5 182.5l197 187q49 -85 134.5 -131.5t189.5 -46.5q114 0 178.5 59.5t64.5 159.5q0 176 -233 176h-189l31 231h172q114 0 182 53.5t68 145.5q0 77 -50.5 114t-133.5 37q-72 0 -146.5 -27t-130.5 -75l-164 203q97 82 223 118.5t255 36.5
q195 0 313.5 -89t118.5 -246q0 -112 -64.5 -207t-177.5 -144v-6q103 -44 159 -132.5t56 -209.5q0 -207 -143.5 -330.5t-393.5 -123.5z" />
    <glyph glyph-name="uni04DF" unicode="&#x4df;" horiz-adv-x="913" 
d="M330 1141q-70 0 -116 45.5t-46 113.5q0 71 47.5 117.5t120.5 46.5q70 0 116 -44.5t46 -112.5q0 -71 -47.5 -118.5t-120.5 -47.5zM743 1141q-71 0 -117 45.5t-46 113.5q0 71 48.5 117.5t121.5 46.5q70 0 115.5 -44.5t45.5 -112.5q0 -71 -47.5 -118.5t-120.5 -47.5z
M387 -16q-224 0 -389 102l96 217q115 -96 291 -96q80 0 130 34t50 91q0 85 -151 82l-162 -2l24 180l130 2q92 1 138 36.5t46 84.5q0 36 -33.5 57t-89.5 21q-127 0 -252 -64l-92 201q62 32 163 59t199 27q101 0 182.5 -28t132 -87t50.5 -139q0 -82 -56.5 -142t-136.5 -90v-4
q80 -20 124 -76t44 -133q0 -161 -120.5 -247t-317.5 -86z" />
    <glyph glyph-name="uni04E0" unicode="&#x4e0;" horiz-adv-x="1142" 
d="M532 -18q-170 0 -306.5 64.5t-209.5 182.5l197 187q49 -85 134.5 -131.5t189.5 -46.5q114 0 178.5 59t64.5 156q0 110 -85 154t-257 44h-94l12 131l400 416l-4 6h-525l31 250h872l-22 -184l-393 -420v-2q172 -28 263 -126.5t91 -264.5q0 -222 -142.5 -348.5
t-394.5 -126.5z" />
    <glyph glyph-name="uni04E1" unicode="&#x4e1;" horiz-adv-x="862" 
d="M829 1001l-14 -129l-358 -380q62 -5 118 -30t102 -69t73.5 -113.5t27.5 -154.5q0 -255 -147 -401t-395 -146q-208 0 -338 80l86 215q110 -63 247 -63q127 0 206 80.5t79 215.5q0 99 -63 154t-158 55q-64 0 -107 -14l-53 139l311 342v4h-358l27 215h714z" />
    <glyph glyph-name="uni04E2" unicode="&#x4e2;" horiz-adv-x="1427" 
d="M575 1618l25 201h571l-26 -201h-570zM106 0l179 1454h276l-123 -979h6l670 979h262l-176 -1454h-280l116 944h-4l-667 -944h-259z" />
    <glyph glyph-name="uni04E3" unicode="&#x4e3;" horiz-adv-x="1112" 
d="M358 1194l25 209h571l-26 -209h-570zM362 -18q-155 0 -222.5 95t-39.5 306l88 618h258l-77 -567q-18 -120 2.5 -168.5t83.5 -48.5q79 0 168.5 103.5t107.5 238.5l53 442h260l-122 -1001h-258l18 164h-4q-130 -182 -316 -182z" />
    <glyph glyph-name="uni04E4" unicode="&#x4e4;" horiz-adv-x="1427" 
d="M668 1608q-70 0 -116 45.5t-46 113.5q0 71 47.5 117.5t120.5 46.5q70 0 116 -44.5t46 -112.5q0 -71 -47.5 -118.5t-120.5 -47.5zM1081 1608q-71 0 -117 45.5t-46 113.5q0 71 48 117.5t121 46.5q70 0 116 -44.5t46 -112.5q0 -71 -47.5 -118.5t-120.5 -47.5zM106 0
l179 1454h276l-123 -979h6l670 979h262l-176 -1454h-280l116 944h-4l-667 -944h-259z" />
    <glyph glyph-name="uni04E5" unicode="&#x4e5;" horiz-adv-x="1112" 
d="M446 1141q-70 0 -115.5 45.5t-45.5 113.5q0 71 47.5 117.5t120.5 46.5q70 0 115.5 -44.5t45.5 -112.5q0 -71 -47.5 -118.5t-120.5 -47.5zM860 1141q-71 0 -117.5 45.5t-46.5 113.5q0 71 48.5 117.5t121.5 46.5q70 0 116 -44.5t46 -112.5q0 -71 -47.5 -118.5t-120.5 -47.5
zM362 -18q-155 0 -222.5 95t-39.5 306l88 618h258l-77 -567q-18 -120 2.5 -168.5t83.5 -48.5q79 0 168.5 103.5t107.5 238.5l53 442h260l-122 -1001h-258l18 164h-4q-130 -182 -316 -182z" />
    <glyph glyph-name="uni04E6" unicode="&#x4e6;" horiz-adv-x="1544" 
d="M768 1608q-70 0 -116 45.5t-46 113.5q0 71 47.5 117.5t120.5 46.5q70 0 116 -44.5t46 -112.5q0 -71 -47.5 -118.5t-120.5 -47.5zM1182 1608q-71 0 -117.5 45.5t-46.5 113.5q0 71 48.5 117.5t121.5 46.5q70 0 116 -44.5t46 -112.5q0 -71 -47.5 -118.5t-120.5 -47.5z
M709 -18q-268 0 -427 163t-159 453q0 137 34.5 267t101.5 239.5t159 192.5t213.5 129.5t257.5 46.5q266 0 427 -163.5t161 -449.5q0 -142 -33 -273t-98.5 -240.5t-157 -191.5t-214.5 -127.5t-265 -45.5zM731 244q130 0 235.5 84.5t162.5 222.5t57 297q0 181 -86.5 272.5
t-239.5 91.5q-127 0 -231 -87t-160.5 -225t-56.5 -292q0 -179 86 -271.5t233 -92.5z" />
    <glyph glyph-name="uni04E7" unicode="&#x4e7;" horiz-adv-x="1112" 
d="M459 1141q-70 0 -116 45.5t-46 113.5q0 71 47.5 117.5t120.5 46.5q70 0 116 -44.5t46 -112.5q0 -71 -47.5 -118.5t-120.5 -47.5zM872 1141q-71 0 -117 45.5t-46 113.5q0 71 48.5 117.5t121.5 46.5q70 0 115.5 -44.5t45.5 -112.5q0 -71 -47.5 -118.5t-120.5 -47.5z
M494 -18q-193 0 -306.5 113t-113.5 313q0 121 37 231t104 194t170 133.5t227 49.5q195 0 310.5 -110t115.5 -308q0 -128 -34.5 -238.5t-101 -195.5t-171.5 -133.5t-237 -48.5zM508 217q117 0 192.5 105.5t75.5 255.5q0 60 -17.5 102.5t-46.5 63t-58 29.5t-60 9
q-77 0 -137.5 -52t-91.5 -131.5t-31 -168.5q0 -97 48.5 -155t125.5 -58z" />
    <glyph glyph-name="uni04E8" unicode="&#x4e8;" horiz-adv-x="1542" 
d="M885 1473q267 0 428.5 -163.5t161.5 -449.5q0 -142 -33 -273t-98.5 -240.5t-156.5 -191.5t-214 -127.5t-264 -45.5q-268 0 -427 163t-159 453q0 137 34.5 267t101.5 239.5t158 192.5t212 129.5t256 46.5zM858 1221q-150 0 -261.5 -104t-160.5 -275h756v22
q0 168 -86.5 262.5t-247.5 94.5zM729 236q156 0 269 100.5t163 275.5h-755v-16q0 -168 83.5 -264t239.5 -96z" />
    <glyph glyph-name="uni04E9" unicode="&#x4e9;" horiz-adv-x="1087" 
d="M604 1016q194 0 309 -110t115 -308q0 -102 -21 -193t-65.5 -169t-108 -134t-153 -88t-197.5 -32q-192 0 -307 114t-115 312q0 121 37 230.5t105 194t172 134t229 49.5zM586 791q-87 0 -151.5 -54t-96.5 -145l436 8q-2 62 -19 102.5t-47 58.5t-57 24t-65 6zM500 207
q94 0 162 56t96 153l-443 -8q3 -201 185 -201z" />
    <glyph glyph-name="uni04EA" unicode="&#x4ea;" horiz-adv-x="1542" 
d="M766 1608q-70 0 -116 45.5t-46 113.5q0 71 47.5 117.5t120.5 46.5q70 0 116 -44.5t46 -112.5q0 -71 -47.5 -118.5t-120.5 -47.5zM1180 1608q-71 0 -117.5 45.5t-46.5 113.5q0 71 48.5 117.5t121.5 46.5q70 0 116 -44.5t46 -112.5q0 -71 -47.5 -118.5t-120.5 -47.5z
M885 1473q267 0 428.5 -163.5t161.5 -449.5q0 -142 -33 -273t-98.5 -240.5t-156.5 -191.5t-214 -127.5t-264 -45.5q-268 0 -427 163t-159 453q0 137 34.5 267t101.5 239.5t158 192.5t212 129.5t256 46.5zM858 1221q-150 0 -261.5 -104t-160.5 -275h756v22q0 168 -86.5 262.5
t-247.5 94.5zM729 236q156 0 269 100.5t163 275.5h-755v-16q0 -168 83.5 -264t239.5 -96z" />
    <glyph glyph-name="uni04EB" unicode="&#x4eb;" horiz-adv-x="1087" 
d="M449 1141q-70 0 -116 45.5t-46 113.5q0 71 47.5 117.5t120.5 46.5q70 0 115.5 -44.5t45.5 -112.5q0 -71 -47 -118.5t-120 -47.5zM862 1141q-71 0 -117.5 45.5t-46.5 113.5q0 71 48.5 117.5t121.5 46.5q70 0 116 -44.5t46 -112.5q0 -71 -47.5 -118.5t-120.5 -47.5z
M604 1016q194 0 309 -110t115 -308q0 -102 -21 -193t-65.5 -169t-108 -134t-153 -88t-197.5 -32q-192 0 -307 114t-115 312q0 121 37 230.5t105 194t172 134t229 49.5zM586 791q-87 0 -151.5 -54t-96.5 -145l436 8q-2 62 -19 102.5t-47 58.5t-57 24t-65 6zM500 207
q94 0 162 56t96 153l-443 -8q3 -201 185 -201z" />
    </font>
</defs>
</svg>
