<?xml version="1.0" standalone="no"?>
<!DOCTYPE svg PUBLIC "-//W3C//DTD SVG 1.1//EN" "http://www.w3.org/Graphics/SVG/1.1/DTD/svg11.dtd" >
<svg xmlns="http://www.w3.org/2000/svg" xmlns:xlink="http://www.w3.org/1999/xlink" version="1.1">
<metadata>
Created by FontForge 20201107 at Tue Aug  6 05:21:07 2024
 By 
Copyright (c) 2015 by Kostas Bartsokas. All rights reserved.
</metadata>
<defs>
<font id="AvertaStdCY-LightItalic" horiz-adv-x="0" >
  <font-face 
    font-family="Averta Std CY Light"
    font-weight="300"
    font-style="italic"
    font-stretch="normal"
    units-per-em="2048"
    panose-1="0 0 4 0 0 0 0 0 0 0"
    ascent="1638"
    descent="-410"
    x-height="993"
    cap-height="1454"
    bbox="-1384 -674 2705 2120"
    underline-thickness="59"
    underline-position="-163"
    slope="-7"
    unicode-range="U+000D-2E18"
  />
<missing-glyph horiz-adv-x="815" 
 />
    <glyph glyph-name=".notdef" horiz-adv-x="815" 
 />
    <glyph glyph-name=".null" 
 />
    <glyph glyph-name="nonmarkingreturn" horiz-adv-x="682" 
 />
    <glyph glyph-name="CR" unicode="&#xd;" 
 />
    <glyph glyph-name="space" unicode=" " horiz-adv-x="460" 
 />
    <glyph glyph-name="exclam" unicode="!" horiz-adv-x="462" 
d="M188 399l117 1108h119l-154 -1108h-82zM199 -10q-38 0 -62 24.5t-24 61.5t25 62.5t63 25.5q37 0 61.5 -24.5t24.5 -61.5t-25.5 -62.5t-62.5 -25.5z" />
    <glyph glyph-name="quotedbl" unicode="&#x22;" horiz-adv-x="589" 
d="M154 985l120 469h119l-149 -469h-90zM375 985l119 469h118l-147 -469h-90z" />
    <glyph glyph-name="numbersign" unicode="#" horiz-adv-x="1173" 
d="M190 -61l115 438h-229l12 88h240l92 354h-250l10 86h262l113 438h84l-113 -438h322l113 438h83l-112 -438h235l-10 -86h-252l-90 -354h260l-12 -88h-275l-110 -438h-84l113 438h-320l-113 -438h-84zM410 465h323l90 354h-321z" />
    <glyph glyph-name="dollar" unicode="$" horiz-adv-x="1064" 
d="M594 748q10 -6 51 -29t53 -29.5t48 -28.5t48 -32t40 -31.5t39 -36.5t29 -38t25 -44t13 -47.5t6 -54.5q0 -177 -117.5 -280t-304.5 -105l-30 -246h-86l30 252q-106 16 -200 71t-152 144l86 78q57 -97 148 -145t194 -48q140 0 227.5 74.5t87.5 192.5q0 35 -14 66t-33 53.5
t-57 49.5t-67 43.5t-82 45.5l-33 18q-142 80 -197 125q-129 105 -129 244q0 154 107.5 251t277.5 103l31 258h86l-31 -262q88 -12 167 -55.5t136 -110.5l-82 -76q-58 71 -135.5 106.5t-159.5 35.5q-121 0 -200.5 -66.5t-79.5 -171.5q0 -27 8.5 -52.5t18 -44.5t33.5 -41.5
t38 -34.5t50.5 -35t51.5 -32t60 -34z" />
    <glyph glyph-name="percent" unicode="%" horiz-adv-x="1931" 
d="M659 -25l-88 39l748 1463l88 -41zM522 668q-158 0 -261 103t-103 265q0 178 118.5 302t288.5 124q161 0 267 -101.5t106 -262.5q0 -185 -121 -307.5t-295 -122.5zM524 758q133 0 224.5 96t91.5 242q0 124 -77.5 200t-199.5 76q-129 0 -219 -97.5t-90 -238.5
q0 -124 76 -201t194 -77zM1403 -10q-158 0 -261.5 103t-103.5 265q0 178 119 302t291 124q161 0 266 -101.5t105 -262.5q0 -186 -121 -308t-295 -122zM1405 80q134 0 225.5 95.5t91.5 242.5q0 123 -77.5 199.5t-198.5 76.5q-129 0 -220 -98t-91 -236q0 -123 76.5 -201.5
t193.5 -78.5z" />
    <glyph glyph-name="ampersand" unicode="&#x26;" horiz-adv-x="1476" 
d="M446 -10q-160 0 -259 98t-99 262q0 159 84 287t221 184q-58 36 -93.5 96.5t-35.5 139.5q0 173 118 290t298 117q147 0 231.5 -74.5t104.5 -189.5l-101 -33q-11 89 -69.5 143.5t-161.5 55.5q-142 0 -225.5 -87t-83.5 -222q0 -76 47 -132.5t123 -56.5h917l-12 -100h-346
q-13 -164 -58.5 -302t-124 -246t-200 -169t-275.5 -61zM459 94q158 0 277 89t184 239.5t79 345.5h-436q-144 0 -252 -124.5t-108 -283.5q0 -120 67.5 -193t188.5 -73z" />
    <glyph glyph-name="quotesingle" unicode="'" horiz-adv-x="368" 
d="M154 985l120 469h119l-149 -469h-90z" />
    <glyph glyph-name="parenleft" unicode="(" horiz-adv-x="514" 
d="M238 -295q-105 307 -105 629q0 313 87.5 621t248.5 552l76 -37q-149 -241 -229 -533t-80 -587q0 -305 94 -602z" />
    <glyph glyph-name="parenright" unicode=")" horiz-adv-x="514" 
d="M82 -291l-80 35q303 537 303 1116q0 334 -98 604l88 47q113 -263 113 -637q0 -617 -326 -1165z" />
    <glyph glyph-name="asterisk" unicode="*" horiz-adv-x="786" 
d="M393 817l39 264l-211 -139l-33 70l222 125l-193 123l47 71l182 -139l27 262h78l-41 -262l213 139l33 -71l-221 -123l192 -125l-47 -68l-182 137l-27 -264h-78z" />
    <glyph glyph-name="plus" unicode="+" horiz-adv-x="1107" 
d="M455 92l51 424h-379l12 100h381l51 426h101l-51 -426h376l-14 -100h-377l-51 -424h-100z" />
    <glyph glyph-name="comma" unicode="," horiz-adv-x="380" 
d="M-20 -264l118 469h119l-156 -469h-81z" />
    <glyph glyph-name="hyphen" unicode="-" horiz-adv-x="780" 
d="M131 578l12 106h541l-12 -106h-541z" />
    <glyph glyph-name="period" unicode="." horiz-adv-x="430" 
d="M162 -10q-38 0 -62 24.5t-24 61.5t25 62.5t63 25.5q37 0 61.5 -24.5t24.5 -61.5t-25.5 -62.5t-62.5 -25.5z" />
    <glyph glyph-name="slash" unicode="/" horiz-adv-x="714" 
d="M-61 -233l-78 43l925 1742l76 -43z" />
    <glyph glyph-name="zero" unicode="0" horiz-adv-x="1175" 
d="M522 -10q-174 0 -281.5 136t-107.5 396q0 133 22.5 260.5t69.5 242.5t114 201.5t162 137.5t206 51q177 0 280 -134.5t103 -397.5q0 -134 -21.5 -261.5t-67.5 -242.5t-111.5 -201.5t-160.5 -137t-207 -50.5zM524 96q92 0 169 47t129 124.5t88 180.5t52.5 213t16.5 224
q0 214 -75.5 320t-205.5 106q-90 0 -166 -47.5t-127.5 -126t-87.5 -181.5t-52.5 -213.5t-16.5 -222.5q0 -210 76.5 -317t199.5 -107z" />
    <glyph glyph-name="one" unicode="1" horiz-adv-x="688" 
d="M504 1407h94l-174 -1407h-111l156 1255l-291 -219l-55 88z" />
    <glyph glyph-name="two" unicode="2" horiz-adv-x="954" 
d="M14 0l11 84l485 481q65 64 110.5 116.5t89 117t65.5 133t22 139.5q0 101 -57.5 170.5t-159.5 69.5q-101 0 -194.5 -60.5t-143.5 -165.5l-84 60q59 121 176.5 195.5t253.5 74.5q140 0 230.5 -93.5t90.5 -244.5q0 -154 -81.5 -292t-225.5 -279l-409 -397v-5h620l-14 -104
h-785z" />
    <glyph glyph-name="three" unicode="3" horiz-adv-x="980" 
d="M410 -10q-155 0 -255 75t-132 201l106 39q22 -98 93 -153.5t186 -55.5q156 0 251 98.5t95 256.5q0 106 -65.5 169.5t-196.5 63.5h-123l12 98h119q138 0 222.5 92.5t84.5 225.5q0 100 -62.5 155.5t-166.5 55.5q-188 0 -312 -166l-92 55q70 98 175.5 156.5t234.5 58.5
q151 0 243.5 -77.5t92.5 -223.5q0 -136 -65 -235t-177 -142v-4q91 -34 140.5 -110.5t49.5 -184.5q0 -199 -129 -323.5t-329 -124.5z" />
    <glyph glyph-name="four" unicode="4" horiz-adv-x="1034" 
d="M764 360h192l-14 -102h-192l-31 -258h-111l31 258h-614l10 86l762 1063h94zM657 358l103 826l-586 -826h483z" />
    <glyph glyph-name="five" unicode="5" horiz-adv-x="1030" 
d="M979 1303h-555l-80 -465q106 45 229 45q167 0 263 -95t96 -270q0 -230 -141 -379t-359 -149q-135 0 -235.5 68t-143.5 184l94 55q34 -95 108.5 -148t176.5 -53q170 0 278.5 117.5t108.5 296.5q0 134 -71 203t-203 69q-68 0 -140.5 -21.5t-117.5 -60.5l-72 21l121 686h657
z" />
    <glyph glyph-name="six" unicode="6" horiz-adv-x="1089" 
d="M496 -10q-172 0 -276.5 116t-104.5 310q0 170 55.5 339.5t153 310t239.5 244t305 140.5l15 -100q-226 -58 -391.5 -240.5t-229.5 -417.5l2 -2q69 90 172.5 139.5t222.5 49.5q145 0 237.5 -99t92.5 -262q0 -148 -64 -269t-177 -190t-252 -69zM500 98q155 0 266 119
t111 297q0 120 -68.5 190t-190.5 70q-126 0 -230.5 -71.5t-158.5 -186.5q-4 -58 -4 -84q0 -153 73.5 -243.5t201.5 -90.5z" />
    <glyph glyph-name="seven" unicode="7" horiz-adv-x="915" 
d="M172 1407h782l-10 -86l-690 -1341l-111 26l670 1297h-653z" />
    <glyph glyph-name="eight" unicode="8" horiz-adv-x="1077" 
d="M463 -8q-179 0 -281 90.5t-102 243.5q0 151 84.5 271t232.5 163v2q-72 23 -121 84.5t-49 161.5q0 179 121.5 293t308.5 114q149 0 239.5 -79.5t90.5 -213.5q0 -123 -68.5 -222.5t-175.5 -133.5v-4q104 -27 165 -107t61 -198q0 -208 -142.5 -336.5t-363.5 -128.5zM575 811
q127 0 215.5 81t88.5 208q0 103 -63.5 159t-176.5 56q-130 0 -217.5 -84.5t-87.5 -210.5q0 -100 65.5 -154.5t175.5 -54.5zM481 94q159 0 266 101.5t107 253.5q0 126 -76.5 191t-208.5 65q-164 0 -270 -102.5t-106 -250.5q0 -121 78.5 -189.5t209.5 -68.5z" />
    <glyph glyph-name="nine" unicode="9" horiz-adv-x="1089" 
d="M260 -49l-14 98q150 37 282.5 140t222.5 243t130 297l-2 2q-75 -94 -178 -149.5t-226 -55.5q-148 0 -235.5 95t-87.5 253q0 150 64.5 273.5t180.5 195.5t260 72q171 0 271 -112.5t100 -319.5q0 -230 -99.5 -450t-277 -378t-391.5 -204zM502 631q119 0 228 67t183 197
q2 27 2 80q-1 168 -71 252t-195 84q-109 0 -198.5 -56t-139 -151t-49.5 -209q0 -122 61.5 -193t178.5 -71z" />
    <glyph glyph-name="colon" unicode=":" horiz-adv-x="423" 
d="M266 829q-38 0 -62 24.5t-24 61.5t25 63t63 26q37 0 61.5 -24.5t24.5 -61.5t-25.5 -63t-62.5 -26zM160 -10q-38 0 -62 24.5t-24 61.5t25 62.5t63 25.5q37 0 61.5 -24.5t24.5 -61.5t-25.5 -62.5t-62.5 -25.5z" />
    <glyph glyph-name="semicolon" unicode=";" horiz-adv-x="411" 
d="M266 829q-38 0 -62 24.5t-24 61.5t25 63t63 26q37 0 61.5 -24.5t24.5 -61.5t-25.5 -63t-62.5 -26zM-2 -264l119 469h119l-156 -469h-82z" />
    <glyph glyph-name="less" unicode="&#x3c;" horiz-adv-x="1077" 
d="M881 111l-762 424l8 77l866 428l-12 -110l-707 -357l619 -354z" />
    <glyph glyph-name="equal" unicode="=" horiz-adv-x="1093" 
d="M174 748l12 100h858l-12 -100h-858zM121 285l12 100h858l-12 -100h-858z" />
    <glyph glyph-name="greater" unicode="&#x3e;" horiz-adv-x="1075" 
d="M104 111l13 108l706 354l-620 357l14 110l762 -428l-8 -77z" />
    <glyph glyph-name="question" unicode="?" horiz-adv-x="827" 
d="M303 393l14 113q3 27 9.5 51.5t22 51t24 42t35 46t34.5 39.5t43 45t41 42q96 101 141.5 181t45.5 184q0 106 -57.5 163.5t-153.5 57.5q-80 0 -152 -40.5t-123 -115.5l-71 72q69 93 167.5 143t204.5 50q136 0 221 -86t85 -232q0 -65 -17.5 -124.5t-52 -113.5t-69 -94.5
t-85.5 -91.5q-8 -9 -38 -39.5t-39 -40.5t-31.5 -35.5t-31 -39t-22 -34.5t-19.5 -40t-9 -39l-19 -115h-98zM330 -10q-38 0 -62 24.5t-24 61.5t25 62.5t63 25.5q37 0 61.5 -24.5t24.5 -61.5t-25.5 -62.5t-62.5 -25.5z" />
    <glyph glyph-name="at" unicode="@" horiz-adv-x="1841" 
d="M834 -276q-207 0 -371.5 90.5t-259 259.5t-94.5 387q0 77 15 158t48 167.5t82 165.5t122.5 149.5t163 122.5t209.5 82.5t257 30.5q329 0 533 -199.5t204 -525.5q0 -65 -11 -132.5t-39 -138.5t-68.5 -126t-105.5 -90t-145 -35q-91 0 -142.5 54t-60.5 143q-10 19 -14 59h-4
q-58 -107 -152.5 -170t-205.5 -63q-134 0 -215.5 89.5t-81.5 248.5q0 137 52.5 250.5t155.5 184t238 70.5q82 0 153.5 -25t112.5 -69l4 2l11 84h106l-55 -456q-10 -88 -10 -113q-5 -101 27 -150t102 -49q65 0 117 43t81.5 110t44.5 138.5t15 138.5q0 288 -178.5 465.5
t-468.5 177.5q-139 0 -259 -34.5t-206.5 -95t-153.5 -138t-107 -167.5t-60.5 -179.5t-20.5 -177.5q0 -142 49 -264t134 -206t202 -131.5t250 -47.5q261 0 456 106l45 -68q-214 -126 -501 -126zM823 213q122 0 230.5 116.5t128.5 276.5l20 154q-42 46 -111 71t-135 25
q-107 0 -187.5 -57.5t-119.5 -146.5t-39 -193q0 -116 55 -181t158 -65z" />
    <glyph glyph-name="A" unicode="A" horiz-adv-x="1241" 
d="M-2 0l676 1454h123l325 -1454h-118l-84 391h-623l-180 -391h-119zM342 496h557l-178 813h-4z" />
    <glyph glyph-name="B" unicode="B" horiz-adv-x="1202" 
d="M131 0l178 1454h432q160 0 256.5 -69.5t96.5 -221.5q0 -125 -68.5 -235t-191.5 -154v-4q112 -27 177.5 -100.5t65.5 -200.5q0 -226 -143 -347.5t-397 -121.5h-406zM344 809h307q144 0 235 95.5t91 244.5q0 99 -62.5 149t-199.5 50h-305zM258 106h283q193 0 305 93
t112 270q0 121 -76 179.5t-233 58.5h-317z" />
    <glyph glyph-name="C" unicode="C" horiz-adv-x="1376" 
d="M709 -10q-253 0 -407.5 163t-154.5 449q0 170 55 327t150.5 275.5t234 189t296.5 70.5q308 0 499 -309l-98 -68q-82 143 -178.5 206t-224.5 63q-134 0 -250.5 -63.5t-195.5 -168t-124 -240.5t-45 -280q0 -233 120 -368.5t327 -135.5q113 0 228 53.5t204 151.5l86 -72
q-99 -111 -237 -177t-285 -66z" />
    <glyph glyph-name="D" unicode="D" horiz-adv-x="1374" 
d="M131 0l178 1454h387q282 0 434 -157.5t152 -436.5q0 -251 -95.5 -446.5t-272 -304.5t-406.5 -109h-377zM258 106h256q191 0 339.5 97t229 268t80.5 387q0 230 -123 360t-352 130h-276z" />
    <glyph glyph-name="E" unicode="E" horiz-adv-x="1118" 
d="M131 0l178 1454h787l-13 -106h-673l-70 -570h557l-10 -106h-559l-70 -566h711l-13 -106h-825z" />
    <glyph glyph-name="F" unicode="F" horiz-adv-x="1085" 
d="M131 0l178 1454h819l-10 -106h-708l-72 -584h604l-10 -105h-606l-80 -659h-115z" />
    <glyph glyph-name="G" unicode="G" horiz-adv-x="1445" 
d="M721 -10q-265 0 -419.5 162t-154.5 448q0 137 34.5 266t100.5 236.5t155 189t205 127t243 45.5q292 0 473 -231l-92 -74q-155 197 -387 197q-175 0 -316.5 -106t-218 -277.5t-76.5 -370.5q0 -235 119.5 -369.5t337.5 -134.5q112 0 220 36.5t194 105.5l47 378h-426l12 107
h541l-68 -547q-100 -91 -240 -139.5t-284 -48.5z" />
    <glyph glyph-name="H" unicode="H" horiz-adv-x="1368" 
d="M131 0l178 1454h115l-88 -713h758l86 713h114l-178 -1454h-115l78 635h-755l-78 -635h-115z" />
    <glyph glyph-name="I" unicode="I" horiz-adv-x="522" 
d="M143 0l179 1454h114l-178 -1454h-115z" />
    <glyph glyph-name="J" unicode="J" horiz-adv-x="925" 
d="M340 -10q-90 0 -177.5 50t-142.5 142l78 82q46 -76 110.5 -120t131.5 -44q259 0 301 367l121 987h115l-121 -993q-29 -239 -131.5 -355t-284.5 -116z" />
    <glyph glyph-name="K" unicode="K" horiz-adv-x="1204" 
d="M1243 1454l-588 -663l420 -791h-133l-371 707l-278 -312l-47 -395h-115l178 1454h115l-109 -881l4 -2l779 883h145z" />
    <glyph glyph-name="L" unicode="L" horiz-adv-x="1042" 
d="M131 0l178 1454h115l-166 -1348h680l-12 -106h-795z" />
    <glyph glyph-name="M" unicode="M" horiz-adv-x="1654" 
d="M131 0l178 1454h115l397 -1001h6l639 1001h113l-176 -1454h-115l148 1210h-6l-582 -905h-84l-367 920h-4l-147 -1225h-115z" />
    <glyph glyph-name="N" unicode="N" horiz-adv-x="1427" 
d="M131 0l178 1454h111l661 -1257l4 2l154 1255h113l-178 -1454h-115l-656 1247h-6l-151 -1247h-115z" />
    <glyph glyph-name="O" unicode="O" horiz-adv-x="1546" 
d="M715 -10q-260 0 -416 161.5t-156 446.5q0 136 34 264.5t99.5 237t155 190.5t207.5 128t250 46q260 0 415.5 -159.5t155.5 -446.5q0 -139 -33 -268.5t-97.5 -238t-153.5 -189.5t-207.5 -126.5t-253.5 -45.5zM721 98q138 0 255 62t196 166.5t123 242t44 287.5
q0 242 -122 372t-338 130q-135 0 -252 -64t-196 -169.5t-124 -242t-45 -282.5q0 -239 123 -370.5t336 -131.5z" />
    <glyph glyph-name="P" unicode="P" horiz-adv-x="1153" 
d="M131 0l178 1454h451q185 0 277.5 -93t92.5 -263q0 -232 -135.5 -370t-378.5 -138h-299l-71 -590h-115zM330 694h299q180 0 281.5 109.5t101.5 294.5q0 125 -75 187.5t-200 62.5h-327z" />
    <glyph glyph-name="Q" unicode="Q" horiz-adv-x="1581" 
d="M1464 858q0 -180 -55 -342.5t-158 -282.5l152 -170l-76 -79l-153 172q-193 -166 -455 -166q-260 0 -416 161.5t-156 446.5q0 136 34 264.5t99.5 237t155 190.5t207.5 128t250 46q260 0 415.5 -159.5t155.5 -446.5zM725 98q213 0 373 144l-154 172l74 80l153 -172
q83 104 127.5 242.5t44.5 291.5q0 242 -122 371t-340 129q-178 0 -321 -108.5t-218.5 -280t-75.5 -367.5q0 -239 123 -370.5t336 -131.5z" />
    <glyph glyph-name="R" unicode="R" horiz-adv-x="1214" 
d="M131 0l178 1454h455q185 0 278 -93t93 -263q0 -199 -105 -332.5t-293 -163.5l297 -602h-129l-287 590h-301l-71 -590h-115zM330 694h303q178 0 279.5 110t101.5 294q0 125 -74 187.5t-199 62.5h-331z" />
    <glyph glyph-name="S" unicode="S" horiz-adv-x="1101" 
d="M522 -10q-137 0 -262.5 61t-200.5 176l86 76q65 -102 163.5 -153.5t207.5 -51.5q152 0 247 81t95 212q0 27 -8.5 52.5t-18 44.5t-34 42.5t-39.5 36.5t-52.5 36.5t-54.5 33t-63 35.5q-26 15 -39 22q-46 25 -64 35.5t-60.5 35.5t-61.5 40.5t-51 42t-47.5 49.5t-33.5 53.5
t-25 64t-7 70.5q0 169 122 274t312 105q113 0 217 -47t176 -131l-82 -76q-63 75 -147 111.5t-172 36.5q-134 0 -221 -72t-87 -188q1 -50 21 -91t61 -75.5t81.5 -60.5t104.5 -62q10 -5 15 -8q15 -9 56 -32t57 -32.5t52 -31.5t51.5 -34t43.5 -34t41 -38.5t31.5 -41t26.5 -47
t14 -50t6 -57.5q0 -191 -128 -302t-329 -111z" />
    <glyph glyph-name="T" unicode="T" horiz-adv-x="1050" 
d="M406 0l165 1348h-405l12 106h932l-14 -106h-410l-166 -1348h-114z" />
    <glyph glyph-name="U" unicode="U" horiz-adv-x="1337" 
d="M604 -10q-125 0 -215.5 44t-139.5 123.5t-67.5 191t0.5 247.5l107 858h114l-106 -860q-29 -229 47.5 -361.5t263.5 -132.5q191 0 308 119t149 363l104 872h115l-106 -872q-72 -592 -574 -592z" />
    <glyph glyph-name="V" unicode="V" horiz-adv-x="1228" 
d="M504 0l-322 1454h119l274 -1288h3l583 1288h125l-674 -1454h-108z" />
    <glyph glyph-name="W" unicode="W" horiz-adv-x="1882" 
d="M432 0l-244 1454h119l205 -1264h4l475 1264h131l172 -1253h6l504 1253h125l-598 -1454h-119l-178 1266h-4l-479 -1266h-119z" />
    <glyph glyph-name="X" unicode="X" horiz-adv-x="1183" 
d="M0 0l545 727l-363 727h129l316 -637h6l467 637h141l-545 -729l367 -725h-135l-316 631h-6l-471 -631h-135z" />
    <glyph glyph-name="Y" unicode="Y" horiz-adv-x="1089" 
d="M426 0l80 655l-350 799h125l292 -682h5l462 682h134l-553 -799l-80 -655h-115z" />
    <glyph glyph-name="Z" unicode="Z" horiz-adv-x="1150" 
d="M59 0l13 94l895 1249v5h-701l15 106h847l-12 -94l-899 -1247l2 -7h750l-13 -106h-897z" />
    <glyph glyph-name="bracketleft" unicode="[" horiz-adv-x="567" 
d="M63 -291l220 1780h317l-8 -88h-223l-199 -1606h223l-10 -86h-320z" />
    <glyph glyph-name="backslash" unicode="\" horiz-adv-x="727" 
d="M600 -233l-498 1742l91 43l497 -1745z" />
    <glyph glyph-name="bracketright" unicode="]" horiz-adv-x="571" 
d="M-8 -291l12 86h225l197 1606h-225l10 88h321l-219 -1780h-321z" />
    <glyph glyph-name="asciicircum" unicode="^" horiz-adv-x="890" 
d="M201 1024l315 430h92l211 -430h-104l-160 348l-250 -348h-104z" />
    <glyph glyph-name="underscore" unicode="_" horiz-adv-x="952" 
d="M-90 -139l10 82h975l-10 -82h-975z" />
    <glyph glyph-name="grave" unicode="`" horiz-adv-x="958" 
d="M580 1116l-197 283h125l186 -283h-114z" />
    <glyph glyph-name="a" unicode="a" horiz-adv-x="1110" 
d="M434 -10q-108 0 -187 53.5t-117 142.5t-38 201q0 165 61.5 305t179 226t267.5 86q89 0 169 -30t128 -85l6 2l12 102h107l-121 -993h-106l32 270h-4q-71 -129 -171 -204.5t-218 -75.5zM449 88q103 0 194 74.5t149.5 195.5t77.5 263l21 157q-50 66 -132.5 96.5t-156.5 30.5
q-119 0 -212 -74t-141 -192t-48 -254q0 -133 65 -215t183 -82z" />
    <glyph glyph-name="b" unicode="b" horiz-adv-x="1136" 
d="M498 -10q-227 0 -381 102l174 1415h104l-92 -774l4 -2q68 126 168.5 199.5t224.5 73.5q166 0 255 -115t89 -301q0 -117 -37 -224t-104.5 -190.5t-172.5 -133.5t-232 -50zM494 90q133 0 235 71.5t153.5 185.5t51.5 249q0 139 -64 223t-188 84q-107 0 -198.5 -73.5
t-149 -193t-76.5 -263.5l-29 -228q107 -55 265 -55z" />
    <glyph glyph-name="c" unicode="c" horiz-adv-x="985" 
d="M473 -8q-164 0 -272.5 107.5t-108.5 299.5q0 164 62 301t182.5 220.5t277.5 83.5q103 0 191.5 -40.5t142.5 -119.5l-86 -66q-41 64 -107 95.5t-143 31.5q-123 0 -218 -68.5t-144 -181t-49 -247.5q0 -144 79 -230t199 -86q191 0 307 139l84 -61q-147 -178 -397 -178z" />
    <glyph glyph-name="d" unicode="d" horiz-adv-x="1132" 
d="M436 -10q-163 0 -253.5 112t-90.5 285q0 165 62 305t179.5 226t266.5 86q90 0 171.5 -29.5t133.5 -87.5l4 2l76 618h107l-185 -1507h-108l35 272l-5 2q-69 -131 -170 -207.5t-223 -76.5zM451 88q105 0 197.5 74t151 194.5t77.5 261.5l18 160q-33 47 -88.5 77t-105 40
t-97.5 10q-119 0 -212 -74t-141 -192t-48 -254q0 -133 65 -215t183 -82z" />
    <glyph glyph-name="e" unicode="e" horiz-adv-x="954" 
d="M483 92q163 0 287 139l82 -61q-76 -89 -165 -133.5t-206 -44.5q-175 0 -282 110.5t-107 300.5q0 163 63 299.5t182 219t269 82.5q48 0 96.5 -13t95 -40t76 -77.5t29.5 -117.5q0 -55 -23.5 -102t-62.5 -82t-95.5 -63.5t-117 -48t-133 -34t-137 -23t-135.5 -14.5
q4 -140 82.5 -218.5t201.5 -78.5zM604 905q-152 0 -265.5 -118.5t-135.5 -307.5q108 9 201 25t187 46t149 81t55 119q0 44 -18.5 76.5t-49 48.5t-61 23t-62.5 7z" />
    <glyph glyph-name="f" unicode="f" horiz-adv-x="593" 
d="M123 0l108 899h-114l10 94h117l26 224q39 301 267 301q113 0 192 -56l-29 -94q-64 49 -151 49q-71 0 -115.5 -50t-58.5 -173l-25 -201h275l-11 -94h-276l-109 -899h-106z" />
    <glyph glyph-name="g" unicode="g" horiz-adv-x="1114" 
d="M377 -414q-181 0 -328 82l35 101q142 -82 299 -82q70 0 124 10.5t106.5 40t89.5 79.5t65.5 131.5t42.5 192.5l20 162h-4q-70 -127 -172.5 -205t-222.5 -78q-161 0 -250.5 112.5t-89.5 287.5q0 111 36.5 216t101 187t160.5 131.5t208 49.5q89 0 171 -29.5t130 -83.5l4 2
l12 100h107l-104 -860q-13 -110 -40 -196t-65.5 -145.5t-84.5 -100.5t-104 -63.5t-117 -32t-130 -9.5zM449 119q99 0 190.5 69t150.5 179.5t76 234.5l23 176q-48 66 -130.5 95.5t-156.5 29.5q-118 0 -211.5 -72.5t-141.5 -182.5t-48 -232q0 -133 65 -215t183 -82z" />
    <glyph glyph-name="h" unicode="h" horiz-adv-x="1105" 
d="M104 0l187 1507h106l-98 -790l4 -2q73 134 188 211.5t236 77.5q149 0 212 -98t36 -308l-80 -598h-107l78 592q22 169 -22.5 241t-143.5 72q-68 0 -141 -39.5t-134 -104.5t-106 -157.5t-57 -191.5l-49 -412h-109z" />
    <glyph glyph-name="i" unicode="i" horiz-adv-x="456" 
d="M328 1210q-36 0 -59 24.5t-23 61.5q0 38 24.5 63t61.5 25t61.5 -23.5t24.5 -60.5q0 -39 -25.5 -64.5t-64.5 -25.5zM115 0l121 993h106l-123 -993h-104z" />
    <glyph glyph-name="j" unicode="j" horiz-adv-x="385" 
d="M281 1210q-36 0 -59 24.5t-23 61.5q0 38 24.5 63t61.5 25t61.5 -23.5t24.5 -60.5q0 -39 -25.5 -64.5t-64.5 -25.5zM-92 -414q-78 0 -135 35l26 92q43 -32 101 -32q62 0 101.5 47t53.5 170l135 1095h107l-137 -1108q-17 -152 -78 -225.5t-174 -73.5z" />
    <glyph glyph-name="k" unicode="k" horiz-adv-x="985" 
d="M836 -8q-23 -3 -45 4q-27 5 -50.5 22t-39 34t-36 56t-30.5 61.5t-33 78.5l-72 166q-146 -121 -292 -191l-27 -223h-107l187 1507h106l-143 -1161l4 -2q206 115 362 293t214 356h108q-71 -262 -328 -508l88 -202q51 -119 83 -157t81 -46z" />
    <glyph glyph-name="l" unicode="l" horiz-adv-x="446" 
d="M115 0l184 1507h109l-187 -1507h-106z" />
    <glyph glyph-name="m" unicode="m" horiz-adv-x="1679" 
d="M106 0l121 993h107l-33 -258l6 -2q70 126 172 198.5t207 72.5q233 0 242 -267l4 -2q69 125 171 197t210 72q294 0 241 -406l-81 -598h-107l80 592q41 313 -156 313q-58 0 -121 -36t-118.5 -99t-97.5 -157t-56 -201l-53 -412h-107l78 592q21 169 -20.5 241t-132.5 72
q-59 0 -125 -39.5t-122.5 -104.5t-98.5 -157t-54 -190l-49 -414h-107z" />
    <glyph glyph-name="n" unicode="n" horiz-adv-x="1105" 
d="M104 0l125 993h107l-35 -270h4q75 129 188.5 205t233.5 76q149 0 212 -98t36 -308l-80 -598h-107l78 592q10 89 4.5 149t-30 96t-58.5 51t-82 15q-90 0 -184.5 -63.5t-165.5 -178.5t-88 -249l-49 -412h-109z" />
    <glyph glyph-name="o" unicode="o" horiz-adv-x="1103" 
d="M496 -10q-184 0 -295 110.5t-111 305.5q0 119 37 227t103 190.5t165.5 131.5t216.5 49q184 0 293 -106.5t109 -299.5q0 -170 -60.5 -307t-179.5 -219t-278 -82zM498 90q180 0 293.5 140.5t113.5 361.5q0 154 -82 233.5t-217 79.5q-177 0 -292 -142.5t-115 -348.5
q0 -149 81 -236.5t218 -87.5z" />
    <glyph glyph-name="p" unicode="p" horiz-adv-x="1132" 
d="M55 -406l172 1399h107l-33 -270l4 -2q68 131 169.5 207t232.5 76q158 0 246.5 -113t88.5 -285q0 -165 -61.5 -304.5t-180 -225.5t-270.5 -86q-89 0 -170 29t-131 83l-4 -2l-63 -506h-107zM514 90q94 0 174 41.5t133 112t83 163t30 193.5q0 135 -64 220t-184 85
q-106 0 -199 -73t-152 -191.5t-77 -257.5l-20 -166q42 -67 121.5 -97t154.5 -30z" />
    <glyph glyph-name="q" unicode="q" horiz-adv-x="1114" 
d="M745 -406l82 678h-4q-68 -129 -168.5 -205.5t-220.5 -76.5q-108 0 -187 53.5t-117 142.5t-38 201q0 165 61.5 305t179 226t267.5 86q87 0 167.5 -29t131.5 -82l4 2l12 98h107l-170 -1399h-107zM449 88q103 0 194.5 75t150 196t76.5 262l21 157q-49 66 -130.5 95.5
t-156.5 29.5q-119 0 -212.5 -73.5t-142 -191t-48.5 -253.5q0 -133 65 -215t183 -82z" />
    <glyph glyph-name="r" unicode="r" horiz-adv-x="616" 
d="M106 0l121 993h107l-31 -258h4q60 112 147.5 180.5t196.5 88.5l-14 -127q-150 -13 -250 -140t-125 -323l-49 -414h-107z" />
    <glyph glyph-name="s" unicode="s" horiz-adv-x="825" 
d="M367 -10q-213 0 -338 149l69 74q110 -125 269 -125q105 0 172 47.5t67 128.5q0 16 -4 31t-8.5 27t-15.5 25t-18.5 21t-25 19.5t-27 17.5t-32 17t-32.5 15t-36.5 16t-35.5 16q-54 22 -92 44t-74.5 53.5t-55 73.5t-18.5 93q0 122 92 196.5t223 74.5q183 0 297 -125l-71 -74
q-94 104 -232 104q-85 0 -142.5 -47t-57.5 -125q0 -60 49.5 -100.5t142.5 -81.5q122 -56 159 -79q124 -79 124 -200q1 -135 -98.5 -210.5t-249.5 -75.5z" />
    <glyph glyph-name="t" unicode="t" horiz-adv-x="679" 
d="M326 -10q-213 0 -179 276l78 633h-119l13 94h117l43 342l108 21l-45 -363h317l-12 -94h-315l-76 -618q-11 -92 9.5 -139.5t88.5 -47.5q88 0 181 68l14 -103q-101 -69 -223 -69z" />
    <glyph glyph-name="u" unicode="u" horiz-adv-x="1073" 
d="M395 -10q-157 0 -225 96.5t-39 304.5l82 602h106l-79 -594q-10 -92 -5 -152t33 -95t64 -48.5t88 -13.5q82 0 167.5 61t150.5 168t83 230l53 444h107l-121 -993h-108l34 266h-4q-68 -126 -170 -201t-217 -75z" />
    <glyph glyph-name="v" unicode="v" horiz-adv-x="989" 
d="M389 -10q-155 0 -219 104t-37 326l72 573h106l-71 -567q-15 -127 1.5 -203t54.5 -104.5t101 -28.5q117 0 231 122t163 325q50 220 8 456h112q40 -250 -16 -487q-32 -131 -90 -233.5t-128 -162.5t-143 -90t-145 -30z" />
    <glyph glyph-name="w" unicode="w" horiz-adv-x="1581" 
d="M379 -10q-145 0 -210.5 99.5t-37.5 309.5l78 594h106l-75 -585q-42 -318 166 -318q47 0 102 33t106.5 90.5t91 148.5t52.5 195l53 436h107l-70 -579q-11 -77 -7 -133.5t15 -93t33.5 -58.5t48 -30.5t59.5 -8.5q112 0 226 123t159 324q51 222 9 456h112q41 -257 -16 -487
q-32 -131 -89.5 -233.5t-127 -162t-141 -90t-140.5 -30.5q-118 0 -182.5 70.5t-67.5 207.5h-4q-61 -122 -164 -200t-192 -78z" />
    <glyph glyph-name="x" unicode="x" horiz-adv-x="917" 
d="M2 0l393 500l-270 493h125l215 -407h8l315 407h132l-396 -497l273 -496h-125l-219 410h-4l-322 -410h-125z" />
    <glyph glyph-name="y" unicode="y" horiz-adv-x="1067" 
d="M872 993h107l-107 -862q-15 -130 -51 -227.5t-82.5 -157t-109 -96.5t-125 -50.5t-137.5 -13.5q-171 0 -318 82l35 99q140 -82 285 -82q60 0 109 10.5t98.5 41t85.5 79.5t64.5 131t41.5 192l14 127l-4 2q-66 -127 -169.5 -202.5t-219.5 -75.5q-319 0 -264 401l82 602h106
l-80 -594q-12 -73 -6.5 -126.5t18.5 -88t40 -55.5t57.5 -29.5t71.5 -9.5q86 0 174 63.5t152 175t79 238.5z" />
    <glyph glyph-name="z" unicode="z" horiz-adv-x="874" 
d="M723 -49q-59 18 -125 28.5t-168 14.5t-178.5 5t-241.5 1l10 84l668 813v2h-543l13 94h686l-8 -80l-670 -815v-4q224 0 358.5 -9.5t229.5 -39.5z" />
    <glyph glyph-name="braceleft" unicode="{" horiz-adv-x="612" 
d="M326 -291q-81 0 -128.5 56.5t-35.5 150.5l57 475q5 28 3 54t-10.5 46t-38 34t-79.5 18l8 90q51 4 84 18t49 38.5t21.5 44.5t9.5 54l64 496q9 88 66 146.5t145 58.5h82l-11 -82h-49q-56 0 -95.5 -41t-47.5 -104l-60 -482q-11 -88 -38 -131t-93 -59v-4q60 -17 77 -60.5
t5 -136.5l-53 -434q-9 -89 15 -127.5t87 -38.5h54l-8 -80h-80z" />
    <glyph glyph-name="bar" unicode="|" horiz-adv-x="567" 
d="M145 -236l215 1745h97l-215 -1745h-97z" />
    <glyph glyph-name="braceright" unicode="}" horiz-adv-x="612" 
d="M14 -291l11 80h49q66 0 101.5 41t45.5 131l53 434q11 93 39 134.5t95 56.5v4q-60 17 -77.5 62t-6.5 134l59 480q8 63 -21 102t-86 39h-53l8 82h82q87 0 132 -61t34 -150l-61 -494q-6 -28 -4.5 -53.5t10 -45.5t38 -34t79.5 -18l-9 -90q-50 -4 -83 -17.5t-49 -38
t-21.5 -45.5t-9.5 -55l-58 -475q-12 -95 -72 -149t-141 -54h-84z" />
    <glyph glyph-name="asciitilde" unicode="~" horiz-adv-x="1058" 
d="M711 453q-37 0 -74.5 12.5t-55 22.5t-51.5 32q-96 58 -153 58q-99 0 -162 -117l-80 35q92 186 236 186q36 0 71 -10.5t53 -20t48 -28.5q38 -25 58.5 -36.5t49.5 -21.5t56 -10q44 0 85 31t68 88l80 -33q-40 -90 -102 -139t-127 -49z" />
    <glyph glyph-name="uni00A0" unicode="&#xa0;" horiz-adv-x="460" 
 />
    <glyph glyph-name="exclamdown" unicode="&#xa1;" horiz-adv-x="448" 
d="M262 1004q38 0 62 -24.5t24 -61.5t-25 -63t-63 -26q-37 0 -61.5 24.5t-24.5 61.5t25.5 63t62.5 26zM272 594l-116 -1108h-119l153 1108h82z" />
    <glyph glyph-name="cent" unicode="&#xa2;" horiz-adv-x="1001" 
d="M506 203q194 0 313 139l84 -61q-137 -156 -332 -175l-26 -225h-80l27 221q-156 3 -262.5 113t-106.5 295q0 157 58.5 290t172 218t260.5 94l29 238h80l-29 -238q87 -8 162.5 -47.5t124.5 -110.5l-86 -63q-42 63 -107.5 94t-138.5 31q-123 0 -219.5 -69t-146.5 -182.5
t-50 -250.5q0 -138 78.5 -224.5t194.5 -86.5z" />
    <glyph glyph-name="sterling" unicode="&#xa3;" horiz-adv-x="1040" 
d="M37 0l12 106h156l76 627h-121l10 88h123l16 133q15 126 54 218.5t95 144t118 75t133 23.5q108 0 188.5 -54.5t124.5 -150.5l-74 -71q-35 81 -94 123.5t-135 42.5q-118 0 -196.5 -88t-102.5 -279l-14 -117h313l-10 -88h-314l-76 -627h619l-12 -106h-889z" />
    <glyph glyph-name="currency" unicode="&#xa4;" horiz-adv-x="935" 
d="M850 840q0 -171 -113 -293l121 -152l-61 -57l-121 156q-98 -72 -223 -72q-128 0 -207 70l-154 -152l-51 57l156 154q-45 73 -45 174q0 181 106 303l-121 154l64 57l116 -152q100 78 228 78q124 0 205 -75l153 151l51 -57l-155 -154q51 -79 51 -190zM238 735
q0 -106 60 -167.5t163 -61.5q128 0 215.5 95t87.5 230q0 113 -62 180.5t-163 67.5q-127 0 -214 -100.5t-87 -243.5z" />
    <glyph glyph-name="yen" unicode="&#xa5;" horiz-adv-x="1017" 
d="M1100 1407l-453 -698h266l-10 -82h-309l-12 -19l-19 -153h320l-11 -82h-319l-47 -373h-115l47 373h-329l10 82h330l18 153l-8 19h-318l11 82h276l-278 698h129l258 -680h4l426 680h133z" />
    <glyph glyph-name="brokenbar" unicode="&#xa6;" horiz-adv-x="569" 
d="M414 1157l-39 -315h2l-90 -723h-99l91 723l38 315h97z" />
    <glyph glyph-name="section" unicode="&#xa7;" horiz-adv-x="995" 
d="M575 848q138 -61 180 -87q108 -68 123 -170q3 -19 3 -40q0 -209 -215 -299q60 -40 91 -90.5t31 -124.5q0 -159 -107 -253.5t-278 -94.5q-114 0 -208 46t-154 138l74 76q43 -79 121 -117.5t167 -38.5q121 0 195 62t74 172q0 25 -7 47t-15 38.5t-29.5 34.5t-34.5 28.5
t-47.5 28.5t-50.5 25.5t-60 28.5q-140 65 -190 101q-109 80 -109 204q0 98 57 175t154 116q-111 79 -111 209q0 149 104 243.5t255 94.5q97 0 187 -37t143 -98l-72 -78q-49 54 -116.5 81t-137.5 27q-104 0 -175 -61.5t-71 -163.5q0 -34 12 -62t29 -48t51 -42t61 -35t76 -36z
M578 301q90 31 141 90.5t51 147.5q0 26 -6.5 47.5t-22 40.5t-31 32.5t-45 30t-52 27.5t-63.5 30q-16 7 -24 11q-26 10 -90 41q-88 -20 -141 -82.5t-53 -143.5q0 -40 15.5 -70.5t46.5 -54.5t70.5 -45.5t92.5 -47.5q11 -4 16 -7q65 -32 95 -47z" />
    <glyph glyph-name="dieresis" unicode="&#xa8;" horiz-adv-x="954" 
d="M414 1180q-37 0 -60.5 24.5t-23.5 61.5q0 38 24.5 63t61.5 25q38 0 63 -23.5t25 -60.5q0 -38 -26 -64t-64 -26zM725 1180q-37 0 -60.5 24.5t-23.5 61.5q0 38 25 63t63 25q37 0 61.5 -23.5t24.5 -60.5q0 -38 -26 -64t-64 -26z" />
    <glyph glyph-name="copyright" unicode="&#xa9;" horiz-adv-x="1402" 
d="M700 41q-167 0 -306.5 83t-219.5 223t-80 304q0 163 80 303.5t220.5 224t307.5 83.5q166 0 305 -83t218.5 -223.5t79.5 -304.5q0 -122 -47.5 -234.5t-128 -195t-193 -131.5t-236.5 -49zM700 125q143 0 263 71t189 192t69 263t-68.5 263t-188 192.5t-262.5 71.5
q-144 0 -265 -72t-190 -193t-69 -262q0 -143 68.5 -263.5t188.5 -191.5t265 -71zM715 315q-141 0 -234.5 87.5t-93.5 242.5q0 147 87 242.5t241 95.5q155 0 260 -125l-60 -49q-82 98 -200 98q-117 0 -183.5 -72t-66.5 -190t70.5 -186t179.5 -68q125 0 200 98l60 -51
q-97 -123 -260 -123z" />
    <glyph glyph-name="ordfeminine" unicode="&#xaa;" horiz-adv-x="751" 
d="M367 807q-93 0 -151 64t-58 180q0 149 88 255.5t227 106.5q114 0 178 -61h4l7 55h83l-73 -594h-82l16 139h-4q-89 -145 -235 -145zM381 889q87 0 161.5 76.5t88.5 199.5l14 97q-17 31 -63 50t-99 19q-107 0 -173 -80t-66 -198q0 -77 36 -120.5t101 -43.5z" />
    <glyph glyph-name="guillemotleft" unicode="&#xab;" horiz-adv-x="833" 
d="M266 41l-180 461l295 461h102l-290 -461l178 -461h-105zM578 41l-183 461l295 461h105l-291 -461l178 -461h-104z" />
    <glyph glyph-name="logicalnot" unicode="&#xac;" horiz-adv-x="1081" 
d="M831 358l39 320h-714l12 98h813l-49 -418h-101z" />
    <glyph glyph-name="registered" unicode="&#xae;" horiz-adv-x="1402" 
d="M702 1262q166 0 305 -83t218.5 -223.5t79.5 -304.5q0 -122 -47.5 -234.5t-128 -195t-193 -131.5t-236.5 -49q-167 0 -306.5 83t-219.5 223t-80 304q0 163 80 303.5t220.5 224t307.5 83.5zM700 125q143 0 263 71t189 192t69 263t-68.5 263t-188 192.5t-262.5 71.5
q-144 0 -265 -72t-190 -193t-69 -262q0 -143 68.5 -263.5t188.5 -191.5t265 -71zM938 788q0 -165 -160 -194l189 -270h-90l-185 264h-119v-264h-77v663h229q107 0 160 -54.5t53 -144.5zM573 915v-258h134q81 0 117 36.5t36 94.5q0 60 -37.5 93.5t-103.5 33.5h-146z" />
    <glyph glyph-name="macron" unicode="&#xaf;" horiz-adv-x="878" 
d="M270 1214l13 95h514l-13 -95h-514z" />
    <glyph glyph-name="degree" unicode="&#xb0;" horiz-adv-x="765" 
d="M432 920q-105 0 -165 61t-60 162q0 134 83.5 227.5t209.5 93.5q100 0 163.5 -65t63.5 -172q0 -125 -83 -216t-212 -91zM438 1001q87 0 147 64.5t60 157.5q0 72 -41 115.5t-110 43.5q-88 0 -146.5 -66.5t-58.5 -166.5q0 -69 39.5 -108.5t109.5 -39.5z" />
    <glyph glyph-name="plusminus" unicode="&#xb1;" horiz-adv-x="1099" 
d="M481 309l51 424h-378l12 101h381l51 426h100l-51 -426h377l-14 -101h-377l-51 -424h-101zM63 -2l13 100h858l-12 -100h-859z" />
    <glyph glyph-name="uni00B2" unicode="&#xb2;" horiz-adv-x="630" 
d="M102 893l7 68l317 292q76 73 116 132.5t40 130.5q0 64 -35 101.5t-98 37.5q-51 0 -106 -32.5t-87 -90.5l-70 55q42 70 116.5 114t156.5 44q97 0 158 -58.5t61 -158.5q0 -92 -44.5 -167t-131.5 -155l-250 -223l2 -4h369l-13 -86h-508z" />
    <glyph glyph-name="uni00B3" unicode="&#xb3;" horiz-adv-x="634" 
d="M369 885q-101 0 -169 46.5t-91 121.5l90 30q31 -112 168 -112q87 0 139.5 51.5t52.5 134.5q0 58 -41.5 95.5t-118.5 37.5h-69l10 78h78q76 0 125 48.5t49 121.5q0 58 -36.5 88.5t-100.5 30.5q-114 0 -174 -92l-76 49q40 61 105 96t149 35q100 0 162.5 -52t62.5 -143
q0 -76 -37.5 -132.5t-105.5 -84.5v-4q114 -47 114 -178q0 -122 -81 -194t-205 -72z" />
    <glyph glyph-name="acute" unicode="&#xb4;" horiz-adv-x="954" 
d="M412 1116l256 283h127l-265 -283h-118z" />
    <glyph glyph-name="uni00B5" unicode="&#xb5;" horiz-adv-x="1110" 
d="M1016 98l18 -84q-50 -24 -116 -24q-50 0 -83 17t-48.5 48.5t-20.5 68.5t-2 85v10q-59 -111 -148.5 -170t-193.5 -59q-158 0 -207 143h-4q-3 -97 -16 -217l-39 -322h-107l172 1399h107l-74 -600q-10 -81 1 -142.5t39 -95t62.5 -49.5t75.5 -16q130 0 236 111.5t131 312.5
l59 479h107l-91 -733q-12 -89 2.5 -130.5t79.5 -41.5q18 0 60 10z" />
    <glyph glyph-name="paragraph" unicode="&#xb6;" horiz-adv-x="827" 
d="M455 -305l188 1534h-108l-152 -1229h-80l96 784q-104 2 -170.5 59t-66.5 158q0 130 87 221t234 91h248l-199 -1618h-77z" />
    <glyph glyph-name="periodcentered" unicode="&#xb7;" horiz-adv-x="411" 
d="M213 408q-38 0 -62 24.5t-24 61.5t25 62.5t63 25.5q37 0 61.5 -24.5t24.5 -61.5t-25.5 -62.5t-62.5 -25.5z" />
    <glyph glyph-name="cedilla" unicode="&#xb8;" horiz-adv-x="641" 
d="M164 -377q-47 0 -86 8l6 70q31 -10 74 -10q62 0 99.5 27.5t37.5 80.5q0 71 -143 74l8 55l45 84h76l-50 -84l2 -2q144 -10 144 -125q0 -85 -59.5 -131.5t-153.5 -46.5z" />
    <glyph glyph-name="uni00B9" unicode="&#xb9;" horiz-adv-x="475" 
d="M416 1735h76l-105 -842h-94l90 719l-174 -123l-41 74z" />
    <glyph glyph-name="ordmasculine" unicode="&#xba;" horiz-adv-x="718" 
d="M399 807q-110 0 -175.5 66t-65.5 184q0 94 37 174.5t110 131t166 50.5q108 0 174 -63t66 -181q0 -152 -85 -257t-227 -105zM403 889q94 0 157 78t63 196q0 83 -43 126.5t-113 43.5q-93 0 -157 -78.5t-64 -191.5q0 -80 42 -127t115 -47z" />
    <glyph glyph-name="guillemotright" unicode="&#xbb;" horiz-adv-x="833" 
d="M41 41l291 461l-178 461h104l182 -461l-295 -461h-104zM354 41l289 461l-176 461h102l185 -461l-297 -461h-103z" />
    <glyph glyph-name="onequarter" unicode="&#xbc;" horiz-adv-x="1351" 
d="M1014 1477l88 -41l-750 -1461l-86 39zM352 612h-94l90 719l-174 -123l-41 74l248 172h76zM1151 233h119l-10 -83h-119l-19 -150h-92l19 150h-371l8 65l467 627h74zM1067 229l55 449l-327 -449h272z" />
    <glyph glyph-name="onehalf" unicode="&#xbd;" horiz-adv-x="1421" 
d="M1014 1477l88 -41l-750 -1461l-86 39zM352 612h-94l90 719l-174 -123l-41 74l248 172h76zM932 90l2 -4h369l-13 -86h-508l6 68l318 292q76 73 116 132.5t40 130.5q0 64 -35 101.5t-99 37.5q-51 0 -105.5 -32.5t-86.5 -90.5l-70 55q42 70 116.5 114t156.5 44
q97 0 158 -58.5t61 -158.5q0 -92 -44.5 -167t-131.5 -155z" />
    <glyph glyph-name="threequarters" unicode="&#xbe;" horiz-adv-x="1478" 
d="M1141 1477l88 -41l-750 -1461l-86 39zM621 870q0 -122 -81 -194t-206 -72q-101 0 -169 46.5t-91 121.5l90 31q31 -113 168 -113q87 0 139.5 52t52.5 135q0 58 -41.5 95.5t-117.5 37.5h-70l10 77h78q76 0 125 48.5t49 121.5q0 58 -36.5 88.5t-100.5 30.5q-114 0 -174 -92
l-76 49q40 61 105 96t149 35q100 0 162.5 -51.5t62.5 -142.5q0 -76 -37.5 -132.5t-105.5 -84.5v-4q115 -47 115 -179zM1278 233h119l-11 -83h-118l-19 -150h-92l19 150h-371l8 65l467 627h74zM1194 229l55 449l-327 -449h272z" />
    <glyph glyph-name="questiondown" unicode="&#xbf;" horiz-adv-x="768" 
d="M510 1004q38 0 62 -24.5t24 -61.5t-25 -63t-63 -26q-37 0 -61.5 24.5t-24.5 61.5t25.5 63t62.5 26zM537 600l-15 -113q-3 -27 -9.5 -51.5t-22 -51t-24 -42t-35 -46t-34.5 -39.5t-43 -45t-41 -42q-95 -100 -140.5 -180t-45.5 -185q0 -106 57.5 -163.5t153.5 -57.5
q80 0 151.5 40.5t122.5 115.5l72 -72q-69 -93 -167.5 -142.5t-205.5 -49.5q-136 0 -220.5 85.5t-84.5 231.5q0 65 17 124.5t51.5 113.5t69 94.5t85.5 91.5q10 11 38.5 40t39 40t32 35.5t31 38.5t22 35t19 40t9.5 39l18 115h99z" />
    <glyph glyph-name="Agrave" unicode="&#xc0;" horiz-adv-x="1241" 
d="M705 1614l-201 262l127 -2l188 -260h-114zM-2 0l676 1454h123l325 -1454h-118l-84 391h-623l-180 -391h-119zM342 496h557l-178 813h-4z" />
    <glyph glyph-name="Aacute" unicode="&#xc1;" horiz-adv-x="1241" 
d="M715 1614l252 260l125 2l-263 -262h-114zM-2 0l676 1454h123l325 -1454h-118l-84 391h-623l-180 -391h-119zM342 496h557l-178 813h-4z" />
    <glyph glyph-name="Acircumflex" unicode="&#xc2;" horiz-adv-x="1241" 
d="M483 1614l258 241h107l184 -241h-110l-134 170h-6l-186 -170h-113zM-2 0l676 1454h123l325 -1454h-118l-84 391h-623l-180 -391h-119zM342 496h557l-178 813h-4z" />
    <glyph glyph-name="Atilde" unicode="&#xc3;" horiz-adv-x="1241" 
d="M918 1614q-30 0 -62.5 15t-46.5 26t-45 37q-68 53 -105 53q-76 0 -129 -121l-73 35q76 172 194 172q31 0 59 -11t43.5 -22.5t39.5 -32.5q3 -3 18.5 -15.5t20.5 -16t18 -12t20 -12t18 -6.5t21 -3q35 0 69 31.5t58 91.5l72 -31q-34 -86 -85 -132t-105 -46zM-2 0l676 1454
h123l325 -1454h-118l-84 391h-623l-180 -391h-119zM342 496h557l-178 813h-4z" />
    <glyph glyph-name="Adieresis" unicode="&#xc4;" horiz-adv-x="1241" 
d="M618 1659q-36 0 -59.5 24.5t-23.5 61.5q0 38 24.5 63t61.5 25q38 0 63 -23.5t25 -60.5q0 -38 -26.5 -64t-64.5 -26zM930 1659q-37 0 -60.5 24.5t-23.5 61.5q0 38 25 63t63 25q37 0 61.5 -23.5t24.5 -60.5q0 -38 -26 -64t-64 -26zM-2 0l676 1454h123l325 -1454h-118
l-84 391h-623l-180 -391h-119zM342 496h557l-178 813h-4z" />
    <glyph glyph-name="Aring" unicode="&#xc5;" horiz-adv-x="1241" 
d="M772 1595q-72 0 -120 48t-48 120q0 75 49.5 123.5t124.5 48.5q74 0 122 -47t48 -119q0 -75 -50.5 -124.5t-125.5 -49.5zM774 1671q43 0 70.5 27.5t27.5 68.5t-27 68t-67 27q-41 0 -68.5 -28t-27.5 -69t26 -67.5t66 -26.5zM-2 0l676 1454h123l325 -1454h-118l-84 391h-623
l-180 -391h-119zM342 496h557l-178 813h-4z" />
    <glyph glyph-name="AE" unicode="&#xc6;" horiz-adv-x="1724" 
d="M-49 0l903 1454h850l-12 -106h-678l-68 -570h567l-12 -106h-569l-68 -566h713l-12 -106h-826l47 391h-464l-242 -391h-129zM381 494h420l100 835h-2z" />
    <glyph glyph-name="Ccedilla" unicode="&#xc7;" horiz-adv-x="1376" 
d="M881 1356q-134 0 -250.5 -63.5t-195.5 -168t-124 -240.5t-45 -280q0 -233 120 -368.5t327 -135.5q113 0 228 53.5t204 151.5l86 -72q-99 -111 -235 -176.5t-283 -66.5l-37 -62l2 -2q143 -10 143 -125q0 -85 -59.5 -131.5t-153.5 -46.5q-47 0 -86 8l6 70q31 -10 74 -10
q62 0 99.5 27.5t37.5 80.5q0 71 -143 74l8 55l35 66q-224 22 -358 183t-134 425q0 170 55 327t150.5 275.5t234 189t296.5 70.5q308 0 499 -309l-98 -68q-82 143 -178.5 206t-224.5 63z" />
    <glyph glyph-name="Egrave" unicode="&#xc8;" horiz-adv-x="1118" 
d="M772 1618l-201 262l127 -2l189 -260h-115zM131 0l178 1454h787l-13 -106h-673l-70 -570h557l-10 -106h-559l-70 -566h711l-13 -106h-825z" />
    <glyph glyph-name="Eacute" unicode="&#xc9;" horiz-adv-x="1118" 
d="M586 1618l252 260l125 2l-263 -262h-114zM131 0l178 1454h787l-13 -106h-673l-70 -570h557l-10 -106h-559l-70 -566h711l-13 -106h-825z" />
    <glyph glyph-name="Ecircumflex" unicode="&#xca;" horiz-adv-x="1118" 
d="M463 1618l258 242h106l185 -242h-111l-133 170h-6l-187 -170h-112zM131 0l178 1454h787l-13 -106h-673l-70 -570h557l-10 -106h-559l-70 -566h711l-13 -106h-825z" />
    <glyph glyph-name="Edieresis" unicode="&#xcb;" horiz-adv-x="1118" 
d="M598 1663q-37 0 -60.5 24.5t-23.5 61.5q0 38 24.5 63t61.5 25q38 0 63 -23.5t25 -60.5q0 -38 -26 -64t-64 -26zM909 1663q-37 0 -60.5 24.5t-23.5 61.5q0 38 25 63t63 25q37 0 61.5 -23.5t24.5 -60.5q0 -38 -26 -64t-64 -26zM131 0l178 1454h787l-13 -106h-673l-70 -570
h557l-10 -106h-559l-70 -566h711l-13 -106h-825z" />
    <glyph glyph-name="Igrave" unicode="&#xcc;" horiz-adv-x="522" 
d="M342 1614l-201 262l127 -2l189 -260h-115zM143 0l179 1454h114l-178 -1454h-115z" />
    <glyph glyph-name="Iacute" unicode="&#xcd;" horiz-adv-x="522" 
d="M350 1614l252 260l125 2l-262 -262h-115zM143 0l179 1454h114l-178 -1454h-115z" />
    <glyph glyph-name="Icircumflex" unicode="&#xce;" horiz-adv-x="522" 
d="M121 1614l258 241h106l185 -241h-111l-133 170h-6l-187 -170h-112zM143 0l179 1454h114l-178 -1454h-115z" />
    <glyph glyph-name="Idieresis" unicode="&#xcf;" horiz-adv-x="522" 
d="M256 1659q-37 0 -60.5 24.5t-23.5 61.5q0 38 24.5 63t61.5 25q38 0 63 -23.5t25 -60.5q0 -38 -26 -64t-64 -26zM567 1659q-37 0 -60.5 24.5t-23.5 61.5q0 38 25 63t63 25q37 0 61.5 -23.5t24.5 -60.5q0 -38 -26 -64t-64 -26zM143 0l179 1454h114l-178 -1454h-115z" />
    <glyph glyph-name="Eth" unicode="&#xd0;" horiz-adv-x="1374" 
d="M696 1454q282 0 434 -157.5t152 -436.5q0 -251 -95.5 -446.5t-272 -304.5t-406.5 -109h-377l82 676h-152l15 104h151l82 674h387zM514 106q191 0 339.5 97t229 268t80.5 387q0 230 -123 360t-352 130h-276l-70 -568h356l-14 -104h-356l-70 -570h256z" />
    <glyph glyph-name="Ntilde" unicode="&#xd1;" horiz-adv-x="1427" 
d="M1014 1614q-30 0 -62.5 15t-46.5 26t-45 37q-23 18 -36.5 27.5t-32.5 17.5t-35 8q-76 0 -129 -121l-74 35q76 172 195 172q31 0 59 -11t43 -22t39 -33q3 -3 16 -13t17.5 -13.5t15.5 -11.5t17.5 -11.5t16 -8t17.5 -6t17 -1.5q35 0 69 31.5t58 91.5l71 -31
q-34 -86 -85 -132t-105 -46zM131 0l178 1454h111l661 -1257l4 2l154 1255h113l-178 -1454h-115l-656 1247h-6l-151 -1247h-115z" />
    <glyph glyph-name="Ograve" unicode="&#xd2;" horiz-adv-x="1546" 
d="M907 1614l-200 262l127 -2l188 -260h-115zM715 -10q-260 0 -416 161.5t-156 446.5q0 136 34 264.5t99.5 237t155 190.5t207.5 128t250 46q260 0 415.5 -159.5t155.5 -446.5q0 -139 -33 -268.5t-97.5 -238t-153.5 -189.5t-207.5 -126.5t-253.5 -45.5zM721 98q138 0 255 62
t196 166.5t123 242t44 287.5q0 242 -122 372t-338 130q-135 0 -252 -64t-196 -169.5t-124 -242t-45 -282.5q0 -239 123 -370.5t336 -131.5z" />
    <glyph glyph-name="Oacute" unicode="&#xd3;" horiz-adv-x="1546" 
d="M883 1614l252 260l125 2l-263 -262h-114zM715 -10q-260 0 -416 161.5t-156 446.5q0 136 34 264.5t99.5 237t155 190.5t207.5 128t250 46q260 0 415.5 -159.5t155.5 -446.5q0 -139 -33 -268.5t-97.5 -238t-153.5 -189.5t-207.5 -126.5t-253.5 -45.5zM721 98q138 0 255 62
t196 166.5t123 242t44 287.5q0 242 -122 372t-338 130q-135 0 -252 -64t-196 -169.5t-124 -242t-45 -282.5q0 -239 123 -370.5t336 -131.5z" />
    <glyph glyph-name="Ocircumflex" unicode="&#xd4;" horiz-adv-x="1546" 
d="M672 1614l258 241h106l185 -241h-111l-133 170h-6l-187 -170h-112zM715 -10q-260 0 -416 161.5t-156 446.5q0 136 34 264.5t99.5 237t155 190.5t207.5 128t250 46q260 0 415.5 -159.5t155.5 -446.5q0 -139 -33 -268.5t-97.5 -238t-153.5 -189.5t-207.5 -126.5
t-253.5 -45.5zM721 98q138 0 255 62t196 166.5t123 242t44 287.5q0 242 -122 372t-338 130q-135 0 -252 -64t-196 -169.5t-124 -242t-45 -282.5q0 -239 123 -370.5t336 -131.5z" />
    <glyph glyph-name="Otilde" unicode="&#xd5;" horiz-adv-x="1546" 
d="M1106 1614q-30 0 -62.5 15t-46.5 26t-45 37q-23 18 -36.5 27.5t-32.5 17.5t-35 8q-76 0 -129 -121l-74 35q76 172 195 172q31 0 59 -11t43 -22t39 -33q3 -3 16 -13t17.5 -13.5t15.5 -11.5t17.5 -11.5t16 -8t17.5 -6t17 -1.5q35 0 69 31.5t58 91.5l71 -31
q-34 -86 -85 -132t-105 -46zM715 -10q-260 0 -416 161.5t-156 446.5q0 136 34 264.5t99.5 237t155 190.5t207.5 128t250 46q260 0 415.5 -159.5t155.5 -446.5q0 -139 -33 -268.5t-97.5 -238t-153.5 -189.5t-207.5 -126.5t-253.5 -45.5zM721 98q138 0 255 62t196 166.5
t123 242t44 287.5q0 242 -122 372t-338 130q-135 0 -252 -64t-196 -169.5t-124 -242t-45 -282.5q0 -239 123 -370.5t336 -131.5z" />
    <glyph glyph-name="Odieresis" unicode="&#xd6;" horiz-adv-x="1546" 
d="M807 1659q-37 0 -60.5 24.5t-23.5 61.5q0 38 24.5 63t61.5 25q38 0 63 -23.5t25 -60.5q0 -38 -26 -64t-64 -26zM1118 1659q-37 0 -60.5 24.5t-23.5 61.5q0 38 25 63t63 25q37 0 61.5 -23.5t24.5 -60.5q0 -38 -26 -64t-64 -26zM715 -10q-260 0 -416 161.5t-156 446.5
q0 136 34 264.5t99.5 237t155 190.5t207.5 128t250 46q260 0 415.5 -159.5t155.5 -446.5q0 -139 -33 -268.5t-97.5 -238t-153.5 -189.5t-207.5 -126.5t-253.5 -45.5zM721 98q138 0 255 62t196 166.5t123 242t44 287.5q0 242 -122 372t-338 130q-135 0 -252 -64t-196 -169.5
t-124 -242t-45 -282.5q0 -239 123 -370.5t336 -131.5z" />
    <glyph glyph-name="multiply" unicode="&#xd7;" horiz-adv-x="956" 
d="M156 178l-66 68l326 319l-246 320l78 71l244 -319l323 319l66 -69l-324 -322l244 -319l-78 -68l-246 318z" />
    <glyph glyph-name="Oslash" unicode="&#xd8;" horiz-adv-x="1558" 
d="M1505 1417l-153 -168q110 -150 110 -391q0 -139 -33 -268.5t-97.5 -238t-153.5 -189.5t-207.5 -126.5t-253.5 -45.5q-237 0 -387 135l-144 -158l-61 64l143 157q-123 161 -123 410q0 136 34 264.5t99.5 237t155 190.5t207.5 128t250 46q253 0 405 -149l146 162zM264 600
q0 -196 86 -324l867 955q-121 127 -336 127q-135 0 -252 -64t-196 -169.5t-124 -242t-45 -282.5zM1341 856q0 182 -71 303l-862 -950q120 -111 315 -111q138 0 255 62t196 166.5t123 242t44 287.5z" />
    <glyph glyph-name="Ugrave" unicode="&#xd9;" horiz-adv-x="1337" 
d="M768 1608l-201 262l127 -2l189 -260h-115zM604 -10q-125 0 -215.5 44t-139.5 123.5t-67.5 191t0.5 247.5l107 858h114l-106 -860q-29 -229 47.5 -361.5t263.5 -132.5q191 0 308 119t149 363l104 872h115l-106 -872q-72 -592 -574 -592z" />
    <glyph glyph-name="Uacute" unicode="&#xda;" horiz-adv-x="1337" 
d="M723 1614l252 260l125 2l-262 -262h-115zM604 -10q-125 0 -215.5 44t-139.5 123.5t-67.5 191t0.5 247.5l107 858h114l-106 -860q-29 -229 47.5 -361.5t263.5 -132.5q191 0 308 119t149 363l104 872h115l-106 -872q-72 -592 -574 -592z" />
    <glyph glyph-name="Ucircumflex" unicode="&#xdb;" horiz-adv-x="1337" 
d="M532 1614l259 241h106l184 -241h-110l-133 170h-7l-186 -170h-113zM604 -10q-125 0 -215.5 44t-139.5 123.5t-67.5 191t0.5 247.5l107 858h114l-106 -860q-29 -229 47.5 -361.5t263.5 -132.5q191 0 308 119t149 363l104 872h115l-106 -872q-72 -592 -574 -592z" />
    <glyph glyph-name="Udieresis" unicode="&#xdc;" horiz-adv-x="1337" 
d="M668 1659q-37 0 -60.5 24.5t-23.5 61.5q0 38 24.5 63t61.5 25q38 0 63 -23.5t25 -60.5q0 -38 -26 -64t-64 -26zM979 1659q-37 0 -60.5 24.5t-23.5 61.5q0 38 25 63t63 25q37 0 61.5 -23.5t24.5 -60.5q0 -38 -26 -64t-64 -26zM604 -10q-125 0 -215.5 44t-139.5 123.5
t-67.5 191t0.5 247.5l107 858h114l-106 -860q-29 -229 47.5 -361.5t263.5 -132.5q191 0 308 119t149 363l104 872h115l-106 -872q-72 -592 -574 -592z" />
    <glyph glyph-name="Yacute" unicode="&#xdd;" horiz-adv-x="1089" 
d="M606 1614l252 260l125 2l-262 -262h-115zM426 0l80 655l-350 799h125l292 -682h5l462 682h134l-553 -799l-80 -655h-115z" />
    <glyph glyph-name="Thorn" unicode="&#xde;" horiz-adv-x="1183" 
d="M131 0l178 1454h113l-35 -303h365q186 0 279 -92.5t93 -263.5q0 -230 -136 -370t-378 -140h-329l-35 -285h-115zM293 391h332q178 0 279.5 110t101.5 294q0 127 -74 189.5t-199 62.5h-360z" />
    <glyph glyph-name="germandbls" unicode="&#xdf;" horiz-adv-x="1187" 
d="M784 -10q-224 0 -348 149l74 76q51 -62 112 -94.5t160 -32.5q104 0 168 50t64 132q0 69 -47.5 112t-161.5 103l-66.5 38t-57.5 36.5t-50.5 42t-35.5 45t-24.5 54.5t-5.5 63q2 32 14.5 61.5t29 50.5t45 45.5t49 39t56.5 38.5t54 37q68 46 104.5 95.5t36.5 113.5
q0 78 -70 125t-194 47q-45 0 -88 -9t-86 -31.5t-76.5 -56t-58.5 -86.5t-33 -120l-135 -1114h-107l138 1130q10 79 39 144t71.5 109.5t97 75.5t113 45t121.5 14q177 0 277 -73t100 -196q0 -90 -49 -153.5t-142 -126.5q-12 -8 -45.5 -30t-47 -31t-38 -28.5t-35 -33.5t-20 -34
t-10.5 -40q-5 -60 36.5 -99.5t141.5 -94.5q50 -27 73.5 -40.5t61.5 -38.5t56.5 -45t39.5 -48t29 -60t8 -70q0 -136 -95 -211t-243 -75z" />
    <glyph glyph-name="agrave" unicode="&#xe0;" horiz-adv-x="1110" 
d="M641 1147l-197 283h125l187 -283h-115zM434 -10q-108 0 -187 53.5t-117 142.5t-38 201q0 165 61.5 305t179 226t267.5 86q89 0 169 -30t128 -85l6 2l12 102h107l-121 -993h-106l32 270h-4q-71 -129 -171 -204.5t-218 -75.5zM449 88q103 0 194 74.5t149.5 195.5t77.5 263
l21 157q-50 66 -132.5 96.5t-156.5 30.5q-119 0 -212 -74t-141 -192t-48 -254q0 -133 65 -215t183 -82z" />
    <glyph glyph-name="aacute" unicode="&#xe1;" horiz-adv-x="1110" 
d="M573 1147l256 283h127l-264 -283h-119zM434 -10q-108 0 -187 53.5t-117 142.5t-38 201q0 165 61.5 305t179 226t267.5 86q89 0 169 -30t128 -85l6 2l12 102h107l-121 -993h-106l32 270h-4q-71 -129 -171 -204.5t-218 -75.5zM449 88q103 0 194 74.5t149.5 195.5t77.5 263
l21 157q-50 66 -132.5 96.5t-156.5 30.5q-119 0 -212 -74t-141 -192t-48 -254q0 -133 65 -215t183 -82z" />
    <glyph glyph-name="acircumflex" unicode="&#xe2;" horiz-adv-x="1110" 
d="M416 1143l252 287h104l191 -287h-113l-131 213h-2l-187 -213h-114zM434 -10q-108 0 -187 53.5t-117 142.5t-38 201q0 165 61.5 305t179 226t267.5 86q89 0 169 -30t128 -85l6 2l12 102h107l-121 -993h-106l32 270h-4q-71 -129 -171 -204.5t-218 -75.5zM449 88
q103 0 194 74.5t149.5 195.5t77.5 263l21 157q-50 66 -132.5 96.5t-156.5 30.5q-119 0 -212 -74t-141 -192t-48 -254q0 -133 65 -215t183 -82z" />
    <glyph glyph-name="atilde" unicode="&#xe3;" horiz-adv-x="1110" 
d="M842 1171q-31 0 -62.5 14.5t-47.5 27.5t-44 38q-67 52 -102 52q-78 0 -131 -121l-74 35q74 178 197 178q29 0 56.5 -11.5t41.5 -21.5t41 -33q27 -22 39.5 -32t35.5 -21.5t42 -11.5q35 0 69 31.5t58 90.5l71 -30q-34 -90 -85 -137.5t-105 -47.5zM434 -10q-108 0 -187 53.5
t-117 142.5t-38 201q0 165 61.5 305t179 226t267.5 86q89 0 169 -30t128 -85l6 2l12 102h107l-121 -993h-106l32 270h-4q-71 -129 -171 -204.5t-218 -75.5zM449 88q103 0 194 74.5t149.5 195.5t77.5 263l21 157q-50 66 -132.5 96.5t-156.5 30.5q-119 0 -212 -74t-141 -192
t-48 -254q0 -133 65 -215t183 -82z" />
    <glyph glyph-name="adieresis" unicode="&#xe4;" horiz-adv-x="1110" 
d="M549 1210q-37 0 -60.5 24.5t-23.5 61.5q0 38 24.5 63t61.5 25q38 0 63 -23.5t25 -60.5q0 -38 -26 -64t-64 -26zM860 1210q-37 0 -60.5 24.5t-23.5 61.5q0 38 25 63t63 25q37 0 61.5 -23.5t24.5 -60.5q0 -38 -26 -64t-64 -26zM434 -10q-108 0 -187 53.5t-117 142.5
t-38 201q0 165 61.5 305t179 226t267.5 86q89 0 169 -30t128 -85l6 2l12 102h107l-121 -993h-106l32 270h-4q-71 -129 -171 -204.5t-218 -75.5zM449 88q103 0 194 74.5t149.5 195.5t77.5 263l21 157q-50 66 -132.5 96.5t-156.5 30.5q-119 0 -212 -74t-141 -192t-48 -254
q0 -133 65 -215t183 -82z" />
    <glyph glyph-name="aring" unicode="&#xe5;" horiz-adv-x="1110" 
d="M700 1133q-72 0 -120 47.5t-48 119.5q0 75 50 124t125 49q74 0 122 -47t48 -119q0 -75 -51 -124.5t-126 -49.5zM702 1208q43 0 71 28t28 69t-27 67.5t-67 26.5q-41 0 -69 -27.5t-28 -68.5t26 -68t66 -27zM434 -10q-108 0 -187 53.5t-117 142.5t-38 201q0 165 61.5 305
t179 226t267.5 86q89 0 169 -30t128 -85l6 2l12 102h107l-121 -993h-106l32 270h-4q-71 -129 -171 -204.5t-218 -75.5zM449 88q103 0 194 74.5t149.5 195.5t77.5 263l21 157q-50 66 -132.5 96.5t-156.5 30.5q-119 0 -212 -74t-141 -192t-48 -254q0 -133 65 -215t183 -82z
" />
    <glyph glyph-name="ae" unicode="&#xe6;" horiz-adv-x="1411" 
d="M995 92q64 0 134 35.5t124 103.5l84 -61q-66 -83 -157.5 -130.5t-186.5 -47.5q-147 0 -238.5 73t-117.5 207q-48 -130 -131.5 -206t-183.5 -76q-121 0 -195.5 100.5t-73.5 265.5q1 95 24 188t69.5 174t109.5 143t149.5 98t184.5 36q156 0 258 -75q117 84 274 84
q121 0 194 -62.5t73 -165.5q0 -85 -54 -155t-148.5 -117.5t-214.5 -77t-259 -39.5q3 -140 78 -217.5t204 -77.5zM1282 774q0 67 -49.5 98t-118.5 31q-160 0 -268 -119.5t-129 -308.5q157 13 282 50t204 102t79 147zM332 86q63 0 120.5 55.5t95 133t62.5 171.5
q22 256 162 408q-71 41 -176 41q-83 0 -155 -32.5t-122 -87.5t-86.5 -126.5t-53.5 -149t-17 -155.5q0 -119 48.5 -188.5t121.5 -69.5z" />
    <glyph glyph-name="ccedilla" unicode="&#xe7;" horiz-adv-x="985" 
d="M479 92q191 0 307 139l84 -61q-138 -169 -368 -178l-37 -64l2 -2q143 -10 143 -125q0 -85 -59.5 -131.5t-153.5 -46.5q-47 0 -86 8l6 70q31 -10 74 -10q62 0 99.5 27.5t37.5 80.5q0 71 -143 74l8 55l35 66q-148 14 -242 120t-94 285q0 164 62 301t182.5 220.5t277.5 83.5
q103 0 191.5 -40.5t142.5 -119.5l-86 -66q-41 64 -107 95.5t-143 31.5q-123 0 -218 -68.5t-144 -181t-49 -247.5q0 -144 79 -230t199 -86z" />
    <glyph glyph-name="egrave" unicode="&#xe8;" horiz-adv-x="954" 
d="M723 1147h-115l-196 283h125zM483 92q163 0 287 139l82 -61q-76 -89 -165 -133.5t-206 -44.5q-175 0 -282 110.5t-107 300.5q0 163 63 299.5t182 219t269 82.5q48 0 96.5 -13t95 -40t76 -77.5t29.5 -117.5q0 -55 -23.5 -102t-62.5 -82t-95.5 -63.5t-117 -48t-133 -34
t-137 -23t-135.5 -14.5q4 -140 82.5 -218.5t201.5 -78.5zM604 905q-152 0 -265.5 -118.5t-135.5 -307.5q108 9 201 25t187 46t149 81t55 119q0 44 -18.5 76.5t-49 48.5t-61 23t-62.5 7z" />
    <glyph glyph-name="eacute" unicode="&#xe9;" horiz-adv-x="954" 
d="M942 1430l-264 -283h-119l256 283h127zM903 756q0 -55 -23.5 -102t-62.5 -82t-95.5 -63.5t-117 -48t-133 -34t-137 -23t-135.5 -14.5q4 -140 82.5 -218.5t201.5 -78.5q163 0 287 139l82 -61q-76 -89 -165 -133.5t-206 -44.5q-175 0 -282 110.5t-107 300.5q0 163 63 299.5
t182 219t269 82.5q48 0 96.5 -13t95 -40t76 -77.5t29.5 -117.5zM203 479q108 9 201 25t187 46t149 81t55 119q0 44 -18.5 76.5t-49 48.5t-61 23t-62.5 7q-152 0 -265.5 -118.5t-135.5 -307.5z" />
    <glyph glyph-name="ecircumflex" unicode="&#xea;" horiz-adv-x="954" 
d="M629 1356l-187 -213h-114l252 287h104l190 -287h-112l-131 213h-2zM483 92q163 0 287 139l82 -61q-76 -89 -165 -133.5t-206 -44.5q-175 0 -282 110.5t-107 300.5q0 163 63 299.5t182 219t269 82.5q48 0 96.5 -13t95 -40t76 -77.5t29.5 -117.5q0 -55 -23.5 -102
t-62.5 -82t-95.5 -63.5t-117 -48t-133 -34t-137 -23t-135.5 -14.5q4 -140 82.5 -218.5t201.5 -78.5zM604 905q-152 0 -265.5 -118.5t-135.5 -307.5q108 9 201 25t187 46t149 81t55 119q0 44 -18.5 76.5t-49 48.5t-61 23t-62.5 7z" />
    <glyph glyph-name="edieresis" unicode="&#xeb;" horiz-adv-x="954" 
d="M461 1210q-37 0 -60.5 24.5t-23.5 61.5q0 38 24.5 63t61.5 25q38 0 63 -23.5t25 -60.5q0 -38 -26 -64t-64 -26zM772 1210q-37 0 -60.5 24.5t-23.5 61.5q0 38 25 63t63 25q37 0 61.5 -23.5t24.5 -60.5q0 -38 -26 -64t-64 -26zM483 92q163 0 287 139l82 -61
q-76 -89 -165 -133.5t-206 -44.5q-175 0 -282 110.5t-107 300.5q0 163 63 299.5t182 219t269 82.5q48 0 96.5 -13t95 -40t76 -77.5t29.5 -117.5q0 -55 -23.5 -102t-62.5 -82t-95.5 -63.5t-117 -48t-133 -34t-137 -23t-135.5 -14.5q4 -140 82.5 -218.5t201.5 -78.5zM604 905
q-152 0 -265.5 -118.5t-135.5 -307.5q108 9 201 25t187 46t149 81t55 119q0 44 -18.5 76.5t-49 48.5t-61 23t-62.5 7z" />
    <glyph glyph-name="igrave" unicode="&#xec;" horiz-adv-x="458" 
d="M244 1153l-131 283h123l122 -283h-114zM115 0l121 993h106l-123 -993h-104z" />
    <glyph glyph-name="iacute" unicode="&#xed;" horiz-adv-x="456" 
d="M266 1147l256 283h127l-264 -283h-119zM115 0l121 993h106l-123 -993h-104z" />
    <glyph glyph-name="icircumflex" unicode="&#xee;" horiz-adv-x="456" 
d="M37 1143l252 287h104l191 -287h-113l-131 213h-2l-186 -213h-115zM115 0l121 993h106l-123 -993h-104z" />
    <glyph glyph-name="idieresis" unicode="&#xef;" horiz-adv-x="456" 
d="M172 1210q-35 0 -58.5 24.5t-23.5 61.5q0 38 24.5 63t61.5 25q36 0 60 -24t24 -60q0 -38 -25.5 -64t-62.5 -26zM477 1210q-35 0 -59.5 24.5t-24.5 61.5q0 38 25.5 63t62.5 25q34 0 58 -24t24 -60q0 -38 -25 -64t-61 -26zM115 0l121 993h106l-123 -993h-104z" />
    <glyph glyph-name="eth" unicode="&#xf0;" horiz-adv-x="1105" 
d="M907 1116q115 -207 115 -471q-1 -133 -36 -250.5t-99.5 -207.5t-165.5 -142.5t-225 -52.5q-184 0 -295 110t-111 299q0 159 65 293t183 214.5t264 80.5q79 0 155 -27.5t134 -82.5q-24 103 -72 192q-53 95 -123 168l-133 -145l-59 53l133 147q-109 92 -223 140l45 79
q133 -52 246 -145l153 170l64 -55l-158 -170q86 -89 143 -197zM496 92q82 0 151 31t118 84.5t83 126t50 155.5t15 173q0 34 -4 96q-58 71 -137 101t-151 30q-184 0 -303 -138.5t-119 -340.5q0 -149 81.5 -233.5t215.5 -84.5z" />
    <glyph glyph-name="ntilde" unicode="&#xf1;" horiz-adv-x="1105" 
d="M821 1171q-30 0 -62 15t-47 27t-44 38q-67 52 -103 52q-78 0 -131 -121l-74 35q74 178 197 178q29 0 56.5 -11.5t41.5 -21.5t41 -33q27 -22 39.5 -32t35.5 -21.5t42 -11.5q35 0 69 31.5t58 90.5l72 -30q-34 -90 -85.5 -137.5t-105.5 -47.5zM104 0l125 993h107l-35 -270h4
q75 129 188.5 205t233.5 76q149 0 212 -98t36 -308l-80 -598h-107l78 592q10 89 4.5 149t-30 96t-58.5 51t-82 15q-90 0 -184.5 -63.5t-165.5 -178.5t-88 -249l-49 -412h-109z" />
    <glyph glyph-name="ograve" unicode="&#xf2;" horiz-adv-x="1103" 
d="M623 1147l-197 283h125l186 -283h-114zM496 -10q-184 0 -295 110.5t-111 305.5q0 119 37 227t103 190.5t165.5 131.5t216.5 49q184 0 293 -106.5t109 -299.5q0 -170 -60.5 -307t-179.5 -219t-278 -82zM498 90q180 0 293.5 140.5t113.5 361.5q0 154 -82 233.5t-217 79.5
q-177 0 -292 -142.5t-115 -348.5q0 -149 81 -236.5t218 -87.5z" />
    <glyph glyph-name="oacute" unicode="&#xf3;" horiz-adv-x="1103" 
d="M592 1147l256 283h127l-264 -283h-119zM496 -10q-184 0 -295 110.5t-111 305.5q0 119 37 227t103 190.5t165.5 131.5t216.5 49q184 0 293 -106.5t109 -299.5q0 -170 -60.5 -307t-179.5 -219t-278 -82zM498 90q180 0 293.5 140.5t113.5 361.5q0 154 -82 233.5t-217 79.5
q-177 0 -292 -142.5t-115 -348.5q0 -149 81 -236.5t218 -87.5z" />
    <glyph glyph-name="ocircumflex" unicode="&#xf4;" horiz-adv-x="1103" 
d="M375 1143l252 287h104l191 -287h-113l-131 213h-2l-187 -213h-114zM496 -10q-184 0 -295 110.5t-111 305.5q0 119 37 227t103 190.5t165.5 131.5t216.5 49q184 0 293 -106.5t109 -299.5q0 -170 -60.5 -307t-179.5 -219t-278 -82zM498 90q180 0 293.5 140.5t113.5 361.5
q0 154 -82 233.5t-217 79.5q-177 0 -292 -142.5t-115 -348.5q0 -149 81 -236.5t218 -87.5z" />
    <glyph glyph-name="otilde" unicode="&#xf5;" horiz-adv-x="1103" 
d="M801 1171q-31 0 -62.5 14.5t-47.5 27.5t-44 38q-67 52 -102 52q-78 0 -131 -121l-74 35q74 178 197 178q29 0 56.5 -11.5t41.5 -21.5t41 -33q27 -22 39.5 -32t35.5 -21.5t42 -11.5q35 0 69 31.5t58 90.5l71 -30q-34 -90 -85 -137.5t-105 -47.5zM496 -10
q-184 0 -295 110.5t-111 305.5q0 119 37 227t103 190.5t165.5 131.5t216.5 49q184 0 293 -106.5t109 -299.5q0 -170 -60.5 -307t-179.5 -219t-278 -82zM498 90q180 0 293.5 140.5t113.5 361.5q0 154 -82 233.5t-217 79.5q-177 0 -292 -142.5t-115 -348.5q0 -149 81 -236.5
t218 -87.5z" />
    <glyph glyph-name="odieresis" unicode="&#xf6;" horiz-adv-x="1103" 
d="M508 1210q-37 0 -60.5 24.5t-23.5 61.5q0 38 24.5 63t61.5 25q38 0 63 -23.5t25 -60.5q0 -38 -26 -64t-64 -26zM819 1210q-37 0 -60.5 24.5t-23.5 61.5q0 38 25 63t63 25q37 0 61.5 -23.5t24.5 -60.5q0 -38 -26 -64t-64 -26zM496 -10q-184 0 -295 110.5t-111 305.5
q0 119 37 227t103 190.5t165.5 131.5t216.5 49q184 0 293 -106.5t109 -299.5q0 -170 -60.5 -307t-179.5 -219t-278 -82zM498 90q180 0 293.5 140.5t113.5 361.5q0 154 -82 233.5t-217 79.5q-177 0 -292 -142.5t-115 -348.5q0 -149 81 -236.5t218 -87.5z" />
    <glyph glyph-name="divide" unicode="&#xf7;" horiz-adv-x="1116" 
d="M635 872q-36 0 -59 24.5t-23 61.5q0 38 24.5 63.5t61.5 25.5t61.5 -23.5t24.5 -60.5q0 -39 -25.5 -65t-64.5 -26zM158 516l12 100h858l-12 -100h-858zM547 76q-36 0 -59 24.5t-23 61.5q0 38 24.5 63t61.5 25t61.5 -23.5t24.5 -60.5q0 -39 -25.5 -64.5t-64.5 -25.5z" />
    <glyph glyph-name="oslash" unicode="&#xf8;" horiz-adv-x="1110" 
d="M1065 965l-115 -119q66 -101 66 -248q0 -170 -60.5 -307t-179.5 -219t-278 -82q-174 0 -283 98l-117 -119l-57 51l123 127q-72 109 -72 259q0 119 37 227t103 190.5t165.5 131.5t216.5 49q178 0 283 -99l111 115zM201 414q0 -109 43 -185l579 598q-78 78 -215 78
q-177 0 -292 -142.5t-115 -348.5zM907 592q0 100 -37 172l-579 -596q81 -78 209 -78q180 0 293.5 140.5t113.5 361.5z" />
    <glyph glyph-name="ugrave" unicode="&#xf9;" horiz-adv-x="1073" 
d="M580 1147l-197 283h125l186 -283h-114zM395 -10q-157 0 -225 96.5t-39 304.5l82 602h106l-79 -594q-10 -92 -5 -152t33 -95t64 -48.5t88 -13.5q82 0 167.5 61t150.5 168t83 230l53 444h107l-121 -993h-108l34 266h-4q-68 -126 -170 -201t-217 -75z" />
    <glyph glyph-name="uacute" unicode="&#xfa;" horiz-adv-x="1073" 
d="M539 1147l256 283h127l-265 -283h-118zM395 -10q-157 0 -225 96.5t-39 304.5l82 602h106l-79 -594q-10 -92 -5 -152t33 -95t64 -48.5t88 -13.5q82 0 167.5 61t150.5 168t83 230l53 444h107l-121 -993h-108l34 266h-4q-68 -126 -170 -201t-217 -75z" />
    <glyph glyph-name="ucircumflex" unicode="&#xfb;" horiz-adv-x="1073" 
d="M336 1143l252 287h104l191 -287h-113l-131 213h-2l-186 -213h-115zM395 -10q-157 0 -225 96.5t-39 304.5l82 602h106l-79 -594q-10 -92 -5 -152t33 -95t64 -48.5t88 -13.5q82 0 167.5 61t150.5 168t83 230l53 444h107l-121 -993h-108l34 266h-4q-68 -126 -170 -201
t-217 -75z" />
    <glyph glyph-name="udieresis" unicode="&#xfc;" horiz-adv-x="1073" 
d="M469 1210q-37 0 -60.5 24.5t-23.5 61.5q0 38 24.5 63t61.5 25q38 0 63 -23.5t25 -60.5q0 -38 -26 -64t-64 -26zM780 1210q-37 0 -60.5 24.5t-23.5 61.5q0 38 25 63t63 25q37 0 61.5 -23.5t24.5 -60.5q0 -38 -26 -64t-64 -26zM395 -10q-157 0 -225 96.5t-39 304.5l82 602
h106l-79 -594q-10 -92 -5 -152t33 -95t64 -48.5t88 -13.5q82 0 167.5 61t150.5 168t83 230l53 444h107l-121 -993h-108l34 266h-4q-68 -126 -170 -201t-217 -75z" />
    <glyph glyph-name="yacute" unicode="&#xfd;" horiz-adv-x="1067" 
d="M928 1430l-264 -283h-119l256 283h127zM872 993h107l-107 -862q-15 -130 -51 -227.5t-82.5 -157t-109 -96.5t-125 -50.5t-137.5 -13.5q-171 0 -318 82l35 99q140 -82 285 -82q60 0 109 10.5t98.5 41t85.5 79.5t64.5 131t41.5 192l14 127l-4 2q-66 -127 -169.5 -202.5
t-219.5 -75.5q-319 0 -264 401l82 602h106l-80 -594q-12 -73 -6.5 -126.5t18.5 -88t40 -55.5t57.5 -29.5t71.5 -9.5q86 0 174 63.5t152 175t79 238.5z" />
    <glyph glyph-name="thorn" unicode="&#xfe;" horiz-adv-x="1132" 
d="M55 -406l236 1913h106l-98 -784l6 -2q68 131 169.5 207t232.5 76q158 0 246.5 -113t88.5 -285q0 -165 -61.5 -304.5t-180 -225.5t-270.5 -86q-89 0 -170 29t-131 83l-4 -2l-63 -506h-107zM514 90q94 0 174 41.5t133 112t83 163t30 193.5q0 135 -64 220t-184 85
q-106 0 -199 -73t-152 -191.5t-77 -257.5l-20 -166q42 -67 121.5 -97t154.5 -30z" />
    <glyph glyph-name="ydieresis" unicode="&#xff;" horiz-adv-x="1067" 
d="M467 1210q-37 0 -60.5 24.5t-23.5 61.5q0 38 24.5 63t61.5 25q38 0 63 -23.5t25 -60.5q0 -38 -26 -64t-64 -26zM778 1210q-37 0 -60.5 24.5t-23.5 61.5q0 38 25 63t63 25q37 0 61.5 -23.5t24.5 -60.5q0 -38 -26 -64t-64 -26zM872 993h107l-107 -862q-15 -130 -51 -227.5
t-82.5 -157t-109 -96.5t-125 -50.5t-137.5 -13.5q-171 0 -318 82l35 99q140 -82 285 -82q60 0 109 10.5t98.5 41t85.5 79.5t64.5 131t41.5 192l14 127l-4 2q-66 -127 -169.5 -202.5t-219.5 -75.5q-319 0 -264 401l82 602h106l-80 -594q-12 -73 -6.5 -126.5t18.5 -88
t40 -55.5t57.5 -29.5t71.5 -9.5q86 0 174 63.5t152 175t79 238.5z" />
    <glyph glyph-name="Amacron" unicode="&#x100;" horiz-adv-x="1241" 
d="M518 1683l12 93h514l-12 -93h-514zM-2 0l676 1454h123l325 -1454h-118l-84 391h-623l-180 -391h-119zM342 496h557l-178 813h-4z" />
    <glyph glyph-name="amacron" unicode="&#x101;" horiz-adv-x="1110" 
d="M444 1245l13 94h514l-13 -94h-514zM434 -10q-108 0 -187 53.5t-117 142.5t-38 201q0 165 61.5 305t179 226t267.5 86q89 0 169 -30t128 -85l6 2l12 102h107l-121 -993h-106l32 270h-4q-71 -129 -171 -204.5t-218 -75.5zM449 88q103 0 194 74.5t149.5 195.5t77.5 263
l21 157q-50 66 -132.5 96.5t-156.5 30.5q-119 0 -212 -74t-141 -192t-48 -254q0 -133 65 -215t183 -82z" />
    <glyph glyph-name="Abreve" unicode="&#x102;" horiz-adv-x="1241" 
d="M760 1604q-113 0 -168.5 67.5t-46.5 186.5l88 -3q-7 -69 24.5 -115t104.5 -46q77 0 129 48.5t67 115.5l89 -3q-23 -113 -102.5 -182t-184.5 -69zM-2 0l676 1454h123l325 -1454h-118l-84 391h-623l-180 -391h-119zM342 496h557l-178 813h-4z" />
    <glyph glyph-name="abreve" unicode="&#x103;" horiz-adv-x="1110" 
d="M684 1141q-113 0 -168.5 71t-46.5 203h88q-14 -184 131 -184q77 0 130 52t65 132h88q-23 -128 -101 -201t-186 -73zM434 -10q-108 0 -187 53.5t-117 142.5t-38 201q0 165 61.5 305t179 226t267.5 86q89 0 169 -30t128 -85l6 2l12 102h107l-121 -993h-106l32 270h-4
q-71 -129 -171 -204.5t-218 -75.5zM449 88q103 0 194 74.5t149.5 195.5t77.5 263l21 157q-50 66 -132.5 96.5t-156.5 30.5q-119 0 -212 -74t-141 -192t-48 -254q0 -133 65 -215t183 -82z" />
    <glyph glyph-name="Aogonek" unicode="&#x104;" horiz-adv-x="1241" 
d="M1122 -272l4 -78q-55 -25 -125 -25q-78 0 -119 38t-38 108q6 121 157 237l-81 383h-623l-180 -391h-119l676 1454h123l325 -1454h-6q-83 -46 -130 -101.5t-48 -111.5q-2 -36 19 -59t65 -23q52 0 100 23zM342 496h557l-178 813h-4z" />
    <glyph glyph-name="aogonek" unicode="&#x105;" horiz-adv-x="1110" 
d="M803 -295q52 0 100 23l4 -78q-55 -25 -125 -25q-78 0 -119 38t-38 108q3 64 50.5 129t121.5 118l30 252h-4q-71 -129 -171 -204.5t-218 -75.5q-108 0 -187 53.5t-117 142.5t-38 201q0 165 61.5 305t179 226t267.5 86q89 0 169 -30t128 -85l6 2l12 102h107l-121 -993h-4
q-83 -46 -130 -101.5t-48 -111.5q-2 -36 19 -59t65 -23zM449 88q103 0 194 74.5t149.5 195.5t77.5 263l21 157q-50 66 -132.5 96.5t-156.5 30.5q-119 0 -212 -74t-141 -192t-48 -254q0 -133 65 -215t183 -82z" />
    <glyph glyph-name="Cacute" unicode="&#x106;" horiz-adv-x="1376" 
d="M860 1614l252 260l125 2l-262 -262h-115zM709 -10q-253 0 -407.5 163t-154.5 449q0 170 55 327t150.5 275.5t234 189t296.5 70.5q308 0 499 -309l-98 -68q-82 143 -178.5 206t-224.5 63q-134 0 -250.5 -63.5t-195.5 -168t-124 -240.5t-45 -280q0 -233 120 -368.5
t327 -135.5q113 0 228 53.5t204 151.5l86 -72q-99 -111 -237 -177t-285 -66z" />
    <glyph glyph-name="cacute" unicode="&#x107;" horiz-adv-x="985" 
d="M580 1147l256 283h127l-265 -283h-118zM473 -8q-164 0 -272.5 107.5t-108.5 299.5q0 164 62 301t182.5 220.5t277.5 83.5q103 0 191.5 -40.5t142.5 -119.5l-86 -66q-41 64 -107 95.5t-143 31.5q-123 0 -218 -68.5t-144 -181t-49 -247.5q0 -144 79 -230t199 -86
q191 0 307 139l84 -61q-147 -178 -397 -178z" />
    <glyph glyph-name="Ccircumflex" unicode="&#x108;" horiz-adv-x="1376" 
d="M670 1614l258 241h106l185 -241h-111l-133 170h-6l-187 -170h-112zM709 -10q-253 0 -407.5 163t-154.5 449q0 170 55 327t150.5 275.5t234 189t296.5 70.5q308 0 499 -309l-98 -68q-82 143 -178.5 206t-224.5 63q-134 0 -250.5 -63.5t-195.5 -168t-124 -240.5t-45 -280
q0 -233 120 -368.5t327 -135.5q113 0 228 53.5t204 151.5l86 -72q-99 -111 -237 -177t-285 -66z" />
    <glyph glyph-name="ccircumflex" unicode="&#x109;" horiz-adv-x="985" 
d="M377 1143l252 287h104l191 -287h-113l-131 213h-2l-186 -213h-115zM473 -8q-164 0 -272.5 107.5t-108.5 299.5q0 164 62 301t182.5 220.5t277.5 83.5q103 0 191.5 -40.5t142.5 -119.5l-86 -66q-41 64 -107 95.5t-143 31.5q-123 0 -218 -68.5t-144 -181t-49 -247.5
q0 -144 79 -230t199 -86q191 0 307 139l84 -61q-147 -178 -397 -178z" />
    <glyph glyph-name="Cdotaccent" unicode="&#x10a;" horiz-adv-x="1376" 
d="M961 1659q-36 0 -59 24.5t-23 61.5q0 38 24.5 63t61.5 25t61.5 -23.5t24.5 -60.5q0 -39 -25.5 -64.5t-64.5 -25.5zM709 -10q-253 0 -407.5 163t-154.5 449q0 170 55 327t150.5 275.5t234 189t296.5 70.5q308 0 499 -309l-98 -68q-82 143 -178.5 206t-224.5 63
q-134 0 -250.5 -63.5t-195.5 -168t-124 -240.5t-45 -280q0 -233 120 -368.5t327 -135.5q113 0 228 53.5t204 151.5l86 -72q-99 -111 -237 -177t-285 -66z" />
    <glyph glyph-name="cdotaccent" unicode="&#x10b;" horiz-adv-x="985" 
d="M668 1210q-36 0 -59 24.5t-23 61.5q0 38 24.5 63t61.5 25t61.5 -23.5t24.5 -60.5q0 -39 -25.5 -64.5t-64.5 -25.5zM473 -8q-164 0 -272.5 107.5t-108.5 299.5q0 164 62 301t182.5 220.5t277.5 83.5q103 0 191.5 -40.5t142.5 -119.5l-86 -66q-41 64 -107 95.5t-143 31.5
q-123 0 -218 -68.5t-144 -181t-49 -247.5q0 -144 79 -230t199 -86q191 0 307 139l84 -61q-147 -178 -397 -178z" />
    <glyph glyph-name="Ccaron" unicode="&#x10c;" horiz-adv-x="1376" 
d="M893 1614l-186 241h110l135 -169h4l187 169h112l-258 -241h-104zM709 -10q-253 0 -407.5 163t-154.5 449q0 170 55 327t150.5 275.5t234 189t296.5 70.5q308 0 499 -309l-98 -68q-82 143 -178.5 206t-224.5 63q-134 0 -250.5 -63.5t-195.5 -168t-124 -240.5t-45 -280
q0 -233 120 -368.5t327 -135.5q113 0 228 53.5t204 151.5l86 -72q-99 -111 -237 -177t-285 -66z" />
    <glyph glyph-name="ccaron" unicode="&#x10d;" horiz-adv-x="985" 
d="M592 1145l-180 274h106l133 -200h4l189 200h110l-258 -274h-104zM473 -8q-164 0 -272.5 107.5t-108.5 299.5q0 164 62 301t182.5 220.5t277.5 83.5q103 0 191.5 -40.5t142.5 -119.5l-86 -66q-41 64 -107 95.5t-143 31.5q-123 0 -218 -68.5t-144 -181t-49 -247.5
q0 -144 79 -230t199 -86q191 0 307 139l84 -61q-147 -178 -397 -178z" />
    <glyph glyph-name="Dcaron" unicode="&#x10e;" horiz-adv-x="1374" 
d="M768 1614l-186 241h110l135 -169h4l187 169h112l-258 -241h-104zM131 0l178 1454h387q282 0 434 -157.5t152 -436.5q0 -251 -95.5 -446.5t-272 -304.5t-406.5 -109h-377zM258 106h256q191 0 339.5 97t229 268t80.5 387q0 230 -123 360t-352 130h-276z" />
    <glyph glyph-name="dcaron" unicode="&#x10f;" horiz-adv-x="1212" 
d="M1194 1212l92 353h115l-123 -353h-84zM436 -10q-163 0 -253.5 112t-90.5 285q0 165 62 305t179.5 226t266.5 86q90 0 171.5 -29.5t133.5 -87.5l4 2l76 618h107l-185 -1507h-108l35 272l-5 2q-69 -131 -170 -207.5t-223 -76.5zM451 88q105 0 197.5 74t151 194.5
t77.5 261.5l18 160q-33 47 -88.5 77t-105 40t-97.5 10q-119 0 -212 -74t-141 -192t-48 -254q0 -133 65 -215t183 -82z" />
    <glyph glyph-name="Dcroat" unicode="&#x110;" horiz-adv-x="1374" 
d="M696 1454q282 0 434 -157.5t152 -436.5q0 -251 -95.5 -446.5t-272 -304.5t-406.5 -109h-377l82 676h-152l15 104h151l82 674h387zM514 106q191 0 339.5 97t229 268t80.5 387q0 230 -123 360t-352 130h-276l-70 -568h356l-14 -104h-356l-70 -570h256z" />
    <glyph glyph-name="dcroat" unicode="&#x111;" horiz-adv-x="1110" 
d="M1178 1268l-11 -82h-114l-146 -1186h-108l35 272l-5 2q-69 -131 -170 -207.5t-223 -76.5q-163 0 -253.5 112t-90.5 285q0 165 62 305t179.5 226t266.5 86q90 0 171.5 -29.5t133.5 -87.5l4 2l37 297h-414l11 82h413l29 239h107l-29 -239h115zM877 618l18 160
q-33 47 -88.5 77t-105 40t-97.5 10q-119 0 -212 -74t-141 -192t-48 -254q0 -133 65 -215t183 -82q105 0 197.5 74t151 194.5t77.5 261.5z" />
    <glyph glyph-name="Emacron" unicode="&#x112;" horiz-adv-x="1118" 
d="M498 1688l12 92h514l-12 -92h-514zM131 0l178 1454h787l-13 -106h-673l-70 -570h557l-10 -106h-559l-70 -566h711l-13 -106h-825z" />
    <glyph glyph-name="emacron" unicode="&#x113;" horiz-adv-x="954" 
d="M883 1339l-13 -94h-514l13 94h514zM483 92q163 0 287 139l82 -61q-76 -89 -165 -133.5t-206 -44.5q-175 0 -282 110.5t-107 300.5q0 163 63 299.5t182 219t269 82.5q48 0 96.5 -13t95 -40t76 -77.5t29.5 -117.5q0 -55 -23.5 -102t-62.5 -82t-95.5 -63.5t-117 -48
t-133 -34t-137 -23t-135.5 -14.5q4 -140 82.5 -218.5t201.5 -78.5zM604 905q-152 0 -265.5 -118.5t-135.5 -307.5q108 9 201 25t187 46t149 81t55 119q0 44 -18.5 76.5t-49 48.5t-61 23t-62.5 7z" />
    <glyph glyph-name="Ebreve" unicode="&#x114;" horiz-adv-x="1118" 
d="M739 1608q-113 0 -168.5 67.5t-46.5 186.5l88 -2q-7 -69 24.5 -115.5t104.5 -46.5q77 0 129.5 48.5t67.5 115.5l88 -2q-23 -113 -102.5 -182.5t-184.5 -69.5zM131 0l178 1454h787l-13 -106h-673l-70 -570h557l-10 -106h-559l-70 -566h711l-13 -106h-825z" />
    <glyph glyph-name="ebreve" unicode="&#x115;" horiz-adv-x="954" 
d="M596 1141q-113 0 -168.5 71t-46.5 203h88q-14 -184 131 -184q77 0 130 52t65 132h88q-23 -128 -101 -201t-186 -73zM483 92q163 0 287 139l82 -61q-76 -89 -165 -133.5t-206 -44.5q-175 0 -282 110.5t-107 300.5q0 163 63 299.5t182 219t269 82.5q48 0 96.5 -13t95 -40
t76 -77.5t29.5 -117.5q0 -55 -23.5 -102t-62.5 -82t-95.5 -63.5t-117 -48t-133 -34t-137 -23t-135.5 -14.5q4 -140 82.5 -218.5t201.5 -78.5zM604 905q-152 0 -265.5 -118.5t-135.5 -307.5q108 9 201 25t187 46t149 81t55 119q0 44 -18.5 76.5t-49 48.5t-61 23t-62.5 7z" />
    <glyph glyph-name="Edotaccent" unicode="&#x116;" horiz-adv-x="1118" 
d="M754 1663q-36 0 -59 24.5t-23 61.5q0 38 24.5 63t61.5 25t61.5 -23.5t24.5 -60.5q0 -39 -25.5 -64.5t-64.5 -25.5zM131 0l178 1454h787l-13 -106h-673l-70 -570h557l-10 -106h-559l-70 -566h711l-13 -106h-825z" />
    <glyph glyph-name="edotaccent" unicode="&#x117;" horiz-adv-x="954" 
d="M618 1210q-36 0 -58.5 24.5t-22.5 61.5q0 38 24.5 63t61.5 25t61.5 -23.5t24.5 -60.5q0 -38 -25.5 -64t-65.5 -26zM483 92q163 0 287 139l82 -61q-76 -89 -165 -133.5t-206 -44.5q-175 0 -282 110.5t-107 300.5q0 163 63 299.5t182 219t269 82.5q48 0 96.5 -13t95 -40
t76 -77.5t29.5 -117.5q0 -55 -23.5 -102t-62.5 -82t-95.5 -63.5t-117 -48t-133 -34t-137 -23t-135.5 -14.5q4 -140 82.5 -218.5t201.5 -78.5zM604 905q-152 0 -265.5 -118.5t-135.5 -307.5q108 9 201 25t187 46t149 81t55 119q0 44 -18.5 76.5t-49 48.5t-61 23t-62.5 7z" />
    <glyph glyph-name="Eogonek" unicode="&#x118;" horiz-adv-x="1118" 
d="M1083 1348h-673l-70 -570h557l-10 -106h-559l-70 -566h711l-13 -106h-4q-83 -46 -130 -101.5t-48 -111.5q-2 -36 19 -59t65 -23q52 0 100 23l5 -78q-55 -25 -125 -25q-78 0 -119.5 38t-38.5 108q6 120 147 229h-696l178 1454h787z" />
    <glyph glyph-name="eogonek" unicode="&#x119;" horiz-adv-x="954" 
d="M483 92q163 0 287 139l82 -61q-106 -125 -236 -160q-87 -36 -147.5 -100.5t-60.5 -126.5q0 -35 21.5 -56.5t64.5 -21.5q50 0 98 23l4 -78q-55 -25 -125 -25q-76 0 -117 34.5t-41 100.5q0 64 39.5 125.5t102.5 104.5l-2 2q-163 9 -262 119t-99 292q0 163 63 299.5t182 219
t269 82.5q48 0 96.5 -13t95 -40t76 -77.5t29.5 -117.5q0 -55 -23.5 -102t-62.5 -82t-95.5 -63.5t-117 -48t-133 -34t-137 -23t-135.5 -14.5q4 -140 82.5 -218.5t201.5 -78.5zM604 905q-152 0 -265.5 -118.5t-135.5 -307.5q108 9 201 25t187 46t149 81t55 119
q0 44 -18.5 76.5t-49 48.5t-61 23t-62.5 7z" />
    <glyph glyph-name="Ecaron" unicode="&#x11a;" horiz-adv-x="1118" 
d="M686 1618l-186 242h110l135 -170h5l186 170h113l-258 -242h-105zM131 0l178 1454h787l-13 -106h-673l-70 -570h557l-10 -106h-559l-70 -566h711l-13 -106h-825z" />
    <glyph glyph-name="ecaron" unicode="&#x11b;" horiz-adv-x="954" 
d="M647 1145h-104l-181 274h107l133 -200h4l189 200h110zM903 756q0 -55 -23.5 -102t-62.5 -82t-95.5 -63.5t-117 -48t-133 -34t-137 -23t-135.5 -14.5q4 -140 82.5 -218.5t201.5 -78.5q163 0 287 139l82 -61q-76 -89 -165 -133.5t-206 -44.5q-175 0 -282 110.5t-107 300.5
q0 163 63 299.5t182 219t269 82.5q48 0 96.5 -13t95 -40t76 -77.5t29.5 -117.5zM203 479q108 9 201 25t187 46t149 81t55 119q0 44 -18.5 76.5t-49 48.5t-61 23t-62.5 7q-152 0 -265.5 -118.5t-135.5 -307.5z" />
    <glyph glyph-name="Gcircumflex" unicode="&#x11c;" horiz-adv-x="1445" 
d="M637 1614l258 241h106l185 -241h-111l-133 170h-6l-186 -170h-113zM721 -10q-265 0 -419.5 162t-154.5 448q0 137 34.5 266t100.5 236.5t155 189t205 127t243 45.5q292 0 473 -231l-92 -74q-155 197 -387 197q-175 0 -316.5 -106t-218 -277.5t-76.5 -370.5
q0 -235 119.5 -369.5t337.5 -134.5q112 0 220 36.5t194 105.5l47 378h-426l12 107h541l-68 -547q-100 -91 -240 -139.5t-284 -48.5z" />
    <glyph glyph-name="gcircumflex" unicode="&#x11d;" horiz-adv-x="1114" 
d="M391 1143l252 287h105l190 -287h-113l-131 213h-2l-186 -213h-115zM377 -414q-181 0 -328 82l35 101q142 -82 299 -82q70 0 124 10.5t106.5 40t89.5 79.5t65.5 131.5t42.5 192.5l20 162h-4q-70 -127 -172.5 -205t-222.5 -78q-161 0 -250.5 112.5t-89.5 287.5
q0 111 36.5 216t101 187t160.5 131.5t208 49.5q89 0 171 -29.5t130 -83.5l4 2l12 100h107l-104 -860q-13 -110 -40 -196t-65.5 -145.5t-84.5 -100.5t-104 -63.5t-117 -32t-130 -9.5zM449 119q99 0 190.5 69t150.5 179.5t76 234.5l23 176q-48 66 -130.5 95.5t-156.5 29.5
q-118 0 -211.5 -72.5t-141.5 -182.5t-48 -232q0 -133 65 -215t183 -82z" />
    <glyph glyph-name="Gbreve" unicode="&#x11e;" horiz-adv-x="1445" 
d="M913 1604q-113 0 -168.5 67.5t-46.5 186.5l88 -3q-7 -69 24.5 -115t104.5 -46q77 0 129.5 48.5t67.5 115.5l88 -3q-23 -113 -102.5 -182t-184.5 -69zM721 -10q-265 0 -419.5 162t-154.5 448q0 137 34.5 266t100.5 236.5t155 189t205 127t243 45.5q292 0 473 -231l-92 -74
q-155 197 -387 197q-175 0 -316.5 -106t-218 -277.5t-76.5 -370.5q0 -235 119.5 -369.5t337.5 -134.5q112 0 220 36.5t194 105.5l47 378h-426l12 107h541l-68 -547q-100 -91 -240 -139.5t-284 -48.5z" />
    <glyph glyph-name="gbreve" unicode="&#x11f;" horiz-adv-x="1114" 
d="M659 1141q-113 0 -168.5 71t-46.5 203h88q-6 -85 25 -134.5t107 -49.5q77 0 129.5 51.5t64.5 132.5h88q-23 -128 -101 -201t-186 -73zM377 -414q-181 0 -328 82l35 101q142 -82 299 -82q70 0 124 10.5t106.5 40t89.5 79.5t65.5 131.5t42.5 192.5l20 162h-4
q-70 -127 -172.5 -205t-222.5 -78q-161 0 -250.5 112.5t-89.5 287.5q0 111 36.5 216t101 187t160.5 131.5t208 49.5q89 0 171 -29.5t130 -83.5l4 2l12 100h107l-104 -860q-13 -110 -40 -196t-65.5 -145.5t-84.5 -100.5t-104 -63.5t-117 -32t-130 -9.5zM449 119
q99 0 190.5 69t150.5 179.5t76 234.5l23 176q-48 66 -130.5 95.5t-156.5 29.5q-118 0 -211.5 -72.5t-141.5 -182.5t-48 -232q0 -133 65 -215t183 -82z" />
    <glyph glyph-name="Gdotaccent" unicode="&#x120;" horiz-adv-x="1445" 
d="M928 1659q-36 0 -59 24.5t-23 61.5q0 38 24.5 63t61.5 25t61.5 -23.5t24.5 -60.5q0 -39 -25.5 -64.5t-64.5 -25.5zM721 -10q-265 0 -419.5 162t-154.5 448q0 137 34.5 266t100.5 236.5t155 189t205 127t243 45.5q292 0 473 -231l-92 -74q-155 197 -387 197
q-175 0 -316.5 -106t-218 -277.5t-76.5 -370.5q0 -235 119.5 -369.5t337.5 -134.5q112 0 220 36.5t194 105.5l47 378h-426l12 107h541l-68 -547q-100 -91 -240 -139.5t-284 -48.5z" />
    <glyph glyph-name="gdotaccent" unicode="&#x121;" horiz-adv-x="1114" 
d="M682 1210q-36 0 -59 24.5t-23 61.5q0 38 24.5 63t61.5 25t61.5 -23.5t24.5 -60.5q0 -39 -25.5 -64.5t-64.5 -25.5zM377 -414q-181 0 -328 82l35 101q142 -82 299 -82q70 0 124 10.5t106.5 40t89.5 79.5t65.5 131.5t42.5 192.5l20 162h-4q-70 -127 -172.5 -205t-222.5 -78
q-161 0 -250.5 112.5t-89.5 287.5q0 111 36.5 216t101 187t160.5 131.5t208 49.5q89 0 171 -29.5t130 -83.5l4 2l12 100h107l-104 -860q-13 -110 -40 -196t-65.5 -145.5t-84.5 -100.5t-104 -63.5t-117 -32t-130 -9.5zM449 119q99 0 190.5 69t150.5 179.5t76 234.5l23 176
q-48 66 -130.5 95.5t-156.5 29.5q-118 0 -211.5 -72.5t-141.5 -182.5t-48 -232q0 -133 65 -215t183 -82z" />
    <glyph glyph-name="Gcommaaccent" unicode="&#x122;" horiz-adv-x="1445" 
d="M721 -10q-265 0 -419.5 162t-154.5 448q0 137 34.5 266t100.5 236.5t155 189t205 127t243 45.5q292 0 473 -231l-92 -74q-155 197 -387 197q-175 0 -316.5 -106t-218 -277.5t-76.5 -370.5q0 -235 119.5 -369.5t337.5 -134.5q112 0 220 36.5t194 105.5l47 378h-426l12 107
h541l-68 -547q-100 -91 -240 -139.5t-284 -48.5zM524 -422l-18 70q74 12 106.5 58t32.5 142q0 25 -2 41h96q0 -1 1 -14.5t1 -30.5q0 -118 -53.5 -187.5t-163.5 -78.5z" />
    <glyph glyph-name="gcommaaccent" unicode="&#x123;" horiz-adv-x="1114" 
d="M846 1446l18 -70q-74 -12 -106.5 -58t-32.5 -142q0 -25 2 -41h-96q0 1 -1 14.5t-1 30.5q0 118 53.5 187.5t163.5 78.5zM377 -414q-181 0 -328 82l35 101q142 -82 299 -82q70 0 124 10.5t106.5 40t89.5 79.5t65.5 131.5t42.5 192.5l20 162h-4q-70 -127 -172.5 -205
t-222.5 -78q-161 0 -250.5 112.5t-89.5 287.5q0 111 36.5 216t101 187t160.5 131.5t208 49.5q89 0 171 -29.5t130 -83.5l4 2l12 100h107l-104 -860q-13 -110 -40 -196t-65.5 -145.5t-84.5 -100.5t-104 -63.5t-117 -32t-130 -9.5zM449 119q99 0 190.5 69t150.5 179.5
t76 234.5l23 176q-48 66 -130.5 95.5t-156.5 29.5q-118 0 -211.5 -72.5t-141.5 -182.5t-48 -232q0 -133 65 -215t183 -82z" />
    <glyph glyph-name="Hcircumflex" unicode="&#x124;" horiz-adv-x="1368" 
d="M551 1614l258 241h106l185 -241h-111l-133 170h-6l-186 -170h-113zM131 0l178 1454h115l-88 -713h758l86 713h114l-178 -1454h-115l78 635h-755l-78 -635h-115z" />
    <glyph glyph-name="hcircumflex" unicode="&#x125;" horiz-adv-x="1105" 
d="M332 1638l258 242h106l185 -242h-111l-133 170h-6l-187 -170h-112zM104 0l187 1507h106l-98 -790l4 -2q73 134 188 211.5t236 77.5q149 0 212 -98t36 -308l-80 -598h-107l78 592q22 169 -22.5 241t-143.5 72q-68 0 -141 -39.5t-134 -104.5t-106 -157.5t-57 -191.5
l-49 -412h-109z" />
    <glyph glyph-name="Hbar" unicode="&#x126;" horiz-adv-x="1363" 
d="M1374 1180l-10 -86h-113l-133 -1094h-114l77 635h-755l-78 -635h-115l133 1094h-123l11 86h125l32 274h115l-35 -274h758l33 274h114l-32 -274h110zM1096 741l43 353h-758l-43 -353h758z" />
    <glyph glyph-name="hbar" unicode="&#x127;" horiz-adv-x="1105" 
d="M727 1004q149 0 212 -98t36 -308l-80 -598h-107l78 592q22 169 -22.5 241t-143.5 72q-68 0 -141 -39.5t-134 -104.5t-106 -157.5t-57 -191.5l-49 -412h-109l148 1186h-156l10 82h156l29 239h106l-30 -239h391l-10 -82h-392l-57 -469l4 -2q73 134 188 211.5t236 77.5z" />
    <glyph glyph-name="Itilde" unicode="&#x128;" horiz-adv-x="522" 
d="M555 1614q-30 0 -62.5 15t-46.5 26t-45 37q-23 18 -36.5 27.5t-32.5 17.5t-35 8q-76 0 -129 -121l-74 35q76 172 195 172q31 0 59 -11t43 -22t39 -33q3 -3 16 -13t17.5 -13.5t15.5 -11.5t17.5 -11.5t16 -8t17.5 -6t17 -1.5q35 0 69 31.5t58 91.5l71 -31q-34 -86 -85 -132
t-105 -46zM143 0l179 1454h114l-178 -1454h-115z" />
    <glyph glyph-name="itilde" unicode="&#x129;" horiz-adv-x="456" 
d="M459 1174q-29 0 -59 14t-44 25.5t-43 37.5q-59 52 -102 52q-75 0 -127 -119l-70 35q73 172 191 172q29 0 57.5 -11.5t40 -20t41.5 -32.5q5 -4 18 -15.5t19 -16t17.5 -13t19.5 -12.5t18.5 -7t20.5 -3q33 0 66 31.5t57 90.5l67 -30q-34 -85 -84.5 -131.5t-103.5 -46.5z
M115 0l121 993h106l-123 -993h-104z" />
    <glyph glyph-name="Imacron" unicode="&#x12a;" horiz-adv-x="522" 
d="M156 1683l12 93h514l-12 -93h-514zM143 0l179 1454h114l-178 -1454h-115z" />
    <glyph glyph-name="imacron" unicode="&#x12b;" horiz-adv-x="456" 
d="M66 1245l12 94h514l-12 -94h-514zM115 0l121 993h106l-123 -993h-104z" />
    <glyph glyph-name="Ibreve" unicode="&#x12c;" horiz-adv-x="522" 
d="M397 1604q-113 0 -168.5 67.5t-46.5 186.5l88 -3q-7 -69 24.5 -115t104.5 -46q77 0 129.5 48.5t67.5 115.5l88 -3q-23 -113 -102.5 -182t-184.5 -69zM143 0l179 1454h114l-178 -1454h-115z" />
    <glyph glyph-name="ibreve" unicode="&#x12d;" horiz-adv-x="456" 
d="M315 1143q-96 0 -152.5 72.5t-47.5 199.5h86q-8 -87 20.5 -137.5t95.5 -50.5q71 0 114 52t52 136h88q-20 -127 -89.5 -199.5t-166.5 -72.5zM115 0l121 993h106l-123 -993h-104z" />
    <glyph glyph-name="Iogonek" unicode="&#x12e;" horiz-adv-x="522" 
d="M160 -295q52 0 100 23l4 -78q-55 -25 -125 -25q-78 0 -119 38t-38 108q3 63 47.5 126t115.5 115l177 1442h114l-178 -1454h-4q-83 -46 -130 -101.5t-48 -111.5q-2 -36 19 -59t65 -23z" />
    <glyph glyph-name="iogonek" unicode="&#x12f;" horiz-adv-x="456" 
d="M332 1384q37 0 61.5 -23.5t24.5 -60.5q0 -39 -25.5 -64.5t-64.5 -25.5q-36 0 -59 24.5t-23 61.5q0 38 24.5 63t61.5 25zM215 0q-83 -46 -130 -101.5t-48 -111.5q-2 -36 19 -59t65 -23q52 0 100 23l4 -78q-55 -25 -125 -25q-78 0 -119 38t-38 108q3 66 51 131.5t123 115.5
l119 975h106l-123 -993h-4z" />
    <glyph glyph-name="Idotaccent" unicode="&#x130;" horiz-adv-x="522" 
d="M412 1659q-36 0 -59 24.5t-23 61.5q0 38 24.5 63t61.5 25t61.5 -23.5t24.5 -60.5q0 -39 -25.5 -64.5t-64.5 -25.5zM143 0l179 1454h114l-178 -1454h-115z" />
    <glyph glyph-name="dotlessi" unicode="&#x131;" horiz-adv-x="456" 
d="M115 0l121 993h106l-123 -993h-104z" />
    <glyph glyph-name="IJ" unicode="&#x132;" horiz-adv-x="1447" 
d="M143 0l179 1454h114l-178 -1454h-115zM862 -10q-90 0 -177 50t-142 142l78 82q46 -76 110 -120t131 -44q259 0 301 367l121 987h115l-121 -993q-29 -239 -131.5 -355t-284.5 -116z" />
    <glyph glyph-name="ij" unicode="&#x133;" horiz-adv-x="841" 
d="M328 1210q-36 0 -59 24.5t-23 61.5q0 38 24.5 63t61.5 25t61.5 -23.5t24.5 -60.5q0 -39 -25.5 -64.5t-64.5 -25.5zM737 1210q-36 0 -59 24.5t-23 61.5q0 38 24.5 63t61.5 25t61.5 -23.5t24.5 -60.5q0 -39 -25.5 -64.5t-64.5 -25.5zM115 0l121 993h106l-123 -993h-104z
M365 -414q-79 0 -136 35l27 92q43 -32 100 -32q62 0 102 47t54 170l135 1095h107l-138 -1108q-17 -152 -77.5 -225.5t-173.5 -73.5z" />
    <glyph glyph-name="Jcircumflex" unicode="&#x134;" horiz-adv-x="925" 
d="M561 1614l258 241h107l184 -241h-111l-133 170h-6l-186 -170h-113zM340 -10q-90 0 -177.5 50t-142.5 142l78 82q46 -76 110.5 -120t131.5 -44q259 0 301 367l121 987h115l-121 -993q-29 -239 -131.5 -355t-284.5 -116z" />
    <glyph glyph-name="jcircumflex" unicode="&#x135;" horiz-adv-x="385" 
d="M-10 1143l252 287h104l191 -287h-113l-131 213h-2l-187 -213h-114zM-92 -414q-78 0 -135 35l26 92q43 -32 101 -32q62 0 101.5 47t53.5 170l135 1095h107l-137 -1108q-17 -152 -78 -225.5t-174 -73.5z" />
    <glyph glyph-name="Kcommaaccent" unicode="&#x136;" horiz-adv-x="1204" 
d="M1243 1454l-588 -663l420 -791h-133l-371 707l-278 -312l-47 -395h-115l178 1454h115l-109 -881l4 -2l779 883h145zM487 -111h97q0 -1 1 -14.5t1 -30.5q0 -118 -53.5 -187.5t-163.5 -78.5l-19 70q74 12 106.5 58t32.5 142q0 25 -2 41z" />
    <glyph glyph-name="kcommaaccent" unicode="&#x137;" horiz-adv-x="985" 
d="M836 -8q-23 -3 -45 4q-27 5 -50.5 22t-39 34t-36 56t-30.5 61.5t-33 78.5l-72 166q-146 -121 -292 -191l-27 -223h-107l187 1507h106l-143 -1161l4 -2q206 115 362 293t214 356h108q-71 -262 -328 -508l88 -202q51 -119 83 -157t81 -46zM254 -422l-18 70q74 12 106.5 58
t32.5 142q0 25 -2 41h96q0 -1 1 -14.5t1 -30.5q0 -118 -53.5 -187.5t-163.5 -78.5z" />
    <glyph glyph-name="kgreenlandic" unicode="&#x138;" horiz-adv-x="985" 
d="M836 -8q-33 0 -45 4q-27 5 -50.5 22t-39 34t-36 56t-30.5 61.5t-33 78.5l-72 166q-146 -121 -292 -191l-27 -223h-107l123 993h107l-80 -645l6 -4q204 115 360 293.5t214 355.5h108q-71 -262 -328 -508l88 -202q51 -119 83 -157t81 -46z" />
    <glyph glyph-name="Lacute" unicode="&#x139;" horiz-adv-x="1042" 
d="M508 1614l252 260l125 2l-262 -262h-115zM131 0l178 1454h115l-166 -1348h680l-12 -106h-795z" />
    <glyph glyph-name="lacute" unicode="&#x13a;" horiz-adv-x="446" 
d="M322 1640l251 261l125 2l-262 -263h-114zM115 0l184 1507h109l-187 -1507h-106z" />
    <glyph glyph-name="Lcommaaccent" unicode="&#x13b;" horiz-adv-x="1042" 
d="M131 0l178 1454h115l-166 -1348h680l-12 -106h-795zM336 -422l-19 70q74 12 107 58t33 142q0 25 -2 41h96q0 -1 1 -14.5t1 -30.5q0 -118 -53.5 -187.5t-163.5 -78.5z" />
    <glyph glyph-name="lcommaaccent" unicode="&#x13c;" horiz-adv-x="446" 
d="M115 0l184 1507h109l-187 -1507h-106zM-12 -422l-19 70q74 12 107 58t33 142q0 17 -3 41h97q0 -1 1 -14.5t1 -30.5q0 -118 -53.5 -187.5t-163.5 -78.5z" />
    <glyph glyph-name="Lcaron" unicode="&#x13d;" horiz-adv-x="1042" 
d="M594 1212l92 353h113l-121 -353h-84zM131 0l178 1454h115l-166 -1348h680l-12 -106h-795z" />
    <glyph glyph-name="lcaron" unicode="&#x13e;" horiz-adv-x="534" 
d="M518 1212l94 353h113l-121 -353h-86zM115 0l184 1507h109l-187 -1507h-106z" />
    <glyph glyph-name="Ldot" unicode="&#x13f;" horiz-adv-x="1042" 
d="M131 0l178 1454h115l-166 -1348h680l-12 -106h-795zM760 606q-38 0 -62 24.5t-24 61.5t25 62.5t63 25.5q37 0 61.5 -24.5t24.5 -61.5t-25.5 -62.5t-62.5 -25.5z" />
    <glyph glyph-name="ldot" unicode="&#x140;" horiz-adv-x="593" 
d="M115 0l184 1507h109l-187 -1507h-106zM526 457q-38 0 -62 24.5t-24 61.5t25 62.5t63 25.5q37 0 61.5 -24.5t24.5 -61.5t-25.5 -62.5t-62.5 -25.5z" />
    <glyph glyph-name="Lslash" unicode="&#x141;" horiz-adv-x="1062" 
d="M279 106h679l-12 -106h-794l73 602l-186 -80l16 103l183 80l92 749h114l-86 -696l220 96l-15 -104l-217 -95z" />
    <glyph glyph-name="lslash" unicode="&#x142;" horiz-adv-x="495" 
d="M500 801l-13 -96l-163 -68l-78 -637h-107l72 590l-158 -66l13 97l157 65l101 821h108l-96 -774z" />
    <glyph glyph-name="Nacute" unicode="&#x143;" horiz-adv-x="1427" 
d="M702 1614l252 260l125 2l-262 -262h-115zM131 0l178 1454h111l661 -1257l4 2l154 1255h113l-178 -1454h-115l-656 1247h-6l-151 -1247h-115z" />
    <glyph glyph-name="nacute" unicode="&#x144;" horiz-adv-x="1105" 
d="M559 1147l256 283h127l-264 -283h-119zM104 0l125 993h107l-35 -270h4q75 129 188.5 205t233.5 76q149 0 212 -98t36 -308l-80 -598h-107l78 592q10 89 4.5 149t-30 96t-58.5 51t-82 15q-90 0 -184.5 -63.5t-165.5 -178.5t-88 -249l-49 -412h-109z" />
    <glyph glyph-name="Ncommaaccent" unicode="&#x145;" horiz-adv-x="1427" 
d="M131 0l178 1454h111l661 -1257l4 2l154 1255h113l-178 -1454h-115l-656 1247h-6l-151 -1247h-115zM465 -422l-19 70q74 12 107 58t33 142q0 25 -2 41h96q0 -1 1 -14.5t1 -30.5q0 -118 -53.5 -187.5t-163.5 -78.5z" />
    <glyph glyph-name="ncommaaccent" unicode="&#x146;" horiz-adv-x="1105" 
d="M104 0l125 993h107l-35 -270h4q75 129 188.5 205t233.5 76q149 0 212 -98t36 -308l-80 -598h-107l78 592q10 89 4.5 149t-30 96t-58.5 51t-82 15q-90 0 -184.5 -63.5t-165.5 -178.5t-88 -249l-49 -412h-109zM311 -422l-18 70q74 12 106.5 58t32.5 142q0 25 -2 41h96
q0 -1 1 -14.5t1 -30.5q0 -118 -53.5 -187.5t-163.5 -78.5z" />
    <glyph glyph-name="Ncaron" unicode="&#x147;" horiz-adv-x="1427" 
d="M803 1614l-187 241h111l135 -169h4l187 169h112l-258 -241h-104zM131 0l178 1454h111l661 -1257l4 2l154 1255h113l-178 -1454h-115l-656 1247h-6l-151 -1247h-115z" />
    <glyph glyph-name="ncaron" unicode="&#x148;" horiz-adv-x="1105" 
d="M610 1145l-180 274h107l133 -200h4l188 200h111l-258 -274h-105zM104 0l125 993h107l-35 -270h4q75 129 188.5 205t233.5 76q149 0 212 -98t36 -308l-80 -598h-107l78 592q10 89 4.5 149t-30 96t-58.5 51t-82 15q-90 0 -184.5 -63.5t-165.5 -178.5t-88 -249l-49 -412
h-109z" />
    <glyph glyph-name="napostrophe" unicode="&#x149;" horiz-adv-x="1310" 
d="M104 1083l93 371h112l-121 -371h-84zM309 0l125 993h107l-35 -270h4q75 129 188.5 205t233.5 76q149 0 212 -98t36 -308l-80 -598h-107l78 592q10 89 4.5 149t-30 96t-58.5 51t-82 15q-90 0 -184.5 -63.5t-165.5 -178.5t-88 -249l-49 -412h-109z" />
    <glyph glyph-name="Eng" unicode="&#x14a;" horiz-adv-x="1427" 
d="M1239 1454h113l-183 -1487q-24 -200 -115 -290.5t-253 -90.5q-49 0 -127 19l14 98q53 -16 113 -16q110 0 172.5 61.5t81.5 218.5l4 35l-656 1245h-6l-151 -1247h-115l178 1454h111l661 -1257l4 2z" />
    <glyph glyph-name="eng" unicode="&#x14b;" horiz-adv-x="1099" 
d="M535 -414q-51 0 -101 17l19 88q38 -13 75 -13q51 0 89 14.5t72 50.5t57 103.5t36 167.5l76 578q23 169 -21 240t-145 71q-67 0 -138 -38t-131 -102.5t-103.5 -156.5t-55.5 -192l-51 -414h-107l123 993h107l-33 -268l4 -2q72 130 183 205.5t231 75.5q149 0 211 -98
t35 -308l-78 -598q-29 -220 -114.5 -317t-239.5 -97z" />
    <glyph glyph-name="Omacron" unicode="&#x14c;" horiz-adv-x="1546" 
d="M707 1683l12 93h514l-12 -93h-514zM715 -10q-260 0 -416 161.5t-156 446.5q0 136 34 264.5t99.5 237t155 190.5t207.5 128t250 46q260 0 415.5 -159.5t155.5 -446.5q0 -139 -33 -268.5t-97.5 -238t-153.5 -189.5t-207.5 -126.5t-253.5 -45.5zM721 98q138 0 255 62
t196 166.5t123 242t44 287.5q0 242 -122 372t-338 130q-135 0 -252 -64t-196 -169.5t-124 -242t-45 -282.5q0 -239 123 -370.5t336 -131.5z" />
    <glyph glyph-name="omacron" unicode="&#x14d;" horiz-adv-x="1103" 
d="M403 1245l13 94h514l-12 -94h-515zM496 -10q-184 0 -295 110.5t-111 305.5q0 119 37 227t103 190.5t165.5 131.5t216.5 49q184 0 293 -106.5t109 -299.5q0 -170 -60.5 -307t-179.5 -219t-278 -82zM498 90q180 0 293.5 140.5t113.5 361.5q0 154 -82 233.5t-217 79.5
q-177 0 -292 -142.5t-115 -348.5q0 -149 81 -236.5t218 -87.5z" />
    <glyph glyph-name="Obreve" unicode="&#x14e;" horiz-adv-x="1546" 
d="M948 1604q-113 0 -168.5 67.5t-46.5 186.5l88 -3q-7 -69 24.5 -115t104.5 -46q77 0 129.5 48.5t67.5 115.5l88 -3q-23 -113 -102.5 -182t-184.5 -69zM715 -10q-260 0 -416 161.5t-156 446.5q0 136 34 264.5t99.5 237t155 190.5t207.5 128t250 46q260 0 415.5 -159.5
t155.5 -446.5q0 -139 -33 -268.5t-97.5 -238t-153.5 -189.5t-207.5 -126.5t-253.5 -45.5zM721 98q138 0 255 62t196 166.5t123 242t44 287.5q0 242 -122 372t-338 130q-135 0 -252 -64t-196 -169.5t-124 -242t-45 -282.5q0 -239 123 -370.5t336 -131.5z" />
    <glyph glyph-name="obreve" unicode="&#x14f;" horiz-adv-x="1103" 
d="M643 1141q-113 0 -168.5 71t-46.5 203h88q-14 -184 131 -184q77 0 130 52t65 132h88q-23 -128 -101 -201t-186 -73zM496 -10q-184 0 -295 110.5t-111 305.5q0 119 37 227t103 190.5t165.5 131.5t216.5 49q184 0 293 -106.5t109 -299.5q0 -170 -60.5 -307t-179.5 -219
t-278 -82zM498 90q180 0 293.5 140.5t113.5 361.5q0 154 -82 233.5t-217 79.5q-177 0 -292 -142.5t-115 -348.5q0 -149 81 -236.5t218 -87.5z" />
    <glyph glyph-name="Ohungarumlaut" unicode="&#x150;" horiz-adv-x="1546" 
d="M752 1604l254 282h120l-264 -282h-110zM1032 1604l252 282h121l-264 -282h-109zM715 -10q-260 0 -416 161.5t-156 446.5q0 136 34 264.5t99.5 237t155 190.5t207.5 128t250 46q260 0 415.5 -159.5t155.5 -446.5q0 -139 -33 -268.5t-97.5 -238t-153.5 -189.5
t-207.5 -126.5t-253.5 -45.5zM721 98q138 0 255 62t196 166.5t123 242t44 287.5q0 242 -122 372t-338 130q-135 0 -252 -64t-196 -169.5t-124 -242t-45 -282.5q0 -239 123 -370.5t336 -131.5z" />
    <glyph glyph-name="ohungarumlaut" unicode="&#x151;" horiz-adv-x="1103" 
d="M455 1147l254 283h120l-264 -283h-110zM735 1147l252 283h121l-264 -283h-109zM496 -10q-184 0 -295 110.5t-111 305.5q0 119 37 227t103 190.5t165.5 131.5t216.5 49q184 0 293 -106.5t109 -299.5q0 -170 -60.5 -307t-179.5 -219t-278 -82zM498 90q180 0 293.5 140.5
t113.5 361.5q0 154 -82 233.5t-217 79.5q-177 0 -292 -142.5t-115 -348.5q0 -149 81 -236.5t218 -87.5z" />
    <glyph glyph-name="OE" unicode="&#x152;" horiz-adv-x="1773" 
d="M1741 1348h-672l-72 -570h557l-12 -106h-555l-72 -566h709l-10 -106h-905q-259 0 -411.5 162.5t-152.5 443.5q0 169 54 323.5t148.5 270.5t234 185t301.5 69h868zM803 109l153 1237h-86q-131 1 -245.5 -59.5t-193 -162t-123 -236t-44.5 -280.5q0 -235 120.5 -367
t332.5 -132h86z" />
    <glyph glyph-name="oe" unicode="&#x153;" horiz-adv-x="1507" 
d="M1102 92q60 0 129.5 35t122.5 104l84 -61q-65 -84 -155.5 -131t-182.5 -47q-125 0 -211.5 68t-120.5 190h-2q-58 -118 -153 -188t-214 -70q-151 0 -241 107.5t-90 293.5q0 169 60 308.5t168 221t241 81.5q110 0 186.5 -67t103.5 -192h4q62 123 166.5 191t233.5 68
q115 0 186.5 -60t71.5 -162q0 -69 -35.5 -129t-94.5 -104t-142.5 -80.5t-174 -60.5t-194.5 -41q9 -130 77.5 -202.5t176.5 -72.5zM752 559q9 159 -50.5 251.5t-169.5 92.5q-99 0 -181 -68t-128.5 -184t-46.5 -254q0 -147 64.5 -226t167.5 -79q135 0 234.5 133t109.5 334z
M1223 903q-148 0 -252 -122.5t-121 -321.5q109 21 198 47.5t167 64.5t121.5 90t43.5 113q0 67 -48 98t-109 31z" />
    <glyph glyph-name="Racute" unicode="&#x154;" horiz-adv-x="1214" 
d="M580 1614l251 260l125 2l-262 -262h-114zM131 0l178 1454h455q185 0 278 -93t93 -263q0 -199 -105 -332.5t-293 -163.5l297 -602h-129l-287 590h-301l-71 -590h-115zM330 694h303q178 0 279.5 110t101.5 294q0 125 -74 187.5t-199 62.5h-331z" />
    <glyph glyph-name="racute" unicode="&#x155;" horiz-adv-x="618" 
d="M326 1147l256 283h127l-265 -283h-118zM106 0l121 993h107l-31 -258h4q60 112 147.5 180.5t196.5 88.5l-14 -127q-150 -13 -250 -140t-125 -323l-49 -414h-107z" />
    <glyph glyph-name="Rcommaaccent" unicode="&#x156;" horiz-adv-x="1214" 
d="M131 0l178 1454h455q185 0 278 -93t93 -263q0 -199 -105 -332.5t-293 -163.5l297 -602h-129l-287 590h-301l-71 -590h-115zM330 694h303q178 0 279.5 110t101.5 294q0 125 -74 187.5t-199 62.5h-331zM348 -422l-18 70q74 12 106.5 58t32.5 142q0 25 -2 41h96
q0 -1 1 -14.5t1 -30.5q0 -118 -53.5 -187.5t-163.5 -78.5z" />
    <glyph glyph-name="rcommaaccent" unicode="&#x157;" horiz-adv-x="616" 
d="M106 0l121 993h107l-31 -258h4q60 112 147.5 180.5t196.5 88.5l-14 -127q-150 -13 -250 -140t-125 -323l-49 -414h-107zM-23 -422l-18 70q74 12 106.5 58t32.5 142q0 25 -2 41h97q0 -1 1 -14.5t1 -30.5q0 -118 -53.5 -187.5t-164.5 -78.5z" />
    <glyph glyph-name="Rcaron" unicode="&#x158;" horiz-adv-x="1214" 
d="M680 1614l-186 241h110l135 -169h4l187 169h112l-258 -241h-104zM131 0l178 1454h455q185 0 278 -93t93 -263q0 -199 -105 -332.5t-293 -163.5l297 -602h-129l-287 590h-301l-71 -590h-115zM330 694h303q178 0 279.5 110t101.5 294q0 125 -74 187.5t-199 62.5h-331z" />
    <glyph glyph-name="rcaron" unicode="&#x159;" horiz-adv-x="616" 
d="M416 1145l-180 274h106l133 -200h4l189 200h110l-258 -274h-104zM106 0l121 993h107l-31 -258h4q60 112 147.5 180.5t196.5 88.5l-14 -127q-150 -13 -250 -140t-125 -323l-49 -414h-107z" />
    <glyph glyph-name="Sacute" unicode="&#x15a;" horiz-adv-x="1101" 
d="M641 1614l252 260l125 2l-262 -262h-115zM522 -10q-137 0 -262.5 61t-200.5 176l86 76q65 -102 163.5 -153.5t207.5 -51.5q152 0 247 81t95 212q0 27 -8.5 52.5t-18 44.5t-34 42.5t-39.5 36.5t-52.5 36.5t-54.5 33t-63 35.5q-26 15 -39 22q-46 25 -64 35.5t-60.5 35.5
t-61.5 40.5t-51 42t-47.5 49.5t-33.5 53.5t-25 64t-7 70.5q0 169 122 274t312 105q113 0 217 -47t176 -131l-82 -76q-63 75 -147 111.5t-172 36.5q-134 0 -221 -72t-87 -188q1 -50 21 -91t61 -75.5t81.5 -60.5t104.5 -62q10 -5 15 -8q15 -9 56 -32t57 -32.5t52 -31.5
t51.5 -34t43.5 -34t41 -38.5t31.5 -41t26.5 -47t14 -50t6 -57.5q0 -191 -128 -302t-329 -111z" />
    <glyph glyph-name="sacute" unicode="&#x15b;" horiz-adv-x="825" 
d="M428 1147l256 283h127l-264 -283h-119zM367 -10q-213 0 -338 149l69 74q110 -125 269 -125q105 0 172 47.5t67 128.5q0 16 -4 31t-8.5 27t-15.5 25t-18.5 21t-25 19.5t-27 17.5t-32 17t-32.5 15t-36.5 16t-35.5 16q-54 22 -92 44t-74.5 53.5t-55 73.5t-18.5 93
q0 122 92 196.5t223 74.5q183 0 297 -125l-71 -74q-94 104 -232 104q-85 0 -142.5 -47t-57.5 -125q0 -60 49.5 -100.5t142.5 -81.5q122 -56 159 -79q124 -79 124 -200q1 -135 -98.5 -210.5t-249.5 -75.5z" />
    <glyph glyph-name="Scircumflex" unicode="&#x15c;" horiz-adv-x="1101" 
d="M389 1614l258 241h107l184 -241h-111l-133 170h-6l-186 -170h-113zM522 -10q-137 0 -262.5 61t-200.5 176l86 76q65 -102 163.5 -153.5t207.5 -51.5q152 0 247 81t95 212q0 27 -8.5 52.5t-18 44.5t-34 42.5t-39.5 36.5t-52.5 36.5t-54.5 33t-63 35.5q-26 15 -39 22
q-46 25 -64 35.5t-60.5 35.5t-61.5 40.5t-51 42t-47.5 49.5t-33.5 53.5t-25 64t-7 70.5q0 169 122 274t312 105q113 0 217 -47t176 -131l-82 -76q-63 75 -147 111.5t-172 36.5q-134 0 -221 -72t-87 -188q1 -50 21 -91t61 -75.5t81.5 -60.5t104.5 -62q10 -5 15 -8
q15 -9 56 -32t57 -32.5t52 -31.5t51.5 -34t43.5 -34t41 -38.5t31.5 -41t26.5 -47t14 -50t6 -57.5q0 -191 -128 -302t-329 -111z" />
    <glyph glyph-name="scircumflex" unicode="&#x15d;" horiz-adv-x="825" 
d="M221 1143l252 287h105l190 -287h-113l-131 213h-2l-186 -213h-115zM367 -10q-213 0 -338 149l69 74q110 -125 269 -125q105 0 172 47.5t67 128.5q0 16 -4 31t-8.5 27t-15.5 25t-18.5 21t-25 19.5t-27 17.5t-32 17t-32.5 15t-36.5 16t-35.5 16q-54 22 -92 44t-74.5 53.5
t-55 73.5t-18.5 93q0 122 92 196.5t223 74.5q183 0 297 -125l-71 -74q-94 104 -232 104q-85 0 -142.5 -47t-57.5 -125q0 -60 49.5 -100.5t142.5 -81.5q122 -56 159 -79q124 -79 124 -200q1 -135 -98.5 -210.5t-249.5 -75.5z" />
    <glyph glyph-name="Scedilla" unicode="&#x15e;" horiz-adv-x="1101" 
d="M600 801q15 -9 56 -32t57 -32.5t52 -31.5t51.5 -34t43.5 -34t41 -38.5t31.5 -41t26.5 -47t14 -50t6 -57.5q0 -191 -128 -302t-329 -111h-2l-37 -62l2 -2q144 -10 144 -125q0 -85 -59.5 -131.5t-153.5 -46.5q-47 0 -86 8l6 70q31 -10 74 -10q62 0 99.5 27.5t37.5 80.5
q0 71 -144 74l9 55l34 66q-117 16 -219.5 75.5t-167.5 157.5l86 76q65 -102 163.5 -153.5t207.5 -51.5q152 0 247 81t95 212q0 27 -8.5 52.5t-18 44.5t-34 42.5t-39.5 36.5t-52.5 36.5t-54.5 33t-63 35.5q-26 15 -39 22q-46 25 -64 35.5t-60.5 35.5t-61.5 40.5t-51 42
t-47.5 49.5t-33.5 53.5t-25 64t-7 70.5q0 169 122 274t312 105q113 0 217 -47t176 -131l-82 -76q-63 75 -147 111.5t-172 36.5q-134 0 -221 -72t-87 -188q1 -50 21 -91t61 -75.5t81.5 -60.5t104.5 -62q10 -5 15 -8z" />
    <glyph glyph-name="scedilla" unicode="&#x15f;" horiz-adv-x="825" 
d="M432 555q122 -56 159 -79q124 -79 124 -200q1 -135 -98.5 -210.5t-249.5 -75.5h-5l-36 -62l2 -2q143 -10 143 -125q0 -85 -59.5 -131.5t-153.5 -46.5q-47 0 -86 8l6 70q31 -10 74 -10q62 0 99.5 27.5t37.5 80.5q0 71 -143 74l8 55l37 68q-162 21 -262 143l69 74
q110 -125 269 -125q105 0 172 47.5t67 128.5q0 16 -4 31t-8.5 27t-15.5 25t-18.5 21t-25 19.5t-27 17.5t-32 17t-32.5 15t-36.5 16t-35.5 16q-54 22 -92 44t-74.5 53.5t-55 73.5t-18.5 93q0 122 92 196.5t223 74.5q183 0 297 -125l-71 -74q-94 104 -232 104
q-85 0 -142.5 -47t-57.5 -125q0 -60 49.5 -100.5t142.5 -81.5z" />
    <glyph glyph-name="Scaron" unicode="&#x160;" horiz-adv-x="1101" 
d="M612 1614l-186 241h111l135 -169h4l186 169h113l-258 -241h-105zM522 -10q-137 0 -262.5 61t-200.5 176l86 76q65 -102 163.5 -153.5t207.5 -51.5q152 0 247 81t95 212q0 27 -8.5 52.5t-18 44.5t-34 42.5t-39.5 36.5t-52.5 36.5t-54.5 33t-63 35.5q-26 15 -39 22
q-46 25 -64 35.5t-60.5 35.5t-61.5 40.5t-51 42t-47.5 49.5t-33.5 53.5t-25 64t-7 70.5q0 169 122 274t312 105q113 0 217 -47t176 -131l-82 -76q-63 75 -147 111.5t-172 36.5q-134 0 -221 -72t-87 -188q1 -50 21 -91t61 -75.5t81.5 -60.5t104.5 -62q10 -5 15 -8
q15 -9 56 -32t57 -32.5t52 -31.5t51.5 -34t43.5 -34t41 -38.5t31.5 -41t26.5 -47t14 -50t6 -57.5q0 -191 -128 -302t-329 -111z" />
    <glyph glyph-name="scaron" unicode="&#x161;" horiz-adv-x="825" 
d="M436 1145l-180 274h106l134 -200h4l188 200h111l-258 -274h-105zM367 -10q-213 0 -338 149l69 74q110 -125 269 -125q105 0 172 47.5t67 128.5q0 16 -4 31t-8.5 27t-15.5 25t-18.5 21t-25 19.5t-27 17.5t-32 17t-32.5 15t-36.5 16t-35.5 16q-54 22 -92 44t-74.5 53.5
t-55 73.5t-18.5 93q0 122 92 196.5t223 74.5q183 0 297 -125l-71 -74q-94 104 -232 104q-85 0 -142.5 -47t-57.5 -125q0 -60 49.5 -100.5t142.5 -81.5q122 -56 159 -79q124 -79 124 -200q1 -135 -98.5 -210.5t-249.5 -75.5z" />
    <glyph glyph-name="uni0162" unicode="&#x162;" horiz-adv-x="1050" 
d="M178 1454h932l-14 -106h-410l-166 -1348h-31l-40 -72l2 -2q143 -10 143 -125q0 -85 -59.5 -131.5t-153.5 -46.5q-47 0 -86 8l6 70q31 -10 74 -10q62 0 99.5 27.5t37.5 80.5q0 71 -143 74l8 55l39 72h-10l165 1348h-405z" />
    <glyph glyph-name="uni0163" unicode="&#x163;" horiz-adv-x="679" 
d="M332 899l-76 -618q-11 -92 9.5 -139.5t88.5 -47.5q88 0 181 68l14 -103q-101 -69 -223 -69h-7l-36 -62l2 -2q143 -10 143 -125q0 -85 -59.5 -131.5t-153.5 -46.5q-47 0 -86 8l6 70q31 -10 74 -10q62 0 99.5 27.5t37.5 80.5q0 71 -143 74l8 55l39 74q-130 43 -103 264
l78 633h-119l13 94h117l43 342l108 21l-45 -363h317l-12 -94h-315z" />
    <glyph glyph-name="Tcaron" unicode="&#x164;" horiz-adv-x="1050" 
d="M606 1614l-186 241h110l136 -169h4l186 169h113l-258 -241h-105zM406 0l165 1348h-405l12 106h932l-14 -106h-410l-166 -1348h-114z" />
    <glyph glyph-name="tcaron" unicode="&#x165;" horiz-adv-x="690" 
d="M535 1212l92 353h112l-121 -353h-83zM326 -10q-213 0 -179 276l78 633h-119l13 94h117l43 342l108 21l-45 -363h317l-12 -94h-315l-76 -618q-11 -92 9.5 -139.5t88.5 -47.5q88 0 181 68l14 -103q-101 -69 -223 -69z" />
    <glyph glyph-name="Tbar" unicode="&#x166;" horiz-adv-x="1050" 
d="M1096 1348h-410l-68 -557h220l-9 -93h-223l-86 -698h-114l86 698h-211l8 93h215l67 557h-405l12 106h932z" />
    <glyph glyph-name="tbar" unicode="&#x167;" horiz-adv-x="679" 
d="M647 899h-315l-35 -285h272l-12 -84h-270l-31 -249q-11 -92 9.5 -139.5t88.5 -47.5q88 0 181 68l14 -103q-101 -69 -223 -69q-213 0 -179 276l33 264h-104l12 84h102l35 285h-119l13 94h117l43 342l108 21l-45 -363h317z" />
    <glyph glyph-name="Utilde" unicode="&#x168;" horiz-adv-x="1337" 
d="M967 1614q-30 0 -62.5 15t-46.5 26t-45 37q-23 18 -36.5 27.5t-32.5 17.5t-35 8q-76 0 -129 -121l-74 35q76 172 194 172q31 0 59 -11t43.5 -22.5t39.5 -32.5q3 -3 18.5 -15.5t20.5 -16t18 -12t20 -12t18 -6.5t21 -3q35 0 69 31.5t58 91.5l72 -31q-34 -86 -85 -132
t-105 -46zM604 -10q-125 0 -215.5 44t-139.5 123.5t-67.5 191t0.5 247.5l107 858h114l-106 -860q-29 -229 47.5 -361.5t263.5 -132.5q191 0 308 119t149 363l104 872h115l-106 -872q-72 -592 -574 -592z" />
    <glyph glyph-name="utilde" unicode="&#x169;" horiz-adv-x="1073" 
d="M762 1171q-31 0 -62.5 14.5t-47.5 27.5t-44 38q-67 52 -102 52q-78 0 -131 -121l-74 35q74 178 197 178q29 0 56.5 -11.5t41.5 -21.5t41 -33q27 -22 39.5 -32t35.5 -21.5t42 -11.5q35 0 69 31.5t58 90.5l71 -30q-34 -90 -85 -137.5t-105 -47.5zM395 -10q-157 0 -225 96.5
t-39 304.5l82 602h106l-79 -594q-10 -92 -5 -152t33 -95t64 -48.5t88 -13.5q82 0 167.5 61t150.5 168t83 230l53 444h107l-121 -993h-108l34 266h-4q-68 -126 -170 -201t-217 -75z" />
    <glyph glyph-name="Umacron" unicode="&#x16a;" horiz-adv-x="1337" 
d="M567 1683l13 93h514l-13 -93h-514zM604 -10q-125 0 -215.5 44t-139.5 123.5t-67.5 191t0.5 247.5l107 858h114l-106 -860q-29 -229 47.5 -361.5t263.5 -132.5q191 0 308 119t149 363l104 872h115l-106 -872q-72 -592 -574 -592z" />
    <glyph glyph-name="umacron" unicode="&#x16b;" horiz-adv-x="1073" 
d="M365 1245l12 94h514l-12 -94h-514zM395 -10q-157 0 -225 96.5t-39 304.5l82 602h106l-79 -594q-10 -92 -5 -152t33 -95t64 -48.5t88 -13.5q82 0 167.5 61t150.5 168t83 230l53 444h107l-121 -993h-108l34 266h-4q-68 -126 -170 -201t-217 -75z" />
    <glyph glyph-name="Ubreve" unicode="&#x16c;" horiz-adv-x="1337" 
d="M809 1604q-113 0 -168.5 67.5t-46.5 186.5l88 -3q-7 -69 24.5 -115t104.5 -46q77 0 129.5 48.5t67.5 115.5l88 -3q-23 -113 -102.5 -182t-184.5 -69zM604 -10q-125 0 -215.5 44t-139.5 123.5t-67.5 191t0.5 247.5l107 858h114l-106 -860q-29 -229 47.5 -361.5
t263.5 -132.5q191 0 308 119t149 363l104 872h115l-106 -872q-72 -592 -574 -592z" />
    <glyph glyph-name="ubreve" unicode="&#x16d;" horiz-adv-x="1073" 
d="M604 1141q-113 0 -168.5 71t-46.5 203h88q-14 -184 131 -184q77 0 130 52t65 132h88q-23 -128 -101 -201t-186 -73zM395 -10q-157 0 -225 96.5t-39 304.5l82 602h106l-79 -594q-10 -92 -5 -152t33 -95t64 -48.5t88 -13.5q82 0 167.5 61t150.5 168t83 230l53 444h107
l-121 -993h-108l34 266h-4q-68 -126 -170 -201t-217 -75z" />
    <glyph glyph-name="Uring" unicode="&#x16e;" horiz-adv-x="1337" 
d="M821 1595q-72 0 -120 48t-48 120q0 75 49.5 123.5t124.5 48.5q74 0 122 -47t48 -119q0 -75 -50.5 -124.5t-125.5 -49.5zM823 1671q43 0 71 27.5t28 68.5t-27.5 68t-67.5 27q-41 0 -68.5 -28t-27.5 -69t26 -67.5t66 -26.5zM604 -10q-125 0 -215.5 44t-139.5 123.5
t-67.5 191t0.5 247.5l107 858h114l-106 -860q-29 -229 47.5 -361.5t263.5 -132.5q191 0 308 119t149 363l104 872h115l-106 -872q-72 -592 -574 -592z" />
    <glyph glyph-name="uring" unicode="&#x16f;" horiz-adv-x="1073" 
d="M621 1133q-72 0 -120 47.5t-48 119.5q0 75 49.5 124t124.5 49q74 0 122 -47t48 -119q0 -75 -50.5 -124.5t-125.5 -49.5zM623 1208q43 0 70.5 28t27.5 69t-27 67.5t-67 26.5q-41 0 -69 -27.5t-28 -68.5t26.5 -68t66.5 -27zM395 -10q-157 0 -225 96.5t-39 304.5l82 602h106
l-79 -594q-10 -92 -5 -152t33 -95t64 -48.5t88 -13.5q82 0 167.5 61t150.5 168t83 230l53 444h107l-121 -993h-108l34 266h-4q-68 -126 -170 -201t-217 -75z" />
    <glyph glyph-name="Uhungarumlaut" unicode="&#x170;" horiz-adv-x="1337" 
d="M612 1604l254 282h121l-264 -282h-111zM893 1604l252 282h121l-265 -282h-108zM604 -10q-125 0 -215.5 44t-139.5 123.5t-67.5 191t0.5 247.5l107 858h114l-106 -860q-29 -229 47.5 -361.5t263.5 -132.5q191 0 308 119t149 363l104 872h115l-106 -872q-72 -592 -574 -592
z" />
    <glyph glyph-name="uhungarumlaut" unicode="&#x171;" horiz-adv-x="1073" 
d="M416 1147l254 283h121l-265 -283h-110zM696 1147l252 283h121l-264 -283h-109zM395 -10q-157 0 -225 96.5t-39 304.5l82 602h106l-79 -594q-10 -92 -5 -152t33 -95t64 -48.5t88 -13.5q82 0 167.5 61t150.5 168t83 230l53 444h107l-121 -993h-108l34 266h-4
q-68 -126 -170 -201t-217 -75z" />
    <glyph glyph-name="Uogonek" unicode="&#x172;" horiz-adv-x="1337" 
d="M1169 1454h115l-106 -872q-61 -503 -433 -578q-90 -41 -150 -101t-63 -116q-2 -36 21 -59t63 -23q56 0 103 23l2 -78q-52 -25 -123 -25q-82 0 -121.5 41t-36.5 105q3 54 43 111t105 106v2q-121 3 -208 48t-134 124.5t-64.5 190t0.5 243.5l107 858h114l-106 -860
q-29 -229 47.5 -361.5t263.5 -132.5q191 0 308 119t149 363z" />
    <glyph glyph-name="uogonek" unicode="&#x173;" horiz-adv-x="1073" 
d="M762 -295q52 0 100 23l4 -78q-55 -25 -125 -25q-78 0 -119 38t-38 108q3 64 49.5 128t120.5 117l32 250h-4q-68 -126 -170 -201t-217 -75q-157 0 -225 96.5t-39 304.5l82 602h106l-79 -594q-10 -92 -5 -152t33 -95t64 -48.5t88 -13.5q82 0 167.5 61t150.5 168t83 230
l53 444h107l-121 -993h-4q-83 -46 -130 -101.5t-48 -111.5q-2 -36 19 -59t65 -23z" />
    <glyph glyph-name="Wcircumflex" unicode="&#x174;" horiz-adv-x="1882" 
d="M801 1614l258 241h106l185 -241h-111l-133 170h-6l-187 -170h-112zM432 0l-244 1454h119l205 -1264h4l475 1264h131l172 -1253h6l504 1253h125l-598 -1454h-119l-178 1266h-4l-479 -1266h-119z" />
    <glyph glyph-name="wcircumflex" unicode="&#x175;" horiz-adv-x="1581" 
d="M612 1143l252 287h105l190 -287h-112l-132 213h-2l-186 -213h-115zM379 -10q-145 0 -210.5 99.5t-37.5 309.5l78 594h106l-75 -585q-42 -318 166 -318q47 0 102 33t106.5 90.5t91 148.5t52.5 195l53 436h107l-70 -579q-11 -77 -7 -133.5t15 -93t33.5 -58.5t48 -30.5
t59.5 -8.5q112 0 226 123t159 324q51 222 9 456h112q41 -257 -16 -487q-32 -131 -89.5 -233.5t-127 -162t-141 -90t-140.5 -30.5q-118 0 -182.5 70.5t-67.5 207.5h-4q-61 -122 -164 -200t-192 -78z" />
    <glyph glyph-name="Ycircumflex" unicode="&#x176;" horiz-adv-x="1089" 
d="M399 1614l258 241h107l184 -241h-110l-133 170h-7l-186 -170h-113zM426 0l80 655l-350 799h125l292 -682h5l462 682h134l-553 -799l-80 -655h-115z" />
    <glyph glyph-name="ycircumflex" unicode="&#x177;" horiz-adv-x="1067" 
d="M635 1356l-186 -213h-115l252 287h104l191 -287h-113l-131 213h-2zM872 993h107l-107 -862q-15 -130 -51 -227.5t-82.5 -157t-109 -96.5t-125 -50.5t-137.5 -13.5q-171 0 -318 82l35 99q140 -82 285 -82q60 0 109 10.5t98.5 41t85.5 79.5t64.5 131t41.5 192l14 127l-4 2
q-66 -127 -169.5 -202.5t-219.5 -75.5q-319 0 -264 401l82 602h106l-80 -594q-12 -73 -6.5 -126.5t18.5 -88t40 -55.5t57.5 -29.5t71.5 -9.5q86 0 174 63.5t152 175t79 238.5z" />
    <glyph glyph-name="Ydieresis" unicode="&#x178;" horiz-adv-x="1089" 
d="M535 1659q-37 0 -60.5 24.5t-23.5 61.5q0 38 24.5 63t61.5 25q38 0 63 -23.5t25 -60.5q0 -38 -26 -64t-64 -26zM846 1659q-37 0 -60.5 24.5t-23.5 61.5q0 38 25 63t63 25q37 0 61.5 -23.5t24.5 -60.5q0 -38 -26 -64t-64 -26zM426 0l80 655l-350 799h125l292 -682h5
l462 682h134l-553 -799l-80 -655h-115z" />
    <glyph glyph-name="Zacute" unicode="&#x179;" horiz-adv-x="1150" 
d="M559 1614l252 260l125 2l-262 -262h-115zM59 0l13 94l895 1249v5h-701l15 106h847l-12 -94l-899 -1247l2 -7h750l-13 -106h-897z" />
    <glyph glyph-name="zacute" unicode="&#x17a;" horiz-adv-x="874" 
d="M406 1147l256 283h126l-264 -283h-118zM723 -49q-59 18 -125 28.5t-168 14.5t-178.5 5t-241.5 1l10 84l668 813v2h-543l13 94h686l-8 -80l-670 -815v-4q224 0 358.5 -9.5t229.5 -39.5z" />
    <glyph glyph-name="Zdotaccent" unicode="&#x17b;" horiz-adv-x="1150" 
d="M727 1659q-36 0 -59 24.5t-23 61.5q0 38 24.5 63t61.5 25t61.5 -23.5t24.5 -60.5q0 -39 -25.5 -64.5t-64.5 -25.5zM59 0l13 94l895 1249v5h-701l15 106h847l-12 -94l-899 -1247l2 -7h750l-13 -106h-897z" />
    <glyph glyph-name="zdotaccent" unicode="&#x17c;" horiz-adv-x="874" 
d="M532 1210q-36 0 -58.5 24.5t-22.5 61.5q0 38 24.5 63t61.5 25t61.5 -23.5t24.5 -60.5q0 -38 -25.5 -64t-65.5 -26zM723 -49q-59 18 -125 28.5t-168 14.5t-178.5 5t-241.5 1l10 84l668 813v2h-543l13 94h686l-8 -80l-670 -815v-4q224 0 358.5 -9.5t229.5 -39.5z" />
    <glyph glyph-name="Zcaron" unicode="&#x17d;" horiz-adv-x="1150" 
d="M659 1614l-186 241h111l135 -169h4l186 169h113l-258 -241h-105zM59 0l13 94l895 1249v5h-701l15 106h847l-12 -94l-899 -1247l2 -7h750l-13 -106h-897z" />
    <glyph glyph-name="zcaron" unicode="&#x17e;" horiz-adv-x="874" 
d="M457 1145l-181 274h107l133 -200h4l189 200h110l-258 -274h-104zM723 -49q-59 18 -125 28.5t-168 14.5t-178.5 5t-241.5 1l10 84l668 813v2h-543l13 94h686l-8 -80l-670 -815v-4q224 0 358.5 -9.5t229.5 -39.5z" />
    <glyph glyph-name="longs" unicode="&#x17f;" horiz-adv-x="555" 
d="M123 0l108 899h-114l10 94h117l26 224q39 301 267 301q113 0 192 -56l-29 -94q-64 49 -151 49q-71 0 -115.5 -50t-58.5 -173l-146 -1194h-106z" />
    <glyph glyph-name="uni018F" unicode="&#x18f;" horiz-adv-x="1466" 
d="M809 1464q259 0 413 -159.5t154 -446.5q0 -139 -32 -268.5t-94.5 -238t-149 -189.5t-201.5 -126.5t-246 -45.5q-247 0 -398 161t-151 441q0 66 13 129h1134q9 101 9 135q0 240 -124 370t-337 130q-114 0 -224.5 -40.5t-189.5 -109.5l-70 84q94 78 220 126t274 48zM662 98
q140 0 257.5 69t195.5 185t116 266h-1014v-24q0 -233 122 -364.5t323 -131.5z" />
    <glyph glyph-name="florin" unicode="&#x192;" horiz-adv-x="956" 
d="M76 -223q-144 0 -221 84l53 76q61 -58 155 -58q80 0 135.5 53.5t86.5 176.5l178 751h-144l25 96h145l64 256q39 160 115 233t188 73q143 0 221 -82l-55 -76q-63 57 -156 57q-75 0 -128.5 -53t-82.5 -178l-53 -230h289l-27 -96h-289l-188 -776q-37 -160 -114.5 -233.5
t-196.5 -73.5z" />
    <glyph glyph-name="uni019D" unicode="&#x19d;" horiz-adv-x="1419" 
d="M-27 -414q-70 0 -123 19l17 96q38 -14 98 -14q67 0 104 51.5t52 173.5l188 1542h111l649 -1257l4 2l156 1255h114l-182 -1454h-112l-646 1247h-6l-166 -1356q-19 -157 -80 -231t-178 -74z" />
    <glyph glyph-name="Ohorn" unicode="&#x1a0;" horiz-adv-x="1652" 
d="M1577 1585h104l-26 -203q-38 -285 -228 -292q33 -98 33 -232q0 -139 -33 -268.5t-97.5 -238t-153.5 -189.5t-207.5 -126.5t-253.5 -45.5q-260 0 -416 161.5t-156 446.5q0 136 34 264.5t99.5 237t155 190.5t207.5 128t250 46q178 0 310.5 -76.5t199.5 -220.5q6 -2 16 -2
q58 0 91 55t48 177zM721 98q138 0 255 62t196 166.5t123 242t44 287.5q0 242 -122 372t-338 130q-135 0 -252 -64t-196 -169.5t-124 -242t-45 -282.5q0 -239 123 -370.5t336 -131.5z" />
    <glyph glyph-name="ohorn" unicode="&#x1a1;" horiz-adv-x="1257" 
d="M1180 1157h104l-27 -203q-37 -292 -237 -292h-10q4 -40 4 -64q0 -170 -60.5 -307t-179.5 -219t-278 -82q-184 0 -295 110.5t-111 305.5q0 119 37 227t103 190.5t165.5 131.5t216.5 49q146 0 246.5 -68.5t136.5 -196.5q8 -2 23 -2q58 0 91 55t48 177zM498 90
q180 0 293.5 140.5t113.5 361.5q0 154 -82 233.5t-217 79.5q-177 0 -292 -142.5t-115 -348.5q0 -149 81 -236.5t218 -87.5z" />
    <glyph glyph-name="Uhorn" unicode="&#x1af;" horiz-adv-x="1466" 
d="M1454 1585h105l-27 -203q-37 -292 -238 -292q-29 0 -53 6l-63 -514q-72 -592 -574 -592q-125 0 -215.5 44t-139.5 123.5t-67.5 191t0.5 247.5l107 858h114l-106 -860q-29 -229 47.5 -361.5t263.5 -132.5q191 0 308 119t149 363l104 872h115l-35 -283q24 -6 43 -6
q58 0 91.5 55t48.5 177z" />
    <glyph glyph-name="uhorn" unicode="&#x1b0;" horiz-adv-x="1212" 
d="M1151 1157h104l-26 -203q-37 -292 -238 -292q-25 0 -49 6l-82 -668h-108l34 266h-4q-68 -126 -170 -201t-217 -75q-157 0 -225 96.5t-39 304.5l82 602h106l-79 -594q-10 -92 -5 -152t33 -95t64 -48.5t88 -13.5q82 0 167.5 61t150.5 168t83 230l53 444h107l-31 -252
q28 -4 39 -4q58 0 91 55t48 177z" />
    <glyph glyph-name="uni01CD" unicode="&#x1cd;" horiz-adv-x="1241" 
d="M707 1614l-187 241h111l135 -169h4l186 169h113l-258 -241h-104zM-2 0l676 1454h123l325 -1454h-118l-84 391h-623l-180 -391h-119zM342 496h557l-178 813h-4z" />
    <glyph glyph-name="uni01CE" unicode="&#x1ce;" horiz-adv-x="1110" 
d="M631 1145l-180 274h106l133 -200h4l189 200h110l-258 -274h-104zM434 -10q-108 0 -187 53.5t-117 142.5t-38 201q0 165 61.5 305t179 226t267.5 86q89 0 169 -30t128 -85l6 2l12 102h107l-121 -993h-106l32 270h-4q-71 -129 -171 -204.5t-218 -75.5zM449 88
q103 0 194 74.5t149.5 195.5t77.5 263l21 157q-50 66 -132.5 96.5t-156.5 30.5q-119 0 -212 -74t-141 -192t-48 -254q0 -133 65 -215t183 -82z" />
    <glyph glyph-name="uni01CF" unicode="&#x1cf;" horiz-adv-x="522" 
d="M344 1614l-186 241h110l135 -169h5l186 169h113l-258 -241h-105zM143 0l179 1454h114l-178 -1454h-115z" />
    <glyph glyph-name="uni01D0" unicode="&#x1d0;" horiz-adv-x="456" 
d="M252 1145l-180 274h106l133 -200h4l189 200h110l-258 -274h-104zM115 0l121 993h106l-123 -993h-104z" />
    <glyph glyph-name="uni01D1" unicode="&#x1d1;" horiz-adv-x="1546" 
d="M895 1614l-186 241h110l135 -169h4l187 169h112l-258 -241h-104zM715 -10q-260 0 -416 161.5t-156 446.5q0 136 34 264.5t99.5 237t155 190.5t207.5 128t250 46q260 0 415.5 -159.5t155.5 -446.5q0 -139 -33 -268.5t-97.5 -238t-153.5 -189.5t-207.5 -126.5t-253.5 -45.5
zM721 98q138 0 255 62t196 166.5t123 242t44 287.5q0 242 -122 372t-338 130q-135 0 -252 -64t-196 -169.5t-124 -242t-45 -282.5q0 -239 123 -370.5t336 -131.5z" />
    <glyph glyph-name="uni01D2" unicode="&#x1d2;" horiz-adv-x="1103" 
d="M590 1145l-180 274h106l133 -200h4l189 200h110l-258 -274h-104zM496 -10q-184 0 -295 110.5t-111 305.5q0 119 37 227t103 190.5t165.5 131.5t216.5 49q184 0 293 -106.5t109 -299.5q0 -170 -60.5 -307t-179.5 -219t-278 -82zM498 90q180 0 293.5 140.5t113.5 361.5
q0 154 -82 233.5t-217 79.5q-177 0 -292 -142.5t-115 -348.5q0 -149 81 -236.5t218 -87.5z" />
    <glyph glyph-name="uni01D3" unicode="&#x1d3;" horiz-adv-x="1337" 
d="M756 1614l-187 241h111l135 -169h4l187 169h112l-258 -241h-104zM604 -10q-125 0 -215.5 44t-139.5 123.5t-67.5 191t0.5 247.5l107 858h114l-106 -860q-29 -229 47.5 -361.5t263.5 -132.5q191 0 308 119t149 363l104 872h115l-106 -872q-72 -592 -574 -592z" />
    <glyph glyph-name="uni01D4" unicode="&#x1d4;" horiz-adv-x="1073" 
d="M551 1145l-180 274h106l133 -200h4l189 200h110l-258 -274h-104zM395 -10q-157 0 -225 96.5t-39 304.5l82 602h106l-79 -594q-10 -92 -5 -152t33 -95t64 -48.5t88 -13.5q82 0 167.5 61t150.5 168t83 230l53 444h107l-121 -993h-108l34 266h-4q-68 -126 -170 -201
t-217 -75z" />
    <glyph glyph-name="uni01D5" unicode="&#x1d5;" horiz-adv-x="1337" 
d="M582 1944l10 86h514l-10 -86h-514zM643 1638q-35 0 -56.5 23t-21.5 59q0 37 23.5 60.5t58.5 23.5q37 0 60.5 -22.5t23.5 -57.5q0 -37 -24.5 -61.5t-63.5 -24.5zM969 1638q-35 0 -56.5 23t-21.5 59q0 37 23.5 60.5t58.5 23.5q37 0 60.5 -22.5t23.5 -57.5
q0 -37 -24.5 -61.5t-63.5 -24.5zM604 -10q-125 0 -215.5 44t-139.5 123.5t-67.5 191t0.5 247.5l107 858h114l-106 -860q-29 -229 47.5 -361.5t263.5 -132.5q191 0 308 119t149 363l104 872h115l-106 -872q-72 -592 -574 -592z" />
    <glyph glyph-name="uni01D6" unicode="&#x1d6;" horiz-adv-x="1073" 
d="M406 1552l10 90h514l-10 -90h-514zM469 1212q-35 0 -58.5 23.5t-23.5 60.5t24.5 62.5t61.5 25.5t61.5 -24.5t24.5 -59.5q0 -38 -26 -63t-64 -25zM780 1212q-37 0 -60.5 23.5t-23.5 60.5t24.5 62.5t61.5 25.5q36 0 60 -24t24 -60q0 -38 -24.5 -63t-61.5 -25zM395 -10
q-157 0 -225 96.5t-39 304.5l82 602h106l-79 -594q-10 -92 -5 -152t33 -95t64 -48.5t88 -13.5q82 0 167.5 61t150.5 168t83 230l53 444h107l-121 -993h-108l34 266h-4q-68 -126 -170 -201t-217 -75z" />
    <glyph glyph-name="uni01D7" unicode="&#x1d7;" horiz-adv-x="1337" 
d="M776 1845l248 260h123l-279 -260h-92zM643 1638q-35 0 -56.5 23t-21.5 59q0 37 23.5 60.5t58.5 23.5q37 0 60.5 -22.5t23.5 -57.5q0 -37 -24.5 -61.5t-63.5 -24.5zM969 1638q-35 0 -56.5 23t-21.5 59q0 37 23.5 60.5t58.5 23.5q37 0 60.5 -22.5t23.5 -57.5
q0 -37 -24.5 -61.5t-63.5 -24.5zM604 -10q-125 0 -215.5 44t-139.5 123.5t-67.5 191t0.5 247.5l107 858h114l-106 -860q-29 -229 47.5 -361.5t263.5 -132.5q191 0 308 119t149 363l104 872h115l-106 -872q-72 -592 -574 -592z" />
    <glyph glyph-name="uni01D8" unicode="&#x1d8;" horiz-adv-x="1073" 
d="M594 1440l246 282h125l-277 -282h-94zM469 1212q-35 0 -58.5 23.5t-23.5 60.5t24.5 62.5t61.5 25.5t61.5 -24.5t24.5 -59.5q0 -38 -26 -63t-64 -25zM780 1212q-37 0 -60.5 23.5t-23.5 60.5t24.5 62.5t61.5 25.5q36 0 60 -24t24 -60q0 -38 -24.5 -63t-61.5 -25zM395 -10
q-157 0 -225 96.5t-39 304.5l82 602h106l-79 -594q-10 -92 -5 -152t33 -95t64 -48.5t88 -13.5q82 0 167.5 61t150.5 168t83 230l53 444h107l-121 -993h-108l34 266h-4q-68 -126 -170 -201t-217 -75z" />
    <glyph glyph-name="uni01D9" unicode="&#x1d9;" horiz-adv-x="1337" 
d="M772 1878l-186 219h110l135 -153h5l186 153h113l-258 -219h-105zM643 1638q-35 0 -56.5 23t-21.5 59q0 37 23.5 60.5t58.5 23.5q37 0 60.5 -22.5t23.5 -57.5q0 -37 -24.5 -61.5t-63.5 -24.5zM969 1638q-35 0 -56.5 23t-21.5 59q0 37 23.5 60.5t58.5 23.5q37 0 60.5 -22.5
t23.5 -57.5q0 -37 -24.5 -61.5t-63.5 -24.5zM604 -10q-125 0 -215.5 44t-139.5 123.5t-67.5 191t0.5 247.5l107 858h114l-106 -860q-29 -229 47.5 -361.5t263.5 -132.5q191 0 308 119t149 363l104 872h115l-106 -872q-72 -592 -574 -592z" />
    <glyph glyph-name="uni01DA" unicode="&#x1da;" horiz-adv-x="1073" 
d="M598 1458l-180 275h106l133 -201h5l188 201h111l-259 -275h-104zM469 1212q-35 0 -58.5 23.5t-23.5 60.5t24.5 62.5t61.5 25.5t61.5 -24.5t24.5 -59.5q0 -38 -26 -63t-64 -25zM780 1212q-37 0 -60.5 23.5t-23.5 60.5t24.5 62.5t61.5 25.5q36 0 60 -24t24 -60
q0 -38 -24.5 -63t-61.5 -25zM395 -10q-157 0 -225 96.5t-39 304.5l82 602h106l-79 -594q-10 -92 -5 -152t33 -95t64 -48.5t88 -13.5q82 0 167.5 61t150.5 168t83 230l53 444h107l-121 -993h-108l34 266h-4q-68 -126 -170 -201t-217 -75z" />
    <glyph glyph-name="uni01DB" unicode="&#x1db;" horiz-adv-x="1337" 
d="M797 1845l-201 258h115l176 -258h-90zM643 1638q-35 0 -56.5 23t-21.5 59q0 37 23.5 60.5t58.5 23.5q37 0 60.5 -22.5t23.5 -57.5q0 -37 -24.5 -61.5t-63.5 -24.5zM969 1638q-35 0 -56.5 23t-21.5 59q0 37 23.5 60.5t58.5 23.5q37 0 60.5 -22.5t23.5 -57.5
q0 -37 -24.5 -61.5t-63.5 -24.5zM604 -10q-125 0 -215.5 44t-139.5 123.5t-67.5 191t0.5 247.5l107 858h114l-106 -860q-29 -229 47.5 -361.5t263.5 -132.5q191 0 308 119t149 363l104 872h115l-106 -872q-72 -592 -574 -592z" />
    <glyph glyph-name="uni01DC" unicode="&#x1dc;" horiz-adv-x="1073" 
d="M592 1440l-219 282h123l190 -282h-94zM469 1212q-35 0 -58.5 23.5t-23.5 60.5t24.5 62.5t61.5 25.5t61.5 -24.5t24.5 -59.5q0 -38 -26 -63t-64 -25zM780 1212q-37 0 -60.5 23.5t-23.5 60.5t24.5 62.5t61.5 25.5q36 0 60 -24t24 -60q0 -38 -24.5 -63t-61.5 -25zM395 -10
q-157 0 -225 96.5t-39 304.5l82 602h106l-79 -594q-10 -92 -5 -152t33 -95t64 -48.5t88 -13.5q82 0 167.5 61t150.5 168t83 230l53 444h107l-121 -993h-108l34 266h-4q-68 -126 -170 -201t-217 -75z" />
    <glyph glyph-name="Gcaron" unicode="&#x1e6;" horiz-adv-x="1445" 
d="M860 1614l-186 241h110l136 -169h4l186 169h113l-258 -241h-105zM721 -10q-265 0 -419.5 162t-154.5 448q0 137 34.5 266t100.5 236.5t155 189t205 127t243 45.5q292 0 473 -231l-92 -74q-155 197 -387 197q-175 0 -316.5 -106t-218 -277.5t-76.5 -370.5
q0 -235 119.5 -369.5t337.5 -134.5q112 0 220 36.5t194 105.5l47 378h-426l12 107h541l-68 -547q-100 -91 -240 -139.5t-284 -48.5z" />
    <glyph glyph-name="gcaron" unicode="&#x1e7;" horiz-adv-x="1114" 
d="M606 1145l-180 274h106l134 -200h4l188 200h111l-258 -274h-105zM377 -414q-181 0 -328 82l35 101q142 -82 299 -82q70 0 124 10.5t106.5 40t89.5 79.5t65.5 131.5t42.5 192.5l20 162h-4q-70 -127 -172.5 -205t-222.5 -78q-161 0 -250.5 112.5t-89.5 287.5
q0 111 36.5 216t101 187t160.5 131.5t208 49.5q89 0 171 -29.5t130 -83.5l4 2l12 100h107l-104 -860q-13 -110 -40 -196t-65.5 -145.5t-84.5 -100.5t-104 -63.5t-117 -32t-130 -9.5zM449 119q99 0 190.5 69t150.5 179.5t76 234.5l23 176q-48 66 -130.5 95.5t-156.5 29.5
q-118 0 -211.5 -72.5t-141.5 -182.5t-48 -232q0 -133 65 -215t183 -82z" />
    <glyph glyph-name="uni01EA" unicode="&#x1ea;" horiz-adv-x="1546" 
d="M788 -6q-162 -99 -165 -207q-2 -36 19 -59t65 -23q52 0 100 23l4 -78q-55 -25 -125 -25q-78 0 -119.5 38t-38.5 108q6 111 138 221q-240 15 -381.5 175t-141.5 431q0 136 34 264.5t99.5 237t155 190.5t207.5 128t250 46q260 0 415.5 -159.5t155.5 -446.5q0 -220 -80 -408
t-235 -312t-357 -144zM262 600q0 -239 123 -370.5t336 -131.5q138 0 255 62t196 166.5t123 242t44 287.5q0 242 -122 372t-338 130q-135 0 -252 -64t-196 -169.5t-124 -242t-45 -282.5z" />
    <glyph glyph-name="uni01EB" unicode="&#x1eb;" horiz-adv-x="1103" 
d="M545 -8q-76 -45 -119.5 -98.5t-44.5 -106.5q-2 -36 19 -59t65 -23q52 0 100 23l4 -78q-55 -25 -125 -25q-78 0 -119 38t-38 108q6 115 139 223q-155 21 -245.5 128.5t-90.5 283.5q0 119 37 227t103 190.5t165.5 131.5t216.5 49q184 0 293 -106.5t109 -299.5
q0 -246 -126.5 -416t-342.5 -190zM199 414q0 -149 81 -236.5t218 -87.5q180 0 293.5 140.5t113.5 361.5q0 154 -82 233.5t-217 79.5q-177 0 -292 -142.5t-115 -348.5z" />
    <glyph glyph-name="Aringacute" unicode="&#x1fa;" horiz-adv-x="1241" 
d="M772 1595q-72 0 -120 48t-48 120q0 75 49.5 123.5t124.5 48.5q87 0 135 -61l154 106h137l-258 -180q2 -10 2 -31q0 -75 -50.5 -124.5t-125.5 -49.5zM778 1862q-41 0 -68.5 -28t-27.5 -69t26 -67.5t66 -26.5q43 0 70.5 27.5t27.5 68.5t-27 68t-67 27zM674 1454h123
l325 -1454h-118l-84 391h-623l-180 -391h-119zM342 496h557l-178 813h-4z" />
    <glyph glyph-name="aringacute" unicode="&#x1fb;" horiz-adv-x="1110" 
d="M700 1133q-72 0 -120 47.5t-48 119.5q0 75 50 124t125 49q86 0 135 -62l149 100h137l-254 -174q3 -15 3 -30q0 -75 -51 -124.5t-126 -49.5zM707 1399q-41 0 -69 -27.5t-28 -68.5t26 -68t66 -27q43 0 71 28t28 69t-27 67.5t-67 26.5zM903 891l12 102h107l-121 -993h-106
l32 270h-4q-71 -129 -171 -204.5t-218 -75.5q-108 0 -187 53.5t-117 142.5t-38 201q0 165 61.5 305t179 226t267.5 86q89 0 169 -30t128 -85zM870 621l21 157q-50 66 -132.5 96.5t-156.5 30.5q-119 0 -212 -74t-141 -192t-48 -254q0 -133 65 -215t183 -82q103 0 194 74.5
t149.5 195.5t77.5 263z" />
    <glyph glyph-name="AEacute" unicode="&#x1fc;" horiz-adv-x="1724" 
d="M942 1614l252 260l125 2l-262 -262h-115zM-49 0l903 1454h850l-12 -106h-678l-68 -570h567l-12 -106h-569l-68 -566h713l-12 -106h-826l47 391h-464l-242 -391h-129zM381 494h420l100 835h-2z" />
    <glyph glyph-name="aeacute" unicode="&#x1fd;" horiz-adv-x="1411" 
d="M1178 1430l-265 -283h-118l256 283h127zM995 92q64 0 134 35.5t124 103.5l84 -61q-66 -83 -157.5 -130.5t-186.5 -47.5q-147 0 -238.5 73t-117.5 207q-48 -130 -131.5 -206t-183.5 -76q-121 0 -195.5 100.5t-73.5 265.5q1 95 24 188t69.5 174t109.5 143t149.5 98
t184.5 36q156 0 258 -75q117 84 274 84q121 0 194 -62.5t73 -165.5q0 -85 -54 -155t-148.5 -117.5t-214.5 -77t-259 -39.5q3 -140 78 -217.5t204 -77.5zM1282 774q0 67 -49.5 98t-118.5 31q-160 0 -268 -119.5t-129 -308.5q157 13 282 50t204 102t79 147zM332 86
q63 0 120.5 55.5t95 133t62.5 171.5q22 256 162 408q-71 41 -176 41q-83 0 -155 -32.5t-122 -87.5t-86.5 -126.5t-53.5 -149t-17 -155.5q0 -119 48.5 -188.5t121.5 -69.5z" />
    <glyph glyph-name="Oslashacute" unicode="&#x1fe;" horiz-adv-x="1558" 
d="M1241 1876l-262 -262h-115l252 260zM1505 1417l-153 -168q110 -150 110 -391q0 -139 -33 -268.5t-97.5 -238t-153.5 -189.5t-207.5 -126.5t-253.5 -45.5q-237 0 -387 135l-144 -158l-61 64l143 157q-123 161 -123 410q0 136 34 264.5t99.5 237t155 190.5t207.5 128
t250 46q253 0 405 -149l146 162zM264 600q0 -196 86 -324l867 955q-121 127 -336 127q-135 0 -252 -64t-196 -169.5t-124 -242t-45 -282.5zM1341 856q0 182 -71 303l-862 -950q120 -111 315 -111q138 0 255 62t196 166.5t123 242t44 287.5z" />
    <glyph glyph-name="oslashacute" unicode="&#x1ff;" horiz-adv-x="1110" 
d="M975 1430l-264 -283h-119l256 283h127zM1065 965l-115 -119q66 -101 66 -248q0 -170 -60.5 -307t-179.5 -219t-278 -82q-174 0 -283 98l-117 -119l-57 51l123 127q-72 109 -72 259q0 119 37 227t103 190.5t165.5 131.5t216.5 49q178 0 283 -99l111 115zM201 414
q0 -109 43 -185l579 598q-78 78 -215 78q-177 0 -292 -142.5t-115 -348.5zM907 592q0 100 -37 172l-579 -596q81 -78 209 -78q180 0 293.5 140.5t113.5 361.5z" />
    <glyph glyph-name="Scommaaccent" unicode="&#x218;" horiz-adv-x="1101" 
d="M522 -10q-137 0 -262.5 61t-200.5 176l86 76q65 -102 163.5 -153.5t207.5 -51.5q152 0 247 81t95 212q0 27 -8.5 52.5t-18 44.5t-34 42.5t-39.5 36.5t-52.5 36.5t-54.5 33t-63 35.5q-26 15 -39 22q-46 25 -64 35.5t-60.5 35.5t-61.5 40.5t-51 42t-47.5 49.5t-33.5 53.5
t-25 64t-7 70.5q0 169 122 274t312 105q113 0 217 -47t176 -131l-82 -76q-63 75 -147 111.5t-172 36.5q-134 0 -221 -72t-87 -188q1 -50 21 -91t61 -75.5t81.5 -60.5t104.5 -62q10 -5 15 -8q15 -9 56 -32t57 -32.5t52 -31.5t51.5 -34t43.5 -34t41 -38.5t31.5 -41t26.5 -47
t14 -50t6 -57.5q0 -191 -128 -302t-329 -111zM319 -422l-18 70q74 12 106.5 58t32.5 142q0 25 -2 41h97q0 -1 1 -14.5t1 -30.5q0 -118 -53.5 -187.5t-164.5 -78.5z" />
    <glyph glyph-name="scommaaccent" unicode="&#x219;" horiz-adv-x="825" 
d="M367 -10q-213 0 -338 149l69 74q110 -125 269 -125q105 0 172 47.5t67 128.5q0 16 -4 31t-8.5 27t-15.5 25t-18.5 21t-25 19.5t-27 17.5t-32 17t-32.5 15t-36.5 16t-35.5 16q-54 22 -92 44t-74.5 53.5t-55 73.5t-18.5 93q0 122 92 196.5t223 74.5q183 0 297 -125l-71 -74
q-94 104 -232 104q-85 0 -142.5 -47t-57.5 -125q0 -60 49.5 -100.5t142.5 -81.5q122 -56 159 -79q124 -79 124 -200q1 -135 -98.5 -210.5t-249.5 -75.5zM162 -422l-19 70q74 12 107 58t33 142q0 25 -2 41h96q0 -1 1 -14.5t1 -30.5q0 -118 -53.5 -187.5t-163.5 -78.5z" />
    <glyph glyph-name="uni021A" unicode="&#x21a;" horiz-adv-x="1050" 
d="M406 0l165 1348h-405l12 106h932l-14 -106h-410l-166 -1348h-114zM285 -422l-19 70q74 12 107 58t33 142q0 17 -3 41h97q0 -1 1 -14.5t1 -30.5q0 -118 -53.5 -187.5t-163.5 -78.5z" />
    <glyph glyph-name="uni021B" unicode="&#x21b;" horiz-adv-x="679" 
d="M326 -10q-213 0 -179 276l78 633h-119l13 94h117l43 342l108 21l-45 -363h317l-12 -94h-315l-76 -618q-11 -92 9.5 -139.5t88.5 -47.5q88 0 181 68l14 -103q-101 -69 -223 -69zM119 -422l-19 70q74 12 107 58t33 142q0 25 -2 41h96q0 -1 1 -14.5t1 -30.5
q0 -118 -53.5 -187.5t-163.5 -78.5z" />
    <glyph glyph-name="uni0232" unicode="&#x232;" horiz-adv-x="1089" 
d="M434 1683l12 93h515l-13 -93h-514zM426 0l80 655l-350 799h125l292 -682h5l462 682h134l-553 -799l-80 -655h-115z" />
    <glyph glyph-name="uni0233" unicode="&#x233;" horiz-adv-x="1067" 
d="M889 1339l-12 -94h-515l13 94h514zM872 993h107l-107 -862q-15 -130 -51 -227.5t-82.5 -157t-109 -96.5t-125 -50.5t-137.5 -13.5q-171 0 -318 82l35 99q140 -82 285 -82q60 0 109 10.5t98.5 41t85.5 79.5t64.5 131t41.5 192l14 127l-4 2q-66 -127 -169.5 -202.5
t-219.5 -75.5q-319 0 -264 401l82 602h106l-80 -594q-12 -73 -6.5 -126.5t18.5 -88t40 -55.5t57.5 -29.5t71.5 -9.5q86 0 174 63.5t152 175t79 238.5z" />
    <glyph glyph-name="uni0237" unicode="&#x237;" horiz-adv-x="385" 
d="M-92 -414q-78 0 -135 35l26 92q43 -32 101 -32q62 0 101.5 47t53.5 170l135 1095h107l-137 -1108q-17 -152 -78 -225.5t-174 -73.5z" />
    <glyph glyph-name="uni0251" unicode="&#x251;" horiz-adv-x="1110" 
d="M434 -10q-108 0 -187 53.5t-117 142.5t-38 201q0 165 61.5 305t179 226t267.5 86q89 0 169 -30t128 -85l6 2l12 102h107l-121 -993h-106l32 270h-4q-71 -129 -171 -204.5t-218 -75.5zM449 88q103 0 194 74.5t149.5 195.5t77.5 263l21 157q-50 66 -132.5 96.5t-156.5 30.5
q-119 0 -212 -74t-141 -192t-48 -254q0 -133 65 -215t183 -82z" />
    <glyph glyph-name="uni0259" unicode="&#x259;" horiz-adv-x="931" 
d="M471 1004q171 0 278 -114t107 -306q0 -168 -62 -301.5t-183.5 -212t-284.5 -78.5q-127 0 -206 68.5t-79 175.5q0 69 30.5 127t85 99t122 72.5t149.5 51.5t159.5 32t160.5 17q-10 126 -85 198t-194 72q-72 0 -143.5 -29t-118.5 -71l-64 76q60 54 148 88.5t180 34.5z
M334 92q180 0 290 124.5t124 322.5q-123 -9 -225 -29.5t-188.5 -55t-135.5 -88.5t-49 -124q0 -67 50 -108.5t134 -41.5z" />
    <glyph glyph-name="uni0261" unicode="&#x261;" horiz-adv-x="1114" 
d="M377 -414q-181 0 -328 82l35 101q142 -82 299 -82q70 0 124 10.5t106.5 40t89.5 79.5t65.5 131.5t42.5 192.5l20 162h-4q-70 -127 -172.5 -205t-222.5 -78q-161 0 -250.5 112.5t-89.5 287.5q0 111 36.5 216t101 187t160.5 131.5t208 49.5q89 0 171 -29.5t130 -83.5l4 2
l12 100h107l-104 -860q-13 -110 -40 -196t-65.5 -145.5t-84.5 -100.5t-104 -63.5t-117 -32t-130 -9.5zM449 119q99 0 190.5 69t150.5 179.5t76 234.5l23 176q-48 66 -130.5 95.5t-156.5 29.5q-118 0 -211.5 -72.5t-141.5 -182.5t-48 -232q0 -133 65 -215t183 -82z" />
    <glyph glyph-name="uni0272" unicode="&#x272;" horiz-adv-x="1105" 
d="M727 1004q149 0 212 -98t36 -308l-80 -598h-107l78 592q10 89 4.5 149t-30 96t-58.5 51t-82 15q-90 0 -184.5 -63.5t-165.5 -178.5t-88 -249l-49 -412h-2q-26 -220 -91 -317t-210 -97q-50 0 -100 17l18 88q38 -13 76 -13q93 0 135 68.5t65 253.5l15 119l108 874h109
l-35 -270h4q75 129 188.5 205t233.5 76z" />
    <glyph glyph-name="uni02BB" unicode="&#x2bb;" horiz-adv-x="342" 
d="M174 885l74 469h84l-45 -469h-113z" />
    <glyph glyph-name="uni02BC" unicode="&#x2bc;" horiz-adv-x="286" 
d="M131 1081l92 373h113l-121 -373h-84z" />
    <glyph glyph-name="uni02BE" unicode="&#x2be;" horiz-adv-x="436" 
d="M213 1505q114 -4 180 -72t66 -171q0 -123 -84.5 -211.5t-220.5 -94.5l-4 84q94 5 156.5 65t62.5 152q0 72 -46 116t-128 48z" />
    <glyph glyph-name="uni02BF" unicode="&#x2bf;" horiz-adv-x="442" 
d="M410 956q-114 4 -180 72.5t-66 171.5q0 123 84.5 211t220.5 94l4 -84q-94 -5 -156.5 -65t-62.5 -152q0 -72 46 -116t128 -48z" />
    <glyph glyph-name="circumflex" unicode="&#x2c6;" horiz-adv-x="954" 
d="M279 1112l251 287h105l190 -287h-112l-131 213h-2l-187 -213h-114z" />
    <glyph glyph-name="caron" unicode="&#x2c7;" horiz-adv-x="954" 
d="M496 1114l-181 275h107l133 -201h4l189 201h110l-258 -275h-104z" />
    <glyph glyph-name="uni02C8" unicode="&#x2c8;" horiz-adv-x="337" 
d="M158 793l57 514h94l-59 -512z" />
    <glyph glyph-name="uni02C9" unicode="&#x2c9;" horiz-adv-x="724" 
d="M197 1245l12 94h514l-12 -94h-514z" />
    <glyph glyph-name="uni02CA" unicode="&#x2ca;" horiz-adv-x="567" 
d="M231 1147l256 283h127l-264 -283h-119z" />
    <glyph glyph-name="uni02CB" unicode="&#x2cb;" horiz-adv-x="573" 
d="M397 1147l-196 283h125l186 -283h-115z" />
    <glyph glyph-name="uni02CC" unicode="&#x2cc;" horiz-adv-x="337" 
d="M29 -332l57 514h94l-59 -512z" />
    <glyph glyph-name="breve" unicode="&#x2d8;" horiz-adv-x="882" 
d="M514 1110q-113 0 -168.5 71t-46.5 203h88q-14 -184 131 -184q77 0 130 52t65 132h88q-23 -128 -101 -201t-186 -73z" />
    <glyph glyph-name="dotaccent" unicode="&#x2d9;" horiz-adv-x="937" 
d="M561 1180q-36 0 -59 24.5t-23 61.5q0 38 24.5 63t61.5 25t61.5 -23.5t24.5 -60.5q0 -39 -25.5 -64.5t-64.5 -25.5z" />
    <glyph glyph-name="ring" unicode="&#x2da;" horiz-adv-x="870" 
d="M524 1092q-72 0 -120 48t-48 120q0 75 49.5 123.5t124.5 48.5q74 0 122 -47t48 -119q0 -75 -50.5 -124.5t-125.5 -49.5zM526 1167q43 0 71 28t28 69t-27.5 67.5t-67.5 26.5q-41 0 -68.5 -27.5t-27.5 -68.5t26 -68t66 -27z" />
    <glyph glyph-name="ogonek" unicode="&#x2db;" horiz-adv-x="890" 
d="M410 -375q-78 0 -119.5 38t-38.5 108q3 68 55.5 136.5t132.5 121.5l84 -29q-83 -46 -130 -101.5t-48 -111.5q-2 -36 19 -59t65 -23q52 0 100 23l5 -78q-55 -25 -125 -25z" />
    <glyph glyph-name="tilde" unicode="&#x2dc;" horiz-adv-x="964" 
d="M711 1141q-31 0 -62.5 14.5t-47.5 27.5t-44 38q-66 51 -102 51q-78 0 -131 -121l-74 35q74 178 196 178q29 0 57 -11t42 -22t41 -33q28 -23 39.5 -32t34.5 -21t42 -12q35 0 69 31.5t58 91.5l72 -31q-34 -90 -85 -137t-105 -47z" />
    <glyph glyph-name="hungarumlaut" unicode="&#x2dd;" horiz-adv-x="970" 
d="M254 1116l254 283h121l-264 -283h-111zM535 1116l251 283h121l-264 -283h-108z" />
    <glyph glyph-name="gravecomb" unicode="&#x300;" 
d="M-911 1116l-197 283h125l186 -283h-114z" />
    <glyph glyph-name="acutecomb" unicode="&#x301;" 
d="M-1108 1116l256 283h127l-264 -283h-119z" />
    <glyph glyph-name="uni0302" unicode="&#x302;" 
d="M-1223 1112l252 287h105l190 -287h-112l-132 213h-2l-186 -213h-115z" />
    <glyph glyph-name="tildecomb" unicode="&#x303;" 
d="M-797 1141q-30 0 -62 15t-47 27t-44 38q-66 51 -103 51q-78 0 -131 -121l-73 35q74 178 196 178q29 0 56.5 -11.5t41.5 -21.5t41 -33q27 -22 39.5 -32t35.5 -21.5t42 -11.5q35 0 69 31.5t58 91.5l72 -31q-34 -89 -85 -136.5t-106 -47.5z" />
    <glyph glyph-name="uni0304" unicode="&#x304;" 
d="M-1192 1214l12 95h514l-12 -95h-514z" />
    <glyph glyph-name="uni0306" unicode="&#x306;" 
d="M-954 1110q-113 0 -168.5 71t-46.5 203h88q-14 -184 131 -184q77 0 129.5 51.5t64.5 132.5h88q-23 -129 -100.5 -201.5t-185.5 -72.5z" />
    <glyph glyph-name="uni0307" unicode="&#x307;" 
d="M-932 1180q-36 0 -59 24.5t-23 61.5q0 38 24.5 63t61.5 25t61.5 -23.5t24.5 -60.5q0 -39 -25.5 -64.5t-64.5 -25.5z" />
    <glyph glyph-name="uni0308" unicode="&#x308;" 
d="M-1090 1180q-37 0 -60.5 24.5t-23.5 61.5q0 38 25 63t62 25q38 0 63 -23.5t25 -60.5q0 -38 -26.5 -64t-64.5 -26zM-778 1180q-37 0 -60.5 24.5t-23.5 61.5q0 38 25 63t63 25q37 0 61.5 -23.5t24.5 -60.5q0 -38 -26 -64t-64 -26z" />
    <glyph glyph-name="hookabovecomb" unicode="&#x309;" 
d="M-922 1104l-88 2q191 142 191 219q0 61 -80 61q-98 0 -174 -67l-17 72q102 75 218 75q65 0 104 -29.5t39 -90.5q0 -36 -19.5 -73.5t-51.5 -69.5t-61.5 -55.5t-60.5 -43.5z" />
    <glyph glyph-name="uni030A" unicode="&#x30a;" 
d="M-936 1102q-72 0 -120 48t-48 120q0 75 49.5 123.5t124.5 48.5q74 0 122 -47t48 -119q0 -75 -50.5 -124.5t-125.5 -49.5zM-934 1178q43 0 70.5 27.5t27.5 68.5t-27 67.5t-67 26.5q-41 0 -68.5 -27.5t-27.5 -68.5t26 -67.5t66 -26.5z" />
    <glyph glyph-name="uni030B" unicode="&#x30b;" 
d="M-1143 1116l254 283h121l-264 -283h-111zM-862 1116l252 283h121l-265 -283h-108z" />
    <glyph glyph-name="uni030C" unicode="&#x30c;" 
d="M-1006 1114l-180 275h107l133 -201h4l188 201h111l-258 -275h-105z" />
    <glyph glyph-name="uni0312" unicode="&#x312;" 
d="M-973 1106v45q0 118 52.5 187.5t162.5 76.5l19 -67q-73 -12 -106.5 -59.5t-33.5 -141.5q0 -27 2 -41h-96z" />
    <glyph glyph-name="uni0313" unicode="&#x313;" 
d="M-1036 1409v-45q0 -118 -52.5 -187.5t-162.5 -76.5l-19 67q73 12 106.5 59.5t33.5 141.5q0 20 -3 41h97z" />
    <glyph glyph-name="uni031B" unicode="&#x31b;" 
d="M-909 958q-30 0 -80 13l18 73q38 -10 60 -10q58 0 91 55t48 177l22 188h105l-27 -203q-37 -293 -237 -293z" />
    <glyph glyph-name="dotbelowcomb" unicode="&#x323;" 
d="M-1122 -223q36 0 59 -24.5t23 -61.5q0 -38 -24.5 -63t-61.5 -25t-61.5 23.5t-24.5 60.5q0 39 25.5 64.5t64.5 25.5z" />
    <glyph glyph-name="uni0324" unicode="&#x324;" 
d="M-1276 -223q37 0 60.5 -24.5t23.5 -61.5q0 -38 -25 -63t-63 -25q-37 0 -61.5 23.5t-24.5 60.5q0 38 26 64t64 26zM-965 -223q37 0 60.5 -24.5t23.5 -61.5q0 -38 -24.5 -63t-61.5 -25q-38 0 -63 23.5t-25 60.5q0 38 26 64t64 26z" />
    <glyph glyph-name="uni0326" unicode="&#x326;" 
d="M-1284 -422l-19 70q74 12 107 58t33 142q0 25 -2 41h96q0 -1 1 -14.5t1 -30.5q0 -118 -53.5 -187.5t-163.5 -78.5z" />
    <glyph glyph-name="uni0327" unicode="&#x327;" 
d="M-1184 -377q-47 0 -86 8l6 70q31 -10 74 -10q62 0 99.5 27.5t37.5 80.5q0 71 -143 74l8 55l45 84h76l-49 -84l2 -2q143 -10 143 -125q0 -85 -59.5 -131.5t-153.5 -46.5z" />
    <glyph glyph-name="uni0328" unicode="&#x328;" 
d="M-1204 -375q-78 0 -119.5 38t-38.5 108q3 68 55.5 136.5t132.5 121.5l84 -29q-83 -46 -130 -101.5t-48 -111.5q-2 -36 19 -59t65 -23q53 0 101 23l4 -78q-55 -25 -125 -25z" />
    <glyph glyph-name="uni032E" unicode="&#x32e;" 
d="M-1137 -436q-113 0 -168.5 71t-46.5 203h88q-14 -184 131 -184q77 0 130 52t65 132h88q-23 -128 -101 -201t-186 -73z" />
    <glyph glyph-name="uni0331" unicode="&#x331;" 
d="M-1384 -373l12 94h514l-12 -94h-514z" />
    <glyph glyph-name="uni0335" unicode="&#x335;" 
d="M-1253 530l10 84h479l-10 -84h-479z" />
    <glyph glyph-name="uni0400" unicode="&#x400;" horiz-adv-x="1118" 
d="M772 1618l-201 262l127 -2l189 -260h-115zM131 0l178 1454h787l-13 -106h-673l-70 -570h557l-10 -106h-559l-70 -566h711l-13 -106h-825z" />
    <glyph glyph-name="uni0401" unicode="&#x401;" horiz-adv-x="1118" 
d="M604 1700q-37 0 -60.5 24.5t-23.5 61.5q0 38 24.5 63t61.5 25q38 0 63 -23.5t25 -60.5q0 -38 -26 -64t-64 -26zM915 1700q-37 0 -60.5 24.5t-23.5 61.5q0 38 25.5 63t63.5 25q37 0 61.5 -23.5t24.5 -60.5q0 -38 -26.5 -64t-64.5 -26zM131 0l178 1454h787l-13 -106h-673
l-70 -570h557l-10 -106h-559l-70 -566h711l-13 -106h-825z" />
    <glyph glyph-name="uni0402" unicode="&#x402;" horiz-adv-x="1470" 
d="M965 895q88 0 163.5 -24t133.5 -71t91 -123.5t33 -174.5q0 -126 -42 -224.5t-117 -160t-173 -93.5t-214 -32q-67 0 -119 8l16 98q40 -6 94 -6q201 0 319 108t118 296q0 142 -89 216t-243 74q-189 0 -352 -98l-84 -688h-115l166 1348h-406l11 106h934l-15 -106h-409
l-68 -553q80 45 177.5 72.5t189.5 27.5z" />
    <glyph glyph-name="uni0403" unicode="&#x403;" horiz-adv-x="1030" 
d="M565 1614l252 260l125 2l-262 -262h-115zM131 0l180 1454h789l-13 -106h-675l-166 -1348h-115z" />
    <glyph glyph-name="uni0404" unicode="&#x404;" horiz-adv-x="1343" 
d="M877 1356q-151 0 -277 -78.5t-205.5 -207t-111.5 -288.5h747l-14 -104h-748q-2 -25 -2 -74q0 -235 119 -369.5t326 -134.5q120 0 235 48.5t201 144.5l86 -72q-97 -109 -235 -170t-291 -61q-254 0 -407 162t-153 450q0 170 54 327t148.5 275.5t232.5 189t297 70.5
q294 0 469 -241l-91 -74q-75 109 -167.5 158t-212.5 49z" />
    <glyph glyph-name="uni0405" unicode="&#x405;" horiz-adv-x="1101" 
d="M522 -10q-137 0 -262.5 61t-200.5 176l86 76q65 -102 163.5 -153.5t207.5 -51.5q152 0 247 81t95 212q0 27 -8.5 52.5t-18 44.5t-34 42.5t-39.5 36.5t-52.5 36.5t-54.5 33t-63 35.5q-26 15 -39 22q-46 25 -64 35.5t-60.5 35.5t-61.5 40.5t-51 42t-47.5 49.5t-33.5 53.5
t-25 64t-7 70.5q0 169 122 274t312 105q113 0 217 -47t176 -131l-82 -76q-63 75 -147 111.5t-172 36.5q-134 0 -221 -72t-87 -188q1 -50 21 -91t61 -75.5t81.5 -60.5t104.5 -62q10 -5 15 -8q15 -9 56 -32t57 -32.5t52 -31.5t51.5 -34t43.5 -34t41 -38.5t31.5 -41t26.5 -47
t14 -50t6 -57.5q0 -191 -128 -302t-329 -111z" />
    <glyph glyph-name="uni0406" unicode="&#x406;" horiz-adv-x="522" 
d="M143 0l179 1454h114l-178 -1454h-115z" />
    <glyph glyph-name="uni0407" unicode="&#x407;" horiz-adv-x="522" 
d="M262 1696q-37 0 -60.5 24.5t-23.5 61.5q0 38 24.5 63t61.5 25q38 0 63 -23.5t25 -60.5q0 -38 -26 -64t-64 -26zM573 1696q-37 0 -60.5 24.5t-23.5 61.5q0 38 25.5 63t63.5 25q37 0 61.5 -23.5t24.5 -60.5q0 -38 -26.5 -64t-64.5 -26zM143 0l179 1454h114l-178 -1454h-115
z" />
    <glyph glyph-name="uni0408" unicode="&#x408;" horiz-adv-x="925" 
d="M340 -10q-90 0 -177.5 50t-142.5 142l78 82q46 -76 110.5 -120t131.5 -44q259 0 301 367l121 987h115l-121 -993q-29 -239 -131.5 -355t-284.5 -116z" />
    <glyph glyph-name="uni0409" unicode="&#x409;" horiz-adv-x="2037" 
d="M1544 854q120 0 204 -29.5t128 -84t62 -118t16 -145.5q-4 -232 -147.5 -354.5t-397.5 -122.5h-403l165 1348h-512q-67 -423 -143 -740q-57 -235 -123.5 -371t-144.5 -190.5t-185 -54.5q-44 0 -86 14l17 98q24 -6 57 -6q78 0 139.5 52t116.5 174t103 325q88 362 153 805
h735l-73 -600h319zM1835 471q1 149 -73.5 214t-237.5 65h-312l-79 -644h286q191 0 303 94t113 271z" />
    <glyph glyph-name="uni040A" unicode="&#x40a;" horiz-adv-x="2025" 
d="M1530 813q119 0 203.5 -29.5t128 -81t61.5 -109t16 -126.5q-4 -225 -147.5 -346t-396.5 -121h-416l86 696h-733l-86 -696h-115l178 1454h115l-80 -651h733l80 651h115l-80 -641h338zM1823 463q1 124 -75.5 184t-236.5 60h-331l-74 -601h299q191 0 303 92.5t115 264.5z
" />
    <glyph glyph-name="uni040B" unicode="&#x40b;" horiz-adv-x="1460" 
d="M1020 891q202 0 272.5 -106.5t40.5 -344.5l-55 -440h-115l56 442q23 191 -28 266.5t-204 75.5q-83 0 -184 -26.5t-199 -83.5l-84 -674h-114l165 1348h-405l10 106h934l-14 -106h-410l-70 -568q92 49 207.5 80t196.5 31z" />
    <glyph glyph-name="uni040C" unicode="&#x40c;" horiz-adv-x="1204" 
d="M983 1876l-262 -262h-115l252 260zM1243 1454l-588 -663l420 -791h-133l-371 707l-278 -312l-47 -395h-115l178 1454h115l-109 -881l4 -2l779 883h145z" />
    <glyph glyph-name="uni040D" unicode="&#x40d;" horiz-adv-x="1396" 
d="M866 1614l-200 262l127 -2l188 -260h-115zM131 0l178 1454h115l-154 -1247h2l945 1247h106l-176 -1454h-117l152 1237h-2l-940 -1237h-109z" />
    <glyph glyph-name="uni040E" unicode="&#x40e;" horiz-adv-x="1204" 
d="M741 1606q-111 0 -176.5 65.5t-64.5 188.5l96 8q-3 -78 37.5 -129t120.5 -51q79 0 138 53t87 133l84 -23q-44 -120 -131 -182.5t-191 -62.5zM1145 1454h125l-578 -1098q-85 -162 -119 -211q-84 -123 -190 -147q-32 -8 -68 -8q-57 0 -114 20.5t-88 57.5l41 96
q64 -70 157 -70q42 0 77 17t67.5 56t59.5 83.5t65 118.5l-408 1085h125l348 -960h4z" />
    <glyph glyph-name="uni040F" unicode="&#x40f;" horiz-adv-x="1323" 
d="M1249 1454l-178 -1454h-418l-43 -295h-96l31 295h-414l180 1454h113l-166 -1348h711l166 1348h114z" />
    <glyph glyph-name="uni0410" unicode="&#x410;" horiz-adv-x="1241" 
d="M-2 0l676 1454h123l325 -1454h-118l-84 391h-623l-180 -391h-119zM342 496h557l-178 813h-4z" />
    <glyph glyph-name="uni0411" unicode="&#x411;" horiz-adv-x="1171" 
d="M131 0l180 1454h768l-14 -106h-653l-62 -500h301q120 0 204 -28.5t128.5 -81.5t63 -116.5t16.5 -144.5q-4 -231 -147.5 -354t-393.5 -123h-391zM258 106h268q192 0 304.5 93.5t113.5 271.5q1 148 -73.5 211t-237.5 63h-295z" />
    <glyph glyph-name="uni0412" unicode="&#x412;" horiz-adv-x="1202" 
d="M131 0l178 1454h432q160 0 256.5 -69.5t96.5 -221.5q0 -125 -68.5 -235t-191.5 -154v-4q112 -27 177.5 -100.5t65.5 -200.5q0 -226 -143 -347.5t-397 -121.5h-406zM344 809h307q144 0 235 95.5t91 244.5q0 99 -62.5 149t-199.5 50h-305zM258 106h283q193 0 305 93
t112 270q0 121 -76 179.5t-233 58.5h-317z" />
    <glyph glyph-name="uni0413" unicode="&#x413;" horiz-adv-x="1030" 
d="M131 0l180 1454h789l-13 -106h-675l-166 -1348h-115z" />
    <glyph glyph-name="uni0414" unicode="&#x414;" horiz-adv-x="1449" 
d="M1350 106l-56 -401h-98l31 295h-1139l-47 -295h-98l53 401h162q162 229 268 596q80 281 143 752h762l-168 -1348h187zM532 662q-97 -347 -243 -556h760l153 1242h-534q-48 -382 -136 -686z" />
    <glyph glyph-name="uni0415" unicode="&#x415;" horiz-adv-x="1118" 
d="M131 0l178 1454h787l-13 -106h-673l-70 -570h557l-10 -106h-559l-70 -566h711l-13 -106h-825z" />
    <glyph glyph-name="uni0416" unicode="&#x416;" horiz-adv-x="1720" 
d="M1782 1454l-563 -694l395 -760h-131l-355 680l-229 -272l-47 -408h-111l50 412l-156 270l-520 -682h-133l581 762l-393 692h131l504 -891l6 2l109 889h110l-108 -889l2 -2l718 891h140z" />
    <glyph glyph-name="uni0417" unicode="&#x417;" horiz-adv-x="1153" 
d="M545 -10q-152 0 -276.5 59t-198.5 168l86 76q65 -96 166 -145.5t225 -49.5q172 0 271.5 91.5t99.5 250.5q0 269 -326 269h-221l14 102h197q162 0 260 89.5t98 225.5q0 109 -71.5 170.5t-206.5 61.5q-179 0 -338 -111l-72 84q182 133 418 133q111 0 196.5 -33t138 -105.5
t52.5 -176.5q0 -126 -69 -225t-197 -148v-4q110 -30 177.5 -113.5t67.5 -222.5q0 -206 -131.5 -326t-359.5 -120z" />
    <glyph glyph-name="uni0418" unicode="&#x418;" horiz-adv-x="1396" 
d="M131 0l178 1454h115l-154 -1247h2l945 1247h106l-176 -1454h-117l152 1237h-2l-940 -1237h-109z" />
    <glyph glyph-name="uni0419" unicode="&#x419;" horiz-adv-x="1396" 
d="M834 1606q-111 0 -177 65.5t-65 188.5l96 8q-3 -78 37.5 -129t120.5 -51q79 0 138 53t87 133l84 -23q-44 -120 -130.5 -182.5t-190.5 -62.5zM131 0l178 1454h115l-154 -1247h2l945 1247h106l-176 -1454h-117l152 1237h-2l-940 -1237h-109z" />
    <glyph glyph-name="uni041A" unicode="&#x41a;" horiz-adv-x="1204" 
d="M1243 1454l-588 -663l420 -791h-133l-371 707l-278 -312l-47 -395h-115l178 1454h115l-109 -881l4 -2l779 883h145z" />
    <glyph glyph-name="uni041B" unicode="&#x41b;" horiz-adv-x="1372" 
d="M563 1454h735l-180 -1454h-112l165 1348h-512q-67 -423 -143 -740q-57 -235 -123.5 -371t-144.5 -190.5t-185 -54.5q-44 0 -86 14l17 98q24 -6 57 -6q78 0 139.5 52t116.5 174t103 325q88 362 153 805z" />
    <glyph glyph-name="uni041C" unicode="&#x41c;" horiz-adv-x="1654" 
d="M131 0l178 1454h115l397 -1001h6l639 1001h113l-176 -1454h-115l148 1210h-6l-582 -905h-84l-367 920h-4l-147 -1225h-115z" />
    <glyph glyph-name="uni041D" unicode="&#x41d;" horiz-adv-x="1368" 
d="M131 0l178 1454h115l-88 -713h758l86 713h114l-178 -1454h-115l78 635h-755l-78 -635h-115z" />
    <glyph glyph-name="uni041E" unicode="&#x41e;" horiz-adv-x="1546" 
d="M715 -10q-260 0 -416 161.5t-156 446.5q0 136 34 264.5t99.5 237t155 190.5t207.5 128t250 46q260 0 415.5 -159.5t155.5 -446.5q0 -139 -33 -268.5t-97.5 -238t-153.5 -189.5t-207.5 -126.5t-253.5 -45.5zM721 98q138 0 255 62t196 166.5t123 242t44 287.5
q0 242 -122 372t-338 130q-135 0 -252 -64t-196 -169.5t-124 -242t-45 -282.5q0 -239 123 -370.5t336 -131.5z" />
    <glyph glyph-name="uni041F" unicode="&#x41f;" horiz-adv-x="1325" 
d="M131 0l180 1454h940l-180 -1454h-113l166 1348h-712l-166 -1348h-115z" />
    <glyph glyph-name="uni0420" unicode="&#x420;" horiz-adv-x="1153" 
d="M131 0l178 1454h451q185 0 277.5 -93t92.5 -263q0 -232 -135.5 -370t-378.5 -138h-299l-71 -590h-115zM330 694h299q180 0 281.5 109.5t101.5 294.5q0 125 -75 187.5t-200 62.5h-327z" />
    <glyph glyph-name="uni0421" unicode="&#x421;" horiz-adv-x="1376" 
d="M709 -10q-253 0 -407.5 163t-154.5 449q0 170 55 327t150.5 275.5t234 189t296.5 70.5q308 0 499 -309l-98 -68q-82 143 -178.5 206t-224.5 63q-134 0 -250.5 -63.5t-195.5 -168t-124 -240.5t-45 -280q0 -233 120 -368.5t327 -135.5q113 0 228 53.5t204 151.5l86 -72
q-99 -111 -237 -177t-285 -66z" />
    <glyph glyph-name="uni0422" unicode="&#x422;" horiz-adv-x="1050" 
d="M406 0l165 1348h-405l12 106h932l-14 -106h-410l-166 -1348h-114z" />
    <glyph glyph-name="uni0423" unicode="&#x423;" horiz-adv-x="1204" 
d="M1145 1454h125l-578 -1098q-85 -162 -119 -211q-84 -123 -190 -147q-32 -8 -68 -8q-57 0 -114 20.5t-88 57.5l41 96q64 -70 157 -70q42 0 77 17t67.5 56t59.5 83.5t65 118.5l-408 1085h125l348 -960h4z" />
    <glyph glyph-name="uni0424" unicode="&#x424;" horiz-adv-x="1599" 
d="M1518 823q0 -137 -47 -258t-134.5 -214.5t-223 -149.5t-302.5 -60l-18 -141h-113l18 141q-254 11 -405.5 150t-151.5 375q0 137 49 261t137.5 219.5t223.5 153.5t297 62l14 117h113l-14 -117q253 -12 405 -153.5t152 -385.5zM260 670q0 -193 119 -304t332 -120l127 1014
q-172 -7 -305 -87t-203 -211t-70 -292zM821 246q177 6 309.5 83.5t200.5 204.5t68 283q0 204 -117.5 319t-335.5 124z" />
    <glyph glyph-name="uni0425" unicode="&#x425;" horiz-adv-x="1183" 
d="M0 0l545 727l-363 727h129l316 -637h6l467 637h141l-545 -729l367 -725h-135l-316 631h-6l-471 -631h-135z" />
    <glyph glyph-name="uni0426" unicode="&#x426;" horiz-adv-x="1351" 
d="M1251 106l-55 -401h-96l30 295h-999l180 1454h113l-166 -1348h694l166 1348h115l-168 -1348h186z" />
    <glyph glyph-name="uni0427" unicode="&#x427;" horiz-adv-x="1206" 
d="M1016 1454h117l-181 -1454h-114l75 623q-92 -49 -207 -78t-204 -29q-207 0 -281.5 107.5t-44.5 345.5l62 485h114l-61 -487q-23 -192 28.5 -268t208.5 -76q81 0 190 25.5t210 78.5z" />
    <glyph glyph-name="uni0428" unicode="&#x428;" horiz-adv-x="1843" 
d="M1655 1454h114l-180 -1454h-1458l180 1454h113l-166 -1348h559l166 1348h115l-168 -1348h559z" />
    <glyph glyph-name="uni0429" unicode="&#x429;" horiz-adv-x="1888" 
d="M1786 106l-53 -401h-99l31 295h-1534l180 1454h113l-166 -1348h559l166 1348h115l-168 -1348h559l166 1348h114l-167 -1348h184z" />
    <glyph glyph-name="uni042A" unicode="&#x42a;" horiz-adv-x="1355" 
d="M862 854q120 0 204 -29.5t128 -84t62 -118t16 -145.5q-4 -232 -147.5 -354.5t-397.5 -122.5h-403l168 1348h-375l12 106h489l-73 -600h317zM1153 471q3 148 -72 213.5t-237 65.5h-314l-79 -644h286q192 0 303.5 93.5t112.5 271.5z" />
    <glyph glyph-name="uni042B" unicode="&#x42b;" horiz-adv-x="1605" 
d="M131 0l180 1454h113l-74 -600h289q120 0 204 -29.5t128 -84t62 -118t16 -145.5q-4 -232 -147.5 -354.5t-397.5 -122.5h-373zM1239 0l178 1454h115l-178 -1454h-115zM258 106h256q192 0 303.5 93.5t114.5 271.5q1 149 -74 214t-237 65h-283z" />
    <glyph glyph-name="uni042C" unicode="&#x42c;" horiz-adv-x="1163" 
d="M131 0l180 1454h113l-74 -600h320q97 0 170 -20t118.5 -54t73.5 -83t38 -102.5t9 -117.5q-4 -232 -147 -354.5t-397 -122.5h-404zM258 106h287q191 0 303 94t113 271q1 149 -73.5 214t-238.5 65h-311z" />
    <glyph glyph-name="uni042D" unicode="&#x42d;" horiz-adv-x="1361" 
d="M713 1464q260 0 408.5 -164.5t148.5 -445.5q0 -139 -31.5 -268t-94.5 -237t-150 -188.5t-204 -125.5t-251 -45q-325 0 -486 243l90 76q55 -95 155.5 -153t242.5 -58q230 0 391 162.5t207 417.5h-756l14 104h754q0 12 1 33t1 33q0 237 -120.5 373.5t-330.5 136.5
q-206 0 -389 -154l-71 82q207 178 471 178z" />
    <glyph glyph-name="uni042E" unicode="&#x42e;" horiz-adv-x="1957" 
d="M1325 1464q250 0 402.5 -160.5t152.5 -443.5q0 -139 -33 -269t-97 -238.5t-151 -190t-202.5 -127t-245.5 -45.5q-246 0 -396.5 159.5t-150.5 438.5q0 35 2 51h-291l-77 -639h-115l178 1454h115l-86 -709h286q29 198 122.5 359.5t247 260.5t339.5 99zM1155 98
q134 0 249 62.5t192.5 167.5t121 243t43.5 289q0 234 -119.5 365t-322.5 131q-171 0 -310 -109t-213.5 -282.5t-74.5 -370.5q0 -234 118.5 -365t315.5 -131z" />
    <glyph glyph-name="uni042F" unicode="&#x42f;" horiz-adv-x="1210" 
d="M666 1454h471l-181 -1454h-112l69 582h-329h-15l-409 -582h-133l428 604q-135 34 -203 129t-68 221q0 223 127 361.5t355 138.5zM928 688l80 660h-342q-169 0 -266 -103t-97 -282q0 -132 78 -203.5t217 -71.5h330z" />
    <glyph glyph-name="uni0430" unicode="&#x430;" horiz-adv-x="1110" 
d="M434 -10q-108 0 -187 53.5t-117 142.5t-38 201q0 165 61.5 305t179 226t267.5 86q89 0 169 -30t128 -85l6 2l12 102h107l-121 -993h-106l32 270h-4q-71 -129 -171 -204.5t-218 -75.5zM449 88q103 0 194 74.5t149.5 195.5t77.5 263l21 157q-50 66 -132.5 96.5t-156.5 30.5
q-119 0 -212 -74t-141 -192t-48 -254q0 -133 65 -215t183 -82z" />
    <glyph glyph-name="uni0431" unicode="&#x431;" horiz-adv-x="1128" 
d="M530 -10q-181 0 -293 132t-112 372q0 177 33 335t98 290t173.5 219.5t248.5 109.5q31 5 104 14.5t106.5 15t82 20t84.5 34.5l22 -90q-36 -25 -87 -41.5t-90 -23t-107.5 -15.5t-100.5 -14q-94 -15 -169.5 -65t-128 -129t-87 -175t-55.5 -213l4 -2q64 111 169.5 175.5
t229.5 64.5q169 0 279 -108t110 -298q0 -170 -60.5 -307t-178.5 -219t-275 -82zM532 90q177 0 290.5 140.5t113.5 361.5q0 152 -85.5 232.5t-213.5 80.5q-113 0 -207.5 -61.5t-146.5 -158.5t-52 -204q0 -184 84.5 -287.5t216.5 -103.5z" />
    <glyph glyph-name="uni0432" unicode="&#x432;" horiz-adv-x="1009" 
d="M711 532q90 -17 140 -77t50 -144q0 -147 -115 -234t-284 -87q-196 0 -306 104.5t-110 298.5q0 119 38 229t106 195t171.5 136t225.5 51q54 0 104 -12t94.5 -36.5t71.5 -70t27 -105.5q0 -173 -213 -243v-5zM629 909q-160 0 -279.5 -115.5t-150.5 -291.5l327 57
q289 54 289 207q0 42 -17 71.5t-46.5 44t-59 21t-63.5 6.5zM506 88q122 0 204.5 60.5t82.5 160.5q0 92 -80 135t-226 19l-299 -49v-19q0 -149 81 -228t237 -79z" />
    <glyph glyph-name="uni0433" unicode="&#x433;" horiz-adv-x="858" 
d="M365 -10q-149 0 -227.5 59.5t-78.5 159.5q0 93 61 164t191 137l181 92q106 54 145 94.5t39 96.5q0 52 -46 83t-132 31q-149 0 -260 -100l-62 76q57 52 147.5 86.5t184.5 34.5q121 0 199.5 -52.5t78.5 -152.5q0 -94 -55.5 -153.5t-177.5 -123.5l-193 -96
q-104 -54 -147 -103t-43 -106q0 -61 53 -96t146 -35q168 0 295 139l79 -57q-152 -178 -378 -178z" />
    <glyph glyph-name="uni0434" unicode="&#x434;" horiz-adv-x="1103" 
d="M492 -8q-185 0 -294.5 111.5t-109.5 304.5q0 162 65 298t182.5 217t262.5 81q87 0 170.5 -35.5t140.5 -100.5l2 2q-11 233 -100.5 361.5t-271.5 169.5q-65 20 -170 24l24 93q112 -1 203.5 -24.5t156 -61.5t113.5 -94t78 -116.5t47 -134.5t24.5 -142t6.5 -146
q-1 -137 -20 -255.5t-60 -221t-102 -175t-149.5 -114t-198.5 -41.5zM492 92q132 0 228 88.5t143.5 237.5t49.5 342q-56 78 -139 111.5t-156 33.5q-184 0 -302.5 -141.5t-118.5 -347.5q0 -152 81 -238t214 -86z" />
    <glyph glyph-name="uni0435" unicode="&#x435;" horiz-adv-x="954" 
d="M483 92q163 0 287 139l82 -61q-76 -89 -165 -133.5t-206 -44.5q-175 0 -282 110.5t-107 300.5q0 163 63 299.5t182 219t269 82.5q48 0 96.5 -13t95 -40t76 -77.5t29.5 -117.5q0 -55 -23.5 -102t-62.5 -82t-95.5 -63.5t-117 -48t-133 -34t-137 -23t-135.5 -14.5
q4 -140 82.5 -218.5t201.5 -78.5zM604 905q-152 0 -265.5 -118.5t-135.5 -307.5q108 9 201 25t187 46t149 81t55 119q0 44 -18.5 76.5t-49 48.5t-61 23t-62.5 7z" />
    <glyph glyph-name="uni0436" unicode="&#x436;" horiz-adv-x="1433" 
d="M1165 283q49 -118 81.5 -156.5t82.5 -46.5l-31 -88q-33 0 -47 4q-33 7 -59 26.5t-48 55.5t-38.5 73t-38.5 97l-72 168q-130 -100 -262 -150l-33 -266h-106l74 588l-4 2q-195 -85 -328.5 -243.5t-194.5 -346.5h-106q36 131 118.5 258.5t194.5 230.5l-78 224
q-39 115 -74.5 153.5t-89.5 48.5l29 86q33 0 47 -4q65 -13 109 -76t78 -176l65 -184q119 90 246 133l37 299h104l-76 -622l3 -2q206 103 345.5 270t198.5 354h107q-38 -137 -121.5 -268t-198.5 -238z" />
    <glyph glyph-name="uni0437" unicode="&#x437;" horiz-adv-x="886" 
d="M389 -8q-223 0 -377 108l43 97q128 -107 338 -107q126 0 204.5 61.5t78.5 161.5q0 72 -58 113t-157 41h-201l12 86l148 2q109 0 193.5 57.5t84.5 149.5q0 41 -19 71t-50 45t-63.5 22t-67.5 7q-169 0 -308 -84l-38 90q154 91 350 91q52 0 103 -12t98.5 -37t76.5 -70.5
t29 -106.5q0 -92 -56.5 -154t-148.5 -96v-4q85 -18 132.5 -76t47.5 -137q0 -150 -110.5 -234.5t-284.5 -84.5z" />
    <glyph glyph-name="uni0438" unicode="&#x438;" horiz-adv-x="1069" 
d="M389 -10q-157 0 -225 96.5t-39 304.5l82 602h106l-80 -594q-12 -73 -7 -126.5t18 -88.5t39.5 -56t58 -29.5t72.5 -8.5q82 0 167.5 61t150.5 168t83 230l53 444h107l-121 -993h-109l35 266h-4q-68 -126 -170 -201t-217 -75z" />
    <glyph glyph-name="uni0439" unicode="&#x439;" horiz-adv-x="1069" 
d="M600 1143q-112 0 -177.5 67t-64.5 199l97 12q-3 -91 36 -143.5t119 -52.5q82 0 141.5 55.5t86.5 146.5l84 -26q-44 -129 -130 -193.5t-192 -64.5zM389 -10q-157 0 -225 96.5t-39 304.5l82 602h106l-80 -594q-12 -73 -7 -126.5t18 -88.5t39.5 -56t58 -29.5t72.5 -8.5
q82 0 167.5 61t150.5 168t83 230l53 444h107l-121 -993h-109l35 266h-4q-68 -126 -170 -201t-217 -75z" />
    <glyph glyph-name="uni043A" unicode="&#x43a;" horiz-adv-x="999" 
d="M106 0l121 993h107l-80 -649l4 -2q212 115 370.5 293.5t215.5 357.5h110q-36 -129 -120 -257.5t-201 -239.5l92 -213q53 -120 84 -157.5t80 -45.5l-31 -88q-33 0 -45 4q-31 6 -56 24t-45.5 50.5t-36.5 66t-39 85.5q-7 17 -11 26l-76 174q-137 -120 -311 -201l-25 -221
h-107z" />
    <glyph glyph-name="uni043B" unicode="&#x43b;" horiz-adv-x="1036" 
d="M623 993h321l-123 -993h-106l110 897h-194q-176 0 -219 -188q-13 -55 -33.5 -159t-32.5 -159q-48 -216 -126 -307.5t-181 -91.5q-46 0 -74 12l27 94q16 -8 41 -8q68 0 125 81.5t92 250.5q29 143 55 299q22 124 107.5 198t210.5 74z" />
    <glyph glyph-name="uni043C" unicode="&#x43c;" horiz-adv-x="1267" 
d="M100 0l123 993h107l282 -690h4l455 690h107l-123 -993h-105l101 803h-2l-412 -621h-76l-254 627h-2l-98 -809h-107z" />
    <glyph glyph-name="uni043D" unicode="&#x43d;" horiz-adv-x="1097" 
d="M897 993h107l-123 -993h-107l53 436l-561 -2l-53 -434h-109l123 993h109l-57 -465l561 4z" />
    <glyph glyph-name="uni043E" unicode="&#x43e;" horiz-adv-x="1103" 
d="M496 -10q-184 0 -295 110.5t-111 305.5q0 119 37 227t103 190.5t165.5 131.5t216.5 49q184 0 293 -106.5t109 -299.5q0 -170 -60.5 -307t-179.5 -219t-278 -82zM498 90q180 0 293.5 140.5t113.5 361.5q0 154 -82 233.5t-217 79.5q-177 0 -292 -142.5t-115 -348.5
q0 -149 81 -236.5t218 -87.5z" />
    <glyph glyph-name="uni043F" unicode="&#x43f;" horiz-adv-x="1105" 
d="M104 0l125 993h107l-35 -270h4q75 129 188.5 205t233.5 76q149 0 212 -98t36 -308l-80 -598h-107l78 592q10 89 4.5 149t-30 96t-58.5 51t-82 15q-90 0 -184.5 -63.5t-165.5 -178.5t-88 -249l-49 -412h-109z" />
    <glyph glyph-name="uni0440" unicode="&#x440;" horiz-adv-x="1132" 
d="M55 -406l172 1399h107l-33 -270l4 -2q68 131 169.5 207t232.5 76q158 0 246.5 -113t88.5 -285q0 -165 -61.5 -304.5t-180 -225.5t-270.5 -86q-89 0 -170 29t-131 83l-4 -2l-63 -506h-107zM514 90q94 0 174 41.5t133 112t83 163t30 193.5q0 135 -64 220t-184 85
q-106 0 -199 -73t-152 -191.5t-77 -257.5l-20 -166q42 -67 121.5 -97t154.5 -30z" />
    <glyph glyph-name="uni0441" unicode="&#x441;" horiz-adv-x="985" 
d="M473 -8q-164 0 -272.5 107.5t-108.5 299.5q0 164 62 301t182.5 220.5t277.5 83.5q103 0 191.5 -40.5t142.5 -119.5l-86 -66q-41 64 -107 95.5t-143 31.5q-123 0 -218 -68.5t-144 -181t-49 -247.5q0 -144 79 -230t199 -86q191 0 307 139l84 -61q-147 -178 -397 -178z" />
    <glyph glyph-name="uni0442" unicode="&#x442;" horiz-adv-x="1679" 
d="M106 0l121 993h107l-33 -258l6 -2q70 126 172 198.5t207 72.5q233 0 242 -267l4 -2q69 125 171 197t210 72q294 0 241 -406l-81 -598h-107l80 592q41 313 -156 313q-58 0 -121 -36t-118.5 -99t-97.5 -157t-56 -201l-53 -412h-107l78 592q21 169 -20.5 241t-132.5 72
q-59 0 -125 -39.5t-122.5 -104.5t-98.5 -157t-54 -190l-49 -414h-107z" />
    <glyph glyph-name="uni0443" unicode="&#x443;" horiz-adv-x="1067" 
d="M872 993h107l-107 -862q-15 -130 -51 -227.5t-82.5 -157t-109 -96.5t-125 -50.5t-137.5 -13.5q-171 0 -318 82l35 99q140 -82 285 -82q60 0 109 10.5t98.5 41t85.5 79.5t64.5 131t41.5 192l14 127l-4 2q-66 -127 -169.5 -202.5t-219.5 -75.5q-319 0 -264 401l82 602h106
l-80 -594q-12 -73 -6.5 -126.5t18.5 -88t40 -55.5t57.5 -29.5t71.5 -9.5q86 0 174 63.5t152 175t79 238.5z" />
    <glyph glyph-name="uni0444" unicode="&#x444;" horiz-adv-x="1456" 
d="M563 -406l74 582h-4q-41 -80 -115.5 -133t-152.5 -53q-138 0 -211.5 109.5t-71.5 295.5q1 164 48 300.5t141 222.5t218 86q70 0 133.5 -32t96.5 -87l4 2l76 620h106l-86 -690l4 -2q38 82 114 135.5t155 53.5q139 0 211.5 -109.5t70.5 -296.5q-1 -162 -47.5 -298.5
t-140.5 -223t-217 -86.5q-69 0 -134 32.5t-98 88.5l-4 -2l-63 -515h-107zM950 90q96 0 169 71.5t109.5 185.5t37.5 249q2 142 -49 226.5t-150 84.5q-104 0 -187 -124t-106 -310l-31 -252q37 -69 95.5 -100t111.5 -31zM391 88q103 0 186.5 123.5t106.5 310.5l29 252
q-36 69 -94.5 100t-112.5 31q-96 0 -169 -71.5t-109.5 -185.5t-37.5 -249q0 -144 50 -227.5t151 -83.5z" />
    <glyph glyph-name="uni0445" unicode="&#x445;" horiz-adv-x="917" 
d="M2 0l393 500l-270 493h125l215 -407h8l315 407h132l-396 -497l273 -496h-125l-219 410h-4l-322 -410h-125z" />
    <glyph glyph-name="uni0446" unicode="&#x446;" horiz-adv-x="1138" 
d="M1006 94h51l-58 -381h-92l37 285q-100 3 -135.5 62.5t-28.5 158.5q1 11 2 23t1.5 19t0.5 13h-4q-66 -126 -172.5 -205t-220.5 -79q-319 0 -264 401l82 602h106l-80 -594q-12 -73 -6.5 -126.5t19 -88.5t40 -56t58 -29.5t72.5 -8.5q127 0 250 136t149 321l55 446h107
l-86 -696q-14 -114 8.5 -158t108.5 -45z" />
    <glyph glyph-name="uni0447" unicode="&#x447;" horiz-adv-x="1001" 
d="M678 0l70 571h-5q-65 -112 -172 -178.5t-213 -66.5q-289 0 -243 333l47 334h106l-45 -327q-19 -131 23.5 -187.5t140.5 -54.5q82 0 167.5 54t147 143t74.5 184l25 188h108l-123 -993h-108z" />
    <glyph glyph-name="uni0448" unicode="&#x448;" horiz-adv-x="1617" 
d="M365 -10q-139 0 -203.5 100t-36.5 309l82 594h106l-80 -585q-44 -318 158 -318q49 0 106 33t109.5 90.5t92.5 148.5t53 195l53 436h108l-73 -594q-8 -92 -2.5 -152t30.5 -95t57 -48.5t76 -13.5q49 0 107.5 37t111 98t92.5 150.5t52 185.5l51 432h109l-123 -993h-107
l33 268h-4q-60 -125 -157.5 -201.5t-196.5 -76.5q-109 0 -172.5 70.5t-63.5 207.5h-4q-62 -123 -165.5 -200.5t-198.5 -77.5z" />
    <glyph glyph-name="uni0449" unicode="&#x449;" horiz-adv-x="1687" 
d="M1554 94h50l-58 -381h-92l37 285q-100 3 -134.5 62.5t-27.5 158.5q4 52 4 55h-4q-62 -127 -160.5 -205.5t-199.5 -78.5q-109 0 -172.5 70.5t-63.5 207.5h-4q-62 -123 -165.5 -200.5t-198.5 -77.5q-139 0 -203.5 100t-36.5 309l82 594h106l-80 -585q-44 -318 158 -318
q49 0 106 33t109.5 90.5t92.5 148.5t53 195l53 436h108l-73 -594q-8 -92 -2.5 -152t30.5 -95t57 -48.5t76 -13.5q49 0 107.5 37t111 98t92.5 150.5t52 185.5l51 432h109l-86 -696q-13 -115 9 -158.5t107 -44.5z" />
    <glyph glyph-name="uni044A" unicode="&#x44a;" horiz-adv-x="1056" 
d="M702 762q118 0 200.5 -78.5t82.5 -212.5q0 -132 -48 -239.5t-146.5 -174.5t-231.5 -67q-182 0 -260.5 106t-54.5 283l71 518h-245l12 96h352l-59 -411h4q43 74 131.5 127t191.5 53zM565 86q139 0 225.5 106t86.5 265q0 96 -59.5 151.5t-153.5 55.5q-70 0 -138 -35.5
t-117 -104t-59 -153.5q-19 -133 37 -209t178 -76z" />
    <glyph glyph-name="uni044B" unicode="&#x44b;" horiz-adv-x="1280" 
d="M412 -10q-182 0 -261 106.5t-55 282.5l84 614h107l-60 -411h4q42 72 130 126t188 54q111 0 191.5 -79t80.5 -212q0 -131 -47 -239t-141.5 -175t-220.5 -67zM958 0l123 993h107l-123 -993h-107zM418 86q128 0 211.5 106.5t83.5 264.5q0 95 -57 151t-140 56
q-109 0 -204 -83t-109 -210q-19 -133 37 -209t178 -76z" />
    <glyph glyph-name="uni044C" unicode="&#x44c;" horiz-adv-x="909" 
d="M412 -10q-182 0 -261 106.5t-55 282.5l84 614h107l-60 -411h4q43 74 132 127t192 53q118 0 200.5 -78.5t82.5 -212.5q0 -132 -48 -239.5t-146.5 -174.5t-231.5 -67zM418 86q139 0 225 106t86 265q0 96 -59.5 151.5t-153.5 55.5q-109 0 -204 -83t-109 -210
q-19 -133 37 -209t178 -76z" />
    <glyph glyph-name="uni044D" unicode="&#x44d;" horiz-adv-x="972" 
d="M475 1004q186 0 296 -107t110 -305q0 -169 -62.5 -304.5t-182.5 -215.5t-278 -80q-218 0 -335 137l71 78q88 -115 268 -115q153 0 261 99.5t139 269.5l-541 -6l10 90l543 8v35q0 151 -80 234t-223 83q-74 0 -149.5 -28.5t-124.5 -69.5l-62 76q61 53 152.5 87t187.5 34z
" />
    <glyph glyph-name="uni044E" unicode="&#x44e;" horiz-adv-x="1480" 
d="M1001 1004q177 0 286.5 -107t109.5 -299q0 -171 -60.5 -308t-176.5 -218.5t-269 -81.5q-177 0 -286 112t-109 306v28l-234 -2l-53 -434h-107l123 993h107l-58 -465l232 2q22 133 87 239t171.5 170.5t236.5 64.5zM895 90q169 0 281 138t112 356q0 151 -78 236t-213 85
q-168 -2 -281.5 -141.5t-113.5 -347.5q0 -149 79.5 -237.5t213.5 -88.5z" />
    <glyph glyph-name="uni044F" unicode="&#x44f;" horiz-adv-x="991" 
d="M530 995h367l-123 -995h-106l49 387l-234 -2q-41 0 -59 2l-113 -166q-80 -121 -108 -153q-64 -72 -148 -76h-12h-25l-8 88q54 5 93 37t106 135l106 158q-93 29 -136.5 93t-43.5 148q0 164 110 254t285 90zM727 485l53 412h-252q-129 0 -206.5 -65t-77.5 -177
q0 -172 237 -172z" />
    <glyph glyph-name="uni0450" unicode="&#x450;" horiz-adv-x="954" 
d="M723 1147h-115l-196 283h125zM483 92q163 0 287 139l82 -61q-76 -89 -165 -133.5t-206 -44.5q-175 0 -282 110.5t-107 300.5q0 163 63 299.5t182 219t269 82.5q48 0 96.5 -13t95 -40t76 -77.5t29.5 -117.5q0 -55 -23.5 -102t-62.5 -82t-95.5 -63.5t-117 -48t-133 -34
t-137 -23t-135.5 -14.5q4 -140 82.5 -218.5t201.5 -78.5zM604 905q-152 0 -265.5 -118.5t-135.5 -307.5q108 9 201 25t187 46t149 81t55 119q0 44 -18.5 76.5t-49 48.5t-61 23t-62.5 7z" />
    <glyph glyph-name="uni0451" unicode="&#x451;" horiz-adv-x="954" 
d="M461 1210q-37 0 -60.5 24.5t-23.5 61.5q0 38 24.5 63t61.5 25q38 0 63 -23.5t25 -60.5q0 -38 -26 -64t-64 -26zM772 1210q-37 0 -60.5 24.5t-23.5 61.5q0 38 25 63t63 25q37 0 61.5 -23.5t24.5 -60.5q0 -38 -26 -64t-64 -26zM483 92q163 0 287 139l82 -61
q-76 -89 -165 -133.5t-206 -44.5q-175 0 -282 110.5t-107 300.5q0 163 63 299.5t182 219t269 82.5q48 0 96.5 -13t95 -40t76 -77.5t29.5 -117.5q0 -55 -23.5 -102t-62.5 -82t-95.5 -63.5t-117 -48t-133 -34t-137 -23t-135.5 -14.5q4 -140 82.5 -218.5t201.5 -78.5zM604 905
q-152 0 -265.5 -118.5t-135.5 -307.5q108 9 201 25t187 46t149 81t55 119q0 44 -18.5 76.5t-49 48.5t-61 23t-62.5 7z" />
    <glyph glyph-name="uni0452" unicode="&#x452;" horiz-adv-x="1077" 
d="M719 944q91 0 151.5 -40t85.5 -107t32.5 -155t-7.5 -183q-23 -186 -97 -356t-199 -307.5t-282 -209.5l-38 78q140 71 249 201t172 285.5t84 326.5q11 73 7 139t-20 116.5t-58 80t-107 29.5q-94 0 -188.5 -65t-163 -179.5t-84.5 -247.5l-43 -350h-107l142 1157h-152l13 90
h149l33 260h106l-32 -260h403l-12 -90h-402l-61 -502h4q74 135 185.5 212t236.5 77z" />
    <glyph glyph-name="uni0453" unicode="&#x453;" horiz-adv-x="858" 
d="M430 1147l256 283h127l-264 -283h-119zM365 -10q-149 0 -227.5 59.5t-78.5 159.5q0 93 61 164t191 137l181 92q106 54 145 94.5t39 96.5q0 52 -46 83t-132 31q-149 0 -260 -100l-62 76q57 52 147.5 86.5t184.5 34.5q121 0 199.5 -52.5t78.5 -152.5q0 -94 -55.5 -153.5
t-177.5 -123.5l-193 -96q-104 -54 -147 -103t-43 -106q0 -61 53 -96t146 -35q168 0 295 139l79 -57q-152 -178 -378 -178z" />
    <glyph glyph-name="uni0454" unicode="&#x454;" horiz-adv-x="997" 
d="M504 92q183 0 297 133l84 -59q-76 -90 -170.5 -132t-218.5 -42q-114 0 -204 45.5t-145 139.5t-55 224q0 166 63 302t186.5 218.5t285.5 82.5q92 0 178.5 -35t140.5 -103l-82 -67q-44 53 -107.5 79.5t-133.5 26.5q-157 0 -264.5 -98.5t-143.5 -259.5l535 6l-13 -90
l-534 -6q-2 -16 -2 -51q0 -147 83.5 -230.5t219.5 -83.5z" />
    <glyph glyph-name="uni0455" unicode="&#x455;" horiz-adv-x="825" 
d="M367 -10q-213 0 -338 149l69 74q110 -125 269 -125q105 0 172 47.5t67 128.5q0 16 -4 31t-8.5 27t-15.5 25t-18.5 21t-25 19.5t-27 17.5t-32 17t-32.5 15t-36.5 16t-35.5 16q-54 22 -92 44t-74.5 53.5t-55 73.5t-18.5 93q0 122 92 196.5t223 74.5q183 0 297 -125l-71 -74
q-94 104 -232 104q-85 0 -142.5 -47t-57.5 -125q0 -60 49.5 -100.5t142.5 -81.5q122 -56 159 -79q124 -79 124 -200q1 -135 -98.5 -210.5t-249.5 -75.5z" />
    <glyph glyph-name="uni0456" unicode="&#x456;" horiz-adv-x="456" 
d="M328 1210q-36 0 -59 24.5t-23 61.5q0 38 24.5 63t61.5 25t61.5 -23.5t24.5 -60.5q0 -39 -25.5 -64.5t-64.5 -25.5zM115 0l121 993h106l-123 -993h-104z" />
    <glyph glyph-name="uni0457" unicode="&#x457;" horiz-adv-x="456" 
d="M170 1210q-37 0 -60.5 24.5t-23.5 61.5q0 38 24.5 63t61.5 25q38 0 63 -23.5t25 -60.5q0 -38 -26 -64t-64 -26zM481 1210q-37 0 -60.5 24.5t-23.5 61.5q0 38 25 63t63 25q37 0 61.5 -23.5t24.5 -60.5q0 -38 -26 -64t-64 -26zM115 0l121 993h106l-123 -993h-104z" />
    <glyph glyph-name="uni0458" unicode="&#x458;" horiz-adv-x="385" 
d="M281 1210q-36 0 -59 24.5t-23 61.5q0 38 24.5 63t61.5 25t61.5 -23.5t24.5 -60.5q0 -39 -25.5 -64.5t-64.5 -25.5zM-92 -414q-78 0 -135 35l26 92q43 -32 101 -32q62 0 101.5 47t53.5 170l135 1095h107l-137 -1108q-17 -152 -78 -225.5t-174 -73.5z" />
    <glyph glyph-name="uni0459" unicode="&#x459;" horiz-adv-x="1552" 
d="M1200 762q116 0 198.5 -78.5t82.5 -212.5q0 -132 -48 -239.5t-146.5 -174.5t-231.5 -67q-182 0 -261 106.5t-53 282.5l70 518h-182q-176 0 -219 -188q-9 -42 -29.5 -149.5t-34.5 -168.5q-86 -399 -307 -399q-46 0 -74 12l27 94q16 -8 41 -8q68 0 125 81.5t92 250.5
q29 143 55 299q22 124 107.5 198t210.5 74h307l-60 -420h4q39 75 131.5 132t194.5 57zM1061 86q139 0 225 106t86 265q0 96 -59.5 151.5t-153.5 55.5q-109 0 -202.5 -83t-110.5 -210q-17 -134 38 -209.5t177 -75.5z" />
    <glyph glyph-name="uni045A" unicode="&#x45a;" horiz-adv-x="1538" 
d="M1202 762q116 0 198.5 -78.5t82.5 -212.5q0 -132 -48 -239.5t-146.5 -174.5t-231.5 -67q-182 0 -261 106.5t-53 282.5l9 57l-504 -2l-53 -434h-109l123 993h108l-57 -465l504 4l61 461h107l-60 -420h5q39 75 131 132t194 57zM1063 86q139 0 225 106t86 265
q0 96 -59.5 151.5t-153.5 55.5q-109 0 -202.5 -83t-110.5 -210q-17 -134 38 -209.5t177 -75.5z" />
    <glyph glyph-name="uni045B" unicode="&#x45b;" horiz-adv-x="1083" 
d="M717 944q146 0 207 -98.5t34 -308.5l-69 -537h-107l70 530q22 169 -22 240.5t-140 71.5q-70 0 -142.5 -39t-132.5 -104t-103.5 -157t-55.5 -192l-43 -350h-107l142 1157h-152l13 90h149l33 260h106l-32 -260h403l-12 -90h-402l-61 -502h4q74 135 185 212t235 77z" />
    <glyph glyph-name="uni045C" unicode="&#x45c;" horiz-adv-x="999" 
d="M461 1147l256 283h127l-264 -283h-119zM106 0l121 993h107l-80 -649l4 -2q212 115 370.5 293.5t215.5 357.5h110q-36 -129 -120 -257.5t-201 -239.5l92 -213q53 -120 84 -157.5t80 -45.5l-31 -88q-33 0 -45 4q-31 6 -56 24t-45.5 50.5t-36.5 66t-39 85.5q-7 17 -11 26
l-76 174q-137 -120 -311 -201l-25 -221h-107z" />
    <glyph glyph-name="uni045D" unicode="&#x45d;" horiz-adv-x="1069" 
d="M580 1147l-197 283h125l186 -283h-114zM389 -10q-157 0 -225 96.5t-39 304.5l82 602h106l-80 -594q-12 -73 -7 -126.5t18 -88.5t39.5 -56t58 -29.5t72.5 -8.5q82 0 167.5 61t150.5 168t83 230l53 444h107l-121 -993h-109l35 266h-4q-68 -126 -170 -201t-217 -75z" />
    <glyph glyph-name="uni045E" unicode="&#x45e;" horiz-adv-x="1067" 
d="M604 1143q-112 0 -177.5 67t-64.5 199l97 12q-3 -91 36 -143.5t119 -52.5q82 0 141.5 55.5t86.5 146.5l84 -26q-44 -129 -130 -193.5t-192 -64.5zM872 993h107l-107 -862q-15 -130 -51 -227.5t-82.5 -157t-109 -96.5t-125 -50.5t-137.5 -13.5q-171 0 -318 82l35 99
q140 -82 285 -82q60 0 109 10.5t98.5 41t85.5 79.5t64.5 131t41.5 192l14 127l-4 2q-66 -127 -169.5 -202.5t-219.5 -75.5q-319 0 -264 401l82 602h106l-80 -594q-12 -73 -6.5 -126.5t18.5 -88t40 -55.5t57.5 -29.5t71.5 -9.5q86 0 174 63.5t152 175t79 238.5z" />
    <glyph glyph-name="uni045F" unicode="&#x45f;" horiz-adv-x="1069" 
d="M868 993h107l-121 -993h-109l35 266h-4q-99 -184 -258 -250l-55 -370h-88l43 346q-10 -2 -29 -2q-157 0 -225 96.5t-39 304.5l82 602h106l-80 -594q-12 -73 -7 -126.5t18 -88.5t39.5 -56t58 -29.5t72.5 -8.5q82 0 167.5 61t150.5 168t83 230z" />
    <glyph glyph-name="uni0462" unicode="&#x462;" horiz-adv-x="1333" 
d="M848 850q220 0 318.5 -108t80.5 -300q-18 -224 -151 -333t-355 -109h-450l143 1149h-344l12 102h347l24 203h115l-25 -203h475l-12 -102h-477l-37 -299h336zM1128 440q23 303 -292 303h-336l-80 -637h330q176 0 271 89t107 245z" />
    <glyph glyph-name="uni0463" unicode="&#x463;" horiz-adv-x="1488" 
d="M1006 -10q-186 0 -265.5 110t-46.5 299l25 160q31 189 8.5 266.5t-109.5 77.5q-49 0 -108.5 -38.5t-113 -102t-95 -156.5t-53.5 -192l-51 -414h-109l123 993h106l-32 -268l4 -2q68 127 168.5 204t193.5 77q133 0 174.5 -107t-0.5 -319h2q41 74 131 129t191 55
q116 0 199.5 -78.5t83.5 -212.5q0 -131 -48.5 -239t-147 -175t-230.5 -67zM1010 86q140 0 225.5 105.5t85.5 265.5q0 97 -58.5 152t-154.5 55q-107 0 -200.5 -82.5t-110.5 -202.5q-20 -139 35.5 -216t177.5 -77z" />
    <glyph glyph-name="uni0472" unicode="&#x472;" horiz-adv-x="1544" 
d="M887 1464q260 0 415.5 -159.5t155.5 -446.5q0 -139 -33 -268.5t-97 -238t-153 -189.5t-208 -126.5t-254 -45.5q-259 0 -414.5 161.5t-155.5 446.5q0 170 54.5 327t149.5 276.5t236 191t304 71.5zM877 1360q-152 0 -280 -79t-209 -209.5t-112 -293.5h1063q2 27 2 80
q0 237 -121.5 369.5t-342.5 132.5zM719 96q235 0 398.5 163.5t209.5 418.5h-1065q-2 -27 -2 -78q0 -234 121.5 -369t337.5 -135z" />
    <glyph glyph-name="uni0473" unicode="&#x473;" horiz-adv-x="1097" 
d="M608 1004q185 0 293.5 -106.5t108.5 -299.5q0 -171 -60 -307.5t-179.5 -218.5t-278.5 -82q-186 0 -296 110t-110 306q0 119 36.5 227t102.5 190.5t165.5 131.5t217.5 49zM604 907q-151 0 -258.5 -103t-140.5 -267l698 12v37q0 161 -81.5 241t-217.5 80zM496 86
q152 0 258 102.5t137 270.5l-698 -13v-34q0 -151 81 -238.5t222 -87.5z" />
    <glyph glyph-name="uni0474" unicode="&#x474;" horiz-adv-x="1316" 
d="M494 0l-314 1454h121l264 -1290h2l428 1038q60 148 123 205t164 57q48 0 97 -17.5t71 -37.5l-35 -90q-58 43 -119 43q-66 0 -108 -46t-86 -147l-500 -1169h-108z" />
    <glyph glyph-name="uni0475" unicode="&#x475;" horiz-adv-x="980" 
d="M332 0l-223 993h112l182 -868h3l282 670q46 112 94.5 159t130.5 47q86 0 131 -53l-34 -90q-46 43 -92 43q-43 0 -71 -34t-65 -117l-327 -750h-123z" />
    <glyph glyph-name="uni048A" unicode="&#x48a;" horiz-adv-x="1423" 
d="M834 1606q-111 0 -177 65.5t-65 188.5l96 8q-3 -78 37.5 -129t120.5 -51q79 0 138 53t87 133l84 -23q-44 -120 -130.5 -182.5t-190.5 -62.5zM1323 1454l-164 -1348h125l-2 -38l-178 -363h-84l121 295h-111l152 1237h-2l-940 -1237h-109l178 1454h115l-154 -1247h2
l945 1247h106z" />
    <glyph glyph-name="uni048B" unicode="&#x48b;" horiz-adv-x="1091" 
d="M600 1143q-112 0 -177.5 67t-64.5 199l97 12q-3 -91 36 -143.5t119 -52.5q82 0 141.5 55.5t86.5 146.5l84 -26q-44 -129 -130 -193.5t-192 -64.5zM952 94h52l-3 -20l-170 -359h-81l118 285q-55 10 -78.5 54.5t-17.5 111.5q1 14 6.5 57.5t5.5 50.5h-4
q-66 -126 -172.5 -205t-220.5 -79q-319 0 -264 401l82 602h106l-80 -594q-12 -73 -6.5 -126.5t19 -88.5t40 -56t58 -29.5t72.5 -8.5q127 0 250 136t149 321l55 446h107l-94 -766q-9 -75 7 -103t64 -30z" />
    <glyph glyph-name="uni048C" unicode="&#x48c;" horiz-adv-x="1185" 
d="M700 850q220 0 318 -108t82 -300q-18 -224 -151 -333t-355 -109h-451l144 1151h-191l13 92h190l27 211h114l-26 -211h319l-12 -92h-318l-38 -301h335zM981 440q23 303 -293 303h-336l-80 -637h330q176 0 271.5 89t107.5 245z" />
    <glyph glyph-name="uni048D" unicode="&#x48d;" horiz-adv-x="944" 
d="M592 750q115 0 197.5 -78.5t82.5 -212.5q0 -93 -28.5 -177t-81 -149.5t-134.5 -104t-182 -38.5q-182 0 -260.5 106t-54.5 283l66 479h-136l11 82h135l14 107h107l-15 -107h342l-10 -78h-344l-41 -301h4q41 75 133.5 132t194.5 57zM453 86q136 0 222.5 103t86.5 257
q0 93 -57 150t-156 57q-107 0 -202 -81t-109 -201q-19 -134 36.5 -209.5t178.5 -75.5z" />
    <glyph glyph-name="uni048E" unicode="&#x48e;" horiz-adv-x="1157" 
d="M1135 1098q0 -174 -78 -297.5t-223 -175.5l108 -295l-84 -41l-117 311q-62 -10 -120 -10h-304l-71 -590h-115l178 1454h455q185 0 278 -93t93 -263zM793 721q107 43 165 141t58 236q0 125 -74.5 187.5t-198.5 62.5h-333l-80 -654h305q37 0 74 6l-103 277l80 39z" />
    <glyph glyph-name="uni048F" unicode="&#x48f;" horiz-adv-x="1132" 
d="M1042 606q0 -177 -72 -325.5t-200 -225.5l96 -245l-80 -41l-98 247q-76 -26 -158 -26q-89 0 -170 29t-131 83l-4 -2l-63 -506h-107l172 1399h107l-33 -270l4 -2q68 131 169.5 207t232.5 76q158 0 246.5 -113t88.5 -285zM514 90q78 0 139 27l-96 254l72 39l98 -254
q97 65 152 184.5t55 259.5q0 135 -64 220t-184 85q-106 0 -199 -73t-152 -191.5t-77 -257.5l-20 -166q42 -67 121.5 -97t154.5 -30z" />
    <glyph glyph-name="uni0490" unicode="&#x490;" horiz-adv-x="1030" 
d="M1042 1747h97l-52 -399h-675l-166 -1348h-115l180 1454h684z" />
    <glyph glyph-name="uni0491" unicode="&#x491;" horiz-adv-x="835" 
d="M795 1276h86l-45 -379h-512l-111 -897h-109l123 993h523z" />
    <glyph glyph-name="uni0492" unicode="&#x492;" horiz-adv-x="1054" 
d="M1110 1348h-676l-74 -598h379l-12 -93h-377l-82 -657h-114l82 657h-191l12 93h189l88 704h788z" />
    <glyph glyph-name="uni0493" unicode="&#x493;" horiz-adv-x="858" 
d="M369 86q168 0 295 139l79 -57q-152 -178 -378 -178q-149 0 -227.5 59t-78.5 158q0 93 63 161.5t193 129.5l9 4l2 4l-174 65l34 76l228 -86l78 39q106 53 145 95t39 98q0 52 -46 83t-132 31q-149 0 -260 -100l-62 76q57 52 147.5 86.5t184.5 34.5q121 0 199.5 -52.5
t78.5 -150.5q0 -91 -54 -145.5t-173 -114.5l-35 -19v-2l207 -78l-33 -75l-262 98l-76 -39q-105 -52 -147.5 -101.5t-42.5 -107.5q0 -61 53 -96t146 -35z" />
    <glyph glyph-name="uni0494" unicode="&#x494;" horiz-adv-x="1220" 
d="M659 797q194 0 312.5 -123.5t118.5 -358.5q0 -150 -38.5 -281t-110.5 -231.5t-184.5 -158.5t-252.5 -58q-80 0 -154 19l15 100q82 -16 137 -16q147 0 255.5 87.5t161 225t52.5 303.5q0 191 -91 288t-251 97q-151 0 -305 -63l-78 -627h-115l180 1454h789l-13 -106h-675
l-76 -619q151 68 323 68z" />
    <glyph glyph-name="uni0495" unicode="&#x495;" horiz-adv-x="999" 
d="M578 516q150 0 247 -95.5t97 -275.5q0 -253 -148.5 -406t-390.5 -153q-92 0 -174 23l24 94q65 -22 142 -22q194 0 316 125.5t122 328.5q0 77 -22 134t-60.5 88t-83 45t-96.5 14q-66 0 -125.5 -24t-98 -60t-62 -75t-27.5 -73l-25 -184h-109l123 993h619l-10 -96h-512
l-66 -535h4q48 66 133.5 110t182.5 44z" />
    <glyph glyph-name="uni0496" unicode="&#x496;" horiz-adv-x="1769" 
d="M1559 106h102l-55 -401h-97l31 295h-57l-355 680l-229 -272l-47 -408h-111l50 412l-156 270l-520 -682h-133l581 762l-393 692h131l504 -891l6 2l109 889h110l-108 -889l2 -2l718 891h140l-563 -694z" />
    <glyph glyph-name="uni0497" unicode="&#x497;" horiz-adv-x="1470" 
d="M1358 94h49l-57 -381h-93l37 285q-67 1 -109 38t-69 109q-8 15 -20.5 43.5t-40.5 92.5t-60 135q-130 -100 -262 -150l-33 -266h-106l74 588l-4 2q-195 -85 -328.5 -243.5t-194.5 -346.5h-106q36 131 118.5 258.5t194.5 230.5l-78 224q-27 81 -54.5 125t-50.5 57.5
t-59 19.5l29 86q23 3 47 -4q65 -13 109 -75t78 -174l65 -187q119 90 246 133l37 299h104l-76 -622l3 -2q206 103 345.5 270t198.5 354h107q-38 -137 -121.5 -268t-198.5 -238q124 -284 133 -301q21 -51 54.5 -71.5t91.5 -20.5z" />
    <glyph glyph-name="uni0498" unicode="&#x498;" horiz-adv-x="1153" 
d="M791 772q110 -30 177.5 -113.5t67.5 -222.5q0 -204 -129.5 -324.5t-353.5 -121.5l-31 -68q142 -25 142 -121q0 -84 -57.5 -130t-153.5 -46q-63 0 -107 10l6 70q48 -10 86 -10q62 0 99.5 26t37.5 76q0 35 -34 53.5t-109 24.5l45 119q-130 11 -235.5 68t-171.5 155l86 76
q65 -96 166 -145.5t225 -49.5q172 0 271.5 91.5t99.5 250.5q0 269 -326 269h-221l14 102h197q162 0 260 89.5t98 225.5q0 109 -71.5 170.5t-206.5 61.5q-179 0 -338 -111l-72 84q182 133 418 133q111 0 196.5 -33t138 -105.5t52.5 -176.5q0 -126 -69 -225t-197 -148v-4z" />
    <glyph glyph-name="uni0499" unicode="&#x499;" horiz-adv-x="886" 
d="M604 524q85 -18 132.5 -76t47.5 -137q0 -145 -104 -229.5t-270 -89.5l-31 -70q141 -25 141 -121q0 -84 -57.5 -130t-153.5 -46q-62 0 -106 10l6 70q48 -10 86 -10q62 0 99.5 26t37.5 76q0 35 -34 53.5t-109 24.5l45 119q-186 9 -322 106l43 97q128 -107 338 -107
q126 0 204.5 61.5t78.5 161.5q0 72 -58 113t-157 41h-201l12 86l148 2q109 0 193.5 57.5t84.5 149.5q0 41 -19 71t-50 45t-63.5 22t-67.5 7q-169 0 -308 -84l-38 90q154 91 350 91q52 0 103 -12t98.5 -37t76.5 -70.5t29 -106.5q0 -92 -56.5 -154t-148.5 -96v-4z" />
    <glyph glyph-name="uni049A" unicode="&#x49a;" horiz-adv-x="1236" 
d="M1018 106h102l-55 -401h-96l30 295h-57l-371 707l-278 -312l-47 -395h-115l178 1454h115l-109 -881l4 -2l779 883h145l-588 -663z" />
    <glyph glyph-name="uni049B" unicode="&#x49b;" horiz-adv-x="1038" 
d="M918 94h49l-58 -381h-92l37 285q-67 1 -107.5 37.5t-72.5 109.5q-9 16 -123 277q-150 -126 -313 -201l-25 -221h-107l121 993h107l-80 -649l4 -2q212 115 370.5 293.5t215.5 357.5h110q-34 -129 -118 -257t-203 -240q108 -253 137 -310q26 -52 58.5 -72t89.5 -20z" />
    <glyph glyph-name="uni049C" unicode="&#x49c;" horiz-adv-x="1294" 
d="M1335 1454l-565 -733l395 -721h-131l-364 662h-62l-51 -418h-92l53 418l-190 2l-82 -664h-115l178 1454h115l-86 -694l192 4l54 424h90l-53 -424l53 2l522 688h139z" />
    <glyph glyph-name="uni049D" unicode="&#x49d;" horiz-adv-x="1032" 
d="M758 283q51 -119 83 -157t81 -46l-31 -88q-33 0 -45 4q-33 7 -59.5 26t-49.5 57t-38.5 73t-39.5 96l-81 190q-36 -26 -46 -32l-32 -271h-78l27 215q-93 -57 -207 -106l-29 -244h-107l121 993h107l-80 -653l4 -2q96 42 203 119l41 321h78l-33 -256q122 101 207 225
t123 246h110q-36 -129 -120 -257.5t-201 -239.5z" />
    <glyph glyph-name="uni049E" unicode="&#x49e;" horiz-adv-x="1224" 
d="M1264 1454l-586 -663l418 -791h-133l-369 707l-279 -312l-49 -395h-112l143 1165h-211l10 92h211l25 197h112l-24 -197h287l-13 -92h-284l-74 -592l6 -2l778 883h144z" />
    <glyph glyph-name="uni049F" unicode="&#x49f;" horiz-adv-x="999" 
d="M723 283q52 -119 84.5 -157t81.5 -46l-31 -88q-33 0 -47 4q-32 6 -56 23t-47 55.5t-35 64t-39 88.5l-9 21l-78 174q-140 -122 -309 -201l-27 -221h-107l150 1204h-154l9 82h155l27 221h106l-26 -221h323l-10 -82h-324l-106 -860l4 -2q211 115 369.5 293.5t216.5 357.5
h108q-69 -259 -321 -497z" />
    <glyph glyph-name="uni04A0" unicode="&#x4a0;" horiz-adv-x="1398" 
d="M1438 1454l-588 -663l420 -791h-133l-371 707l-279 -312l-47 -395h-114l166 1348h-375l12 106h489l-108 -881l4 -2l778 883h146z" />
    <glyph glyph-name="uni04A1" unicode="&#x4a1;" horiz-adv-x="1112" 
d="M838 283q37 -83 61.5 -124t46.5 -57.5t55 -21.5l-30 -88q-33 0 -45 4q-27 5 -50.5 22t-39 34t-36 56t-30.5 61.5t-33 78.5l-75 174q-136 -119 -312 -201l-24 -221h-107l109 897h-258l12 96h364l-79 -649l4 -2q212 114 370.5 293t216.5 358h109q-36 -129 -120.5 -257
t-201.5 -240z" />
    <glyph glyph-name="uni04A2" unicode="&#x4a2;" horiz-adv-x="1413" 
d="M1313 106l-53 -401h-99l31 295h-191l78 635h-755l-78 -635h-115l178 1454h115l-88 -713h758l86 713h114l-166 -1348h185z" />
    <glyph glyph-name="uni04A3" unicode="&#x4a3;" horiz-adv-x="1163" 
d="M1030 94h49l-57 -381h-92l37 285q-104 3 -142.5 62.5t-25.5 168.5l24 207l-557 -2l-53 -434h-109l123 993h109l-57 -465l557 4l55 461h108l-86 -696q-13 -115 9 -158.5t108 -44.5z" />
    <glyph glyph-name="uni04A4" unicode="&#x4a4;" horiz-adv-x="1634" 
d="M1169 1454h535l-14 -106h-418l-166 -1348h-115l78 635h-745l-78 -635h-115l178 1454h115l-88 -713h745z" />
    <glyph glyph-name="uni04A5" unicode="&#x4a5;" horiz-adv-x="1267" 
d="M1278 993l-10 -96h-297l-111 -897h-108l53 436l-539 -2l-53 -434h-109l123 993h109l-57 -465l538 4l57 461h404z" />
    <glyph glyph-name="uni04A6" unicode="&#x4a6;" horiz-adv-x="2050" 
d="M1487 797q194 0 312 -123.5t118 -358.5q0 -150 -38.5 -281t-110.5 -231.5t-184.5 -158.5t-252.5 -58q-79 0 -153 19l14 100q82 -16 137 -16q147 0 255.5 87.5t161 225t52.5 303.5q0 191 -91 288t-251 97q-156 0 -307 -65l-78 -625h-113l166 1348h-712l-166 -1348h-115
l180 1454h940l-90 -725q163 68 326 68z" />
    <glyph glyph-name="uni04A7" unicode="&#x4a7;" horiz-adv-x="1667" 
d="M1051 -414q-92 0 -174 23l22 94q67 -22 143 -22q194 0 316.5 125.5t122.5 328.5q0 77 -22 134t-60.5 88t-83 45t-96.5 14q-67 0 -126.5 -24t-98 -60t-62.5 -75t-29 -73l-24 -184h-107l78 590q40 313 -154 313q-88 0 -181.5 -63.5t-164 -178t-86.5 -247.5l-51 -414h-107
l123 993h107l-33 -268l4 -2q75 129 187.5 205t228.5 76q286 0 233 -408l-28 -234h4q47 67 131 110.5t182 43.5q150 0 247 -95.5t97 -275.5q0 -252 -149 -405.5t-389 -153.5z" />
    <glyph glyph-name="uni04A8" unicode="&#x4a8;" horiz-adv-x="1628" 
d="M1536 172l49 -88q-89 -94 -260 -94q-158 0 -268 82q-142 -82 -334 -82q-173 0 -307 73t-210.5 213t-76.5 328q0 136 34 264t99.5 235.5t154 188.5t205 126.5t246.5 45.5q72 0 136 -12l-31 -98q-70 8 -113 8q-132 0 -247.5 -63.5t-194.5 -168t-124.5 -241.5t-45.5 -283
q0 -240 134 -378t361 -138q127 0 224 43v2q-87 77 -135 201.5t-48 279.5q0 120 31 236t86 209.5t139 151t181 57.5q139 0 219 -113t80 -301q0 -221 -100.5 -419t-272.5 -310v-4q79 -37 162 -37q136 0 227 86zM895 614q0 -137 41.5 -248.5t118.5 -183.5h8l2 -2
q157 104 246.5 289t89.5 389q0 142 -49 225.5t-135 83.5q-95 0 -171 -87.5t-113.5 -212.5t-37.5 -253z" />
    <glyph glyph-name="uni04A9" unicode="&#x4a9;" horiz-adv-x="1273" 
d="M1200 223l55 -80q-61 -75 -155 -113t-185 -38q-124 0 -213 45q-96 -45 -223 -45q-181 0 -293 114.5t-112 309.5q0 176 74 336.5t196 269.5l74 -59q-236 -242 -236 -545q0 -150 82 -241t230 -91q65 0 127 16q-60 53 -91.5 144t-31.5 200q0 143 44.5 268.5t130 205
t193.5 79.5q122 0 181 -85t59 -224q0 -178 -81.5 -339t-219.5 -253l2 -4h-2q49 -12 104 -12q80 0 160 37.5t131 103.5zM598 432q0 -197 109 -289l4 2h6q127 75 204.5 227.5t77.5 317.5q0 97 -33.5 154t-101.5 57q-72 0 -134.5 -70t-97 -177.5t-34.5 -221.5z" />
    <glyph glyph-name="uni04AA" unicode="&#x4aa;" horiz-adv-x="1376" 
d="M881 1356q-134 0 -250.5 -63.5t-195.5 -168t-124 -240.5t-45 -280q0 -233 120 -368.5t327 -135.5q113 0 228 53.5t204 151.5l86 -72q-99 -111 -237 -177t-285 -66h-4l-31 -68q141 -25 141 -121q0 -84 -57.5 -130t-153.5 -46q-62 0 -106 10l6 70q48 -10 86 -10
q62 0 99.5 26t37.5 76q0 35 -34 53.5t-109 24.5l45 119q-221 25 -351.5 185t-130.5 423q0 170 55 327t150.5 275.5t234 189t296.5 70.5q308 0 499 -309l-98 -68q-82 143 -178.5 206t-224.5 63z" />
    <glyph glyph-name="uni04AB" unicode="&#x4ab;" horiz-adv-x="985" 
d="M479 92q191 0 307 139l84 -61q-141 -172 -376 -178l-31 -70q141 -25 141 -121q0 -84 -57.5 -130t-153.5 -46q-62 0 -106 10l6 70q48 -10 86 -10q62 0 99.5 26t37.5 76q0 35 -34 53.5t-109 24.5l47 121q-145 18 -236.5 122.5t-91.5 280.5q0 164 62 301t182.5 220.5
t277.5 83.5q103 0 191.5 -40.5t142.5 -119.5l-86 -66q-41 64 -107 95.5t-143 31.5q-123 0 -218 -68.5t-144 -181t-49 -247.5q0 -144 79 -230t199 -86z" />
    <glyph glyph-name="uni04AC" unicode="&#x4ac;" horiz-adv-x="1050" 
d="M1096 1348h-410l-154 -1242h187l-55 -401h-97l31 295h-192l165 1348h-405l12 106h932z" />
    <glyph glyph-name="uni04AD" unicode="&#x4ad;" horiz-adv-x="1730" 
d="M1604 94h49l-58 -381h-92l37 285q-205 6 -168 242l49 346q47 319 -151 319q-115 0 -232 -141.5t-145 -351.5l-53 -412h-107l78 592q21 169 -21 241t-133 72q-59 0 -124 -39.5t-120.5 -104.5t-97 -157t-53.5 -190l-49 -414h-107l121 993h107l-33 -258l6 -2
q69 125 170.5 198t204.5 73q233 0 242 -267l4 -2q62 123 162 196t202 73q145 0 208 -99.5t32 -306.5l-45 -305q-18 -109 6 -153.5t111 -45.5z" />
    <glyph glyph-name="uni04AE" unicode="&#x4ae;" horiz-adv-x="1089" 
d="M426 0l80 655l-350 799h125l292 -682h5l462 682h134l-553 -799l-80 -655h-115z" />
    <glyph glyph-name="uni04AF" unicode="&#x4af;" horiz-adv-x="964" 
d="M303 -406l41 390l-231 1009h112l197 -882h4q333 433 426 882h111q-32 -152 -86.5 -297.5t-125.5 -273t-141 -230t-155 -208.5l-45 -390h-107z" />
    <glyph glyph-name="uni04B0" unicode="&#x4b0;" horiz-adv-x="1089" 
d="M1174 1454l-529 -764h287l-12 -92h-306l-73 -598h-115l74 598h-314l13 92h293l-336 764h125l292 -682h5l462 682h134z" />
    <glyph glyph-name="uni04B1" unicode="&#x4b1;" horiz-adv-x="964" 
d="M963 993q-98 -476 -445 -911h209l-10 -82h-262l-45 -406h-107l43 406h-240l9 82h213l-215 911h112l197 -882h4q333 433 426 882h111z" />
    <glyph glyph-name="uni04B2" unicode="&#x4b2;" horiz-adv-x="1218" 
d="M1010 106h98l-55 -401h-97l31 295h-59l-316 631h-6l-471 -631h-135l545 727l-363 727h129l316 -637h6l467 637h141l-545 -729z" />
    <glyph glyph-name="uni04B3" unicode="&#x4b3;" horiz-adv-x="974" 
d="M684 213q39 -71 72.5 -95t91.5 -24h51l-57 -381h-92l36 285q-68 1 -110 39.5t-86 122.5l-139 246h-5l-319 -406h-125l393 500l-270 493h125l215 -405h6l315 405h134l-394 -495z" />
    <glyph glyph-name="uni04B4" unicode="&#x4b4;" horiz-adv-x="1622" 
d="M1522 106l-56 -401h-96l31 295h-1000l168 1348h-405l14 106h901l-14 -106h-383l-154 -1242h695l166 1348h114l-168 -1348h187z" />
    <glyph glyph-name="uni04B5" unicode="&#x4b5;" horiz-adv-x="1138" 
d="M938 1339l-14 -94h-598l12 94h600zM1006 94h51l-58 -381h-92l37 285q-100 3 -135.5 62.5t-28.5 158.5q1 11 2 23t1.5 19t0.5 13h-4q-66 -126 -172.5 -205t-220.5 -79q-319 0 -264 401l82 602h106l-80 -594q-12 -73 -6.5 -126.5t19 -88.5t40 -56t58 -29.5t72.5 -8.5
q127 0 250 136t149 321l55 446h107l-86 -696q-14 -114 8.5 -158t108.5 -45z" />
    <glyph glyph-name="uni04B6" unicode="&#x4b6;" horiz-adv-x="1251" 
d="M1149 106l-53 -401h-99l31 295h-190l75 623q-92 -49 -207 -78t-204 -29q-207 0 -281.5 107.5t-44.5 345.5l62 485h114l-61 -487q-23 -192 28.5 -268t208.5 -76q81 0 190 25.5t210 78.5l88 727h117l-168 -1348h184z" />
    <glyph glyph-name="uni04B7" unicode="&#x4b7;" horiz-adv-x="1060" 
d="M928 94h49l-57 -381h-93l37 285q-105 3 -144 62.5t-26 168.5l43 342h-4q-66 -112 -170.5 -178.5t-204.5 -66.5q-289 0 -243 333l47 334h106l-45 -327q-19 -131 23.5 -187.5t140.5 -54.5q120 0 239 118.5t138 262.5l24 188h109l-86 -696q-16 -114 6.5 -158t110.5 -45z" />
    <glyph glyph-name="uni04B8" unicode="&#x4b8;" horiz-adv-x="1212" 
d="M1024 1454h115l-178 -1454h-117l78 625q-112 -63 -275 -95l-39 -311h-90l37 299q-18 -2 -53 -2q-207 0 -281.5 107.5t-44.5 345.5l62 485h114l-61 -487q-23 -192 28.5 -268t208.5 -76q25 0 39 2l43 344h90l-41 -334q152 25 277 92z" />
    <glyph glyph-name="uni04B9" unicode="&#x4b9;" horiz-adv-x="1003" 
d="M805 993h106l-123 -993h-106l70 571h-4q-90 -146 -238 -211l-27 -215h-75l24 191q-48 -10 -84 -10q-137 0 -196.5 83t-36.5 250l47 334h106l-45 -327q-19 -134 22.5 -190t139.5 -56q30 0 57 6l43 332h76l-39 -301q97 51 170 147.5t86 200.5z" />
    <glyph glyph-name="uni04BA" unicode="&#x4ba;" horiz-adv-x="1222" 
d="M778 952q210 0 282 -111t42 -354l-62 -487h-112l57 475q25 208 -25.5 289.5t-207.5 81.5q-80 0 -195.5 -26.5t-220.5 -78.5l-90 -741h-115l180 1454h115l-76 -610q93 49 215.5 78.5t212.5 29.5z" />
    <glyph glyph-name="uni04BB" unicode="&#x4bb;" horiz-adv-x="1105" 
d="M104 0l187 1507h106l-98 -790l4 -2q73 134 188 211.5t236 77.5q149 0 212 -98t36 -308l-80 -598h-107l78 592q22 169 -22.5 241t-143.5 72q-68 0 -141 -39.5t-134 -104.5t-106 -157.5t-57 -191.5l-49 -412h-109z" />
    <glyph glyph-name="uni04BC" unicode="&#x4bc;" horiz-adv-x="1662" 
d="M1593 729h-1134q-8 -57 -8 -129q0 -242 122.5 -372t335.5 -130q116 0 229.5 54t202.5 153l86 -72q-99 -111 -237 -177t-285 -66q-263 0 -416 159t-153 447q0 76 8 133h-16q-134 0 -199.5 52t-65.5 143q0 54 18.5 107.5t47.5 90.5l90 -30q-49 -77 -49 -152q0 -47 39 -78
t131 -31h20q29 135 90 250t148 200.5t205 134t252 48.5q249 0 400 -160.5t151 -441.5q0 -44 -13 -133zM1049 1356q-211 0 -363.5 -147t-208.5 -378h1014v29q0 234 -120.5 365t-321.5 131z" />
    <glyph glyph-name="uni04BD" unicode="&#x4bd;" horiz-adv-x="1128" 
d="M659 92q161 0 285 139l84 -61q-78 -89 -167.5 -133.5t-205.5 -44.5q-171 0 -277 105t-112 286q-115 -1 -177 48.5t-60 137.5q4 106 71 183l78 -27q-29 -39 -44 -79.5t-13 -70.5q3 -101 149 -104q14 144 79 264t178.5 194.5t252.5 74.5q49 0 97.5 -13t95 -40t75.5 -77.5
t29 -117.5q0 -76 -44.5 -138.5t-115.5 -102.5t-166.5 -69t-188.5 -43t-191 -18q7 -139 85.5 -216t202.5 -77zM778 905q-157 0 -270.5 -123.5t-132.5 -310.5q100 4 198.5 21.5t190 49.5t148.5 86t57 122q0 44 -18.5 76.5t-49 48.5t-61 23t-62.5 7z" />
    <glyph glyph-name="uni04BE" unicode="&#x4be;" horiz-adv-x="1662" 
d="M1593 729h-1134q-8 -57 -8 -129q0 -242 122.5 -372t335.5 -130q116 0 229.5 54t202.5 153l86 -72q-93 -105 -220 -169.5t-265 -71.5l-39 -287h-96l29 287q-233 22 -366.5 179.5t-133.5 424.5q0 76 8 133h-16q-134 0 -199.5 52t-65.5 143q0 54 18.5 107.5t47.5 90.5
l90 -30q-49 -77 -49 -152q0 -47 39 -78t131 -31h20q29 135 90 250t148 200.5t205 134t252 48.5q249 0 400 -160.5t151 -441.5q0 -44 -13 -133zM1049 1356q-211 0 -363.5 -147t-208.5 -378h1014v29q0 234 -120.5 365t-321.5 131z" />
    <glyph glyph-name="uni04BF" unicode="&#x4bf;" horiz-adv-x="1128" 
d="M659 92q161 0 285 139l84 -61q-141 -160 -323 -176l-37 -281h-90l30 281q-151 15 -243.5 118t-98.5 271q-115 -1 -177 48.5t-60 137.5q4 106 71 183l78 -27q-29 -39 -44 -79.5t-13 -70.5q3 -101 149 -104q14 144 79 264t178.5 194.5t252.5 74.5q49 0 97.5 -13t95 -40
t75.5 -77.5t29 -117.5q0 -76 -44.5 -138.5t-115.5 -102.5t-166.5 -69t-188.5 -43t-191 -18q7 -139 85.5 -216t202.5 -77zM778 905q-157 0 -270.5 -123.5t-132.5 -310.5q100 4 198.5 21.5t190 49.5t148.5 86t57 122q0 44 -18.5 76.5t-49 48.5t-61 23t-62.5 7z" />
    <glyph glyph-name="uni04C0" unicode="&#x4c0;" horiz-adv-x="522" 
d="M143 0l179 1454h114l-178 -1454h-115z" />
    <glyph glyph-name="uni04C1" unicode="&#x4c1;" horiz-adv-x="1720" 
d="M989 1606q-111 0 -176.5 65.5t-64.5 188.5l96 8q-3 -78 37 -129t120 -51q79 0 138.5 53t87.5 133l84 -23q-44 -120 -131 -182.5t-191 -62.5zM1782 1454l-563 -694l395 -760h-131l-355 680l-229 -272l-47 -408h-111l50 412l-156 270l-520 -682h-133l581 762l-393 692h131
l504 -891l6 2l109 889h110l-108 -889l2 -2l718 891h140z" />
    <glyph glyph-name="uni04C2" unicode="&#x4c2;" horiz-adv-x="1433" 
d="M786 1143q-112 0 -177 67t-64 199l96 12q-3 -90 36.5 -143t119.5 -53q82 0 141 55t86 147l84 -26q-44 -129 -130 -193.5t-192 -64.5zM1165 283q49 -118 81.5 -156.5t82.5 -46.5l-31 -88q-33 0 -47 4q-33 7 -59 26.5t-48 55.5t-38.5 73t-38.5 97l-72 168
q-130 -100 -262 -150l-33 -266h-106l74 588l-4 2q-195 -85 -328.5 -243.5t-194.5 -346.5h-106q36 131 118.5 258.5t194.5 230.5l-78 224q-39 115 -74.5 153.5t-89.5 48.5l29 86q33 0 47 -4q65 -13 109 -76t78 -176l65 -184q119 90 246 133l37 299h104l-76 -622l3 -2
q206 103 345.5 270t198.5 354h107q-38 -137 -121.5 -268t-198.5 -238z" />
    <glyph glyph-name="uni04C3" unicode="&#x4c3;" horiz-adv-x="1226" 
d="M621 752q215 -3 347 -129.5t132 -346.5q0 -109 -24 -210.5t-72.5 -189t-117.5 -152t-164.5 -101.5t-207.5 -37q-80 0 -154 19l15 100q82 -16 137 -16q111 0 201.5 49t148 131t88.5 185.5t31 215.5q0 131 -57.5 219t-154.5 127t-230 39h-19l-225 -249l-49 -406h-115
l178 1454h115l-109 -881l4 -2l779 883h145z" />
    <glyph glyph-name="uni04C4" unicode="&#x4c4;" horiz-adv-x="1013" 
d="M629 494q119 -23 200.5 -124t81.5 -255q0 -237 -149 -383t-389 -146q-92 0 -174 23l22 94q67 -22 144 -22q194 0 316 118.5t122 311.5q0 77 -24 137.5t-63.5 95.5t-83.5 54.5t-91 23.5q-137 -118 -301 -197l-27 -225h-107l121 993h107l-80 -649l4 -2q212 115 370.5 293.5
t215.5 357.5h110q-35 -132 -121.5 -261t-203.5 -238z" />
    <glyph glyph-name="uni04C5" unicode="&#x4c5;" horiz-adv-x="1398" 
d="M1298 1454l-168 -1348h125l-2 -38l-178 -363h-84l121 295h-106l165 1348h-512q-67 -423 -143 -740q-57 -235 -123.5 -371t-144.5 -190.5t-185 -54.5q-44 0 -86 14l17 98q24 -6 57 -6q78 0 139.5 52t116.5 174t103 325q88 362 153 805h735z" />
    <glyph glyph-name="uni04C6" unicode="&#x4c6;" horiz-adv-x="1048" 
d="M909 94h49l-2 -20l-170 -359h-81l118 285q-116 18 -98 174l88 723h-182q-176 0 -219 -188q-13 -55 -33.5 -159t-32.5 -159q-48 -216 -126 -307.5t-181 -91.5q-46 0 -74 12l27 94q16 -8 41 -8q68 0 125 81.5t92 250.5q29 143 55 299q22 124 107.5 198t210.5 74h309
l-94 -766q-9 -75 7 -103t64 -30z" />
    <glyph glyph-name="uni04C7" unicode="&#x4c7;" horiz-adv-x="1368" 
d="M1294 1454l-178 -1454l-4 -33q-24 -200 -115 -290.5t-252 -90.5q-51 0 -129 19l15 98q53 -16 112 -16q110 0 172.5 61.5t81.5 218.5l82 668h-755l-78 -635h-115l178 1454h115l-88 -713h756l88 713h114z" />
    <glyph glyph-name="uni04C8" unicode="&#x4c8;" horiz-adv-x="1097" 
d="M1004 993l-123 -993q-27 -220 -114 -317t-241 -97q-50 0 -100 17l18 88q38 -13 78 -13q50 0 87.5 13.5t71 48t56.5 99t37 161.5l17 129l36 307l-561 -2l-53 -434h-109l123 993h109l-57 -465l561 4l55 461h109z" />
    <glyph glyph-name="uni04C9" unicode="&#x4c9;" horiz-adv-x="1394" 
d="M1294 1454l-166 -1348h125l-2 -38l-178 -363h-84l121 295h-109l78 635h-755l-78 -635h-115l178 1454h115l-88 -713h758l86 713h114z" />
    <glyph glyph-name="uni04CA" unicode="&#x4ca;" horiz-adv-x="1110" 
d="M977 94h49l-2 -20l-170 -359h-82l119 285q-116 18 -98 174l30 262l-557 -2l-53 -434h-109l123 993h109l-57 -465l557 4l55 461h108l-94 -766q-9 -75 7.5 -103t64.5 -30z" />
    <glyph glyph-name="uni04CB" unicode="&#x4cb;" horiz-adv-x="1206" 
d="M1016 1454h117l-181 -1454h-194l-49 -295h-97l54 401h184l63 517q-92 -49 -207 -78t-204 -29q-207 0 -281.5 107.5t-44.5 345.5l62 485h114l-61 -487q-23 -192 28.5 -268t208.5 -76q81 0 190 25.5t210 78.5z" />
    <glyph glyph-name="uni04CC" unicode="&#x4cc;" horiz-adv-x="1001" 
d="M801 993h108l-123 -993h-84l-32 -2q-73 0 -82 -64l-35 -221h-90l31 232q6 45 22 74.5t40.5 42.5t42.5 17.5t44 6.5l45 2l60 483h-5q-65 -112 -172 -178.5t-213 -66.5q-289 0 -243 333l47 334h106l-45 -327q-19 -131 23.5 -187.5t140.5 -54.5q82 0 167.5 54t147 143
t74.5 184z" />
    <glyph glyph-name="uni04CD" unicode="&#x4cd;" horiz-adv-x="1681" 
d="M1579 1454l-164 -1348h125l-2 -38l-178 -363h-84l121 295h-109l148 1210h-6l-582 -905h-84l-367 920h-4l-147 -1225h-115l178 1454h115l397 -1001h6l639 1001h113z" />
    <glyph glyph-name="uni04CE" unicode="&#x4ce;" horiz-adv-x="1294" 
d="M1157 94h49l-2 -20l-170 -359h-82l119 285q-119 15 -98 174l78 629h-2l-412 -621h-76l-254 627h-2l-98 -809h-107l123 993h107l282 -690h4l455 690h107l-93 -766q-9 -76 6.5 -103.5t65.5 -29.5z" />
    <glyph glyph-name="uni04CF" unicode="&#x4cf;" horiz-adv-x="446" 
d="M115 0l184 1507h109l-187 -1507h-106z" />
    <glyph glyph-name="uni04D0" unicode="&#x4d0;" horiz-adv-x="1241" 
d="M760 1606q-111 0 -177 65.5t-65 188.5l96 8q-3 -78 37.5 -129t120.5 -51q79 0 138 53t87 133l84 -23q-44 -120 -130.5 -182.5t-190.5 -62.5zM-2 0l676 1454h123l325 -1454h-118l-84 391h-623l-180 -391h-119zM342 496h557l-178 813h-4z" />
    <glyph glyph-name="uni04D1" unicode="&#x4d1;" horiz-adv-x="1110" 
d="M686 1143q-112 0 -177.5 67t-64.5 199l97 12q-3 -91 36 -143.5t119 -52.5q82 0 141.5 55.5t86.5 146.5l84 -26q-44 -129 -130 -193.5t-192 -64.5zM434 -10q-108 0 -187 53.5t-117 142.5t-38 201q0 165 61.5 305t179 226t267.5 86q89 0 169 -30t128 -85l6 2l12 102h107
l-121 -993h-106l32 270h-4q-71 -129 -171 -204.5t-218 -75.5zM449 88q103 0 194 74.5t149.5 195.5t77.5 263l21 157q-50 66 -132.5 96.5t-156.5 30.5q-119 0 -212 -74t-141 -192t-48 -254q0 -133 65 -215t183 -82z" />
    <glyph glyph-name="uni04D2" unicode="&#x4d2;" horiz-adv-x="1241" 
d="M625 1696q-37 0 -60.5 24.5t-23.5 61.5q0 38 24.5 63t61.5 25q38 0 63 -23.5t25 -60.5q0 -38 -26 -64t-64 -26zM936 1696q-37 0 -60.5 24.5t-23.5 61.5q0 38 25 63t63 25q37 0 61.5 -23.5t24.5 -60.5q0 -38 -26 -64t-64 -26zM-2 0l676 1454h123l325 -1454h-118l-84 391
h-623l-180 -391h-119zM342 496h557l-178 813h-4z" />
    <glyph glyph-name="uni04D3" unicode="&#x4d3;" horiz-adv-x="1110" 
d="M549 1210q-37 0 -60.5 24.5t-23.5 61.5q0 38 24.5 63t61.5 25q38 0 63 -23.5t25 -60.5q0 -38 -26 -64t-64 -26zM860 1210q-37 0 -60.5 24.5t-23.5 61.5q0 38 25 63t63 25q37 0 61.5 -23.5t24.5 -60.5q0 -38 -26 -64t-64 -26zM434 -10q-108 0 -187 53.5t-117 142.5
t-38 201q0 165 61.5 305t179 226t267.5 86q89 0 169 -30t128 -85l6 2l12 102h107l-121 -993h-106l32 270h-4q-71 -129 -171 -204.5t-218 -75.5zM449 88q103 0 194 74.5t149.5 195.5t77.5 263l21 157q-50 66 -132.5 96.5t-156.5 30.5q-119 0 -212 -74t-141 -192t-48 -254
q0 -133 65 -215t183 -82z" />
    <glyph glyph-name="uni04D4" unicode="&#x4d4;" horiz-adv-x="1724" 
d="M-49 0l903 1454h850l-12 -106h-678l-68 -570h567l-12 -106h-569l-68 -566h713l-12 -106h-826l47 391h-464l-242 -391h-129zM381 494h420l100 835h-2z" />
    <glyph glyph-name="uni04D5" unicode="&#x4d5;" horiz-adv-x="1411" 
d="M995 92q64 0 134 35.5t124 103.5l84 -61q-66 -83 -157.5 -130.5t-186.5 -47.5q-147 0 -238.5 73t-117.5 207q-48 -130 -131.5 -206t-183.5 -76q-121 0 -195.5 100.5t-73.5 265.5q1 95 24 188t69.5 174t109.5 143t149.5 98t184.5 36q156 0 258 -75q117 84 274 84
q121 0 194 -62.5t73 -165.5q0 -85 -54 -155t-148.5 -117.5t-214.5 -77t-259 -39.5q3 -140 78 -217.5t204 -77.5zM1282 774q0 67 -49.5 98t-118.5 31q-160 0 -268 -119.5t-129 -308.5q157 13 282 50t204 102t79 147zM332 86q63 0 120.5 55.5t95 133t62.5 171.5
q22 256 162 408q-71 41 -176 41q-83 0 -155 -32.5t-122 -87.5t-86.5 -126.5t-53.5 -149t-17 -155.5q0 -119 48.5 -188.5t121.5 -69.5z" />
    <glyph glyph-name="uni04D6" unicode="&#x4d6;" horiz-adv-x="1118" 
d="M739 1610q-111 0 -176.5 65.5t-64.5 188.5l96 8q-3 -78 37.5 -129t120.5 -51q79 0 138 53t87 133l84 -23q-44 -120 -131 -182.5t-191 -62.5zM131 0l178 1454h787l-13 -106h-673l-70 -570h557l-10 -106h-559l-70 -566h711l-13 -106h-825z" />
    <glyph glyph-name="uni04D7" unicode="&#x4d7;" horiz-adv-x="954" 
d="M598 1143q-112 0 -177.5 67t-64.5 199l97 12q-3 -91 36 -143.5t119 -52.5q82 0 141.5 55.5t86.5 146.5l84 -26q-44 -129 -130 -193.5t-192 -64.5zM903 756q0 -55 -23.5 -102t-62.5 -82t-95.5 -63.5t-117 -48t-133 -34t-137 -23t-135.5 -14.5q4 -140 82.5 -218.5
t201.5 -78.5q163 0 287 139l82 -61q-76 -89 -165 -133.5t-206 -44.5q-175 0 -282 110.5t-107 300.5q0 163 63 299.5t182 219t269 82.5q48 0 96.5 -13t95 -40t76 -77.5t29.5 -117.5zM203 479q108 9 201 25t187 46t149 81t55 119q0 44 -18.5 76.5t-49 48.5t-61 23t-62.5 7
q-152 0 -265.5 -118.5t-135.5 -307.5z" />
    <glyph glyph-name="uni04D8" unicode="&#x4d8;" horiz-adv-x="1472" 
d="M819 1464q259 0 413 -159.5t154 -446.5q0 -139 -32 -268.5t-94.5 -238t-148.5 -189.5t-201 -126.5t-246 -45.5q-247 0 -398 161t-151 441q0 70 12 129h1135q8 90 8 135q0 240 -124 370t-337 130q-114 0 -224.5 -40.5t-189.5 -109.5l-69 84q94 78 219.5 126t273.5 48z
M672 98q140 0 257.5 69t195.5 185t116 266h-1014v-24q0 -233 122 -364.5t323 -131.5z" />
    <glyph glyph-name="uni04D9" unicode="&#x4d9;" horiz-adv-x="931" 
d="M471 1004q171 0 278 -114t107 -306q0 -168 -62 -301.5t-183.5 -212t-284.5 -78.5q-127 0 -206 68.5t-79 175.5q0 69 30.5 127t85 99t122 72.5t149.5 51.5t159.5 32t160.5 17q-10 126 -85 198t-194 72q-72 0 -143.5 -29t-118.5 -71l-64 76q60 54 148 88.5t180 34.5z
M334 92q180 0 290 124.5t124 322.5q-123 -9 -225 -29.5t-188.5 -55t-135.5 -88.5t-49 -124q0 -67 50 -108.5t134 -41.5z" />
    <glyph glyph-name="uni04DA" unicode="&#x4da;" horiz-adv-x="1472" 
d="M733 1700q-37 0 -60.5 24.5t-23.5 61.5q0 38 24.5 63t61.5 25q38 0 63 -23.5t25 -60.5q0 -38 -26 -64t-64 -26zM1044 1700q-36 0 -59.5 24.5t-23.5 61.5q0 38 25 63t63 25q37 0 61.5 -23.5t24.5 -60.5q0 -38 -26.5 -64t-64.5 -26zM819 1464q259 0 413 -159.5t154 -446.5
q0 -139 -32 -268.5t-94.5 -238t-148.5 -189.5t-201 -126.5t-246 -45.5q-247 0 -398 161t-151 441q0 70 12 129h1135q8 90 8 135q0 240 -124 370t-337 130q-114 0 -224.5 -40.5t-189.5 -109.5l-69 84q94 78 219.5 126t273.5 48zM672 98q140 0 257.5 69t195.5 185t116 266
h-1014v-24q0 -233 122 -364.5t323 -131.5z" />
    <glyph glyph-name="uni04DB" unicode="&#x4db;" horiz-adv-x="931" 
d="M408 1210q-37 0 -60.5 24.5t-23.5 61.5q0 38 24.5 63t61.5 25q38 0 63 -23.5t25 -60.5q0 -38 -26 -64t-64 -26zM719 1210q-37 0 -60.5 24.5t-23.5 61.5q0 38 25 63t63 25q37 0 61.5 -23.5t24.5 -60.5q0 -38 -26 -64t-64 -26zM471 1004q171 0 278 -114t107 -306
q0 -168 -62 -301.5t-183.5 -212t-284.5 -78.5q-127 0 -206 68.5t-79 175.5q0 69 30.5 127t85 99t122 72.5t149.5 51.5t159.5 32t160.5 17q-10 126 -85 198t-194 72q-72 0 -143.5 -29t-118.5 -71l-64 76q60 54 148 88.5t180 34.5zM334 92q180 0 290 124.5t124 322.5
q-123 -9 -225 -29.5t-188.5 -55t-135.5 -88.5t-49 -124q0 -67 50 -108.5t134 -41.5z" />
    <glyph glyph-name="uni04DC" unicode="&#x4dc;" horiz-adv-x="1720" 
d="M854 1696q-37 0 -60.5 24.5t-23.5 61.5q0 38 24.5 63t61.5 25q38 0 63 -23.5t25 -60.5q0 -38 -26 -64t-64 -26zM1165 1696q-37 0 -60.5 24.5t-23.5 61.5q0 38 25 63t63 25q37 0 61.5 -23.5t24.5 -60.5q0 -38 -26 -64t-64 -26zM1782 1454l-563 -694l395 -760h-131
l-355 680l-229 -272l-47 -408h-111l50 412l-156 270l-520 -682h-133l581 762l-393 692h131l504 -891l6 2l109 889h110l-108 -889l2 -2l718 891h140z" />
    <glyph glyph-name="uni04DD" unicode="&#x4dd;" horiz-adv-x="1433" 
d="M649 1210q-37 0 -60.5 24.5t-23.5 61.5q0 38 24.5 63t61.5 25q38 0 63 -23.5t25 -60.5q0 -38 -26 -64t-64 -26zM961 1210q-37 0 -60.5 24.5t-23.5 61.5q0 38 25 63t63 25q37 0 61.5 -23.5t24.5 -60.5q0 -38 -26 -64t-64 -26zM1165 283q49 -118 81.5 -156.5t82.5 -46.5
l-31 -88q-33 0 -47 4q-33 7 -59 26.5t-48 55.5t-38.5 73t-38.5 97l-72 168q-130 -100 -262 -150l-33 -266h-106l74 588l-4 2q-195 -85 -328.5 -243.5t-194.5 -346.5h-106q36 131 118.5 258.5t194.5 230.5l-78 224q-39 115 -74.5 153.5t-89.5 48.5l29 86q33 0 47 -4
q65 -13 109 -76t78 -176l65 -184q119 90 246 133l37 299h104l-76 -622l3 -2q206 103 345.5 270t198.5 354h107q-38 -137 -121.5 -268t-198.5 -238z" />
    <glyph glyph-name="uni04DE" unicode="&#x4de;" horiz-adv-x="1153" 
d="M578 1696q-37 0 -60.5 24.5t-23.5 61.5q0 38 24.5 63t61.5 25q38 0 63 -23.5t25 -60.5q0 -38 -26 -64t-64 -26zM889 1696q-37 0 -60.5 24.5t-23.5 61.5q0 38 25 63t63 25q37 0 61.5 -23.5t24.5 -60.5q0 -38 -26 -64t-64 -26zM545 -10q-152 0 -276.5 59t-198.5 168l86 76
q65 -96 166 -145.5t225 -49.5q172 0 271.5 91.5t99.5 250.5q0 269 -326 269h-221l14 102h197q162 0 260 89.5t98 225.5q0 109 -71.5 170.5t-206.5 61.5q-179 0 -338 -111l-72 84q182 133 418 133q111 0 196.5 -33t138 -105.5t52.5 -176.5q0 -126 -69 -225t-197 -148v-4
q110 -30 177.5 -113.5t67.5 -222.5q0 -206 -131.5 -326t-359.5 -120z" />
    <glyph glyph-name="uni04DF" unicode="&#x4df;" horiz-adv-x="886" 
d="M383 1210q-37 0 -60.5 24.5t-23.5 61.5q0 38 24.5 63t61.5 25q38 0 63 -23.5t25 -60.5q0 -38 -26 -64t-64 -26zM694 1210q-37 0 -60.5 24.5t-23.5 61.5q0 38 25 63t63 25q37 0 61.5 -23.5t24.5 -60.5q0 -38 -26 -64t-64 -26zM389 -8q-223 0 -377 108l43 97
q128 -107 338 -107q126 0 204.5 61.5t78.5 161.5q0 72 -58 113t-157 41h-201l12 86l148 2q109 0 193.5 57.5t84.5 149.5q0 41 -19 71t-50 45t-63.5 22t-67.5 7q-169 0 -308 -84l-38 90q154 91 350 91q52 0 103 -12t98.5 -37t76.5 -70.5t29 -106.5q0 -92 -56.5 -154
t-148.5 -96v-4q85 -18 132.5 -76t47.5 -137q0 -150 -110.5 -234.5t-284.5 -84.5z" />
    <glyph glyph-name="uni04E0" unicode="&#x4e0;" horiz-adv-x="1136" 
d="M549 -10q-155 0 -279.5 58.5t-199.5 168.5l86 76q133 -195 395 -195q169 0 268 88.5t99 237.5q0 164 -123.5 238.5t-356.5 74.5h-51l6 64l555 542v5h-686l12 106h838l-12 -88l-545 -537v-2q225 -11 353 -110.5t128 -288.5q0 -200 -131 -319t-356 -119z" />
    <glyph glyph-name="uni04E1" unicode="&#x4e1;" horiz-adv-x="823" 
d="M766 993l-8 -63l-445 -471h25q78 0 146.5 -23t122.5 -67.5t85 -116.5t31 -164q0 -225 -141 -363.5t-365 -138.5q-193 0 -309 76l35 96q109 -71 276 -71q174 0 284.5 109.5t110.5 285.5q0 77 -26 135.5t-72 92.5t-102.5 50.5t-122.5 16.5q-53 0 -107 -12l-22 63l440 469v2
h-496l13 94h647z" />
    <glyph glyph-name="uni04E2" unicode="&#x4e2;" horiz-adv-x="1396" 
d="M592 1683l12 93h514l-12 -93h-514zM131 0l178 1454h115l-154 -1247h2l945 1247h106l-176 -1454h-117l152 1237h-2l-940 -1237h-109z" />
    <glyph glyph-name="uni04E3" unicode="&#x4e3;" horiz-adv-x="1069" 
d="M358 1245l13 94h514l-13 -94h-514zM389 -10q-157 0 -225 96.5t-39 304.5l82 602h106l-80 -594q-12 -73 -7 -126.5t18 -88.5t39.5 -56t58 -29.5t72.5 -8.5q82 0 167.5 61t150.5 168t83 230l53 444h107l-121 -993h-109l35 266h-4q-68 -126 -170 -201t-217 -75z" />
    <glyph glyph-name="uni04E4" unicode="&#x4e4;" horiz-adv-x="1396" 
d="M698 1696q-37 0 -60.5 24.5t-23.5 61.5q0 38 24.5 63t61.5 25q38 0 63 -23.5t25 -60.5q0 -38 -26 -64t-64 -26zM1010 1696q-37 0 -60.5 24.5t-23.5 61.5q0 38 25 63t63 25q37 0 61.5 -23.5t24.5 -60.5q0 -38 -26 -64t-64 -26zM131 0l178 1454h115l-154 -1247h2l945 1247
h106l-176 -1454h-117l152 1237h-2l-940 -1237h-109z" />
    <glyph glyph-name="uni04E5" unicode="&#x4e5;" horiz-adv-x="1069" 
d="M463 1210q-37 0 -60.5 24.5t-23.5 61.5q0 38 24.5 63t61.5 25q38 0 63 -23.5t25 -60.5q0 -38 -26 -64t-64 -26zM774 1210q-37 0 -60.5 24.5t-23.5 61.5q0 38 25 63t63 25q37 0 61.5 -23.5t24.5 -60.5q0 -38 -26 -64t-64 -26zM389 -10q-157 0 -225 96.5t-39 304.5l82 602
h106l-80 -594q-12 -73 -7 -126.5t18 -88.5t39.5 -56t58 -29.5t72.5 -8.5q82 0 167.5 61t150.5 168t83 230l53 444h107l-121 -993h-109l35 266h-4q-68 -126 -170 -201t-217 -75z" />
    </font>
</defs>
</svg>
